<svg xmlns="http://www.w3.org/2000/svg" xmlns:xlink="http://www.w3.org/1999/xlink" viewBox="0 0 95.03 90.15"><defs><style>.cls-1{fill:#dde2f0;}.cls-2{fill:#ab969e;}.cls-3{fill:#f4d744;opacity:0.57;}.cls-4{fill:#3d223e;}.cls-5{fill:#d9c3ba;}.cls-6{fill:url(#linear-gradient);}.cls-7{fill:#f8f4f0;}.cls-8{fill:#f4ebe6;}.cls-9{fill:#e5d0c9;}.cls-10{fill:url(#linear-gradient-2);}.cls-11{fill:none;stroke:#0a45b8;stroke-linecap:round;stroke-miterlimit:10;stroke-width:2px;}</style><linearGradient id="linear-gradient" x1="67.76" y1="20.11" x2="73.59" y2="4.08" gradientUnits="userSpaceOnUse"><stop offset="0.23" stop-color="#d9c3ba"/><stop offset="0.64" stop-color="#ebdfd9"/><stop offset="1" stop-color="#f8f4f0"/></linearGradient><linearGradient id="linear-gradient-2" x1="27.4" y1="44.57" x2="65.5" y2="34.36" gradientUnits="userSpaceOnUse"><stop offset="0.13" stop-color="#d9c3ba"/><stop offset="0.23" stop-color="#ddcac2"/><stop offset="0.73" stop-color="#f1e8e3"/><stop offset="1" stop-color="#f8f4f0"/></linearGradient></defs><title>Ресурс 1600</title><g id="Слой_2" data-name="Слой 2"><g id="Illustration"><path class="cls-1" d="M45.13,8.43A44.16,44.16,0,0,1,66,11.8,45.59,45.59,0,0,1,87.23,30C97.44,47,98.51,74,85.11,82.5s-29.36,0-31.49-1.07-16.59-6.38-23-.64-6.17,9.36-11.27,9.36S-.62,79.31,0,51.44c.32-14,7.49-26.15,19.1-33.8A55.3,55.3,0,0,1,45.13,8.43Z"/><path class="cls-2" d="M42.45,71.5c1.51-.06,3,0,4.53,0,.93,0,1.86,0,2.8,0a3.2,3.2,0,0,0,1.76-.24,2.13,2.13,0,0,0,.53-1.87,6.07,6.07,0,0,0-.57-2.1,2.45,2.45,0,0,0-.82-.9,3.93,3.93,0,0,0-1.62-.46c-3.28-.42-6.72-.55-9.78.69-1.12.45-2.11,1.16-3.22,1.6A10.23,10.23,0,0,0,34,69.26a3.17,3.17,0,0,0-.57.47c-.14.16-.26.35-.39.53a6.28,6.28,0,0,1-1.87,1.56c2.28.09,4.57-.08,6.86-.13,1.13,0,2.27,0,3.4-.13C41.76,71.53,42.1,71.51,42.45,71.5Z"/><path class="cls-2" d="M50.26,52.73A6.09,6.09,0,0,1,53.78,52c2-.19,4.11-.35,5.94.47,1.05.48.93,1.89,1.51,2.89a14.59,14.59,0,0,0,1.83,2.32c.78.86,1.57,1.71,2.36,2.56a13.08,13.08,0,0,0,2.21,2.25,2,2,0,0,0,.5.25,3.18,3.18,0,0,0,.62.07,47.18,47.18,0,0,1,5.3.58,3.09,3.09,0,0,1,1.27.39,4.25,4.25,0,0,1,1.26,2.55A2.36,2.36,0,0,1,76.52,68a2.5,2.5,0,0,1-1.84.94,3.21,3.21,0,0,1-2.39-.18c-1.46.8-3.26,0-4.92,0a7.07,7.07,0,0,1-2.64-.08,5.25,5.25,0,0,1-1.12-.7,9.74,9.74,0,0,0-1.21-.7c-.93-.5-1.91-.92-2.81-1.44s-1.85-1-2.8-1.52c-1.9-1-3.84-1.89-5.82-2.72a4.68,4.68,0,0,1-2.7-2,4.54,4.54,0,0,1,.29-3.3,15.11,15.11,0,0,1,.91-2.68A2.9,2.9,0,0,1,50.26,52.73Z"/><path class="cls-2" d="M57.3,10.24a19.17,19.17,0,0,1,1.07-5.59c.12-.29.31-.61.62-.6a.76.76,0,0,1,.51.3A16.26,16.26,0,0,1,61.93,8c.69,1.34,1.33,2.72,1.91,4.12A1.88,1.88,0,0,1,64,13a1.64,1.64,0,0,1-.35.8,19.68,19.68,0,0,1-2.61,2.94,14.7,14.7,0,0,1-1.73,1.52A7.42,7.42,0,0,1,58.1,19c-.21.1-1,.53-1.23.43-.42-.18-.09-2.39-.07-2.87C56.92,14.46,57.11,12.35,57.3,10.24Z"/><path class="cls-3" d="M80.81,13a2,2,0,0,1,.7.09,3,3,0,0,1,.59.32,1.39,1.39,0,0,0-.44-1.52,2.32,2.32,0,0,0-.7-.4A1.75,1.75,0,0,0,80.81,13Z"/><path class="cls-4" d="M80.81,13a2,2,0,0,1,.7.09,3,3,0,0,1,.59.32,1.39,1.39,0,0,0-.44-1.52,2.32,2.32,0,0,0-.7-.4A1.75,1.75,0,0,0,80.81,13Z"/><path class="cls-5" d="M82.1,13.36a3,3,0,0,0-.59-.32,2,2,0,0,0-.7-.09A1.75,1.75,0,0,1,81,11.44a4.82,4.82,0,0,0-.85-.22A9,9,0,0,1,78,10.75a20,20,0,0,1-2.06-1.19,5.49,5.49,0,0,0-1-.48,5,5,0,0,0-2-.05,34.86,34.86,0,0,0-5.28.89,11.37,11.37,0,0,0-4.72,2.45,27.32,27.32,0,0,1-2.14,2c-.44.33-.93.58-1.35.93a7.69,7.69,0,0,0-1.19,1.36c-1.19,1.6-2.33,3.32-3.45,5a3.88,3.88,0,0,0-1.46.26l-1.6.51c-.1,0-.19,0-.14.11-3.3-2.14-7.4-1.84-11.15-1.77-4.16.07-8.36.51-12.15,2.34a26.81,26.81,0,0,0-9.62,7.73,33.35,33.35,0,0,0-6,13.47,18.68,18.68,0,0,0,.17,9.07c.92,3.1.7,6.25,1.48,9.37a22.89,22.89,0,0,0,4,8.38,3.46,3.46,0,0,0,.9.89c1.13.66,2.78.4,4,.38,1.55,0,3.1-.07,4.64-.17a41.29,41.29,0,0,0,8.08-1c4.89-1.29,9.15-4.32,12.78-7.83l.1-.09a30,30,0,0,1,3.18-2.9,22.25,22.25,0,0,1,2.88-1.67c.84-.44,1.78-.47,2.65-.88a8.89,8.89,0,0,0,2.13-1.47,3.81,3.81,0,0,0,.36-.33c1.13-1.08,2.14-2.25,3.29-3.3s2.51-2,3.59-3.11A24.13,24.13,0,0,0,71,42.55c.29-.66.58-1.32.82-2,.65-1.86.92-3.84,1.65-5.67a14.4,14.4,0,0,1,1.13-2.17c.35-.56.71-1.09,1.1-1.62.55-.73,1.13-1.44,1.61-2.21a7.52,7.52,0,0,0,.56-1,13.07,13.07,0,0,0,.86-3c.28-1.39.49-2.85.68-4.25a6.53,6.53,0,0,0,2.19-1.26,4.19,4.19,0,0,0,1.17-3A7.06,7.06,0,0,0,82.1,13.36Z"/><path class="cls-6" d="M70.05,3.66c-1,1.83-1.8,3.78-2.88,5.57-.71,1.19-1.55,2.3-2.18,3.53a4.09,4.09,0,0,0-.31.75,3.51,3.51,0,0,0-.08,1,5.61,5.61,0,0,0,1,3.21,9.71,9.71,0,0,0,2.79,2.43,5.45,5.45,0,0,0,4.07,1.06.75.75,0,0,0,.38-.18.78.78,0,0,0,.16-.36A7.93,7.93,0,0,0,73.21,19a21.51,21.51,0,0,0,0-3.11c-.07-.57-.18-1.14-.2-1.71s0-1,0-1.44a22,22,0,0,0-.13-2.57A20.28,20.28,0,0,0,71.68,4a2.11,2.11,0,0,0-.42-.67.75.75,0,0,0-.74-.17A1,1,0,0,0,70.05,3.66Z"/><path class="cls-7" d="M82.1,13.36a3,3,0,0,0-.59-.32,2,2,0,0,0-.7-.09s-.41.34-.43.36c-.18.21-.38.4-.58.6-.39.37-.79.73-1.14,1.13a3.1,3.1,0,0,0-.88,2.49A2.06,2.06,0,0,0,79,19a2.54,2.54,0,0,0,2.11-.43,4.36,4.36,0,0,0,1.46-1.83,5.42,5.42,0,0,0,.22-.56A7.26,7.26,0,0,0,82.1,13.36Z"/><path class="cls-2" d="M69,31.8a14.49,14.49,0,0,0,5.64.9c.34-.55.71-1.09,1.09-1.61L76.56,30A10.28,10.28,0,0,1,69,31.8Z"/><path class="cls-8" d="M49.3,51.76a6.06,6.06,0,0,1,.92,1.66A5.51,5.51,0,0,0,49.3,51.76Z"/><path class="cls-8" d="M49.17,51.6l.11.13Z"/><path class="cls-8" d="M49.28,51.73l0,0Z"/><path class="cls-4" d="M80.81,13a2,2,0,0,1,.7.09,3,3,0,0,1,.59.32,1.39,1.39,0,0,0-.44-1.52,2.32,2.32,0,0,0-.7-.4A1.75,1.75,0,0,0,80.81,13Z"/><path class="cls-4" d="M80.81,13a2,2,0,0,1,.7.09,3,3,0,0,1,.59.32,1.39,1.39,0,0,0-.44-1.52,2.32,2.32,0,0,0-.7-.4A1.75,1.75,0,0,0,80.81,13Z"/><path class="cls-9" d="M46.51,65.4l-.68.55Z"/><path class="cls-9" d="M40,69.68l-.52.24Z"/><path class="cls-9" d="M38.21,70.46l-.43.16Z"/><path class="cls-9" d="M40.9,69.23l-.54.29Z"/><path class="cls-9" d="M41.75,68.76l-.57.33Z"/><path class="cls-9" d="M44.21,67.18l-.63.44Z"/><path class="cls-9" d="M45,66.6l-.66.49Z"/><path class="cls-9" d="M43.41,67.74l-.62.4Z"/><path class="cls-9" d="M45.76,66l-.67.52Z"/><path class="cls-9" d="M42.58,68.27l-.58.36Z"/><path class="cls-9" d="M39.13,70.08l-.47.21Z"/><path class="cls-9" d="M48.64,63.48l-.68.64Z"/><path class="cls-9" d="M48,64.13l-.69.61Z"/><path class="cls-9" d="M25.79,72.32l-.43,0Z"/><path class="cls-9" d="M23.24,72.39l-2.58,0A22,22,0,0,0,23.24,72.39Z"/><path class="cls-9" d="M47.24,64.76l-.69.6Z"/><path class="cls-9" d="M37.24,70.81l-.34.11Z"/><polygon class="cls-2" points="48.64 63.48 48.64 63.48 48.64 63.48 48.64 63.48"/><path class="cls-2" d="M45.09,66.53,45,66.6Z"/><path class="cls-2" d="M44.34,67.09l-.13.09Z"/><path class="cls-2" d="M48,64.12h0Z"/><path class="cls-2" d="M46.55,65.36l0,0Z"/><path class="cls-2" d="M45.83,66l-.07.06Z"/><path class="cls-2" d="M47.26,64.74l0,0Z"/><path class="cls-2" d="M41.18,69.09l-.28.14Z"/><path class="cls-2" d="M27.91,72.22c-.7,0-1.41.08-2.12.1C26.5,72.3,27.21,72.27,27.91,72.22Z"/><path class="cls-2" d="M36.9,70.92c-.3.1-.6.18-.91.26C36.3,71.1,36.6,71,36.9,70.92Z"/><path class="cls-2" d="M23.24,72.39l2.12,0-2.09,0Z"/><path class="cls-2" d="M43.58,67.62l-.17.12Z"/><path class="cls-2" d="M37.78,70.62c-.17.07-.36.13-.54.19C37.42,70.75,37.61,70.69,37.78,70.62Z"/><path class="cls-2" d="M38.66,70.29l-.45.17Z"/><path class="cls-2" d="M42.79,68.14l-.21.13Z"/><path class="cls-2" d="M42,68.63l-.25.13Z"/><path class="cls-2" d="M39.51,69.92l-.38.16Z"/><path class="cls-2" d="M40.36,69.52l-.33.16Z"/><path class="cls-2" d="M49.24,62.29a1,1,0,0,0,0-.48,3.76,3.76,0,0,0-.38-.65A5.19,5.19,0,0,1,48,57.74c.77-2.9,3.19-5.06,5-7.37a21.42,21.42,0,0,0-2.66-.45,9.83,9.83,0,0,0-2,.39c-1.2.33-2.59.64-3.8,1-3.26,4.82-5.36,10.65-10,14.17C31,68.09,26.59,69,22.39,70.27c-1.26.37-2.51.78-3.75,1.2a2.6,2.6,0,0,0,.61.54,3.5,3.5,0,0,0,1.41.41l2.58,0h0l2.09,0,.43,0c.71,0,1.42,0,2.12-.1a41.29,41.29,0,0,0,8.08-1c.31-.08.61-.16.91-.26l.34-.11c.18-.06.37-.12.54-.19l.43-.16.45-.17.47-.21.38-.16.52-.24.33-.16.54-.29.28-.14.57-.33.25-.13.58-.36.21-.13.62-.4.17-.12.63-.44.13-.09L45,66.6l.09-.07.67-.52.07-.06.68-.55,0,0,.69-.6,0,0,.69-.61h0l.68-.64h0a.41.41,0,0,0,0-.09A4,4,0,0,0,49.24,62.29Z"/><path class="cls-5" d="M49.36,55.24a6.07,6.07,0,0,1,3.52-.75c2-.19,4.1-.35,5.93.48,1.06.47.93,1.88,1.52,2.88a14.59,14.59,0,0,0,1.83,2.32c.78.86,1.57,1.71,2.36,2.56A12.73,12.73,0,0,0,66.73,65a1.68,1.68,0,0,0,.5.25,2.56,2.56,0,0,0,.62.07,49.63,49.63,0,0,1,5.3.58,3.09,3.09,0,0,1,1.27.39,4.37,4.37,0,0,1,1.26,2.55,2.36,2.36,0,0,1-.07,1.64,2.43,2.43,0,0,1-1.83.94,3.21,3.21,0,0,1-2.39-.18c-1.47.8-3.26,0-4.92,0a7.07,7.07,0,0,1-2.64-.08,5.63,5.63,0,0,1-1.12-.69,10.5,10.5,0,0,0-1.22-.71c-.92-.5-1.9-.91-2.81-1.44s-1.85-1-2.79-1.52c-1.9-1-3.84-1.89-5.82-2.72a4.68,4.68,0,0,1-2.7-2,4.54,4.54,0,0,1,.29-3.3,15.11,15.11,0,0,1,.91-2.68A2.66,2.66,0,0,1,49.36,55.24Z"/><path class="cls-2" d="M63.29,23.12a2.74,2.74,0,0,1,1,1.5,3.42,3.42,0,0,1-.07,1.79,5.32,5.32,0,0,1-1,1.83,7.07,7.07,0,0,1-1.88,1.64c.31-.61.61-1.18.86-1.74a14.66,14.66,0,0,0,.62-1.66,10.79,10.79,0,0,0,.35-1.65c.08-.55.11-1.11.15-1.71"/><path class="cls-2" d="M66.89,20.91a5,5,0,0,1,1,2.55,7,7,0,0,1-.31,2.84,10.49,10.49,0,0,1-1.46,2.89,12.6,12.6,0,0,1-2.59,2.7c.57-.95,1.11-1.87,1.56-2.79a18.89,18.89,0,0,0,1.1-2.74,17.94,17.94,0,0,0,.6-2.72,22.59,22.59,0,0,0,.14-2.73"/><path class="cls-10" d="M54.3,52.08a6.89,6.89,0,0,0,4-.21c1.92-.78,2.51-2.11,2.79-4.09.38-2.62.81-5.22,1.23-7.84.15-.93.3-1.86.37-2.8A34.1,34.1,0,0,0,62.37,31a6.63,6.63,0,0,0,.87-4.66,4.33,4.33,0,0,0-.39-1.63c-.26-.5-.63-1-1.19-1.1a5.51,5.51,0,0,0-.06-1.9,1.84,1.84,0,0,0-1.21-1.36,2.5,2.5,0,0,0-1.47.18,10.06,10.06,0,0,0-1.19.77,6.69,6.69,0,0,0-2.11,1.62c-.57.68-.51,1.76-.84,2.59a14.4,14.4,0,0,0-.64,5.78c.06,2.19.1,4.42.15,6.6-5.48-2.09-9.48-7.31-15.17-8.76a7,7,0,0,0-2.84-.22,9.85,9.85,0,0,0-2.89,1.14l-4.64,2.44a5,5,0,0,0-2.57,2.24c-.74,1.84-.11,3.76.32,5.59.61,2.57,1,5.22,1.88,7.73,1.29,3.86,4.72,5,8.43,5.54a32.09,32.09,0,0,0,3.91.47c1.94,0,3.22-.67,4.88-1.52A10.78,10.78,0,0,1,50,51.46,19.85,19.85,0,0,1,54.3,52.08Z"/><path class="cls-5" d="M17.91,70.55c.21.28.42.54.61.77,7.11,8.4,19.54,10.24,29.9,10.72,5.19.25,10.54.27,14.92-3A4.6,4.6,0,0,0,65.49,76a2.73,2.73,0,0,0-1.75-2.72,2.68,2.68,0,0,0-3.07,1c-2.12,2.84-7.48,1.9-10.55,1.6a67.72,67.72,0,0,1-14-3.21C32.08,71.4,28,69.63,24.9,66.6c-1.23-1.19-2.39-2.62-4-3a4,4,0,0,0-4.3,2C15.74,67.16,16.85,69.14,17.91,70.55Z"/><path class="cls-11" d="M50.35,24.07s-.76-5.85,3.74-8.91a9.47,9.47,0,0,1,9-.87"/><path class="cls-11" d="M43.6,24.79s-1.25-9.54,6.1-14.54A15.45,15.45,0,0,1,64.42,8.83"/><path class="cls-11" d="M37,26.06s-1.82-13.9,8.88-21.18A22.55,22.55,0,0,1,67.28,2.81"/></g></g></svg>