<svg xmlns="http://www.w3.org/2000/svg" xmlns:xlink="http://www.w3.org/1999/xlink" viewBox="0 0 126.85 81.86"><defs><style>.cls-1{fill:#dde2f0;}.cls-2{fill:url(#linear-gradient);}.cls-3{fill:#8d6558;}.cls-4{fill:url(#linear-gradient-2);}.cls-5{fill:url(#linear-gradient-3);}.cls-6{fill:url(#linear-gradient-4);}.cls-7{fill:#feca82;}.cls-8{fill:#fee6ce;}.cls-9{fill:#562835;}.cls-10{fill:#efb1ac;}.cls-11{fill:url(#linear-gradient-5);}.cls-12{fill:url(#linear-gradient-6);}.cls-13{fill:url(#linear-gradient-7);}.cls-14{fill:url(#linear-gradient-8);}.cls-15{fill:url(#linear-gradient-9);}.cls-16{fill:url(#linear-gradient-10);}.cls-17{fill:url(#linear-gradient-11);}.cls-18{fill:url(#linear-gradient-12);}.cls-19{fill:#ad896d;}.cls-20{fill:url(#linear-gradient-13);}.cls-21{fill:url(#linear-gradient-14);}.cls-22{fill:url(#linear-gradient-15);}.cls-23{fill:none;stroke:#0a45b8;stroke-linecap:round;stroke-miterlimit:10;stroke-width:2px;}</style><linearGradient id="linear-gradient" x1="92.82" y1="30.35" x2="105.9" y2="30.35" gradientUnits="userSpaceOnUse"><stop offset="0" stop-color="#8d6558"/><stop offset="0.31" stop-color="#8a6155"/><stop offset="0.65" stop-color="#7f534e"/><stop offset="1" stop-color="#6f3e42"/></linearGradient><linearGradient id="linear-gradient-2" x1="3.91" y1="44.35" x2="126.85" y2="44.35" gradientUnits="userSpaceOnUse"><stop offset="0" stop-color="#ad896d"/><stop offset="0.44" stop-color="#ab876c"/><stop offset="0.62" stop-color="#a58068"/><stop offset="0.75" stop-color="#9b7461"/><stop offset="0.86" stop-color="#8d6257"/><stop offset="0.96" stop-color="#7a4b4a"/><stop offset="1" stop-color="#6f3e42"/></linearGradient><linearGradient id="linear-gradient-3" x1="14.56" y1="31.84" x2="9.65" y2="18.35" gradientUnits="userSpaceOnUse"><stop offset="0" stop-color="#ad896d"/><stop offset="0.21" stop-color="#a9846a"/><stop offset="0.46" stop-color="#9c7561"/><stop offset="0.74" stop-color="#885c53"/><stop offset="1" stop-color="#6f3e42"/></linearGradient><linearGradient id="linear-gradient-4" x1="107.16" y1="35.82" x2="100.59" y2="47.19" gradientUnits="userSpaceOnUse"><stop offset="0" stop-color="#ad896d"/><stop offset="0.34" stop-color="#a68168"/><stop offset="0.87" stop-color="#936b5c"/><stop offset="1" stop-color="#8d6558"/></linearGradient><linearGradient id="linear-gradient-5" x1="28.13" y1="37.16" x2="17.53" y2="49.78" gradientUnits="userSpaceOnUse"><stop offset="0" stop-color="#6f3e42" stop-opacity="0"/><stop offset="0.3" stop-color="#6f3e42" stop-opacity="0.02"/><stop offset="0.48" stop-color="#6f3e42" stop-opacity="0.1"/><stop offset="0.62" stop-color="#6f3e42" stop-opacity="0.23"/><stop offset="0.75" stop-color="#6f3e42" stop-opacity="0.41"/><stop offset="0.87" stop-color="#6f3e42" stop-opacity="0.64"/><stop offset="0.98" stop-color="#6f3e42" stop-opacity="0.93"/><stop offset="1" stop-color="#6f3e42"/></linearGradient><linearGradient id="linear-gradient-6" x1="79.77" y1="30.65" x2="91.79" y2="30.65" gradientUnits="userSpaceOnUse"><stop offset="0" stop-color="#6f3e42" stop-opacity="0"/><stop offset="0.2" stop-color="#6f3e42" stop-opacity="0.03"/><stop offset="0.39" stop-color="#6f3e42" stop-opacity="0.14"/><stop offset="0.57" stop-color="#6f3e42" stop-opacity="0.31"/><stop offset="0.75" stop-color="#6f3e42" stop-opacity="0.55"/><stop offset="0.93" stop-color="#6f3e42" stop-opacity="0.86"/><stop offset="1" stop-color="#6f3e42"/></linearGradient><linearGradient id="linear-gradient-7" x1="74.55" y1="20.22" x2="70.63" y2="16.3" gradientUnits="userSpaceOnUse"><stop offset="0" stop-color="#6f3e42" stop-opacity="0"/><stop offset="0.33" stop-color="#6f3e42" stop-opacity="0.02"/><stop offset="0.52" stop-color="#6f3e42" stop-opacity="0.1"/><stop offset="0.67" stop-color="#6f3e42" stop-opacity="0.22"/><stop offset="0.81" stop-color="#6f3e42" stop-opacity="0.4"/><stop offset="0.93" stop-color="#6f3e42" stop-opacity="0.63"/><stop offset="1" stop-color="#6f3e42" stop-opacity="0.8"/></linearGradient><linearGradient id="linear-gradient-8" x1="91.71" y1="39.16" x2="92.39" y2="31.4" gradientUnits="userSpaceOnUse"><stop offset="0" stop-color="#6f3e42" stop-opacity="0"/><stop offset="0.4" stop-color="#6f3e42" stop-opacity="0.02"/><stop offset="0.58" stop-color="#6f3e42" stop-opacity="0.08"/><stop offset="0.71" stop-color="#6f3e42" stop-opacity="0.2"/><stop offset="0.82" stop-color="#6f3e42" stop-opacity="0.36"/><stop offset="0.92" stop-color="#6f3e42" stop-opacity="0.57"/><stop offset="1" stop-color="#6f3e42" stop-opacity="0.8"/></linearGradient><linearGradient id="linear-gradient-9" x1="31.06" y1="53.9" x2="53.24" y2="53.9" gradientUnits="userSpaceOnUse"><stop offset="0" stop-color="#6f3e42" stop-opacity="0"/><stop offset="0.35" stop-color="#6f3e42" stop-opacity="0.02"/><stop offset="0.56" stop-color="#6f3e42" stop-opacity="0.1"/><stop offset="0.73" stop-color="#6f3e42" stop-opacity="0.23"/><stop offset="0.88" stop-color="#6f3e42" stop-opacity="0.41"/><stop offset="1" stop-color="#6f3e42" stop-opacity="0.6"/></linearGradient><linearGradient id="linear-gradient-10" x1="57.81" y1="67.74" x2="58.56" y2="67.74" xlink:href="#linear-gradient-9"/><linearGradient id="linear-gradient-11" x1="68.7" y1="20.47" x2="56.63" y2="41.36" gradientUnits="userSpaceOnUse"><stop offset="0.24" stop-color="#6f3e42" stop-opacity="0"/><stop offset="0.47" stop-color="#6f3e42" stop-opacity="0.03"/><stop offset="0.63" stop-color="#6f3e42" stop-opacity="0.11"/><stop offset="0.76" stop-color="#6f3e42" stop-opacity="0.24"/><stop offset="0.89" stop-color="#6f3e42" stop-opacity="0.44"/><stop offset="0.97" stop-color="#6f3e42" stop-opacity="0.6"/></linearGradient><linearGradient id="linear-gradient-12" x1="40.25" y1="60.82" x2="59.76" y2="27.02" gradientUnits="userSpaceOnUse"><stop offset="0" stop-color="#fee6ce" stop-opacity="0.4"/><stop offset="0.02" stop-color="#f0d6bd" stop-opacity="0.5"/><stop offset="0.07" stop-color="#d7baa0" stop-opacity="0.69"/><stop offset="0.13" stop-color="#c4a489" stop-opacity="0.83"/><stop offset="0.2" stop-color="#b79479" stop-opacity="0.93"/><stop offset="0.3" stop-color="#af8b70" stop-opacity="0.98"/><stop offset="0.57" stop-color="#ad896d"/></linearGradient><linearGradient id="linear-gradient-13" x1="46.01" y1="45.44" x2="46.72" y2="49.46" gradientUnits="userSpaceOnUse"><stop offset="0" stop-color="#6f3e42" stop-opacity="0"/><stop offset="0.25" stop-color="#6f3e42" stop-opacity="0.03"/><stop offset="0.49" stop-color="#6f3e42" stop-opacity="0.14"/><stop offset="0.73" stop-color="#6f3e42" stop-opacity="0.31"/><stop offset="0.96" stop-color="#6f3e42" stop-opacity="0.55"/><stop offset="1" stop-color="#6f3e42" stop-opacity="0.6"/></linearGradient><linearGradient id="linear-gradient-14" x1="50.46" y1="40.03" x2="53.02" y2="42.6" gradientUnits="userSpaceOnUse"><stop offset="0" stop-color="#6f3e42" stop-opacity="0"/><stop offset="0.29" stop-color="#6f3e42" stop-opacity="0.03"/><stop offset="0.51" stop-color="#6f3e42" stop-opacity="0.12"/><stop offset="0.72" stop-color="#6f3e42" stop-opacity="0.27"/><stop offset="0.91" stop-color="#6f3e42" stop-opacity="0.48"/><stop offset="1" stop-color="#6f3e42" stop-opacity="0.6"/></linearGradient><linearGradient id="linear-gradient-15" x1="34.4" y1="43.6" x2="30.64" y2="43.6" xlink:href="#linear-gradient-14"/></defs><title>Ресурс 2600</title><g id="Слой_2" data-name="Слой 2"><g id="Illustration"><path class="cls-1" d="M61.37.14A44,44,0,0,1,82.22,3.51a45.57,45.57,0,0,1,21.26,18.15c10.21,17,11.27,44-2.13,52.54S72,74.2,69.87,73.14s-16.59-6.38-23-.64-6.17,9.36-11.28,9.36S15.63,71,16.26,43.15c.32-14,7.5-26.15,19.1-33.8A55.34,55.34,0,0,1,61.37.14Z"/><path class="cls-2" d="M99,26.32a21,21,0,0,1,2.59,5.51,16,16,0,0,0,1.87,4.63,2.57,2.57,0,0,0,1.65,1.12,1.48,1.48,0,0,1,.56.12c.17.1.28.33.16.48a.53.53,0,0,1-.24.14,8.91,8.91,0,0,1-4.14,0,10.17,10.17,0,0,1-3.91-1.52,7.69,7.69,0,0,1-3.44-5.28c-.22-1.67.21-3.42-.27-5-.29-1-1.44-2.44-.88-3.51a1.74,1.74,0,0,1,1.47-.82c.57.05,1.2.66,1.63,1A14.19,14.19,0,0,1,99,26.32Z"/><path class="cls-3" d="M.23,37.54A.77.77,0,0,1,0,37.37c-.17-.28.22-.58.55-.65.51-.09,1,0,1.55-.1A22.26,22.26,0,0,0,6,35.41a7.75,7.75,0,0,1,2.83-.29c.36,0-.5,2.82-.61,3.06-.45,1-.67,1.19-1.72,1.08A14.38,14.38,0,0,1,.23,37.54Z"/><path class="cls-4" d="M126.81,46.47a3.41,3.41,0,0,0-.26-1.48,2.72,2.72,0,0,0-1.06-1c-1.07-.73-2.44-.85-3.63-1.37a16,16,0,0,1-1.57-.86c-.56-.33-1.13-.64-1.72-.93a4.68,4.68,0,0,1-.78-.38c-.16-.13-.29-.29-.46-.42a14.53,14.53,0,0,1-2.71-2,10.68,10.68,0,0,0-1-1.19,7.28,7.28,0,0,0-3-1.06c-2.88-.77-4.87-3.55-7.63-4.65a9.59,9.59,0,0,1-3.86-3.21c-1-1.35-1.89-2.82-3-4.14a17.62,17.62,0,0,0-3.22-3.12,9.12,9.12,0,0,0-2.12-1.22,15.1,15.1,0,0,0-2.47-.61c-1.07-.19-2.14-.4-3.21-.62a25.73,25.73,0,0,0-3.15-.6c-.45,0-.91-.05-1.36-.05-1.85,0-3.7.1-5.55.13-3.61.08-7.23-.28-10.85-.14a27,27,0,0,0-6.14.83c-1.93.52-3.75,1.4-5.73,1.75-3,.53-6.2-.16-9,1.07-.87.38-1.65.94-2.52,1.32a23.37,23.37,0,0,1-2.58.81,20.92,20.92,0,0,0-2.43.92,21.6,21.6,0,0,1-2.34,1.1,6.11,6.11,0,0,1-1,.06c-.42.05-.83.1-1.24.17a11.37,11.37,0,0,0-2.45.66,13.68,13.68,0,0,1-1.92.76,14.26,14.26,0,0,1-2.85.11,8.33,8.33,0,0,0-3.92,1.11A4.89,4.89,0,0,1,18,26.93a5.29,5.29,0,0,0-1.89-.81c-.32-.07-.5-.06-.72-.3s-.41-.55-.65-.78a5.63,5.63,0,0,0-1.36-.81c-1.54-.79-2.72-2.21-4.32-2.84-.8-.31-1.67-.41-2.44-.78a7.89,7.89,0,0,0-1-.48,1.15,1.15,0,0,0-1.07.13,1.3,1.3,0,0,0-.35,1.11c.11,1.44,1.14,2.6,1.91,3.81A8.31,8.31,0,0,0,8.4,28.12a2.18,2.18,0,0,1,.49.35,1.36,1.36,0,0,1,.24.74,3.19,3.19,0,0,1,.06,1.56,4,4,0,0,1-.7,1,8.09,8.09,0,0,0-2,3.41,9.48,9.48,0,0,0-.16,2.2,10.17,10.17,0,0,0,.06,1.35c.05.44.16.88.23,1.32.15,1,.08,2,.15,3a14.88,14.88,0,0,0-2.7,5.69,2.6,2.6,0,0,0,.1,2.22,2.39,2.39,0,0,0,1.56.78,5.29,5.29,0,0,0,3.64-.36,11.14,11.14,0,0,0,3.16-.06A11.52,11.52,0,0,0,16,49.77c.37-.21.75-.43,1.14-.61.57-.27,1.17-.45,1.76-.68a12.93,12.93,0,0,0,2.64-1.36c.49-.31,1.19-.13,1.77-.11s1.05.07,1.57.06c2,0,3.88-1.06,5.83-1.62,1.59.57,3.35.22,5,.28,3.49.13,6.75,1.82,10.21,2.28a4.21,4.21,0,0,1,1.12.23,1.24,1.24,0,0,1,.78.8,1.68,1.68,0,0,1-.17,1.05c-.17.44-.39.84-.59,1.25a5.37,5.37,0,0,1-.66,1.31c-.2.24-.45.43-.66.66A4.16,4.16,0,0,0,45,56.58,18,18,0,0,1,45.31,60c-.06.68-.26,1.34-.32,2,0,.41,0,.82-.07,1.22s-.18.92-.25,1.38a5.59,5.59,0,0,0,.24,2.75c.28.81.13,1.73.41,2.55a2.29,2.29,0,0,0,.53,1,1.43,1.43,0,0,0,1.81.12,3.49,3.49,0,0,1,.53-.42,3.73,3.73,0,0,1,.44-.14A2.26,2.26,0,0,0,49.3,70a5.63,5.63,0,0,0,1.06-1.12A2.84,2.84,0,0,0,51.7,67.7a4,4,0,0,0,.44-1.76c0-.66.26-1.36.27-2A3.81,3.81,0,0,0,52,62a6.76,6.76,0,0,1-.95-1.69,1.57,1.57,0,0,1,.2-1.16c.26-.41.7-.68,1-1.1a5.2,5.2,0,0,0,.43-1.68,3.63,3.63,0,0,1,.6-1.38A9.76,9.76,0,0,1,54,57.8c0,1.19-.32,2.38-.21,3.57.12,1.39-.64,2.89-.34,4.25.15.68.44,1.31.6,2a2.47,2.47,0,0,0,.66,1.53,1.64,1.64,0,0,0,1.62,0,3.46,3.46,0,0,0,1.51-1.21A5.49,5.49,0,0,0,59.42,67a2.78,2.78,0,0,0,1-1.51c.07-.33.07-.68.15-1,.05-.19.14-.38.21-.58a4.66,4.66,0,0,0-.07-3.25c-.19-.46-.44-.88-.65-1.32a9,9,0,0,1-.68-3.16,13.92,13.92,0,0,1,.2-1.81,9.27,9.27,0,0,0,0-1.9c-.09-.61-.25-1.2-.35-1.81A16.12,16.12,0,0,1,60,44.09a4.34,4.34,0,0,0,.14-.7c2.09-.24,3.74-1.71,5.74-2.34a18.17,18.17,0,0,1,4-.55c1.7-.12,3.4-.3,5.09-.55a16.24,16.24,0,0,0,2.1-.41,19.13,19.13,0,0,0,2.54-1L83,37h0c.38-.59.78-1.18,1.2-1.75l.06-.09,0,0c.21-.28.43-.55.65-.81l.13-.15.61-.63.12-.12.14-.12.15-.13.27-.21a7.1,7.1,0,0,1,1-.66,7.71,7.71,0,0,1,3.07-1,7.81,7.81,0,0,1,1.28,0c.54.1,1.08.26,1.6.41A16.93,16.93,0,0,1,96.41,33c.6.31,1.16.67,1.74,1a29.56,29.56,0,0,0,6.73,2.86,13.58,13.58,0,0,1,2.91,1,7.39,7.39,0,0,1,1.56,1.29,8.13,8.13,0,0,1,1.91.9,24.3,24.3,0,0,0,5.88,2.22,10.08,10.08,0,0,1,2.11.63c.31.15.59.35.89.49a8.94,8.94,0,0,1,1,.53,4,4,0,0,1,1.49,1.68,3.83,3.83,0,0,0,.3.61c.09.15.22.29.31.43a1.6,1.6,0,0,1,.22,1.25c.2.15.39.29.6.42a5.32,5.32,0,0,0,1.48.61,1.75,1.75,0,0,0,.64-.14,1.38,1.38,0,0,0,.56-.79A4.75,4.75,0,0,0,126.81,46.47Z"/><path class="cls-5" d="M8.65,31.56c.63.11,1.23.37,1.85.53a8.77,8.77,0,0,0,6.62-1.47,9.37,9.37,0,0,0,2.64-2.29l.15-.22A6.31,6.31,0,0,1,18,26.93a5.29,5.29,0,0,0-1.89-.81c-.32-.07-.5-.06-.72-.3s-.41-.55-.65-.78a5.63,5.63,0,0,0-1.36-.81c-1.54-.79-2.72-2.21-4.32-2.84-.8-.31-1.67-.41-2.44-.78a7.89,7.89,0,0,0-1-.48,1.15,1.15,0,0,0-1.07.13,1.3,1.3,0,0,0-.35,1.11c.11,1.44,1.14,2.6,1.91,3.81A8.31,8.31,0,0,0,8.4,28.12a2.18,2.18,0,0,1,.49.35,1.36,1.36,0,0,1,.24.74,3.19,3.19,0,0,1,.06,1.56A3.46,3.46,0,0,1,8.65,31.56Z"/><path class="cls-6" d="M123.26,46.63c-.09-.14-.22-.28-.31-.43a3.83,3.83,0,0,1-.3-.61,4,4,0,0,0-1.49-1.68,8.94,8.94,0,0,0-1-.53c-.3-.14-.58-.34-.89-.49a10.08,10.08,0,0,0-2.11-.63A24.3,24.3,0,0,1,111.26,40a6.76,6.76,0,0,0-2.05-.93,5.39,5.39,0,0,0-1.39,0,10.91,10.91,0,0,1-4.93-.74c-1-.39-1.87-.79-2.81-1.23-2.08-1-3.58-2.84-5.06-4.59l-.32-.36c-.47-.17-1-.33-1.44-.47s-1.06-.31-1.6-.41a7.81,7.81,0,0,0-1.28,0h0l-.73.11-.16,0-.61.16-.35.12c-.14,0-.29.09-.43.15a7.24,7.24,0,0,0-.79.39,7.1,7.1,0,0,0-1,.66l-.27.21-.15.13-.26.24h0l-.61.63a.27.27,0,0,1-.07.08l-.06.07c-.22.26-.44.53-.65.81h0l-.1.14h0c-.42.57-.82,1.16-1.2,1.75a83.08,83.08,0,0,0,15.18,4.09,41.7,41.7,0,0,1,4.86.79c1.29.34,2.53.87,3.81,1.27,1.76.54,3.59.83,5.35,1.39a11,11,0,0,1,3.35,1.65,10,10,0,0,1,1.21,1.23c.52.57,1.13,1.08,1.69,1.61a9.45,9.45,0,0,0,1.46,1.22,3.3,3.3,0,0,0,1.8.54.82.82,0,0,0,.27-.06.55.55,0,0,0,.17-.2c.17-.29.21-.63.36-.93a6.78,6.78,0,0,1,.6-.81A2,2,0,0,0,123.26,46.63Z"/><path class="cls-7" d="M21.08,38.67a2.35,2.35,0,0,0-.79-.14,4.51,4.51,0,0,0-1.72.1,4.67,4.67,0,0,0-1.26.72,20.1,20.1,0,0,1-2,1.43c-.62.33-1.16.83-1.79,1.13a4.7,4.7,0,0,1-1.53.32l-1.84.16A14.16,14.16,0,0,0,6.81,43v0a14.88,14.88,0,0,0-2.7,5.69,2.6,2.6,0,0,0,.1,2.22,2.39,2.39,0,0,0,1.56.78,5.29,5.29,0,0,0,3.64-.36,11.14,11.14,0,0,0,3.16-.06A11.52,11.52,0,0,0,16,49.77c.31-.17.62-.35.94-.51.5-.4.95-.88,1.47-1.27s1.11-.69,1.6-1.11a4,4,0,0,0,1.3-2.14c.16-.72.12-1.47.25-2.19A18.9,18.9,0,0,0,22,40.46,1.78,1.78,0,0,0,21.08,38.67Z"/><path class="cls-8" d="M21.08,38.67a2.35,2.35,0,0,0-.79-.14,4.51,4.51,0,0,0-1.72.1,4.67,4.67,0,0,0-1.26.72,20.1,20.1,0,0,1-2,1.43c-.62.33-1.16.83-1.79,1.13a4.7,4.7,0,0,1-1.53.32l-1.84.16A14.16,14.16,0,0,0,6.81,43v0a14.88,14.88,0,0,0-2.7,5.69,2.6,2.6,0,0,0,.1,2.22,2.39,2.39,0,0,0,1.56.78,5.29,5.29,0,0,0,3.64-.36,11.14,11.14,0,0,0,3.16-.06A11.52,11.52,0,0,0,16,49.77c.31-.17.62-.35.94-.51.5-.4.95-.88,1.47-1.27s1.11-.69,1.6-1.11a4,4,0,0,0,1.3-2.14c.16-.72.12-1.47.25-2.19A18.9,18.9,0,0,0,22,40.46,1.78,1.78,0,0,0,21.08,38.67Z"/><path class="cls-9" d="M9.51,36.08a3.39,3.39,0,0,0-1.19,1.28,1.78,1.78,0,0,0-.06.89,3.63,3.63,0,0,0,.1.45c0,.08.05.15.07.22l0,.11a.31.31,0,0,0,0,.1.45.45,0,0,0,0-.11l0-.14a1.29,1.29,0,0,1,.08-.26,3,3,0,0,1,.25-.47,5.59,5.59,0,0,0,.53-1A2,2,0,0,0,9.51,36.08Z"/><path class="cls-9" d="M5.56,51.35a2,2,0,0,0,.55-.08.47.47,0,0,0,.18-.64A1.28,1.28,0,0,0,6,50.37.42.42,0,0,1,5.88,50,.46.46,0,0,1,6,49.81a2.12,2.12,0,0,0,.4-.66.84.84,0,0,0-.08-.74,1,1,0,0,0-.71-.34,2,2,0,0,0-1.49.63,2.88,2.88,0,0,0-.58.91.72.72,0,0,0-.08.35.6.6,0,0,0,.07.27,3.41,3.41,0,0,0,1.07,1.39.61.61,0,0,0,.3.15C5.22,51.82,5.27,51.39,5.56,51.35Z"/><path class="cls-9" d="M13.38,46.7a5.75,5.75,0,0,0-2.29,1.85,7.39,7.39,0,0,1-1.53,2,2.65,2.65,0,0,1-1.68.42l-1.49-.11a.62.62,0,0,0-.27,0,.26.26,0,0,0-.18.21,4.66,4.66,0,0,0,1.82.27c.47,0,.93,0,1.4,0a.39.39,0,0,1,.24,0h0l.33,0a.5.5,0,0,1,.17-.54c.77-.8,1.21-1.88,2-2.69C12.37,47.62,12.92,47.23,13.38,46.7Z"/><path class="cls-10" d="M13.26,26.18a6.72,6.72,0,0,0,1.54,1.47c.27.19,1.55.92.89,1.27a1.1,1.1,0,0,1-.45.1,9.48,9.48,0,0,0-2.12.61,3.92,3.92,0,0,1-2.16.25,1.31,1.31,0,0,1-.61-.31c-.25-.24-.18-.47-.22-.76A2,2,0,0,0,9.77,28a4.71,4.71,0,0,0-.83-.78,16.88,16.88,0,0,1-3.24-4A5.78,5.78,0,0,1,5,21.71c-.07-.21-.07-.5.13-.59a.49.49,0,0,1,.21,0,4.7,4.7,0,0,1,2.11.66c.66.35,1.27.79,1.92,1.15.3.16.61.31.9.48a12.82,12.82,0,0,1,1.71,1.24,4.44,4.44,0,0,1,.83.79C13,25.65,13.09,25.93,13.26,26.18Z"/><path class="cls-11" d="M30.81,43.88a8.28,8.28,0,0,0-.16-1.49,8.73,8.73,0,0,0-.6-1.69,11.18,11.18,0,0,0-1-2,13.46,13.46,0,0,0-3.31-3.07,10,10,0,0,1-3.19-3.18,11.52,11.52,0,0,1-.2,6.08,11.71,11.71,0,0,0-.38,2c-.06.68-.31,1.31-.42,2s-.09,1.47-.25,2.19A4,4,0,0,1,20,46.88c-.49.42-1.08.72-1.6,1.11s-1,.87-1.48,1.27l.21-.1c.57-.27,1.17-.45,1.76-.68a12.93,12.93,0,0,0,2.64-1.36c.49-.31,1.19-.13,1.77-.11s1.05.07,1.57.06c2,0,3.88-1.06,5.83-1.62A7.52,7.52,0,0,0,30.81,43.88Z"/><path class="cls-12" d="M80.2,24.27c-.39,3.1-.85,6.28.28,9.19A9.54,9.54,0,0,0,82.94,37h0c.38-.59.78-1.18,1.2-1.75l.06-.09,0,0c.21-.28.43-.55.65-.81l.13-.15.61-.63.12-.12.14-.12.15-.13.27-.21a7.1,7.1,0,0,1,1-.66,7.71,7.71,0,0,1,3.07-1,7.81,7.81,0,0,1,1.28,0l.13,0A27,27,0,0,1,80.2,24.27Z"/><path class="cls-13" d="M69.41,17.52a22,22,0,0,1,5.85,2,6.68,6.68,0,0,0-.87-1.9C72.73,17.63,71.07,17.58,69.41,17.52Z"/><path class="cls-14" d="M100.78,37.49l-.7-.32c-2.08-1-3.58-2.84-5.06-4.59l-.32-.36c-.47-.17-1-.33-1.44-.47s-1.06-.31-1.6-.41a7.81,7.81,0,0,0-1.28,0h0l-.73.11-.16,0-.61.16-.35.12c-.14,0-.29.09-.43.15a7.24,7.24,0,0,0-.79.39,7.1,7.1,0,0,0-1,.66l-.27.21-.15.13-.26.24h0l-.61.63a.27.27,0,0,1-.07.08l-.06.07c-.22.26-.44.53-.65.81h0l-.1.14h0c-.42.57-.82,1.16-1.2,1.75,1.88.65,3.77,1.29,5.68,1.87,2.08-.45,4.17-.83,6.29-1.09,1.2-.15,2.41-.25,3.63-.31A20.18,20.18,0,0,1,100.78,37.49Z"/><path class="cls-15" d="M52.68,52.83a11.11,11.11,0,0,1-.08-2.58c0-1.11.1-2.21.16-3.32s0-2.13,0-3.2c0-.4,0-.8,0-1.2,0-.14-3.27-.45-3.65-.52a16.62,16.62,0,0,1-9.38-5.46A3.21,3.21,0,0,1,39.18,38a28.83,28.83,0,0,1-2.47,4.28,10.91,10.91,0,0,1-2.32,2.33,5.26,5.26,0,0,1-3.33,1,20.73,20.73,0,0,0,4.67.17c3.49.13,6.75,1.82,10.21,2.28a4.21,4.21,0,0,1,1.12.23,1.24,1.24,0,0,1,.78.8,1.68,1.68,0,0,1-.17,1.05c-.17.44-.39.84-.59,1.25a5.37,5.37,0,0,1-.66,1.31c-.2.24-.45.43-.66.66A4.16,4.16,0,0,0,45,56.58,18,18,0,0,1,45.31,60c-.06.68-.26,1.34-.32,2,0,.41,0,.82-.07,1.22s-.18.92-.25,1.38a5.59,5.59,0,0,0,.24,2.75c.28.81.13,1.73.41,2.55a2.29,2.29,0,0,0,.53,1,1.43,1.43,0,0,0,1.81.12,3.49,3.49,0,0,1,.53-.42,3.73,3.73,0,0,1,.44-.14A2.26,2.26,0,0,0,49.3,70a5.63,5.63,0,0,0,1.06-1.12A2.84,2.84,0,0,0,51.7,67.7a4,4,0,0,0,.44-1.76c0-.66.26-1.36.27-2A3.81,3.81,0,0,0,52,62a6.76,6.76,0,0,1-.95-1.69,1.57,1.57,0,0,1,.2-1.16c.26-.41.7-.68,1-1.1a5.2,5.2,0,0,0,.43-1.68,3.63,3.63,0,0,1,.6-1.38,1.67,1.67,0,0,1-.13-.45C53,54,52.79,53.4,52.68,52.83Z"/><path class="cls-16" d="M57.81,67.91a6.36,6.36,0,0,0,.75-.34h0A6.36,6.36,0,0,1,57.81,67.91Z"/><path class="cls-17" d="M80,38.37l-.39.17a19.13,19.13,0,0,1-2.54,1,16.24,16.24,0,0,1-2.1.41c-1.69.25-3.39.43-5.09.55a18.17,18.17,0,0,0-4,.55c-2,.63-3.65,2.1-5.74,2.34h0a12.68,12.68,0,0,1,.85-5.1,6.17,6.17,0,0,0,.48-1.49A3.51,3.51,0,0,0,61,34.71c-.36-.63-.82-1.19-1.23-1.79a6.53,6.53,0,0,1-1.09-2.09,17.37,17.37,0,0,0-.54-2.35,5.78,5.78,0,0,0-1.92-2.36c-.54-.43-1.19-.71-1.74-1.11s-1.16-.91-1.71-1.39a18.86,18.86,0,0,0-3.55-2.69A4.62,4.62,0,0,0,48,20.46a5.74,5.74,0,0,0-.82-.1,42,42,0,0,0,5.15-.3c2-.35,3.8-1.23,5.73-1.75a24.54,24.54,0,0,1,4-.69c4.19.62,7.74,3.56,10.24,7S76.53,32.17,78.56,36C79,36.79,79.45,37.6,80,38.37Zm-32.79-18h0Z"/><path class="cls-18" d="M61,34.71c-.36-.63-.82-1.19-1.23-1.79a6.53,6.53,0,0,1-1.09-2.09,17.37,17.37,0,0,0-.54-2.35,5.78,5.78,0,0,0-1.92-2.36c-.54-.43-1.19-.71-1.75-1.11s-1.15-.91-1.7-1.39a18.86,18.86,0,0,0-3.55-2.69A4.92,4.92,0,0,0,48,20.46a5.57,5.57,0,0,0-.82-.1,10.53,10.53,0,0,0-3.81.77c-.87.38-1.65.94-2.52,1.32a11,11,0,0,1-1.56.52,3.54,3.54,0,0,0-.63.76,7,7,0,0,0-1,3.23,4.59,4.59,0,0,0,.13,1.2,18,18,0,0,0-3,7.76,7.89,7.89,0,0,0,.35,3.71,4.29,4.29,0,0,0,2.47,2.55,24.87,24.87,0,0,0,9.07,1.58,16,16,0,0,0,6.06-1.19c0,.39,0,.78,0,1.16,0,1.07.08,2.14,0,3.2l-.15,3.32a11.11,11.11,0,0,0,.08,2.58c.11.58.31,1.13.43,1.69a1.67,1.67,0,0,0,.13.45A9.76,9.76,0,0,1,54,57.8c0,1.19-.32,2.38-.21,3.57.12,1.39-.64,2.89-.34,4.26.14.67.44,1.3.6,2a2.47,2.47,0,0,0,.66,1.53,1.64,1.64,0,0,0,1.62,0,3.46,3.46,0,0,0,1.51-1.21A5.7,5.7,0,0,0,59.42,67a2.84,2.84,0,0,0,1-1.52c.07-.33.07-.68.15-1s.14-.39.21-.59a4.61,4.61,0,0,0-.08-3.25c-.18-.46-.43-.88-.64-1.32a9,9,0,0,1-.68-3.16,13.92,13.92,0,0,1,.2-1.81,9.28,9.28,0,0,0,0-1.9c-.09-.61-.25-1.2-.35-1.81A16.12,16.12,0,0,1,60,44.09a4.34,4.34,0,0,0,.14-.7h0a12.54,12.54,0,0,1,.85-5.1,6.17,6.17,0,0,0,.48-1.49A3.53,3.53,0,0,0,61,34.71Z"/><path class="cls-19" d="M60.82,61A14.23,14.23,0,0,1,60,62.55c-.26.3-.6.52-.88.81a2.45,2.45,0,0,0-.63,1.09c-.11.38-.13.77-.22,1.15s-.32.88-.43,1.32a1.86,1.86,0,0,0,0,1l0,0A5.49,5.49,0,0,0,59.42,67a2.78,2.78,0,0,0,1-1.51c.07-.33.07-.68.15-1,.05-.19.14-.38.21-.58A4.61,4.61,0,0,0,60.82,61Z"/><path class="cls-20" d="M48.56,45.07a18.43,18.43,0,0,0-2.33.34,20.61,20.61,0,0,0-2.15.68L41.66,47a27.62,27.62,0,0,0,4.27,1,4.21,4.21,0,0,1,1.12.23,1.25,1.25,0,0,1,.78.79,1.22,1.22,0,0,1,0,.26A20.49,20.49,0,0,1,50.56,45,12.19,12.19,0,0,0,48.56,45.07Z"/><path class="cls-21" d="M49.6,41.26c-.56.82-1.08,1.67-1.7,2.43a15.18,15.18,0,0,0,4.77-1.12c0,.12,0,.24,0,.37a16.35,16.35,0,0,1,1.14-5.75A13.89,13.89,0,0,0,49.6,41.26Z"/><path class="cls-22" d="M30.64,45.46h.05a7.13,7.13,0,0,0,2.65.33,14.35,14.35,0,0,0,1.06-4.36A14.62,14.62,0,0,1,30.64,45.46Z"/><path class="cls-19" d="M51.82,64.41c-.23.18-.37.46-.61.64s-.34.18-.5.28a2.4,2.4,0,0,0-.91,1.43,7.63,7.63,0,0,1-.55,1.63c-.3.53-1.31,1.37-1,2.07a.35.35,0,0,0,.05.08l.36-.11A2.26,2.26,0,0,0,49.3,70a5.63,5.63,0,0,0,1.06-1.12A2.84,2.84,0,0,0,51.7,67.7a4,4,0,0,0,.44-1.76,16,16,0,0,1,.24-1.65A.67.67,0,0,0,51.82,64.41Z"/><path class="cls-23" d="M27.83,52.38a46,46,0,0,0,12.39,3.47"/><path class="cls-23" d="M18.62,55.39a59.65,59.65,0,0,0,22.85,7.18"/><path class="cls-23" d="M65.86,56.3a47,47,0,0,0,23.77-7"/><path class="cls-23" d="M63.38,62.66A60.8,60.8,0,0,0,97,51.79"/></g></g></svg>