<svg xmlns="http://www.w3.org/2000/svg" xmlns:xlink="http://www.w3.org/1999/xlink" viewBox="0 0 115.5 95.72"><defs><style>.cls-1{fill:none;}.cls-2{fill:#dde2f0;}.cls-3{fill:url(#linear-gradient);}.cls-4{fill:url(#linear-gradient-2);}.cls-5{fill:url(#linear-gradient-3);}.cls-6{fill:url(#linear-gradient-4);}.cls-7{fill:#ad896d;}.cls-8{fill:url(#linear-gradient-5);}.cls-12,.cls-9{fill:#efb1ac;}.cls-10{fill:#562835;}.cls-11{fill:#fee6ce;}.cls-12{opacity:0.34;}.cls-13{fill:url(#linear-gradient-6);}.cls-14{fill:url(#linear-gradient-7);}.cls-15{fill:url(#linear-gradient-8);}.cls-16{fill:url(#linear-gradient-9);}.cls-17{opacity:0.64;}.cls-18{clip-path:url(#clip-path);}.cls-19{fill:#0a45b8;}.cls-20{fill:#5c98ff;}</style><linearGradient id="linear-gradient" x1="66.52" y1="50.48" x2="98.73" y2="82.69" gradientUnits="userSpaceOnUse"><stop offset="0" stop-color="#8d6558"/><stop offset="0.34" stop-color="#997260"/><stop offset="1" stop-color="#ad896d"/></linearGradient><linearGradient id="linear-gradient-2" y1="52.9" x2="18.31" y2="52.9" gradientUnits="userSpaceOnUse"><stop offset="0.04" stop-color="#8d6558"/><stop offset="0.6" stop-color="#a27d66"/><stop offset="1" stop-color="#ad896d"/></linearGradient><linearGradient id="linear-gradient-3" x1="14.03" y1="56.99" x2="41.41" y2="84.37" xlink:href="#linear-gradient-2"/><linearGradient id="linear-gradient-4" x1="98.54" y1="13.09" x2="105.07" y2="1.79" gradientUnits="userSpaceOnUse"><stop offset="0" stop-color="#ad896d"/><stop offset="0.2" stop-color="#976e5e"/><stop offset="0.44" stop-color="#81544f"/><stop offset="0.66" stop-color="#744445"/><stop offset="0.83" stop-color="#6f3e42"/></linearGradient><linearGradient id="linear-gradient-5" x1="95.13" y1="18.19" x2="95.13" gradientUnits="userSpaceOnUse"><stop offset="0" stop-color="#ad896d"/><stop offset="0.18" stop-color="#a78269"/><stop offset="0.45" stop-color="#976e5e"/><stop offset="0.78" stop-color="#7c4e4b"/><stop offset="0.91" stop-color="#6f3e42"/></linearGradient><linearGradient id="linear-gradient-6" x1="69.66" y1="59.06" x2="93.24" y2="35.48" gradientUnits="userSpaceOnUse"><stop offset="0" stop-color="#8d6558"/><stop offset="0.01" stop-color="#8d6558" stop-opacity="0.94"/><stop offset="0.08" stop-color="#8d6558" stop-opacity="0.69"/><stop offset="0.16" stop-color="#8d6558" stop-opacity="0.47"/><stop offset="0.24" stop-color="#8d6558" stop-opacity="0.3"/><stop offset="0.33" stop-color="#8d6558" stop-opacity="0.17"/><stop offset="0.43" stop-color="#8d6558" stop-opacity="0.07"/><stop offset="0.57" stop-color="#8d6558" stop-opacity="0.02"/><stop offset="0.83" stop-color="#8d6558" stop-opacity="0"/></linearGradient><linearGradient id="linear-gradient-7" x1="52.44" y1="78.9" x2="84.72" y2="46.62" gradientUnits="userSpaceOnUse"><stop offset="0" stop-color="#bf9779"/><stop offset="0.39" stop-color="#ba9376"/><stop offset="0.83" stop-color="#ad896d"/></linearGradient><linearGradient id="linear-gradient-8" x1="30.7" y1="55.68" x2="40.61" y2="49.96" gradientUnits="userSpaceOnUse"><stop offset="0" stop-color="#8d6558"/><stop offset="0.04" stop-color="#8d6558" stop-opacity="0.88"/><stop offset="0.16" stop-color="#8d6558" stop-opacity="0.61"/><stop offset="0.27" stop-color="#8d6558" stop-opacity="0.39"/><stop offset="0.39" stop-color="#8d6558" stop-opacity="0.22"/><stop offset="0.52" stop-color="#8d6558" stop-opacity="0.1"/><stop offset="0.66" stop-color="#8d6558" stop-opacity="0.02"/><stop offset="0.83" stop-color="#8d6558" stop-opacity="0"/></linearGradient><linearGradient id="linear-gradient-9" x1="33.01" y1="79.57" x2="4.29" y2="50.85" gradientUnits="userSpaceOnUse"><stop offset="0" stop-color="#bf9779"/><stop offset="0.42" stop-color="#ba9376"/><stop offset="0.9" stop-color="#ad896d"/></linearGradient><clipPath id="clip-path"><rect class="cls-1" x="34.41" y="38.08" width="25.25" height="18.53"/></clipPath></defs><title>Ресурс 46600</title><g id="Слой_2" data-name="Слой 2"><g id="Illustration"><path class="cls-2" d="M54.54,12.94a44.22,44.22,0,0,1,20.85,3.37A45.63,45.63,0,0,1,96.65,34.46c10.21,17,11.27,44-2.13,52.55S65.17,87,63,85.94s-16.59-6.38-23-.64-6.17,9.36-11.28,9.36S8.8,83.81,9.43,56c.33-14,7.5-26.15,19.11-33.8A55.26,55.26,0,0,1,54.54,12.94Z"/><path class="cls-3" d="M86.32,40.17a17.77,17.77,0,0,0,.12,3.42A9.47,9.47,0,0,1,86.59,46a7.07,7.07,0,0,1-.51,1.72q-1.45,3.69-3,7.34c-.94,2.15-2.36,4.33-2.55,6.72,0,.61,0,1.22-.06,1.83a49.23,49.23,0,0,1-1.09,5,21.54,21.54,0,0,0,.05,5.67c.08.86.17,1.72.25,2.59a13.4,13.4,0,0,1,.07,2.9c-.1.77-.33,1.48-.38,2.25a5.16,5.16,0,0,0,.12,1.3q.41,2.16,1,4.29a6.71,6.71,0,0,0,1,2.42,2,2,0,0,0,.81.7,4.29,4.29,0,0,0,1.34,0,4.41,4.41,0,0,1,2.51,1,4,4,0,0,1,.46.46c.27.31.5.67.79,1s.37.3.12.65a2.88,2.88,0,0,1-1.7,1.1,6.91,6.91,0,0,1-1.76.06c-.64,0-1.28,0-1.92,0a9,9,0,0,1-2.54-.06c-.35-.11-.46-.32-.73-.57-.52-.5-.49-1.3-.68-2a22.06,22.06,0,0,0-1.54-2.87,23,23,0,0,0-.91-2.61,9.67,9.67,0,0,1-1-1.69,4.74,4.74,0,0,1-.13-.84c-.11-1.37-.22-2.47-.33-3.84a61.6,61.6,0,0,0-.9-7.17c-.18-.82-.38-1.63-.52-2.45a23.54,23.54,0,0,1-.17-5.17A11.29,11.29,0,0,0,72,61.1a34,34,0,0,1-1.62-4.94c-.68-3.65.8-7.44,2.51-10.72a17.16,17.16,0,0,1,4.42-5.57,10.86,10.86,0,0,1,6.58-2.45,2.72,2.72,0,0,1,1.2.21A2.54,2.54,0,0,1,86.32,40.17Z"/><path class="cls-4" d="M12.81,42c-2,4.58-1.87,9.76-3.84,14.39A30.58,30.58,0,0,1,.43,68a1.06,1.06,0,0,0-.42.54c-.1.48.49.82,1,.87a6.36,6.36,0,0,0,4-1.47,33,33,0,0,0,8.36-8.47c2-2.94,4.7-7.36,4.69-11,0-1.82-.47-3.62-.37-5.43.05-.92,1.49-6.8-.28-6.56-.82.11-2.11,1.85-2.65,2.45A11.31,11.31,0,0,0,12.81,42Z"/><path class="cls-5" d="M36.16,51.54a4.35,4.35,0,0,1,.24,1.61c-.1,1.21-.24,2.43-.33,3.65,0,.63-.09,1.27-.19,1.9a17.87,17.87,0,0,1-1.26,4,18,18,0,0,1-1,2c-1.35,2.27-3.48,4-5.12,6s-3.6,3.67-4.64,6.13c-.21.51-.39,1-.56,1.58a10.46,10.46,0,0,0-.74,5.44,32,32,0,0,0,1.53,5.26,3.9,3.9,0,0,0,1.46,2,7.58,7.58,0,0,1,2.64-.07,3.57,3.57,0,0,1,1.07.65,6.74,6.74,0,0,1,1.3,1.2c.28.35.91,1.48.41,1.87a.72.72,0,0,1-.28.13,4.67,4.67,0,0,1-1.86.07,8.09,8.09,0,0,0-1.3.06c-1.16.11-2.31,0-3.47.07-.59,0-1.34,0-1.66-.58a4.31,4.31,0,0,1-.2-1c-.11-.37-.23-.75-.37-1.11a20.31,20.31,0,0,0-.95-2.07,11,11,0,0,1-.79-1.66c-.49-1.48-1.48-2.59-2.05-4-.36-.91-.65-1.86-1.08-2.74s-.93-1.61-1.29-2.46a3.75,3.75,0,0,1-.21-2.69,5.77,5.77,0,0,1,1.55-2A18.11,18.11,0,0,0,22.6,63.67c.23-2.59-.08-5.1,0-7.7a33.48,33.48,0,0,1,.49-5.3,11.07,11.07,0,0,1,2.12-4.83,4.42,4.42,0,0,1,2.12-1.55c1.51-.42,3.09.41,4.33,1.38a13.49,13.49,0,0,1,3.94,4.55A9.32,9.32,0,0,1,36.16,51.54Z"/><path class="cls-6" d="M103.62,1.55c.08-.08.14-.16.22-.23a.42.42,0,0,1,.17-.1h.06a.1.1,0,0,1,.06.05.39.39,0,0,1,0,.33c0,.14,0,.3,0,.45a7,7,0,0,1-.13.9,12.18,12.18,0,0,1-.54,1.78,24.3,24.3,0,0,0-1.19,3.35,6.66,6.66,0,0,0-.19,1.47,13.61,13.61,0,0,0,.21,1.91,1,1,0,0,1-.05.68.81.81,0,0,1-.54.31c-1.36.3-2.81-.74-4.11-.24-.19.07-.45.16-.57,0a.35.35,0,0,1-.06-.14,3.7,3.7,0,0,1,.6-2.39,18.68,18.68,0,0,1,1.84-3.3c.84-1,1.68-2,2.54-3Q102.76,2.45,103.62,1.55Z"/><path class="cls-7" d="M83.57,49.53a18.44,18.44,0,0,1-14.16,9.55c-.66.08-1.33.14-2,.21-1.37.15-2.7.49-4.05.77a33.21,33.21,0,0,1-20.52-2.22C40,56.54,37.64,54.57,35,53a10.87,10.87,0,0,0-7.17-1.58,39.66,39.66,0,0,1-7.91.78,8.86,8.86,0,0,1-2-.3,6.23,6.23,0,0,1-3.46-2.49c-2-2.92-1.19-7.3.5-10.16a17.72,17.72,0,0,1,5.41-5.46,27.31,27.31,0,0,1,12.89-4.58c1.84-.15,3.69-.12,5.53-.09l17.56.28c2,0,3.4-1.07,5.3-1.58,2.59-.7,5.37-.38,8-1.09a16.75,16.75,0,0,0,4-1.78c4.34-2.54,7.88-6.19,12.06-9,1.46-1,2.92-2,4.38-2.91a13.18,13.18,0,0,1,5.27-1.46,14.56,14.56,0,0,1,5.77,0,8.11,8.11,0,0,1,2.9,1.5,3.65,3.65,0,0,1,1,1.07,9.33,9.33,0,0,0,.89,1.57,4,4,0,0,1,.73,1.11c.24.74-.12,1.6.19,2.32a2.67,2.67,0,0,0,.52.69c.63.67,1.28,1.33,2,2a14.34,14.34,0,0,0,1.25,1.09c.47.34,1,.63,1.45,1a14.77,14.77,0,0,1,1.33,1.18l1.6,1.55c.53.06.73.79.54,1.28A2.56,2.56,0,0,1,114.35,29a7.18,7.18,0,0,1-2.58,1.28,5.6,5.6,0,0,1-2.57-.24c-.68-.18-1.34-.18-2-.42a16.88,16.88,0,0,1-4.1-2.45l-1-.76c.79,1.14,1.54,2.28,2.33,3.42a9.47,9.47,0,0,1,1,1.76,7.11,7.11,0,0,1,.39,1.49,4.71,4.71,0,0,1-.15,2.81.61.61,0,0,1-.22.3.75.75,0,0,1-.49.09,11.24,11.24,0,0,1-2-.33,2.86,2.86,0,0,1-.85-.34,2.79,2.79,0,0,1-.5-.47,16.68,16.68,0,0,0-3.12-2.94,7,7,0,0,1-1.88-1.33,30.7,30.7,0,0,0-3.43,2.31,9.38,9.38,0,0,0-2.44,3.05,18.31,18.31,0,0,1-1.67,3.23c-.72,1-1.57,1.87-2.24,2.89C85.37,44.56,84.79,47.2,83.57,49.53Z"/><path class="cls-8" d="M99.65,9.05c-.17.95-.17,1.92-.41,2.85a6,6,0,0,1-1,1.91,12.86,12.86,0,0,1-3.55,3.5,5.75,5.75,0,0,1-1.7.8,2.58,2.58,0,0,1-1.83-.21,1.12,1.12,0,0,1-.4-.38,4.36,4.36,0,0,1-.19-1.2c-.09-.44-.18-.88-.24-1.33a6.47,6.47,0,0,1,.19-2.87,9,9,0,0,1,1.37-2.35l2.36-3.24c1.58-2.17,3.17-4.35,4.87-6.42A.25.25,0,0,1,99.25,0a.2.2,0,0,1,.16.07,1.3,1.3,0,0,1,.37.83,16.35,16.35,0,0,1,.2,2.88l0,2.09a10.74,10.74,0,0,1,0,1.5C99.9,7.94,99.75,8.49,99.65,9.05Z"/><path class="cls-9" d="M99.47,6.78a37.24,37.24,0,0,1-.75,4.71,6.73,6.73,0,0,1-1.65,2.68,7.36,7.36,0,0,1-1.19,1.11,3.52,3.52,0,0,1-1.43.75.28.28,0,0,1-.25-.16.91.91,0,0,1-.09-.31c0-.33-.09-.66-.14-1a4.36,4.36,0,0,1,0-.52A4.84,4.84,0,0,1,94.54,12c.32-.81.83-1.53,1.09-2.36.31-1,.26-2.13.64-3.13a18.21,18.21,0,0,1,2-3A6.54,6.54,0,0,0,99,1.78c0-.16.12-.36.29-.37s.32.27.32.5A36,36,0,0,1,99.47,6.78Z"/><path class="cls-10" d="M104.43,18.91c-.3-.27-.44-.7-.8-.89s-1.14.06-1.68-.11a5.13,5.13,0,0,0,.49.81,1.27,1.27,0,0,0,.43.4,1.34,1.34,0,0,0,.57.1A1.78,1.78,0,0,0,104.43,18.91Z"/><path class="cls-11" d="M114.89,26.6l-1.6-1.55A14.77,14.77,0,0,0,112,23.87c-.47-.35-1-.64-1.45-1a14.34,14.34,0,0,1-1.25-1.09c-.35-.33-.68-.68-1-1a5.37,5.37,0,0,0-1.49.27c-1.26.44-2.34,1.36-3.66,1.56a9.51,9.51,0,0,1-2.32-.11,6.21,6.21,0,0,0-3.83.61,4.68,4.68,0,0,0-2,4.2,6.88,6.88,0,0,0,1.69,3.57h0a7,7,0,0,0,1.88,1.33,16.68,16.68,0,0,1,3.12,2.94,2.79,2.79,0,0,0,.5.47A2.86,2.86,0,0,0,103,36a11.24,11.24,0,0,0,2,.33.75.75,0,0,0,.49-.09.61.61,0,0,0,.22-.3,4.71,4.71,0,0,0,.15-2.81,7.11,7.11,0,0,0-.39-1.49,9.47,9.47,0,0,0-1-1.76c-.79-1.14-1.54-2.28-2.33-3.42l1,.76a16.88,16.88,0,0,0,4.1,2.45c.67.24,1.33.24,2,.42a5.6,5.6,0,0,0,2.57.24A7.18,7.18,0,0,0,114.35,29a2.56,2.56,0,0,0,1.08-1.13C115.62,27.39,115.42,26.66,114.89,26.6Z"/><path class="cls-10" d="M115,26.51l-.12-.12s-.09-.09-.15-.13a.81.81,0,0,0-.41,0c-.58.06-1.3,0-1.62.47a1.44,1.44,0,0,0-.15,1.32,1.09,1.09,0,0,0,1.1.65,1.2,1.2,0,0,1,.53,0,1.24,1.24,0,0,1,.23.17.39.39,0,0,0,.14.08,2.34,2.34,0,0,0,.9-1,.5.5,0,0,0,0-.13,1.06,1.06,0,0,0,0-.47,1,1,0,0,0-.14-.39,1.09,1.09,0,0,0-.23-.25Z"/><path class="cls-10" d="M105.43,31.6a9.47,9.47,0,0,0-1-1.76c-.77-1.11-1.5-2.22-2.26-3.32a6.22,6.22,0,0,0-1.26-1,3.08,3.08,0,0,0-1.82-.46,1.44,1.44,0,0,0-.62.18,1.27,1.27,0,0,0-.55.94A2.79,2.79,0,0,0,98,27.32a14.94,14.94,0,0,0,.87,2.34,5.49,5.49,0,0,0,1.19,1.93,14.13,14.13,0,0,1,1.56,1.21c.21.25.35.55.55.81a4.55,4.55,0,0,0,2.62,1.48,1.51,1.51,0,0,0,.94,0,1.08,1.08,0,0,0,.18-.11,6.2,6.2,0,0,0-.09-1.92A7.11,7.11,0,0,0,105.43,31.6Z"/><path class="cls-12" d="M105.43,31.6a9.47,9.47,0,0,0-1-1.76l-1.9-2.79c-.37-.27-.76-.52-1.15-.77a4.15,4.15,0,0,0-1.86-.73c-.27,0-.48,0-.64.19a1.28,1.28,0,0,0-.19.92,4.34,4.34,0,0,0,.44,1.3,10.1,10.1,0,0,0,.75,1.42c1,1.45,2.53,2.36,3.62,3.71a3.56,3.56,0,0,0,1.29,1.24,1.43,1.43,0,0,0,1.18-.08,7.47,7.47,0,0,0-.11-1.16A7.11,7.11,0,0,0,105.43,31.6Z"/><path class="cls-9" d="M109.31,37.22a2.73,2.73,0,0,0-.38-1.41c-.17-.23-.4-.4-.59-.61a4.87,4.87,0,0,1-.63-1.14,7.58,7.58,0,0,1-.46-1.05c-.13-.36-.27-.72-.42-1.06a7.55,7.55,0,0,0-.82-1.4c-.77-1-1.82-1.76-2.68-2.71-.23-.25-.44-.52-.67-.77s-.33-.34-.5-.5l0-.05a6.22,6.22,0,0,0-1.26-1,2.67,2.67,0,0,0-.62-.28,2.72,2.72,0,0,0-1.2-.18l-.12,0a4.13,4.13,0,0,0,1.3,1.87c.61.55,1.28,1,1.84,1.62a8.16,8.16,0,0,1,1,1.35,15.72,15.72,0,0,1,1.57,3.47c.18.57.33,1.17.52,1.74A6,6,0,0,0,106,37a7.64,7.64,0,0,0,1.81,1.59,1.23,1.23,0,0,0,.66.31.85.85,0,0,0,.76-.62A2.43,2.43,0,0,0,109.31,37.22Z"/><path class="cls-11" d="M99.13,27.34a.83.83,0,0,1,.48-.7s0,0,0,0,0,.3,0,.45a.47.47,0,0,0,.06.27c0,.06.09.09.12.15a.41.41,0,0,1,0,.29,1.28,1.28,0,0,1-.11.27C99.46,28.51,99.13,27.49,99.13,27.34Z"/><path class="cls-11" d="M100,28.61a.84.84,0,0,1,.28-.5l0,0s0,0,.06.06,0,.2,0,.3a2.58,2.58,0,0,0,.08.26.86.86,0,0,1,0,.23c0,.23-.17.25-.33.12A.52.52,0,0,1,100,28.61Z"/><path class="cls-11" d="M100.76,30a.34.34,0,0,1,0-.31.88.88,0,0,1,.16-.28.37.37,0,0,1,.12-.13.15.15,0,0,1,.17,0,.22.22,0,0,1,0,.16,1.09,1.09,0,0,0,0,.26l.09.2a.68.68,0,0,1,.06.34c0,.06,0,.13-.09.15s-.08,0-.12,0A1.69,1.69,0,0,1,100.76,30Z"/><path class="cls-11" d="M102.26,31.46a.44.44,0,0,1-.13-.24.38.38,0,0,1,.05-.21l.08-.12a.19.19,0,0,1,.12-.07.14.14,0,0,1,.11.12,1,1,0,0,1,0,.17c0,.1,0,.2,0,.3C102.53,31.67,102.38,31.61,102.26,31.46Z"/><path class="cls-11" d="M104.26,33.28h.2c.19,0,.34-.22.53-.25H105l0,0a.38.38,0,0,1,0,.29,1.73,1.73,0,0,1-.4.53.23.23,0,0,1-.17.07.19.19,0,0,1-.1-.05l-.42-.36C103.7,33.32,104.1,33.28,104.26,33.28Z"/><path class="cls-13" d="M92.05,34.29c-4,1.68-7.37,5-10.35,8.25-1.12,1.24-2.23,2.49-3.38,3.7A30.52,30.52,0,0,1,71.47,52c-1.35.78-1.17,1.31-1.27,2.79a36.63,36.63,0,0,1-.55,4.3,18.45,18.45,0,0,0,13.92-9.52c1.22-2.33,1.8-5,3.25-7.17.67-1,1.52-1.91,2.24-2.89a18.31,18.31,0,0,0,1.67-3.23A8.58,8.58,0,0,1,92.05,34.29Z"/><path class="cls-14" d="M77.49,46.77c0,.34,0,.68,0,1a11.12,11.12,0,0,1-.88,4,14.64,14.64,0,0,1-1,1.87c-.33.54-.51,1.12-.87,1.66C73.86,56.71,72.87,58,72,59.4a12.33,12.33,0,0,0-1.24,2.1,10.81,10.81,0,0,0-.33,1.62,18.65,18.65,0,0,0-.16,3.34A70.77,70.77,0,0,1,70.4,74c-.18,1.92.71,3.84.42,5.75-.11.74-.39,1.45-.5,2.2a9.57,9.57,0,0,0,.22,3,7,7,0,0,0,.83,2.49,17.06,17.06,0,0,0,1.14,2C73.7,91,75.66,92,76.24,93.83a.8.8,0,0,1,0,.71.91.91,0,0,1-.29.19c-1.94.9-4.19.64-6.31.36a3.34,3.34,0,0,1-1.07-.25,2.33,2.33,0,0,1-1.09-1.24A9.91,9.91,0,0,1,67,91.19c-.16-1.07-.14-2.17-.34-3.23a15.12,15.12,0,0,0-1-2.85,7.3,7.3,0,0,1-.51-1.56c-.16-1,.06-1.94,0-2.9s-.58-2-.74-3a13.66,13.66,0,0,1,0-2.56,63,63,0,0,0-.69-7.87A25,25,0,0,0,62.24,60a8.4,8.4,0,0,1-.53-1.53,17.89,17.89,0,0,1,0-2.43A16.52,16.52,0,0,0,61,53.15a19.45,19.45,0,0,1-.34-2.64c-.2-1.92.12-3.87-.14-5.79S59.47,41,59.28,39.05a14.88,14.88,0,0,1,.06-2.83,11.9,11.9,0,0,1,.93-4.09,4.62,4.62,0,0,1,3.08-2.64,6,6,0,0,1,5.06.9,12.71,12.71,0,0,1,3.27,4.41,33.51,33.51,0,0,0,2.68,4.84,15.46,15.46,0,0,1,2.29,3.56A11.21,11.21,0,0,1,77.49,46.77Z"/><path class="cls-15" d="M35,53c2.66,1.57,5,3.54,7.87,4.84,1,.44,2,.81,3,1.16a25.06,25.06,0,0,1-6-8.37,23.35,23.35,0,0,0-3.1-5.24c-1-1.08-4.43-3.87-5.54-1.77a35.42,35.42,0,0,0-1.37,4c-.49,1.29-1,2.56-1.6,3.81A11,11,0,0,1,35,53Z"/><path class="cls-16" d="M24.21,35.72a10.88,10.88,0,0,1,6.23,1.81,8.29,8.29,0,0,1,2.27,3.13,9.84,9.84,0,0,1,.73,2,8.19,8.19,0,0,1-1.06,5.92,35.38,35.38,0,0,1-2.59,3.52A18.15,18.15,0,0,0,28,55c-.5,1-.73,2.17-1.13,3.21a21.71,21.71,0,0,1-3.52,6.19C21.69,66.35,19.76,68,18.14,70a52.74,52.74,0,0,0-4.56,6.44,13.17,13.17,0,0,0-1,2,16.14,16.14,0,0,0-.84,4,19.24,19.24,0,0,0-.21,3.39A19.15,19.15,0,0,0,13,91.39c.84.18,1.77-.29,2.47.22a1.76,1.76,0,0,1,.42.44l.91,1.18a2.71,2.71,0,0,1,.69,1.47c0,.49-.16.67-.65.81a5.48,5.48,0,0,1-1.07.21,22.45,22.45,0,0,1-2.43-.24c-.66,0-1.32.08-2,.11A4.31,4.31,0,0,1,10,95.48a3.31,3.31,0,0,1-1-.35c-.53-.38-.61-1.15-.73-1.74s-.42-1.34-.54-2c-.14-.83-.13-1.71-.19-2.55l-.39-5c-.18-2.31-.6-4.61-.9-6.91a4.12,4.12,0,0,1,0-1.64A5.31,5.31,0,0,1,7.9,73.12c4.49-4.57,5.93-10.83,5.93-17,0-2.15-.09-4.1-.13-6.25a21.31,21.31,0,0,1,.58-6.77,14.17,14.17,0,0,1,1-2.44A11,11,0,0,1,17.13,38a8.87,8.87,0,0,1,6.39-2.3Z"/><g class="cls-17"><g class="cls-18"><path class="cls-11" d="M38.21,41.88c1.1-.09,2.2,0,3.29-.15,3.57-.49,6.5-3.52,10.11-3.65a7.76,7.76,0,0,1,6.72,4,11.42,11.42,0,0,1,1.05,8,9.26,9.26,0,0,1-.86,2.5,8.09,8.09,0,0,1-5.86,3.94,13.11,13.11,0,0,1-7.14-1,34.69,34.69,0,0,1-6.29-3.72,13.75,13.75,0,0,1-4.06-3.79c-1.79-2.88-.27-5.77,3-6"/></g></g><path class="cls-19" d="M49.37,46.7l-7.3,2.2a.38.38,0,0,1-.23-.73L49.15,46a2.27,2.27,0,0,0-1.31-4.35L37.59,44.71a1.06,1.06,0,0,0-.7,1.31l.33,1.11a1.06,1.06,0,0,0,1.32.71l8.58-2.59a1,1,0,0,0,.71-1.31,1.06,1.06,0,0,0-1.31-.71l-6.91,2.08a.38.38,0,0,1-.48-.25.39.39,0,0,1,.26-.49l6.9-2.08A1.83,1.83,0,0,1,47.35,46l-8.59,2.59a1.83,1.83,0,0,1-2.28-1.22l-.33-1.11A1.83,1.83,0,0,1,37.37,44l10.25-3.08a3,3,0,1,1,1.75,5.81"/><path class="cls-20" d="M56.05,47.31l.15.11c.07,0,0,.2-.06.33l-4,5.41c-.1.13-.23.19-.3.14s0-.19.05-.32l3.87-5.51c.09-.14.23-.21.3-.16"/><path class="cls-19" d="M56.16,50.21h0l1.33-3,.85-.74L56.24,45l-.43,1-2.42,2.21h0a3.28,3.28,0,0,0,1.07,1.28l.14.1a3.12,3.12,0,0,0,1.55.61h0Z"/><path class="cls-20" d="M58.34,46.49c-.09.12-.63-.11-1.21-.53s-1-.86-.89-1,.64.12,1.22.53,1,.86.88,1"/><path class="cls-19" d="M57.49,47.24c-.07.1-.51-.09-1-.43s-.79-.69-.71-.8.51.09,1,.43.78.7.71.8"/><path class="cls-20" d="M45.07,51.56,45,51.39c0-.08.08-.19.24-.24L51.64,49c.16,0,.3,0,.33.05s-.07.19-.22.25l-6.34,2.27c-.16.06-.31,0-.34,0"/><path class="cls-19" d="M46.66,49.13h0L43.84,50.8l-1.11.12.84,2.44,1-.59,3.25-.42h0a3.11,3.11,0,0,0-.14-1.66l-.06-.16a3.14,3.14,0,0,0-.91-1.4h0"/><path class="cls-20" d="M42.73,50.92c.14-.05.45.45.68,1.13s.3,1.26.16,1.31-.46-.45-.69-1.13-.3-1.26-.15-1.31"/><path class="cls-19" d="M43.85,50.79c.12,0,.37.37.56.92s.24,1,.12,1.06-.37-.37-.55-.91-.25-1-.13-1.07"/></g></g></svg>