<svg xmlns="http://www.w3.org/2000/svg" xmlns:xlink="http://www.w3.org/1999/xlink" viewBox="0 0 105.16 85.78"><defs><style>.cls-1{fill:#dde2f0;}.cls-2{fill:#0a45b8;}.cls-3{fill:#ab969e;}.cls-4{fill:#d9c3ba;}.cls-5{fill:url(#linear-gradient);}.cls-6{fill:#f8f4f0;}.cls-7{fill:#3d223e;}.cls-8{fill:#f0bad6;}.cls-9{fill:url(#linear-gradient-2);}.cls-10{fill:url(#linear-gradient-3);}.cls-11{fill:url(#linear-gradient-4);}.cls-12{fill:url(#linear-gradient-5);}</style><linearGradient id="linear-gradient" x1="124.61" y1="9.47" x2="124.61" y2="22.21" gradientTransform="matrix(-1, 0, 0, 1, 132.41, 0)" gradientUnits="userSpaceOnUse"><stop offset="0" stop-color="#f8f4f0"/><stop offset="0.04" stop-color="#f5efeb"/><stop offset="0.22" stop-color="#e9dcd5"/><stop offset="0.42" stop-color="#e0cec6"/><stop offset="0.66" stop-color="#dbc6bd"/><stop offset="1" stop-color="#d9c3ba"/></linearGradient><linearGradient id="linear-gradient-2" x1="63.69" y1="30.98" x2="34.52" y2="25.84" gradientTransform="matrix(-1, 0, 0, 1, 132.41, 0)" gradientUnits="userSpaceOnUse"><stop offset="0" stop-color="#d9c3ba"/><stop offset="0.28" stop-color="#d2bcb6"/><stop offset="0.68" stop-color="#bfaaaa"/><stop offset="1" stop-color="#ab969e"/></linearGradient><linearGradient id="linear-gradient-3" x1="91.15" y1="59.62" x2="91.15" y2="37.11" gradientTransform="matrix(-1, 0, 0, 1, 132.41, 0)" gradientUnits="userSpaceOnUse"><stop offset="0" stop-color="#ab969e"/><stop offset="0.01" stop-color="#ac979f"/><stop offset="0.28" stop-color="#c5afae"/><stop offset="0.53" stop-color="#d4beb7"/><stop offset="0.73" stop-color="#d9c3ba"/></linearGradient><linearGradient id="linear-gradient-4" x1="104.17" y1="79.44" x2="104.17" y2="35.35" gradientTransform="matrix(-1, 0, 0, 1, 132.41, 0)" gradientUnits="userSpaceOnUse"><stop offset="0" stop-color="#f8f4f0"/><stop offset="0.04" stop-color="#eee5df"/><stop offset="0.09" stop-color="#e5d6ce"/><stop offset="0.16" stop-color="#decbc3"/><stop offset="0.25" stop-color="#dac5bc"/><stop offset="0.5" stop-color="#d9c3ba"/></linearGradient><linearGradient id="linear-gradient-5" x1="53.32" y1="60.25" x2="88.17" y2="60.25" gradientTransform="matrix(-1, 0, 0, 1, 132.41, 0)" gradientUnits="userSpaceOnUse"><stop offset="0" stop-color="#f8f4f0"/><stop offset="0.07" stop-color="#eee5df"/><stop offset="0.18" stop-color="#e5d6ce"/><stop offset="0.31" stop-color="#decbc3"/><stop offset="0.49" stop-color="#dac5bc"/><stop offset="1" stop-color="#d9c3ba"/></linearGradient></defs><title>Ресурс 43600</title><g id="Слой_2" data-name="Слой 2"><g id="Illustration"><path class="cls-1" d="M55.26,4.06A44.16,44.16,0,0,1,76.1,7.43,45.58,45.58,0,0,1,97.36,25.58c10.21,17,11.28,44-2.12,52.55s-29.36,0-31.49-1.07-16.59-6.38-23-.64-6.17,9.36-11.27,9.36-20-10.85-19.36-38.71c.32-14,7.49-26.15,19.1-33.8A55.34,55.34,0,0,1,55.26,4.06Z"/><path class="cls-2" d="M76.19,65.53c1.46.1,3.13.37,3.86,1.53.35.56.42,1.25.78,1.8.91,1.42,3.08,1.36,4.87,1.31a25.22,25.22,0,0,1,12.49,2.92c1.47.79,3,2.46,2,3.76a3,3,0,0,1-1.4.86c-3.59,1.25-7.64.58-11.32,1.6-2.16.6-4.09,1.77-6.23,2.44a14.34,14.34,0,0,1-9.67-.38c-1.74-.72-3.3-1.78-5-2.52-6.37-2.73-14.17-.82-20.7-3.21a1.66,1.66,0,0,1-1-.76c-.24-.59.31-1.21.88-1.55,2.1-1.25,5-.94,7-2.39,3-2.26,5.17-4.71,9.24-5.35,4.59-.72,9.73-.39,14.32-.06"/><path class="cls-3" d="M26.35,43.21A9,9,0,0,1,26,39.36a6.56,6.56,0,0,1,.9-2.25,9.24,9.24,0,0,1,8.25-4.37,5.79,5.79,0,0,1,3.8,1.77,6.32,6.32,0,0,1,1.46,4.13c.1,1.54,0,3.1.12,4.63.19,1.76.76,3.46.84,5.22a24.42,24.42,0,0,1-.62,5.16,39.31,39.31,0,0,0-.56,6.94,10.31,10.31,0,0,0,.41,3.27,14,14,0,0,1,.75,2.24c.25,1.65-.83,2.91-1.19,4.45-.23,1-.28,2-.52,3a4.2,4.2,0,0,1-1.53,2.53,5.41,5.41,0,0,1-2.72.68A13.61,13.61,0,0,1,30,76.29a1.1,1.1,0,0,1-.85-1.18,3.72,3.72,0,0,1,.69-2.82A3.72,3.72,0,0,1,32,71.22c.42-.08.84-.12,1.26-.16a3.72,3.72,0,0,0,1-.17.05.05,0,0,0,0,0l0,0c.09-.2.21-.4.28-.61a4.69,4.69,0,0,0,.14-.65,5.63,5.63,0,0,0,0-1.36,11.63,11.63,0,0,0-.45-2.09c-.91-3.27-1.82-6.53-2.8-9.77-.43-1.42-.87-2.83-1.33-4.24-.23-.7-.46-1.39-.7-2.08a6,6,0,0,0-.76-1.72,11,11,0,0,1-1-1.48A15.11,15.11,0,0,1,26.35,43.21Z"/><path class="cls-3" d="M10.63,10.16A12.39,12.39,0,0,1,8.94,9,8,8,0,0,0,7.35,7.72c-.13-.06-.31-.1-.4,0a.47.47,0,0,0-.06.19,4.13,4.13,0,0,0,.2,1.43A55,55,0,0,0,8.68,14.7a1.92,1.92,0,0,0,.63,1,2,2,0,0,0,1.55.1l5.43-1.13c.19,0,.41-.09.5-.27.33-.62-2.2-1.77-2.62-2Z"/><path class="cls-3" d="M53.7,42.07a10.13,10.13,0,0,1-2.51,3.5c-2.07,2.18-4.06,4.61-4.77,7.53-.8,3.29-.44,6.69,2,9.21,2,2.06,5.45,2.69,8.2,2.12a12.89,12.89,0,0,0,2.79-1.05c1.36-.65,2.7-1.36,4-2.13a14.11,14.11,0,0,1,4.78-1.91.6.6,0,0,1,.54.09.59.59,0,0,1,.1.41c-.14,3-2.15,5.48-4.14,7.58a8.23,8.23,0,0,1-2.55,2,29.12,29.12,0,0,1-3.88.87c-1.28.37-2.59,1.37-2.53,2.7,0,1,1.57,1.26,2.6,1.25s2-.33,3.07-.31,2.29.5,3.46.57a5.22,5.22,0,0,0,4.47-2.13c3.61-5,7.46-9.56,11-14.62a2.18,2.18,0,0,0,.56-1.46,1.94,1.94,0,0,0-.73-1.14c-.92-.81-2.06-1-3-1.7-1.48-1.05-1.23-3-1.27-4.52a13.37,13.37,0,0,0-1.66-5.85,31.47,31.47,0,0,0-4.42-6,7.47,7.47,0,0,0-1.25-1.2,5.86,5.86,0,0,0-1.32-.67,14.79,14.79,0,0,0-10.3-.29,5.54,5.54,0,0,0-2.22,1.34C53.3,37.81,54.33,40.21,53.7,42.07Z"/><path class="cls-4" d="M48.05,59.63c-2.37.06-4.62-.93-6.9-1.55-3-.83-6.22-1-9.21-2a22,22,0,0,1-10.57-8,35.07,35.07,0,0,1-5.49-12.2,4.44,4.44,0,0,0-1.3-2.58,1.09,1.09,0,0,0-1.33.12,7.6,7.6,0,0,0-1,1.1A4.68,4.68,0,0,1,9.79,36,4.14,4.14,0,0,1,7,35.65,4.73,4.73,0,0,1,2.69,34.3c-.52.14-1.12-.34-1.36-.83a3.12,3.12,0,0,1-.17-1.61,16.36,16.36,0,0,0,.11-3.63,29.4,29.4,0,0,0-1-3.35A4,4,0,0,1,.52,21.5C2,19.41,3,17.18,5,15.53a10.36,10.36,0,0,1,2-1.37,9.35,9.35,0,0,1,2.48-.75,26,26,0,0,1,5.78-.19,26.18,26.18,0,0,1,6,.88,11.89,11.89,0,0,1,5.2,3c.59.61,1.35.84,1.92,1.46a7.94,7.94,0,0,0,1.92,1.83,8.28,8.28,0,0,0,3.34.51,8.33,8.33,0,0,1,3.15.94c.65.35,1.25.78,1.91,1.12,1.89.95,3.91.75,6,.73,4.72,0,9.65,0,13.84,2.14A29.18,29.18,0,0,1,62,28.14a46.16,46.16,0,0,1,4.34,3.41A46.69,46.69,0,0,1,72,38.17l6.24,8.38c1.65,2.22,1.2,5.33.18,7.91a9.26,9.26,0,0,1-4.26,5.07,11.05,11.05,0,0,1-3.63.89A74.15,74.15,0,0,1,57,60.29C54.11,60.09,51,59.83,48.05,59.63Z"/><path class="cls-5" d="M7.83,21.84a14,14,0,0,1-1.24-2.4c-1.49-3.24-3.82-6-5.94-8.8A1.72,1.72,0,0,1,.23,9.8.3.3,0,0,1,.3,9.54c.09-.1.24-.07.37,0a12.66,12.66,0,0,1,2.37,1l2.8,1.25,2,.91c1,.48,2,.88,2.94,1.42a23.55,23.55,0,0,1,2.75,1.79c.22.17.44.28.65.47s.51.43.78.63a1.37,1.37,0,0,1,.22.19c.67.82-.76,2.16-1.34,2.59A19.9,19.9,0,0,1,9.52,22a2.58,2.58,0,0,1-.93.25A.87.87,0,0,1,7.83,21.84Z"/><path class="cls-6" d="M4.46,30.36a3,3,0,0,1,.24-.26A3.27,3.27,0,0,1,6,29.22H6a3.48,3.48,0,0,1,2.82.3A2.57,2.57,0,0,1,10,31.74a3.39,3.39,0,0,1-.8,2.06,4,4,0,0,1-.39.43,10.52,10.52,0,0,1-1.36,1.12,5,5,0,0,1-.45.3A4.73,4.73,0,0,1,2.69,34.3a.79.79,0,0,1-.43,0,1.84,1.84,0,0,1,0-.33,9.21,9.21,0,0,1,.35-1.13c.13-.43.58-.68.82-1A14.09,14.09,0,0,1,4.46,30.36Z"/><path class="cls-7" d="M2.67,34.3a1.34,1.34,0,0,1-1.34-.83,3.12,3.12,0,0,1-.17-1.61c0-.16,0-.33,0-.49a7,7,0,0,1,2,.77A3.12,3.12,0,0,1,2.67,34.3Z"/><path class="cls-7" d="M2.5,27.48c.15-.75-.28-1.56,0-2.25a1.52,1.52,0,0,1,.86-.71,4.11,4.11,0,0,1,1.11-.2c-.23.42-.4.89-.63,1.31A6.63,6.63,0,0,1,2.5,27.48Z"/><path class="cls-8" d="M.65,10.64a2.1,2.1,0,0,1-.4-.75,3.18,3.18,0,0,1,.79.52c.38.34.74.7,1.1,1.05l4.39,4.32A9.49,9.49,0,0,1,9.42,19.9a1.78,1.78,0,0,1-.13,1.45,2.22,2.22,0,0,1-.84.61l-.27.17a.87.87,0,0,1-.35-.29,14,14,0,0,1-1.24-2.4C5.1,16.2,2.77,13.48.65,10.64Z"/><path class="cls-9" d="M79.86,53.25a23.64,23.64,0,0,0,2.26-8.1A30.18,30.18,0,0,0,82,35.34c-.72-3.54-1.93-7-2.9-10.43a29.1,29.1,0,0,1-1.29-11.23,10,10,0,0,1,2.87-6.09A6.27,6.27,0,0,1,87,6.16c1.49.58,1.8,2.37,3.07,3.19a2.9,2.9,0,0,0,4.13-1.52c1.11-2.93-2-5.71-4.4-6.78A13.16,13.16,0,0,0,81.32.42a12.4,12.4,0,0,0-9.18,10.7c-.1.89-.27,1.77-.31,2.68C71.52,19.49,73,25.16,74,30.72a31,31,0,0,1,.22,9.71c-.46,3.26-1.73,6.31-1.75,9.64A29.23,29.23,0,0,0,73,54.92a5.16,5.16,0,0,0,.9,2.58C76,60.06,79,54.83,79.86,53.25Z"/><path class="cls-10" d="M26.48,37.22l.11-.08a.55.55,0,0,1,.36,0,7.32,7.32,0,0,1,2.09,1l.08,0c5.32,3.08,11.31,6.11,17.65,5.21a32.9,32.9,0,0,0,4.36-1l2.92-.84c.59-.17,1.69-.73,2.3-.42s0,1.09-.23,1.64a18.85,18.85,0,0,0-.79,2.41c-1.17,4.1-2.5,8.23-4.94,11.72a10.7,10.7,0,0,1-2.7,2.79c-2.24,0-4.38-.95-6.54-1.54-2.68-.74-5.48-1-8.15-1.71A19.23,19.23,0,0,1,30.37,53,26,26,0,0,1,26,42.32a10.63,10.63,0,0,1,.36-4.79A.83.83,0,0,1,26.48,37.22Z"/><path class="cls-11" d="M23.34,50.92A11.33,11.33,0,0,1,21,45.83,9,9,0,0,1,20.58,42a6.69,6.69,0,0,1,.9-2.26,9.27,9.27,0,0,1,8.25-4.37,5.84,5.84,0,0,1,3.8,1.77A6.33,6.33,0,0,1,35,41.27c.1,1.54,0,3.09.12,4.63.19,1.75.77,3.45.84,5.21a24.51,24.51,0,0,1-.62,5.17,39.27,39.27,0,0,0-.56,6.93,10.33,10.33,0,0,0,.41,3.28,12.71,12.71,0,0,1,.75,2.23c.25,1.66-.83,2.92-1.19,4.46-.22,1-.28,2-.52,3a4.17,4.17,0,0,1-1.53,2.53,5.32,5.32,0,0,1-2.72.69,13.8,13.8,0,0,1-5.36-.46,1.53,1.53,0,0,1-.52-.28,1.39,1.39,0,0,1-.33-.91,3.69,3.69,0,0,1,.69-2.81,3.66,3.66,0,0,1,2.12-1.07c.42-.08.84-.12,1.26-.17a3.66,3.66,0,0,0,1.05-.16l0,0,0,0c.09-.2.21-.41.28-.61a5.18,5.18,0,0,0,.14-.66,5.54,5.54,0,0,0,0-1.35,11.73,11.73,0,0,0-.45-2.1c-1.59-5.71-3.19-11.43-5.16-17A1.9,1.9,0,0,0,23.34,50.92Z"/><path class="cls-12" d="M51.91,48a10.16,10.16,0,0,1-2.52,3.5c-2.06,2.18-4,4.61-4.76,7.53-.81,3.29-.45,6.69,2,9.21a7,7,0,0,0,2.07,1.57,9.69,9.69,0,0,0,3.11.69l3.16.35a13,13,0,0,0,2.72.11,21.3,21.3,0,0,0,5.14-1.5A15.59,15.59,0,0,0,67.37,67a36.45,36.45,0,0,1-4.5,6.35,8.23,8.23,0,0,1-2.55,2,29.27,29.27,0,0,1-3.89.87c-1.28.37-2.58,1.37-2.52,2.7.05,1,1.57,1.26,2.6,1.25s2-.33,3.06-.31,2.3.5,3.47.57a5.24,5.24,0,0,0,4.47-2.13c3.61-5,7.45-9.56,11-14.62a2.18,2.18,0,0,0,.56-1.46,2,2,0,0,0-.74-1.14c-.91-.81-2-1-3-1.7a4.06,4.06,0,0,1-1.33-3c-.08-1.32.21-2.63.23-3.94a11.31,11.31,0,0,0-3.57-8.2,15.35,15.35,0,0,0-8.17-3.92,14.83,14.83,0,0,0-7.39.56,5.51,5.51,0,0,0-2.21,1.34C51.51,43.74,52.54,46.14,51.91,48Z"/><path class="cls-2" d="M81.16,59.26A9.48,9.48,0,0,1,83,60.83,6.1,6.1,0,0,1,84.17,63a11.33,11.33,0,0,1,.11,4.84,1,1,0,1,1-2-.27.36.36,0,0,1,0-.11v0a9.82,9.82,0,0,0,.43-4.08A4.64,4.64,0,0,0,82,61.55,8,8,0,0,0,80.6,60h0a.46.46,0,0,1,0-.64A.46.46,0,0,1,81.16,59.26Z"/></g></g></svg>