<svg width="43" height="40" viewBox="0 0 43 40" fill="none" xmlns="http://www.w3.org/2000/svg">
<path d="M32.3657 20.41V3.40166C32.3223 2.48683 31.9302 1.62371 31.2704 0.990635C30.6107 0.357564 29.7338 0.00292604 28.8209 0H3.54482C2.6319 0.00292604 1.75499 0.357564 1.09528 0.990635C0.435567 1.62371 0.0434676 2.48683 0 3.40166V29.6872C0.00890557 29.7549 0.0342044 29.8193 0.073682 29.8749C0.11316 29.9305 0.165613 29.9755 0.226449 30.006C0.287286 30.0365 0.354651 30.0516 0.422648 30.0499C0.490645 30.0483 0.557201 30.0299 0.61649 29.9965L6.62727 23.8116H28.8209C29.7338 23.8087 30.6107 23.4541 31.2704 22.821C31.9302 22.1879 32.3223 21.3248 32.3657 20.41Z" fill="white"/>
<path d="M39.6085 9.58628H37.9132C37.7532 9.59713 37.6026 9.66578 37.4893 9.7795C37.3759 9.89322 37.3075 10.0443 37.2967 10.2048V24.8938C37.2532 25.8086 36.8611 26.6717 36.2014 27.3048C35.5417 27.9379 34.6648 28.2925 33.7518 28.2954H16.6443C15.1069 28.1404 13.5579 28.1404 12.0206 28.2954C10.9417 28.6047 10.7876 29.0685 10.7876 29.9963C10.8311 30.9111 11.2232 31.7742 11.8829 32.4073C12.5426 33.0404 13.4195 33.395 14.3324 33.3979H36.3719L42.3827 39.5828C42.6909 39.892 42.9992 39.5828 42.9992 39.2735V12.9879C43.0076 12.5389 42.9256 12.0928 42.7581 11.6763C42.5907 11.2598 42.3413 10.8815 42.0247 10.5639C41.7082 10.2463 41.3311 9.99609 40.9159 9.82811C40.5007 9.66013 40.0561 9.57788 39.6085 9.58628Z" fill="white"/>
</svg>
