<svg width="657" height="223" viewBox="0 0 657 223" fill="none" xmlns="http://www.w3.org/2000/svg">
<path d="M74.7569 219C141.234 219 180.652 177.878 180.652 109.696C180.652 41.7273 141.234 0.818175 76.2484 0.818175L0.822224 0.818175L0.822224 219L74.7569 219ZM40.3464 184.803L40.3464 35.0156H74.0111C118.329 35.0156 141.447 59.7315 141.447 109.696C141.447 159.874 118.329 184.803 72.8393 184.803H40.3464ZM271.778 222.196C319.719 222.196 350.187 188.425 350.187 137.821C350.187 87.1108 319.719 53.233 271.778 53.233C223.838 53.233 193.369 87.1108 193.369 137.821C193.369 188.425 223.838 222.196 271.778 222.196ZM271.991 191.301C245.464 191.301 232.467 167.651 232.467 137.714C232.467 107.778 245.464 83.8082 271.991 83.8082C298.092 83.8082 311.089 107.778 311.089 137.714C311.089 167.651 298.092 191.301 271.991 191.301ZM438.198 222.196C479.32 222.196 505.527 197.8 508.297 163.07H471.436C468.134 180.648 455.456 190.768 438.517 190.768C414.441 190.768 398.887 170.634 398.887 137.182C398.887 104.156 414.76 84.3409 438.517 84.3409C457.054 84.3409 468.454 96.2727 471.436 112.04H508.297C505.634 76.5639 477.935 53.233 437.985 53.233C390.044 53.233 359.789 87.8565 359.789 137.821C359.789 187.359 389.299 222.196 438.198 222.196ZM653.197 98.6165C647.87 70.9176 625.711 53.233 587.359 53.233C547.941 53.233 521.095 72.6222 521.201 102.878C521.095 126.741 535.796 142.509 567.224 149.007L595.136 154.866C610.157 158.169 617.188 164.241 617.188 173.51C617.188 184.696 605.044 193.112 586.72 193.112C569.035 193.112 557.529 185.442 554.227 170.74L516.62 174.362C521.414 204.405 546.663 222.196 586.826 222.196C627.735 222.196 656.606 200.996 656.713 169.994C656.606 146.663 641.585 132.388 610.69 125.676L582.778 119.71C566.159 115.982 559.553 110.229 559.66 100.747C559.553 89.6676 571.805 81.9972 587.892 81.9972C605.683 81.9972 615.058 91.6918 618.041 102.452L653.197 98.6165Z" fill="#1B1B29"/>
</svg>
