<svg width="367" height="189" viewBox="0 0 367 189" fill="none" xmlns="http://www.w3.org/2000/svg">
<path d="M58.9821 150.823C57.6714 154.755 55.7054 158.032 52.4286 160.653C49.1518 163.274 44.5643 163.93 39.3214 163.93C32.1125 163.93 26.2143 161.308 21.6268 156.721C17.6946 151.478 15.0732 144.924 15.0732 135.749C15.0732 127.23 17.0393 120.021 21.6268 114.778C26.8696 110.191 32.7679 107.569 39.9768 107.569C45.2196 107.569 49.8071 108.88 53.0839 111.501C56.3607 114.123 58.3268 117.4 59.6375 121.987H76.6768V121.332C75.3661 112.812 71.4339 105.603 64.8804 101.016C58.3268 96.4281 50.4625 93.8066 40.6321 93.8066C32.1125 93.8066 24.9036 95.7727 19.0054 99.0495C12.4518 102.326 7.86429 107.569 4.5875 114.123C1.31071 120.676 0 127.885 0 136.405C0 144.924 1.31071 152.133 4.5875 158.687C7.86429 165.241 12.4518 169.828 18.35 173.76C24.2482 177.037 32.1125 179.003 39.9768 179.003C49.8071 179.003 57.6714 176.382 64.225 171.794C70.7786 167.207 74.7107 160.653 76.0214 152.133V151.478L58.9821 150.823Z" fill="white"/>
<path d="M97.6513 177.037H82.5781V104.947C82.5781 100.36 86.5103 96.4277 91.0978 96.4277H97.6513V177.037Z" fill="white"/>
<path d="M119.272 119.365H104.199V177.037H119.272V119.365Z" fill="white"/>
<path d="M160.559 118.055C155.972 118.055 152.039 119.365 148.763 121.331C145.486 123.298 143.52 125.264 141.554 128.54V120.021H139.588H126.48V154.099V177.692H141.554V154.099V146.89C141.554 141.648 142.864 137.715 145.486 134.439C148.107 131.817 151.384 129.851 155.972 129.851C159.904 129.851 163.18 131.162 165.147 133.783C167.113 136.405 168.423 140.337 168.423 144.924V176.381H183.497V143.614C183.497 135.094 181.53 128.54 177.598 123.953C173.011 120.021 167.768 118.055 160.559 118.055Z" fill="white"/>
<path d="M205.784 119.365H190.711V177.037H205.784V119.365Z" fill="white"/>
<path d="M249.69 163.274C247.724 164.585 244.448 165.896 241.826 165.896C237.894 165.896 233.962 164.585 231.34 161.308C228.719 158.031 226.753 154.099 226.753 148.201C226.753 142.958 228.064 138.371 231.34 135.094C233.962 131.817 237.894 130.506 241.826 130.506C245.103 130.506 247.724 131.162 249.69 133.128C251.656 134.439 253.623 137.06 254.278 139.681H270.007C268.696 133.128 265.419 127.885 260.176 123.953C254.933 120.021 249.035 118.055 241.826 118.055C235.928 118.055 230.685 119.365 226.098 121.987C221.51 124.608 218.233 127.885 215.612 132.473C212.99 137.06 211.68 142.303 211.68 148.201C211.68 154.099 212.99 159.342 215.612 163.93C218.233 168.517 221.51 171.794 226.098 174.415C230.685 177.037 235.928 178.348 241.826 178.348C249.035 178.348 255.589 176.381 260.176 172.449C265.419 168.517 268.696 163.274 270.007 156.721H254.278C253.623 159.342 252.312 161.964 249.69 163.274Z" fill="white"/>
<path d="M112.063 96.4277C107.475 96.4277 103.543 100.36 103.543 104.947C103.543 109.535 107.475 113.467 112.063 113.467C116.65 113.467 120.582 109.535 120.582 104.947C120.582 100.36 116.65 96.4277 112.063 96.4277Z" fill="white"/>
<path d="M197.918 96.4277C193.331 96.4277 189.398 100.36 189.398 104.947C189.398 109.535 193.331 113.467 197.918 113.467C202.506 113.467 206.438 109.535 206.438 104.947C206.438 100.36 202.506 96.4277 197.918 96.4277Z" fill="white"/>
<path d="M78.6429 2.71289H62.2589L39.3214 68.2486L16.3839 2.71289H0L30.1464 83.9772V84.6325H48.4964L78.6429 3.36825V2.71289Z" fill="white"/>
<path d="M112.067 28.9263C107.48 26.3049 102.892 24.9941 96.9941 24.9941C91.0959 24.9941 85.853 26.3049 81.2655 28.9263C76.678 31.5477 73.4012 34.8245 70.7798 40.0674C68.1584 44.6549 66.8477 49.8977 66.8477 55.7959C66.8477 61.6941 68.1584 66.937 70.7798 71.5245C73.4012 76.112 76.678 79.3888 81.2655 82.0102C85.853 84.6316 91.0959 85.9423 96.9941 85.9423C101.582 85.9423 105.514 85.287 109.446 83.3209C113.378 81.3548 115.999 79.3888 118.621 76.112C121.242 72.8352 123.208 69.5584 123.864 66.2816H108.791C107.48 68.2477 106.169 70.2138 104.203 71.5245C102.237 72.8352 99.6155 73.4906 96.3387 73.4906C92.4066 73.4906 89.1298 72.1798 85.853 69.5584C83.2316 66.937 81.2655 63.6602 81.2655 59.0727H125.174C125.174 57.762 125.174 57.1066 125.174 56.4513C125.174 55.7959 125.174 54.4852 125.174 53.8299C125.174 48.587 123.864 43.9995 121.242 39.412C119.932 34.8245 115.999 31.5477 112.067 28.9263ZM81.9209 49.8977C82.5762 45.9656 84.5423 42.6888 87.1637 40.7227C89.7852 38.7566 93.0619 37.4459 96.9941 37.4459C100.926 37.4459 104.203 38.7566 106.824 40.7227C109.446 42.6888 110.757 45.9656 110.757 49.8977H81.9209Z" fill="white"/>
<path d="M196.607 38.1022C199.884 38.1022 202.506 38.7575 204.472 40.7236C206.438 42.0343 208.404 44.6558 209.059 47.2772H224.788C223.477 40.7236 220.2 35.4808 214.957 31.5486C209.715 27.6165 203.816 25.6504 196.607 25.6504C190.709 25.6504 185.466 26.9611 180.879 29.5825C176.947 31.5486 173.015 35.4807 170.393 40.0683C167.772 44.6558 166.461 49.8986 166.461 55.7968C166.461 61.695 167.772 66.9379 170.393 71.5254C173.015 76.1129 176.291 79.3897 180.879 82.0111C185.466 84.6326 190.709 85.9433 196.607 85.9433C203.816 85.9433 210.37 83.9772 214.957 80.045C220.2 76.1129 223.477 70.87 224.788 64.3165H209.059C208.404 66.9379 206.438 69.5593 204.472 70.87C202.506 72.1808 199.229 73.4915 196.607 73.4915C192.675 73.4915 188.743 72.1808 186.122 68.904C183.5 65.6272 181.534 61.695 181.534 55.7968C181.534 50.554 182.845 45.9665 186.122 42.6897C188.743 39.4129 192.675 38.1022 196.607 38.1022Z" fill="white"/>
<path d="M244.448 26.9609H229.375V84.6324H244.448V26.9609Z" fill="white"/>
<path d="M150.736 11.2324H144.182C139.595 11.2324 135.662 15.1646 135.662 19.7521V26.961H125.832V39.4128H135.662V64.3163C135.662 71.5253 137.628 76.7681 140.905 80.0449C144.837 82.6664 149.425 84.6324 155.323 84.6324H165.153V72.1806H157.945C155.323 72.1806 152.702 71.5253 152.046 70.8699C151.391 68.9039 150.736 66.9378 150.736 64.3163V39.4128H166.464V26.961H150.736V11.2324Z" fill="white"/>
<path d="M273.283 11.2324H266.73C262.142 11.2324 258.21 15.1646 258.21 19.7521V26.961H249.035V39.4128H258.866V64.3163C258.866 71.5253 260.832 76.7681 264.108 80.0449C268.041 82.6664 272.628 84.6324 278.526 84.6324H288.357V72.1806H281.803C279.182 72.1806 276.56 71.5253 275.905 70.8699C274.594 69.5592 273.939 67.5931 273.939 64.9717V39.4128H289.667V26.961H273.939V11.2324H273.283Z" fill="white"/>
<path d="M330.957 82.6663L354.55 26.9609H339.477L323.093 64.9717L306.709 26.9609H290.98L315.229 82.6663L303.432 110.191H319.161L330.302 83.3217H330.957V82.6663Z" fill="white"/>
<path fill-rule="evenodd" clip-rule="evenodd" d="M241.698 11.2583C241.69 11.2478 235.39 3.13903 235.382 3.12837C233.425 0.608851 229.805 0.163549 227.298 2.13376C224.79 4.10397 224.344 7.74366 226.302 10.2632C226.31 10.2738 232.609 18.3825 232.618 18.3931C234.575 20.9127 238.194 21.3581 240.702 19.3878C243.209 17.4176 243.655 13.7778 241.698 11.2583Z" fill="white"/>
<path fill-rule="evenodd" clip-rule="evenodd" d="M247.272 2.13378C244.765 0.163563 241.145 0.608813 239.188 3.12839C239.181 3.13771 232.879 11.249 232.872 11.2584C230.915 13.7779 231.361 17.4176 233.868 19.3878C236.376 21.358 239.995 20.9127 241.952 18.3932C241.96 18.3839 248.261 10.2725 248.268 10.2632C250.226 7.74368 249.78 4.10394 247.272 2.13378Z" fill="white"/>
</svg>
