<svg width="46" height="38" viewBox="0 0 46 38" fill="none" xmlns="http://www.w3.org/2000/svg">
    <path fill-rule="evenodd" clip-rule="evenodd" d="M31.3167 19.5148C31.3013 19.4949 19.4286 4.21192 19.413 4.19183C15.724 -0.556843 8.90226 -1.39613 4.17624 2.31724C-0.549678 6.0306 -1.39015 12.8905 2.29889 17.6393C2.31429 17.6592 14.187 32.9422 14.2026 32.9622C17.8916 37.711 24.7133 38.5504 29.4393 34.8369C34.1652 31.1235 35.0058 24.2635 31.3167 19.5148Z" fill="white"/>
    <path fill-rule="evenodd" clip-rule="evenodd" d="M41.8238 2.31728C37.0978 -1.3961 30.2762 -0.556916 26.5869 4.19186C26.5733 4.20945 14.6968 19.4973 14.6833 19.5149C10.9942 24.2636 11.8348 31.1235 16.5607 34.837C21.2867 38.5503 28.1085 37.711 31.7976 32.9623C31.8111 32.9448 43.6876 17.6568 43.7011 17.6393C47.3902 12.8906 46.5496 6.03054 41.8238 2.31728Z" fill="white"/>
</svg>
