<svg width="971" height="320" viewBox="0 0 971 320" fill="none" xmlns="http://www.w3.org/2000/svg">
<path d="M679.748 3.99371C671.554 -2.40769 659.709 -0.956947 653.296 7.22161C653.296 7.23974 650.77 10.4495 647.482 14.6385C644.212 10.4495 641.686 7.22161 641.668 7.22161C635.291 -0.956947 623.446 -2.38955 615.252 3.99371C607.04 10.3951 605.586 22.2187 612 30.3972C612.018 30.4335 632.639 56.7644 632.657 56.7826C635.982 61.026 640.76 63.456 645.738 63.9275C645.756 63.9275 645.774 63.9275 645.774 63.9275C645.901 63.9456 646.047 63.9456 646.174 63.9637C646.21 63.9637 646.246 63.9637 646.283 63.9637C646.392 63.9637 646.501 63.9819 646.61 63.9819C646.664 63.9819 646.719 63.9819 646.773 63.9819C646.864 63.9819 646.973 63.9819 647.064 64C647.137 64 647.191 64 647.264 64C647.336 64 647.427 64 647.5 64C647.573 64 647.664 64 647.736 64C647.809 64 647.863 64 647.936 64C648.027 64 648.136 64 648.227 63.9819C648.281 63.9819 648.336 63.9819 648.39 63.9819C648.499 63.9819 648.608 63.9637 648.717 63.9637C648.754 63.9637 648.79 63.9637 648.826 63.9637C648.953 63.9456 649.099 63.9456 649.226 63.9275C649.244 63.9275 649.262 63.9275 649.262 63.9275C654.24 63.456 659.018 61.026 662.343 56.7826C662.361 56.7463 682.982 30.4153 683 30.3972C689.414 22.2187 687.96 10.3951 679.748 3.99371Z" fill="white"/>
<path d="M214.927 26.6191H170.423L107.594 205.222L45.5509 27.1421L45.2891 26.6191H0L81.9392 249.153V249.676H132.988L214.665 27.6651L214.927 26.6191Z" fill="white"/>
<path fill-rule="evenodd" clip-rule="evenodd" d="M265.189 88.334C280.635 88.334 294.509 91.7335 306.29 98.5324C318.332 105.331 327.494 114.745 334.301 126.251C340.846 138.018 344.249 151.093 344.249 165.476C344.249 166.621 344.187 167.767 344.123 168.943C344.056 170.183 343.987 171.456 343.987 172.798C343.85 174.033 343.784 175.341 343.715 176.72C343.653 177.969 343.588 179.276 343.463 180.643H223.565C224.351 192.933 228.539 202.608 236.393 209.669C243.985 216.729 253.409 220.129 264.404 220.129C272.781 220.129 279.849 218.298 285.347 214.637C290.844 210.976 295.033 206.269 297.913 200.255H339.275C336.395 210.192 331.421 219.344 324.615 227.451C317.808 235.557 309.169 241.833 299.222 246.54C289.012 251.247 277.755 253.6 264.927 253.6C249.22 253.6 235.084 250.201 222.78 243.402C210.476 236.603 200.79 227.189 193.721 214.899C186.653 202.608 183.25 188.487 183.25 172.275C183.25 156.062 186.653 141.679 193.46 128.866C200.266 116.053 209.69 106.116 221.994 99.0554C234.298 91.9949 248.697 88.334 265.189 88.334ZM239.008 129.912C231.417 135.665 226.443 144.033 224.348 155.539H303.146C302.361 145.079 298.696 136.711 291.628 130.697C284.559 124.682 275.92 121.544 265.449 121.544C255.501 121.544 246.6 124.421 239.008 129.912Z" fill="white"/>
<path d="M537.713 123.111C546.09 123.111 553.682 125.203 559.703 129.649C565.986 134.094 570.174 139.847 572.269 147.692H615.202C611.275 129.387 602.636 114.743 588.761 104.284C574.886 93.8237 558.132 88.5938 537.975 88.5938C521.744 88.5938 507.607 91.9932 495.303 99.0536C482.999 106.114 473.313 115.789 466.245 128.341C459.177 140.893 455.512 155.014 455.512 171.227C455.512 187.44 459.177 201.561 466.245 214.112C473.313 226.664 482.999 236.34 495.303 243.4C507.607 250.461 521.744 253.86 537.975 253.86C558.132 253.86 575.148 248.369 588.761 237.647C602.636 226.926 611.275 212.544 615.202 194.762H572.269C570.174 202.607 565.986 208.621 559.703 212.805C553.42 216.989 546.09 219.081 537.713 219.081C526.456 219.081 517.032 214.897 509.178 206.268C501.324 197.9 497.398 186.132 497.398 170.965C497.398 156.06 501.324 144.293 509.178 135.663C517.032 127.295 526.456 123.111 537.713 123.111Z" fill="white"/>
<rect x="627.766" y="92.2539" width="40.5769" height="157.421" fill="white"/>
<path d="M412.838 50.1543H395.56C382.732 50.1543 372.261 60.6142 372.261 73.4276V92.2554H345.035V126.25H371.999V194.762C371.999 215.421 376.973 229.541 386.921 237.648C396.869 245.754 410.22 249.677 426.713 249.677H454.462V215.159H434.828C426.713 215.159 421.215 213.852 417.812 210.975C414.409 208.099 412.838 202.869 412.838 195.285V126.25H455.509V92.2554H412.838V50.1543Z" fill="white"/>
<path d="M748.186 50.1543H730.908C718.08 50.1543 707.609 60.6142 707.609 73.4276V92.2554H680.645V126.25H707.609V194.762C707.609 215.421 712.583 229.541 722.53 237.648C732.478 245.754 745.829 249.677 762.322 249.677H790.071V215.159H770.437C762.322 215.159 756.824 213.852 753.421 210.975C750.018 208.099 748.447 202.869 748.447 195.285V126.25H791.119V92.2554H748.186V50.1543Z" fill="white"/>
<path d="M904.473 245.491L970.444 92.2539H928.296L883.269 196.591L838.503 92.2539H796.355L862.326 245.491L830.388 319.495H872.535L904.212 246.276H904.735L904.473 245.491Z" fill="white"/>
</svg>
