<svg xmlns="http://www.w3.org/2000/svg" xmlns:xlink="http://www.w3.org/1999/xlink" viewBox="0 0 99.24 94.95"><defs><style>.cls-1{fill:#dde2f0;}.cls-2{fill:url(#linear-gradient);}.cls-3{fill:#d9c3ba;}.cls-4{fill:url(#linear-gradient-2);}.cls-5{fill:url(#linear-gradient-3);}.cls-6{fill:#3d223e;}.cls-7{fill:url(#linear-gradient-4);}.cls-8{fill:#f0bad6;}.cls-9{fill:url(#linear-gradient-5);}.cls-10{fill:url(#linear-gradient-6);}.cls-11{fill:#f8f4f0;}.cls-12{fill:url(#linear-gradient-7);}.cls-13{fill:none;stroke:#0a45b8;stroke-linecap:round;stroke-linejoin:round;stroke-width:2px;}</style><linearGradient id="linear-gradient" x1="80.61" y1="59.96" x2="95.28" y2="59.96" gradientUnits="userSpaceOnUse"><stop offset="0" stop-color="#ab969e"/><stop offset="0.2" stop-color="#bea9aa"/><stop offset="0.51" stop-color="#d9c3ba"/></linearGradient><linearGradient id="linear-gradient-2" x1="44.91" y1="57.21" x2="61.93" y2="77.49" gradientUnits="userSpaceOnUse"><stop offset="0" stop-color="#ab969e"/><stop offset="0.29" stop-color="#b9a4a7"/><stop offset="0.77" stop-color="#d9c3ba"/></linearGradient><linearGradient id="linear-gradient-3" x1="22.25" y1="36.95" x2="79.54" y2="36.95" gradientUnits="userSpaceOnUse"><stop offset="0" stop-color="#d9c3ba"/><stop offset="0.37" stop-color="#dac5bc" stop-opacity="0.99"/><stop offset="0.57" stop-color="#decac2" stop-opacity="0.94"/><stop offset="0.73" stop-color="#e4d4cd" stop-opacity="0.86"/><stop offset="0.87" stop-color="#ede2dc" stop-opacity="0.75"/><stop offset="1" stop-color="#f8f4f0" stop-opacity="0.6"/></linearGradient><linearGradient id="linear-gradient-4" x1="9.53" y1="16.07" x2="33.9" y2="40.45" gradientUnits="userSpaceOnUse"><stop offset="0" stop-color="#ab969e"/><stop offset="0.32" stop-color="#c2acac"/><stop offset="0.67" stop-color="#d3bdb6"/><stop offset="0.92" stop-color="#d9c3ba"/></linearGradient><linearGradient id="linear-gradient-5" x1="37.82" y1="45.96" x2="37.82" y2="30.5" gradientUnits="userSpaceOnUse"><stop offset="0" stop-color="#ae3e42" stop-opacity="0.6"/><stop offset="0.2" stop-color="#c77c7d" stop-opacity="0.4"/><stop offset="0.41" stop-color="#dcb0af" stop-opacity="0.22"/><stop offset="0.62" stop-color="#ecd6d3" stop-opacity="0.1"/><stop offset="0.82" stop-color="#f5ece9" stop-opacity="0.03"/><stop offset="1" stop-color="#f8f4f0" stop-opacity="0"/></linearGradient><linearGradient id="linear-gradient-6" x1="84.96" y1="9.83" x2="63.73" y2="31.06" gradientUnits="userSpaceOnUse"><stop offset="0" stop-color="#ab969e"/><stop offset="0.07" stop-color="#ad989f" stop-opacity="0.96"/><stop offset="0.18" stop-color="#b39ea3" stop-opacity="0.83"/><stop offset="0.32" stop-color="#bca7a8" stop-opacity="0.63"/><stop offset="0.47" stop-color="#c9b3b0" stop-opacity="0.35"/><stop offset="0.64" stop-color="#d9c3ba" stop-opacity="0"/></linearGradient><linearGradient id="linear-gradient-7" x1="32.03" y1="69.64" x2="51.94" y2="58.14" xlink:href="#linear-gradient-5"/></defs><title>Ресурс 53600</title><g id="Слой_2" data-name="Слой 2"><g id="Illustration"><path class="cls-1" d="M49.34,5.46A44.22,44.22,0,0,1,70.19,8.83,45.59,45.59,0,0,1,91.45,27c10.21,17,11.27,44-2.13,52.54s-29.36,0-31.48-1.07-16.6-6.38-23-.63-6.17,9.36-11.27,9.36S3.59,76.34,4.23,48.47c.32-14,7.49-26.15,19.1-33.79A55.25,55.25,0,0,1,49.34,5.46Z"/><path class="cls-2" d="M80.61,50.68c5-.48,10,1.07,14.67,3a21.3,21.3,0,0,1-10,15.66,34.75,34.75,0,0,0-.3-9.77A18.06,18.06,0,0,0,80.61,50.68Z"/><path class="cls-3" d="M76.62,42.26A54.19,54.19,0,0,1,88.75,60.08c.73,1.73,1,3.13,1.73,4.84-5,8.43-13.5,14.22-23,16.73s-19.46,2.16-29.15.76a9.7,9.7,0,0,1-4.64-1.54,34.63,34.63,0,0,1,.31-9c1.17-6.06,5-11.35,9.73-15.31s10.31-6.73,15.92-9.3c4.1-1.88,8.33-3.69,12.81-4.14A36.61,36.61,0,0,0,76.62,42.26Z"/><path class="cls-3" d="M79.35,43.34C79,40.67,79,38,78.11,35.58A24.37,24.37,0,0,1,78,31.15c.19-1.46.79-2.91.55-4.36-.15-.89-.61-1.7-.8-2.58A9.41,9.41,0,0,1,77.85,21c.83-6,.94-12.31-.91-18.13-.38-1.21-1-2.56-2.29-2.79a3.44,3.44,0,0,0-2.29.66,17.14,17.14,0,0,0-3.65,3,34.44,34.44,0,0,0-4.33,6.4l-5.6,9.78a24.24,24.24,0,0,0-1.28,2.48c-5.13-.23-10.28,1.79-15.48,2.24-4.29.37-7.69,3.08-11.05,5.78a22.19,22.19,0,0,0-7.4,10.36A31.23,31.23,0,0,0,22.43,47a24.29,24.29,0,0,0-.16,3.81,18.37,18.37,0,0,0,6.06,12.68,26.21,26.21,0,0,0,4,2.61,63,63,0,0,0,6.95,3.65c1.83.77,3.75,1.37,5.51,2.29a19.86,19.86,0,0,0,3.07,1.51,9.15,9.15,0,0,0,3.57.32c.34,0,.69-.09,1-.14a4.79,4.79,0,0,1,.65,0,8.15,8.15,0,0,0,1.22.09,12.17,12.17,0,0,0,6.12-2.33c.92-.67,1.75-1.48,2.7-2.12,1.17-.79,2.5-1.33,3.63-2.17,2.06-1.54,3.26-4,5-5.86,1.33-1.45,3-2.59,4.29-4.08C79.27,53.54,79.94,48.21,79.35,43.34Z"/><path class="cls-3" d="M52.42,73.72a4.79,4.79,0,0,1,.65,0,8.15,8.15,0,0,0,1.22.09,12.17,12.17,0,0,0,6.12-2.33c.92-.67,1.75-1.48,2.7-2.12,1.17-.79,2.5-1.33,3.63-2.17,2.06-1.54,3.26-4,5-5.86,1.33-1.45,3-2.59,4.29-4.08,3.23-3.68,3.9-9,3.31-13.88-.41-3.27-.37-6.49-1.94-9.39-2-3.75-5.93-6.05-9.67-8.09a27.82,27.82,0,0,0-8-3.29C53.87,21.47,48,24,42,24.56c-4.29.37-7.69,3.08-11.05,5.78a22.19,22.19,0,0,0-7.4,10.36A31.23,31.23,0,0,0,22.43,47a24.29,24.29,0,0,0-.16,3.81,18.37,18.37,0,0,0,6.06,12.68,26.21,26.21,0,0,0,4,2.61,63,63,0,0,0,6.95,3.65c1.83.77,3.75,1.37,5.51,2.29a20.86,20.86,0,0,0,3.07,1.52,9.34,9.34,0,0,0,3.57.31C51.72,73.83,52.07,73.77,52.42,73.72Z"/><path class="cls-4" d="M74.39,55.34c-10.75,5.07-23.35,6.6-35.18,7.8-.53,0-1.06.11-1.6.19A23.63,23.63,0,0,0,34,71.83a34.63,34.63,0,0,0-.31,9,9.7,9.7,0,0,0,4.64,1.54c3,.44,6.11.77,9.18,1a34.86,34.86,0,0,0,15.28-6.64,22.22,22.22,0,0,0,4-4,34.67,34.67,0,0,0,2.68-4.46C71.67,64.17,73.87,60,74.39,55.34Z"/><path class="cls-5" d="M79.35,43.34C79,40.67,79,38,78.11,35.58A24.37,24.37,0,0,1,78,31.15c.19-1.46.79-2.91.55-4.36-.15-.89-.61-1.7-.8-2.58A9.41,9.41,0,0,1,77.85,21c.83-6,.94-12.31-.91-18.13-.38-1.21-1-2.56-2.29-2.79a3.44,3.44,0,0,0-2.29.66,17.14,17.14,0,0,0-3.65,3,34.44,34.44,0,0,0-4.33,6.4l-5.6,9.78a24.24,24.24,0,0,0-1.28,2.48c-5.13-.23-10.28,1.79-15.48,2.24-4.29.37-7.69,3.08-11.05,5.78a22.19,22.19,0,0,0-7.4,10.36A31.23,31.23,0,0,0,22.43,47a24.29,24.29,0,0,0-.16,3.81,18.37,18.37,0,0,0,6.06,12.68,26.21,26.21,0,0,0,4,2.61,63,63,0,0,0,6.95,3.65c1.83.77,3.75,1.37,5.51,2.29a19.86,19.86,0,0,0,3.07,1.51,9.15,9.15,0,0,0,3.57.32c.34,0,.69-.09,1-.14a4.79,4.79,0,0,1,.65,0,8.15,8.15,0,0,0,1.22.09,12.17,12.17,0,0,0,6.12-2.33c.92-.67,1.75-1.48,2.7-2.12,1.17-.79,2.5-1.33,3.63-2.17,2.06-1.54,3.26-4,5-5.86,1.33-1.45,3-2.59,4.29-4.08C79.27,53.54,79.94,48.21,79.35,43.34Z"/><path class="cls-6" d="M68.75,39a11.35,11.35,0,0,0-5.93.36,6.3,6.3,0,0,0-4,4.21A6,6,0,0,0,68.75,39Z"/><path class="cls-6" d="M40.35,45.74a16,16,0,0,1-6.05-.16A12.16,12.16,0,0,1,32.36,45l.37.56a6.55,6.55,0,0,0,6.89,2.72,5.9,5.9,0,0,0,3.9-3.22c0-.11.13-.33.22-.57A11.09,11.09,0,0,1,40.35,45.74Z"/><path class="cls-7" d="M40,27.66A65.33,65.33,0,0,0,31.08,18,37.74,37.74,0,0,0,20.92,11.2a8.51,8.51,0,0,0-4.44-.87c-3.38.46-3.65,3.64-3.27,6.4A102.81,102.81,0,0,0,15.2,27a12,12,0,0,0,.53,1.77c.73,1.82,2.24,3.38,2.33,5.33a14,14,0,0,0,0,2.42,6.82,6.82,0,0,0,1,2.1,17,17,0,0,1,2.32,4.1c.35,1.22.27,2.53.55,3.76A9.44,9.44,0,0,0,24,50.33a34.3,34.3,0,0,1,5.34-12.88A31.69,31.69,0,0,1,40,27.66Z"/><path class="cls-8" d="M32.59,29.54c-3.58,3.55-7.12,7.54-8.73,12.33l-1.69-2.46a17.78,17.78,0,0,1-2-3.42c-.52-1.31-.72-2.72-1.21-4.05s-1.26-2.57-1.81-3.89A26.27,26.27,0,0,1,16,23.87a36.58,36.58,0,0,1-1.21-8.43,5.1,5.1,0,0,1,.71-2.86c1.07-1.5,3.53-.82,5.19,0A15,15,0,0,1,24.89,16a71.08,71.08,0,0,1,5.55,6.69C31.87,24.68,33,27.15,32.59,29.54Z"/><path class="cls-9" d="M45.76,43a10.39,10.39,0,0,1-5.41,2.7,16,16,0,0,1-6.05-.16,8.2,8.2,0,0,1-4.19-1.89c-1.78-1.72-1.53-4.87-.58-7.2a9.65,9.65,0,0,1,6.61-5.81,8.27,8.27,0,0,1,8.11,2.82,11.33,11.33,0,0,1,1.22,1.92,11.14,11.14,0,0,1,1.33,3.75A4.73,4.73,0,0,1,45.76,43Z"/><path class="cls-10" d="M77.39,39.83c1.47-2.54.25-5.77.63-8.68.19-1.46.79-2.91.55-4.36-.15-.89-.61-1.7-.8-2.58A9.41,9.41,0,0,1,77.85,21c.83-6,.94-12.31-.91-18.13-.38-1.21-1-2.56-2.29-2.79a3.44,3.44,0,0,0-2.29.66,17.14,17.14,0,0,0-3.65,3,34.44,34.44,0,0,0-4.33,6.4l-5.6,9.78a14.09,14.09,0,0,0-1.88,4.39c3.87.73,7.24,2.88,10.49,5.11,1.15.78,2.29,1.58,3.36,2.47A28.83,28.83,0,0,1,77.39,39.83Z"/><path class="cls-8" d="M75.3,32.92a16.22,16.22,0,0,0,1.24-5.58c0-1.1,0-2.2.07-3.29.12-1.39.5-2.75.71-4.13.76-5-.63-9.94-2.09-14.73a4.17,4.17,0,0,0-1-1.95A.93.93,0,0,0,73.7,3c-.41,0-.74.3-1,.6-3.63,4.27-7.31,8.61-9.63,13.71a9,9,0,0,0-1,5.75A22,22,0,0,1,75.3,32.92Z"/><path class="cls-6" d="M46.47,72.35c1.11,0,2.21.07,3.31,0a5.44,5.44,0,0,0,3-1.15,6.33,6.33,0,0,0,1.62-2.76,2.29,2.29,0,0,1,.28-.59A1.41,1.41,0,0,1,56,67.36a13,13,0,0,1,1.38.3,4.25,4.25,0,0,0,3.68-1.11,9.15,9.15,0,0,1-4.85-2.4,17.55,17.55,0,0,1-1.56-2.24,1.76,1.76,0,0,0-.45-.49.62.62,0,0,0-.64,0c-.31.2-.27.66-.23,1a6.08,6.08,0,0,1-.75,3.46,12.29,12.29,0,0,1-2.17,2.85A46.65,46.65,0,0,1,46.47,72.35Z"/><path class="cls-11" d="M68.45,65.79a4.23,4.23,0,0,1-2.2,1.54,11.1,11.1,0,0,1-2.69.42A16.56,16.56,0,0,1,56.41,67a3,3,0,0,1-1.31-.87,3.17,3.17,0,0,1-.52-1.41,18,18,0,0,1-.26-2.64,6.87,6.87,0,0,1,.2-2.26,2.71,2.71,0,0,1,1.18-1.74,10.61,10.61,0,0,1,1.47-.39,9.3,9.3,0,0,0,1.65-1,6,6,0,0,1,2.45-.74,9.59,9.59,0,0,1,7,2.12,5,5,0,0,1,1,1.06,5,5,0,0,1,.43,4.12,8,8,0,0,1-2.1,3.52"/><path class="cls-11" d="M53.17,68c-3.35,6.5-14.13,6.28-19.42,2.74a9.2,9.2,0,0,1-4-8.1c.28-4.86,4.26-7,8.71-7.45s9.44.55,13.06,3.4a9.52,9.52,0,0,1,1.56,1.48,6.18,6.18,0,0,1,.78,2.53A8.1,8.1,0,0,1,53.17,68Z"/><path class="cls-12" d="M53.17,68c-3.35,6.5-14.13,6.28-19.42,2.74a9.2,9.2,0,0,1-4-8.1c.28-4.86,4.26-7,8.71-7.45s9.44.55,13.06,3.4a9.52,9.52,0,0,1,1.56,1.48,6.18,6.18,0,0,1,.78,2.53A8.1,8.1,0,0,1,53.17,68Z"/><path class="cls-6" d="M51.13,60.48a.57.57,0,0,1,.69-.09.32.32,0,0,1,.21.27.45.45,0,0,1-.1.27c-.25.39-.34.58.07.85.25.16.54.25.8.4.42.23.84.45,1.28.64a.18.18,0,0,0,.14,0,.23.23,0,0,0,.1-.07c.33-.41.66-.81,1-1.21s.51-.67.39-1-.56-.55-.63-.93a.73.73,0,0,1,.05-.41,1.73,1.73,0,0,1,2.12-1c.15,0,.27,0,.39-.15a2.87,2.87,0,0,0,.56-.69,2.39,2.39,0,0,0-2.32-1.44,6.79,6.79,0,0,0-2.83.79c-.81.36-1.65-.13-2.52-.29a3,3,0,0,0-2.52.38,2.85,2.85,0,0,0-.65.92,1.84,1.84,0,0,0,0,2.24,3.49,3.49,0,0,0,.57.7,2.28,2.28,0,0,0,1.62.48,2.6,2.6,0,0,0,1.28-.39C51,60.64,51,60.55,51.13,60.48Z"/><line class="cls-13" x1="19.07" y1="73.43" x2="8.64" y2="80.82"/><line class="cls-13" x1="13.78" y1="62.75" x2="1" y2="62.78"/><line class="cls-13" x1="14.67" y1="51.31" x2="3.49" y2="45.12"/><line class="cls-13" x1="27.36" y1="81.9" x2="23.11" y2="93.95"/></g></g></svg>