<svg xmlns="http://www.w3.org/2000/svg" xmlns:xlink="http://www.w3.org/1999/xlink" viewBox="0 0 122.48 92.42"><defs><style>.cls-1{fill:#dde2f0;}.cls-2{fill:#0a45b8;}.cls-3{fill:#ad896d;}.cls-4{fill:url(#linear-gradient);}.cls-5{fill:#8d6558;}.cls-6{fill:url(#linear-gradient-2);}.cls-7{fill:#efb1ac;}.cls-8{fill:#fee6ce;}.cls-9{fill:#562835;}.cls-10{fill:url(#linear-gradient-3);}.cls-11{fill:url(#linear-gradient-4);}.cls-12{fill:url(#linear-gradient-5);}.cls-13{fill:url(#linear-gradient-6);}.cls-14{fill:url(#linear-gradient-7);}</style><linearGradient id="linear-gradient" x1="54.03" y1="32" x2="54.03" y2="84.1" gradientTransform="matrix(-1, 0, 0, 1, 125.14, 0)" gradientUnits="userSpaceOnUse"><stop offset="0" stop-color="#6f3e42"/><stop offset="0.02" stop-color="#703f43"/><stop offset="0.35" stop-color="#80544f"/><stop offset="0.68" stop-color="#8a6156"/><stop offset="1" stop-color="#8d6558"/></linearGradient><linearGradient id="linear-gradient-2" x1="24.21" y1="33.58" x2="18.52" y2="43.44" gradientTransform="matrix(-1, 0, 0, 1, 125.14, 0)" gradientUnits="userSpaceOnUse"><stop offset="0" stop-color="#8d6558"/><stop offset="0.59" stop-color="#a37d66"/><stop offset="1" stop-color="#ad896d"/></linearGradient><linearGradient id="linear-gradient-3" x1="55.1" y1="50.85" x2="44.11" y2="31.81" gradientTransform="matrix(-1, 0, 0, 1, 125.14, 0)" gradientUnits="userSpaceOnUse"><stop offset="0.13" stop-color="#8d6558"/><stop offset="0.26" stop-color="#936c5c"/><stop offset="0.7" stop-color="#a68169"/><stop offset="1" stop-color="#ad896d"/></linearGradient><linearGradient id="linear-gradient-4" x1="41.39" y1="87.48" x2="41.39" y2="24.92" gradientTransform="matrix(-1, 0, 0, 1, 125.14, 0)" gradientUnits="userSpaceOnUse"><stop offset="0" stop-color="#8d6558"/><stop offset="0.05" stop-color="#91695b"/><stop offset="0.34" stop-color="#a17b65"/><stop offset="0.65" stop-color="#aa866b"/><stop offset="1" stop-color="#ad896d"/></linearGradient><linearGradient id="linear-gradient-5" x1="87.17" y1="44.03" x2="68.22" y2="33.09" gradientTransform="matrix(-1, 0, 0, 1, 125.14, 0)" gradientUnits="userSpaceOnUse"><stop offset="0.13" stop-color="#ad896d"/><stop offset="0.15" stop-color="#ae8a6e"/><stop offset="0.59" stop-color="#bb9476"/><stop offset="1" stop-color="#bf9779"/></linearGradient><linearGradient id="linear-gradient-6" x1="100.13" y1="46.03" x2="100.13" y2="20.33" gradientTransform="matrix(-1, 0, 0, 1, 125.14, 0)" gradientUnits="userSpaceOnUse"><stop offset="0.14" stop-color="#8d6558"/><stop offset="1" stop-color="#ad896d"/></linearGradient><linearGradient id="linear-gradient-7" x1="82.49" y1="15.46" x2="48.91" y2="15.46" gradientTransform="matrix(-1, 0, 0, 1, 125.14, 0)" gradientUnits="userSpaceOnUse"><stop offset="0" stop-color="#bf9779"/><stop offset="0.4" stop-color="#bd9577"/><stop offset="0.62" stop-color="#b58d72"/><stop offset="0.8" stop-color="#a77f69"/><stop offset="0.96" stop-color="#936b5c"/><stop offset="1" stop-color="#8d6558"/></linearGradient></defs><title>Ресурс 44600</title><g id="Слой_2" data-name="Слой 2"><g id="Illustration"><path class="cls-1" d="M59.91,10.69a44.16,44.16,0,0,1,20.84,3.37A45.54,45.54,0,0,1,102,32.22c10.21,17,11.28,44-2.12,52.54s-29.36,0-31.48-1.06-16.6-6.39-23-.64-6.17,9.36-11.27,9.36S14.16,81.57,14.8,53.7c.32-14,7.49-26.15,19.1-33.79A55.35,55.35,0,0,1,59.91,10.69Z"/><path class="cls-2" d="M33.44,72c1.56.13,3.34.44,4.13,1.79.37.65.45,1.43.84,2.07,1,1.63,3.3,1.58,5.2,1.54a25.55,25.55,0,0,1,13.33,3.45c1.58.92,3.23,2.85,2.17,4.33a3.06,3.06,0,0,1-1.49,1c-3.82,1.41-8.15.61-12,1.76-2.3.68-4.35,2-6.62,2.76a14.39,14.39,0,0,1-10.31-.52c-1.86-.84-3.53-2.07-5.38-2.93-6.81-3.19-15.11-1-22.08-3.85a1.83,1.83,0,0,1-1.12-.88c-.25-.68.32-1.39.93-1.78,2.23-1.41,5.33-1,7.39-2.69,3.2-2.56,5.48-5.36,9.81-6.06,4.88-.8,10.35-.38,15.25,0"/><path class="cls-3" d="M47.1,15c-4.36,2.07-9.43,1.58-14.26,1.54a8.2,8.2,0,0,0-3.69.55,6.06,6.06,0,0,0-1.91,1.5,8.48,8.48,0,0,0-2,7.43,9.62,9.62,0,0,0,4.26,5.57,22.68,22.68,0,0,0,6.64,2.65,28.25,28.25,0,0,1,4.31,1.33,14.67,14.67,0,0,1,6.42,6A10,10,0,0,0,48.62,44a2.5,2.5,0,0,0,2.85.45,2.82,2.82,0,0,0,.92-1.1A9.66,9.66,0,0,0,53.31,38a43.22,43.22,0,0,0-1-5.37A61.22,61.22,0,0,1,51,19.77c0-1.52.44-3.92-.19-5.33S48,14.5,47.1,15Z"/><path class="cls-4" d="M66.89,36.8a13.58,13.58,0,0,0-1.49,6.38,33,33,0,0,0,.5,4.42c.48,3.33.47,6.52.95,9.85a55.21,55.21,0,0,1,.43,7l.15,7.92c0,2.44-.24,5,0,7.42A3.76,3.76,0,0,0,68.3,82a4.39,4.39,0,0,0,1,.77A8.83,8.83,0,0,0,71.94,84a9.25,9.25,0,0,0,2.52.07.91.91,0,0,0,.69-.26.83.83,0,0,0,.13-.47,3.64,3.64,0,0,0-2.86-3.46c0-2.63.24-5.27.45-7.89.67-8.14,1.33-16.29,2.45-24.37.33-2.35,1.34-4.52,1.48-6.88a11.54,11.54,0,0,0-1.46-6.83,3.79,3.79,0,0,0-2.09-1.8c-1.3-.35-2.62.42-3.72,1.2A9.5,9.5,0,0,0,66.89,36.8Z"/><path class="cls-5" d="M109.31,33.85a13.16,13.16,0,0,1,2.63-1.25A27.19,27.19,0,0,0,115,31.24a7.56,7.56,0,0,0,1.34-.88,4.22,4.22,0,0,1,1.35-.87.56.56,0,0,1,.61.09.48.48,0,0,1,.09.27,4.69,4.69,0,0,1-.41,2.41,16.78,16.78,0,0,1-4,5.83,5.58,5.58,0,0,1-2.59-1.36A5.71,5.71,0,0,1,109.31,33.85Z"/><path class="cls-3" d="M44.22,34.29c2.76,3.58,7.25,5.24,11.13,7.56s7.24,5.32,11.48,6.59c4,1.19,8.15.71,12.2,1.21,1,.12,2,.47,3,.57a25.7,25.7,0,0,0,2.77,0C86.88,50.12,89,50,91.16,50c3,0,6.2,0,8.88,1.48A13.52,13.52,0,0,0,104.78,53a6.4,6.4,0,0,1,2.57.63,7.5,7.5,0,0,1,1.54,1.59c2.26,2.63,6,3.6,9.42,3.43a2.79,2.79,0,0,0,1.85-.58c.22-.21.38-.49.6-.69a4.58,4.58,0,0,1,1-.56c.34-.18.74-.37.69-.76-.29-2.39-2.41-4.11-3.47-6.28a7.6,7.6,0,0,1-.75-3.47c0-.79.17-1.57.17-2.36a10,10,0,0,0-3.14-6.76c-1.76-1.84-3.9-3.27-5.81-4.95a21.25,21.25,0,0,0-1.64-1.37c-1.81-1.25-4.15-1.63-5.82-3.07-5.41-4.7-12.38-7-19.09-9.48a26,26,0,0,0-3.82-1.19c-1.29-.26-2.6-.35-3.88-.58a30.45,30.45,0,0,1-4.08-1.13q-2.72-.9-5.4-1.93a26.56,26.56,0,0,0-11.06-1.27,15.55,15.55,0,0,0-8.85,3.91,10.33,10.33,0,0,0-3.19,4.21,12.33,12.33,0,0,0-.12,7C43,29.61,42.78,32.42,44.22,34.29Z"/><path class="cls-6" d="M100.53,42.79a7.82,7.82,0,0,1,.12-3.6c.49-1.86,1.64-3.47,2.35-5.26a5,5,0,0,1,1.3-2.27.67.67,0,0,1,.45-.19.78.78,0,0,1,.43.2A6.38,6.38,0,0,1,107,34.39a17.36,17.36,0,0,0,1.4,3c.35.52.79,1,1.09,1.54a1.78,1.78,0,0,1,0,1.69,5.45,5.45,0,0,1-1.17,1.46,7,7,0,0,1-2.67,1.77,7.75,7.75,0,0,1-4.09-.31C101.16,43.47,100.61,43.19,100.53,42.79Z"/><path class="cls-7" d="M101.74,42.32a3.18,3.18,0,0,1-.3-1.93A9.2,9.2,0,0,1,102,38c.17-.49.39-1,.61-1.44l1.66-3.64c.07-.14.15-.29.3-.32s.33.11.43.25a35.79,35.79,0,0,1,1.74,3.51c.64,1.07,1.6,2,1.92,3.18.2.74-.52,1.44-1.1,1.93a5,5,0,0,1-1,.65A5.55,5.55,0,0,1,101.74,42.32Z"/><path class="cls-8" d="M106.6,53.31a3.75,3.75,0,0,1,.37-1.72,3.22,3.22,0,0,1,2.55-1.69c1.68-.13,3.29,1.09,5,.83a24.84,24.84,0,0,0,2.82-1.09,3.7,3.7,0,0,1,1.62,0c0,.06,0,.13.08.19,1.06,2.17,3.18,3.89,3.47,6.28,0,.39-.35.58-.69.76a4.58,4.58,0,0,0-1,.56c-.22.2-.38.48-.6.69a2.79,2.79,0,0,1-1.85.58c-3.46.17-7.16-.8-9.42-3.43a7.5,7.5,0,0,0-1.54-1.59A3.08,3.08,0,0,0,106.6,53.31Z"/><path class="cls-9" d="M119.44,55.53c.08-.27.33-.31.55-.43a4.56,4.56,0,0,1,.8-.39,3.06,3.06,0,0,1,1.24-.14,5,5,0,0,1,.44,1.49c0,.39-.35.58-.69.76a7,7,0,0,0-.9.47h0a3.51,3.51,0,0,1-.67-.47C119.91,56.55,119.3,56,119.44,55.53Z"/><path class="cls-9" d="M113.33,46c.5.13,1-.1,1.53,0a2.37,2.37,0,0,1,1.26,1,3.91,3.91,0,0,1-1.13.54,1.26,1.26,0,0,1-1-.46A3.82,3.82,0,0,1,113.33,46Z"/><path class="cls-9" d="M115.8,58.56a11,11,0,0,1-1.38-.23c-.24-.16-.48-.34-.7-.52a19.58,19.58,0,0,1-1.49-1.55A5.07,5.07,0,0,0,110.69,55h0a.36.36,0,0,1-.16-.47.36.36,0,0,1,.47-.16,5.41,5.41,0,0,1,1.71,1.45,17.7,17.7,0,0,0,1.39,1.56A6.2,6.2,0,0,0,115.8,58.56Z"/><path class="cls-10" d="M54.78,28.18a5.32,5.32,0,0,1,3.38-3.41c1.64-.39,3.32.42,4.81,1.21,4.41,2.33,8.83,4.73,13.66,6,3.19.82,6.58,1.14,9.44,2.77,3,1.72,5.13,4.72,6.83,7.77a48.83,48.83,0,0,0,3.74,6.32,13.67,13.67,0,0,0,1.87,2A22.8,22.8,0,0,0,91.16,50c-2.14,0-4.28.13-6.41.18a25.7,25.7,0,0,1-2.77,0c-1-.1-2-.45-3-.57-4-.5-8.24,0-12.2-1.21-4.24-1.27-7.67-4.32-11.48-6.59-.29-.18-.6-.35-.91-.52,0-.73-.06-1.47-.11-2.19C54.11,35.46,53.42,31.61,54.78,28.18Z"/><path class="cls-11" d="M76.73,30.89a30.45,30.45,0,0,0-3.15,7.66,18.13,18.13,0,0,0-.91,4.1c-.22,3.39,1.47,6.81.73,10.13a15.31,15.31,0,0,0-.55,2.39,7.63,7.63,0,0,0,1,3.67c1.62,3.47,2.41,7,4.26,10.33a33.82,33.82,0,0,1,2.9,7.11,15,15,0,0,0,1.61,4.38,17.46,17.46,0,0,0,1.39,1.7,25.56,25.56,0,0,1,2.55,3.49,2.88,2.88,0,0,0,.81,1,2.85,2.85,0,0,0,1.14.34c1.91.29,3.93.53,5.7-.23a1.13,1.13,0,0,0,.57-.81,1.56,1.56,0,0,0-.38-1.28,7.78,7.78,0,0,0-1.11-1.44,2.6,2.6,0,0,0-1.61-.77,17.09,17.09,0,0,1-2,.13,21.46,21.46,0,0,1-2.41-4.63c-.34-1-.52-2.1-.79-3.15-.38-1.52-.93-3-1.41-4.47a47.68,47.68,0,0,1-1.94-9.08c-.32-2.86-.43-5.45,1-8.07.7-1.26,1.65-2.37,2.3-3.66a15.89,15.89,0,0,0,1.29-7.43,32.61,32.61,0,0,1,.34-7.59c.56-2.55.91-5.07-.5-7.27A5,5,0,0,0,83,25c-1.68.23-2.95,1.58-4.08,2.85A26.72,26.72,0,0,0,76.73,30.89Z"/><path class="cls-3" d="M60.56,40.8c-.61,2.31-1.54,4.53-2,6.87-.34,1.69-.43,3.42-.63,5.13a79.75,79.75,0,0,1-2.65,12,24.07,24.07,0,0,1-1.42,3.31,21.15,21.15,0,0,0-1.59,4.25c-.21,1-.28,1.92-.45,2.88-.34,1.91-1,3.73-1.53,5.61s-1,4.43,0,6.2a7.51,7.51,0,0,0,.47.68,4.46,4.46,0,0,1,.68,3.35c-2.58.36-4.76.24-7-1.24a4.6,4.6,0,0,1,0-2.33,14.94,14.94,0,0,1,1-2.86c1.31-3.49.89-7.4,1.79-11,.26-1.06.63-2.09.9-3.15C50.6,60.6,45,51,45.35,41.12A46.62,46.62,0,0,1,46,35.24c.55-3.4,1.26-6.91,3.35-9.64a5.76,5.76,0,0,1,1.85-1.66,5.66,5.66,0,0,1,2-.54,8.18,8.18,0,0,1,4.74.88c1.67.93,2.24,2.24,2.68,4A25.31,25.31,0,0,1,60.56,40.8Z"/><path class="cls-3" d="M15.48,44.76a1.52,1.52,0,0,0,1.05.43,16.93,16.93,0,0,0,2,.3,2.48,2.48,0,0,0,1.86-.61,6.55,6.55,0,0,0,.52-.66,3.41,3.41,0,0,0,.56-.75.71.71,0,0,0-.14-.85,1.37,1.37,0,0,0-1-.3c-.41,0-.82.07-1.23.06a4.37,4.37,0,0,0-1.4,0,5.48,5.48,0,0,0-1.17.84,5.11,5.11,0,0,0-.93.64C15.38,44.17,15.26,44.45,15.48,44.76Z"/><path class="cls-12" d="M29.15,25.21a5.1,5.1,0,0,1,4.11-1.52c1.51,0,3,.45,4.49.58,3.73.33,7.57-1,11.17,0a9.5,9.5,0,0,1,5.73,4.9c2.6,5.23-.32,11-1.18,16.31a29,29,0,0,0-.35,6.38A35,35,0,0,1,53.29,56,6.63,6.63,0,0,1,52,59.79a3.39,3.39,0,0,1-3.51,1.3c-.84-6.64-3.35-13.24-3.13-20,0-.54.06-1.08.11-1.62a13.94,13.94,0,0,0-5-4,28.25,28.25,0,0,0-4.31-1.33c-1.06-.28-2.11-.59-3.14-1-.07-.11-.12-.22-.19-.32a16.31,16.31,0,0,0-3.24-3.84A2.7,2.7,0,0,1,29.15,25.21Z"/><path class="cls-13" d="M30.47,24.67a24.16,24.16,0,0,0,2.8,3.93,20.06,20.06,0,0,1,2,2.48A4.3,4.3,0,0,1,36,34.14a4.12,4.12,0,0,1-1.47,2.26,11.17,11.17,0,0,1-2.37,1.37C29,39.22,25.71,40.52,23.28,43a12.16,12.16,0,0,1-2.36,2.34,5.33,5.33,0,0,1-3.91.56c-.81-.2-3.21-1.09-3.06-2.14a2.15,2.15,0,0,1,.41-.88,10.34,10.34,0,0,1,2.44-1.93c.91-.64,1.86-1.23,2.82-1.81l7.52-4.56a4.9,4.9,0,0,0,1.27-1,2.51,2.51,0,0,0,.58-1.8c-.07-.6-.57-.88-.95-1.27l-1-1.08a7.81,7.81,0,0,1-2-4.33c-.19-1.53,0-3.33,1.34-4.3a2.44,2.44,0,0,1,2.95.05C30.48,21.84,29.73,23.39,30.47,24.67Z"/><path class="cls-14" d="M49.33,22.86c1.9-.15,3.83-.13,5.69-.24a11.28,11.28,0,0,0,9.4-5.24,28.63,28.63,0,0,0,2.07-4.28,85.41,85.41,0,0,1,5.07-10A6.46,6.46,0,0,1,74.31.16c.66-.28,1.61-.22,1.86.45a1.23,1.23,0,0,1,0,.63,8.29,8.29,0,0,1-.94,2.57A39.59,39.59,0,0,0,72.08,15c-.62,4.27-.8,9-3.65,12.2a11.47,11.47,0,0,1-8.49,3.75,14.1,14.1,0,0,1-4.71-1c-1.33-.44-2.78-.46-4-1a19.48,19.48,0,0,1-2.36-1.32,26,26,0,0,0-4.35-2.1,3.43,3.43,0,0,1-1.82-1.14A24.13,24.13,0,0,1,49.33,22.86Z"/><path class="cls-2" d="M40.81,39.67a35.41,35.41,0,0,0-7.4,4.79,20.87,20.87,0,0,0-5.23,6.88,28.38,28.38,0,0,0-2.32,8.37,66.1,66.1,0,0,0-.49,8.8v0a1,1,0,0,1-1,1,1,1,0,0,1-1-1v0a68.73,68.73,0,0,1,.83-9A30,30,0,0,1,27,50.74a21.85,21.85,0,0,1,5.78-7.06A36.64,36.64,0,0,1,40.5,39a.36.36,0,0,1,.47.17A.37.37,0,0,1,40.81,39.67Z"/></g></g></svg>