<svg width="40" height="27" viewBox="0 0 40 27" fill="none" xmlns="http://www.w3.org/2000/svg">
<path d="M20.5197 14.4473H17.9166V15.5529H17.9165C17.9165 16.1626 18.4125 16.6585 19.0221 16.6585H20.5197C21.1294 16.6585 21.6253 16.1626 21.6253 15.5529C21.6253 14.9432 21.1294 14.4473 20.5197 14.4473Z" fill="#1B1B29"/>
<path d="M30.5284 9.95508H29.0309C28.4212 9.95508 27.9253 10.4511 27.9253 11.0607V15.5533C27.9253 16.1631 28.4213 16.659 29.0309 16.659H30.5284C31.1382 16.659 31.6341 16.163 31.6341 15.5533V11.0607C31.6341 10.4511 31.1381 9.95508 30.5284 9.95508Z" fill="#1B1B29"/>
<path d="M33.8391 0H5.70321C2.55843 0 0 2.55851 0 5.70321V20.9118C0 24.0566 2.55843 26.615 5.70321 26.615H33.8391C36.9839 26.615 39.5423 24.0566 39.5423 20.9118V5.70321C39.5423 2.55851 36.9839 0 33.8391 0ZM11.7607 13.38C13.0195 13.6947 13.8986 14.8207 13.8986 16.1183C13.8986 17.6746 12.6324 18.9408 11.076 18.9408H6.76784C6.13786 18.9408 5.62721 18.4301 5.62721 17.8002C5.62721 17.1703 6.13794 16.6596 6.76784 16.6596H11.0761C11.3746 16.6596 11.6173 16.4168 11.6173 16.1184C11.6173 15.8695 11.4487 15.6536 11.2073 15.5933L8.34698 14.8782C7.62495 14.6977 7.12078 14.0518 7.12078 13.3077C7.12078 12.5636 7.62503 11.9176 8.34698 11.7372L11.2074 11.0221C11.4487 10.9618 11.6174 10.7459 11.6174 10.497C11.6174 10.1985 11.3746 9.95578 11.0762 9.95578H6.76784C6.13786 9.95578 5.62721 9.44505 5.62721 8.81516C5.62721 8.18526 6.13794 7.67453 6.76784 7.67453H11.0761C12.6325 7.67453 13.8987 8.94073 13.8987 10.4971C13.8987 11.7946 13.0195 12.9207 11.7607 13.2353L11.4708 13.3075L11.7607 13.38ZM20.5199 12.1669C22.3875 12.1669 23.9069 13.6863 23.9069 15.5539C23.9069 17.4215 22.3875 18.9408 20.5199 18.9408H19.0224C17.1548 18.9408 15.6354 17.4215 15.6354 15.5539V11.0613C15.6354 9.19367 17.1548 7.6743 19.0224 7.6743H22.7663C23.3962 7.6743 23.9069 8.18503 23.9069 8.81492C23.9069 9.44482 23.3962 9.95555 22.7663 9.95555H19.0224C18.4127 9.95555 17.9168 10.4515 17.9168 11.0612V12.1668H20.5199V12.1669ZM33.9151 15.5539C33.9151 17.4215 32.3957 18.9408 30.5281 18.9408H29.0306C27.163 18.9408 25.6437 17.4215 25.6437 15.5539V11.0613C25.6437 9.19367 27.163 7.6743 29.0306 7.6743H30.5281C32.3957 7.6743 33.9151 9.19367 33.9151 11.0613V15.5539Z" fill="#1B1B29"/>
</svg>
