<svg width="13" height="16" viewBox="0 0 13 16" fill="none" xmlns="http://www.w3.org/2000/svg">
<path d="M6.49999 0.40625C3.0192 0.40625 0.199951 0.800014 0.199951 3.55625V11.4313C0.199951 12.1282 0.507078 12.7464 0.987442 13.1795V14.5813C0.987442 15.0144 1.34182 15.3688 1.77493 15.3688H2.56246C2.99953 15.3688 3.34995 15.0144 3.34995 14.5813V13.7938H9.64999V14.5813C9.64999 15.0144 10.0004 15.3688 10.4375 15.3688H11.225C11.6581 15.3688 12.0125 15.0144 12.0125 14.5813V13.1796C12.4928 12.7465 12.8 12.1282 12.8 11.4313V3.55625C12.8 0.800014 9.98074 0.40625 6.49999 0.40625ZM2.95623 12.2188C2.30259 12.2188 1.77497 11.6912 1.77497 11.0375C1.77497 10.3839 2.30259 9.85629 2.95623 9.85629C3.60987 9.85629 4.13748 10.3839 4.13748 11.0375C4.13748 11.6912 3.60983 12.2188 2.95623 12.2188ZM10.0438 12.2188C9.39012 12.2188 8.8625 11.6912 8.8625 11.0375C8.8625 10.3839 9.39012 9.85629 10.0438 9.85629C10.6974 9.85629 11.225 10.3839 11.225 11.0375C11.225 11.6912 10.6974 12.2188 10.0438 12.2188ZM11.225 7.49378H1.77497V3.55625H11.225V7.49378Z" fill="white"/>
</svg>
