<svg width="15" height="19" viewBox="0 0 15 19" fill="none" xmlns="http://www.w3.org/2000/svg">
<path d="M1.66749 18.3795H12.7841C13.7036 18.3795 14.4516 17.6549 14.4516 16.7641V5.38462H10.5608C9.6413 5.38462 8.8933 4.65999 8.8933 3.76923V0H1.66749C0.748001 0 0 0.724626 0 1.61538V16.7641C0 17.6549 0.748001 18.3795 1.66749 18.3795ZM3.89082 7.57436H10.5608C10.868 7.57436 11.1166 7.8152 11.1166 8.11282C11.1166 8.41045 10.868 8.65128 10.5608 8.65128H3.89082C3.58359 8.65128 3.33499 8.41045 3.33499 8.11282C3.33499 7.8152 3.58359 7.57436 3.89082 7.57436ZM3.89082 9.72821H10.5608C10.868 9.72821 11.1166 9.96904 11.1166 10.2667C11.1166 10.5643 10.868 10.8051 10.5608 10.8051H3.89082C3.58359 10.8051 3.33499 10.5643 3.33499 10.2667C3.33499 9.96904 3.58359 9.72821 3.89082 9.72821ZM3.89082 11.8821H10.5608C10.868 11.8821 11.1166 12.1229 11.1166 12.4205C11.1166 12.7181 10.868 12.959 10.5608 12.959H3.89082C3.58359 12.959 3.33499 12.7181 3.33499 12.4205C3.33499 12.1229 3.58359 11.8821 3.89082 11.8821ZM3.89082 14.0359H8.33747C8.6447 14.0359 8.8933 14.2767 8.8933 14.5744C8.8933 14.872 8.6447 15.1128 8.33747 15.1128H3.89082C3.58359 15.1128 3.33499 14.872 3.33499 14.5744C3.33499 14.2767 3.58359 14.0359 3.89082 14.0359Z" fill="#1B1B29"/>
<path d="M10.5612 4.3086H14.1263L10.0054 0.316406V3.77013C10.0054 4.06722 10.2545 4.3086 10.5612 4.3086Z" fill="black"/>
</svg>
