<svg width="41" height="32" viewBox="0 0 41 32" fill="none" xmlns="http://www.w3.org/2000/svg">
<path fill-rule="evenodd" clip-rule="evenodd" d="M27.7302 16.8077C27.7169 16.7905 17.4913 3.62763 17.4778 3.61032C14.3005 -0.479596 8.42513 -1.20245 4.35472 1.99578C0.284387 5.19401 -0.439492 11.1023 2.7378 15.1923C2.75106 15.2094 12.9767 28.3723 12.9902 28.3896C16.1674 32.4796 22.0428 33.2025 26.1132 30.0042C30.1836 26.8059 30.9075 20.8976 27.7302 16.8077Z" fill="white"/>
<path fill-rule="evenodd" clip-rule="evenodd" d="M36.7798 1.99582C32.7094 -1.20243 26.8341 -0.479658 23.6567 3.61035C23.6449 3.6255 13.4159 16.7926 13.4043 16.8077C10.2269 20.8976 10.951 26.8059 15.0213 30.0042C19.0917 33.2025 24.9671 32.4796 28.1445 28.3896C28.1561 28.3746 38.3851 15.2074 38.3967 15.1923C41.574 11.1023 40.8501 5.19396 36.7798 1.99582Z" fill="white"/>
</svg>
