<svg width="18" height="18" viewBox="0 0 18 18" fill="none" xmlns="http://www.w3.org/2000/svg">
<g clip-path="url(#clip0)">
<path d="M17.3761 5.71047C17.3354 4.78822 17.1863 4.15418 16.9726 3.60477C16.7522 3.02159 16.4132 2.49948 15.9689 2.06544C15.5349 1.62464 15.0093 1.28212 14.4329 1.06517C13.8803 0.851528 13.2496 0.702389 12.3273 0.661727C11.3982 0.617621 11.1032 0.607422 8.74667 0.607422C6.39011 0.607422 6.09515 0.617621 5.16945 0.658283C4.2472 0.698945 3.61316 0.848217 3.06389 1.06173C2.48058 1.28212 1.95846 1.6212 1.52442 2.06544C1.08362 2.49948 0.74124 3.02504 0.524154 3.60146C0.310512 4.15418 0.161373 4.78477 0.120711 5.70703C0.0766049 6.63616 0.0664062 6.93113 0.0664062 9.28769C0.0664062 11.6442 0.0766049 11.9392 0.117267 12.8649C0.157929 13.7872 0.307201 14.4212 0.520843 14.9706C0.74124 15.5538 1.08362 16.0759 1.52442 16.5099C1.95846 16.9507 2.48402 17.2933 3.06044 17.5102C3.61316 17.7238 4.24376 17.873 5.16614 17.9137C6.0917 17.9544 6.3868 17.9645 8.74336 17.9645C11.0999 17.9645 11.3949 17.9544 12.3206 17.9137C13.2428 17.873 13.8769 17.7238 14.4261 17.5102C15.5926 17.0592 16.5149 16.137 16.9659 14.9706C17.1794 14.4179 17.3286 13.7872 17.3693 12.8649C17.41 11.9392 17.4202 11.6442 17.4202 9.28769C17.4202 6.93113 17.4167 6.63616 17.3761 5.71047ZM15.813 12.7971C15.7757 13.6448 15.6333 14.1025 15.5146 14.4077C15.223 15.1638 14.6228 15.764 13.8667 16.0556C13.5615 16.1743 13.1004 16.3167 12.2561 16.3539C11.3406 16.3947 11.066 16.4048 8.75011 16.4048C6.43422 16.4048 6.1562 16.3947 5.24402 16.3539C4.39634 16.3167 3.93859 16.1743 3.63342 16.0556C3.25713 15.9166 2.91462 15.6962 2.6366 15.408C2.34839 15.1265 2.12799 14.7874 1.98892 14.4111C1.87025 14.106 1.72786 13.6448 1.69064 12.8005C1.64985 11.885 1.63978 11.6103 1.63978 9.29444C1.63978 6.97855 1.64985 6.70054 1.69064 5.78848C1.72786 4.9408 1.87025 4.48305 1.98892 4.17789C2.12799 3.80146 2.34839 3.45908 2.64005 3.18093C2.92137 2.89272 3.26044 2.67232 3.63687 2.53338C3.94203 2.41471 4.40323 2.27232 5.24746 2.23497C6.16296 2.19431 6.43766 2.18411 8.75342 2.18411C11.0728 2.18411 11.3473 2.19431 12.2595 2.23497C13.1072 2.27232 13.5649 2.41471 13.8701 2.53338C14.2464 2.67232 14.5889 2.89272 14.8669 3.18093C15.1551 3.46239 15.3755 3.80146 15.5146 4.17789C15.6333 4.48305 15.7757 4.94411 15.813 5.78848C15.8537 6.70398 15.8639 6.97855 15.8639 9.29444C15.8639 11.6103 15.8537 11.8816 15.813 12.7971Z" fill="white"/>
<path d="M8.74689 4.82812C6.2853 4.82812 4.28809 6.82521 4.28809 9.28693C4.28809 11.7487 6.2853 13.7457 8.74689 13.7457C11.2086 13.7457 13.2057 11.7487 13.2057 9.28693C13.2057 6.82521 11.2086 4.82812 8.74689 4.82812ZM8.74689 12.1793C7.14994 12.1793 5.85458 10.884 5.85458 9.28693C5.85458 7.68985 7.14994 6.39461 8.74689 6.39461C10.344 6.39461 11.6392 7.68985 11.6392 9.28693C11.6392 10.884 10.344 12.1793 8.74689 12.1793Z" fill="white"/>
<path d="M14.4238 4.65226C14.4238 5.22709 13.9577 5.69319 13.3827 5.69319C12.8079 5.69319 12.3418 5.22709 12.3418 4.65226C12.3418 4.07729 12.8079 3.61133 13.3827 3.61133C13.9577 3.61133 14.4238 4.07729 14.4238 4.65226Z" fill="white"/>
</g>
<defs>
<clipPath id="clip0">
<rect width="17.3571" height="17.3571" fill="white" transform="translate(0.0361328 0.607422)"/>
</clipPath>
</defs>
</svg>
