<svg width="28" height="28" viewBox="0 0 28 28" fill="none" xmlns="http://www.w3.org/2000/svg">
<g clip-path="url(#clip0)">
<path d="M27.047 8.56425C26.9838 7.12977 26.7518 6.14359 26.4195 5.28904C26.0767 4.38196 25.5493 3.56986 24.8583 2.89475C24.1832 2.20914 23.3658 1.67639 22.4692 1.33894C21.6097 1.00664 20.6287 0.774665 19.1942 0.711419C17.749 0.642816 17.2902 0.626953 13.6248 0.626953C9.95945 0.626953 9.50065 0.642816 8.06082 0.706062C6.62635 0.769309 5.64017 1.00149 4.78583 1.33358C3.87854 1.67639 3.06644 2.20378 2.39133 2.89475C1.70572 3.56986 1.17317 4.38732 0.835518 5.28389C0.503218 6.14359 0.271247 7.12442 0.208001 8.55889C0.139398 10.0041 0.123535 10.4629 0.123535 14.1283C0.123535 17.7937 0.139398 18.2524 0.202644 19.6923C0.265891 21.1268 0.498068 22.1129 0.830368 22.9675C1.17317 23.8746 1.70572 24.6867 2.39133 25.3618C3.06644 26.0474 3.8839 26.5801 4.78047 26.9176C5.64017 27.2499 6.621 27.4819 8.05567 27.5451C9.4953 27.6086 9.9543 27.6242 13.6197 27.6242C17.2851 27.6242 17.7439 27.6086 19.1837 27.5451C20.6182 27.4819 21.6044 27.2499 22.4587 26.9176C24.2731 26.2161 25.7075 24.7816 26.409 22.9675C26.7411 22.1078 26.9733 21.1268 27.0365 19.6923C27.0998 18.2524 27.1156 17.7937 27.1156 14.1283C27.1156 10.4629 27.1103 10.0041 27.047 8.56425ZM24.6159 19.5868C24.5578 20.9053 24.3363 21.6173 24.1517 22.0919C23.6981 23.2681 22.7646 24.2015 21.5885 24.6551C21.1138 24.8397 20.3967 25.0612 19.0834 25.1191C17.6594 25.1825 17.2323 25.1982 13.6302 25.1982C10.028 25.1982 9.59563 25.1825 8.17681 25.1191C6.85832 25.0612 6.14634 24.8397 5.67169 24.6551C5.0864 24.4388 4.55365 24.096 4.12123 23.6477C3.67294 23.21 3.33014 22.6826 3.11382 22.0973C2.92923 21.6226 2.70777 20.9053 2.64988 19.5922C2.58643 18.1682 2.57077 17.7409 2.57077 14.1388C2.57077 10.5366 2.58643 10.1042 2.64988 8.68559C2.70777 7.3671 2.92923 6.65512 3.11382 6.18046C3.33014 5.59497 3.67294 5.06243 4.12658 4.6298C4.56416 4.18151 5.09155 3.83871 5.67704 3.6226C6.1517 3.43801 6.86904 3.21654 8.18217 3.15845C9.60613 3.0952 10.0334 3.07934 13.6353 3.07934C17.2428 3.07934 17.6699 3.0952 19.0887 3.15845C20.4072 3.21654 21.1192 3.43801 21.5939 3.6226C22.1791 3.83871 22.7119 4.18151 23.1443 4.6298C23.5926 5.06758 23.9354 5.59497 24.1517 6.18046C24.3363 6.65512 24.5578 7.37225 24.6159 8.68559C24.6791 10.1096 24.695 10.5366 24.695 14.1388C24.695 17.7409 24.6791 18.1628 24.6159 19.5868Z" fill="#1B1B29"/>
<path d="M13.6252 7.19336C9.79642 7.19336 6.68994 10.2996 6.68994 14.1286C6.68994 17.9576 9.79642 21.0638 13.6252 21.0638C17.4542 21.0638 20.5604 17.9576 20.5604 14.1286C20.5604 10.2996 17.4542 7.19336 13.6252 7.19336ZM13.6252 18.6273C11.1413 18.6273 9.12646 16.6127 9.12646 14.1286C9.12646 11.6445 11.1413 9.62988 13.6252 9.62988C16.1093 9.62988 18.1239 11.6445 18.1239 14.1286C18.1239 16.6127 16.1093 18.6273 13.6252 18.6273Z" fill="#1B1B29"/>
<path d="M22.4549 6.91789C22.4549 7.81199 21.7299 8.53696 20.8356 8.53696C19.9415 8.53696 19.2166 7.81199 19.2166 6.91789C19.2166 6.02359 19.9415 5.29883 20.8356 5.29883C21.7299 5.29883 22.4549 6.02359 22.4549 6.91789Z" fill="#1B1B29"/>
</g>
<defs>
<clipPath id="clip0">
<rect width="26.9973" height="26.9973" fill="white" transform="translate(0.0760498 0.626953)"/>
</clipPath>
</defs>
</svg>
