<svg width="61" height="61" viewBox="0 0 61 61" fill="none" xmlns="http://www.w3.org/2000/svg">
<path d="M61 30.5C61 47.3447 47.3447 61 30.5 61C13.6553 61 0 47.3447 0 30.5C0 13.6553 13.6553 0 30.5 0C47.3447 0 61 13.6553 61 30.5ZM3.58696 30.5C3.58696 45.3637 15.6363 57.413 30.5 57.413C45.3637 57.413 57.413 45.3637 57.413 30.5C57.413 15.6363 45.3637 3.58696 30.5 3.58696C15.6363 3.58696 3.58696 15.6363 3.58696 30.5Z" fill="#F1F4F8"/>
<path d="M30.5 1.78343C30.5 0.798471 31.2992 -0.00543786 32.2825 0.0521123C38.0453 0.389402 43.6077 2.35673 48.3133 5.74248C53.5026 9.47618 57.3874 14.7461 59.419 20.8075C61.4505 26.869 61.5261 33.4156 59.635 39.5224C57.7439 45.6291 53.9817 50.9873 48.8801 54.8397C43.7784 58.6922 37.5952 60.8443 31.204 60.9919C24.8129 61.1394 18.5369 59.275 13.2629 55.6621C7.98885 52.0492 3.98341 46.8704 1.81248 40.8574C-0.156134 35.4048 -0.525983 29.5163 0.726809 23.8812C0.940567 22.9197 1.9325 22.3711 2.87986 22.6407C3.82722 22.9102 4.37049 23.896 4.16419 24.8591C3.11158 29.7732 3.45272 34.8969 5.16738 39.6461C7.08443 44.9559 10.6215 49.5291 15.2787 52.7195C19.936 55.9099 25.478 57.5563 31.1217 57.426C36.7654 57.2956 42.2255 55.3953 46.7306 51.9933C51.2356 48.5913 54.5578 43.8598 56.2277 38.4672C57.8977 33.0746 57.831 27.2936 56.037 21.941C54.243 16.5884 50.8125 11.9348 46.2301 8.63778C42.1315 5.68879 37.2968 3.95838 32.2822 3.62589C31.2994 3.56072 30.5 2.7684 30.5 1.78343Z" fill="url(#paint0_linear)"/>
<defs>
<linearGradient id="paint0_linear" x1="30.5" y1="91.5" x2="91.5" y2="30.5" gradientUnits="userSpaceOnUse">
<stop stop-color="#0273FF"/>
<stop offset="1" stop-color="#013FFF"/>
</linearGradient>
</defs>
</svg>
