<svg width="43" height="36" viewBox="0 0 43 36" fill="none" xmlns="http://www.w3.org/2000/svg">
<path d="M5.20603 17.271C8.1257 21.0092 13.5285 21.6641 17.2667 18.7444C21.005 15.8248 21.6735 10.422 18.7539 6.68373C15.8342 2.94545 10.4314 2.29057 6.69315 5.21025C2.95487 8.12992 2.28635 13.5327 5.20603 17.271Z" fill="#028AFF"/>
<path d="M17.3389 18.835C21.0795 15.9127 21.7467 10.5161 18.8291 6.78137C15.9114 3.04663 10.5138 2.388 6.7731 5.31029C3.03242 8.23258 2.36522 13.6292 5.28287 17.3639C8.20052 21.0987 13.5982 21.7573 17.3389 18.835Z" fill="#0289FF"/>
<path d="M17.4189 18.9258C21.1596 16.0035 21.8268 10.6069 18.9092 6.87219C15.9915 3.13745 10.5939 2.47882 6.85318 5.40111C3.1125 8.3234 2.4453 13.72 5.36295 17.4547C8.2806 21.1895 13.6782 21.8481 17.4189 18.9258Z" fill="#0288FF"/>
<path d="M17.4911 19.0271C21.2322 16.1049 21.8998 10.7079 18.9822 6.97266C16.0645 3.23744 10.6665 2.57843 6.92533 5.50072C3.18417 8.42301 2.51659 13.82 5.43424 17.5552C8.35189 21.2904 13.7499 21.9494 17.4911 19.0271Z" fill="#0287FE"/>
<path d="M17.5604 19.1268C21.3016 16.2045 21.9692 10.8075 19.0515 7.07227C16.1339 3.33705 10.7358 2.67804 6.99467 5.60033C3.25351 8.52262 2.58593 13.9196 5.50358 17.6548C8.42123 21.39 13.8193 22.049 17.5604 19.1268Z" fill="#0286FE"/>
<path d="M17.6415 19.2176C21.3826 16.2953 22.0502 10.8983 19.1326 7.16309C16.2149 3.42787 10.8169 2.76886 7.07572 5.69115C3.33456 8.61344 2.66698 14.0104 5.58463 17.7456C8.50228 21.4809 13.9003 22.1399 17.6415 19.2176Z" fill="#0285FE"/>
<path d="M17.7108 19.3172C21.452 16.3949 22.1195 10.9979 19.2019 7.2627C16.2842 3.52748 10.8862 2.86847 7.14506 5.79076C3.4039 8.71305 2.73632 14.11 5.65397 17.8452C8.57162 21.5805 13.9696 22.2395 17.7108 19.3172Z" fill="#0284FE"/>
<path d="M17.7909 19.408C21.532 16.4857 22.1996 11.0887 19.282 7.35352C16.3643 3.6183 10.9663 2.95929 7.22514 5.88158C3.48398 8.80387 2.81639 14.2008 5.73405 17.9361C8.6517 21.6713 14.0497 22.3303 17.7909 19.408Z" fill="#0283FE"/>
<path d="M17.8602 19.5076C21.6014 16.5853 22.269 11.1883 19.3513 7.45313C16.4337 3.71791 11.0356 3.0589 7.29447 5.98119C3.55331 8.90348 2.88573 14.3005 5.80338 18.0357C8.72103 21.7709 14.1191 22.4299 17.8602 19.5076Z" fill="#0282FE"/>
<path d="M17.9403 19.5984C21.6815 16.6761 22.349 11.2792 19.4314 7.54395C16.5137 3.80873 11.1157 3.14972 7.37455 6.07201C3.63339 8.9943 2.96581 14.3913 5.88346 18.1265C8.80111 21.8617 14.1991 22.5207 17.9403 19.5984Z" fill="#0281FD"/>
<path d="M18.0096 19.699C21.7508 16.7767 22.4184 11.3798 19.5007 7.64453C16.5831 3.90932 11.185 3.25031 7.44388 6.1726C3.70273 9.09488 3.03514 14.4919 5.9528 18.2271C8.87045 21.9623 14.2685 22.6213 18.0096 19.699Z" fill="#0280FD"/>
<path d="M18.0897 19.7898C21.8309 16.8675 22.4985 11.4706 19.5808 7.73535C16.6631 4.00014 11.2651 3.34113 7.52396 6.26341C3.78281 9.1857 3.11522 14.5827 6.03287 18.3179C8.95052 22.0531 14.3486 22.7121 18.0897 19.7898Z" fill="#027FFD"/>
<path d="M18.16 19.8894C21.9012 16.9672 22.5688 11.5702 19.6511 7.83496C16.7335 4.09975 11.3354 3.44073 7.59428 6.36302C3.85312 9.28531 3.18554 14.6823 6.10319 18.4175C9.02084 22.1527 14.4189 22.8117 18.16 19.8894Z" fill="#027EFD"/>
<path d="M18.2401 19.9803C21.9813 17.058 22.6488 11.661 19.7312 7.92578C16.8135 4.19057 11.4155 3.53156 7.67435 6.45384C3.9332 9.37613 3.26561 14.7731 6.18326 18.5083C9.10091 22.2435 14.4989 22.9026 18.2401 19.9803Z" fill="#027DFD"/>
<path d="M18.3094 20.0799C22.0506 17.1576 22.7182 11.7606 19.8005 8.02539C16.8829 4.29017 11.4848 3.63117 7.74369 6.55345C4.00253 9.47574 3.33495 14.8727 6.2526 18.6079C9.17025 22.3432 14.5683 23.0022 18.3094 20.0799Z" fill="#027CFD"/>
<path d="M18.3895 20.1717C22.1307 17.2494 22.7983 11.8524 19.8806 8.11719C16.963 4.38197 11.5649 3.72296 7.82377 6.64525C4.08261 9.56754 3.41503 14.9645 6.33268 18.6997C9.25033 22.435 14.6484 23.094 18.3895 20.1717Z" fill="#027BFC"/>
<path d="M18.4589 20.2703C22.2 17.348 22.8676 11.951 19.9499 8.21582C17.0323 4.4806 11.6343 3.8216 7.8931 6.74388C4.15195 9.66617 3.48436 15.0631 6.40201 18.7984C9.31966 22.5336 14.7177 23.1926 18.4589 20.2703Z" fill="#027AFC"/>
<path d="M18.5389 20.3611C22.2801 17.4388 22.9477 12.0419 20.03 8.30664C17.1124 4.57142 11.7143 3.91242 7.97318 6.8347C4.23203 9.75699 3.56444 15.154 6.48209 18.8892C9.39974 22.6244 14.7978 23.2834 18.5389 20.3611Z" fill="#0279FC"/>
<path d="M18.6083 20.4607C22.3494 17.5384 23.017 12.1415 20.0994 8.40625C17.1817 4.67103 11.7837 4.01202 8.04252 6.93431C4.30136 9.8566 3.63378 15.2536 6.55143 18.9888C9.46908 22.724 14.8671 23.383 18.6083 20.4607Z" fill="#0278FC"/>
<path d="M18.6893 20.5525C22.4305 17.6302 23.0981 12.2333 20.1804 8.49805C17.2628 4.76283 11.8647 4.10382 8.12357 7.02611C4.38242 9.9484 3.71483 15.3454 6.63248 19.0806C9.55013 22.8158 14.9482 23.4748 18.6893 20.5525Z" fill="#0277FC"/>
<path d="M18.7587 20.6521C22.4998 17.7299 23.1674 12.3329 20.2497 8.59766C17.3321 4.86244 11.9341 4.20343 8.19291 7.12572C4.45175 10.048 3.78417 15.445 6.70182 19.1802C9.61947 22.9154 15.0175 23.5744 18.7587 20.6521Z" fill="#0276FC"/>
<path d="M18.8387 20.743C22.5799 17.8207 23.2475 12.4237 20.3298 8.68848C17.4122 4.95326 12.0141 4.29425 8.27299 7.21654C4.53183 10.1388 3.86425 15.5358 6.7819 19.271C9.69955 23.0062 15.0976 23.6653 18.8387 20.743Z" fill="#0275FB"/>
<path d="M18.9081 20.8426C22.6492 17.9203 23.3168 12.5233 20.3992 8.78809C17.4815 5.05287 12.0835 4.39386 8.34232 7.31615C4.60117 10.2384 3.93358 15.6354 6.85123 19.3706C9.76888 23.1059 15.1669 23.7649 18.9081 20.8426Z" fill="#0274FB"/>
<path d="M18.9881 20.9334C22.7293 18.0111 23.3969 12.6141 20.4792 8.87891C17.5616 5.14369 12.1636 4.48468 8.4224 7.40697C4.68124 10.3293 4.01366 15.7262 6.93131 19.4615C9.84896 23.1967 15.247 23.8557 18.9881 20.9334Z" fill="#0273FB"/>
<path d="M19.0585 21.033C22.7996 18.1107 23.4672 12.7137 20.5496 8.97852C17.6319 5.2433 12.2339 4.58429 8.49271 7.50658C4.75156 10.4289 4.08397 15.8258 7.00162 19.5611C9.91927 23.2963 15.3173 23.9553 19.0585 21.033Z" fill="#0272FB"/>
<path d="M19.1385 21.1238C22.8797 18.2015 23.5473 12.8046 20.6296 9.06934C17.712 5.33412 12.3139 4.67511 8.57279 7.5974C4.83164 10.5197 4.16405 15.9167 7.0817 19.6519C9.99935 23.3871 15.3974 24.0461 19.1385 21.1238Z" fill="#0271FB"/>
<path d="M19.2079 21.2234C22.949 18.3011 23.6166 12.9042 20.699 9.16895C17.7813 5.43373 12.3833 4.77472 8.64213 7.69701C4.90097 10.6193 4.23339 16.0163 7.15104 19.7515C10.0687 23.4867 15.4667 24.1457 19.2079 21.2234Z" fill="#0270FA"/>
<path d="M19.288 21.3152C23.0291 18.3929 23.6967 12.996 20.779 9.26074C17.8614 5.52553 12.4634 4.86652 8.72221 7.78881C4.98105 10.7111 4.31347 16.1081 7.23112 19.8433C10.1488 23.5785 15.5468 24.2375 19.288 21.3152Z" fill="#026FFA"/>
<path d="M19.3573 21.4139C23.0984 18.4916 23.766 13.0946 20.8484 9.35938C17.9307 5.62416 12.5327 4.96515 8.79154 7.88744C5.05039 10.8097 4.3828 16.2067 7.30045 19.9419C10.2181 23.6771 15.6161 24.3361 19.3573 21.4139Z" fill="#026EFA"/>
<path d="M19.4266 21.5135C23.1678 18.5912 23.8354 13.1942 20.9177 9.45899C18.0001 5.72377 12.602 5.06476 8.86088 7.98705C5.11972 10.9093 4.45214 16.3063 7.36979 20.0415C10.2874 23.7768 15.6855 24.4358 19.4266 21.5135Z" fill="#026DFA"/>
<path d="M19.5067 21.6053C23.2479 18.683 23.9154 13.286 20.9978 9.55078C18.0801 5.81557 12.6821 5.15656 8.94095 8.07885C5.1998 11.0011 4.53222 16.3981 7.44987 20.1333C10.3675 23.8685 15.7655 24.5276 19.5067 21.6053Z" fill="#026CFA"/>
<path d="M19.577 21.7049C23.3182 18.7826 23.9858 13.3856 21.0681 9.65039C18.1505 5.91517 12.7524 5.25617 9.01127 8.17845C5.27011 11.1007 4.60253 16.4977 7.52018 20.2329C10.4378 23.9682 15.8359 24.6272 19.577 21.7049Z" fill="#026BFA"/>
<path d="M19.6571 21.7957C23.3983 18.8734 24.0658 13.4764 21.1482 9.74121C18.2305 6.006 12.8325 5.34698 9.09135 8.26927C5.35019 11.1916 4.68261 16.5885 7.60026 20.3238C10.5179 24.059 15.9159 24.718 19.6571 21.7957Z" fill="#016AF9"/>
<path d="M19.7264 21.8953C23.4676 18.973 24.1352 13.576 21.2175 9.84082C18.2999 6.1056 12.9018 5.44659 9.16068 8.36888C5.41953 11.2912 4.75194 16.6881 7.66959 20.4234C10.5872 24.1586 15.9853 24.8176 19.7264 21.8953Z" fill="#0169F9"/>
<path d="M19.8065 21.9861C23.5477 19.0638 24.2152 13.6669 21.2976 9.93164C18.3799 6.19642 12.9819 5.53742 9.24076 8.4597C5.4996 11.382 4.83202 16.779 7.74967 20.5142C10.6673 24.2494 16.0654 24.9084 19.8065 21.9861Z" fill="#0168F9"/>
<path d="M19.8758 22.0857C23.617 19.1634 24.2846 13.7665 21.3669 10.0313C18.4493 6.29603 13.0513 5.63702 9.3101 8.55931C5.56894 11.4816 4.90136 16.8786 7.81901 20.6138C10.7367 24.349 16.1347 25.008 19.8758 22.0857Z" fill="#0167F9"/>
<path d="M19.9559 22.1766C23.6971 19.2543 24.3647 13.8573 21.447 10.1221C18.5294 6.38685 13.1313 5.72785 9.39017 8.65013C5.64902 11.5724 4.98143 16.9694 7.89908 20.7046C10.8167 24.4398 16.2148 25.0988 19.9559 22.1766Z" fill="#0166F9"/>
<path d="M20.0253 22.2762C23.7664 19.3539 24.434 13.9569 21.5163 10.2217C18.5987 6.48646 13.2007 5.82745 9.45951 8.74974C5.71835 11.672 5.05077 17.069 7.96842 20.8042C10.8861 24.5394 16.2841 25.1985 20.0253 22.2762Z" fill="#0165F9"/>
<path d="M20.1053 22.368C23.8465 19.4457 24.5141 14.0487 21.5964 10.3135C18.6788 6.57826 13.2807 5.91925 9.53959 8.84154C5.79843 11.7638 5.13085 17.1608 8.0485 20.896C10.9661 24.6312 16.3642 25.2903 20.1053 22.368Z" fill="#0164F8"/>
<path d="M20.1747 22.4666C23.9158 19.5443 24.5834 14.1473 21.6658 10.4121C18.7481 6.67689 13.3501 6.01788 9.60892 8.94017C5.86777 11.8625 5.20018 17.2594 8.11783 20.9947C11.0355 24.7299 16.4335 25.3889 20.1747 22.4666Z" fill="#0163F8"/>
<path d="M20.2557 22.5584C23.9969 19.6361 24.6645 14.2391 21.7468 10.5039C18.8292 6.76869 13.4311 6.10968 9.68998 9.03197C5.94882 11.9543 5.28124 17.3512 8.19889 21.0865C11.1165 24.8217 16.5146 25.4807 20.2557 22.5584Z" fill="#0162F8"/>
<path d="M20.3251 22.658C24.0662 19.7357 24.7338 14.3387 21.8162 10.6035C18.8985 6.8683 13.5005 6.20929 9.75931 9.13158C6.01816 12.0539 5.35057 17.4508 8.26823 21.1861C11.1859 24.9213 16.5839 25.5803 20.3251 22.658Z" fill="#0161F8"/>
<path d="M20.4051 22.7488C24.1463 19.8265 24.8139 14.4296 21.8962 10.6943C18.9786 6.95912 13.5806 6.30011 9.83939 9.2224C6.09824 12.1447 5.43065 17.5417 8.3483 21.2769C11.266 25.0121 16.664 25.6711 20.4051 22.7488Z" fill="#0160F8"/>
<path d="M20.4745 22.8484C24.2156 19.9261 24.8832 14.5292 21.9656 10.7939C19.0479 7.05873 13.6499 6.39972 9.90873 9.32201C6.16757 12.2443 5.49999 17.6413 8.41764 21.3765C11.3353 25.1117 16.7333 25.7707 20.4745 22.8484Z" fill="#015FF7"/>
<path d="M20.5555 22.9393C24.2967 20.017 24.9643 14.62 22.0466 10.8848C19.129 7.14955 13.7309 6.49054 9.98978 9.41283C6.24863 12.3351 5.58104 17.7321 8.49869 21.4673C11.4163 25.2025 16.8144 25.8615 20.5555 22.9393Z" fill="#015EF7"/>
<path d="M20.6249 23.0389C24.366 20.1166 25.0336 14.7196 22.116 10.9844C19.1983 7.24916 13.8003 6.59015 10.0591 9.51244C6.31796 12.4347 5.65038 17.8317 8.56803 21.5669C11.4857 25.3021 16.8837 25.9611 20.6249 23.0389Z" fill="#015DF7"/>
<path d="M20.7049 23.1297C24.4461 20.2074 25.1137 14.8104 22.196 11.0752C19.2784 7.33998 13.8804 6.68097 10.1392 9.60326C6.39804 12.5255 5.73046 17.9225 8.64811 21.6577C11.5658 25.393 16.9638 26.052 20.7049 23.1297Z" fill="#015CF7"/>
<path d="M20.7743 23.2293C24.5154 20.307 25.183 14.91 22.2654 11.1748C19.3477 7.43959 13.9497 6.78058 10.2085 9.70287C6.46738 12.6252 5.79979 18.0221 8.71744 21.7574C11.6351 25.4926 17.0331 26.1516 20.7743 23.2293Z" fill="#015BF7"/>
<path d="M20.8544 23.3201C24.5955 20.3978 25.2631 15.0008 22.3454 11.2656C19.4278 7.53041 14.0298 6.8714 10.2886 9.79369C6.54746 12.716 5.87987 18.113 8.79752 21.8482C11.7152 25.5834 17.1132 26.2424 20.8544 23.3201Z" fill="#015AF7"/>
<path d="M20.9237 23.4197C24.6649 20.4974 25.3324 15.1005 22.4148 11.3652C19.4971 7.63002 14.0991 6.97101 10.3579 9.8933C6.61679 12.8156 5.94921 18.2126 8.86686 21.9478C11.7845 25.683 17.1825 26.342 20.9237 23.4197Z" fill="#0159F6"/>
<path d="M21.0038 23.5115C24.7449 20.5892 25.4125 15.1923 22.4949 11.457C19.5772 7.72182 14.1792 7.06281 10.438 9.9851C6.69687 12.9074 6.02929 18.3044 8.94694 22.0396C11.8646 25.7748 17.2626 26.4338 21.0038 23.5115Z" fill="#0158F6"/>
<path d="M21.0714 23.6139C24.8125 20.6921 25.4805 15.2955 22.5633 11.5603C19.6462 7.8251 14.2485 7.1657 10.5074 10.0875C6.7662 13.0093 6.09824 18.4059 9.01541 22.1411C11.9326 25.8764 17.3302 26.5358 21.0714 23.6139Z" fill="#0157F6"/>
<path d="M21.1515 23.7057C24.8926 20.7839 25.5606 15.3873 22.6434 11.6521C19.7262 7.91689 14.3286 7.2575 10.5874 10.1793C6.84628 13.1011 6.17832 18.4977 9.09549 22.2329C12.0127 25.9682 17.4103 26.6275 21.1515 23.7057Z" fill="#0156F6"/>
<path d="M21.2208 23.8044C24.962 20.8826 25.6299 15.486 22.7128 11.7507C19.7956 8.01553 14.3979 7.35613 10.6568 10.2779C6.91562 13.1998 6.24765 18.5964 9.16483 22.3316C12.082 26.0668 17.4797 26.7262 21.2208 23.8044Z" fill="#0155F6"/>
<path d="M21.2901 23.904C25.0313 20.9822 25.6993 15.5856 22.7821 11.8504C19.8649 8.11514 14.4673 7.45574 10.7261 10.3776C6.98496 13.2994 6.31699 18.696 9.23416 22.4312C12.1513 26.1664 17.549 26.8258 21.2901 23.904Z" fill="#0154F6"/>
<path d="M21.3712 23.9948C25.1124 21.073 25.7803 15.6764 22.8631 11.9412C19.946 8.20596 14.5483 7.54656 10.8072 10.4684C7.06601 13.3902 6.39804 18.7868 9.31522 22.522C12.2324 26.2572 17.63 26.9166 21.3712 23.9948Z" fill="#0153F5"/>
<path d="M21.4493 24.1061C25.1905 21.1843 25.8584 15.7877 22.9413 12.0525C20.0241 8.31728 14.6264 7.65789 10.8853 10.5797C7.14414 13.5015 6.47617 18.8981 9.39334 22.6333C12.3105 26.3685 17.7082 27.0279 21.4493 24.1061Z" fill="#0152F5"/>
<path d="M21.5284 24.1969C25.2696 21.2751 25.9375 15.8785 23.0204 12.1433C20.1032 8.40811 14.7055 7.74871 10.9644 10.6705C7.22324 13.5923 6.55527 18.9889 9.47244 22.7241C12.3896 26.4594 17.7873 27.1188 21.5284 24.1969Z" fill="#0151F5"/>
<path d="M21.5987 24.2966C25.3399 21.3747 26.0079 15.9782 23.0907 12.2429C20.1735 8.50771 14.7759 7.84832 11.0347 10.7701C7.29355 13.6919 6.62558 19.0885 9.54276 22.8238C12.4599 26.559 17.8576 27.2184 21.5987 24.2966Z" fill="#0150F5"/>
<path d="M21.6788 24.3874C25.42 21.4656 26.0879 16.069 23.1708 12.3338C20.2536 8.59853 14.8559 7.93914 11.1148 10.861C7.37363 13.7828 6.70566 19.1794 9.62284 22.9146C12.54 26.6498 17.9377 27.3092 21.6788 24.3874Z" fill="#014FF5"/>
<path d="M21.7481 24.487C25.4893 21.5652 26.1573 16.1686 23.2401 12.4334C20.3229 8.69814 14.9253 8.03875 11.1841 10.9606C7.44296 13.8824 6.77499 19.279 9.69217 23.0142C12.6093 26.7494 18.007 27.4088 21.7481 24.487Z" fill="#014EF5"/>
<path d="M21.8282 24.5778C25.5694 21.656 26.2374 16.2594 23.3202 12.5242C20.403 8.78896 15.0054 8.12957 11.2642 11.0514C7.52304 13.9732 6.85507 19.3698 9.77225 23.105C12.6894 26.8402 18.0871 27.4996 21.8282 24.5778Z" fill="#014DF4"/>
<path d="M21.8976 24.6774C25.6387 21.7556 26.3067 16.359 23.3895 12.6238C20.4723 8.88857 15.0747 8.22918 11.3335 11.151C7.59238 14.0728 6.92441 19.4694 9.84159 23.2046C12.7588 26.9398 18.1564 27.5992 21.8976 24.6774Z" fill="#014CF4"/>
<path d="M21.9776 24.7692C25.7188 21.8474 26.3868 16.4508 23.4696 12.7156C20.5524 8.98037 15.1548 8.32098 11.4136 11.2428C7.67246 14.1646 7.00449 19.5612 9.92166 23.2964C12.8388 27.0316 18.2365 27.691 21.9776 24.7692Z" fill="#014CF4"/>
<path d="M22.047 24.8678C25.7881 21.946 26.4561 16.5494 23.5389 12.8142C20.6217 9.079 15.2241 8.41961 11.4829 11.3414C7.74179 14.2632 7.07382 19.6598 9.991 23.395C12.9082 27.1303 18.3058 27.7897 22.047 24.8678Z" fill="#014BF4"/>
<path d="M22.128 24.9587C25.8692 22.0369 26.5372 16.6403 23.62 12.905C20.7028 9.16982 15.3052 8.51043 11.564 11.4322C7.82285 14.3541 7.15488 19.7506 10.0721 23.4859C12.9892 27.2211 18.3869 27.8805 22.128 24.9587Z" fill="#014AF4"/>
<path d="M22.1974 25.0583C25.9385 22.1365 26.6065 16.7399 23.6893 13.0047C20.7721 9.26943 15.3745 8.61004 11.6333 11.5319C7.89218 14.4537 7.22421 19.8503 10.1414 23.5855C13.0586 27.3207 18.4562 27.9801 22.1974 25.0583Z" fill="#0149F3"/>
<path d="M22.2774 25.1501C26.0186 22.2283 26.6866 16.8317 23.7694 13.0964C20.8522 9.36123 15.4546 8.70184 11.7134 11.6236C7.97226 14.5455 7.30429 19.9421 10.2215 23.6773C13.1386 27.4125 18.5363 28.0719 22.2774 25.1501Z" fill="#0148F3"/>
<path d="M22.3468 25.2487C26.0879 22.3269 26.7559 16.9303 23.8387 13.1951C20.9216 9.45986 15.5239 8.80047 11.7828 11.7223C8.0416 14.6441 7.37363 20.0407 10.2908 23.7759C13.208 27.5111 18.6056 28.1705 22.3468 25.2487Z" fill="#0147F3"/>
<path d="M22.4269 25.3405C26.168 22.4187 26.836 17.0221 23.9188 13.2869C21.0016 9.55166 15.604 8.89227 11.8628 11.8141C8.12167 14.7359 7.45371 20.1325 10.3709 23.8677C13.2881 27.6029 18.6857 28.2623 22.4269 25.3405Z" fill="#0146F3"/>
<path d="M22.4962 25.4401C26.2374 22.5183 26.9053 17.1217 23.9881 13.3865C21.071 9.65127 15.6733 8.99187 11.9322 11.9137C8.19101 14.8355 7.52304 20.2321 10.4402 23.9673C13.3574 27.7025 18.755 28.3619 22.4962 25.4401Z" fill="#0145F3"/>
<path d="M22.5773 25.5309C26.3184 22.6091 26.9864 17.2125 24.0692 13.4773C21.152 9.74209 15.7544 9.0827 12.0132 12.0045C8.27206 14.9263 7.6041 20.3229 10.5213 24.0581C13.4384 27.7934 18.8361 28.4527 22.5773 25.5309Z" fill="#0144F3"/>
<path d="M22.6466 25.6305C26.3877 22.7087 27.0557 17.3121 24.1385 13.5769C21.2214 9.8417 15.8237 9.18231 12.0826 12.1041C8.3414 15.0259 7.67343 20.4225 10.5906 24.1577C13.5078 27.893 18.9054 28.5524 22.6466 25.6305Z" fill="#0143F2"/>
<path d="M22.7267 25.7214C26.4678 22.7995 27.1358 17.403 24.2186 13.6677C21.3014 9.93252 15.9038 9.27312 12.1626 12.1949C8.42148 15.1168 7.75351 20.5133 10.6707 24.2486C13.5879 27.9838 18.9855 28.6432 22.7267 25.7214Z" fill="#0142F2"/>
<path d="M22.796 25.8219C26.5372 22.9001 27.2051 17.5035 24.2879 13.7683C21.3708 10.0331 15.9731 9.37371 12.232 12.2955C8.49082 15.2173 7.82285 20.6139 10.74 24.3491C13.6572 28.0844 19.0548 28.7438 22.796 25.8219Z" fill="#0141F2"/>
<path d="M22.8761 25.9118C26.6172 22.99 27.2852 17.5934 24.368 13.8582C21.4509 10.1229 16.0532 9.46355 12.312 12.3854C8.57089 15.3072 7.90292 20.7038 10.8201 24.439C13.7373 28.1742 19.1349 28.8336 22.8761 25.9118Z" fill="#0140F2"/>
<path d="M22.9454 26.0114C26.6866 23.0896 27.3545 17.693 24.4374 13.9578C21.5202 10.2226 16.1225 9.56316 12.3814 12.485C8.64023 15.4068 7.97226 20.8034 10.8894 24.5386C13.8066 28.2738 19.2043 28.9332 22.9454 26.0114Z" fill="#013FF2"/>
<path d="M23.0255 26.1032C26.7667 23.1814 27.4346 17.7848 24.5174 14.0496C21.6003 10.3144 16.2026 9.65496 12.4615 12.5768C8.72031 15.4986 8.05234 20.8952 10.9695 24.6304C13.8867 28.3656 19.2843 29.025 23.0255 26.1032Z" fill="#013EF2"/>
<path d="M23.0958 26.2028C26.837 23.281 27.5049 17.8844 24.5878 14.1492C21.6706 10.414 16.2729 9.75457 12.5318 12.6764C8.79062 15.5982 8.12265 20.9948 11.0398 24.73C13.957 28.4652 19.3546 29.1246 23.0958 26.2028Z" fill="#013DF1"/>
<path d="M23.1651 26.3024C26.9063 23.3806 27.5743 17.984 24.6571 14.2488C21.7399 10.5136 16.3423 9.85418 12.6011 12.776C8.85996 15.6978 8.19199 21.0944 11.1092 24.8296C14.0263 28.5648 19.424 29.2242 23.1651 26.3024Z" fill="#013CF1"/>
<path d="M23.2452 26.3932C26.9864 23.4714 27.6543 18.0748 24.7372 14.3396C21.82 10.6044 16.4223 9.945 12.6812 12.8668C8.94003 15.7886 8.27207 21.1852 11.1892 24.9204C14.1064 28.6557 19.5041 29.315 23.2452 26.3932Z" fill="#013BF1"/>
<path d="M23.3146 26.4928C27.0557 23.571 27.7237 18.1744 24.8065 14.4392C21.8893 10.704 16.4917 10.0446 12.7505 12.9664C9.00937 15.8882 8.3414 21.2848 11.2586 25.02C14.1758 28.7553 19.5734 29.4147 23.3146 26.4928Z" fill="#013AF1"/>
<path d="M23.3946 26.5837C27.1358 23.6619 27.8038 18.2653 24.8866 14.53C21.9694 10.7948 16.5718 10.1354 12.8306 13.0572C9.08945 15.9791 8.42148 21.3756 11.3387 25.1109C14.2558 28.8461 19.6535 29.5055 23.3946 26.5837Z" fill="#0139F1"/>
<path d="M23.464 26.6833C27.2051 23.7615 27.8731 18.3649 24.9559 14.6297C22.0387 10.8944 16.6411 10.235 12.8999 13.1569C9.15878 16.0787 8.49082 21.4753 11.408 25.2105C14.3252 28.9457 19.7228 29.6051 23.464 26.6833Z" fill="#0138F1"/>
<path d="M23.544 26.7741C27.2852 23.8523 27.9532 18.4557 25.036 14.7205C22.1188 10.9853 16.7212 10.3259 12.98 13.2477C9.23886 16.1695 8.57089 21.5661 11.4881 25.3013C14.4052 29.0365 19.8029 29.6959 23.544 26.7741Z" fill="#0137F0"/>
<path d="M23.6144 26.8737C27.3555 23.9519 28.0235 18.5553 25.1063 14.8201C22.1891 11.0849 16.7915 10.4255 13.0503 13.3473C9.30917 16.2691 8.64121 21.6657 11.5584 25.4009C14.4756 29.1361 19.8732 29.7955 23.6144 26.8737Z" fill="#0136F0"/>
<path d="M23.6935 26.9645C27.4346 24.0427 28.1026 18.6461 25.1854 14.9109C22.2682 11.1757 16.8706 10.5163 13.1294 13.4381C9.38828 16.3599 8.72031 21.7565 11.6375 25.4917C14.5547 29.2269 19.9523 29.8863 23.6935 26.9645Z" fill="#0135F0"/>
<path d="M23.7638 27.0641C27.5049 24.1423 28.1729 18.7457 25.2557 15.0105C22.3385 11.2753 16.9409 10.6159 13.1997 13.5377C9.45859 16.4595 8.79062 21.8561 11.7078 25.5913C14.625 29.3266 20.0226 29.9859 23.7638 27.0641Z" fill="#0134F0"/>
<path d="M23.8439 27.155C27.585 24.2331 28.253 18.8365 25.3358 15.1013C22.4186 11.3661 17.021 10.7067 13.2798 13.6285C9.53867 16.5503 8.8707 21.9469 11.7879 25.6822C14.7051 29.4174 20.1027 30.0768 23.8439 27.155Z" fill="#0133F0"/>
<path d="M23.9132 27.2546C27.6543 24.3328 28.3223 18.9362 25.4051 15.2009C22.488 11.4657 17.0903 10.8063 13.3492 13.7281C9.608 16.65 8.94003 22.0465 11.8572 25.7818C14.7744 29.517 20.172 30.1764 23.9132 27.2546Z" fill="#0132EF"/>
<path d="M23.9933 27.3464C27.7344 24.4245 28.4024 19.028 25.4852 15.2927C22.568 11.5575 17.1704 10.8981 13.4292 13.8199C9.68808 16.7418 9.02011 22.1383 11.9373 25.8736C14.8545 29.6088 20.2521 30.2682 23.9933 27.3464Z" fill="#0131EF"/>
<path d="M24.0626 27.445C27.8038 24.5232 28.4717 19.1266 25.5546 15.3914C22.6374 11.6562 17.2397 10.9968 13.4986 13.9186C9.75742 16.8404 9.08945 22.237 12.0066 25.9722C14.9238 29.7074 20.3214 30.3668 24.0626 27.445Z" fill="#0130EF"/>
<path d="M24.1437 27.5368C27.8848 24.615 28.5528 19.2184 25.6356 15.4832C22.7184 11.7479 17.3208 11.0886 13.5796 14.0104C9.83847 16.9322 9.1705 22.3288 12.0877 26.064C15.0049 29.7992 20.4025 30.4586 24.1437 27.5368Z" fill="#012FEF"/>
<path d="M24.213 27.6364C27.9542 24.7146 28.6221 19.318 25.7049 15.5828C22.7878 11.8476 17.3901 11.1882 13.649 14.11C9.90781 17.0318 9.23984 22.4284 12.157 26.1636C15.0742 29.8988 20.4718 30.5582 24.213 27.6364Z" fill="#012EEF"/>
<path d="M24.2931 27.7272C28.0342 24.8054 28.7022 19.4088 25.785 15.6736C22.8678 11.9384 17.4702 11.279 13.729 14.2008C9.98788 17.1226 9.31992 22.5192 12.2371 26.2544C15.1543 29.9896 20.5519 30.649 24.2931 27.7272Z" fill="#012DEF"/>
<path d="M24.3624 27.8268C28.1036 24.905 28.7715 19.5084 25.8544 15.7732C22.9372 12.038 17.5395 11.3786 13.7984 14.3004C10.0572 17.2222 9.38925 22.6188 12.3064 26.354C15.2236 30.0893 20.6213 30.7486 24.3624 27.8268Z" fill="#002CEE"/>
<path d="M24.4425 27.9177C28.1836 24.9958 28.8516 19.5992 25.9344 15.864C23.0173 12.1288 17.6196 11.4694 13.8785 14.3912C10.1373 17.313 9.46933 22.7096 12.3865 26.4449C15.3037 30.1801 20.7013 30.8395 24.4425 27.9177Z" fill="#002BEE"/>
<path d="M24.5118 28.0173C28.253 25.0954 28.9209 19.6989 26.0038 15.9636C23.0866 12.2284 17.6889 11.569 13.9478 14.4908C10.2066 17.4127 9.53867 22.8092 12.4558 26.5445C15.373 30.2797 20.7707 30.9391 24.5118 28.0173Z" fill="#002AEE"/>
<path d="M24.5929 28.1091C28.334 25.1872 29.002 19.7907 26.0848 16.0554C23.1676 12.3202 17.77 11.6608 14.0288 14.5826C10.2877 17.5044 9.61972 22.901 12.5369 26.6363C15.4541 30.3715 20.8517 31.0309 24.5929 28.1091Z" fill="#0029EE"/>
<path d="M24.6622 28.2087C28.4034 25.2869 29.0713 19.8903 26.1542 16.155C23.237 12.4198 17.8393 11.7604 14.0982 14.6822C10.357 17.6041 9.68906 23.0006 12.6062 26.7359C15.5234 30.4711 20.9211 31.1305 24.6622 28.2087Z" fill="#0028EE"/>
<path d="M24.7423 28.2995C28.4834 25.3777 29.1514 19.9811 26.2342 16.2459C23.3171 12.5106 17.9194 11.8512 14.1783 14.7731C10.4371 17.6949 9.76914 23.0915 12.6863 26.8267C15.6035 30.5619 21.0011 31.2213 24.7423 28.2995Z" fill="#0027EE"/>
<path d="M24.8116 28.3981C28.5528 25.4763 29.2208 20.0797 26.3036 16.3445C23.3864 12.6093 17.9888 11.9499 14.2476 14.8717C10.5064 17.7935 9.83847 23.1901 12.7556 26.9253C15.6728 30.6605 21.0705 31.3199 24.8116 28.3981Z" fill="#0026ED"/>
<path d="M24.881 28.4977C28.6221 25.5759 29.2901 20.1793 26.3729 16.4441C23.4557 12.7089 18.0581 12.0495 14.3169 14.9713C10.5758 17.8931 9.90781 23.2897 12.825 27.0249C15.7422 30.7601 21.1398 31.4195 24.881 28.4977Z" fill="#0025ED"/>
<path d="M24.961 28.5895C28.7022 25.6677 29.3702 20.2711 26.453 16.5359C23.5358 12.8007 18.1382 12.1413 14.397 15.0631C10.6559 17.9849 9.98788 23.3815 12.9051 27.1167C15.8222 30.8519 21.2199 31.5113 24.961 28.5895Z" fill="#0024ED"/>
<path d="M25.0342 28.6909C28.7758 25.769 29.4441 20.3721 26.527 16.6364C23.6098 12.9007 18.2118 12.2409 14.4701 15.1627C10.7285 18.0845 10.0602 23.4815 12.9773 27.2172C15.8945 30.9529 21.2925 31.6127 25.0342 28.6909Z" fill="#0023ED"/>
<path d="M25.1142 28.7826C28.8559 25.8608 29.5242 20.4639 26.6071 16.7282C23.6899 12.9925 18.2918 12.3327 14.5502 15.2545C10.8086 18.1763 10.1402 23.5733 13.0574 27.309C15.9746 31.0447 21.3726 31.7045 25.1142 28.7826Z" fill="#0022ED"/>
<path d="M25.1836 28.8823C28.9252 25.9604 29.5936 20.5635 26.6764 16.8278C23.7592 13.0921 18.3612 12.4323 14.6195 15.3541C10.8779 18.2759 10.2096 23.6729 13.1267 27.4086C16.0439 31.1443 21.4419 31.8041 25.1836 28.8823Z" fill="#0021EC"/>
<path d="M25.2646 28.9731C29.0063 26.0513 29.6746 20.6543 26.7574 16.9186C23.8403 13.1829 18.4422 12.5231 14.7006 15.4449C10.959 18.3668 10.2906 23.7637 13.2078 27.4994C16.125 31.2351 21.523 31.8949 25.2646 28.9731Z" fill="#0020EC"/>
<path d="M25.334 29.0727C29.0756 26.1509 29.744 20.7539 26.8268 17.0182C23.9096 13.2825 18.5116 12.6227 14.7699 15.5445C11.0283 18.4664 10.36 23.8633 13.2771 27.599C16.1943 31.3347 21.5923 31.9945 25.334 29.0727Z" fill="#001FEC"/>
<path d="M25.414 29.1635C29.1557 26.2417 29.824 20.8447 26.9069 17.109C23.9897 13.3733 18.5916 12.7136 14.85 15.6354C11.1084 18.5572 10.44 23.9542 13.3572 27.6898C16.2744 31.4255 21.6724 32.0853 25.414 29.1635Z" fill="#001EEC"/>
<path d="M25.4834 29.2631C29.225 26.3413 29.8934 20.9443 26.9762 17.2086C24.059 13.4729 18.661 12.8132 14.9194 15.735C11.1777 18.6568 10.5094 24.0538 13.4265 27.7895C16.3437 31.5252 21.7418 32.1849 25.4834 29.2631Z" fill="#001DEC"/>
<path d="M25.5635 29.3549C29.3051 26.4331 29.9734 21.0361 27.0563 17.3004C24.1391 13.5647 18.7411 12.905 14.9994 15.8268C11.2578 18.7486 10.5894 24.1456 13.5066 27.8813C16.4238 31.6169 21.8218 32.2767 25.5635 29.3549Z" fill="#001CEC"/>
<path d="M25.6328 29.4535C29.3744 26.5317 30.0428 21.1348 27.1256 17.3991C24.2084 13.6634 18.8104 13.0036 15.0688 15.9254C11.3271 18.8472 10.6588 24.2442 13.576 27.9799C16.4931 31.7156 21.8912 32.3754 25.6328 29.4535Z" fill="#001BEB"/>
<path d="M25.7139 29.5453C29.4555 26.6235 30.1238 21.2266 27.2067 17.4909C24.2895 13.7552 18.8915 13.0954 15.1498 16.0172C11.4082 18.939 10.7398 24.336 13.657 28.0717C16.5742 31.8074 21.9722 32.4672 25.7139 29.5453Z" fill="#001AEB"/>
<path d="M25.7832 29.644C29.5248 26.7222 30.1932 21.3252 27.276 17.5895C24.3588 13.8538 18.9608 13.194 15.2192 16.1158C11.4775 19.0377 10.8092 24.4346 13.7264 28.1703C16.6435 31.906 22.0416 32.5658 25.7832 29.644Z" fill="#0019EB"/>
<path d="M25.8633 29.7358C29.6049 26.814 30.2733 21.417 27.3561 17.6813C24.4389 13.9456 19.0409 13.2858 15.2992 16.2076C11.5576 19.1294 10.8893 24.5264 13.8064 28.2621C16.7236 31.9978 22.1216 32.6576 25.8633 29.7358Z" fill="#0018EB"/>
<path d="M25.9326 29.8354C29.6742 26.9136 30.3426 21.5166 27.4254 17.7809C24.5082 14.0452 19.1102 13.3854 15.3686 16.3072C11.6269 19.2291 10.9586 24.626 13.8758 28.3617C16.7929 32.0974 22.191 32.7572 25.9326 29.8354Z" fill="#0017EB"/>
<path d="M26.0127 29.9262C29.7543 27.0044 30.4227 21.6074 27.5055 17.8717C24.5883 14.136 19.1903 13.4762 15.4487 16.3981C11.707 19.3199 11.0387 24.7169 13.9558 28.4525C16.873 32.1882 22.2711 32.848 26.0127 29.9262Z" fill="#0016EB"/>
<path d="M26.082 30.0258C29.8236 27.104 30.492 21.707 27.5748 17.9713C24.6576 14.2356 19.2596 13.5759 15.518 16.4977C11.7764 19.4195 11.108 24.8165 14.0252 28.5522C16.9424 32.2878 22.3404 32.9476 26.082 30.0258Z" fill="#0015EA"/>
<path d="M26.1621 30.1166C29.9037 27.1948 30.5721 21.7978 27.6549 18.0621C24.7377 14.3265 19.3397 13.6667 15.5981 16.5885C11.8564 19.5103 11.1881 24.9073 14.1053 28.643C17.0224 32.3787 22.4205 33.0384 26.1621 30.1166Z" fill="#0014EA"/>
<path d="M26.2324 30.2162C29.974 27.2944 30.6424 21.8975 27.7252 18.1618C24.808 14.4261 19.41 13.7663 15.6684 16.6881C11.9267 19.6099 11.2584 25.0069 14.1756 28.7426C17.0927 32.4783 22.4908 33.1381 26.2324 30.2162Z" fill="#0013EA"/>
<path d="M26.3125 30.3071C30.0541 27.3852 30.7225 21.9883 27.8053 18.2526C24.8881 14.5169 19.4901 13.8571 15.7485 16.7789C12.0068 19.7007 11.3385 25.0977 14.2556 28.8334C17.1728 32.5691 22.5709 33.2289 26.3125 30.3071Z" fill="#0012EA"/>
<path d="M26.3818 30.4076C30.1235 27.4858 30.7918 22.0889 27.8746 18.3532C24.9575 14.6175 19.5594 13.9577 15.8178 16.8795C12.0762 19.8013 11.4078 25.1983 14.325 28.934C17.2422 32.6697 22.6402 33.3295 26.3818 30.4076Z" fill="#0011EA"/>
<path d="M26.4619 30.4985C30.2035 27.5767 30.8719 22.1797 27.9547 18.444C25.0375 14.7083 19.6395 14.0485 15.8979 16.9703C12.1562 19.8921 11.4879 25.2891 14.4051 29.0248C17.3222 32.7605 22.7203 33.4203 26.4619 30.4985Z" fill="#0010EA"/>
<path d="M26.5312 30.5981C30.2729 27.6763 30.9412 22.2793 28.024 18.5436C25.1069 14.8079 19.7088 14.1481 15.9672 17.0699C12.2256 19.9918 11.5572 25.3887 14.4744 29.1244C17.3916 32.8601 22.7896 33.5199 26.5312 30.5981Z" fill="#000FE9"/>
<path d="M26.6113 30.6889C30.3529 27.7671 31.0213 22.3701 28.1041 18.6344C25.1869 14.8987 19.7889 14.2389 16.0473 17.1608C12.3057 20.0826 11.6373 25.4795 14.5545 29.2152C17.4717 32.9509 22.8697 33.6107 26.6113 30.6889Z" fill="#000EE9"/>
<path d="M14.634 29.3178C17.5537 33.0561 22.9565 33.711 26.6948 30.7913C30.433 27.8716 31.1016 22.4689 28.1819 18.7306C25.2622 14.9923 19.8594 14.3374 16.1212 17.2571C12.3692 20.1904 11.7144 25.5796 14.634 29.3178Z" fill="#000DE9"/>
<path d="M26.6808 17.2698C22.9425 14.3501 17.5398 15.005 14.6201 18.7433C11.7004 22.4816 12.3689 27.8707 16.1072 30.804C19.8455 33.7237 25.2483 33.0688 28.1679 29.3305C31.0876 25.5786 30.4327 20.1895 26.6808 17.2698Z" fill="#000DFF"/>
<path d="M28.2503 29.2307C31.1632 25.4922 30.4891 20.0963 26.7446 17.1788C23.0001 14.2613 17.6032 14.9268 14.6903 18.6654C11.7774 22.4039 12.4515 27.7997 16.196 30.7172C19.9405 33.6348 25.3374 32.9692 28.2503 29.2307Z" fill="#000EFF"/>
<path d="M28.3069 29.1565C31.2198 25.418 30.5457 20.0221 26.8012 17.1046C23.0567 14.1871 17.6599 14.8526 14.7469 18.5911C11.834 22.3297 12.5082 27.7255 16.2526 30.643C19.9971 33.5606 25.394 32.895 28.3069 29.1565Z" fill="#010FFF"/>
<path d="M28.3714 29.0705C31.2843 25.332 30.6102 19.9362 26.8657 17.0187C23.1212 14.1011 17.7243 14.7667 14.8114 18.5052C11.8985 22.2437 12.5726 27.6395 16.3171 30.5571C20.0616 33.4746 25.4585 32.8091 28.3714 29.0705Z" fill="#0110FF"/>
<path d="M28.429 28.9963C31.3419 25.2578 30.6678 19.862 26.9233 16.9444C23.1788 14.0269 17.7819 14.6924 14.869 18.431C11.9561 22.1695 12.6302 27.5653 16.3747 30.4829C20.1192 33.4004 25.5161 32.7349 28.429 28.9963Z" fill="#0211FF"/>
<path d="M28.4934 28.9114C31.4063 25.1728 30.7322 19.777 26.9877 16.8595C23.2433 13.9419 17.8464 14.6075 14.9335 18.346C12.0206 22.0846 12.6947 27.4804 16.4392 30.3979C20.1836 33.3155 25.5805 32.6499 28.4934 28.9114Z" fill="#0212FF"/>
<path d="M28.5579 28.8254C31.4708 25.0869 30.7967 19.6911 27.0522 16.7735C23.3077 13.856 17.9108 14.5215 14.9979 18.2601C12.085 21.9986 12.7591 27.3944 16.5036 30.312C20.2481 33.2295 25.645 32.564 28.5579 28.8254Z" fill="#0313FF"/>
<path d="M28.6155 28.7502C31.5284 25.0117 30.8543 19.6159 27.1098 16.6983C23.3653 13.7808 17.9685 14.4463 15.0555 18.1849C12.1426 21.9234 12.8168 27.3192 16.5612 30.2368C20.3057 33.1543 25.7026 32.4888 28.6155 28.7502Z" fill="#0314FF"/>
<path d="M28.68 28.6643C31.5929 24.9258 30.9187 19.5299 27.1743 16.6124C23.4298 13.6949 18.0329 14.3604 15.12 18.0989C12.2071 21.8375 12.8812 27.2333 16.6257 30.1508C20.3702 33.0684 25.767 32.4028 28.68 28.6643Z" fill="#0315FF"/>
<path d="M28.7366 28.5901C31.6495 24.8515 30.9754 19.4557 27.2309 16.5382C23.4864 13.6206 18.0895 14.2862 15.1766 18.0247C12.2637 21.7633 12.9378 27.1591 16.6823 30.0766C20.4268 32.9942 25.8237 32.3286 28.7366 28.5901Z" fill="#0416FF"/>
<path d="M28.8118 28.5129C31.7247 24.7744 31.0506 19.3786 27.3061 16.461C23.5616 13.5435 18.1647 14.209 15.2518 17.9476C12.3389 21.6861 13.013 27.0819 16.7575 29.9995C20.502 32.917 25.8989 32.2515 28.8118 28.5129Z" fill="#0417FF"/>
<path d="M28.8772 28.427C31.7901 24.6885 31.116 19.2926 27.3715 16.3751C23.6271 13.4576 18.2302 14.1231 15.3173 17.8616C12.4043 21.6002 13.0785 26.996 16.8229 29.9135C20.5674 32.8311 25.9643 32.1655 28.8772 28.427Z" fill="#0518FE"/>
<path d="M28.9339 28.3528C31.8468 24.6142 31.1727 19.2184 27.4282 16.3009C23.6837 13.3833 18.2868 14.0489 15.3739 17.7874C12.461 21.526 13.1351 26.9218 16.8796 29.8393C20.6241 32.7569 26.021 32.0913 28.9339 28.3528Z" fill="#0519FE"/>
<path d="M28.9993 28.2668C31.9122 24.5283 31.2381 19.1325 27.4936 16.2149C23.7491 13.2974 18.3522 13.9629 15.4393 17.7015C12.5264 21.44 13.2005 26.8358 16.945 29.7534C20.6895 32.6709 26.0864 32.0054 28.9993 28.2668Z" fill="#061AFE"/>
<path d="M29.0559 28.1916C31.9688 24.4531 31.2947 19.0573 27.5502 16.1397C23.8058 13.2222 18.4089 13.8878 15.496 17.6263C12.5831 21.3648 13.2572 26.7606 17.0017 29.6782C20.7461 32.5957 26.143 31.9302 29.0559 28.1916Z" fill="#061BFE"/>
<path d="M29.1204 28.1067C32.0333 24.3681 31.3592 18.9723 27.6147 16.0548C23.8702 13.1372 18.4733 13.8028 15.5604 17.5413C12.6475 21.2799 13.3216 26.6757 17.0661 29.5932C20.8106 32.5108 26.2075 31.8452 29.1204 28.1067Z" fill="#071CFE"/>
<path d="M29.1858 28.0217C32.0987 24.2832 31.4246 18.8874 27.6801 15.9698C23.9356 13.0523 18.5388 13.7178 15.6259 17.4564C12.7129 21.1949 13.3871 26.5907 17.1315 29.5083C20.876 32.4258 26.2729 31.7603 29.1858 28.0217Z" fill="#071DFE"/>
<path d="M29.2415 27.9455C32.1544 24.207 31.4803 18.8112 27.7358 15.8937C23.9913 12.9761 18.5944 13.6417 15.6815 17.3802C12.7686 21.1187 13.4427 26.5145 17.1872 29.4321C20.9317 32.3496 26.3286 31.6841 29.2415 27.9455Z" fill="#071EFE"/>
<path d="M29.3069 27.8606C32.2198 24.1221 31.5457 18.7262 27.8012 15.8087C24.0567 12.8912 18.6599 13.5567 15.7469 17.2952C12.834 21.0338 13.5082 26.4296 17.2526 29.3471C20.9971 32.2647 26.394 31.5991 29.3069 27.8606Z" fill="#081FFE"/>
<path d="M29.3743 27.7942C32.2872 24.0556 31.6131 18.6598 27.8686 15.7423C24.1241 12.8247 18.7272 13.4903 15.8143 17.2288C12.9014 20.9674 13.5755 26.3632 17.32 29.2807C21.0645 32.1983 26.4614 31.5327 29.3743 27.7942Z" fill="#0820FE"/>
<path d="M29.4387 27.7082C32.3517 23.9697 31.6775 18.5739 27.9331 15.6564C24.1886 12.7388 18.7917 13.4044 15.8788 17.1429C12.9659 20.8814 13.64 26.2772 17.3845 29.1948C21.129 32.1123 26.5258 31.4468 29.4387 27.7082Z" fill="#0921FE"/>
<path d="M29.5042 27.6233C32.4171 23.8847 31.743 18.4889 27.9985 15.5714C24.254 12.6538 18.8571 13.3194 15.9442 17.0579C13.0313 20.7965 13.7054 26.1923 17.4499 29.1098C21.1944 32.0274 26.5913 31.3618 29.5042 27.6233Z" fill="#0922FE"/>
<path d="M29.5608 27.5491C32.4737 23.8105 31.7996 18.4147 28.0551 15.4972C24.3106 12.5796 18.9138 13.2452 16.0009 16.9837C13.0879 20.7222 13.7621 26.1181 17.5065 29.0356C21.251 31.9531 26.6479 31.2876 29.5608 27.5491Z" fill="#0A23FE"/>
<path d="M29.6262 27.4631C32.5392 23.7246 31.865 18.3288 28.1206 15.4112C24.3761 12.4937 18.9792 13.1592 16.0663 16.8978C13.1534 20.6363 13.8275 26.0321 17.572 28.9497C21.3165 31.8672 26.7133 31.2017 29.6262 27.4631Z" fill="#0A24FE"/>
<path d="M29.6819 27.3879C32.5948 23.6494 31.9207 18.2536 28.1762 15.336C24.4317 12.4185 19.0349 13.084 16.1219 16.8226C13.209 20.5611 13.8832 25.9569 17.6276 28.8745C21.3721 31.792 26.769 31.1265 29.6819 27.3879Z" fill="#0A25FE"/>
<path d="M29.7473 27.303C32.6603 23.5644 31.9861 18.1686 28.2417 15.2511C24.4972 12.3335 19.1003 12.9991 16.1874 16.7376C13.2745 20.4762 13.9486 25.872 17.6931 28.7895C21.4375 31.7071 26.8344 31.0415 29.7473 27.303Z" fill="#0B26FE"/>
<path d="M29.8118 27.217C32.7247 23.4785 32.0506 18.0827 28.3061 15.1651C24.5616 12.2476 19.1647 12.9131 16.2518 16.6517C13.3389 20.3902 14.013 25.786 17.7575 28.7036C21.502 31.6211 26.8989 30.9556 29.8118 27.217Z" fill="#0B27FE"/>
<path d="M29.8684 27.1428C32.7813 23.4043 32.1072 18.0085 28.3627 15.0909C24.6183 12.1734 19.2214 12.8389 16.3085 16.5775C13.3956 20.316 14.0697 25.7118 17.8142 28.6294C21.5586 31.5469 26.9555 30.8814 29.8684 27.1428Z" fill="#0C28FE"/>
<path d="M29.9339 27.0569C32.8468 23.3183 32.1727 17.9225 28.4282 15.005C24.6837 12.0874 19.2868 12.753 16.3739 16.4915C13.461 20.2301 14.1351 25.6259 17.8796 28.5434C21.6241 31.461 27.021 30.7954 29.9339 27.0569Z" fill="#0C29FE"/>
<path d="M30.0012 26.9905C32.9142 23.2519 32.24 17.8561 28.4956 14.9386C24.7511 12.021 19.3542 12.6866 16.4413 16.4251C13.5284 20.1637 14.2025 25.5595 17.947 28.477C21.6915 31.3946 27.0883 30.729 30.0012 26.9905Z" fill="#0D2AFE"/>
<path d="M30.0657 26.9045C32.9786 23.166 32.3045 17.7702 28.56 14.8526C24.8155 11.9351 19.4186 12.6006 16.5057 16.3392C13.5928 20.0777 14.2669 25.4735 18.0114 28.3911C21.7559 31.3086 27.1528 30.6431 30.0657 26.9045Z" fill="#0D2BFE"/>
<path d="M30.1311 26.8186C33.044 23.0801 32.3699 17.6842 28.6254 14.7667C24.881 11.8492 19.4841 12.5147 16.5712 16.2532C13.6583 19.9918 14.3324 25.3876 18.0769 28.3051C21.8213 31.2227 27.2182 30.5571 30.1311 26.8186Z" fill="#0D2CFE"/>
<path d="M30.1878 26.7444C33.1007 23.0058 32.4266 17.61 28.6821 14.6925C24.9376 11.7749 19.5407 12.4405 16.6278 16.179C13.7149 19.9176 14.389 25.3134 18.1335 28.2309C21.878 31.1485 27.2749 30.4829 30.1878 26.7444Z" fill="#0E2DFE"/>
<path d="M30.2532 26.6594C33.1661 22.9209 32.492 17.5251 28.7475 14.6075C25.003 11.69 19.6061 12.3555 16.6932 16.0941C13.7803 19.8326 14.4544 25.2284 18.1989 28.146C21.9434 31.0635 27.3403 30.398 30.2532 26.6594Z" fill="#0E2EFD"/>
<path d="M30.3098 26.5842C33.2227 22.8457 32.5486 17.4499 28.8041 14.5323C25.0597 11.6148 19.6628 12.2803 16.7499 16.0189C13.837 19.7574 14.5111 25.1532 18.2556 28.0708C22 30.9883 27.3969 30.3228 30.3098 26.5842Z" fill="#0F2FFD"/>
<path d="M30.3743 26.4993C33.2872 22.7607 32.6131 17.3649 28.8686 14.4474C25.1241 11.5298 19.7272 12.1954 16.8143 15.9339C13.9014 19.6724 14.5755 25.0683 18.32 27.9858C22.0645 30.9033 27.4614 30.2378 30.3743 26.4993Z" fill="#0F30FD"/>
<path d="M30.4387 26.4133C33.3517 22.6748 32.6775 17.279 28.9331 14.3614C25.1886 11.4439 19.7917 12.1094 16.8788 15.848C13.9659 19.5865 14.64 24.9823 18.3845 27.8999C22.129 30.8174 27.5258 30.1519 30.4387 26.4133Z" fill="#1031FD"/>
<path d="M30.4954 26.3381C33.4083 22.5996 32.7342 17.2038 28.9897 14.2862C25.2452 11.3687 19.8483 12.0342 16.9354 15.7728C14.0225 19.5113 14.6966 24.9071 18.4411 27.8247C22.1856 30.7422 27.5825 30.0767 30.4954 26.3381Z" fill="#1032FD"/>
<path d="M30.5716 26.261C33.4845 22.5224 32.8104 17.1266 29.0659 14.2091C25.3214 11.2915 19.9245 11.9571 17.0116 15.6956C14.0987 19.4342 14.7728 24.83 18.5173 27.7475C22.2618 30.6651 27.6586 29.9995 30.5716 26.261Z" fill="#1033FD"/>
<path d="M30.636 26.176C33.5489 22.4375 32.8748 17.0417 29.1303 14.1241C25.3858 11.2066 19.989 11.8721 17.0761 15.6107C14.1631 19.3492 14.8373 24.745 18.5817 27.6626C22.3262 30.5801 27.7231 29.9146 30.636 26.176Z" fill="#1134FD"/>
<path d="M30.6936 26.1008C33.6065 22.3623 32.9324 16.9665 29.1879 14.0489C25.4435 11.1314 20.0466 11.7969 17.1337 15.5355C14.2208 19.274 14.8949 24.6698 18.6394 27.5874C22.3838 30.5049 27.7807 29.8394 30.6936 26.1008Z" fill="#1135FD"/>
<path d="M30.7581 26.0149C33.671 22.2763 32.9969 16.8805 29.2524 13.963C25.5079 11.0454 20.111 11.711 17.1981 15.4495C14.2852 19.1881 14.9593 24.5839 18.7038 27.5014C22.4483 30.419 27.8452 29.7534 30.7581 26.0149Z" fill="#1236FD"/>
<path d="M30.8147 25.9407C33.7276 22.2021 33.0535 16.8063 29.309 13.8888C25.5646 10.9712 20.1677 11.6368 17.2548 15.3753C14.3419 19.1138 15.016 24.5097 18.7604 27.4272C22.5049 30.3447 27.9018 29.6792 30.8147 25.9407Z" fill="#1237FD"/>
<path d="M30.8802 25.8547C33.7931 22.1162 33.1189 16.7204 29.3745 13.8028C25.63 10.8853 20.2331 11.5508 17.3202 15.2894C14.4073 19.0279 15.0814 24.4237 18.8259 27.3413C22.5704 30.2588 27.9672 29.5933 30.8802 25.8547Z" fill="#1338FD"/>
<path d="M30.9446 25.7698C33.8575 22.0312 33.1834 16.6354 29.4389 13.7179C25.6944 10.8003 20.2976 11.4659 17.3846 15.2044C14.4717 18.9429 15.1459 24.3388 18.8903 27.2563C22.6348 30.1739 28.0317 29.5083 30.9446 25.7698Z" fill="#1339FD"/>
<path d="M31.0012 25.6946C33.9142 21.956 33.24 16.5602 29.4956 13.6427C25.7511 10.7251 20.3542 11.3907 17.4413 15.1292C14.5284 18.8678 15.2025 24.2636 18.947 27.1811C22.6915 30.0987 28.0883 29.4331 31.0012 25.6946Z" fill="#143AFD"/>
<path d="M31.0657 25.6096C33.9786 21.8711 33.3045 16.4753 29.56 13.5577C25.8155 10.6402 20.4186 11.3057 17.5057 15.0443C14.5928 18.7828 15.2669 24.1786 19.0114 27.0962C22.7559 30.0137 28.1528 29.3481 31.0657 25.6096Z" fill="#143BFD"/>
<path d="M31.1331 25.5422C34.046 21.8037 33.3719 16.4079 29.6274 13.4903C25.8829 10.5728 20.486 11.2383 17.5731 14.9769C14.6602 18.7154 15.3343 24.1112 19.0788 27.0288C22.8233 29.9463 28.2202 29.2808 31.1331 25.5422Z" fill="#143CFD"/>
<path d="M31.1985 25.4573C34.1114 21.7187 33.4373 16.3229 29.6928 13.4054C25.9483 10.4878 20.5515 11.1534 17.6385 14.8919C14.7256 18.6305 15.3998 24.0263 19.1442 26.9438C22.8887 29.8614 28.2856 29.1958 31.1985 25.4573Z" fill="#153DFD"/>
<path d="M31.263 25.3723C34.1759 21.6338 33.5018 16.238 29.7573 13.3204C26.0128 10.4029 20.6159 11.0684 17.703 14.807C14.7901 18.5455 15.4642 23.9413 19.2087 26.8588C22.9532 29.7764 28.3501 29.1108 31.263 25.3723Z" fill="#153EFD"/>
<path d="M31.3206 25.2971C34.2335 21.5586 33.5594 16.1628 29.8149 13.2452C26.0704 10.3277 20.6735 10.9932 17.7606 14.7318C14.8477 18.4703 15.5218 23.8661 19.2663 26.7837C23.0108 29.7012 28.4077 29.0356 31.3206 25.2971Z" fill="#163FFD"/>
<path d="M31.385 25.2112C34.2979 21.4726 33.6238 16.0768 29.8794 13.1593C26.1349 10.2417 20.738 10.9073 17.8251 14.6458C14.9122 18.3844 15.5863 23.7802 19.3308 26.6977C23.0752 29.6153 28.4721 28.9497 31.385 25.2112Z" fill="#1640FD"/>
<path d="M31.4417 25.137C34.3546 21.3984 33.6805 16.0026 29.936 13.0851C26.1915 10.1675 20.7946 10.8331 17.8817 14.5716C14.9688 18.3101 15.6429 23.706 19.3874 26.6235C23.1319 29.541 28.5288 28.8755 31.4417 25.137Z" fill="#1741FD"/>
<path d="M31.5061 25.051C34.419 21.3125 33.7449 15.9167 30.0004 12.9991C26.256 10.0816 20.8591 10.7471 17.9462 14.4857C15.0333 18.2242 15.7074 23.62 19.4519 26.5376C23.1963 29.4551 28.5932 28.7896 31.5061 25.051Z" fill="#1742FD"/>
<path d="M31.5716 24.9651C34.4845 21.2265 33.8103 15.8307 30.0659 12.9132C26.3214 9.99564 20.9245 10.6612 18.0116 14.3997C15.0987 18.1383 15.7728 23.5341 19.5173 26.4516C23.2618 29.3692 28.6586 28.7036 31.5716 24.9651Z" fill="#1743FC"/>
<path d="M31.6282 24.8909C34.5411 21.1523 33.867 15.7565 30.1225 12.839C26.378 9.92143 20.9811 10.587 18.0682 14.3255C15.1553 18.064 15.8294 23.4599 19.5739 26.3774C23.3184 29.2949 28.7153 28.6294 31.6282 24.8909Z" fill="#1844FC"/>
<path d="M31.7034 24.8137C34.6163 21.0752 33.9422 15.6794 30.1977 12.7618C26.4532 9.84428 21.0563 10.5098 18.1434 14.2484C15.2305 17.9869 15.9046 23.3827 19.6491 26.3003C23.3936 29.2178 28.7905 28.5522 31.7034 24.8137Z" fill="#1845FC"/>
<path d="M31.76 24.7385C34.6729 21 33.9988 15.6042 30.2543 12.6866C26.5099 9.76908 21.113 10.4346 18.2001 14.1732C15.2872 17.9117 15.9613 23.3075 19.7058 26.2251C23.4502 29.1426 28.8471 28.4771 31.76 24.7385Z" fill="#1946FC"/>
<path d="M31.8255 24.6536C34.7384 20.915 34.0643 15.5192 30.3198 12.6017C26.5753 9.68412 21.1784 10.3497 18.2655 14.0882C15.3526 17.8267 16.0267 23.2226 19.7712 26.1401C23.5157 29.0576 28.9126 28.3921 31.8255 24.6536Z" fill="#1947FC"/>
<path d="M31.8909 24.5676C34.8038 20.8291 34.1297 15.4333 30.3852 12.5157C26.6407 9.59818 21.2438 10.2637 18.3309 14.0023C15.418 17.7408 16.0921 23.1366 19.8366 26.0542C23.5811 28.9717 28.978 28.3062 31.8909 24.5676Z" fill="#1A48FC"/>
<path d="M31.9475 24.4934C34.8604 20.7549 34.1863 15.359 30.4418 12.4415C26.6974 9.52397 21.3005 10.1895 18.3876 13.928C15.4747 17.6666 16.1488 23.0624 19.8933 25.9799C23.6377 28.8975 29.0346 28.2319 31.9475 24.4934Z" fill="#1A49FC"/>
<path d="M32.012 24.4075C34.9249 20.6689 34.2508 15.2731 30.5063 12.3556C26.7618 9.43803 21.3649 10.1036 18.452 13.8421C15.5391 17.5806 16.2132 22.9765 19.9577 25.894C23.7022 28.8115 29.0991 28.146 32.012 24.4075Z" fill="#1A4AFC"/>
<path d="M32.0686 24.3332C34.9815 20.5947 34.3074 15.1989 30.5629 12.2813C26.8185 9.3638 21.4216 10.0294 18.5087 13.7679C15.5958 17.5064 16.2699 22.9022 20.0144 25.8198C23.7588 28.7373 29.1557 28.0718 32.0686 24.3332Z" fill="#1B4BFC"/>
<path d="M32.1341 24.2473C35.047 20.5088 34.3729 15.1129 30.6284 12.1954C26.8839 9.27786 21.487 9.94342 18.5741 13.682C15.6612 17.4205 16.3353 22.8163 20.0798 25.7338C23.8243 28.6514 29.2211 27.9858 32.1341 24.2473Z" fill="#1B4CFC"/>
<path d="M32.1985 24.1614C35.1114 20.4228 34.4373 15.027 30.6928 12.1095C26.9483 9.19193 21.5515 9.85748 18.6386 13.596C15.7256 17.3346 16.3998 22.7304 20.1442 25.6479C23.8887 28.5655 29.2856 27.8999 32.1985 24.1614Z" fill="#1C4DFC"/>
<path d="M32.2659 24.095C35.1788 20.3564 34.5047 14.9606 30.7602 12.0431C27.0157 9.12553 21.6188 9.79107 18.7059 13.5296C15.793 17.2681 16.4671 22.664 20.2116 25.5815C23.9561 28.499 29.353 27.8335 32.2659 24.095Z" fill="#1C4EFC"/>
<path d="M32.3303 24.01C35.2433 20.2715 34.5691 14.8756 30.8247 11.9581C27.0802 9.04057 21.6833 9.70611 18.7704 13.4446C15.8575 17.1832 16.5316 22.579 20.2761 25.4965C24.0206 28.4141 29.4174 27.7485 32.3303 24.01Z" fill="#1D4FFC"/>
<path d="M32.388 23.9348C35.3009 20.1963 34.6268 14.8005 30.8823 11.8829C27.1378 8.96537 21.7409 9.63092 18.828 13.3695C15.9151 17.108 16.5892 22.5038 20.3337 25.4213C24.0782 28.3389 29.4751 27.6733 32.388 23.9348Z" fill="#1D50FC"/>
<path d="M32.4524 23.8489C35.3653 20.1103 34.6912 14.7145 30.9467 11.797C27.2022 8.87943 21.8054 9.54498 18.8925 13.2835C15.9795 17.0221 16.6537 22.4179 20.3981 25.3354C24.1426 28.253 29.5395 27.5874 32.4524 23.8489Z" fill="#1D51FC"/>
<path d="M32.5169 23.7639C35.4298 20.0254 34.7557 14.6296 31.0112 11.712C27.2667 8.79447 21.8698 9.46002 18.9569 13.1986C16.044 16.9371 16.7181 22.3329 20.4626 25.2505C24.2071 28.168 29.604 27.5024 32.5169 23.7639Z" fill="#1E52FC"/>
<path d="M32.5745 23.6897C35.4874 19.9512 34.8133 14.5553 31.0688 11.6378C27.3243 8.72025 21.9274 9.3858 19.0145 13.1243C16.1016 16.8629 16.7757 22.2587 20.5202 25.1762C24.2647 28.0938 29.6616 27.4282 32.5745 23.6897Z" fill="#1E53FC"/>
<path d="M32.6389 23.6038C35.5519 19.8652 34.8777 14.4694 31.1333 11.5519C27.3888 8.63432 21.9919 9.29986 19.079 13.0384C16.1661 16.7769 16.8402 22.1728 20.5847 25.0903C24.3291 28.0078 29.726 27.3423 32.6389 23.6038Z" fill="#1F54FC"/>
<path d="M32.6956 23.5295C35.6085 19.791 34.9344 14.3952 31.1899 11.4776C27.4454 8.5601 22.0485 9.22564 19.1356 12.9642C16.2227 16.7027 16.8968 22.0985 20.6413 25.0161C24.3858 27.9336 29.7827 27.2681 32.6956 23.5295Z" fill="#1F55FC"/>
<path d="M32.76 23.4436C35.6729 19.7051 34.9988 14.3092 31.2543 11.3917C27.5099 8.47416 22.113 9.13971 19.2001 12.8782C16.2872 16.6168 16.9613 22.0126 20.7058 24.9301C24.4502 27.8477 29.8471 27.1821 32.76 23.4436Z" fill="#2056FC"/>
<path d="M32.8255 23.3577C35.7384 19.6191 35.0643 14.2233 31.3198 11.3058C27.5753 8.38822 22.1784 9.05377 19.2655 12.7923C16.3526 16.5308 17.0267 21.9267 20.7712 24.8442C24.5157 27.7617 29.9126 27.0962 32.8255 23.3577Z" fill="#2057FC"/>
<path d="M32.8928 23.2913C35.8058 19.5527 35.1316 14.1569 31.3872 11.2394C27.6427 8.32181 22.2458 8.98736 19.3329 12.7259C16.42 16.4644 17.0941 21.8603 20.8386 24.7778C24.5831 27.6953 29.9799 27.0298 32.8928 23.2913Z" fill="#2058FC"/>
<path d="M32.9583 23.2063C35.8712 19.4678 35.1971 14.0719 31.4526 11.1544C27.7081 8.23685 22.3112 8.9024 19.3983 12.6409C16.4854 16.3795 17.1595 21.7753 20.904 24.6928C24.6485 27.6104 30.0454 26.9448 32.9583 23.2063Z" fill="#2159FB"/>
<path d="M33.0139 23.1311C35.9269 19.3926 35.2527 13.9967 31.5083 11.0792C27.7638 8.16166 22.3669 8.82721 19.454 12.5657C16.5411 16.3043 17.2152 21.7001 20.9597 24.6176C24.7041 27.5352 30.101 26.8696 33.0139 23.1311Z" fill="#215AFB"/>
<path d="M33.0794 23.0452C35.9923 19.3066 35.3182 13.9108 31.5737 10.9933C27.8292 8.07572 22.4323 8.74127 19.5194 12.4798C16.6065 16.2183 17.2806 21.6142 21.0251 24.5317C24.7696 27.4492 30.1665 26.7837 33.0794 23.0452Z" fill="#225BFB"/>
<path d="M33.1448 22.9592C36.0577 19.2207 35.3836 13.8249 31.6391 10.9073C27.8946 7.98979 22.4978 8.65533 19.5848 12.3939C16.6719 16.1324 17.346 21.5282 21.0905 24.4458C24.835 27.3633 30.2319 26.6978 33.1448 22.9592Z" fill="#225CFB"/>
<path d="M33.2014 22.885C36.1144 19.1465 35.4402 13.7506 31.6958 10.8331C27.9513 7.91557 22.5544 8.58111 19.6415 12.3196C16.7286 16.0582 17.4027 21.454 21.1472 24.3715C24.8916 27.2891 30.2885 26.6235 33.2014 22.885Z" fill="#235DFB"/>
<path d="M33.2659 22.7991C36.1788 19.0605 35.5047 13.6647 31.7602 10.7472C28.0157 7.82963 22.6188 8.49517 19.7059 12.2337C16.793 15.9722 17.4671 21.3681 21.2116 24.2856C24.9561 27.2031 30.353 26.5376 33.2659 22.7991Z" fill="#235EFB"/>
<path d="M33.3225 22.7248C36.2354 18.9863 35.5613 13.5905 31.8168 10.673C28.0724 7.75541 22.6755 8.42096 19.7626 12.1595C16.8497 15.898 17.5238 21.2938 21.2683 24.2114C25.0127 27.1289 30.4096 26.4634 33.3225 22.7248Z" fill="#245FFB"/>
<path d="M33.388 22.6399C36.3009 18.9014 35.6268 13.5055 31.8823 10.588C28.1378 7.67045 22.7409 8.336 19.828 12.0745C16.9151 15.8131 17.5892 21.2089 21.3337 24.1264C25.0782 27.044 30.4751 26.3784 33.388 22.6399Z" fill="#2460FB"/>
<path d="M33.4632 22.5618C36.3761 18.8232 35.7019 13.4274 31.9575 10.5099C28.213 7.59233 22.8161 8.25787 19.9032 11.9964C16.9903 15.7349 17.6644 21.1308 21.4089 24.0483C25.1534 26.9658 30.5502 26.3003 33.4632 22.5618Z" fill="#2461FB"/>
<path d="M33.5198 22.4875C36.4327 18.749 35.7586 13.3532 32.0141 10.4356C28.2696 7.51811 22.8727 8.18365 19.9598 11.9222C17.0469 15.6607 17.721 21.0565 21.4655 23.9741C25.21 26.8916 30.6069 26.2261 33.5198 22.4875Z" fill="#2562FB"/>
<path d="M33.5843 22.4026C36.4972 18.664 35.823 13.2682 32.0786 10.3507C28.3341 7.43315 22.9372 8.09869 20.0243 11.8372C17.1114 15.5758 17.7855 20.9716 21.53 23.8891C25.2745 26.8067 30.6713 26.1411 33.5843 22.4026Z" fill="#2563FB"/>
<path d="M33.6419 22.3264C36.5548 18.5879 35.8807 13.192 32.1362 10.2745C28.3917 7.35697 22.9948 8.02252 20.0819 11.7611C17.169 15.4996 17.8431 20.8954 21.5876 23.8129C25.3321 26.7305 30.729 26.0649 33.6419 22.3264Z" fill="#2664FB"/>
<path d="M33.7063 22.2414C36.6192 18.5029 35.9451 13.1071 32.2006 10.1895C28.4562 7.27201 23.0593 7.93756 20.1464 11.6761C17.2335 15.4146 17.9076 20.8104 21.6521 23.728C25.3965 26.6455 30.7934 25.98 33.7063 22.2414Z" fill="#2665FB"/>
<path d="M33.7708 22.1555C36.6837 18.417 36.0096 13.0212 32.2651 10.1036C28.5206 7.18607 23.1237 7.85162 20.2108 11.5902C17.2979 15.3287 17.972 20.7245 21.7165 23.6421C25.461 26.5596 30.8579 25.894 33.7708 22.1555Z" fill="#2766FB"/>
<path d="M33.8301 22.0765C36.743 18.3375 36.0685 12.9413 32.3236 10.0238C28.5786 7.10623 23.1813 7.77216 20.2684 11.5112C17.3555 15.2502 18.03 20.6464 21.775 23.5639C25.5199 26.4815 30.9172 25.8155 33.8301 22.0765Z" fill="#2767FB"/>
<path d="M33.8955 21.9916C36.8085 18.2526 36.1339 12.8564 32.389 9.93881C28.644 7.02127 23.2468 7.6872 20.3339 11.4262C17.421 15.1652 18.0955 20.5614 21.8404 23.479C25.5854 26.3965 30.9826 25.7306 33.8955 21.9916Z" fill="#2768FB"/>
<path d="M33.9512 21.9164C36.8641 18.1774 36.1896 12.7812 32.4447 9.86362C28.6997 6.94608 23.3024 7.61201 20.3895 11.351C17.4766 15.09 18.1511 20.4862 21.8961 23.4038C25.641 26.3213 31.0383 25.6554 33.9512 21.9164Z" fill="#2869FB"/>
<path d="M34.0274 21.8392C36.9403 18.1002 36.2658 12.704 32.5208 9.78647C28.7759 6.86893 23.3786 7.53486 20.4657 11.2739C17.5528 15.0129 18.2273 20.4091 21.9722 23.3266C25.7172 26.2442 31.1145 25.5782 34.0274 21.8392Z" fill="#286AFB"/>
<path d="M34.0918 21.7543C37.0047 18.0153 36.3302 12.6191 32.5853 9.70151C28.8403 6.78397 23.4431 7.4499 20.5302 11.1889C17.6172 14.9279 18.2917 20.3241 22.0367 23.2417C25.7817 26.1592 31.1789 25.4933 34.0918 21.7543Z" fill="#296BFB"/>
<path d="M34.1485 21.6791C37.0614 17.9401 36.3869 12.5439 32.6419 9.62631C28.897 6.70877 23.4997 7.3747 20.5868 11.1137C17.6739 14.8527 18.3484 20.2489 22.0933 23.1665C25.8383 26.084 31.2356 25.4181 34.1485 21.6791Z" fill="#296CFB"/>
<path d="M34.2139 21.5931C37.1268 17.8541 36.4523 12.4579 32.7074 9.54038C28.9624 6.62284 23.5651 7.28877 20.6522 11.0278C17.7393 14.7668 18.4138 20.163 22.1588 23.0805C25.9037 25.9981 31.301 25.3321 34.2139 21.5931Z" fill="#2A6DFB"/>
<path d="M34.2705 21.5189C37.1835 17.7799 36.5089 12.3837 32.764 9.46616C29.019 6.54862 23.6218 7.21455 20.7089 10.9536C17.796 14.6926 18.4705 20.0888 22.2154 23.0063C25.9604 25.9239 31.3576 25.2579 34.2705 21.5189Z" fill="#2A6EFA"/>
<path d="M34.335 21.433C37.2479 17.694 36.5734 12.2978 32.8284 9.38022C29.0835 6.46268 23.6862 7.12861 20.7733 10.8676C17.8604 14.6066 18.5349 20.0028 22.2799 22.9204C26.0248 25.8379 31.4221 25.172 34.335 21.433Z" fill="#2A6FFA"/>
<path d="M34.4004 21.347C37.3133 17.608 36.6388 12.2118 32.8939 9.29428C29.1489 6.37674 23.7517 7.04267 20.8387 10.7817C17.9258 14.5207 18.6003 19.9169 22.3453 22.8344C26.0902 25.752 31.4875 25.086 34.4004 21.347Z" fill="#2B70FA"/>
<path d="M34.4571 21.2728C37.37 17.5338 36.6955 12.1376 32.9505 9.22006C29.2056 6.30252 23.8083 6.96845 20.8954 10.7075C17.9825 14.4465 18.657 19.8427 22.4019 22.7602C26.1469 25.6778 31.5442 25.0118 34.4571 21.2728Z" fill="#2B71FA"/>
<path d="M34.5215 21.1879C37.4344 17.4488 36.7599 12.0526 33.015 9.1351C29.27 6.21755 23.8728 6.88349 20.9598 10.6225C18.0469 14.3615 18.7214 19.7577 22.4664 22.6753C26.2113 25.5928 31.6086 24.9269 34.5215 21.1879Z" fill="#2C72FA"/>
<path d="M34.5889 21.1205C37.5018 17.3815 36.8273 11.9853 33.0824 9.06771C29.3374 6.15017 23.9401 6.8161 21.0272 10.5551C18.1143 14.2941 18.7888 19.6903 22.5338 22.6079C26.2787 25.5254 31.676 24.8595 34.5889 21.1205Z" fill="#2C73FA"/>
<path d="M34.6543 21.0345C37.5672 17.2955 36.8927 11.8993 33.1478 8.98178C29.4028 6.06423 24.0056 6.73016 21.0927 10.4692C18.1797 14.2082 18.8542 19.6044 22.5992 22.5219C26.3442 25.4395 31.7414 24.7735 34.6543 21.0345Z" fill="#2D74FA"/>
<path d="M34.7198 20.9496C37.6327 17.2106 36.9582 11.8144 33.2132 8.89681C29.4683 5.97927 24.071 6.6452 21.1581 10.3842C18.2452 14.1232 18.9197 19.5194 22.6646 22.437C26.4096 25.3545 31.8069 24.6886 34.7198 20.9496Z" fill="#2D75FA"/>
<path d="M34.7764 20.8754C37.6893 17.1363 37.0148 11.7401 33.2699 8.8226C29.5249 5.90506 24.1276 6.57099 21.2147 10.31C18.3018 14.049 18.9763 19.4452 22.7213 22.3628C26.4662 25.2803 31.8635 24.6144 34.7764 20.8754Z" fill="#2D76FA"/>
<path d="M34.8409 20.7894C37.7538 17.0504 37.0793 11.6542 33.3343 8.73667C29.5894 5.81912 24.1921 6.48505 21.2792 10.2241C18.3663 13.9631 19.0408 19.3593 22.7857 22.2768C26.5307 25.1944 31.9279 24.5284 34.8409 20.7894Z" fill="#2E77FA"/>
<path d="M34.8975 20.7152C37.8104 16.9762 37.1359 11.58 33.3909 8.66245C29.646 5.74491 24.2487 6.41084 21.3358 10.1498C18.4229 13.8889 19.0974 19.2851 22.8424 22.2026C26.5873 25.1201 31.9846 24.4542 34.8975 20.7152Z" fill="#2E78FA"/>
<path d="M34.9629 20.6293C37.8758 16.8903 37.2013 11.4941 33.4564 8.57651C29.7114 5.65897 24.3142 6.3249 21.4012 10.0639C18.4883 13.8029 19.1628 19.1991 22.9078 22.1167C26.6527 25.0342 32.05 24.3683 34.9629 20.6293Z" fill="#2F79FA"/>
<path d="M35.0274 20.5433C37.9403 16.8043 37.2658 11.4081 33.5208 8.49057C29.7759 5.57303 24.3786 6.23896 21.4657 9.97797C18.5528 13.717 19.2273 19.1132 22.9722 22.0307C26.7172 24.9483 32.1145 24.2823 35.0274 20.5433Z" fill="#2F7AFA"/>
<path d="M35.084 20.4681C37.9969 16.7291 37.3224 11.3329 33.5775 8.41538C29.8325 5.49784 24.4352 6.16377 21.5223 9.90278C18.6094 13.6418 19.2839 19.038 23.0289 21.9555C26.7738 24.8731 32.1711 24.2071 35.084 20.4681Z" fill="#307BFA"/>
<path d="M35.1592 20.392C38.0721 16.6529 37.3976 11.2567 33.6527 8.33921C29.9077 5.42166 24.5104 6.08759 21.5975 9.8266C18.6846 13.5656 19.3591 18.9618 23.1041 21.8794C26.849 24.7969 32.2463 24.131 35.1592 20.392Z" fill="#307CFA"/>
<path d="M35.2246 20.306C38.1376 16.567 37.463 11.1708 33.7181 8.25327C29.9731 5.33573 24.5759 6.00166 21.663 9.74067C18.7501 13.4797 19.4246 18.8759 23.1695 21.7934C26.9145 24.711 32.3117 24.045 35.2246 20.306Z" fill="#317DFA"/>
<path d="M35.2813 20.2308C38.1942 16.4918 37.5197 11.0956 33.7747 8.17807C30.0298 5.26052 24.6325 5.92646 21.7196 9.66547C18.8067 13.4045 19.4812 18.8007 23.2262 21.7182C26.9711 24.6358 32.3684 23.9698 35.2813 20.2308Z" fill="#317EFA"/>
<path d="M35.3457 20.1459C38.2586 16.4069 37.5841 11.0106 33.8392 8.0931C30.0942 5.17556 24.697 5.8415 21.7841 9.58051C18.8711 13.3195 19.5457 18.7157 23.2906 21.6333C27.0356 24.5508 32.4328 23.8849 35.3457 20.1459Z" fill="#317FFA"/>
<path d="M35.4024 20.0707C38.3153 16.3317 37.6408 10.9355 33.8958 8.01791C30.1509 5.10037 24.7536 5.7663 21.8407 9.50531C18.9278 13.2443 19.6023 18.6405 23.3472 21.5581C27.0922 24.4756 32.4895 23.8097 35.4024 20.0707Z" fill="#3280FA"/>
<path d="M35.4678 19.9857C38.3807 16.2467 37.7062 10.8505 33.9613 7.93295C30.2163 5.01541 24.819 5.68134 21.9061 9.42035C18.9932 13.1594 19.6677 18.5556 23.4127 21.4731C27.1576 24.3906 32.5549 23.7247 35.4678 19.9857Z" fill="#3281FA"/>
<path d="M35.5332 19.8998C38.4462 16.1608 37.7716 10.7646 34.0267 7.84701C30.2817 4.92947 24.8845 5.5954 21.9716 9.33441C19.0586 13.0734 19.7332 18.4696 23.4781 21.3872C27.2231 24.3047 32.6203 23.6388 35.5332 19.8998Z" fill="#3382FA"/>
<path d="M35.5889 19.8256C38.5018 16.0865 37.8273 10.6903 34.0824 7.7728C30.3374 4.85526 24.9401 5.52119 22.0272 9.2602C19.1143 12.9992 19.7888 18.3954 23.5338 21.313C27.2787 24.2305 32.676 23.5646 35.5889 19.8256Z" fill="#3383F9"/>
<path d="M35.6543 19.7396C38.5672 16.0006 37.8927 10.6044 34.1478 7.68686C30.4028 4.76932 25.0056 5.43525 22.0927 9.17426C19.1797 12.9133 19.8542 18.3095 23.5992 21.227C27.3442 24.1446 32.7414 23.4786 35.6543 19.7396Z" fill="#3484F9"/>
<path d="M35.711 19.6644C38.6239 15.9254 37.9494 10.5292 34.2044 7.61167C30.4595 4.69412 25.0622 5.36005 22.1493 9.09906C19.2364 12.8381 19.9109 18.2343 23.6558 21.1518C27.4008 24.0694 32.7981 23.4034 35.711 19.6644Z" fill="#3485F9"/>
<path d="M35.7871 19.5873C38.7001 15.8483 38.0255 10.4521 34.2806 7.53452C30.5356 4.61698 25.1384 5.28291 22.2255 9.02192C19.3126 12.7609 19.9871 18.1571 23.732 21.0747C27.477 23.9922 32.8742 23.3263 35.7871 19.5873Z" fill="#3486F9"/>
<path d="M35.8516 19.5023C38.7645 15.7633 38.09 10.3671 34.345 7.44956C30.6001 4.53202 25.2028 5.19795 22.2899 8.93696C19.377 12.676 20.0515 18.0722 23.7965 20.9897C27.5414 23.9073 32.9387 23.2413 35.8516 19.5023Z" fill="#3587F9"/>
<path d="M35.9082 19.4271C38.8211 15.6881 38.1466 10.2919 34.4017 7.37436C30.6567 4.45682 25.2595 5.12275 22.3466 8.86176C19.4336 12.6008 20.1082 17.997 23.8531 20.9145C27.5981 23.8321 32.9953 23.1661 35.9082 19.4271Z" fill="#3588F9"/>
<path d="M35.9727 19.3412C38.8856 15.6022 38.2111 10.206 34.4661 7.28842C30.7212 4.37088 25.3239 5.03681 22.411 8.77582C19.4981 12.5148 20.1726 17.911 23.9176 20.8286C27.6625 23.7461 33.0598 23.0802 35.9727 19.3412Z" fill="#3689F9"/>
<path d="M36.0303 19.267C38.9432 15.5279 38.2687 10.1317 34.5238 7.2142C30.7788 4.29666 25.3815 4.96259 22.4686 8.7016C19.5557 12.4406 20.2302 17.8368 23.9752 20.7544C27.7201 23.6719 33.1174 23.006 36.0303 19.267Z" fill="#368AF9"/>
<path d="M36.0948 19.182C39.0077 15.443 38.3332 10.0468 34.5882 7.12924C30.8433 4.21169 25.446 4.87763 22.5331 8.61664C19.6202 12.3557 20.2947 17.7519 24.0396 20.6694C27.7846 23.5869 33.1818 22.921 36.0948 19.182Z" fill="#378BF9"/>
<path d="M36.1592 19.0961C39.0721 15.357 38.3976 9.96084 34.6527 7.0433C30.9077 4.12576 25.5104 4.79169 22.5975 8.5307C19.6846 12.2697 20.3591 17.6659 24.1041 20.5835C27.849 23.501 33.2463 22.8351 36.1592 19.0961Z" fill="#378CF9"/>
<path d="M36.2168 19.0209C39.1297 15.2818 38.4552 9.88565 34.7103 6.9681C30.9653 4.05056 25.5681 4.71649 22.6552 8.4555C19.7422 12.1945 20.4167 17.5907 24.1617 20.5083C27.9067 23.4258 33.3039 22.7599 36.2168 19.0209Z" fill="#378DF9"/>
<path d="M36.2813 18.9359C39.1942 15.1969 38.5197 9.80069 34.7747 6.88314C31.0298 3.9656 25.6325 4.63153 22.7196 8.37054C19.8067 12.1096 20.4812 17.5058 24.2262 20.4233C27.9711 23.3408 33.3684 22.6749 36.2813 18.9359Z" fill="#388EF9"/>
<path d="M36.3487 18.8685C39.2616 15.1295 38.5871 9.73331 34.8421 6.81577C31.0972 3.89823 25.6999 4.56416 22.787 8.30317C19.8741 12.0422 20.5486 17.4384 24.2935 20.3559C28.0385 23.2735 33.4358 22.6075 36.3487 18.8685Z" fill="#388FF9"/>
<path d="M36.4131 18.7836C39.326 15.0445 38.6515 9.64835 34.9066 6.73081C31.1616 3.81326 25.7644 4.4792 22.8514 8.21821C19.9385 11.9572 20.613 17.3534 24.358 20.271C28.1029 23.1885 33.5002 22.5226 36.4131 18.7836Z" fill="#3990F9"/>
<path d="M36.4785 18.6976C39.3915 14.9586 38.717 9.56241 34.972 6.64487C31.227 3.72733 25.8298 4.39326 22.9169 8.13227C20.004 11.8713 20.6785 17.2675 24.4234 20.185C28.1684 23.1026 33.5656 22.4366 36.4785 18.6976Z" fill="#3991F9"/>
<path d="M36.5352 18.6234C39.4481 14.8844 38.7736 9.48819 35.0286 6.57065C31.2837 3.65311 25.8864 4.31904 22.9735 8.05805C20.0606 11.7971 20.7351 17.1933 24.4801 20.1108C28.225 23.0283 33.6223 22.3624 36.5352 18.6234Z" fill="#3A92F9"/>
<path d="M36.6006 18.5375C39.5135 14.7985 38.839 9.40225 35.0941 6.48471C31.3491 3.56717 25.9519 4.2331 23.0389 7.97211C20.126 11.7111 20.8005 17.1073 24.5455 20.0249C28.2904 22.9424 33.6877 22.2765 36.6006 18.5375Z" fill="#3A93F9"/>
<path d="M36.6563 18.4632C39.5692 14.7242 38.8947 9.32804 35.1497 6.4105C31.4048 3.49295 26.0075 4.15888 23.0946 7.89789C20.1817 11.6369 20.8562 17.0331 24.6012 19.9506C28.3461 22.8682 33.7434 22.2023 36.6563 18.4632Z" fill="#3A94F9"/>
<path d="M36.7217 18.3773C39.6346 14.6383 38.9601 9.2421 35.2152 6.32456C31.4702 3.40701 26.0729 4.07295 23.16 7.81196C20.2471 11.551 20.9216 16.9472 24.6666 19.8647C28.4115 22.7823 33.8088 22.1163 36.7217 18.3773Z" fill="#3B95F9"/>
<path d="M36.7871 18.2914C39.7001 14.5524 39.0255 9.15616 35.2806 6.23862C31.5356 3.32108 26.1384 3.98701 23.2255 7.72602C20.3126 11.465 20.9871 16.8612 24.732 19.7788C28.477 22.6963 33.8742 22.0304 36.7871 18.2914Z" fill="#3B96F9"/>
<path d="M36.8428 18.2172C39.7557 14.4781 39.0812 9.08193 35.3363 6.16439C31.5913 3.24685 26.194 3.91279 23.2811 7.6518C20.3682 11.3908 21.0427 16.787 24.7877 19.7046C28.5326 22.6221 33.9299 21.9562 36.8428 18.2172Z" fill="#3C97F9"/>
<path d="M36.919 18.14C39.8319 14.401 39.1574 9.00479 35.4124 6.08724C31.6675 3.1697 26.2702 3.83564 23.3573 7.57465C20.4444 11.3137 21.1189 16.7099 24.8638 19.6274C28.6088 22.5449 34.0061 21.879 36.919 18.14Z" fill="#3C98F9"/>
<path d="M36.9756 18.0648C39.8885 14.3258 39.214 8.92959 35.4691 6.01205C31.7241 3.09451 26.3269 3.76044 23.4139 7.49945C20.501 11.2385 21.1755 16.6347 24.9205 19.5522C28.6654 22.4698 34.0627 21.8038 36.9756 18.0648Z" fill="#3D99F8"/>
<path d="M37.0401 17.9789C39.953 14.2399 39.2785 8.84365 35.5335 5.92611C31.7886 3.00857 26.3913 3.6745 23.4784 7.41351C20.5655 11.1525 21.24 16.5487 24.9849 19.4663C28.7299 22.3838 34.1272 21.7179 37.0401 17.9789Z" fill="#3D9AF8"/>
<path d="M37.1055 17.8939C40.0184 14.1549 39.3439 8.75869 35.599 5.84115C31.854 2.92361 26.4567 3.58954 23.5438 7.32855C20.6309 11.0676 21.3054 16.4638 25.0504 19.3813C28.7953 22.2989 34.1926 21.6329 37.1055 17.8939Z" fill="#3E9BF8"/>
<path d="M37.1621 17.8197C40.0751 14.0807 39.4005 8.68448 35.6556 5.76694C31.9106 2.8494 26.5134 3.51533 23.6005 7.25434C20.6876 10.9933 21.3621 16.3895 25.107 19.3071C28.852 22.2246 34.2492 21.5587 37.1621 17.8197Z" fill="#3E9CF8"/>
<path d="M37.2266 17.7338C40.1395 13.9947 39.465 8.59854 35.72 5.681C31.9751 2.76346 26.5778 3.42939 23.6649 7.1684C20.752 10.9074 21.4265 16.3036 25.1715 19.2212C28.9164 22.1387 34.3137 21.4728 37.2266 17.7338Z" fill="#3E9DF8"/>
<path d="M37.2842 17.6586C40.1971 13.9195 39.5226 8.52335 35.7777 5.60581C32.0327 2.68827 26.6354 3.3542 23.7225 7.09321C20.8096 10.8322 21.4841 16.2284 25.2291 19.146C28.974 22.0635 34.3713 21.3976 37.2842 17.6586Z" fill="#3F9EF8"/>
<path d="M37.3487 17.5736C40.2616 13.8346 39.5871 8.43839 35.8421 5.52085C32.0972 2.6033 26.6999 3.26923 23.787 7.00824C20.8741 10.7473 21.5486 16.1435 25.2935 19.061C29.0385 21.9785 34.4358 21.3126 37.3487 17.5736Z" fill="#3F9FF8"/>
<path d="M37.4131 17.4877C40.326 13.7487 39.6515 8.35245 35.9066 5.43491C32.1616 2.51737 26.7644 3.1833 23.8514 6.92231C20.9385 10.6613 21.613 16.0575 25.358 18.9751C29.1029 21.8926 34.5002 21.2267 37.4131 17.4877Z" fill="#40A0F8"/>
<path d="M37.4805 17.4213C40.3934 13.6822 39.7189 8.28604 35.974 5.3685C32.229 2.45096 26.8317 3.11689 23.9188 6.8559C21.0059 10.5949 21.6804 15.9911 25.4254 18.9087C29.1703 21.8262 34.5676 21.1603 37.4805 17.4213Z" fill="#40A1F8"/>
<path d="M37.5459 17.3353C40.4588 13.5963 39.7843 8.20011 36.0394 5.28256C32.2944 2.36502 26.8972 3.03095 23.9843 6.76996C21.0713 10.509 21.7458 15.9052 25.4908 18.8227C29.2358 21.7403 34.633 21.0743 37.5459 17.3353Z" fill="#41A2F8"/>
<path d="M36.1085 5.20927C32.3703 2.28959 26.9675 2.94448 24.0478 6.68275C21.1281 10.421 21.7967 15.8102 25.5349 18.7435C29.2732 21.6631 34.676 21.0083 37.5957 17.27C40.5153 13.5317 39.8468 8.12895 36.1085 5.20927Z" fill="#41A3F8"/>
<path d="M36.0947 5.20927C32.3564 2.28959 26.9536 2.94448 24.034 6.68275C24.0203 6.6964 14.6201 18.7298 14.6064 18.7435C11.6867 22.4818 12.3553 27.8845 16.0935 30.8042C19.8318 33.7239 25.2346 33.069 28.1543 29.3307C28.1679 29.3171 37.5682 17.2836 37.5818 17.27C40.5015 13.5317 39.833 8.12895 36.0947 5.20927Z" fill="url(#paint0_radial)"/>
<defs>
<radialGradient id="paint0_radial" cx="0" cy="0" r="1" gradientUnits="userSpaceOnUse" gradientTransform="translate(29.9946 13.2841) scale(21.9239)">
<stop offset="0.059885" stop-color="#00FFF8"/>
<stop offset="0.1386" stop-color="#00F2F7"/>
<stop offset="0.2847" stop-color="#00CFF5"/>
<stop offset="0.4822" stop-color="#0097F2"/>
<stop offset="0.7209" stop-color="#004BEE"/>
<stop offset="0.8622" stop-color="#001AEB"/>
</radialGradient>
</defs>
</svg>
