<svg width="1440" height="300" viewBox="0 0 1440 300" fill="none" xmlns="http://www.w3.org/2000/svg">
<path fill-rule="evenodd" clip-rule="evenodd" d="M2.38205 67.2812C17.8969 67.2812 31.834 70.696 43.6674 77.5255C55.7638 84.355 64.9675 93.8113 71.8046 105.369C78.3787 117.189 81.7973 130.323 81.7973 144.77C81.7973 145.921 81.7349 147.072 81.671 148.253C81.6035 149.498 81.5343 150.777 81.5343 152.125C81.3963 153.366 81.3307 154.679 81.2615 156.065C81.1989 157.319 81.1333 158.632 81.0084 160.005H-39.4293C-38.6404 172.351 -34.433 182.07 -26.544 189.162C-18.9181 196.254 -9.45135 199.669 1.59315 199.669C10.008 199.669 17.108 197.83 22.6303 194.153C28.1525 190.475 32.36 185.747 35.2526 179.706H76.8009C73.9083 189.687 68.912 198.881 62.075 207.024C55.2379 215.167 46.5601 221.471 36.5674 226.199C26.3118 230.927 15.0043 233.291 2.11908 233.291C-13.6588 233.291 -27.8588 229.876 -40.2182 223.047C-52.5775 216.217 -62.3072 206.761 -69.4072 194.415C-76.5072 182.07 -79.9258 167.885 -79.9258 151.6C-79.9258 135.314 -76.5072 120.867 -69.6702 107.996C-62.8331 95.1247 -53.3664 85.1431 -41.0071 78.0509C-28.6477 70.9587 -14.1847 67.2812 2.38205 67.2812ZM-23.9161 109.046C-31.542 114.825 -36.5383 123.231 -38.6421 134.788H40.5102C39.7213 124.282 36.0398 115.876 28.9398 109.834C21.8397 103.793 13.1619 100.641 2.64334 100.641C-7.3493 100.641 -16.2901 103.53 -23.9161 109.046Z" fill="#1B1B29"/>
<path d="M276.13 102.217C284.545 102.217 292.171 104.318 298.219 108.784C304.531 113.249 308.738 119.028 310.842 126.908H353.968C350.023 108.521 341.346 93.8113 327.408 83.3044C313.471 72.7974 296.642 67.5439 276.393 67.5439C260.09 67.5439 245.889 70.9587 233.53 78.0509C221.171 85.1431 211.441 94.862 204.341 107.47C197.241 120.079 193.56 134.263 193.56 150.549C193.56 166.835 197.241 181.019 204.341 193.627C211.441 206.236 221.171 215.955 233.53 223.047C245.889 230.139 260.09 233.554 276.393 233.554C296.642 233.554 313.734 228.038 327.408 217.268C341.346 206.498 350.023 192.051 353.968 174.189H310.842C308.738 182.07 304.531 188.111 298.219 192.314C291.908 196.517 284.545 198.618 276.13 198.618C264.823 198.618 255.356 194.415 247.467 185.747C239.578 177.342 235.634 165.521 235.634 150.286C235.634 135.314 239.578 123.493 247.467 114.825C255.356 106.42 264.823 102.217 276.13 102.217Z" fill="#1B1B29"/>
<rect x="366.588" y="71.2207" width="40.7595" height="158.13" fill="#1B1B29"/>
<path d="M150.696 28.9307H133.34C120.455 28.9307 109.936 39.4376 109.936 52.3086V71.2211H82.5879V105.369H109.673V174.189C109.673 194.94 114.67 209.125 124.662 217.268C134.655 225.411 148.066 229.351 164.633 229.351H192.507V194.678H172.785C164.633 194.678 159.111 193.364 155.692 190.475C152.273 187.586 150.696 182.332 150.696 174.715V105.369H193.559V71.2211H150.696V28.9307Z" fill="#1B1B29"/>
<path d="M487.552 28.9307H470.196C457.311 28.9307 446.792 39.4376 446.792 52.3086V71.2211H419.707V105.369H446.792V174.189C446.792 194.94 451.789 209.125 461.781 217.268C471.774 225.411 485.185 229.351 501.752 229.351H529.626V194.678H509.904C501.752 194.678 496.23 193.364 492.811 190.475C489.393 187.586 487.815 182.332 487.815 174.715V105.369H530.678V71.2211H487.552V28.9307Z" fill="#1B1B29"/>
<path d="M644.542 225.148L710.809 71.2207H668.472L623.242 176.028L578.275 71.2207H535.938L602.205 225.148L570.123 299.484H612.46L644.279 225.936H644.805L644.542 225.148Z" fill="#1B1B29"/>
<path d="M387.1 8.44238C374.215 8.44238 363.696 18.9493 363.696 31.8203C363.696 44.6914 374.215 55.1983 387.1 55.1983C399.985 55.1983 410.504 44.6914 410.504 31.8203C410.241 18.9493 399.985 8.44238 387.1 8.44238Z" fill="#1B1B29"/>
<path d="M899.452 158.567C896.827 169.862 890.789 178.792 882.125 185.096C873.199 191.4 861.386 194.552 846.684 194.552C826.469 194.552 810.193 187.723 798.904 174.064C787.353 160.406 781.577 141.232 781.577 117.067C781.577 92.902 787.353 73.7277 798.904 59.8067C810.455 46.1483 826.469 39.0565 846.684 39.0565C861.386 39.0565 873.199 42.4711 882.125 49.3003C891.051 56.1294 896.827 65.5852 899.452 77.405L899.715 77.9303H946.182L945.92 77.1423C941.719 52.9775 930.693 34.0659 913.629 20.6702C896.564 7.2745 874.25 0.445312 847.209 0.445312C824.632 0.445312 803.892 5.43587 787.615 15.1543C771.338 24.8728 758.737 38.7938 750.074 56.3921C741.41 73.7277 736.947 94.2153 736.947 117.067C736.947 139.918 741.41 160.143 750.074 177.479C758.737 194.814 771.338 208.473 787.615 218.191C803.892 227.91 824.632 232.9 847.209 232.9C873.987 232.9 896.302 226.334 913.629 213.201C930.693 200.068 941.719 181.944 945.92 158.83L946.182 157.779H899.715L899.452 158.567Z" fill="#1B1B29"/>
<path d="M1004.46 228.96H963.771V30.3885C963.771 17.5182 974.273 7.01172 987.137 7.01172L1004.73 7.01172V228.96H1004.46Z" fill="#1B1B29"/>
<rect x="1023.63" y="70.8379" width="40.6919" height="158.122" fill="#1B1B29"/>
<path d="M1177.47 67.1611C1164.87 67.1611 1154.11 70.0504 1144.92 75.5663C1136.52 80.5568 1130.22 87.1234 1125.23 95.0032V71.101H1120.5H1084.54V163.82V229.223H1125.23V163.82V147.535C1125.23 133.089 1128.9 121.795 1136.25 113.652C1143.6 105.51 1153.06 101.57 1164.34 101.57C1176.16 101.57 1184.56 105.247 1190.07 112.339C1195.58 119.693 1198.47 129.937 1198.47 143.595V228.96H1239.16V139.656C1239.16 115.753 1233.65 97.8925 1222.89 85.5474C1212.12 73.2023 1196.9 67.1611 1177.47 67.1611Z" fill="#1B1B29"/>
<rect x="1259.38" y="70.8379" width="40.6919" height="158.122" fill="#1B1B29"/>
<path d="M1421.88 191.662C1415.58 195.865 1408.23 197.966 1399.83 197.966C1388.54 197.966 1379.09 193.764 1371.22 185.096C1363.34 176.691 1359.4 164.871 1359.4 149.637C1359.4 134.665 1363.34 122.845 1371.22 114.177C1379.09 105.772 1388.54 101.307 1399.83 101.307C1408.23 101.307 1415.85 103.408 1421.88 107.874C1428.18 112.339 1432.38 118.117 1434.49 125.997H1477.54C1473.6 107.611 1464.94 92.9018 1451.02 82.3954C1437.11 71.889 1420.31 66.6357 1400.09 66.6357C1383.82 66.6357 1369.64 70.0503 1357.3 77.1422C1344.96 84.234 1335.25 93.9525 1328.16 106.56C1321.07 119.168 1317.4 133.352 1317.4 149.637C1317.4 165.922 1321.07 180.105 1328.16 192.713C1335.25 205.321 1344.96 215.039 1357.3 222.131C1369.64 229.223 1383.82 232.637 1400.09 232.637C1420.31 232.637 1437.37 227.122 1451.02 216.352C1464.94 205.583 1473.6 191.137 1477.54 173.276L1434.49 173.276C1432.38 181.419 1428.18 187.46 1421.88 191.662Z" fill="#1B1B29"/>
<path d="M1044.11 8.06152C1031.24 8.06152 1020.74 18.568 1020.74 31.4383C1020.74 44.3087 1031.24 54.8152 1044.11 54.8152C1056.97 54.8152 1067.47 44.3087 1067.47 31.4383C1067.47 18.568 1056.97 8.06152 1044.11 8.06152Z" fill="#1B1B29"/>
<path fill-rule="evenodd" clip-rule="evenodd" d="M1290.82 32.4338C1290.8 32.4079 1275.32 12.4894 1275.3 12.4632C1270.49 6.27426 1261.6 5.18041 1255.44 10.0201C1249.28 14.8597 1248.19 23.8003 1253 29.9894C1253.02 30.0154 1268.49 49.9338 1268.51 49.9599C1273.32 56.149 1282.21 57.243 1288.37 52.4032C1294.53 47.5635 1295.62 38.6228 1290.82 32.4338Z" fill="#1B1B29"/>
<path fill-rule="evenodd" clip-rule="evenodd" d="M1304.51 10.0201C1298.35 5.18045 1289.46 6.27417 1284.65 12.4633C1284.63 12.4862 1269.15 32.411 1269.14 32.4339C1264.33 38.6229 1265.42 47.5635 1271.58 52.4033C1277.74 57.243 1286.63 56.149 1291.44 49.96C1291.46 49.9372 1306.94 30.0123 1306.96 29.9894C1311.76 23.8004 1310.67 14.8596 1304.51 10.0201Z" fill="#1B1B29"/>
</svg>
