<?xml version="1.0" encoding="utf-8"?>
<!-- Generator: Adobe Illustrator 25.2.3, SVG Export Plug-In . SVG Version: 6.00 Build 0)  -->
<svg version="1.1" id="Layer_1" xmlns="http://www.w3.org/2000/svg" xmlns:xlink="http://www.w3.org/1999/xlink" x="0px" y="0px"
	 viewBox="0 0 1149.5 171.7" style="enable-background:new 0 0 1149.5 171.7;" xml:space="preserve">
<style type="text/css">
	.st0{fill:#028AFF;}
	.st1{fill:#0289FF;}
	.st2{fill:#0288FF;}
	.st3{fill:#0287FE;}
	.st4{fill:#0286FE;}
	.st5{fill:#0285FE;}
	.st6{fill:#0284FE;}
	.st7{fill:#0283FE;}
	.st8{fill:#0282FE;}
	.st9{fill:#0281FD;}
	.st10{fill:#0280FD;}
	.st11{fill:#027FFD;}
	.st12{fill:#027EFD;}
	.st13{fill:#027DFD;}
	.st14{fill:#027CFD;}
	.st15{fill:#027BFC;}
	.st16{fill:#027AFC;}
	.st17{fill:#0279FC;}
	.st18{fill:#0278FC;}
	.st19{fill:#0277FC;}
	.st20{fill:#0276FC;}
	.st21{fill:#0275FB;}
	.st22{fill:#0274FB;}
	.st23{fill:#0273FB;}
	.st24{fill:#0272FB;}
	.st25{fill:#0271FB;}
	.st26{fill:#0270FA;}
	.st27{fill:#026FFA;}
	.st28{fill:#026EFA;}
	.st29{fill:#026DFA;}
	.st30{fill:#026CFA;}
	.st31{fill:#026BFA;}
	.st32{fill:#016AF9;}
	.st33{fill:#0169F9;}
	.st34{fill:#0168F9;}
	.st35{fill:#0167F9;}
	.st36{fill:#0166F9;}
	.st37{fill:#0165F9;}
	.st38{fill:#0164F8;}
	.st39{fill:#0163F8;}
	.st40{fill:#0162F8;}
	.st41{fill:#0161F8;}
	.st42{fill:#0160F8;}
	.st43{fill:#015FF7;}
	.st44{fill:#015EF7;}
	.st45{fill:#015DF7;}
	.st46{fill:#015CF7;}
	.st47{fill:#015BF7;}
	.st48{fill:#015AF7;}
	.st49{fill:#0159F6;}
	.st50{fill:#0158F6;}
	.st51{fill:#0157F6;}
	.st52{fill:#0156F6;}
	.st53{fill:#0155F6;}
	.st54{fill:#0154F6;}
	.st55{fill:#0153F5;}
	.st56{fill:#0152F5;}
	.st57{fill:#0151F5;}
	.st58{fill:#0150F5;}
	.st59{fill:#014FF5;}
	.st60{fill:#014EF5;}
	.st61{fill:#014DF4;}
	.st62{fill:#014CF4;}
	.st63{fill:#014BF4;}
	.st64{fill:#014AF4;}
	.st65{fill:#0149F3;}
	.st66{fill:#0148F3;}
	.st67{fill:#0147F3;}
	.st68{fill:#0146F3;}
	.st69{fill:#0145F3;}
	.st70{fill:#0144F3;}
	.st71{fill:#0143F2;}
	.st72{fill:#0142F2;}
	.st73{fill:#0141F2;}
	.st74{fill:#0140F2;}
	.st75{fill:#013FF2;}
	.st76{fill:#013EF2;}
	.st77{fill:#013DF1;}
	.st78{fill:#013CF1;}
	.st79{fill:#013BF1;}
	.st80{fill:#013AF1;}
	.st81{fill:#0139F1;}
	.st82{fill:#0138F1;}
	.st83{fill:#0137F0;}
	.st84{fill:#0136F0;}
	.st85{fill:#0135F0;}
	.st86{fill:#0134F0;}
	.st87{fill:#0133F0;}
	.st88{fill:#0132EF;}
	.st89{fill:#0131EF;}
	.st90{fill:#0130EF;}
	.st91{fill:#012FEF;}
	.st92{fill:#012EEF;}
	.st93{fill:#012DEF;}
	.st94{fill:#002CEE;}
	.st95{fill:#002BEE;}
	.st96{fill:#002AEE;}
	.st97{fill:#0029EE;}
	.st98{fill:#0028EE;}
	.st99{fill:#0027EE;}
	.st100{fill:#0026ED;}
	.st101{fill:#0025ED;}
	.st102{fill:#0024ED;}
	.st103{fill:#0023ED;}
	.st104{fill:#0022ED;}
	.st105{fill:#0021EC;}
	.st106{fill:#0020EC;}
	.st107{fill:#001FEC;}
	.st108{fill:#001EEC;}
	.st109{fill:#001DEC;}
	.st110{fill:#001CEC;}
	.st111{fill:#001BEB;}
	.st112{fill:#001AEB;}
	.st113{fill:#0019EB;}
	.st114{fill:#0018EB;}
	.st115{fill:#0017EB;}
	.st116{fill:#0016EB;}
	.st117{fill:#0015EA;}
	.st118{fill:#0014EA;}
	.st119{fill:#0013EA;}
	.st120{fill:#0012EA;}
	.st121{fill:#0011EA;}
	.st122{fill:#0010EA;}
	.st123{fill:#000FE9;}
	.st124{fill:#000EE9;}
	.st125{fill:#000DE9;}
	.st126{fill:#000DFF;}
	.st127{fill:#000EFF;}
	.st128{fill:#010FFF;}
	.st129{fill:#0110FF;}
	.st130{fill:#0211FF;}
	.st131{fill:#0212FF;}
	.st132{fill:#0313FF;}
	.st133{fill:#0314FF;}
	.st134{fill:#0315FF;}
	.st135{fill:#0416FF;}
	.st136{fill:#0417FF;}
	.st137{fill:#0518FE;}
	.st138{fill:#0519FE;}
	.st139{fill:#061AFE;}
	.st140{fill:#061BFE;}
	.st141{fill:#071CFE;}
	.st142{fill:#071DFE;}
	.st143{fill:#071EFE;}
	.st144{fill:#081FFE;}
	.st145{fill:#0820FE;}
	.st146{fill:#0921FE;}
	.st147{fill:#0922FE;}
	.st148{fill:#0A23FE;}
	.st149{fill:#0A24FE;}
	.st150{fill:#0A25FE;}
	.st151{fill:#0B26FE;}
	.st152{fill:#0B27FE;}
	.st153{fill:#0C28FE;}
	.st154{fill:#0C29FE;}
	.st155{fill:#0D2AFE;}
	.st156{fill:#0D2BFE;}
	.st157{fill:#0D2CFE;}
	.st158{fill:#0E2DFE;}
	.st159{fill:#0E2EFD;}
	.st160{fill:#0F2FFD;}
	.st161{fill:#0F30FD;}
	.st162{fill:#1031FD;}
	.st163{fill:#1032FD;}
	.st164{fill:#1033FD;}
	.st165{fill:#1134FD;}
	.st166{fill:#1135FD;}
	.st167{fill:#1236FD;}
	.st168{fill:#1237FD;}
	.st169{fill:#1338FD;}
	.st170{fill:#1339FD;}
	.st171{fill:#143AFD;}
	.st172{fill:#143BFD;}
	.st173{fill:#143CFD;}
	.st174{fill:#153DFD;}
	.st175{fill:#153EFD;}
	.st176{fill:#163FFD;}
	.st177{fill:#1640FD;}
	.st178{fill:#1741FD;}
	.st179{fill:#1742FD;}
	.st180{fill:#1743FC;}
	.st181{fill:#1844FC;}
	.st182{fill:#1845FC;}
	.st183{fill:#1946FC;}
	.st184{fill:#1947FC;}
	.st185{fill:#1A48FC;}
	.st186{fill:#1A49FC;}
	.st187{fill:#1A4AFC;}
	.st188{fill:#1B4BFC;}
	.st189{fill:#1B4CFC;}
	.st190{fill:#1C4DFC;}
	.st191{fill:#1C4EFC;}
	.st192{fill:#1D4FFC;}
	.st193{fill:#1D50FC;}
	.st194{fill:#1D51FC;}
	.st195{fill:#1E52FC;}
	.st196{fill:#1E53FC;}
	.st197{fill:#1F54FC;}
	.st198{fill:#1F55FC;}
	.st199{fill:#2056FC;}
	.st200{fill:#2057FC;}
	.st201{fill:#2058FC;}
	.st202{fill:#2159FB;}
	.st203{fill:#215AFB;}
	.st204{fill:#225BFB;}
	.st205{fill:#225CFB;}
	.st206{fill:#235DFB;}
	.st207{fill:#235EFB;}
	.st208{fill:#245FFB;}
	.st209{fill:#2460FB;}
	.st210{fill:#2461FB;}
	.st211{fill:#2562FB;}
	.st212{fill:#2563FB;}
	.st213{fill:#2664FB;}
	.st214{fill:#2665FB;}
	.st215{fill:#2766FB;}
	.st216{fill:#2767FB;}
	.st217{fill:#2768FB;}
	.st218{fill:#2869FB;}
	.st219{fill:#286AFB;}
	.st220{fill:#296BFB;}
	.st221{fill:#296CFB;}
	.st222{fill:#2A6DFB;}
	.st223{fill:#2A6EFA;}
	.st224{fill:#2A6FFA;}
	.st225{fill:#2B70FA;}
	.st226{fill:#2B71FA;}
	.st227{fill:#2C72FA;}
	.st228{fill:#2C73FA;}
	.st229{fill:#2D74FA;}
	.st230{fill:#2D75FA;}
	.st231{fill:#2D76FA;}
	.st232{fill:#2E77FA;}
	.st233{fill:#2E78FA;}
	.st234{fill:#2F79FA;}
	.st235{fill:#2F7AFA;}
	.st236{fill:#307BFA;}
	.st237{fill:#307CFA;}
	.st238{fill:#317DFA;}
	.st239{fill:#317EFA;}
	.st240{fill:#317FFA;}
	.st241{fill:#3280FA;}
	.st242{fill:#3281FA;}
	.st243{fill:#3382FA;}
	.st244{fill:#3383F9;}
	.st245{fill:#3484F9;}
	.st246{fill:#3485F9;}
	.st247{fill:#3486F9;}
	.st248{fill:#3587F9;}
	.st249{fill:#3588F9;}
	.st250{fill:#3689F9;}
	.st251{fill:#368AF9;}
	.st252{fill:#378BF9;}
	.st253{fill:#378CF9;}
	.st254{fill:#378DF9;}
	.st255{fill:#388EF9;}
	.st256{fill:#388FF9;}
	.st257{fill:#3990F9;}
	.st258{fill:#3991F9;}
	.st259{fill:#3A92F9;}
	.st260{fill:#3A93F9;}
	.st261{fill:#3A94F9;}
	.st262{fill:#3B95F9;}
	.st263{fill:#3B96F9;}
	.st264{fill:#3C97F9;}
	.st265{fill:#3C98F9;}
	.st266{fill:#3D99F8;}
	.st267{fill:#3D9AF8;}
	.st268{fill:#3E9BF8;}
	.st269{fill:#3E9CF8;}
	.st270{fill:#3E9DF8;}
	.st271{fill:#3F9EF8;}
	.st272{fill:#3F9FF8;}
	.st273{fill:#40A0F8;}
	.st274{fill:#40A1F8;}
	.st275{fill:#41A2F8;}
	.st276{fill:#41A3F8;}
	.st277{fill:url(#SVGID_1_);}
	.st278{fill:#383838;}
</style>
<g>
	<g>
		<g>
			<g>
				<g>
					<path class="st0" d="M10.1,76.9c16.2,20.7,46.1,24.4,66.8,8.2c20.7-16.2,24.4-46.1,8.2-66.8C69-2.4,39-6.1,18.3,10.1
						C-2.4,26.3-6.1,56.2,10.1,76.9z"/>
					
						<ellipse transform="matrix(0.788 -0.6156 0.6156 0.788 -19.4607 39.7675)" class="st1" cx="48" cy="48.1" rx="47.6" ry="47.6"/>
					
						<ellipse transform="matrix(0.788 -0.6156 0.6156 0.788 -19.6993 40.1349)" class="st2" cx="48.4" cy="48.7" rx="47.6" ry="47.6"/>
					
						<ellipse transform="matrix(0.7881 -0.6156 0.6156 0.7881 -19.938 40.5022)" class="st3" cx="48.9" cy="49.2" rx="47.6" ry="47.6"/>
					
						<ellipse transform="matrix(0.7881 -0.6156 0.6156 0.7881 -20.1766 40.8695)" class="st4" cx="49.3" cy="49.7" rx="47.6" ry="47.6"/>
					
						<ellipse transform="matrix(0.7881 -0.6156 0.6156 0.7881 -20.4152 41.2369)" class="st5" cx="49.7" cy="50.3" rx="47.6" ry="47.6"/>
					
						<ellipse transform="matrix(0.7881 -0.6156 0.6156 0.7881 -20.6538 41.6042)" class="st6" cx="50.1" cy="50.8" rx="47.6" ry="47.6"/>
					
						<ellipse transform="matrix(0.7881 -0.6156 0.6156 0.7881 -20.8925 41.9715)" class="st7" cx="50.5" cy="51.3" rx="47.6" ry="47.6"/>
					
						<ellipse transform="matrix(0.7881 -0.6156 0.6156 0.7881 -21.1311 42.3389)" class="st8" cx="50.9" cy="51.9" rx="47.6" ry="47.6"/>
					
						<ellipse transform="matrix(0.7881 -0.6156 0.6156 0.7881 -21.3697 42.7062)" class="st9" cx="51.3" cy="52.4" rx="47.6" ry="47.6"/>
					
						<ellipse transform="matrix(0.7881 -0.6156 0.6156 0.7881 -21.6083 43.0735)" class="st10" cx="51.8" cy="52.9" rx="47.6" ry="47.6"/>
					
						<ellipse transform="matrix(0.7881 -0.6156 0.6156 0.7881 -21.847 43.4408)" class="st11" cx="52.2" cy="53.4" rx="47.6" ry="47.6"/>
					
						<ellipse transform="matrix(0.7881 -0.6156 0.6156 0.7881 -22.0856 43.8081)" class="st12" cx="52.6" cy="54" rx="47.6" ry="47.6"/>
					
						<ellipse transform="matrix(0.7881 -0.6156 0.6156 0.7881 -22.3242 44.1754)" class="st13" cx="53" cy="54.5" rx="47.6" ry="47.6"/>
					
						<ellipse transform="matrix(0.7881 -0.6156 0.6156 0.7881 -22.5628 44.5428)" class="st14" cx="53.4" cy="55" rx="47.6" ry="47.6"/>
					
						<ellipse transform="matrix(0.7881 -0.6156 0.6156 0.7881 -22.8014 44.9101)" class="st15" cx="53.8" cy="55.6" rx="47.6" ry="47.6"/>
					
						<ellipse transform="matrix(0.7881 -0.6156 0.6156 0.7881 -23.04 45.2774)" class="st16" cx="54.2" cy="56.1" rx="47.6" ry="47.6"/>
					
						<ellipse transform="matrix(0.7881 -0.6156 0.6156 0.7881 -23.2787 45.6447)" class="st17" cx="54.7" cy="56.6" rx="47.6" ry="47.6"/>
					
						<ellipse transform="matrix(0.7881 -0.6156 0.6156 0.7881 -23.5173 46.012)" class="st18" cx="55.1" cy="57.2" rx="47.6" ry="47.6"/>
					
						<ellipse transform="matrix(0.7881 -0.6156 0.6156 0.7881 -23.7559 46.3793)" class="st19" cx="55.5" cy="57.7" rx="47.6" ry="47.6"/>
					
						<ellipse transform="matrix(0.7881 -0.6156 0.6156 0.7881 -23.9945 46.7466)" class="st20" cx="55.9" cy="58.2" rx="47.6" ry="47.6"/>
					
						<ellipse transform="matrix(0.7881 -0.6156 0.6156 0.7881 -24.2331 47.1139)" class="st21" cx="56.3" cy="58.8" rx="47.6" ry="47.6"/>
					
						<ellipse transform="matrix(0.7881 -0.6156 0.6156 0.7881 -24.4717 47.4812)" class="st22" cx="56.7" cy="59.3" rx="47.6" ry="47.6"/>
					
						<ellipse transform="matrix(0.7881 -0.6156 0.6156 0.7881 -24.7104 47.8485)" class="st23" cx="57.1" cy="59.8" rx="47.6" ry="47.6"/>
					
						<ellipse transform="matrix(0.7881 -0.6156 0.6156 0.7881 -24.949 48.2158)" class="st24" cx="57.6" cy="60.3" rx="47.6" ry="47.6"/>
					
						<ellipse transform="matrix(0.7881 -0.6156 0.6156 0.7881 -25.1876 48.5831)" class="st25" cx="58" cy="60.9" rx="47.6" ry="47.6"/>
					
						<ellipse transform="matrix(0.7881 -0.6156 0.6156 0.7881 -25.4262 48.9503)" class="st26" cx="58.4" cy="61.4" rx="47.6" ry="47.6"/>
					
						<ellipse transform="matrix(0.7881 -0.6156 0.6156 0.7881 -25.6648 49.3176)" class="st27" cx="58.8" cy="61.9" rx="47.6" ry="47.6"/>
					
						<ellipse transform="matrix(0.7881 -0.6156 0.6156 0.7881 -25.9034 49.6849)" class="st28" cx="59.2" cy="62.5" rx="47.6" ry="47.6"/>
					
						<ellipse transform="matrix(0.7881 -0.6156 0.6156 0.7881 -26.142 50.0522)" class="st29" cx="59.6" cy="63" rx="47.6" ry="47.6"/>
					
						<ellipse transform="matrix(0.7881 -0.6156 0.6156 0.7881 -26.3806 50.4195)" class="st30" cx="60" cy="63.5" rx="47.6" ry="47.6"/>
					
						<ellipse transform="matrix(0.7881 -0.6156 0.6156 0.7881 -26.6193 50.7868)" class="st31" cx="60.5" cy="64.1" rx="47.6" ry="47.6"/>
					
						<ellipse transform="matrix(0.7881 -0.6156 0.6156 0.7881 -26.8579 51.154)" class="st32" cx="60.9" cy="64.6" rx="47.6" ry="47.6"/>
					
						<ellipse transform="matrix(0.7881 -0.6156 0.6156 0.7881 -27.0965 51.5213)" class="st33" cx="61.3" cy="65.1" rx="47.6" ry="47.6"/>
					
						<ellipse transform="matrix(0.7881 -0.6156 0.6156 0.7881 -27.3351 51.8886)" class="st34" cx="61.7" cy="65.6" rx="47.6" ry="47.6"/>
					
						<ellipse transform="matrix(0.7881 -0.6156 0.6156 0.7881 -27.5737 52.2558)" class="st35" cx="62.1" cy="66.2" rx="47.6" ry="47.6"/>
					
						<ellipse transform="matrix(0.7881 -0.6156 0.6156 0.7881 -27.8123 52.6231)" class="st36" cx="62.5" cy="66.7" rx="47.6" ry="47.6"/>
					
						<ellipse transform="matrix(0.7881 -0.6156 0.6156 0.7881 -28.0509 52.9904)" class="st37" cx="62.9" cy="67.2" rx="47.6" ry="47.6"/>
					
						<ellipse transform="matrix(0.7881 -0.6156 0.6156 0.7881 -28.2895 53.3576)" class="st38" cx="63.4" cy="67.8" rx="47.6" ry="47.6"/>
					
						<ellipse transform="matrix(0.7881 -0.6156 0.6156 0.7881 -28.5281 53.7249)" class="st39" cx="63.8" cy="68.3" rx="47.6" ry="47.6"/>
					
						<ellipse transform="matrix(0.7881 -0.6156 0.6156 0.7881 -28.7667 54.0921)" class="st40" cx="64.2" cy="68.8" rx="47.6" ry="47.6"/>
					
						<ellipse transform="matrix(0.7881 -0.6156 0.6156 0.7881 -29.0053 54.4594)" class="st41" cx="64.6" cy="69.4" rx="47.6" ry="47.6"/>
					
						<ellipse transform="matrix(0.7881 -0.6156 0.6156 0.7881 -29.2439 54.8267)" class="st42" cx="65" cy="69.9" rx="47.6" ry="47.6"/>
					
						<ellipse transform="matrix(0.7881 -0.6156 0.6156 0.7881 -29.4825 55.1939)" class="st43" cx="65.4" cy="70.4" rx="47.6" ry="47.6"/>
					
						<ellipse transform="matrix(0.7881 -0.6156 0.6156 0.7881 -29.7211 55.5612)" class="st44" cx="65.8" cy="70.9" rx="47.6" ry="47.6"/>
					
						<ellipse transform="matrix(0.7881 -0.6156 0.6156 0.7881 -29.9597 55.9284)" class="st45" cx="66.3" cy="71.5" rx="47.6" ry="47.6"/>
					
						<ellipse transform="matrix(0.7881 -0.6156 0.6156 0.7881 -30.1983 56.2956)" class="st46" cx="66.7" cy="72" rx="47.6" ry="47.6"/>
					
						<ellipse transform="matrix(0.7881 -0.6156 0.6156 0.7881 -30.4369 56.6629)" class="st47" cx="67.1" cy="72.5" rx="47.6" ry="47.6"/>
					
						<ellipse transform="matrix(0.7881 -0.6156 0.6156 0.7881 -30.6755 57.0301)" class="st48" cx="67.5" cy="73.1" rx="47.6" ry="47.6"/>
					
						<ellipse transform="matrix(0.7881 -0.6156 0.6156 0.7881 -30.9141 57.3974)" class="st49" cx="67.9" cy="73.6" rx="47.6" ry="47.6"/>
					
						<ellipse transform="matrix(0.7881 -0.6156 0.6156 0.7881 -31.1527 57.7646)" class="st50" cx="68.3" cy="74.1" rx="47.6" ry="47.6"/>
					
						<ellipse transform="matrix(0.7881 -0.6155 0.6155 0.7881 -31.3913 58.1318)" class="st51" cx="68.7" cy="74.7" rx="47.6" ry="47.6"/>
					
						<ellipse transform="matrix(0.7881 -0.6155 0.6155 0.7881 -31.6299 58.4991)" class="st52" cx="69.2" cy="75.2" rx="47.6" ry="47.6"/>
					
						<ellipse transform="matrix(0.7881 -0.6155 0.6155 0.7881 -31.8685 58.8663)" class="st53" cx="69.6" cy="75.7" rx="47.6" ry="47.6"/>
					
						<ellipse transform="matrix(0.7881 -0.6155 0.6155 0.7881 -32.1071 59.2335)" class="st54" cx="70" cy="76.3" rx="47.6" ry="47.6"/>
					
						<ellipse transform="matrix(0.7881 -0.6155 0.6155 0.7881 -32.3457 59.6008)" class="st55" cx="70.4" cy="76.8" rx="47.6" ry="47.6"/>
					
						<ellipse transform="matrix(0.7881 -0.6155 0.6155 0.7881 -32.5843 59.968)" class="st56" cx="70.8" cy="77.3" rx="47.6" ry="47.6"/>
					
						<ellipse transform="matrix(0.7881 -0.6155 0.6155 0.7881 -32.8229 60.3352)" class="st57" cx="71.2" cy="77.8" rx="47.6" ry="47.6"/>
					
						<ellipse transform="matrix(0.7881 -0.6155 0.6155 0.7881 -33.0615 60.7024)" class="st58" cx="71.6" cy="78.4" rx="47.6" ry="47.6"/>
					
						<ellipse transform="matrix(0.7881 -0.6155 0.6155 0.7881 -33.3001 61.0696)" class="st59" cx="72.1" cy="78.9" rx="47.6" ry="47.6"/>
					
						<ellipse transform="matrix(0.7881 -0.6155 0.6155 0.7881 -33.5387 61.4369)" class="st60" cx="72.5" cy="79.4" rx="47.6" ry="47.6"/>
					
						<ellipse transform="matrix(0.7881 -0.6155 0.6155 0.7881 -33.7773 61.8041)" class="st61" cx="72.9" cy="80" rx="47.6" ry="47.6"/>
					
						<ellipse transform="matrix(0.7881 -0.6155 0.6155 0.7881 -34.0159 62.1713)" class="st62" cx="73.3" cy="80.5" rx="47.6" ry="47.6"/>
					
						<ellipse transform="matrix(0.7881 -0.6155 0.6155 0.7881 -34.2545 62.5385)" class="st62" cx="73.7" cy="81" rx="47.6" ry="47.6"/>
					
						<ellipse transform="matrix(0.7881 -0.6155 0.6155 0.7881 -34.4931 62.9057)" class="st63" cx="74.1" cy="81.6" rx="47.6" ry="47.6"/>
					
						<ellipse transform="matrix(0.7881 -0.6155 0.6155 0.7881 -34.7317 63.2729)" class="st64" cx="74.5" cy="82.1" rx="47.6" ry="47.6"/>
					
						<ellipse transform="matrix(0.7881 -0.6155 0.6155 0.7881 -34.9703 63.6401)" class="st65" cx="75" cy="82.6" rx="47.6" ry="47.6"/>
					
						<ellipse transform="matrix(0.7881 -0.6155 0.6155 0.7881 -35.2089 64.0073)" class="st66" cx="75.4" cy="83.1" rx="47.6" ry="47.6"/>
					
						<ellipse transform="matrix(0.7881 -0.6155 0.6155 0.7881 -35.4475 64.3745)" class="st67" cx="75.8" cy="83.7" rx="47.6" ry="47.6"/>
					
						<ellipse transform="matrix(0.7881 -0.6155 0.6155 0.7881 -35.6861 64.7417)" class="st68" cx="76.2" cy="84.2" rx="47.6" ry="47.6"/>
					
						<ellipse transform="matrix(0.7881 -0.6155 0.6155 0.7881 -35.9246 65.1089)" class="st69" cx="76.6" cy="84.7" rx="47.6" ry="47.6"/>
					
						<ellipse transform="matrix(0.7881 -0.6155 0.6155 0.7881 -36.1632 65.4761)" class="st70" cx="77" cy="85.3" rx="47.6" ry="47.6"/>
					
						<ellipse transform="matrix(0.7881 -0.6155 0.6155 0.7881 -36.4018 65.8433)" class="st71" cx="77.4" cy="85.8" rx="47.6" ry="47.6"/>
					
						<ellipse transform="matrix(0.7881 -0.6155 0.6155 0.7881 -36.6404 66.2105)" class="st72" cx="77.9" cy="86.3" rx="47.6" ry="47.6"/>
					
						<ellipse transform="matrix(0.7881 -0.6155 0.6155 0.7881 -36.879 66.5777)" class="st73" cx="78.3" cy="86.9" rx="47.6" ry="47.6"/>
					
						<ellipse transform="matrix(0.7881 -0.6155 0.6155 0.7881 -37.1176 66.9448)" class="st74" cx="78.7" cy="87.4" rx="47.6" ry="47.6"/>
					
						<ellipse transform="matrix(0.7881 -0.6155 0.6155 0.7881 -37.3562 67.312)" class="st75" cx="79.1" cy="87.9" rx="47.6" ry="47.6"/>
					
						<ellipse transform="matrix(0.7881 -0.6155 0.6155 0.7881 -37.5948 67.6792)" class="st76" cx="79.5" cy="88.4" rx="47.6" ry="47.6"/>
					
						<ellipse transform="matrix(0.7881 -0.6155 0.6155 0.7881 -37.8333 68.0464)" class="st77" cx="79.9" cy="89" rx="47.6" ry="47.6"/>
					
						<ellipse transform="matrix(0.7881 -0.6155 0.6155 0.7881 -38.0719 68.4136)" class="st78" cx="80.3" cy="89.5" rx="47.6" ry="47.6"/>
					
						<ellipse transform="matrix(0.7881 -0.6155 0.6155 0.7881 -38.3105 68.7807)" class="st79" cx="80.8" cy="90" rx="47.6" ry="47.6"/>
					
						<ellipse transform="matrix(0.7881 -0.6155 0.6155 0.7881 -38.5491 69.1479)" class="st80" cx="81.2" cy="90.6" rx="47.6" ry="47.6"/>
					
						<ellipse transform="matrix(0.7881 -0.6155 0.6155 0.7881 -38.7877 69.5151)" class="st81" cx="81.6" cy="91.1" rx="47.6" ry="47.6"/>
					
						<ellipse transform="matrix(0.7881 -0.6155 0.6155 0.7881 -39.0263 69.8822)" class="st82" cx="82" cy="91.6" rx="47.6" ry="47.6"/>
					
						<ellipse transform="matrix(0.7881 -0.6155 0.6155 0.7881 -39.2648 70.2494)" class="st83" cx="82.4" cy="92.2" rx="47.6" ry="47.6"/>
					
						<ellipse transform="matrix(0.7881 -0.6155 0.6155 0.7881 -39.5034 70.6166)" class="st84" cx="82.8" cy="92.7" rx="47.6" ry="47.6"/>
					
						<ellipse transform="matrix(0.7881 -0.6155 0.6155 0.7881 -39.742 70.9837)" class="st85" cx="83.2" cy="93.2" rx="47.6" ry="47.6"/>
					
						<ellipse transform="matrix(0.7881 -0.6155 0.6155 0.7881 -39.9806 71.3509)" class="st86" cx="83.7" cy="93.8" rx="47.6" ry="47.6"/>
					
						<ellipse transform="matrix(0.7881 -0.6155 0.6155 0.7881 -40.2192 71.718)" class="st87" cx="84.1" cy="94.3" rx="47.6" ry="47.6"/>
					
						<ellipse transform="matrix(0.7881 -0.6155 0.6155 0.7881 -40.4577 72.0852)" class="st88" cx="84.5" cy="94.8" rx="47.6" ry="47.6"/>
					
						<ellipse transform="matrix(0.7881 -0.6155 0.6155 0.7881 -40.6963 72.4523)" class="st89" cx="84.9" cy="95.3" rx="47.6" ry="47.6"/>
					
						<ellipse transform="matrix(0.7881 -0.6155 0.6155 0.7881 -40.9349 72.8195)" class="st90" cx="85.3" cy="95.9" rx="47.6" ry="47.6"/>
					
						<ellipse transform="matrix(0.7881 -0.6155 0.6155 0.7881 -41.1735 73.1866)" class="st91" cx="85.7" cy="96.4" rx="47.6" ry="47.6"/>
					
						<ellipse transform="matrix(0.7881 -0.6155 0.6155 0.7881 -41.4121 73.5538)" class="st92" cx="86.1" cy="96.9" rx="47.6" ry="47.6"/>
					
						<ellipse transform="matrix(0.7881 -0.6155 0.6155 0.7881 -41.6506 73.9209)" class="st93" cx="86.6" cy="97.5" rx="47.6" ry="47.6"/>
					
						<ellipse transform="matrix(0.7881 -0.6155 0.6155 0.7881 -41.8892 74.2881)" class="st94" cx="87" cy="98" rx="47.6" ry="47.6"/>
					
						<ellipse transform="matrix(0.7881 -0.6155 0.6155 0.7881 -42.1278 74.6552)" class="st95" cx="87.4" cy="98.5" rx="47.6" ry="47.6"/>
					
						<ellipse transform="matrix(0.7881 -0.6155 0.6155 0.7881 -42.3664 75.0223)" class="st96" cx="87.8" cy="99.1" rx="47.6" ry="47.6"/>
					
						<ellipse transform="matrix(0.7881 -0.6155 0.6155 0.7881 -42.6049 75.3895)" class="st97" cx="88.2" cy="99.6" rx="47.6" ry="47.6"/>
					
						<ellipse transform="matrix(0.7881 -0.6155 0.6155 0.7881 -42.8435 75.7566)" class="st98" cx="88.6" cy="100.1" rx="47.6" ry="47.6"/>
					
						<ellipse transform="matrix(0.7881 -0.6155 0.6155 0.7881 -43.0821 76.1237)" class="st99" cx="89" cy="100.6" rx="47.6" ry="47.6"/>
					
						<ellipse transform="matrix(0.7881 -0.6155 0.6155 0.7881 -43.3207 76.4909)" class="st100" cx="89.5" cy="101.2" rx="47.6" ry="47.6"/>
					
						<ellipse transform="matrix(0.7881 -0.6155 0.6155 0.7881 -43.5592 76.858)" class="st101" cx="89.9" cy="101.7" rx="47.6" ry="47.6"/>
					
						<ellipse transform="matrix(0.7881 -0.6155 0.6155 0.7881 -43.7978 77.2251)" class="st102" cx="90.3" cy="102.2" rx="47.6" ry="47.6"/>
					
						<ellipse transform="matrix(0.7882 -0.6155 0.6155 0.7882 -44.0364 77.5923)" class="st103" cx="90.7" cy="102.8" rx="47.6" ry="47.6"/>
					
						<ellipse transform="matrix(0.7882 -0.6155 0.6155 0.7882 -44.275 77.9594)" class="st104" cx="91.1" cy="103.3" rx="47.6" ry="47.6"/>
					
						<ellipse transform="matrix(0.7882 -0.6155 0.6155 0.7882 -44.5135 78.3265)" class="st105" cx="91.5" cy="103.8" rx="47.6" ry="47.6"/>
					
						<ellipse transform="matrix(0.7882 -0.6155 0.6155 0.7882 -44.7521 78.6936)" class="st106" cx="91.9" cy="104.4" rx="47.6" ry="47.6"/>
					
						<ellipse transform="matrix(0.7882 -0.6155 0.6155 0.7882 -44.9907 79.0607)" class="st107" cx="92.4" cy="104.9" rx="47.6" ry="47.6"/>
					
						<ellipse transform="matrix(0.7882 -0.6155 0.6155 0.7882 -45.2292 79.4278)" class="st108" cx="92.8" cy="105.4" rx="47.6" ry="47.6"/>
					
						<ellipse transform="matrix(0.7882 -0.6155 0.6155 0.7882 -45.4678 79.7949)" class="st109" cx="93.2" cy="105.9" rx="47.6" ry="47.6"/>
					
						<ellipse transform="matrix(0.7882 -0.6155 0.6155 0.7882 -45.7064 80.1621)" class="st110" cx="93.6" cy="106.5" rx="47.6" ry="47.6"/>
					
						<ellipse transform="matrix(0.7882 -0.6155 0.6155 0.7882 -45.9449 80.5292)" class="st111" cx="94" cy="107" rx="47.6" ry="47.6"/>
					
						<ellipse transform="matrix(0.7882 -0.6155 0.6155 0.7882 -46.1835 80.8963)" class="st112" cx="94.4" cy="107.5" rx="47.6" ry="47.6"/>
					
						<ellipse transform="matrix(0.7882 -0.6155 0.6155 0.7882 -46.4221 81.2634)" class="st113" cx="94.8" cy="108.1" rx="47.6" ry="47.6"/>
					
						<ellipse transform="matrix(0.7882 -0.6155 0.6155 0.7882 -46.6606 81.6305)" class="st114" cx="95.3" cy="108.6" rx="47.6" ry="47.6"/>
					
						<ellipse transform="matrix(0.7882 -0.6155 0.6155 0.7882 -46.8992 81.9976)" class="st115" cx="95.7" cy="109.1" rx="47.6" ry="47.6"/>
					
						<ellipse transform="matrix(0.7882 -0.6155 0.6155 0.7882 -47.1378 82.3647)" class="st116" cx="96.1" cy="109.7" rx="47.6" ry="47.6"/>
					
						<ellipse transform="matrix(0.7882 -0.6155 0.6155 0.7882 -47.3763 82.7318)" class="st117" cx="96.5" cy="110.2" rx="47.6" ry="47.6"/>
					
						<ellipse transform="matrix(0.7882 -0.6155 0.6155 0.7882 -47.6149 83.0988)" class="st118" cx="96.9" cy="110.7" rx="47.6" ry="47.6"/>
					
						<ellipse transform="matrix(0.7882 -0.6155 0.6155 0.7882 -47.8535 83.4659)" class="st119" cx="97.3" cy="111.2" rx="47.6" ry="47.6"/>
					
						<ellipse transform="matrix(0.7882 -0.6155 0.6155 0.7882 -48.092 83.833)" class="st120" cx="97.7" cy="111.8" rx="47.6" ry="47.6"/>
					
						<ellipse transform="matrix(0.7882 -0.6155 0.6155 0.7882 -48.3306 84.2001)" class="st121" cx="98.2" cy="112.3" rx="47.6" ry="47.6"/>
					
						<ellipse transform="matrix(0.7882 -0.6155 0.6155 0.7882 -48.5691 84.5672)" class="st122" cx="98.6" cy="112.8" rx="47.6" ry="47.6"/>
					
						<ellipse transform="matrix(0.7882 -0.6155 0.6155 0.7882 -48.8077 84.9343)" class="st123" cx="99" cy="113.4" rx="47.6" ry="47.6"/>
					
						<ellipse transform="matrix(0.7882 -0.6155 0.6155 0.7882 -49.0463 85.3013)" class="st124" cx="99.4" cy="113.9" rx="47.6" ry="47.6"/>
					<path class="st125" d="M62.3,143.8c16.2,20.7,46.1,24.4,66.8,8.2c20.7-16.2,24.4-46.1,8.2-66.8c-16.2-20.7-46.1-24.4-66.8-8.2
						C49.8,93.1,46.1,123,62.3,143.8z"/>
				</g>
				<g>
					<path class="st126" d="M129.1,76.9c-20.7-16.2-50.6-12.5-66.8,8.2c-16.2,20.7-12.5,50.6,8.2,66.8c20.7,16.2,50.6,12.5,66.8-8.2
						C153.5,123,149.8,93.1,129.1,76.9z"/>
					
						<ellipse transform="matrix(0.6146 -0.7888 0.7888 0.6146 -51.3159 122.9343)" class="st127" cx="100.2" cy="114" rx="47.6" ry="47.6"/>
					
						<ellipse transform="matrix(0.6146 -0.7888 0.7888 0.6146 -50.8304 123.0372)" class="st128" cx="100.5" cy="113.5" rx="47.6" ry="47.6"/>
					
						<ellipse transform="matrix(0.6146 -0.7888 0.7888 0.6146 -50.3449 123.1402)" class="st129" cx="100.9" cy="113.1" rx="47.6" ry="47.6"/>
					
						<ellipse transform="matrix(0.6146 -0.7888 0.7888 0.6146 -49.8594 123.2431)" class="st130" cx="101.2" cy="112.6" rx="47.6" ry="47.6"/>
					
						<ellipse transform="matrix(0.6146 -0.7888 0.7888 0.6146 -49.3739 123.3461)" class="st131" cx="101.6" cy="112.2" rx="47.6" ry="47.6"/>
					
						<ellipse transform="matrix(0.6146 -0.7888 0.7888 0.6146 -48.8884 123.449)" class="st132" cx="101.9" cy="111.8" rx="47.6" ry="47.6"/>
					
						<ellipse transform="matrix(0.6146 -0.7888 0.7888 0.6146 -48.4029 123.5519)" class="st133" cx="102.2" cy="111.3" rx="47.6" ry="47.6"/>
					
						<ellipse transform="matrix(0.6146 -0.7888 0.7888 0.6146 -47.9174 123.6549)" class="st134" cx="102.6" cy="110.9" rx="47.6" ry="47.6"/>
					
						<ellipse transform="matrix(0.6146 -0.7888 0.7888 0.6146 -47.4319 123.7578)" class="st135" cx="102.9" cy="110.4" rx="47.6" ry="47.6"/>
					
						<ellipse transform="matrix(0.6146 -0.7888 0.7888 0.6146 -46.9464 123.8608)" class="st136" cx="103.3" cy="110" rx="47.6" ry="47.6"/>
					
						<ellipse transform="matrix(0.6146 -0.7888 0.7888 0.6146 -46.4609 123.9637)" class="st137" cx="103.6" cy="109.5" rx="47.6" ry="47.6"/>
					
						<ellipse transform="matrix(0.6146 -0.7888 0.7888 0.6146 -45.9754 124.0667)" class="st138" cx="104" cy="109.1" rx="47.6" ry="47.6"/>
					
						<ellipse transform="matrix(0.6146 -0.7888 0.7888 0.6146 -45.4899 124.1696)" class="st139" cx="104.3" cy="108.6" rx="47.6" ry="47.6"/>
					
						<ellipse transform="matrix(0.6146 -0.7888 0.7888 0.6146 -45.0044 124.2725)" class="st140" cx="104.7" cy="108.2" rx="47.6" ry="47.6"/>
					
						<ellipse transform="matrix(0.6146 -0.7888 0.7888 0.6146 -44.5189 124.3755)" class="st141" cx="105" cy="107.7" rx="47.6" ry="47.6"/>
					
						<ellipse transform="matrix(0.6146 -0.7888 0.7888 0.6146 -44.0334 124.4784)" class="st142" cx="105.4" cy="107.3" rx="47.6" ry="47.6"/>
					
						<ellipse transform="matrix(0.6146 -0.7888 0.7888 0.6146 -43.5479 124.5814)" class="st143" cx="105.7" cy="106.9" rx="47.6" ry="47.6"/>
					
						<ellipse transform="matrix(0.6146 -0.7888 0.7888 0.6146 -43.0624 124.6843)" class="st144" cx="106.1" cy="106.4" rx="47.6" ry="47.6"/>
					
						<ellipse transform="matrix(0.6146 -0.7888 0.7888 0.6146 -42.5769 124.7873)" class="st145" cx="106.4" cy="106" rx="47.6" ry="47.6"/>
					
						<ellipse transform="matrix(0.6146 -0.7888 0.7888 0.6146 -42.0914 124.8902)" class="st146" cx="106.8" cy="105.5" rx="47.6" ry="47.6"/>
					
						<ellipse transform="matrix(0.6146 -0.7888 0.7888 0.6146 -41.6059 124.9931)" class="st147" cx="107.1" cy="105.1" rx="47.6" ry="47.6"/>
					
						<ellipse transform="matrix(0.6146 -0.7888 0.7888 0.6146 -41.1204 125.0961)" class="st148" cx="107.5" cy="104.6" rx="47.6" ry="47.6"/>
					
						<ellipse transform="matrix(0.6146 -0.7888 0.7888 0.6146 -40.6349 125.199)" class="st149" cx="107.8" cy="104.2" rx="47.6" ry="47.6"/>
					
						<ellipse transform="matrix(0.6146 -0.7888 0.7888 0.6146 -40.1494 125.302)" class="st150" cx="108.2" cy="103.7" rx="47.6" ry="47.6"/>
					
						<ellipse transform="matrix(0.6146 -0.7888 0.7888 0.6146 -39.6639 125.4049)" class="st151" cx="108.5" cy="103.3" rx="47.6" ry="47.6"/>
					
						<ellipse transform="matrix(0.6146 -0.7888 0.7888 0.6146 -39.1784 125.5079)" class="st152" cx="108.9" cy="102.9" rx="47.6" ry="47.6"/>
					
						<ellipse transform="matrix(0.6146 -0.7888 0.7888 0.6146 -38.6928 125.6108)" class="st153" cx="109.2" cy="102.4" rx="47.6" ry="47.6"/>
					
						<ellipse transform="matrix(0.6146 -0.7888 0.7888 0.6146 -38.2073 125.7137)" class="st154" cx="109.6" cy="102" rx="47.6" ry="47.6"/>
					
						<ellipse transform="matrix(0.6146 -0.7888 0.7888 0.6146 -37.7218 125.8167)" class="st155" cx="109.9" cy="101.5" rx="47.6" ry="47.6"/>
					
						<ellipse transform="matrix(0.6146 -0.7888 0.7888 0.6146 -37.2363 125.9196)" class="st156" cx="110.3" cy="101.1" rx="47.6" ry="47.6"/>
					
						<ellipse transform="matrix(0.6146 -0.7888 0.7888 0.6146 -36.7508 126.0226)" class="st157" cx="110.6" cy="100.6" rx="47.6" ry="47.6"/>
					
						<ellipse transform="matrix(0.6146 -0.7888 0.7888 0.6146 -36.2653 126.1255)" class="st158" cx="110.9" cy="100.2" rx="47.6" ry="47.6"/>
					
						<ellipse transform="matrix(0.6146 -0.7888 0.7888 0.6146 -35.7798 126.2284)" class="st159" cx="111.3" cy="99.7" rx="47.6" ry="47.6"/>
					
						<ellipse transform="matrix(0.6146 -0.7888 0.7888 0.6146 -35.2943 126.3314)" class="st160" cx="111.6" cy="99.3" rx="47.6" ry="47.6"/>
					
						<ellipse transform="matrix(0.6146 -0.7888 0.7888 0.6146 -34.8087 126.4343)" class="st161" cx="112" cy="98.8" rx="47.6" ry="47.6"/>
					
						<ellipse transform="matrix(0.6146 -0.7888 0.7888 0.6146 -34.3232 126.5372)" class="st162" cx="112.3" cy="98.4" rx="47.6" ry="47.6"/>
					
						<ellipse transform="matrix(0.6146 -0.7888 0.7888 0.6146 -33.8377 126.6402)" class="st163" cx="112.7" cy="98" rx="47.6" ry="47.6"/>
					
						<ellipse transform="matrix(0.6146 -0.7888 0.7888 0.6146 -33.3522 126.7431)" class="st164" cx="113" cy="97.5" rx="47.6" ry="47.6"/>
					
						<ellipse transform="matrix(0.6146 -0.7888 0.7888 0.6146 -32.8667 126.8461)" class="st165" cx="113.4" cy="97.1" rx="47.6" ry="47.6"/>
					
						<ellipse transform="matrix(0.6146 -0.7888 0.7888 0.6146 -32.3812 126.949)" class="st166" cx="113.7" cy="96.6" rx="47.6" ry="47.6"/>
					
						<ellipse transform="matrix(0.6146 -0.7888 0.7888 0.6146 -31.8956 127.0519)" class="st167" cx="114.1" cy="96.2" rx="47.6" ry="47.6"/>
					
						<ellipse transform="matrix(0.6146 -0.7888 0.7888 0.6146 -31.4101 127.1549)" class="st168" cx="114.4" cy="95.7" rx="47.6" ry="47.6"/>
					
						<ellipse transform="matrix(0.6146 -0.7888 0.7888 0.6146 -30.9246 127.2578)" class="st169" cx="114.8" cy="95.3" rx="47.6" ry="47.6"/>
					
						<ellipse transform="matrix(0.6146 -0.7888 0.7888 0.6146 -30.4391 127.3608)" class="st170" cx="115.1" cy="94.8" rx="47.6" ry="47.6"/>
					
						<ellipse transform="matrix(0.6146 -0.7888 0.7888 0.6146 -29.9536 127.4637)" class="st171" cx="115.5" cy="94.4" rx="47.6" ry="47.6"/>
					
						<ellipse transform="matrix(0.6146 -0.7888 0.7888 0.6146 -29.468 127.5666)" class="st172" cx="115.8" cy="93.9" rx="47.6" ry="47.6"/>
					
						<ellipse transform="matrix(0.6146 -0.7888 0.7888 0.6146 -28.9825 127.6696)" class="st173" cx="116.2" cy="93.5" rx="47.6" ry="47.6"/>
					
						<ellipse transform="matrix(0.6146 -0.7888 0.7888 0.6146 -28.497 127.7725)" class="st174" cx="116.5" cy="93.1" rx="47.6" ry="47.6"/>
					
						<ellipse transform="matrix(0.6146 -0.7888 0.7888 0.6146 -28.0115 127.8755)" class="st175" cx="116.9" cy="92.6" rx="47.6" ry="47.6"/>
					
						<ellipse transform="matrix(0.6146 -0.7888 0.7888 0.6146 -27.5259 127.9784)" class="st176" cx="117.2" cy="92.2" rx="47.6" ry="47.6"/>
					
						<ellipse transform="matrix(0.6146 -0.7888 0.7888 0.6146 -27.0404 128.0813)" class="st177" cx="117.6" cy="91.7" rx="47.6" ry="47.6"/>
					
						<ellipse transform="matrix(0.6146 -0.7888 0.7888 0.6146 -26.5549 128.1843)" class="st178" cx="117.9" cy="91.3" rx="47.6" ry="47.6"/>
					
						<ellipse transform="matrix(0.6146 -0.7888 0.7888 0.6146 -26.0694 128.2872)" class="st179" cx="118.3" cy="90.8" rx="47.6" ry="47.6"/>
					
						<ellipse transform="matrix(0.6146 -0.7888 0.7888 0.6146 -25.5838 128.3901)" class="st180" cx="118.6" cy="90.4" rx="47.6" ry="47.6"/>
					
						<ellipse transform="matrix(0.6146 -0.7888 0.7888 0.6146 -25.0983 128.4931)" class="st181" cx="119" cy="89.9" rx="47.6" ry="47.6"/>
					
						<ellipse transform="matrix(0.6146 -0.7888 0.7888 0.6146 -24.6128 128.596)" class="st182" cx="119.3" cy="89.5" rx="47.6" ry="47.6"/>
					
						<ellipse transform="matrix(0.6146 -0.7888 0.7888 0.6146 -24.1272 128.6989)" class="st183" cx="119.6" cy="89" rx="47.6" ry="47.6"/>
					
						<ellipse transform="matrix(0.6146 -0.7888 0.7888 0.6146 -23.6417 128.8019)" class="st184" cx="120" cy="88.6" rx="47.6" ry="47.6"/>
					
						<ellipse transform="matrix(0.6146 -0.7888 0.7888 0.6146 -23.1562 128.9048)" class="st185" cx="120.3" cy="88.2" rx="47.6" ry="47.6"/>
					
						<ellipse transform="matrix(0.6146 -0.7888 0.7888 0.6146 -22.6707 129.0078)" class="st186" cx="120.7" cy="87.7" rx="47.6" ry="47.6"/>
					
						<ellipse transform="matrix(0.6146 -0.7888 0.7888 0.6146 -22.1851 129.1107)" class="st187" cx="121" cy="87.3" rx="47.6" ry="47.6"/>
					
						<ellipse transform="matrix(0.6146 -0.7888 0.7888 0.6146 -21.6996 129.2136)" class="st188" cx="121.4" cy="86.8" rx="47.6" ry="47.6"/>
					
						<ellipse transform="matrix(0.6146 -0.7888 0.7888 0.6146 -21.2141 129.3166)" class="st189" cx="121.7" cy="86.4" rx="47.6" ry="47.6"/>
					
						<ellipse transform="matrix(0.6146 -0.7888 0.7888 0.6146 -20.7285 129.4195)" class="st190" cx="122.1" cy="85.9" rx="47.6" ry="47.6"/>
					
						<ellipse transform="matrix(0.6146 -0.7888 0.7888 0.6146 -20.243 129.5224)" class="st191" cx="122.4" cy="85.5" rx="47.6" ry="47.6"/>
					
						<ellipse transform="matrix(0.6146 -0.7888 0.7888 0.6146 -19.7575 129.6254)" class="st192" cx="122.8" cy="85" rx="47.6" ry="47.6"/>
					
						<ellipse transform="matrix(0.6146 -0.7888 0.7888 0.6146 -19.2719 129.7283)" class="st193" cx="123.1" cy="84.6" rx="47.6" ry="47.6"/>
					
						<ellipse transform="matrix(0.6146 -0.7888 0.7888 0.6146 -18.7864 129.8312)" class="st194" cx="123.5" cy="84.1" rx="47.6" ry="47.6"/>
					
						<ellipse transform="matrix(0.6146 -0.7888 0.7888 0.6146 -18.3009 129.9342)" class="st195" cx="123.8" cy="83.7" rx="47.6" ry="47.6"/>
					
						<ellipse transform="matrix(0.6146 -0.7888 0.7888 0.6146 -17.8153 130.0371)" class="st196" cx="124.2" cy="83.3" rx="47.6" ry="47.6"/>
					
						<ellipse transform="matrix(0.6146 -0.7888 0.7888 0.6146 -17.3298 130.14)" class="st197" cx="124.5" cy="82.8" rx="47.6" ry="47.6"/>
					
						<ellipse transform="matrix(0.6146 -0.7888 0.7888 0.6146 -16.8442 130.243)" class="st198" cx="124.9" cy="82.4" rx="47.6" ry="47.6"/>
					
						<ellipse transform="matrix(0.6146 -0.7888 0.7888 0.6146 -16.3587 130.3459)" class="st199" cx="125.2" cy="81.9" rx="47.6" ry="47.6"/>
					
						<ellipse transform="matrix(0.6146 -0.7888 0.7888 0.6146 -15.8732 130.4488)" class="st200" cx="125.6" cy="81.5" rx="47.6" ry="47.6"/>
					
						<ellipse transform="matrix(0.6146 -0.7888 0.7888 0.6146 -15.3876 130.5518)" class="st201" cx="125.9" cy="81" rx="47.6" ry="47.6"/>
					
						<ellipse transform="matrix(0.6146 -0.7888 0.7888 0.6146 -14.9021 130.6547)" class="st202" cx="126.3" cy="80.6" rx="47.6" ry="47.6"/>
					
						<ellipse transform="matrix(0.6146 -0.7888 0.7888 0.6146 -14.4165 130.7576)" class="st203" cx="126.6" cy="80.1" rx="47.6" ry="47.6"/>
					
						<ellipse transform="matrix(0.6146 -0.7888 0.7888 0.6146 -13.931 130.8606)" class="st204" cx="127" cy="79.7" rx="47.6" ry="47.6"/>
					
						<ellipse transform="matrix(0.6146 -0.7888 0.7888 0.6146 -13.4455 130.9635)" class="st205" cx="127.3" cy="79.2" rx="47.6" ry="47.6"/>
					
						<ellipse transform="matrix(0.6146 -0.7888 0.7888 0.6146 -12.9599 131.0664)" class="st206" cx="127.7" cy="78.8" rx="47.6" ry="47.6"/>
					
						<ellipse transform="matrix(0.6146 -0.7888 0.7888 0.6146 -12.4744 131.1694)" class="st207" cx="128" cy="78.4" rx="47.6" ry="47.6"/>
					
						<ellipse transform="matrix(0.6146 -0.7888 0.7888 0.6146 -11.9888 131.2723)" class="st208" cx="128.3" cy="77.9" rx="47.6" ry="47.6"/>
					
						<ellipse transform="matrix(0.6146 -0.7888 0.7888 0.6146 -11.5033 131.3752)" class="st209" cx="128.7" cy="77.5" rx="47.6" ry="47.6"/>
					
						<ellipse transform="matrix(0.6146 -0.7888 0.7888 0.6146 -11.0177 131.4782)" class="st210" cx="129" cy="77" rx="47.6" ry="47.6"/>
					
						<ellipse transform="matrix(0.6146 -0.7888 0.7888 0.6146 -10.5322 131.5811)" class="st211" cx="129.4" cy="76.6" rx="47.6" ry="47.6"/>
					
						<ellipse transform="matrix(0.6146 -0.7888 0.7888 0.6146 -10.0466 131.684)" class="st212" cx="129.7" cy="76.1" rx="47.6" ry="47.6"/>
					
						<ellipse transform="matrix(0.6146 -0.7888 0.7888 0.6146 -9.5611 131.787)" class="st213" cx="130.1" cy="75.7" rx="47.6" ry="47.6"/>
					
						<ellipse transform="matrix(0.6146 -0.7888 0.7888 0.6146 -9.0755 131.8899)" class="st214" cx="130.4" cy="75.2" rx="47.6" ry="47.6"/>
					
						<ellipse transform="matrix(0.6146 -0.7888 0.7888 0.6146 -8.59 131.9928)" class="st215" cx="130.8" cy="74.8" rx="47.6" ry="47.6"/>
					
						<ellipse transform="matrix(0.6146 -0.7889 0.7889 0.6146 -8.1045 132.0957)" class="st216" cx="131.1" cy="74.3" rx="47.6" ry="47.6"/>
					
						<ellipse transform="matrix(0.6146 -0.7889 0.7889 0.6146 -7.6189 132.1987)" class="st217" cx="131.5" cy="73.9" rx="47.6" ry="47.6"/>
					
						<ellipse transform="matrix(0.6146 -0.7889 0.7889 0.6146 -7.1334 132.3016)" class="st218" cx="131.8" cy="73.5" rx="47.6" ry="47.6"/>
					
						<ellipse transform="matrix(0.6146 -0.7889 0.7889 0.6146 -6.6478 132.4045)" class="st219" cx="132.2" cy="73" rx="47.6" ry="47.6"/>
					
						<ellipse transform="matrix(0.6146 -0.7889 0.7889 0.6146 -6.1622 132.5075)" class="st220" cx="132.5" cy="72.6" rx="47.6" ry="47.6"/>
					
						<ellipse transform="matrix(0.6146 -0.7889 0.7889 0.6146 -5.6767 132.6104)" class="st221" cx="132.9" cy="72.1" rx="47.6" ry="47.6"/>
					
						<ellipse transform="matrix(0.6146 -0.7889 0.7889 0.6146 -5.1911 132.7133)" class="st222" cx="133.2" cy="71.7" rx="47.6" ry="47.6"/>
					
						<ellipse transform="matrix(0.6146 -0.7889 0.7889 0.6146 -4.7056 132.8163)" class="st223" cx="133.6" cy="71.2" rx="47.6" ry="47.6"/>
					
						<ellipse transform="matrix(0.6146 -0.7889 0.7889 0.6146 -4.22 132.9192)" class="st224" cx="133.9" cy="70.8" rx="47.6" ry="47.6"/>
					
						<ellipse transform="matrix(0.6146 -0.7889 0.7889 0.6146 -3.7345 133.0221)" class="st225" cx="134.3" cy="70.3" rx="47.6" ry="47.6"/>
					
						<ellipse transform="matrix(0.6146 -0.7889 0.7889 0.6146 -3.2489 133.125)" class="st226" cx="134.6" cy="69.9" rx="47.6" ry="47.6"/>
					
						<ellipse transform="matrix(0.6146 -0.7889 0.7889 0.6146 -2.7634 133.228)" class="st227" cx="135" cy="69.4" rx="47.6" ry="47.6"/>
					
						<ellipse transform="matrix(0.6146 -0.7889 0.7889 0.6146 -2.2778 133.3309)" class="st228" cx="135.3" cy="69" rx="47.6" ry="47.6"/>
					
						<ellipse transform="matrix(0.6146 -0.7889 0.7889 0.6146 -1.7923 133.4338)" class="st229" cx="135.7" cy="68.6" rx="47.6" ry="47.6"/>
					
						<ellipse transform="matrix(0.6146 -0.7889 0.7889 0.6146 -1.3067 133.5368)" class="st230" cx="136" cy="68.1" rx="47.6" ry="47.6"/>
					
						<ellipse transform="matrix(0.6146 -0.7889 0.7889 0.6146 -0.8211 133.6397)" class="st231" cx="136.4" cy="67.7" rx="47.6" ry="47.6"/>
					
						<ellipse transform="matrix(0.6146 -0.7889 0.7889 0.6146 -0.3356 133.7426)" class="st232" cx="136.7" cy="67.2" rx="47.6" ry="47.6"/>
					
						<ellipse transform="matrix(0.6146 -0.7889 0.7889 0.6146 0.15 133.8456)" class="st233" cx="137" cy="66.8" rx="47.6" ry="47.6"/>
					
						<ellipse transform="matrix(0.6146 -0.7889 0.7889 0.6146 0.6355 133.9485)" class="st234" cx="137.4" cy="66.3" rx="47.6" ry="47.6"/>
					
						<ellipse transform="matrix(0.6146 -0.7889 0.7889 0.6146 1.1211 134.0514)" class="st235" cx="137.7" cy="65.9" rx="47.6" ry="47.6"/>
					
						<ellipse transform="matrix(0.6146 -0.7889 0.7889 0.6146 1.6067 134.1543)" class="st236" cx="138.1" cy="65.4" rx="47.6" ry="47.6"/>
					
						<ellipse transform="matrix(0.6146 -0.7889 0.7889 0.6146 2.0922 134.2573)" class="st237" cx="138.4" cy="65" rx="47.6" ry="47.6"/>
					
						<ellipse transform="matrix(0.6146 -0.7889 0.7889 0.6146 2.5778 134.3602)" class="st238" cx="138.8" cy="64.5" rx="47.6" ry="47.6"/>
					
						<ellipse transform="matrix(0.6146 -0.7889 0.7889 0.6146 3.0633 134.4631)" class="st239" cx="139.1" cy="64.1" rx="47.6" ry="47.6"/>
					
						<ellipse transform="matrix(0.6146 -0.7889 0.7889 0.6146 3.5489 134.566)" class="st240" cx="139.5" cy="63.7" rx="47.6" ry="47.6"/>
					
						<ellipse transform="matrix(0.6146 -0.7889 0.7889 0.6146 4.0345 134.669)" class="st241" cx="139.8" cy="63.2" rx="47.6" ry="47.6"/>
					
						<ellipse transform="matrix(0.6146 -0.7889 0.7889 0.6146 4.52 134.7719)" class="st242" cx="140.2" cy="62.8" rx="47.6" ry="47.6"/>
					
						<ellipse transform="matrix(0.6146 -0.7889 0.7889 0.6146 5.0056 134.8748)" class="st243" cx="140.5" cy="62.3" rx="47.6" ry="47.6"/>
					
						<ellipse transform="matrix(0.6146 -0.7889 0.7889 0.6146 5.4912 134.9778)" class="st244" cx="140.9" cy="61.9" rx="47.6" ry="47.6"/>
					
						<ellipse transform="matrix(0.6146 -0.7889 0.7889 0.6146 5.9767 135.0807)" class="st245" cx="141.2" cy="61.4" rx="47.6" ry="47.6"/>
					
						<ellipse transform="matrix(0.6146 -0.7889 0.7889 0.6146 6.4623 135.1836)" class="st246" cx="141.6" cy="61" rx="47.6" ry="47.6"/>
					
						<ellipse transform="matrix(0.6146 -0.7889 0.7889 0.6146 6.9479 135.2865)" class="st247" cx="141.9" cy="60.5" rx="47.6" ry="47.6"/>
					
						<ellipse transform="matrix(0.6146 -0.7889 0.7889 0.6146 7.4334 135.3895)" class="st248" cx="142.3" cy="60.1" rx="47.6" ry="47.6"/>
					
						<ellipse transform="matrix(0.6146 -0.7889 0.7889 0.6146 7.919 135.4924)" class="st249" cx="142.6" cy="59.6" rx="47.6" ry="47.6"/>
					
						<ellipse transform="matrix(0.6146 -0.7889 0.7889 0.6146 8.4046 135.5953)" class="st250" cx="143" cy="59.2" rx="47.6" ry="47.6"/>
					
						<ellipse transform="matrix(0.6146 -0.7889 0.7889 0.6146 8.8901 135.6982)" class="st251" cx="143.3" cy="58.8" rx="47.6" ry="47.6"/>
					
						<ellipse transform="matrix(0.6146 -0.7889 0.7889 0.6146 9.3757 135.8012)" class="st252" cx="143.7" cy="58.3" rx="47.6" ry="47.6"/>
					
						<ellipse transform="matrix(0.6146 -0.7889 0.7889 0.6146 9.8613 135.9041)" class="st253" cx="144" cy="57.9" rx="47.6" ry="47.6"/>
					
						<ellipse transform="matrix(0.6146 -0.7889 0.7889 0.6146 10.3469 136.007)" class="st254" cx="144.4" cy="57.4" rx="47.6" ry="47.6"/>
					
						<ellipse transform="matrix(0.6146 -0.7889 0.7889 0.6146 10.8324 136.1099)" class="st255" cx="144.7" cy="57" rx="47.6" ry="47.6"/>
					
						<ellipse transform="matrix(0.6146 -0.7889 0.7889 0.6146 11.318 136.2129)" class="st256" cx="145.1" cy="56.5" rx="47.6" ry="47.6"/>
					
						<ellipse transform="matrix(0.6146 -0.7889 0.7889 0.6146 11.8036 136.3158)" class="st257" cx="145.4" cy="56.1" rx="47.6" ry="47.6"/>
					
						<ellipse transform="matrix(0.6146 -0.7889 0.7889 0.6146 12.2892 136.4187)" class="st258" cx="145.7" cy="55.6" rx="47.6" ry="47.6"/>
					
						<ellipse transform="matrix(0.6146 -0.7889 0.7889 0.6146 12.7747 136.5216)" class="st259" cx="146.1" cy="55.2" rx="47.6" ry="47.6"/>
					
						<ellipse transform="matrix(0.6146 -0.7889 0.7889 0.6146 13.2603 136.6246)" class="st260" cx="146.4" cy="54.7" rx="47.6" ry="47.6"/>
					
						<ellipse transform="matrix(0.6146 -0.7889 0.7889 0.6146 13.7459 136.7275)" class="st261" cx="146.8" cy="54.3" rx="47.6" ry="47.6"/>
					
						<ellipse transform="matrix(0.6146 -0.7889 0.7889 0.6146 14.2315 136.8304)" class="st262" cx="147.1" cy="53.9" rx="47.6" ry="47.6"/>
					
						<ellipse transform="matrix(0.6146 -0.7889 0.7889 0.6146 14.717 136.9333)" class="st263" cx="147.5" cy="53.4" rx="47.6" ry="47.6"/>
					
						<ellipse transform="matrix(0.6146 -0.7889 0.7889 0.6146 15.2026 137.0363)" class="st264" cx="147.8" cy="53" rx="47.6" ry="47.6"/>
					
						<ellipse transform="matrix(0.6146 -0.7889 0.7889 0.6146 15.6882 137.1392)" class="st265" cx="148.2" cy="52.5" rx="47.6" ry="47.6"/>
					
						<ellipse transform="matrix(0.6146 -0.7889 0.7889 0.6146 16.1738 137.2421)" class="st266" cx="148.5" cy="52.1" rx="47.6" ry="47.6"/>
					
						<ellipse transform="matrix(0.6146 -0.7889 0.7889 0.6146 16.6594 137.345)" class="st267" cx="148.9" cy="51.6" rx="47.6" ry="47.6"/>
					
						<ellipse transform="matrix(0.6146 -0.7889 0.7889 0.6146 17.1449 137.448)" class="st268" cx="149.2" cy="51.2" rx="47.6" ry="47.6"/>
					
						<ellipse transform="matrix(0.6146 -0.7889 0.7889 0.6146 17.6305 137.5509)" class="st269" cx="149.6" cy="50.7" rx="47.6" ry="47.6"/>
					
						<ellipse transform="matrix(0.6146 -0.7889 0.7889 0.6146 18.1161 137.6538)" class="st270" cx="149.9" cy="50.3" rx="47.6" ry="47.6"/>
					
						<ellipse transform="matrix(0.6146 -0.7889 0.7889 0.6146 18.6017 137.7567)" class="st271" cx="150.3" cy="49.8" rx="47.6" ry="47.6"/>
					
						<ellipse transform="matrix(0.6146 -0.7889 0.7889 0.6146 19.0873 137.8596)" class="st272" cx="150.6" cy="49.4" rx="47.6" ry="47.6"/>
					
						<ellipse transform="matrix(0.6146 -0.7889 0.7889 0.6146 19.5728 137.9626)" class="st273" cx="151" cy="49" rx="47.6" ry="47.6"/>
					
						<ellipse transform="matrix(0.6146 -0.7889 0.7889 0.6146 20.0584 138.0655)" class="st274" cx="151.3" cy="48.5" rx="47.6" ry="47.6"/>
					
						<ellipse transform="matrix(0.6146 -0.7889 0.7889 0.6146 20.544 138.1684)" class="st275" cx="151.7" cy="48.1" rx="47.6" ry="47.6"/>
					<path class="st276" d="M181.3,10.1c-20.7-16.2-50.6-12.5-66.8,8.2C98.3,39,102,68.9,122.7,85.1c20.7,16.2,50.6,12.5,66.8-8.2
						C205.7,56.2,202,26.3,181.3,10.1z"/>
				</g>
			</g>
			
				<radialGradient id="SVGID_1_" cx="147.4364" cy="54.8812" r="121.4998" fx="191.1046" fy="-2.0199" gradientUnits="userSpaceOnUse">
				<stop  offset="5.988500e-02" style="stop-color:#00FFF8"/>
				<stop  offset="0.1386" style="stop-color:#00F2F7"/>
				<stop  offset="0.2847" style="stop-color:#00CFF5"/>
				<stop  offset="0.4822" style="stop-color:#0097F2"/>
				<stop  offset="0.7209" style="stop-color:#004BEE"/>
				<stop  offset="0.8622" style="stop-color:#001AEB"/>
			</radialGradient>
			<path class="st277" d="M181.3,10.1c-20.7-16.2-50.7-12.5-66.8,8.2c-0.1,0.1-52.2,66.8-52.2,66.8c-16.2,20.7-12.5,50.6,8.2,66.8
				c20.7,16.2,50.7,12.5,66.8-8.2c0.1-0.1,52.2-66.8,52.2-66.8C205.7,56.2,202,26.3,181.3,10.1z"/>
		</g>
	</g>
	<g>
		<path class="st278" d="M859.1,102.6c-1.4,5.7-4.4,10.1-8.7,13.3c-4.6,3.2-10.6,4.8-17.9,4.8c-10.1,0-18.4-3.4-24.1-10.3
			c-5.7-6.9-8.7-16.5-8.7-28.7s3-21.8,8.7-28.7c5.7-6.9,13.8-10.3,24.1-10.3c7.3,0,13.3,1.8,17.7,5c4.4,3.4,7.3,8,8.7,14V62h23.4
			v-0.5c-2.1-12.2-7.6-21.6-16.3-28.5c-8.7-6.7-19.7-10.1-33.3-10.1c-11.2,0-21.8,2.5-29.8,7.3c-8,4.8-14.5,11.9-18.8,20.6
			c-4.4,9.2-6.7,19.3-6.7,30.7c0,11.5,2.3,21.6,6.7,30.3s10.8,15.6,18.8,20.4c8,4.8,18.6,7.3,29.8,7.3c13.5,0,24.8-3.2,33.3-9.9
			c8.7-6.7,14-15.8,16.3-27.3v-0.5h-23.2V102.6z"/>
		<path class="st278" d="M911.9,138h-20.4V38.4c0-6.4,5.3-11.7,11.7-11.7h8.7V138z"/>
		<path class="st278" d="M942,58.6h-20.4V138H942V58.6z"/>
		<path class="st278" d="M998.7,56.8c-6.2,0-11.7,1.4-16.5,4.1c-4.1,2.5-7.3,5.7-9.6,9.9V58.8h-2.3h-18.4v46.6v32.8h20.7v-33v-8.3
			c0-7.3,1.8-12.8,5.5-17c3.7-4.1,8.5-6.2,14.2-6.2c6,0,10.1,1.8,13.1,5.5c2.8,3.7,4.1,8.9,4.1,15.6v42.9h20.4V93.2
			c0-11.9-2.8-21.1-8.3-27.3C1016.1,59.7,1008.5,56.8,998.7,56.8z"/>
		<path class="st278" d="M1060.4,58.6H1040V138h20.4V58.6z"/>
		<path class="st278" d="M1121.5,119.4c-3.2,2.1-6.9,3.2-11,3.2c-5.7,0-10.6-2.1-14.5-6.4c-3.9-4.4-6-10.1-6-17.7s2.1-13.5,6-17.7
			c3.9-4.4,8.7-6.4,14.5-6.4c4.4,0,8,1.1,11,3.2c3.2,2.3,5.3,5.3,6.4,8.9h21.6c-1.8-9.2-6.4-16.5-13.3-21.8c-6.9-5.3-15.4-8-25.7-8
			c-8,0-15.4,1.8-21.3,5.3c-6.2,3.4-11,8.5-14.7,14.7c-3.7,6.2-5.3,13.5-5.3,21.6s1.8,15.4,5.3,21.6c3.7,6.2,8.5,11.2,14.7,14.7
			c6.2,3.4,13.3,5.3,21.3,5.3c10.1,0,18.6-2.8,25.7-8.3c6.9-5.5,11.5-12.6,13.3-21.6h-21.6C1126.7,114.1,1124.7,117.1,1121.5,119.4z
			"/>
		<path class="st278" d="M931.6,27.2c-6.4,0-11.7,5.3-11.7,11.7c0,6.4,5.3,11.7,11.7,11.7c6.4,0,11.7-5.3,11.7-11.7
			C943.4,32.4,938.3,27.2,931.6,27.2z"/>
		<path class="st278" d="M1050.1,27.2c-6.4,0-11.7,5.3-11.7,11.7c0,6.4,5.3,11.7,11.7,11.7s11.7-5.3,11.7-11.7
			C1061.8,32.4,1056.5,27.2,1050.1,27.2z"/>
		<path class="st278" d="M360.1,26.1h-22.2l-31.2,88.6L276,26.3l-0.2-0.2h-22.4L294,136.6v0.2h25.3l40.5-110.3L360.1,26.1z"/>
		<path class="st278" d="M405.3,61.8c-5.9-3.4-12.7-5-20.4-5c-8.1,0-15.4,1.8-21.5,5.2c-6.1,3.6-10.9,8.4-14.2,14.7
			c-3.4,6.3-5.2,13.6-5.2,21.7c0,7.9,1.8,15.1,5.2,21.3c3.4,6.1,8.4,10.9,14.2,14.2c6.1,3.4,13.1,5,21,5c6.3,0,12-1.1,17-3.4
			c5-2.3,9.3-5.4,12.7-9.5c3.4-4.1,5.9-8.6,7.2-13.6h-20.6c-1.4,2.9-3.4,5.4-6.3,7.2c-2.7,1.8-6.3,2.7-10.4,2.7
			c-5.4,0-10.2-1.8-14-5.2c-3.8-3.4-5.9-8.4-6.3-14.2h59.5c0-1.4,0.2-2.7,0.2-3.8c0-1.4,0-2.5,0-3.6c0-7.2-1.6-13.6-5-19.4
			C416,69.7,411.4,65.2,405.3,61.8z M364.6,90.1c1.1-5.7,3.4-9.9,7.2-12.7c3.8-2.7,8.1-4.1,13.1-4.1c5.2,0,9.5,1.6,12.9,4.5
			c3.4,2.9,5.4,7.2,5.7,12.2H364.6z"/>
		<path class="st278" d="M520.2,74c4.3,0,7.9,1.1,10.9,3.2c3.2,2.3,5.2,5.2,6.3,8.8h21.3c-1.8-9-6.3-16.3-13.1-21.5
			c-6.8-5.2-15.2-7.9-25.3-7.9c-7.9,0-15.2,1.8-21,5.2c-6.1,3.4-10.9,8.4-14.5,14.5c-3.6,6.1-5.2,13.3-5.2,21.3s1.8,15.1,5.2,21.3
			c3.6,6.1,8.4,11.1,14.5,14.5s13.1,5.2,21,5.2c10,0,18.3-2.7,25.3-8.1c6.8-5.4,11.3-12.4,13.1-21.3h-21.3c-1.1,3.8-3.2,6.8-6.3,9
			c-3.2,2-6.8,3.2-10.9,3.2c-5.7,0-10.4-2-14.2-6.3c-3.8-4.3-5.9-9.9-5.9-17.4c0-7.5,2-13.3,5.9-17.4C510.1,76.1,514.8,74,520.2,74z
			"/>
		<path class="st278" d="M585.2,58.6H565v78.2h20.1V58.6z"/>
		<path class="st278" d="M458.3,37.6h-8.6c-6.3,0-11.5,5.2-11.5,11.5v9.5h-13.3v17h13.3v34.1c0,10.2,2.5,17.4,7.5,21.3
			c5,4.1,11.5,6.1,19.7,6.1h13.8v-17.2h-9.7c-4.1,0-6.8-0.7-8.4-2c-1.6-1.4-2.5-4.1-2.5-7.9V75.6h21v-17h-21v-21H458.3z"/>
		<path class="st278" d="M624.7,37.6h-8.6c-6.3,0-11.5,5.2-11.5,11.5v9.5h-13.3v17h13.3v34.1c0,10.2,2.5,17.4,7.5,21.3
			c5,4.1,11.5,6.1,19.7,6.1h13.8v-17.2h-9.7c-4.1,0-6.8-0.7-8.4-2c-1.6-1.4-2.5-4.1-2.5-7.9V75.6h21.3v-17H625v-21H624.7z"/>
		<path class="st278" d="M702.3,134.8l32.8-76.2h-20.8l-22.4,51.8l-22.2-51.8h-21l32.8,76.2l-15.8,36.9h21l15.6-36.6h0.2
			L702.3,134.8z"/>
		<path class="st278" d="M575.2,27.7c-6.3,0-11.5,5.2-11.5,11.5s5.2,11.5,11.5,11.5c6.3,0,11.5-5.2,11.5-11.5S581.5,27.7,575.2,27.7
			z"/>
	</g>
</g>
</svg>
