<svg width="76" height="21" viewBox="0 0 76 21" fill="none" xmlns="http://www.w3.org/2000/svg">
<path d="M14.6752 4.06701C14.2519 3.26819 13.6875 2.58772 12.9819 2.08476C12.2764 1.55221 11.458 1.19718 10.5549 0.960498C9.65182 0.723812 8.69229 0.605469 7.70455 0.605469C6.85791 0.605469 6.01127 0.723812 5.13641 0.960498C4.26154 1.19718 3.52779 1.5818 2.85048 2.08476C2.17317 2.58772 1.63696 3.20902 1.21364 3.97825C0.790323 4.74748 0.592773 5.60547 0.592773 6.64097C0.592773 7.55813 0.762101 8.32736 1.07254 8.97825C1.38297 9.62914 1.83451 10.1617 2.37072 10.5759C2.90692 10.9901 3.49957 11.3451 4.17688 11.6114C4.34621 11.6706 4.48732 11.7297 4.65664 11.7889V6.28594C4.65664 5.84216 4.68486 5.42795 4.93886 5.10251C5.16463 4.83624 5.30573 4.68831 5.58795 4.51079C5.87016 4.33328 6.18059 4.18535 6.51925 4.12618C6.85791 4.06701 7.19656 4.00784 7.53522 4.00784C8.0432 4.00784 8.52296 4.06701 8.94628 4.15577C9.3696 4.24452 9.7647 4.39245 10.1034 4.62914C10.442 4.86582 10.7242 5.16168 10.9218 5.5463C10.9782 5.63506 11.0064 5.72381 11.0629 5.84216H15.2396C15.1268 5.16168 14.9574 4.59955 14.6752 4.06701Z" fill="white"/>
<path d="M62.9623 5.36849L61.4384 0.634766H55.5684V5.36849H62.9623Z" fill="white"/>
<path d="M59.4628 16.3164H55.54V20.5768H59.4628V16.3164Z" fill="white"/>
<path d="M62.7363 16.3164L64.1474 20.5768H67.3646L68.7757 16.3164H62.7363Z" fill="white"/>
<path d="M70.1307 0.634766L68.6914 5.36849H72.1062V6.43358V16.3152V20.5756H76.0289V0.634766H70.1307Z" fill="white"/>
<path d="M49.0776 5.36849L47.3843 0.634766H43.0946L41.4014 5.36849H49.0776Z" fill="white"/>
<path d="M37.4781 16.3164L35.9541 20.5768H40.1591L41.5984 16.3164H37.4781Z" fill="white"/>
<path d="M48.7666 16.3164L50.1494 20.5768H54.4955L52.9716 16.3164H48.7666Z" fill="white"/>
<path d="M31.6366 5.36878L34.8538 0.605469H29.6046L26.585 5.36878H31.6366Z" fill="white"/>
<path d="M26.8955 16.3164L29.6048 20.5768H34.8539L31.9753 16.3164H26.8955Z" fill="white"/>
<path d="M21.5049 5.36878V3.0315V0.605469H17.3281V5.36878H21.5049Z" fill="white"/>
<path d="M21.5049 16.3164H17.3281V20.5768H21.5049V16.3164Z" fill="white"/>
<path d="M11.6558 15.9316C11.6558 15.9612 11.6276 15.9612 11.6276 15.9908C11.3736 16.3162 11.0632 16.5825 10.6963 16.76C10.3294 16.9375 9.93431 17.0855 9.51099 17.1446C9.08767 17.2038 8.69257 17.2334 8.32569 17.2334C7.78949 17.2334 7.25328 17.1742 6.71708 17.0263C6.20909 16.8784 5.67289 16.7008 5.27779 16.405C4.88269 16.1091 4.57226 15.7245 4.37471 15.2215C4.14894 14.7186 4.06427 14.2156 4.06427 13.5352H0.000403513C-0.0278178 14.7482 0.197953 15.8133 0.649494 16.7008C1.10103 17.5884 1.7219 18.3281 2.48388 18.9198C3.24585 19.4819 4.12072 19.9257 5.08024 20.192C6.06799 20.4582 7.08395 20.6062 8.12814 20.6062C9.42632 20.6062 10.5552 20.4582 11.5429 20.1328C12.5307 19.8073 13.3491 19.3636 14.0264 18.8014C14.7037 18.2393 15.1835 17.5588 15.5221 16.7896C15.635 16.5233 15.7479 16.2275 15.8043 15.9316H11.6558Z" fill="white"/>
</svg>
