<svg width="23" height="19" viewBox="0 0 23 19" fill="none" xmlns="http://www.w3.org/2000/svg">
<path fill-rule="evenodd" clip-rule="evenodd" d="M2.05313 7.78888C7.88354 5.24866 11.7714 3.574 13.7167 2.76489C19.2709 0.454698 20.425 0.0533935 21.1773 0.0401422C21.3427 0.0372277 21.7126 0.0782305 21.9523 0.272669C22.1546 0.436849 22.2103 0.658633 22.2369 0.814293C22.2635 0.969954 22.2967 1.32455 22.2703 1.60163C21.9694 4.7641 20.667 12.4386 20.0044 15.9806C19.7241 17.4794 19.1721 17.9819 18.6376 18.0311C17.4762 18.1379 16.5942 17.2635 15.4693 16.5261C13.7091 15.3722 12.7146 14.654 11.006 13.528C9.03137 12.2267 10.3114 11.5116 11.4368 10.3427C11.7313 10.0369 16.8486 5.38226 16.9476 4.96001C16.96 4.9072 16.9715 4.71036 16.8546 4.60642C16.7376 4.50247 16.565 4.53802 16.4405 4.56629C16.2639 4.60636 13.4519 6.46501 8.00438 10.1422C7.20619 10.6903 6.48322 10.9574 5.83546 10.9434C5.12136 10.928 3.74771 10.5396 2.72654 10.2077C1.47404 9.80055 0.478577 9.58529 0.565259 8.89385C0.610409 8.5337 1.10637 8.16538 2.05313 7.78888Z" fill="white"/>
</svg>
