<svg width="37" height="31" viewBox="0 0 37 31" fill="none" xmlns="http://www.w3.org/2000/svg">
<path fill-rule="evenodd" clip-rule="evenodd" d="M2.54356 13.3451C12.4756 8.97024 19.0986 6.08609 22.4124 4.69262C31.874 0.713956 33.84 0.0228209 35.1215 -8.10134e-07C35.4033 -0.00502019 36.0335 0.0655957 36.4417 0.400462C36.7864 0.683217 36.8812 1.06518 36.9266 1.33326C36.972 1.60134 37.0285 2.21204 36.9836 2.68922C36.4708 8.13571 34.2523 21.3529 33.1236 27.453C32.646 30.0342 31.7056 30.8997 30.7952 30.9844C28.8167 31.1685 27.3143 29.6625 25.398 28.3925C22.3994 26.4053 20.7054 25.1683 17.7948 23.2291C14.431 20.9881 16.6116 19.7563 18.5286 17.7434C19.0303 17.2166 27.7476 9.20031 27.9163 8.47311C27.9374 8.38217 27.957 8.04315 27.7578 7.86414C27.5586 7.68513 27.2646 7.74635 27.0524 7.79503C26.7517 7.86404 21.9614 11.0651 12.6815 17.3981C11.3218 18.342 10.0902 18.8019 8.98674 18.7778C7.77027 18.7513 5.43026 18.0825 3.69071 17.5108C1.55707 16.8096 -0.1387 16.4389 0.0089636 15.2481C0.0858759 14.6278 0.93074 13.9935 2.54356 13.3451Z" fill="#1B1B29"/>
</svg>
