<svg xmlns="http://www.w3.org/2000/svg" viewBox="0 0 68.86 55.9"><defs><radialGradient id="a" cx="50.86" cy="18.93" fx="65.92" fy="-.7" r="41.91" gradientUnits="userSpaceOnUse"><stop offset=".06" stop-color="#00fff8"/><stop offset=".14" stop-color="#00f2f7"/><stop offset=".28" stop-color="#00cff5"/><stop offset=".48" stop-color="#0097f2"/><stop offset=".72" stop-color="#004bee"/><stop offset=".86" stop-color="#001aeb"/></radialGradient></defs><path d="M3.48 26.54A16.43 16.43 0 106.32 3.49a16.42 16.42 0 00-2.84 23.05z" fill="#028aff"/><path d="M3.62 26.72A16.43 16.43 0 106.46 3.68a16.42 16.42 0 00-2.84 23.04z" fill="#0289ff"/><ellipse cx="16.71" cy="16.79" rx="16.43" ry="16.41" transform="rotate(-38.06 16.7 16.8)" fill="#0288ff"/><ellipse cx="16.85" cy="16.97" rx="16.43" ry="16.41" transform="rotate(-37.96 16.85 16.97)" fill="#0287fe"/><ellipse cx="17" cy="17.16" rx="16.43" ry="16.41" transform="rotate(-38.04 17 17.16)" fill="#0286fe"/><ellipse cx="17.14" cy="17.34" rx="16.43" ry="16.41" transform="rotate(-37.97 17.14 17.34)" fill="#0285fe"/><ellipse cx="17.28" cy="17.52" rx="16.43" ry="16.41" transform="rotate(-37.93 17.28 17.52)" fill="#0284fe"/><ellipse cx="17.42" cy="17.71" rx="16.43" ry="16.41" transform="rotate(-37.95 17.42 17.7)" fill="#0283fe"/><ellipse cx="17.57" cy="17.89" rx="16.43" ry="16.41" transform="rotate(-38.11 17.57 17.89)" fill="#0282fe"/><ellipse cx="17.71" cy="18.07" rx="16.43" ry="16.41" transform="rotate(-38 17.7 18.06)" fill="#0281fd"/><path d="M4.9 28.37A16.43 16.43 0 107.76 5.32 16.42 16.42 0 004.9 28.37z" fill="#0280fd"/><ellipse cx="18" cy="18.44" rx="16.43" ry="16.41" transform="rotate(-38.07 18 18.44)" fill="#027ffd"/><ellipse cx="18.14" cy="18.62" rx="16.43" ry="16.41" transform="rotate(-38.11 18.14 18.62)" fill="#027efd"/><path d="M5.34 28.92A16.43 16.43 0 108.18 5.87a16.42 16.42 0 00-2.84 23.05z" fill="#027dfd"/><ellipse cx="18.42" cy="18.99" rx="16.43" ry="16.41" transform="rotate(-38.12 18.42 18.99)" fill="#027cfd"/><ellipse cx="18.57" cy="19.17" rx="16.43" ry="16.41" transform="rotate(-37.94 18.57 19.17)" fill="#027bfc"/><path d="M5.76 29.47A16.43 16.43 0 108.61 6.42a16.42 16.42 0 00-2.85 23.05z" fill="#027afc"/><ellipse cx="18.85" cy="19.54" rx="16.43" ry="16.41" transform="rotate(-38.04 18.85 19.54)" fill="#0279fc"/><ellipse cx="19" cy="19.72" rx="16.43" ry="16.41" transform="rotate(-38.11 19 19.72)" fill="#0278fc"/><ellipse cx="19.14" cy="19.9" rx="16.43" ry="16.41" transform="rotate(-37.82 19.14 19.9)" fill="#0277fc"/><ellipse cx="19.28" cy="20.08" rx="16.43" ry="16.41" transform="rotate(-38.01 19.28 20.08)" fill="#0276fc"/><ellipse cx="19.42" cy="20.27" rx="16.43" ry="16.41" transform="rotate(-38.02 19.42 20.27)" fill="#0275fb"/><ellipse cx="19.57" cy="20.45" rx="16.43" ry="16.41" transform="rotate(-37.96 19.57 20.45)" fill="#0274fb"/><ellipse cx="19.71" cy="20.63" rx="16.43" ry="16.41" transform="rotate(-38 19.72 20.63)" fill="#0273fb"/><ellipse cx="19.85" cy="20.82" rx="16.43" ry="16.41" transform="rotate(-37.96 19.85 20.82)" fill="#0272fb"/><ellipse cx="20" cy="21" rx="16.43" ry="16.41" transform="rotate(-37.98 20 21)" fill="#0271fb"/><ellipse cx="20.14" cy="21.18" rx="16.43" ry="16.41" transform="rotate(-38.05 20.14 21.18)" fill="#0270fa"/><ellipse cx="20.28" cy="21.36" rx="16.43" ry="16.41" transform="rotate(-38.12 20.28 21.36)" fill="#026ffa"/><path d="M7.48 31.66a16.43 16.43 0 102.84-23.05 16.42 16.42 0 00-2.84 23.05z" fill="#026efa"/><path d="M7.62 31.84A16.43 16.43 0 1010.46 8.8a16.42 16.42 0 00-2.84 23.04z" fill="#026dfa"/><ellipse cx="20.71" cy="21.91" rx="16.43" ry="16.41" transform="rotate(-38.05 20.71 21.91)" fill="#026cfa"/><ellipse cx="20.85" cy="22.1" rx="16.43" ry="16.41" transform="rotate(-38.11 20.85 22.1)" fill="#026bfa"/><ellipse cx="21" cy="22.28" rx="16.43" ry="16.41" transform="rotate(-37.92 21 22.28)" fill="#016af9"/><ellipse cx="21.14" cy="22.46" rx="16.43" ry="16.41" transform="rotate(-37.9 21.14 22.46)" fill="#0169f9"/><ellipse cx="21.28" cy="22.64" rx="16.43" ry="16.41" transform="rotate(-38.08 21.28 22.65)" fill="#0168f9"/><ellipse cx="21.43" cy="22.83" rx="16.43" ry="16.41" transform="rotate(-37.87 21.43 22.83)" fill="#0167f9"/><ellipse cx="21.57" cy="23.01" rx="16.43" ry="16.41" transform="rotate(-38.03 21.57 23.01)" fill="#0166f9"/><ellipse cx="21.71" cy="23.19" rx="16.43" ry="16.41" transform="rotate(-38.11 21.71 23.2)" fill="#0165f9"/><ellipse cx="21.85" cy="23.38" rx="16.43" ry="16.41" transform="rotate(-37.83 21.86 23.38)" fill="#0164f8"/><ellipse cx="22" cy="23.56" rx="16.43" ry="16.41" transform="rotate(-38.01 22 23.56)" fill="#0163f8"/><ellipse cx="22.14" cy="23.74" rx="16.43" ry="16.41" transform="rotate(-38.12 22.14 23.74)" fill="#0162f8"/><ellipse cx="22.28" cy="23.93" rx="16.43" ry="16.41" transform="rotate(-38 22.28 23.93)" fill="#0161f8"/><ellipse cx="22.43" cy="24.11" rx="16.43" ry="16.41" transform="rotate(-38.04 22.43 24.1)" fill="#0160f8"/><ellipse cx="22.57" cy="24.29" rx="16.43" ry="16.41" transform="rotate(-37.94 22.57 24.3)" fill="#015ff7"/><ellipse cx="22.71" cy="24.48" rx="16.43" ry="16.41" transform="rotate(-38.05 22.71 24.47)" fill="#015ef7"/><path d="M9.9 34.77a16.43 16.43 0 102.85-23.05A16.42 16.42 0 009.9 34.77z" fill="#015df7"/><ellipse cx="23" cy="24.84" rx="16.43" ry="16.41" transform="rotate(-38 23 24.84)" fill="#015cf7"/><ellipse cx="23.14" cy="25.02" rx="16.43" ry="16.41" transform="rotate(-37.97 23.14 25.02)" fill="#015bf7"/><ellipse cx="23.28" cy="25.21" rx="16.43" ry="16.41" transform="rotate(-37.89 23.28 25.2)" fill="#015af7"/><ellipse cx="23.43" cy="25.39" rx="16.43" ry="16.41" transform="rotate(-37.94 23.43 25.39)" fill="#0159f6"/><ellipse cx="23.57" cy="25.57" rx="16.43" ry="16.41" transform="rotate(-38.11 23.57 25.57)" fill="#0158f6"/><ellipse cx="23.71" cy="25.75" rx="16.43" ry="16.41" transform="rotate(-37.97 23.71 25.76)" fill="#0157f6"/><ellipse cx="23.86" cy="25.94" rx="16.43" ry="16.41" transform="rotate(-37.91 23.85 25.94)" fill="#0156f6"/><ellipse cx="24" cy="26.12" rx="16.43" ry="16.41" transform="rotate(-38.06 24 26.12)" fill="#0155f6"/><ellipse cx="24.14" cy="26.3" rx="16.43" ry="16.41" transform="rotate(-37.96 24.14 26.3)" fill="#0154f6"/><ellipse cx="24.28" cy="26.49" rx="16.43" ry="16.41" transform="rotate(-38.04 24.28 26.49)" fill="#0153f5"/><ellipse cx="24.43" cy="26.67" rx="16.43" ry="16.41" transform="rotate(-38.11 24.43 26.67)" fill="#0152f5"/><ellipse cx="24.57" cy="26.85" rx="16.43" ry="16.41" transform="rotate(-37.9 24.57 26.85)" fill="#0151f5"/><ellipse cx="24.71" cy="27.04" rx="16.43" ry="16.41" transform="rotate(-37.95 24.71 27.04)" fill="#0150f5"/><ellipse cx="24.86" cy="27.22" rx="16.43" ry="16.41" transform="rotate(-38.11 24.86 27.22)" fill="#014ff5"/><ellipse cx="25" cy="27.4" rx="16.43" ry="16.41" transform="rotate(-38.11 25 27.4)" fill="#014ef5"/><path d="M12.2 37.7a16.43 16.43 0 102.84-23.05A16.42 16.42 0 0012.2 37.7z" fill="#014df4"/><ellipse cx="25.28" cy="27.77" rx="16.43" ry="16.41" transform="rotate(-37.96 25.28 27.77)" fill="#014cf4"/><ellipse cx="25.43" cy="27.95" rx="16.43" ry="16.41" transform="rotate(-38 25.44 27.95)" fill="#014cf4"/><ellipse cx="25.57" cy="28.13" rx="16.43" ry="16.41" transform="rotate(-37.93 25.57 28.13)" fill="#014bf4"/><ellipse cx="25.71" cy="28.32" rx="16.43" ry="16.41" transform="rotate(-38.05 25.71 28.32)" fill="#014af4"/><ellipse cx="25.86" cy="28.5" rx="16.43" ry="16.41" transform="rotate(-37.97 25.86 28.5)" fill="#0149f3"/><ellipse cx="26" cy="28.68" rx="16.43" ry="16.41" transform="rotate(-37.9 26 28.68)" fill="#0148f3"/><ellipse cx="26.14" cy="28.86" rx="16.43" ry="16.41" transform="rotate(-38.04 26.14 28.87)" fill="#0147f3"/><ellipse cx="26.29" cy="29.05" rx="16.43" ry="16.41" transform="rotate(-38.11 26.28 29.05)" fill="#0146f3"/><ellipse cx="26.43" cy="29.23" rx="16.43" ry="16.41" transform="rotate(-37.82 26.43 29.23)" fill="#0145f3"/><ellipse cx="26.57" cy="29.41" rx="16.43" ry="16.41" transform="rotate(-38.01 26.57 29.41)" fill="#0144f3"/><ellipse cx="26.71" cy="29.6" rx="16.43" ry="16.41" transform="rotate(-38.02 26.71 29.6)" fill="#0143f2"/><ellipse cx="26.86" cy="29.78" rx="16.43" ry="16.41" transform="rotate(-38.07 26.86 29.78)" fill="#0142f2"/><ellipse cx="27" cy="29.96" rx="16.43" ry="16.41" transform="rotate(-38.03 27 29.96)" fill="#0141f2"/><ellipse cx="27.14" cy="30.15" rx="16.43" ry="16.41" transform="rotate(-37.96 27.14 30.15)" fill="#0140f2"/><ellipse cx="27.29" cy="30.33" rx="16.43" ry="16.41" transform="rotate(-38.09 27.29 30.33)" fill="#013ff2"/><path d="M14.48 40.63a16.43 16.43 0 102.84-23.05 16.42 16.42 0 00-2.84 23.05z" fill="#013ef2"/><ellipse cx="27.57" cy="30.69" rx="16.43" ry="16.41" transform="rotate(-38.01 27.57 30.7)" fill="#013df1"/><path d="M14.77 41a16.43 16.43 0 102.84-23.06A16.42 16.42 0 0014.77 41z" fill="#013cf1"/><ellipse cx="27.86" cy="31.06" rx="16.43" ry="16.41" transform="rotate(-37.78 27.86 31.06)" fill="#013bf1"/><ellipse cx="28" cy="31.24" rx="16.43" ry="16.41" transform="rotate(-37.98 28 31.24)" fill="#013af1"/><ellipse cx="28.14" cy="31.43" rx="16.43" ry="16.41" transform="rotate(-38.11 28.14 31.43)" fill="#0139f1"/><ellipse cx="28.29" cy="31.61" rx="16.43" ry="16.41" transform="rotate(-37.96 28.29 31.6)" fill="#0138f1"/><ellipse cx="28.43" cy="31.79" rx="16.43" ry="16.41" transform="rotate(-37.9 28.43 31.8)" fill="#0137f0"/><ellipse cx="28.57" cy="31.98" rx="16.43" ry="16.41" transform="rotate(-38.08 28.57 31.98)" fill="#0136f0"/><ellipse cx="28.71" cy="32.16" rx="16.43" ry="16.41" transform="rotate(-37.87 28.71 32.16)" fill="#0135f0"/><ellipse cx="28.86" cy="32.34" rx="16.43" ry="16.41" transform="rotate(-38.03 28.86 32.34)" fill="#0134f0"/><ellipse cx="29" cy="32.52" rx="16.43" ry="16.41" transform="rotate(-38.11 29 32.52)" fill="#0133f0"/><ellipse cx="29.14" cy="32.71" rx="16.43" ry="16.41" transform="rotate(-37.94 29.14 32.7)" fill="#0132ef"/><ellipse cx="29.29" cy="32.89" rx="16.43" ry="16.41" transform="rotate(-37.98 29.29 32.89)" fill="#0131ef"/><ellipse cx="29.43" cy="33.07" rx="16.43" ry="16.41" transform="rotate(-38.03 29.43 33.07)" fill="#0130ef"/><ellipse cx="29.57" cy="33.26" rx="16.43" ry="16.41" transform="rotate(-38.11 29.57 33.25)" fill="#012fef"/><path d="M16.77 43.55A16.43 16.43 0 1019.6 20.5a16.42 16.42 0 00-2.84 23.05z" fill="#012eef"/><ellipse cx="29.86" cy="33.62" rx="16.43" ry="16.41" transform="rotate(-37.9 29.86 33.62)" fill="#012def"/><ellipse cx="30" cy="33.8" rx="16.43" ry="16.41" transform="rotate(-38.05 30 33.8)" fill="#002cee"/><ellipse cx="30.14" cy="33.99" rx="16.43" ry="16.41" transform="rotate(-37.92 30.14 33.99)" fill="#002bee"/><ellipse cx="30.29" cy="34.17" rx="16.43" ry="16.41" transform="rotate(-38.04 30.29 34.17)" fill="#002aee"/><ellipse cx="30.43" cy="34.35" rx="16.43" ry="16.41" transform="rotate(-37.97 30.43 34.35)" fill="#0029ee"/><ellipse cx="30.57" cy="34.54" rx="16.43" ry="16.41" transform="rotate(-37.93 30.57 34.54)" fill="#0028ee"/><ellipse cx="30.71" cy="34.72" rx="16.43" ry="16.41" transform="rotate(-37.94 30.72 34.72)" fill="#0027ee"/><ellipse cx="30.86" cy="34.9" rx="16.43" ry="16.41" transform="rotate(-38.11 30.86 34.9)" fill="#0026ed"/><ellipse cx="31" cy="35.09" rx="16.43" ry="16.41" transform="rotate(-37.97 31 35.09)" fill="#0025ed"/><ellipse cx="31.14" cy="35.27" rx="16.43" ry="16.41" transform="rotate(-37.91 31.14 35.27)" fill="#0024ed"/><ellipse cx="31.29" cy="35.45" rx="16.43" ry="16.41" transform="rotate(-38.06 31.29 35.45)" fill="#0023ed"/><ellipse cx="31.43" cy="35.63" rx="16.43" ry="16.41" transform="rotate(-37.98 31.43 35.63)" fill="#0022ed"/><ellipse cx="31.57" cy="35.82" rx="16.43" ry="16.41" transform="rotate(-38 31.6 35.82)" fill="#0021ec"/><ellipse cx="31.72" cy="36" rx="16.43" ry="16.41" transform="rotate(-38.11 31.72 36)" fill="#0020ec"/><ellipse cx="31.86" cy="36.18" rx="16.43" ry="16.41" transform="rotate(-37.97 31.86 36.18)" fill="#001fec"/><path d="M19.06 46.48a16.43 16.43 0 102.84-23.05 16.42 16.42 0 00-2.84 23.05z" fill="#001eec"/><ellipse cx="32.14" cy="36.55" rx="16.43" ry="16.41" transform="rotate(-38.04 32.14 36.55)" fill="#001dec"/><ellipse cx="32.29" cy="36.73" rx="16.43" ry="16.41" transform="rotate(-38.11 32.29 36.73)" fill="#001cec"/><ellipse cx="32.43" cy="36.91" rx="16.43" ry="16.41" transform="rotate(-37.82 32.43 36.91)" fill="#001beb"/><ellipse cx="32.57" cy="37.1" rx="16.43" ry="16.41" transform="rotate(-38 32.57 37.1)" fill="#001aeb"/><ellipse cx="32.72" cy="37.28" rx="16.43" ry="16.41" transform="rotate(-38.03 32.72 37.28)" fill="#0019eb"/><ellipse cx="32.86" cy="37.46" rx="16.43" ry="16.41" transform="rotate(-37.97 32.86 37.46)" fill="#0018eb"/><ellipse cx="33" cy="37.65" rx="16.43" ry="16.41" transform="rotate(-38.05 33 37.65)" fill="#0017eb"/><ellipse cx="33.15" cy="37.83" rx="16.43" ry="16.41" transform="rotate(-37.97 33.14 37.83)" fill="#0016eb"/><ellipse cx="33.29" cy="38.01" rx="16.43" ry="16.41" transform="rotate(-37.9 33.29 38.01)" fill="#0015ea"/><ellipse cx="33.43" cy="38.19" rx="16.43" ry="16.41" transform="rotate(-37.94 33.43 38.19)" fill="#0014ea"/><ellipse cx="33.57" cy="38.38" rx="16.43" ry="16.41" transform="rotate(-38.11 33.57 38.38)" fill="#0013ea"/><path d="M20.77 48.67a16.43 16.43 0 102.84-23.04 16.42 16.42 0 00-2.84 23.04z" fill="#0012ea"/><path d="M20.91 48.86a16.43 16.43 0 102.84-23.05 16.42 16.42 0 00-2.84 23.05z" fill="#0011ea"/><ellipse cx="34" cy="38.93" rx="16.43" ry="16.41" transform="rotate(-38.05 34 38.93)" fill="#0010ea"/><ellipse cx="34.15" cy="39.11" rx="16.43" ry="16.41" transform="rotate(-38.11 34.14 39.1)" fill="#000fe9"/><path d="M21.34 49.4a16.43 16.43 0 102.84-23.04 16.42 16.42 0 00-2.84 23.05z" fill="#000ee9"/><path d="M21.49 49.59a16.43 16.43 0 102.84-23.05 16.42 16.42 0 00-2.84 23.05z" fill="#000de9"/><path d="M44.54 26.54a16.41 16.41 0 102.84 23.05 16.42 16.42 0 00-2.84-23.05z" fill="#000dff"/><ellipse cx="34.55" cy="39.32" rx="16.41" ry="16.43" transform="rotate(-52.07 34.55 39.32)" fill="#000eff"/><path d="M44.78 26.23a16.41 16.41 0 102.84 23.05 16.42 16.42 0 00-2.84-23.05z" fill="#010fff"/><ellipse cx="34.79" cy="39.01" rx="16.41" ry="16.43" transform="rotate(-52.06 34.8 39.01)" fill="#0110ff"/><ellipse cx="34.91" cy="38.86" rx="16.41" ry="16.43" transform="rotate(-52.07 34.91 38.86)" fill="#0211ff"/><ellipse cx="35.03" cy="38.71" rx="16.41" ry="16.43" transform="rotate(-51.89 35.03 38.7)" fill="#0212ff"/><ellipse cx="35.15" cy="38.55" rx="16.41" ry="16.43" transform="rotate(-52.1 35.15 38.55)" fill="#0313ff"/><ellipse cx="35.27" cy="38.4" rx="16.41" ry="16.43" transform="rotate(-52.04 35.27 38.4)" fill="#0314ff"/><ellipse cx="35.39" cy="38.25" rx="16.41" ry="16.43" transform="rotate(-52.1 35.4 38.25)" fill="#0315ff"/><ellipse cx="35.51" cy="38.09" rx="16.41" ry="16.43" transform="rotate(-52.19 35.51 38.1)" fill="#0416ff"/><ellipse cx="35.63" cy="37.94" rx="16.41" ry="16.43" transform="rotate(-52.02 35.63 37.94)" fill="#0417ff"/><path d="M45.86 24.85A16.41 16.41 0 1048.7 47.9a16.42 16.42 0 00-2.84-23.05z" fill="#0518fe"/><ellipse cx="35.87" cy="37.63" rx="16.41" ry="16.43" transform="rotate(-52.07 35.87 37.63)" fill="#0519fe"/><ellipse cx="35.99" cy="37.48" rx="16.41" ry="16.43" transform="rotate(-52.12 36 37.48)" fill="#061afe"/><ellipse cx="36.11" cy="37.32" rx="16.41" ry="16.43" transform="rotate(-52.06 36.11 37.32)" fill="#061bfe"/><path d="M46.34 24.24a16.41 16.41 0 102.84 23.04 16.42 16.42 0 00-2.84-23.04z" fill="#071cfe"/><ellipse cx="36.35" cy="37.02" rx="16.41" ry="16.43" transform="rotate(-52.06 36.35 37.02)" fill="#071dfe"/><ellipse cx="36.47" cy="36.86" rx="16.41" ry="16.43" transform="rotate(-52.07 36.47 36.86)" fill="#071efe"/><ellipse cx="36.59" cy="36.71" rx="16.41" ry="16.43" transform="rotate(-51.9 36.6 36.7)" fill="#081ffe"/><ellipse cx="36.71" cy="36.55" rx="16.41" ry="16.43" transform="rotate(-52.1 36.71 36.56)" fill="#0820fe"/><ellipse cx="36.83" cy="36.4" rx="16.41" ry="16.43" transform="rotate(-52.07 36.83 36.4)" fill="#0921fe"/><ellipse cx="36.95" cy="36.25" rx="16.41" ry="16.43" transform="rotate(-52.01 36.95 36.25)" fill="#0922fe"/><path d="M47.18 23.16a16.41 16.41 0 102.84 23.05 16.42 16.42 0 00-2.84-23.05z" fill="#0a23fe"/><path d="M47.3 23a16.41 16.41 0 102.84 23.05 16.42 16.42 0 00-2.84-23.04z" fill="#0a24fe"/><ellipse cx="37.31" cy="35.79" rx="16.41" ry="16.43" transform="rotate(-52.07 37.31 35.79)" fill="#0a25fe"/><ellipse cx="37.43" cy="35.63" rx="16.41" ry="16.43" transform="rotate(-52.07 37.43 35.63)" fill="#0b26fe"/><ellipse cx="37.55" cy="35.48" rx="16.41" ry="16.43" transform="rotate(-52.12 37.55 35.48)" fill="#0b27fe"/><ellipse cx="37.67" cy="35.33" rx="16.41" ry="16.43" transform="rotate(-52.06 37.67 35.33)" fill="#0c28fe"/><ellipse cx="37.79" cy="35.17" rx="16.41" ry="16.43" transform="rotate(-52.08 37.8 35.17)" fill="#0c29fe"/><ellipse cx="37.91" cy="35.02" rx="16.41" ry="16.43" transform="rotate(-51.94 37.91 35.02)" fill="#0d2afe"/><ellipse cx="38.03" cy="34.87" rx="16.41" ry="16.43" transform="rotate(-52.1 38.03 34.87)" fill="#0d2bfe"/><path d="M48.26 21.78a16.41 16.41 0 102.84 23.05 16.42 16.42 0 00-2.84-23.05z" fill="#0d2cfe"/><ellipse cx="38.27" cy="34.56" rx="16.41" ry="16.43" transform="rotate(-51.98 38.25 34.54)" fill="#0e2dfe"/><ellipse cx="38.39" cy="34.4" rx="16.41" ry="16.43" transform="rotate(-52.18 38.4 34.4)" fill="#0e2efd"/><ellipse cx="38.51" cy="34.25" rx="16.41" ry="16.43" transform="rotate(-52.01 38.51 34.25)" fill="#0f2ffd"/><path d="M48.74 21.16a16.41 16.41 0 102.84 23.05 16.42 16.42 0 00-2.84-23.05z" fill="#0f30fd"/><ellipse cx="38.75" cy="33.94" rx="16.41" ry="16.43" transform="rotate(-52.07 38.75 33.94)" fill="#1031fd"/><ellipse cx="38.87" cy="33.79" rx="16.41" ry="16.43" transform="rotate(-52.13 38.87 33.79)" fill="#1032fd"/><ellipse cx="38.99" cy="33.64" rx="16.41" ry="16.43" transform="rotate(-52.1 39 33.64)" fill="#1033fd"/><path d="M49.22 20.55a16.41 16.41 0 102.84 23.05 16.42 16.42 0 00-2.84-23.05z" fill="#1134fd"/><ellipse cx="39.23" cy="33.33" rx="16.41" ry="16.43" transform="rotate(-51.92 39.23 33.33)" fill="#1135fd"/><ellipse cx="39.35" cy="33.17" rx="16.41" ry="16.43" transform="rotate(-52.07 39.35 33.17)" fill="#1236fd"/><ellipse cx="39.47" cy="33.02" rx="16.41" ry="16.43" transform="rotate(-51.89 39.47 33.02)" fill="#1237fd"/><ellipse cx="39.59" cy="32.87" rx="16.41" ry="16.43" transform="rotate(-52.1 39.6 32.87)" fill="#1338fd"/><ellipse cx="39.71" cy="32.71" rx="16.41" ry="16.43" transform="rotate(-52.07 39.71 32.71)" fill="#1339fd"/><ellipse cx="39.83" cy="32.56" rx="16.41" ry="16.43" transform="rotate(-52.01 39.83 32.56)" fill="#143afd"/><path d="M50.06 19.47a16.41 16.41 0 102.84 23.05 16.42 16.42 0 00-2.84-23.05z" fill="#143bfd"/><path d="M50.18 19.32a16.41 16.41 0 102.84 23.05 16.42 16.42 0 00-2.84-23.05z" fill="#143cfd"/><path d="M50.3 19.16a16.41 16.41 0 102.84 23.05 16.42 16.42 0 00-2.84-23.05z" fill="#153dfd"/><ellipse cx="40.31" cy="31.95" rx="16.41" ry="16.43" transform="rotate(-52.07 40.31 31.95)" fill="#153efd"/><ellipse cx="40.43" cy="31.79" rx="16.41" ry="16.43" transform="rotate(-52.12 40.43 31.8)" fill="#163ffd"/><ellipse cx="40.55" cy="31.64" rx="16.41" ry="16.43" transform="rotate(-52.1 40.55 31.64)" fill="#1640fd"/><ellipse cx="40.67" cy="31.48" rx="16.41" ry="16.43" transform="rotate(-52.04 40.67 31.48)" fill="#1741fd"/><ellipse cx="40.79" cy="31.33" rx="16.41" ry="16.43" transform="rotate(-52.06 40.8 31.33)" fill="#1742fd"/><ellipse cx="40.91" cy="31.18" rx="16.41" ry="16.43" transform="rotate(-52.1 40.91 31.18)" fill="#1743fc"/><ellipse cx="41.03" cy="31.02" rx="16.41" ry="16.43" transform="rotate(-51.9 41.03 31.02)" fill="#1844fc"/><ellipse cx="41.15" cy="30.87" rx="16.41" ry="16.43" transform="rotate(-52.1 41.15 30.87)" fill="#1845fc"/><ellipse cx="41.27" cy="30.72" rx="16.41" ry="16.43" transform="rotate(-52.17 41.27 30.72)" fill="#1946fc"/><ellipse cx="41.39" cy="30.56" rx="16.41" ry="16.43" transform="rotate(-52.01 41.4 30.56)" fill="#1947fc"/><path d="M51.62 17.48a16.41 16.41 0 102.84 23.04 16.42 16.42 0 00-2.84-23.05z" fill="#1a48fc"/><ellipse cx="41.63" cy="30.25" rx="16.41" ry="16.43" transform="rotate(-52.04 41.63 30.25)" fill="#1a49fc"/><path d="M51.86 17.17a16.41 16.41 0 102.84 23.05 16.42 16.42 0 00-2.84-23.05z" fill="#1a4afc"/><ellipse cx="41.88" cy="29.95" rx="16.41" ry="16.43" transform="rotate(-52.1 41.87 29.95)" fill="#1b4bfc"/><path d="M52.1 16.86a16.41 16.41 0 102.84 23.05 16.42 16.42 0 00-2.84-23.05z" fill="#1b4cfc"/><ellipse cx="42.12" cy="29.64" rx="16.41" ry="16.43" transform="rotate(-52.06 42.11 29.64)" fill="#1c4dfc"/><ellipse cx="42.23" cy="29.49" rx="16.41" ry="16.43" transform="rotate(-52.08 42.23 29.49)" fill="#1c4efc"/><ellipse cx="42.35" cy="29.33" rx="16.41" ry="16.43" transform="rotate(-51.98 42.35 29.33)" fill="#1d4ffc"/><ellipse cx="42.48" cy="29.18" rx="16.41" ry="16.43" transform="rotate(-52.1 42.47 29.18)" fill="#1d50fc"/><ellipse cx="42.59" cy="29.03" rx="16.41" ry="16.43" transform="rotate(-51.92 42.6 29.03)" fill="#1d51fc"/><ellipse cx="42.72" cy="28.87" rx="16.41" ry="16.43" transform="rotate(-51.96 42.72 28.87)" fill="#1e52fc"/><ellipse cx="42.84" cy="28.72" rx="16.41" ry="16.43" transform="rotate(-52.18 42.83 28.72)" fill="#1e53fc"/><ellipse cx="42.95" cy="28.57" rx="16.41" ry="16.43" transform="rotate(-52.01 42.96 28.56)" fill="#1f54fc"/><path d="M53.18 15.48a16.41 16.41 0 102.84 23.04 16.42 16.42 0 00-2.84-23.04z" fill="#1f55fc"/><ellipse cx="43.2" cy="28.26" rx="16.41" ry="16.43" transform="rotate(-52.06 43.18 28.25)" fill="#2056fc"/><ellipse cx="43.31" cy="28.1" rx="16.41" ry="16.43" transform="rotate(-52.12 43.33 28.12)" fill="#2057fc"/><ellipse cx="43.44" cy="27.95" rx="16.41" ry="16.43" transform="rotate(-52.1 43.44 27.95)" fill="#2058fc"/><path d="M53.66 14.86a16.41 16.41 0 102.84 23.05 16.42 16.42 0 00-2.84-23.05z" fill="#2159fb"/><ellipse cx="43.67" cy="27.64" rx="16.41" ry="16.43" transform="rotate(-51.92 43.67 27.64)" fill="#215afb"/><ellipse cx="43.8" cy="27.49" rx="16.41" ry="16.43" transform="rotate(-52.07 43.8 27.49)" fill="#225bfb"/><ellipse cx="43.91" cy="27.34" rx="16.41" ry="16.43" transform="rotate(-51.93 43.92 27.34)" fill="#225cfb"/><ellipse cx="44.04" cy="27.18" rx="16.41" ry="16.43" transform="rotate(-52.1 44.04 27.18)" fill="#235dfb"/><ellipse cx="44.16" cy="27.03" rx="16.41" ry="16.43" transform="rotate(-52.18 44.16 27.03)" fill="#235efb"/><ellipse cx="44.28" cy="26.88" rx="16.41" ry="16.43" transform="rotate(-52.01 44.28 26.87)" fill="#245ffb"/><path d="M54.5 13.79a16.41 16.41 0 102.84 23.05 16.42 16.42 0 00-2.84-23.05z" fill="#2460fb"/><path d="M54.62 13.63a16.41 16.41 0 102.84 23.05 16.42 16.42 0 00-2.84-23.05z" fill="#2461fb"/><ellipse cx="44.64" cy="26.41" rx="16.41" ry="16.43" transform="rotate(-52.07 44.64 26.41)" fill="#2562fb"/><ellipse cx="44.76" cy="26.26" rx="16.41" ry="16.43" transform="rotate(-52.06 44.74 26.25)" fill="#2563fb"/><ellipse cx="44.88" cy="26.11" rx="16.41" ry="16.43" transform="rotate(-52.12 44.88 26.1)" fill="#2664fb"/><ellipse cx="45" cy="25.95" rx="16.41" ry="16.43" transform="rotate(-52.1 45 25.95)" fill="#2665fb"/><ellipse cx="45.12" cy="25.8" rx="16.41" ry="16.43" transform="rotate(-52.07 45.12 25.8)" fill="#2766fb"/><ellipse cx="45.24" cy="25.64" rx="16.41" ry="16.43" transform="rotate(-51.97 45.24 25.65)" fill="#2767fb"/><ellipse cx="45.36" cy="25.49" rx="16.41" ry="16.43" transform="rotate(-52.1 45.36 25.5)" fill="#2768fb"/><ellipse cx="45.48" cy="25.34" rx="16.41" ry="16.43" transform="rotate(-51.9 45.48 25.34)" fill="#2869fb"/><ellipse cx="45.6" cy="25.18" rx="16.41" ry="16.43" transform="rotate(-52.1 45.6 25.18)" fill="#286afb"/><ellipse cx="45.72" cy="25.03" rx="16.41" ry="16.43" transform="rotate(-52.17 45.72 25.03)" fill="#296bfb"/><ellipse cx="45.84" cy="24.88" rx="16.41" ry="16.43" transform="rotate(-51.98 45.86 24.87)" fill="#296cfb"/><path d="M56.06 11.79a16.41 16.41 0 102.84 23.05 16.42 16.42 0 00-2.84-23.05z" fill="#2a6dfb"/><ellipse cx="46.08" cy="24.57" rx="16.41" ry="16.43" transform="rotate(-52.04 46.08 24.57)" fill="#2a6efa"/><path d="M56.3 11.48a16.41 16.41 0 102.84 23.05 16.42 16.42 0 00-2.84-23.05z" fill="#2a6ffa"/><ellipse cx="46.32" cy="24.26" rx="16.41" ry="16.43" transform="rotate(-52.1 46.32 24.26)" fill="#2b70fa"/><ellipse cx="46.44" cy="24.11" rx="16.41" ry="16.43" transform="rotate(-52.01 46.44 24.1)" fill="#2b71fa"/><ellipse cx="46.56" cy="23.95" rx="16.41" ry="16.43" transform="rotate(-52.06 46.56 23.95)" fill="#2c72fa"/><ellipse cx="46.68" cy="23.8" rx="16.41" ry="16.43" transform="rotate(-52.06 46.68 23.8)" fill="#2c73fa"/><ellipse cx="46.8" cy="23.65" rx="16.41" ry="16.43" transform="rotate(-51.98 46.8 23.65)" fill="#2d74fa"/><ellipse cx="46.92" cy="23.49" rx="16.41" ry="16.43" transform="rotate(-52.12 46.9 23.5)" fill="#2d75fa"/><ellipse cx="47.04" cy="23.34" rx="16.41" ry="16.43" transform="rotate(-52.03 47.04 23.34)" fill="#2d76fa"/><path d="M57.26 10.25A16.41 16.41 0 1060.1 33.3a16.42 16.42 0 00-2.84-23.05z" fill="#2e77fa"/><path d="M57.38 10.1a16.41 16.41 0 102.84 23.05 16.42 16.42 0 00-2.84-23.05z" fill="#2e78fa"/><ellipse cx="47.4" cy="22.88" rx="16.41" ry="16.43" transform="rotate(-52.01 47.4 22.88)" fill="#2f79fa"/><path d="M57.62 9.8a16.41 16.41 0 102.84 23.04 16.42 16.42 0 00-2.84-23.05z" fill="#2f7afa"/><ellipse cx="47.64" cy="22.57" rx="16.41" ry="16.43" transform="rotate(-52.07 47.64 22.57)" fill="#307bfa"/><ellipse cx="47.76" cy="22.42" rx="16.41" ry="16.43" transform="rotate(-52.13 47.76 22.42)" fill="#307cfa"/><ellipse cx="47.88" cy="22.27" rx="16.41" ry="16.43" transform="rotate(-52.1 47.88 22.26)" fill="#317dfa"/><path d="M58.1 9.18a16.41 16.41 0 102.84 23.04A16.42 16.42 0 0058.1 9.18z" fill="#317efa"/><ellipse cx="48.12" cy="21.96" rx="16.41" ry="16.43" transform="rotate(-51.92 48.12 21.96)" fill="#317ffa"/><ellipse cx="48.24" cy="21.8" rx="16.41" ry="16.43" transform="rotate(-52.1 48.24 21.8)" fill="#3280fa"/><ellipse cx="48.36" cy="21.65" rx="16.41" ry="16.43" transform="rotate(-51.93 48.36 21.65)" fill="#3281fa"/><ellipse cx="48.48" cy="21.5" rx="16.41" ry="16.43" transform="rotate(-52.1 48.48 21.5)" fill="#3382fa"/><ellipse cx="48.6" cy="21.34" rx="16.41" ry="16.43" transform="rotate(-52.18 48.6 21.34)" fill="#3383f9"/><ellipse cx="48.72" cy="21.19" rx="16.41" ry="16.43" transform="rotate(-52.01 48.72 21.19)" fill="#3484f9"/><path d="M58.94 8.1a16.41 16.41 0 102.84 23.05A16.42 16.42 0 0058.94 8.1z" fill="#3485f9"/><path d="M59.06 7.95A16.41 16.41 0 1061.9 31a16.42 16.42 0 00-2.84-23.05z" fill="#3486f9"/><ellipse cx="49.08" cy="20.73" rx="16.41" ry="16.43" transform="rotate(-52.07 49.08 20.73)" fill="#3587f9"/><ellipse cx="49.2" cy="20.57" rx="16.41" ry="16.43" transform="rotate(-52.1 49.2 20.57)" fill="#3588f9"/><path d="M59.42 7.49a16.41 16.41 0 102.84 23.04A16.42 16.42 0 0059.42 7.5z" fill="#3689f9"/><path d="M59.54 7.33a16.41 16.41 0 102.84 23.05 16.42 16.42 0 00-2.84-23.05z" fill="#368af9"/><ellipse cx="49.56" cy="20.11" rx="16.41" ry="16.43" transform="rotate(-52.07 49.56 20.11)" fill="#378bf9"/><ellipse cx="49.68" cy="19.96" rx="16.41" ry="16.43" transform="rotate(-51.97 49.68 19.96)" fill="#378cf9"/><ellipse cx="49.8" cy="19.81" rx="16.41" ry="16.43" transform="rotate(-52.1 49.8 19.8)" fill="#378df9"/><path d="M60.02 6.72a16.41 16.41 0 102.84 23.05 16.42 16.42 0 00-2.84-23.05z" fill="#388ef9"/><ellipse cx="50.04" cy="19.5" rx="16.41" ry="16.43" transform="rotate(-51.96 50.04 19.5)" fill="#388ff9"/><path d="M60.26 6.41a16.41 16.41 0 102.84 23.05A16.42 16.42 0 0060.26 6.4z" fill="#3990f9"/><ellipse cx="50.28" cy="19.19" rx="16.41" ry="16.43" transform="rotate(-52.01 50.28 19.2)" fill="#3991f9"/><path d="M60.5 6.1a16.41 16.41 0 102.84 23.05A16.42 16.42 0 0060.5 6.1z" fill="#3a92f9"/><ellipse cx="50.52" cy="18.88" rx="16.41" ry="16.43" transform="rotate(-52.04 50.52 18.88)" fill="#3a93f9"/><ellipse cx="50.64" cy="18.73" rx="16.41" ry="16.43" transform="rotate(-52.12 50.64 18.73)" fill="#3a94f9"/><ellipse cx="50.76" cy="18.58" rx="16.41" ry="16.43" transform="rotate(-52.12 50.75 18.6)" fill="#3b95f9"/><ellipse cx="50.88" cy="18.42" rx="16.41" ry="16.43" transform="rotate(-52.01 50.88 18.42)" fill="#3b96f9"/><ellipse cx="51" cy="18.27" rx="16.41" ry="16.43" transform="rotate(-52.06 51 18.27)" fill="#3c97f9"/><ellipse cx="51.12" cy="18.12" rx="16.41" ry="16.43" transform="rotate(-52.08 51.12 18.12)" fill="#3c98f9"/><ellipse cx="51.24" cy="17.96" rx="16.41" ry="16.43" transform="rotate(-51.98 51.24 17.96)" fill="#3d99f8"/><ellipse cx="51.36" cy="17.81" rx="16.41" ry="16.43" transform="rotate(-52.1 51.36 17.8)" fill="#3d9af8"/><ellipse cx="51.48" cy="17.66" rx="16.41" ry="16.43" transform="rotate(-52.03 51.48 17.66)" fill="#3e9bf8"/><path d="M61.7 4.57a16.41 16.41 0 102.84 23.04A16.42 16.42 0 0061.7 4.57z" fill="#3e9cf8"/><path d="M61.82 4.41a16.41 16.41 0 102.84 23.05 16.42 16.42 0 00-2.84-23.05z" fill="#3e9df8"/><ellipse cx="51.84" cy="17.19" rx="16.41" ry="16.43" transform="rotate(-52.01 51.84 17.2)" fill="#3f9ef8"/><path d="M62.06 4.1a16.41 16.41 0 102.84 23.05 16.42 16.42 0 00-2.84-23.04z" fill="#3f9ff8"/><ellipse cx="52.08" cy="16.89" rx="16.41" ry="16.43" transform="rotate(-52.06 52.06 16.88)" fill="#40a0f8"/><ellipse cx="52.2" cy="16.73" rx="16.41" ry="16.43" transform="rotate(-52.13 52.2 16.73)" fill="#40a1f8"/><ellipse cx="52.32" cy="16.58" rx="16.41" ry="16.43" transform="rotate(-52.1 52.32 16.58)" fill="#41a2f8"/><path d="M62.54 3.5a16.41 16.41 0 102.85 23.04 16.42 16.42 0 00-2.85-23.05z" fill="#41a3f8"/><path d="M62.53 3.49A16.43 16.43 0 0039.47 6.3L21.46 29.36a16.43 16.43 0 0025.9 20.23c.02-.02 18-23.02 18.01-23.05a16.42 16.42 0 00-2.84-23.05z" fill="url(#a)"/></svg>