<?xml version="1.0" encoding="utf-8"?>
<!-- Generator: Adobe Illustrator 25.4.1, SVG Export Plug-In . SVG Version: 6.00 Build 0)  -->
<svg version="1.1" id="Layer_1" xmlns="http://www.w3.org/2000/svg" xmlns:xlink="http://www.w3.org/1999/xlink" x="0px" y="0px"
	 viewBox="0 0 623 321" style="enable-background:new 0 0 623 321;" xml:space="preserve">
<style type="text/css">
	.st0{fill:#1B1B29;}
	.st1{fill:#028AFF;}
	.st2{fill:#0289FF;}
	.st3{fill:#0288FF;}
	.st4{fill:#0287FE;}
	.st5{fill:#0286FE;}
	.st6{fill:#0285FE;}
	.st7{fill:#0284FE;}
	.st8{fill:#0283FE;}
	.st9{fill:#0282FE;}
	.st10{fill:#0281FD;}
	.st11{fill:#0280FD;}
	.st12{fill:#027FFD;}
	.st13{fill:#027EFD;}
	.st14{fill:#027DFD;}
	.st15{fill:#027CFD;}
	.st16{fill:#027BFC;}
	.st17{fill:#027AFC;}
	.st18{fill:#0279FC;}
	.st19{fill:#0278FC;}
	.st20{fill:#0277FC;}
	.st21{fill:#0276FC;}
	.st22{fill:#0275FB;}
	.st23{fill:#0274FB;}
	.st24{fill:#0273FB;}
	.st25{fill:#0272FB;}
	.st26{fill:#0271FB;}
	.st27{fill:#0270FA;}
	.st28{fill:#026FFA;}
	.st29{fill:#026EFA;}
	.st30{fill:#026DFA;}
	.st31{fill:#026CFA;}
	.st32{fill:#026BFA;}
	.st33{fill:#016AF9;}
	.st34{fill:#0169F9;}
	.st35{fill:#0168F9;}
	.st36{fill:#0167F9;}
	.st37{fill:#0166F9;}
	.st38{fill:#0165F9;}
	.st39{fill:#0164F8;}
	.st40{fill:#0163F8;}
	.st41{fill:#0162F8;}
	.st42{fill:#0161F8;}
	.st43{fill:#0160F8;}
	.st44{fill:#015FF7;}
	.st45{fill:#015EF7;}
	.st46{fill:#015DF7;}
	.st47{fill:#015CF7;}
	.st48{fill:#015BF7;}
	.st49{fill:#015AF7;}
	.st50{fill:#0159F6;}
	.st51{fill:#0158F6;}
	.st52{fill:#0157F6;}
	.st53{fill:#0156F6;}
	.st54{fill:#0155F6;}
	.st55{fill:#0154F6;}
	.st56{fill:#0153F5;}
	.st57{fill:#0152F5;}
	.st58{fill:#0151F5;}
	.st59{fill:#0150F5;}
	.st60{fill:#014FF5;}
	.st61{fill:#014EF5;}
	.st62{fill:#014DF4;}
	.st63{fill:#014CF4;}
	.st64{fill:#014BF4;}
	.st65{fill:#014AF4;}
	.st66{fill:#0149F3;}
	.st67{fill:#0148F3;}
	.st68{fill:#0147F3;}
	.st69{fill:#0146F3;}
	.st70{fill:#0145F3;}
	.st71{fill:#0144F3;}
	.st72{fill:#0143F2;}
	.st73{fill:#0142F2;}
	.st74{fill:#0141F2;}
	.st75{fill:#0140F2;}
	.st76{fill:#013FF2;}
	.st77{fill:#013EF2;}
	.st78{fill:#013DF1;}
	.st79{fill:#013CF1;}
	.st80{fill:#013BF1;}
	.st81{fill:#013AF1;}
	.st82{fill:#0139F1;}
	.st83{fill:#0138F1;}
	.st84{fill:#0137F0;}
	.st85{fill:#0136F0;}
	.st86{fill:#0135F0;}
	.st87{fill:#0134F0;}
	.st88{fill:#0133F0;}
	.st89{fill:#0132EF;}
	.st90{fill:#0131EF;}
	.st91{fill:#0130EF;}
	.st92{fill:#012FEF;}
	.st93{fill:#012EEF;}
	.st94{fill:#012DEF;}
	.st95{fill:#002CEE;}
	.st96{fill:#002BEE;}
	.st97{fill:#002AEE;}
	.st98{fill:#0029EE;}
	.st99{fill:#0028EE;}
	.st100{fill:#0027EE;}
	.st101{fill:#0026ED;}
	.st102{fill:#0025ED;}
	.st103{fill:#0024ED;}
	.st104{fill:#0023ED;}
	.st105{fill:#0022ED;}
	.st106{fill:#0021EC;}
	.st107{fill:#0020EC;}
	.st108{fill:#001FEC;}
	.st109{fill:#001EEC;}
	.st110{fill:#001DEC;}
	.st111{fill:#001CEC;}
	.st112{fill:#001BEB;}
	.st113{fill:#001AEB;}
	.st114{fill:#0019EB;}
	.st115{fill:#0018EB;}
	.st116{fill:#0017EB;}
	.st117{fill:#0016EB;}
	.st118{fill:#0015EA;}
	.st119{fill:#0014EA;}
	.st120{fill:#0013EA;}
	.st121{fill:#0012EA;}
	.st122{fill:#0011EA;}
	.st123{fill:#0010EA;}
	.st124{fill:#000FE9;}
	.st125{fill:#000EE9;}
	.st126{fill:#000DE9;}
	.st127{fill:#000DFF;}
	.st128{fill:#000EFF;}
	.st129{fill:#010FFF;}
	.st130{fill:#0110FF;}
	.st131{fill:#0211FF;}
	.st132{fill:#0212FF;}
	.st133{fill:#0313FF;}
	.st134{fill:#0314FF;}
	.st135{fill:#0315FF;}
	.st136{fill:#0416FF;}
	.st137{fill:#0417FF;}
	.st138{fill:#0518FE;}
	.st139{fill:#0519FE;}
	.st140{fill:#061AFE;}
	.st141{fill:#061BFE;}
	.st142{fill:#071CFE;}
	.st143{fill:#071DFE;}
	.st144{fill:#071EFE;}
	.st145{fill:#081FFE;}
	.st146{fill:#0820FE;}
	.st147{fill:#0921FE;}
	.st148{fill:#0922FE;}
	.st149{fill:#0A23FE;}
	.st150{fill:#0A24FE;}
	.st151{fill:#0A25FE;}
	.st152{fill:#0B26FE;}
	.st153{fill:#0B27FE;}
	.st154{fill:#0C28FE;}
	.st155{fill:#0C29FE;}
	.st156{fill:#0D2AFE;}
	.st157{fill:#0D2BFE;}
	.st158{fill:#0D2CFE;}
	.st159{fill:#0E2DFE;}
	.st160{fill:#0E2EFD;}
	.st161{fill:#0F2FFD;}
	.st162{fill:#0F30FD;}
	.st163{fill:#1031FD;}
	.st164{fill:#1032FD;}
	.st165{fill:#1033FD;}
	.st166{fill:#1134FD;}
	.st167{fill:#1135FD;}
	.st168{fill:#1236FD;}
	.st169{fill:#1237FD;}
	.st170{fill:#1338FD;}
	.st171{fill:#1339FD;}
	.st172{fill:#143AFD;}
	.st173{fill:#143BFD;}
	.st174{fill:#143CFD;}
	.st175{fill:#153DFD;}
	.st176{fill:#153EFD;}
	.st177{fill:#163FFD;}
	.st178{fill:#1640FD;}
	.st179{fill:#1741FD;}
	.st180{fill:#1742FD;}
	.st181{fill:#1743FC;}
	.st182{fill:#1844FC;}
	.st183{fill:#1845FC;}
	.st184{fill:#1946FC;}
	.st185{fill:#1947FC;}
	.st186{fill:#1A48FC;}
	.st187{fill:#1A49FC;}
	.st188{fill:#1A4AFC;}
	.st189{fill:#1B4BFC;}
	.st190{fill:#1B4CFC;}
	.st191{fill:#1C4DFC;}
	.st192{fill:#1C4EFC;}
	.st193{fill:#1D4FFC;}
	.st194{fill:#1D50FC;}
	.st195{fill:#1D51FC;}
	.st196{fill:#1E52FC;}
	.st197{fill:#1E53FC;}
	.st198{fill:#1F54FC;}
	.st199{fill:#1F55FC;}
	.st200{fill:#2056FC;}
	.st201{fill:#2057FC;}
	.st202{fill:#2058FC;}
	.st203{fill:#2159FB;}
	.st204{fill:#215AFB;}
	.st205{fill:#225BFB;}
	.st206{fill:#225CFB;}
	.st207{fill:#235DFB;}
	.st208{fill:#235EFB;}
	.st209{fill:#245FFB;}
	.st210{fill:#2460FB;}
	.st211{fill:#2461FB;}
	.st212{fill:#2562FB;}
	.st213{fill:#2563FB;}
	.st214{fill:#2664FB;}
	.st215{fill:#2665FB;}
	.st216{fill:#2766FB;}
	.st217{fill:#2767FB;}
	.st218{fill:#2768FB;}
	.st219{fill:#2869FB;}
	.st220{fill:#286AFB;}
	.st221{fill:#296BFB;}
	.st222{fill:#296CFB;}
	.st223{fill:#2A6DFB;}
	.st224{fill:#2A6EFA;}
	.st225{fill:#2A6FFA;}
	.st226{fill:#2B70FA;}
	.st227{fill:#2B71FA;}
	.st228{fill:#2C72FA;}
	.st229{fill:#2C73FA;}
	.st230{fill:#2D74FA;}
	.st231{fill:#2D75FA;}
	.st232{fill:#2D76FA;}
	.st233{fill:#2E77FA;}
	.st234{fill:#2E78FA;}
	.st235{fill:#2F79FA;}
	.st236{fill:#2F7AFA;}
	.st237{fill:#307BFA;}
	.st238{fill:#307CFA;}
	.st239{fill:#317DFA;}
	.st240{fill:#317EFA;}
	.st241{fill:#317FFA;}
	.st242{fill:#3280FA;}
	.st243{fill:#3281FA;}
	.st244{fill:#3382FA;}
	.st245{fill:#3383F9;}
	.st246{fill:#3484F9;}
	.st247{fill:#3485F9;}
	.st248{fill:#3486F9;}
	.st249{fill:#3587F9;}
	.st250{fill:#3588F9;}
	.st251{fill:#3689F9;}
	.st252{fill:#368AF9;}
	.st253{fill:#378BF9;}
	.st254{fill:#378CF9;}
	.st255{fill:#378DF9;}
	.st256{fill:#388EF9;}
	.st257{fill:#388FF9;}
	.st258{fill:#3990F9;}
	.st259{fill:#3991F9;}
	.st260{fill:#3A92F9;}
	.st261{fill:#3A93F9;}
	.st262{fill:#3A94F9;}
	.st263{fill:#3B95F9;}
	.st264{fill:#3B96F9;}
	.st265{fill:#3C97F9;}
	.st266{fill:#3C98F9;}
	.st267{fill:#3D99F8;}
	.st268{fill:#3D9AF8;}
	.st269{fill:#3E9BF8;}
	.st270{fill:#3E9CF8;}
	.st271{fill:#3E9DF8;}
	.st272{fill:#3F9EF8;}
	.st273{fill:#3F9FF8;}
	.st274{fill:#40A0F8;}
	.st275{fill:#40A1F8;}
	.st276{fill:#41A2F8;}
	.st277{fill:#41A3F8;}
	.st278{fill:url(#SVGID_1_);}
</style>
<g>
	<g>
		<path class="st0" d="M105.4,274c-1.7,7.2-5.5,12.7-11,16.8c-5.8,4.1-13.3,6.1-22.6,6.1c-12.8,0-23.2-4.3-30.4-13
			c-7.2-8.7-11-20.9-11-36.2s3.8-27.5,11-36.2c7.2-8.7,17.4-13,30.4-13c9.3,0,16.8,2.3,22.3,6.4c5.5,4.3,9.3,10.1,11,17.7v0.3h29.6
			v-0.6c-2.6-15.4-9.6-27.2-20.6-35.9c-11-8.4-24.9-12.7-42-12.7c-14.2,0-27.5,3.2-37.7,9.3c-10.1,6.1-18.3,15.1-23.8,26.1
			c-5.5,11.6-8.4,24.3-8.4,38.8c0,14.5,2.9,27.2,8.4,38.2c5.5,11,13.6,19.7,23.8,25.8c10.1,6.1,23.5,9.3,37.7,9.3
			c17.1,0,31.3-4.1,42-12.5c11-8.4,17.7-20,20.6-34.5v-0.6h-29.3V274z"/>
		<path class="st0" d="M172.1,318.7h-25.8V192.9c0-8.1,6.7-14.8,14.8-14.8h11V318.7z"/>
		<path class="st0" d="M210,218.4h-25.8v100.2H210V218.4z"/>
		<path class="st0" d="M281.6,216.1c-7.8,0-14.8,1.7-20.9,5.2c-5.2,3.2-9.3,7.2-12.2,12.5v-15.1h-2.9h-23.2v58.8V319h26.1v-41.7
			v-10.4c0-9.3,2.3-16.2,7-21.4c4.6-5.2,10.7-7.8,18-7.8c7.5,0,12.8,2.3,16.5,7c3.5,4.6,5.2,11.3,5.2,19.7v54.2H321v-56.2
			c0-15.1-3.5-26.7-10.4-34.5C303.6,219.9,294.1,216.1,281.6,216.1z"/>
		<path class="st0" d="M359.6,218.4h-25.8v100.2h25.8V218.4z"/>
		<path class="st0" d="M436.6,295.2c-4.1,2.6-8.7,4.1-13.9,4.1c-7.2,0-13.3-2.6-18.3-8.1c-4.9-5.5-7.5-12.7-7.5-22.3
			c0-9.6,2.6-17.1,7.5-22.3c4.9-5.5,11-8.1,18.3-8.1c5.5,0,10.1,1.4,13.9,4.1c4.1,2.9,6.7,6.7,8.1,11.3H472
			c-2.3-11.6-8.1-20.9-16.8-27.5c-8.7-6.7-19.4-10.1-32.5-10.1c-10.1,0-19.4,2.3-27,6.7c-7.8,4.3-13.9,10.7-18.5,18.5
			c-4.6,7.8-6.7,17.1-6.7,27.2c0,10.1,2.3,19.4,6.7,27.2c4.6,7.8,10.7,14.2,18.5,18.5c7.8,4.3,16.8,6.7,27,6.7
			c12.8,0,23.5-3.5,32.5-10.4c8.7-7,14.5-15.9,16.8-27.2h-27.2C443.3,288.5,440.7,292.3,436.6,295.2z"/>
		<path class="st0" d="M197,178.7c-8.1,0-14.8,6.7-14.8,14.8c0,8.1,6.7,14.8,14.8,14.8s14.8-6.7,14.8-14.8
			C211.8,185.4,205.4,178.7,197,178.7z"/>
		<path class="st0" d="M346.5,178.7c-8.1,0-14.8,6.7-14.8,14.8c0,8.1,6.7,14.8,14.8,14.8c8.1,0,14.8-6.7,14.8-14.8
			C361.3,185.4,354.6,178.7,346.5,178.7z"/>
		<path class="st0" d="M137.9,9h-28.6L69.1,123.7L29.2,9.3L29.1,9H0l52.5,143.1l0.2,0.2h32.7L137.6,9.6L137.9,9z"/>
		<path class="st0" d="M196.5,55.1c-7.6-4.3-16.4-6.5-26.4-6.5c-10.6,0-19.8,2.3-27.7,6.8c-7.8,4.5-13.9,11-18.4,19.1
			c-4.5,8.1-6.6,17.4-6.6,27.9c0,10.3,2.3,19.4,6.8,27.4c4.5,8,10.6,13.9,18.6,18.4c8,4.3,16.9,6.5,27.1,6.5
			c8.1,0,15.4-1.5,21.9-4.5c6.5-3,12-7.1,16.3-12.3c4.5-5.3,7.6-11.1,9.5-17.4h-26.6c-1.8,3.8-4.5,7-8.1,9.3
			c-3.7,2.3-8.1,3.7-13.4,3.7c-7.1,0-13.1-2.3-18.1-6.8s-7.8-10.6-8.3-18.6h76.9c0.2-1.8,0.2-3.5,0.3-5.1c0-1.7,0.2-3.2,0.2-4.6
			c0-9.3-2.2-17.6-6.5-25.2S204.2,59.6,196.5,55.1z M143.9,91.6c1.3-7.3,4.5-12.8,9.5-16.4c5-3.7,10.6-5.5,16.9-5.5
			c6.6,0,12.3,2,16.8,6c4.5,4,7,9.3,7.3,15.9H143.9z"/>
		<path class="st0" d="M345.1,70.9c5.5,0,10.1,1.3,14.1,4.2c4,2.8,6.6,6.6,8.1,11.5h27.6c-2.5-11.8-8.1-21.1-16.9-27.7
			c-8.8-6.8-19.8-10.1-32.7-10.1c-10.3,0-19.4,2.3-27.4,6.8c-8,4.5-14.1,10.8-18.6,18.8c-4.5,8-6.8,17.3-6.8,27.6
			c0,10.3,2.3,19.6,6.8,27.6s10.8,14.3,18.6,18.8c8,4.5,16.9,6.8,27.4,6.8c12.9,0,23.7-3.5,32.7-10.5c8.8-7,14.4-16.1,16.9-27.6
			h-27.6c-1.3,5-4,9-8.1,11.6c-4,2.7-8.8,4.1-14.1,4.1c-7.1,0-13.3-2.7-18.4-8.1c-5-5.5-7.5-12.9-7.5-22.6c0-9.6,2.5-17.3,7.5-22.6
			C331.8,73.6,338,70.9,345.1,70.9z"/>
		<path class="st0" d="M428.9,51.1h-26.1v101.3h26.1V51.1z"/>
		<path class="st0" d="M264.9,23.9h-11.1c-8.3,0-14.9,6.6-14.9,14.9V51h-17.3v21.9h17.3V117c0,13.3,3.2,22.4,9.6,27.6
			s14.9,7.8,25.6,7.8h17.8v-22.2h-12.6c-5.1,0-8.8-1-11-2.8c-2.2-1.8-3.2-5.1-3.2-10.1V72.9h27.4V51.1h-27.4V23.9H264.9z"/>
		<path class="st0" d="M480.2,23.9h-11.1c-8.3,0-14.9,6.6-14.9,14.9V51h-17.3v21.9h17.3V117c0,13.3,3.2,22.4,9.6,27.6
			s14.9,7.8,25.6,7.8h17.8v-22.2h-12.6c-5.1,0-8.8-1-11-2.8c-2.2-1.8-3.2-5.1-3.2-10.1V72.9h27.4V51.1h-27.4V23.9H480.2z"/>
		<path class="st0" d="M623,51.1h-27.2L567.1,118l-28.9-66.9h-27.1l42.3,98.4L533,197.2h27.1L623,51.1z"/>
	</g>
	<g>
		<g>
			<g>
				<path class="st1" d="M393.1,19.8c4.2,5.3,11.9,6.3,17.2,2.1c5.3-4.2,6.3-11.9,2.1-17.2s-11.9-6.3-17.2-2.1
					C389.9,6.8,388.9,14.5,393.1,19.8z"/>
				
					<ellipse transform="matrix(0.788 -0.6157 0.6157 0.788 77.7797 250.6492)" class="st2" cx="402.8" cy="12.4" rx="12.3" ry="12.2"/>
				
					<ellipse transform="matrix(0.788 -0.6157 0.6157 0.788 77.7179 250.7433)" class="st3" cx="402.9" cy="12.5" rx="12.3" ry="12.2"/>
				
					<ellipse transform="matrix(0.788 -0.6157 0.6157 0.788 77.6562 250.8373)" class="st4" cx="403" cy="12.7" rx="12.3" ry="12.2"/>
				
					<ellipse transform="matrix(0.788 -0.6157 0.6157 0.788 77.5944 250.9314)" class="st5" cx="403.1" cy="12.8" rx="12.3" ry="12.2"/>
				
					<ellipse transform="matrix(0.788 -0.6157 0.6157 0.788 77.5326 251.0255)" class="st6" cx="403.3" cy="12.9" rx="12.3" ry="12.2"/>
				
					<ellipse transform="matrix(0.788 -0.6157 0.6157 0.788 77.4708 251.1195)" class="st7" cx="403.4" cy="13.1" rx="12.3" ry="12.2"/>
				
					<ellipse transform="matrix(0.788 -0.6157 0.6157 0.788 77.409 251.2136)" class="st8" cx="403.5" cy="13.2" rx="12.3" ry="12.2"/>
				
					<ellipse transform="matrix(0.788 -0.6157 0.6157 0.788 77.3472 251.3077)" class="st9" cx="403.6" cy="13.3" rx="12.3" ry="12.2"/>
				
					<ellipse transform="matrix(0.788 -0.6157 0.6157 0.788 77.2854 251.4017)" class="st10" cx="403.7" cy="13.5" rx="12.3" ry="12.2"/>
				
					<ellipse transform="matrix(0.788 -0.6157 0.6157 0.788 77.2237 251.4958)" class="st11" cx="403.8" cy="13.6" rx="12.3" ry="12.2"/>
				
					<ellipse transform="matrix(0.788 -0.6157 0.6157 0.788 77.1619 251.5899)" class="st12" cx="403.9" cy="13.8" rx="12.3" ry="12.2"/>
				
					<ellipse transform="matrix(0.788 -0.6157 0.6157 0.788 77.1001 251.6839)" class="st13" cx="404" cy="13.9" rx="12.3" ry="12.2"/>
				
					<ellipse transform="matrix(0.788 -0.6157 0.6157 0.788 77.0383 251.778)" class="st14" cx="404.1" cy="14" rx="12.3" ry="12.2"/>
				
					<ellipse transform="matrix(0.788 -0.6157 0.6157 0.788 76.9765 251.8721)" class="st15" cx="404.2" cy="14.2" rx="12.3" ry="12.2"/>
				
					<ellipse transform="matrix(0.788 -0.6157 0.6157 0.788 76.9147 251.9661)" class="st16" cx="404.3" cy="14.3" rx="12.3" ry="12.2"/>
				
					<ellipse transform="matrix(0.788 -0.6157 0.6157 0.788 76.853 252.0602)" class="st17" cx="404.4" cy="14.4" rx="12.3" ry="12.2"/>
				
					<ellipse transform="matrix(0.788 -0.6157 0.6157 0.788 76.7912 252.1543)" class="st18" cx="404.5" cy="14.6" rx="12.3" ry="12.2"/>
				
					<ellipse transform="matrix(0.788 -0.6157 0.6157 0.788 76.7294 252.2483)" class="st19" cx="404.6" cy="14.7" rx="12.3" ry="12.2"/>
				
					<ellipse transform="matrix(0.788 -0.6157 0.6157 0.788 76.6676 252.3424)" class="st20" cx="404.7" cy="14.8" rx="12.3" ry="12.2"/>
				
					<ellipse transform="matrix(0.788 -0.6157 0.6157 0.788 76.6058 252.4364)" class="st21" cx="404.9" cy="15" rx="12.3" ry="12.2"/>
				
					<ellipse transform="matrix(0.788 -0.6157 0.6157 0.788 76.544 252.5305)" class="st22" cx="405" cy="15.1" rx="12.3" ry="12.2"/>
				
					<ellipse transform="matrix(0.788 -0.6157 0.6157 0.788 76.4822 252.6246)" class="st23" cx="405.1" cy="15.3" rx="12.3" ry="12.2"/>
				
					<ellipse transform="matrix(0.788 -0.6157 0.6157 0.788 76.4205 252.7186)" class="st24" cx="405.2" cy="15.4" rx="12.3" ry="12.2"/>
				
					<ellipse transform="matrix(0.788 -0.6157 0.6157 0.788 76.3587 252.8127)" class="st25" cx="405.3" cy="15.5" rx="12.3" ry="12.2"/>
				
					<ellipse transform="matrix(0.788 -0.6157 0.6157 0.788 76.2969 252.9068)" class="st26" cx="405.4" cy="15.7" rx="12.3" ry="12.2"/>
				
					<ellipse transform="matrix(0.788 -0.6157 0.6157 0.788 76.2351 253.0008)" class="st27" cx="405.5" cy="15.8" rx="12.3" ry="12.2"/>
				
					<ellipse transform="matrix(0.788 -0.6157 0.6157 0.788 76.1733 253.0949)" class="st28" cx="405.6" cy="15.9" rx="12.3" ry="12.2"/>
				
					<ellipse transform="matrix(0.788 -0.6157 0.6157 0.788 76.1115 253.1889)" class="st29" cx="405.7" cy="16.1" rx="12.3" ry="12.2"/>
				
					<ellipse transform="matrix(0.788 -0.6157 0.6157 0.788 76.0498 253.283)" class="st30" cx="405.8" cy="16.2" rx="12.3" ry="12.2"/>
				
					<ellipse transform="matrix(0.788 -0.6157 0.6157 0.788 75.988 253.377)" class="st31" cx="405.9" cy="16.3" rx="12.3" ry="12.2"/>
				
					<ellipse transform="matrix(0.788 -0.6157 0.6157 0.788 75.9262 253.4711)" class="st32" cx="406" cy="16.5" rx="12.3" ry="12.2"/>
				
					<ellipse transform="matrix(0.788 -0.6157 0.6157 0.788 75.8644 253.5651)" class="st33" cx="406.1" cy="16.6" rx="12.3" ry="12.2"/>
				
					<ellipse transform="matrix(0.788 -0.6157 0.6157 0.788 75.8026 253.6592)" class="st34" cx="406.2" cy="16.8" rx="12.3" ry="12.2"/>
				
					<ellipse transform="matrix(0.788 -0.6157 0.6157 0.788 75.7409 253.7533)" class="st35" cx="406.3" cy="16.9" rx="12.3" ry="12.2"/>
				
					<ellipse transform="matrix(0.788 -0.6157 0.6157 0.788 75.6791 253.8473)" class="st36" cx="406.5" cy="17" rx="12.3" ry="12.2"/>
				
					<ellipse transform="matrix(0.788 -0.6157 0.6157 0.788 75.6173 253.9414)" class="st37" cx="406.6" cy="17.2" rx="12.3" ry="12.2"/>
				
					<ellipse transform="matrix(0.788 -0.6157 0.6157 0.788 75.5555 254.0354)" class="st38" cx="406.7" cy="17.3" rx="12.3" ry="12.2"/>
				
					<ellipse transform="matrix(0.788 -0.6157 0.6157 0.788 75.4937 254.1295)" class="st39" cx="406.8" cy="17.4" rx="12.3" ry="12.2"/>
				
					<ellipse transform="matrix(0.788 -0.6157 0.6157 0.788 75.4319 254.2235)" class="st40" cx="406.9" cy="17.6" rx="12.3" ry="12.2"/>
				
					<ellipse transform="matrix(0.788 -0.6157 0.6157 0.788 75.3702 254.3176)" class="st41" cx="407" cy="17.7" rx="12.3" ry="12.2"/>
				
					<ellipse transform="matrix(0.788 -0.6157 0.6157 0.788 75.3084 254.4116)" class="st42" cx="407.1" cy="17.8" rx="12.3" ry="12.2"/>
				
					<ellipse transform="matrix(0.788 -0.6157 0.6157 0.788 75.2466 254.5057)" class="st43" cx="407.2" cy="18" rx="12.3" ry="12.2"/>
				
					<ellipse transform="matrix(0.788 -0.6157 0.6157 0.788 75.1848 254.5997)" class="st44" cx="407.3" cy="18.1" rx="12.3" ry="12.2"/>
				
					<ellipse transform="matrix(0.788 -0.6156 0.6156 0.788 75.123 254.6938)" class="st45" cx="407.4" cy="18.3" rx="12.3" ry="12.2"/>
				
					<ellipse transform="matrix(0.788 -0.6156 0.6156 0.788 75.0613 254.7878)" class="st46" cx="407.5" cy="18.4" rx="12.3" ry="12.2"/>
				
					<ellipse transform="matrix(0.788 -0.6156 0.6156 0.788 74.9995 254.8819)" class="st47" cx="407.6" cy="18.5" rx="12.3" ry="12.2"/>
				
					<ellipse transform="matrix(0.788 -0.6156 0.6156 0.788 74.9377 254.9759)" class="st48" cx="407.7" cy="18.7" rx="12.3" ry="12.2"/>
				
					<ellipse transform="matrix(0.788 -0.6156 0.6156 0.788 74.8759 255.07)" class="st49" cx="407.8" cy="18.8" rx="12.3" ry="12.2"/>
				
					<ellipse transform="matrix(0.788 -0.6156 0.6156 0.788 74.8141 255.164)" class="st50" cx="407.9" cy="18.9" rx="12.3" ry="12.2"/>
				
					<ellipse transform="matrix(0.788 -0.6156 0.6156 0.788 74.7524 255.258)" class="st51" cx="408.1" cy="19.1" rx="12.3" ry="12.2"/>
				
					<ellipse transform="matrix(0.788 -0.6156 0.6156 0.788 74.6906 255.3521)" class="st52" cx="408.2" cy="19.2" rx="12.3" ry="12.2"/>
				
					<ellipse transform="matrix(0.788 -0.6156 0.6156 0.788 74.6288 255.4461)" class="st53" cx="408.3" cy="19.3" rx="12.3" ry="12.2"/>
				
					<ellipse transform="matrix(0.788 -0.6156 0.6156 0.788 74.567 255.5402)" class="st54" cx="408.4" cy="19.5" rx="12.3" ry="12.2"/>
				
					<ellipse transform="matrix(0.788 -0.6156 0.6156 0.788 74.5052 255.6342)" class="st55" cx="408.5" cy="19.6" rx="12.3" ry="12.2"/>
				
					<ellipse transform="matrix(0.788 -0.6156 0.6156 0.788 74.4435 255.7283)" class="st56" cx="408.6" cy="19.8" rx="12.3" ry="12.2"/>
				
					<ellipse transform="matrix(0.788 -0.6156 0.6156 0.788 74.3817 255.8223)" class="st57" cx="408.7" cy="19.9" rx="12.3" ry="12.2"/>
				
					<ellipse transform="matrix(0.788 -0.6156 0.6156 0.788 74.3199 255.9164)" class="st58" cx="408.8" cy="20" rx="12.3" ry="12.2"/>
				
					<ellipse transform="matrix(0.788 -0.6156 0.6156 0.788 74.2581 256.0104)" class="st59" cx="408.9" cy="20.2" rx="12.3" ry="12.2"/>
				
					<ellipse transform="matrix(0.788 -0.6156 0.6156 0.788 74.1963 256.1044)" class="st60" cx="409" cy="20.3" rx="12.3" ry="12.2"/>
				
					<ellipse transform="matrix(0.788 -0.6156 0.6156 0.788 74.1346 256.1985)" class="st61" cx="409.1" cy="20.4" rx="12.3" ry="12.2"/>
				
					<ellipse transform="matrix(0.788 -0.6156 0.6156 0.788 74.0728 256.2925)" class="st62" cx="409.2" cy="20.6" rx="12.3" ry="12.2"/>
				
					<ellipse transform="matrix(0.788 -0.6156 0.6156 0.788 74.011 256.3866)" class="st63" cx="409.3" cy="20.7" rx="12.3" ry="12.2"/>
				
					<ellipse transform="matrix(0.788 -0.6156 0.6156 0.788 73.9492 256.4806)" class="st63" cx="409.4" cy="20.9" rx="12.3" ry="12.2"/>
				
					<ellipse transform="matrix(0.788 -0.6156 0.6156 0.788 73.8874 256.5746)" class="st64" cx="409.5" cy="21" rx="12.3" ry="12.2"/>
				
					<ellipse transform="matrix(0.788 -0.6156 0.6156 0.788 73.8257 256.6687)" class="st65" cx="409.7" cy="21.1" rx="12.3" ry="12.2"/>
				
					<ellipse transform="matrix(0.788 -0.6156 0.6156 0.788 73.7639 256.7627)" class="st66" cx="409.8" cy="21.3" rx="12.3" ry="12.2"/>
				
					<ellipse transform="matrix(0.788 -0.6156 0.6156 0.788 73.7021 256.8568)" class="st67" cx="409.9" cy="21.4" rx="12.3" ry="12.2"/>
				
					<ellipse transform="matrix(0.788 -0.6156 0.6156 0.788 73.6403 256.9508)" class="st68" cx="410" cy="21.5" rx="12.3" ry="12.2"/>
				
					<ellipse transform="matrix(0.788 -0.6156 0.6156 0.788 73.5786 257.0448)" class="st69" cx="410.1" cy="21.7" rx="12.3" ry="12.2"/>
				
					<ellipse transform="matrix(0.788 -0.6156 0.6156 0.788 73.5168 257.1389)" class="st70" cx="410.2" cy="21.8" rx="12.3" ry="12.2"/>
				
					<ellipse transform="matrix(0.788 -0.6156 0.6156 0.788 73.455 257.2329)" class="st71" cx="410.3" cy="21.9" rx="12.3" ry="12.2"/>
				
					<ellipse transform="matrix(0.788 -0.6156 0.6156 0.788 73.3932 257.3269)" class="st72" cx="410.4" cy="22.1" rx="12.3" ry="12.2"/>
				
					<ellipse transform="matrix(0.788 -0.6156 0.6156 0.788 73.3315 257.421)" class="st73" cx="410.5" cy="22.2" rx="12.3" ry="12.2"/>
				
					<ellipse transform="matrix(0.788 -0.6156 0.6156 0.788 73.2697 257.515)" class="st74" cx="410.6" cy="22.4" rx="12.3" ry="12.2"/>
				
					<ellipse transform="matrix(0.788 -0.6156 0.6156 0.788 73.2079 257.609)" class="st75" cx="410.7" cy="22.5" rx="12.3" ry="12.2"/>
				
					<ellipse transform="matrix(0.7881 -0.6156 0.6156 0.7881 73.1461 257.7031)" class="st76" cx="410.8" cy="22.6" rx="12.3" ry="12.2"/>
				
					<ellipse transform="matrix(0.7881 -0.6156 0.6156 0.7881 73.0843 257.7971)" class="st77" cx="410.9" cy="22.8" rx="12.3" ry="12.2"/>
				
					<ellipse transform="matrix(0.7881 -0.6156 0.6156 0.7881 73.0226 257.8911)" class="st78" cx="411" cy="22.9" rx="12.3" ry="12.2"/>
				
					<ellipse transform="matrix(0.7881 -0.6156 0.6156 0.7881 72.9608 257.9851)" class="st79" cx="411.1" cy="23" rx="12.3" ry="12.2"/>
				
					<ellipse transform="matrix(0.7881 -0.6156 0.6156 0.7881 72.899 258.0792)" class="st80" cx="411.3" cy="23.2" rx="12.3" ry="12.2"/>
				
					<ellipse transform="matrix(0.7881 -0.6156 0.6156 0.7881 72.8372 258.1732)" class="st81" cx="411.4" cy="23.3" rx="12.3" ry="12.2"/>
				
					<ellipse transform="matrix(0.7881 -0.6156 0.6156 0.7881 72.7755 258.2672)" class="st82" cx="411.5" cy="23.4" rx="12.3" ry="12.2"/>
				
					<ellipse transform="matrix(0.7881 -0.6156 0.6156 0.7881 72.7137 258.3613)" class="st83" cx="411.6" cy="23.6" rx="12.3" ry="12.2"/>
				
					<ellipse transform="matrix(0.7881 -0.6156 0.6156 0.7881 72.6519 258.4553)" class="st84" cx="411.7" cy="23.7" rx="12.3" ry="12.2"/>
				
					<ellipse transform="matrix(0.7881 -0.6156 0.6156 0.7881 72.5901 258.5493)" class="st85" cx="411.8" cy="23.9" rx="12.3" ry="12.2"/>
				
					<ellipse transform="matrix(0.7881 -0.6156 0.6156 0.7881 72.5284 258.6433)" class="st86" cx="411.9" cy="24" rx="12.3" ry="12.2"/>
				
					<ellipse transform="matrix(0.7881 -0.6156 0.6156 0.7881 72.4666 258.7374)" class="st87" cx="412" cy="24.1" rx="12.3" ry="12.2"/>
				
					<ellipse transform="matrix(0.7881 -0.6156 0.6156 0.7881 72.4048 258.8314)" class="st88" cx="412.1" cy="24.3" rx="12.3" ry="12.2"/>
				
					<ellipse transform="matrix(0.7881 -0.6156 0.6156 0.7881 72.343 258.9254)" class="st89" cx="412.2" cy="24.4" rx="12.3" ry="12.2"/>
				
					<ellipse transform="matrix(0.7881 -0.6156 0.6156 0.7881 72.2813 259.0194)" class="st90" cx="412.3" cy="24.5" rx="12.3" ry="12.2"/>
				
					<ellipse transform="matrix(0.7881 -0.6156 0.6156 0.7881 72.2195 259.1135)" class="st91" cx="412.4" cy="24.7" rx="12.3" ry="12.2"/>
				
					<ellipse transform="matrix(0.7881 -0.6156 0.6156 0.7881 72.1577 259.2075)" class="st92" cx="412.5" cy="24.8" rx="12.3" ry="12.2"/>
				
					<ellipse transform="matrix(0.7881 -0.6156 0.6156 0.7881 72.0959 259.3015)" class="st93" cx="412.6" cy="24.9" rx="12.3" ry="12.2"/>
				
					<ellipse transform="matrix(0.7881 -0.6156 0.6156 0.7881 72.0342 259.3955)" class="st94" cx="412.7" cy="25.1" rx="12.3" ry="12.2"/>
				
					<ellipse transform="matrix(0.7881 -0.6156 0.6156 0.7881 71.9724 259.4896)" class="st95" cx="412.9" cy="25.2" rx="12.3" ry="12.2"/>
				
					<ellipse transform="matrix(0.7881 -0.6156 0.6156 0.7881 71.9106 259.5836)" class="st96" cx="413" cy="25.4" rx="12.3" ry="12.2"/>
				
					<ellipse transform="matrix(0.7881 -0.6156 0.6156 0.7881 71.8488 259.6776)" class="st97" cx="413.1" cy="25.5" rx="12.3" ry="12.2"/>
				
					<ellipse transform="matrix(0.7881 -0.6156 0.6156 0.7881 71.7871 259.7716)" class="st98" cx="413.2" cy="25.6" rx="12.3" ry="12.2"/>
				
					<ellipse transform="matrix(0.7881 -0.6156 0.6156 0.7881 71.7253 259.8656)" class="st99" cx="413.3" cy="25.8" rx="12.3" ry="12.2"/>
				
					<ellipse transform="matrix(0.7881 -0.6156 0.6156 0.7881 71.6635 259.9597)" class="st100" cx="413.4" cy="25.9" rx="12.3" ry="12.2"/>
				
					<ellipse transform="matrix(0.7881 -0.6156 0.6156 0.7881 71.6017 260.0537)" class="st101" cx="413.5" cy="26" rx="12.3" ry="12.2"/>
				
					<ellipse transform="matrix(0.7881 -0.6156 0.6156 0.7881 71.54 260.1477)" class="st102" cx="413.6" cy="26.2" rx="12.3" ry="12.2"/>
				
					<ellipse transform="matrix(0.7881 -0.6156 0.6156 0.7881 71.4782 260.2417)" class="st103" cx="413.7" cy="26.3" rx="12.3" ry="12.2"/>
				
					<ellipse transform="matrix(0.7881 -0.6156 0.6156 0.7881 71.4164 260.3357)" class="st104" cx="413.8" cy="26.4" rx="12.3" ry="12.2"/>
				
					<ellipse transform="matrix(0.7881 -0.6156 0.6156 0.7881 71.3547 260.4297)" class="st105" cx="413.9" cy="26.6" rx="12.3" ry="12.2"/>
				
					<ellipse transform="matrix(0.7881 -0.6156 0.6156 0.7881 71.2929 260.5238)" class="st106" cx="414" cy="26.7" rx="12.3" ry="12.2"/>
				
					<ellipse transform="matrix(0.7881 -0.6156 0.6156 0.7881 71.2311 260.6178)" class="st107" cx="414.1" cy="26.9" rx="12.3" ry="12.2"/>
				
					<ellipse transform="matrix(0.7881 -0.6156 0.6156 0.7881 71.1693 260.7118)" class="st108" cx="414.2" cy="27" rx="12.3" ry="12.2"/>
				
					<ellipse transform="matrix(0.7881 -0.6156 0.6156 0.7881 71.1076 260.8058)" class="st109" cx="414.3" cy="27.1" rx="12.3" ry="12.2"/>
				
					<ellipse transform="matrix(0.7881 -0.6156 0.6156 0.7881 71.0458 260.8998)" class="st110" cx="414.4" cy="27.3" rx="12.3" ry="12.2"/>
				
					<ellipse transform="matrix(0.7881 -0.6156 0.6156 0.7881 70.984 260.9938)" class="st111" cx="414.6" cy="27.4" rx="12.3" ry="12.2"/>
				
					<ellipse transform="matrix(0.7881 -0.6156 0.6156 0.7881 70.9222 261.0879)" class="st112" cx="414.7" cy="27.5" rx="12.3" ry="12.2"/>
				
					<ellipse transform="matrix(0.7881 -0.6156 0.6156 0.7881 70.8605 261.1819)" class="st113" cx="414.8" cy="27.7" rx="12.3" ry="12.2"/>
				
					<ellipse transform="matrix(0.7881 -0.6156 0.6156 0.7881 70.7987 261.2759)" class="st114" cx="414.9" cy="27.8" rx="12.3" ry="12.2"/>
				
					<ellipse transform="matrix(0.7881 -0.6156 0.6156 0.7881 70.7369 261.3699)" class="st115" cx="415" cy="27.9" rx="12.3" ry="12.2"/>
				
					<ellipse transform="matrix(0.7881 -0.6156 0.6156 0.7881 70.6752 261.4639)" class="st116" cx="415.1" cy="28.1" rx="12.3" ry="12.2"/>
				
					<ellipse transform="matrix(0.7881 -0.6156 0.6156 0.7881 70.6134 261.5579)" class="st117" cx="415.2" cy="28.2" rx="12.3" ry="12.2"/>
				
					<ellipse transform="matrix(0.7881 -0.6156 0.6156 0.7881 70.5516 261.6519)" class="st118" cx="415.3" cy="28.4" rx="12.3" ry="12.2"/>
				
					<ellipse transform="matrix(0.7881 -0.6156 0.6156 0.7881 70.4898 261.7459)" class="st119" cx="415.4" cy="28.5" rx="12.3" ry="12.2"/>
				
					<ellipse transform="matrix(0.7881 -0.6156 0.6156 0.7881 70.4281 261.8399)" class="st120" cx="415.5" cy="28.6" rx="12.3" ry="12.2"/>
				
					<ellipse transform="matrix(0.7881 -0.6156 0.6156 0.7881 70.3663 261.9339)" class="st121" cx="415.6" cy="28.8" rx="12.3" ry="12.2"/>
				
					<ellipse transform="matrix(0.7881 -0.6156 0.6156 0.7881 70.3045 262.028)" class="st122" cx="415.7" cy="28.9" rx="12.3" ry="12.2"/>
				
					<ellipse transform="matrix(0.7881 -0.6156 0.6156 0.7881 70.2428 262.1219)" class="st123" cx="415.8" cy="29" rx="12.3" ry="12.2"/>
				
					<ellipse transform="matrix(0.7881 -0.6156 0.6156 0.7881 70.181 262.216)" class="st124" cx="415.9" cy="29.2" rx="12.3" ry="12.2"/>
				
					<ellipse transform="matrix(0.7881 -0.6155 0.6155 0.7881 70.1192 262.31)" class="st125" cx="416" cy="29.3" rx="12.3" ry="12.2"/>
				<path class="st126" d="M406.5,37c4.2,5.3,11.9,6.3,17.2,2.1c5.3-4.2,6.3-11.9,2.1-17.2c-4.2-5.3-11.9-6.3-17.2-2.1
					C403.3,24,402.3,31.7,406.5,37z"/>
			</g>
			<g>
				<path class="st127" d="M423.7,19.8c-5.3-4.2-13-3.2-17.2,2.1c-4.2,5.3-3.2,13,2.1,17.2c5.3,4.2,13,3.2,17.2-2.1
					C430,31.7,429,24,423.7,19.8z"/>
				
					<ellipse transform="matrix(0.6149 -0.7886 0.7886 0.6149 137.1813 339.5648)" class="st128" cx="416.2" cy="29.3" rx="12.2" ry="12.3"/>
				
					<ellipse transform="matrix(0.6149 -0.7886 0.7886 0.6149 137.3059 339.591)" class="st129" cx="416.3" cy="29.2" rx="12.2" ry="12.3"/>
				
					<ellipse transform="matrix(0.6149 -0.7886 0.7886 0.6149 137.4305 339.6172)" class="st130" cx="416.4" cy="29.1" rx="12.2" ry="12.3"/>
				
					<ellipse transform="matrix(0.6149 -0.7886 0.7886 0.6149 137.5551 339.6434)" class="st131" cx="416.5" cy="29" rx="12.2" ry="12.3"/>
				
					<ellipse transform="matrix(0.6149 -0.7886 0.7886 0.6149 137.6796 339.6696)" class="st132" cx="416.6" cy="28.9" rx="12.2" ry="12.3"/>
				
					<ellipse transform="matrix(0.6149 -0.7886 0.7886 0.6149 137.8042 339.6957)" class="st133" cx="416.7" cy="28.8" rx="12.2" ry="12.3"/>
				
					<ellipse transform="matrix(0.6149 -0.7886 0.7886 0.6149 137.9288 339.722)" class="st134" cx="416.8" cy="28.6" rx="12.2" ry="12.3"/>
				
					<ellipse transform="matrix(0.6149 -0.7886 0.7886 0.6149 138.0533 339.7481)" class="st135" cx="416.9" cy="28.5" rx="12.2" ry="12.3"/>
				
					<ellipse transform="matrix(0.6149 -0.7886 0.7886 0.6149 138.1779 339.7743)" class="st136" cx="417" cy="28.4" rx="12.2" ry="12.3"/>
				
					<ellipse transform="matrix(0.6149 -0.7886 0.7886 0.6149 138.3025 339.8005)" class="st137" cx="417.1" cy="28.3" rx="12.2" ry="12.3"/>
				
					<ellipse transform="matrix(0.6149 -0.7886 0.7886 0.6149 138.4271 339.8267)" class="st138" cx="417.1" cy="28.2" rx="12.2" ry="12.3"/>
				
					<ellipse transform="matrix(0.6149 -0.7886 0.7886 0.6149 138.5516 339.8529)" class="st139" cx="417.2" cy="28.1" rx="12.2" ry="12.3"/>
				
					<ellipse transform="matrix(0.6149 -0.7886 0.7886 0.6149 138.6762 339.8791)" class="st140" cx="417.3" cy="28" rx="12.2" ry="12.3"/>
				
					<ellipse transform="matrix(0.6149 -0.7886 0.7886 0.6149 138.8008 339.9053)" class="st141" cx="417.4" cy="27.8" rx="12.2" ry="12.3"/>
				
					<ellipse transform="matrix(0.6149 -0.7886 0.7886 0.6149 138.9254 339.9315)" class="st142" cx="417.5" cy="27.7" rx="12.2" ry="12.3"/>
				
					<ellipse transform="matrix(0.6149 -0.7886 0.7886 0.6149 139.0499 339.9577)" class="st143" cx="417.6" cy="27.6" rx="12.2" ry="12.3"/>
				
					<ellipse transform="matrix(0.6149 -0.7886 0.7886 0.6149 139.1745 339.9839)" class="st144" cx="417.7" cy="27.5" rx="12.2" ry="12.3"/>
				
					<ellipse transform="matrix(0.6149 -0.7886 0.7886 0.6149 139.2991 340.0101)" class="st145" cx="417.8" cy="27.4" rx="12.2" ry="12.3"/>
				
					<ellipse transform="matrix(0.6149 -0.7886 0.7886 0.6149 139.4236 340.0363)" class="st146" cx="417.9" cy="27.3" rx="12.2" ry="12.3"/>
				
					<ellipse transform="matrix(0.6149 -0.7886 0.7886 0.6149 139.5482 340.0625)" class="st147" cx="417.9" cy="27.2" rx="12.2" ry="12.3"/>
				
					<ellipse transform="matrix(0.6149 -0.7886 0.7886 0.6149 139.6728 340.0887)" class="st148" cx="418" cy="27" rx="12.2" ry="12.3"/>
				
					<ellipse transform="matrix(0.6149 -0.7886 0.7886 0.6149 139.7973 340.1149)" class="st149" cx="418.1" cy="26.9" rx="12.2" ry="12.3"/>
				
					<ellipse transform="matrix(0.6149 -0.7886 0.7886 0.6149 139.9219 340.1411)" class="st150" cx="418.2" cy="26.8" rx="12.2" ry="12.3"/>
				
					<ellipse transform="matrix(0.6149 -0.7886 0.7886 0.6149 140.0465 340.1673)" class="st151" cx="418.3" cy="26.7" rx="12.2" ry="12.3"/>
				
					<ellipse transform="matrix(0.6149 -0.7886 0.7886 0.6149 140.1711 340.1935)" class="st152" cx="418.4" cy="26.6" rx="12.2" ry="12.3"/>
				
					<ellipse transform="matrix(0.6149 -0.7886 0.7886 0.6149 140.2956 340.2197)" class="st153" cx="418.5" cy="26.5" rx="12.2" ry="12.3"/>
				
					<ellipse transform="matrix(0.6149 -0.7886 0.7886 0.6149 140.4202 340.2458)" class="st154" cx="418.6" cy="26.4" rx="12.2" ry="12.3"/>
				
					<ellipse transform="matrix(0.6149 -0.7886 0.7886 0.6149 140.5448 340.2721)" class="st155" cx="418.7" cy="26.2" rx="12.2" ry="12.3"/>
				
					<ellipse transform="matrix(0.6149 -0.7886 0.7886 0.6149 140.6693 340.2982)" class="st156" cx="418.8" cy="26.1" rx="12.2" ry="12.3"/>
				
					<ellipse transform="matrix(0.6149 -0.7886 0.7886 0.6149 140.7939 340.3244)" class="st157" cx="418.8" cy="26" rx="12.2" ry="12.3"/>
				
					<ellipse transform="matrix(0.6149 -0.7886 0.7886 0.6149 140.9185 340.3506)" class="st158" cx="418.9" cy="25.9" rx="12.2" ry="12.3"/>
				
					<ellipse transform="matrix(0.6149 -0.7886 0.7886 0.6149 141.043 340.3768)" class="st159" cx="419" cy="25.8" rx="12.2" ry="12.3"/>
				
					<ellipse transform="matrix(0.6149 -0.7886 0.7886 0.6149 141.1676 340.403)" class="st160" cx="419.1" cy="25.7" rx="12.2" ry="12.3"/>
				
					<ellipse transform="matrix(0.6149 -0.7886 0.7886 0.6149 141.2922 340.4292)" class="st161" cx="419.2" cy="25.6" rx="12.2" ry="12.3"/>
				
					<ellipse transform="matrix(0.6149 -0.7886 0.7886 0.6149 141.4167 340.4554)" class="st162" cx="419.3" cy="25.4" rx="12.2" ry="12.3"/>
				
					<ellipse transform="matrix(0.6149 -0.7886 0.7886 0.6149 141.5413 340.4816)" class="st163" cx="419.4" cy="25.3" rx="12.2" ry="12.3"/>
				
					<ellipse transform="matrix(0.6149 -0.7886 0.7886 0.6149 141.6659 340.5078)" class="st164" cx="419.5" cy="25.2" rx="12.2" ry="12.3"/>
				
					<ellipse transform="matrix(0.6149 -0.7886 0.7886 0.6149 141.7904 340.534)" class="st165" cx="419.6" cy="25.1" rx="12.2" ry="12.3"/>
				
					<ellipse transform="matrix(0.6149 -0.7886 0.7886 0.6149 141.915 340.5602)" class="st166" cx="419.6" cy="25" rx="12.2" ry="12.3"/>
				
					<ellipse transform="matrix(0.6149 -0.7886 0.7886 0.6149 142.0396 340.5864)" class="st167" cx="419.7" cy="24.9" rx="12.2" ry="12.3"/>
				
					<ellipse transform="matrix(0.6149 -0.7886 0.7886 0.6149 142.1641 340.6126)" class="st168" cx="419.8" cy="24.7" rx="12.2" ry="12.3"/>
				
					<ellipse transform="matrix(0.6149 -0.7886 0.7886 0.6149 142.2887 340.6388)" class="st169" cx="419.9" cy="24.6" rx="12.2" ry="12.3"/>
				
					<ellipse transform="matrix(0.6149 -0.7886 0.7886 0.6149 142.4133 340.665)" class="st170" cx="420" cy="24.5" rx="12.2" ry="12.3"/>
				
					<ellipse transform="matrix(0.6149 -0.7886 0.7886 0.6149 142.5378 340.6912)" class="st171" cx="420.1" cy="24.4" rx="12.2" ry="12.3"/>
				
					<ellipse transform="matrix(0.6149 -0.7886 0.7886 0.6149 142.6624 340.7174)" class="st172" cx="420.2" cy="24.3" rx="12.2" ry="12.3"/>
				
					<ellipse transform="matrix(0.6149 -0.7886 0.7886 0.6149 142.7869 340.7436)" class="st173" cx="420.3" cy="24.2" rx="12.2" ry="12.3"/>
				
					<ellipse transform="matrix(0.6149 -0.7886 0.7886 0.6149 142.9115 340.7698)" class="st174" cx="420.4" cy="24.1" rx="12.2" ry="12.3"/>
				
					<ellipse transform="matrix(0.6149 -0.7886 0.7886 0.6149 143.0361 340.796)" class="st175" cx="420.5" cy="23.9" rx="12.2" ry="12.3"/>
				
					<ellipse transform="matrix(0.6149 -0.7886 0.7886 0.6149 143.1606 340.8222)" class="st176" cx="420.5" cy="23.8" rx="12.2" ry="12.3"/>
				
					<ellipse transform="matrix(0.6149 -0.7886 0.7886 0.6149 143.2852 340.8484)" class="st177" cx="420.6" cy="23.7" rx="12.2" ry="12.3"/>
				
					<ellipse transform="matrix(0.6149 -0.7886 0.7886 0.6149 143.4097 340.8746)" class="st178" cx="420.7" cy="23.6" rx="12.2" ry="12.3"/>
				
					<ellipse transform="matrix(0.6149 -0.7886 0.7886 0.6149 143.5343 340.9008)" class="st179" cx="420.8" cy="23.5" rx="12.2" ry="12.3"/>
				
					<ellipse transform="matrix(0.6149 -0.7886 0.7886 0.6149 143.6589 340.927)" class="st180" cx="420.9" cy="23.4" rx="12.2" ry="12.3"/>
				
					<ellipse transform="matrix(0.6149 -0.7886 0.7886 0.6149 143.7834 340.9532)" class="st181" cx="421" cy="23.3" rx="12.2" ry="12.3"/>
				
					<ellipse transform="matrix(0.6149 -0.7886 0.7886 0.6149 143.908 340.9794)" class="st182" cx="421.1" cy="23.1" rx="12.2" ry="12.3"/>
				
					<ellipse transform="matrix(0.6149 -0.7886 0.7886 0.6149 144.0325 341.0056)" class="st183" cx="421.2" cy="23" rx="12.2" ry="12.3"/>
				
					<ellipse transform="matrix(0.6149 -0.7886 0.7886 0.6149 144.1571 341.0318)" class="st184" cx="421.3" cy="22.9" rx="12.2" ry="12.3"/>
				
					<ellipse transform="matrix(0.6149 -0.7886 0.7886 0.6149 144.2817 341.058)" class="st185" cx="421.3" cy="22.8" rx="12.2" ry="12.3"/>
				
					<ellipse transform="matrix(0.6149 -0.7886 0.7886 0.6149 144.4062 341.0842)" class="st186" cx="421.4" cy="22.7" rx="12.2" ry="12.3"/>
				
					<ellipse transform="matrix(0.6149 -0.7886 0.7886 0.6149 144.5308 341.1104)" class="st187" cx="421.5" cy="22.6" rx="12.2" ry="12.3"/>
				
					<ellipse transform="matrix(0.6149 -0.7886 0.7886 0.6149 144.6553 341.1366)" class="st188" cx="421.6" cy="22.5" rx="12.2" ry="12.3"/>
				
					<ellipse transform="matrix(0.6149 -0.7886 0.7886 0.6149 144.7799 341.1628)" class="st189" cx="421.7" cy="22.3" rx="12.2" ry="12.3"/>
				
					<ellipse transform="matrix(0.6149 -0.7886 0.7886 0.6149 144.9045 341.189)" class="st190" cx="421.8" cy="22.2" rx="12.2" ry="12.3"/>
				
					<ellipse transform="matrix(0.6149 -0.7886 0.7886 0.6149 145.029 341.2152)" class="st191" cx="421.9" cy="22.1" rx="12.2" ry="12.3"/>
				
					<ellipse transform="matrix(0.6149 -0.7886 0.7886 0.6149 145.1536 341.2414)" class="st192" cx="422" cy="22" rx="12.2" ry="12.3"/>
				
					<ellipse transform="matrix(0.6149 -0.7886 0.7886 0.6149 145.2781 341.2676)" class="st193" cx="422.1" cy="21.9" rx="12.2" ry="12.3"/>
				
					<ellipse transform="matrix(0.6149 -0.7886 0.7886 0.6149 145.4027 341.2938)" class="st194" cx="422.2" cy="21.8" rx="12.2" ry="12.3"/>
				
					<ellipse transform="matrix(0.6149 -0.7886 0.7886 0.6149 145.5273 341.3199)" class="st195" cx="422.2" cy="21.7" rx="12.2" ry="12.3"/>
				
					<ellipse transform="matrix(0.6149 -0.7886 0.7886 0.6149 145.6518 341.3462)" class="st196" cx="422.3" cy="21.5" rx="12.2" ry="12.3"/>
				
					<ellipse transform="matrix(0.6149 -0.7886 0.7886 0.6149 145.7764 341.3723)" class="st197" cx="422.4" cy="21.4" rx="12.2" ry="12.3"/>
				
					<ellipse transform="matrix(0.6149 -0.7886 0.7886 0.6149 145.9009 341.3986)" class="st198" cx="422.5" cy="21.3" rx="12.2" ry="12.3"/>
				
					<ellipse transform="matrix(0.6149 -0.7886 0.7886 0.6149 146.0255 341.4248)" class="st199" cx="422.6" cy="21.2" rx="12.2" ry="12.3"/>
				
					<ellipse transform="matrix(0.6149 -0.7886 0.7886 0.6149 146.15 341.451)" class="st200" cx="422.7" cy="21.1" rx="12.2" ry="12.3"/>
				
					<ellipse transform="matrix(0.6149 -0.7886 0.7886 0.6149 146.2746 341.4772)" class="st201" cx="422.8" cy="21" rx="12.2" ry="12.3"/>
				
					<ellipse transform="matrix(0.6149 -0.7886 0.7886 0.6149 146.3991 341.5034)" class="st202" cx="422.9" cy="20.9" rx="12.2" ry="12.3"/>
				
					<ellipse transform="matrix(0.6149 -0.7886 0.7886 0.6149 146.5237 341.5296)" class="st203" cx="423" cy="20.7" rx="12.2" ry="12.3"/>
				
					<ellipse transform="matrix(0.6149 -0.7886 0.7886 0.6149 146.6483 341.5558)" class="st204" cx="423.1" cy="20.6" rx="12.2" ry="12.3"/>
				
					<ellipse transform="matrix(0.6149 -0.7886 0.7886 0.6149 146.7728 341.582)" class="st205" cx="423.1" cy="20.5" rx="12.2" ry="12.3"/>
				
					<ellipse transform="matrix(0.6149 -0.7886 0.7886 0.6149 146.8974 341.6082)" class="st206" cx="423.2" cy="20.4" rx="12.2" ry="12.3"/>
				
					<ellipse transform="matrix(0.6149 -0.7886 0.7886 0.6149 147.0219 341.6344)" class="st207" cx="423.3" cy="20.3" rx="12.2" ry="12.3"/>
				
					<ellipse transform="matrix(0.6149 -0.7886 0.7886 0.6149 147.1465 341.6606)" class="st208" cx="423.4" cy="20.2" rx="12.2" ry="12.3"/>
				
					<ellipse transform="matrix(0.6149 -0.7886 0.7886 0.6149 147.271 341.6868)" class="st209" cx="423.5" cy="20" rx="12.2" ry="12.3"/>
				
					<ellipse transform="matrix(0.6149 -0.7886 0.7886 0.6149 147.3956 341.713)" class="st210" cx="423.6" cy="19.9" rx="12.2" ry="12.3"/>
				
					<ellipse transform="matrix(0.6149 -0.7886 0.7886 0.6149 147.5201 341.7392)" class="st211" cx="423.7" cy="19.8" rx="12.2" ry="12.3"/>
				
					<ellipse transform="matrix(0.6149 -0.7886 0.7886 0.6149 147.6447 341.7654)" class="st212" cx="423.8" cy="19.7" rx="12.2" ry="12.3"/>
				
					<ellipse transform="matrix(0.6149 -0.7886 0.7886 0.6149 147.7692 341.7916)" class="st213" cx="423.9" cy="19.6" rx="12.2" ry="12.3"/>
				
					<ellipse transform="matrix(0.6149 -0.7886 0.7886 0.6149 147.8938 341.8177)" class="st214" cx="423.9" cy="19.5" rx="12.2" ry="12.3"/>
				
					<ellipse transform="matrix(0.6149 -0.7886 0.7886 0.6149 148.0183 341.844)" class="st215" cx="424" cy="19.4" rx="12.2" ry="12.3"/>
				
					<ellipse transform="matrix(0.6149 -0.7886 0.7886 0.6149 148.1429 341.8701)" class="st216" cx="424.1" cy="19.2" rx="12.2" ry="12.3"/>
				
					<ellipse transform="matrix(0.6149 -0.7886 0.7886 0.6149 148.2674 341.8964)" class="st217" cx="424.2" cy="19.1" rx="12.2" ry="12.3"/>
				
					<ellipse transform="matrix(0.6149 -0.7886 0.7886 0.6149 148.392 341.9226)" class="st218" cx="424.3" cy="19" rx="12.2" ry="12.3"/>
				
					<ellipse transform="matrix(0.6149 -0.7886 0.7886 0.6149 148.5165 341.9488)" class="st219" cx="424.4" cy="18.9" rx="12.2" ry="12.3"/>
				
					<ellipse transform="matrix(0.6149 -0.7886 0.7886 0.6149 148.6411 341.975)" class="st220" cx="424.5" cy="18.8" rx="12.2" ry="12.3"/>
				
					<ellipse transform="matrix(0.6149 -0.7886 0.7886 0.6149 148.7656 342.0012)" class="st221" cx="424.6" cy="18.7" rx="12.2" ry="12.3"/>
				
					<ellipse transform="matrix(0.6149 -0.7886 0.7886 0.6149 148.8902 342.0274)" class="st222" cx="424.7" cy="18.6" rx="12.2" ry="12.3"/>
				
					<ellipse transform="matrix(0.6149 -0.7886 0.7886 0.6149 149.0147 342.0536)" class="st223" cx="424.8" cy="18.4" rx="12.2" ry="12.3"/>
				
					<ellipse transform="matrix(0.6149 -0.7886 0.7886 0.6149 149.1393 342.0798)" class="st224" cx="424.8" cy="18.3" rx="12.2" ry="12.3"/>
				
					<ellipse transform="matrix(0.6149 -0.7886 0.7886 0.6149 149.2638 342.106)" class="st225" cx="424.9" cy="18.2" rx="12.2" ry="12.3"/>
				
					<ellipse transform="matrix(0.6149 -0.7886 0.7886 0.6149 149.3884 342.1322)" class="st226" cx="425" cy="18.1" rx="12.2" ry="12.3"/>
				
					<ellipse transform="matrix(0.6149 -0.7886 0.7886 0.6149 149.5129 342.1584)" class="st227" cx="425.1" cy="18" rx="12.2" ry="12.3"/>
				
					<ellipse transform="matrix(0.6149 -0.7886 0.7886 0.6149 149.6375 342.1846)" class="st228" cx="425.2" cy="17.9" rx="12.2" ry="12.3"/>
				
					<ellipse transform="matrix(0.6149 -0.7886 0.7886 0.6149 149.762 342.2108)" class="st229" cx="425.3" cy="17.8" rx="12.2" ry="12.3"/>
				
					<ellipse transform="matrix(0.6149 -0.7886 0.7886 0.6149 149.8866 342.237)" class="st230" cx="425.4" cy="17.6" rx="12.2" ry="12.3"/>
				
					<ellipse transform="matrix(0.6149 -0.7886 0.7886 0.6149 150.0111 342.2632)" class="st231" cx="425.5" cy="17.5" rx="12.2" ry="12.3"/>
				
					<ellipse transform="matrix(0.6149 -0.7886 0.7886 0.6149 150.1357 342.2894)" class="st232" cx="425.6" cy="17.4" rx="12.2" ry="12.3"/>
				
					<ellipse transform="matrix(0.6149 -0.7886 0.7886 0.6149 150.2602 342.3156)" class="st233" cx="425.6" cy="17.3" rx="12.2" ry="12.3"/>
				
					<ellipse transform="matrix(0.6149 -0.7886 0.7886 0.6149 150.3847 342.3418)" class="st234" cx="425.7" cy="17.2" rx="12.2" ry="12.3"/>
				
					<ellipse transform="matrix(0.6149 -0.7886 0.7886 0.6149 150.5093 342.368)" class="st235" cx="425.8" cy="17.1" rx="12.2" ry="12.3"/>
				
					<ellipse transform="matrix(0.6149 -0.7886 0.7886 0.6149 150.6338 342.3942)" class="st236" cx="425.9" cy="17" rx="12.2" ry="12.3"/>
				
					<ellipse transform="matrix(0.6149 -0.7886 0.7886 0.6149 150.7584 342.4204)" class="st237" cx="426" cy="16.8" rx="12.2" ry="12.3"/>
				
					<ellipse transform="matrix(0.6149 -0.7886 0.7886 0.6149 150.8829 342.4466)" class="st238" cx="426.1" cy="16.7" rx="12.2" ry="12.3"/>
				
					<ellipse transform="matrix(0.6149 -0.7886 0.7886 0.6149 151.0075 342.4728)" class="st239" cx="426.2" cy="16.6" rx="12.2" ry="12.3"/>
				
					<ellipse transform="matrix(0.6149 -0.7886 0.7886 0.6149 151.132 342.499)" class="st240" cx="426.3" cy="16.5" rx="12.2" ry="12.3"/>
				
					<ellipse transform="matrix(0.6149 -0.7886 0.7886 0.6149 151.2565 342.5252)" class="st241" cx="426.4" cy="16.4" rx="12.2" ry="12.3"/>
				
					<ellipse transform="matrix(0.6149 -0.7886 0.7886 0.6149 151.3811 342.5514)" class="st242" cx="426.5" cy="16.3" rx="12.2" ry="12.3"/>
				
					<ellipse transform="matrix(0.6149 -0.7886 0.7886 0.6149 151.5056 342.5776)" class="st243" cx="426.5" cy="16.2" rx="12.2" ry="12.3"/>
				
					<ellipse transform="matrix(0.6149 -0.7886 0.7886 0.6149 151.6302 342.6038)" class="st244" cx="426.6" cy="16" rx="12.2" ry="12.3"/>
				
					<ellipse transform="matrix(0.615 -0.7886 0.7886 0.615 151.7547 342.63)" class="st245" cx="426.7" cy="15.9" rx="12.2" ry="12.3"/>
				
					<ellipse transform="matrix(0.615 -0.7886 0.7886 0.615 151.8793 342.6562)" class="st246" cx="426.8" cy="15.8" rx="12.2" ry="12.3"/>
				
					<ellipse transform="matrix(0.615 -0.7886 0.7886 0.615 152.0038 342.6824)" class="st247" cx="426.9" cy="15.7" rx="12.2" ry="12.3"/>
				
					<ellipse transform="matrix(0.615 -0.7886 0.7886 0.615 152.1283 342.7086)" class="st248" cx="427" cy="15.6" rx="12.2" ry="12.3"/>
				
					<ellipse transform="matrix(0.615 -0.7886 0.7886 0.615 152.2529 342.7348)" class="st249" cx="427.1" cy="15.5" rx="12.2" ry="12.3"/>
				
					<ellipse transform="matrix(0.615 -0.7886 0.7886 0.615 152.3774 342.761)" class="st250" cx="427.2" cy="15.3" rx="12.2" ry="12.3"/>
				
					<ellipse transform="matrix(0.615 -0.7886 0.7886 0.615 152.502 342.7872)" class="st251" cx="427.3" cy="15.2" rx="12.2" ry="12.3"/>
				
					<ellipse transform="matrix(0.615 -0.7886 0.7886 0.615 152.6265 342.8134)" class="st252" cx="427.4" cy="15.1" rx="12.2" ry="12.3"/>
				
					<ellipse transform="matrix(0.615 -0.7886 0.7886 0.615 152.751 342.8396)" class="st253" cx="427.4" cy="15" rx="12.2" ry="12.3"/>
				
					<ellipse transform="matrix(0.615 -0.7886 0.7886 0.615 152.8756 342.8658)" class="st254" cx="427.5" cy="14.9" rx="12.2" ry="12.3"/>
				
					<ellipse transform="matrix(0.615 -0.7886 0.7886 0.615 153.0001 342.8921)" class="st255" cx="427.6" cy="14.8" rx="12.2" ry="12.3"/>
				
					<ellipse transform="matrix(0.615 -0.7886 0.7886 0.615 153.1247 342.9182)" class="st256" cx="427.7" cy="14.7" rx="12.2" ry="12.3"/>
				
					<ellipse transform="matrix(0.615 -0.7886 0.7886 0.615 153.2492 342.9445)" class="st257" cx="427.8" cy="14.5" rx="12.2" ry="12.3"/>
				
					<ellipse transform="matrix(0.615 -0.7886 0.7886 0.615 153.3737 342.9707)" class="st258" cx="427.9" cy="14.4" rx="12.2" ry="12.3"/>
				
					<ellipse transform="matrix(0.615 -0.7886 0.7886 0.615 153.4983 342.9969)" class="st259" cx="428" cy="14.3" rx="12.2" ry="12.3"/>
				
					<ellipse transform="matrix(0.615 -0.7886 0.7886 0.615 153.6228 343.0231)" class="st260" cx="428.1" cy="14.2" rx="12.2" ry="12.3"/>
				
					<ellipse transform="matrix(0.615 -0.7886 0.7886 0.615 153.7474 343.0493)" class="st261" cx="428.2" cy="14.1" rx="12.2" ry="12.3"/>
				
					<ellipse transform="matrix(0.615 -0.7886 0.7886 0.615 153.8719 343.0755)" class="st262" cx="428.2" cy="14" rx="12.2" ry="12.3"/>
				
					<ellipse transform="matrix(0.615 -0.7886 0.7886 0.615 153.9964 343.1017)" class="st263" cx="428.3" cy="13.9" rx="12.2" ry="12.3"/>
				
					<ellipse transform="matrix(0.615 -0.7886 0.7886 0.615 154.121 343.1279)" class="st264" cx="428.4" cy="13.7" rx="12.2" ry="12.3"/>
				
					<ellipse transform="matrix(0.615 -0.7886 0.7886 0.615 154.2455 343.1541)" class="st265" cx="428.5" cy="13.6" rx="12.2" ry="12.3"/>
				
					<ellipse transform="matrix(0.615 -0.7886 0.7886 0.615 154.37 343.1803)" class="st266" cx="428.6" cy="13.5" rx="12.2" ry="12.3"/>
				
					<ellipse transform="matrix(0.615 -0.7886 0.7886 0.615 154.4946 343.2065)" class="st267" cx="428.7" cy="13.4" rx="12.2" ry="12.3"/>
				
					<ellipse transform="matrix(0.615 -0.7886 0.7886 0.615 154.6191 343.2327)" class="st268" cx="428.8" cy="13.3" rx="12.2" ry="12.3"/>
				
					<ellipse transform="matrix(0.615 -0.7886 0.7886 0.615 154.7437 343.2589)" class="st269" cx="428.9" cy="13.2" rx="12.2" ry="12.3"/>
				
					<ellipse transform="matrix(0.615 -0.7886 0.7886 0.615 154.8682 343.2851)" class="st270" cx="429" cy="13.1" rx="12.2" ry="12.3"/>
				
					<ellipse transform="matrix(0.615 -0.7885 0.7885 0.615 154.9927 343.3113)" class="st271" cx="429.1" cy="12.9" rx="12.2" ry="12.3"/>
				
					<ellipse transform="matrix(0.615 -0.7885 0.7885 0.615 155.1172 343.3375)" class="st272" cx="429.1" cy="12.8" rx="12.2" ry="12.3"/>
				
					<ellipse transform="matrix(0.615 -0.7885 0.7885 0.615 155.2418 343.3637)" class="st273" cx="429.2" cy="12.7" rx="12.2" ry="12.3"/>
				
					<ellipse transform="matrix(0.615 -0.7885 0.7885 0.615 155.3663 343.3899)" class="st274" cx="429.3" cy="12.6" rx="12.2" ry="12.3"/>
				
					<ellipse transform="matrix(0.615 -0.7885 0.7885 0.615 155.4908 343.4161)" class="st275" cx="429.4" cy="12.5" rx="12.2" ry="12.3"/>
				
					<ellipse transform="matrix(0.615 -0.7885 0.7885 0.615 155.6154 343.4424)" class="st276" cx="429.5" cy="12.4" rx="12.2" ry="12.3"/>
				<path class="st277" d="M437.1,2.6c-5.3-4.2-13-3.2-17.2,2.1c-4.2,5.3-3.2,13,2.1,17.2c5.3,4.2,13,3.2,17.2-2.1
					C443.4,14.5,442.5,6.8,437.1,2.6z"/>
			</g>
		</g>
		<radialGradient id="SVGID_1_" cx="428.4115" cy="14.123" r="31.2665" fx="439.649" fy="-0.5198" gradientUnits="userSpaceOnUse">
			<stop  offset="5.988495e-02" style="stop-color:#00FFF8"/>
			<stop  offset="0.1386" style="stop-color:#00F2F7"/>
			<stop  offset="0.2846" style="stop-color:#00CFF5"/>
			<stop  offset="0.4822" style="stop-color:#0097F2"/>
			<stop  offset="0.7209" style="stop-color:#004BEE"/>
			<stop  offset="0.8622" style="stop-color:#001AEB"/>
		</radialGradient>
		<path class="st278" d="M437.1,2.6c-5.3-4.2-13-3.2-17.2,2.1c0,0-13.4,17.2-13.4,17.2c-4.2,5.3-3.2,13,2.1,17.2s13,3.2,17.2-2.1
			c0,0,13.4-17.2,13.4-17.2C443.4,14.5,442.4,6.8,437.1,2.6z"/>
	</g>
</g>
</svg>
