<svg width="711" height="256" viewBox="0 0 711 256" fill="none" xmlns="http://www.w3.org/2000/svg">
<path d="M107.992 0.332031H69.0353L14.496 156.159L-40.0433 0.332031H-79L-7.31973 193.557V195.115H36.3117L107.992 1.8903V0.332031Z" fill="#1B1B29"/>
<path d="M187.465 62.6631C176.557 56.43 165.649 53.3135 151.625 53.3135C137.6 53.3135 125.134 56.43 114.226 62.6631C103.318 68.8961 95.527 76.6875 89.2939 89.1536C83.0609 100.061 79.9443 112.528 79.9443 126.552C79.9443 140.576 83.0609 153.043 89.2939 163.95C95.527 174.858 103.318 182.65 114.226 188.883C125.134 195.116 137.6 198.232 151.625 198.232C162.533 198.232 171.882 196.674 181.232 191.999C190.581 187.324 196.814 182.65 203.047 174.858C209.281 167.067 213.955 159.276 215.514 151.484H179.673C176.557 156.159 173.44 160.834 168.766 163.95C164.091 167.067 157.858 168.625 150.066 168.625C140.717 168.625 132.925 165.509 125.134 159.276C118.901 153.043 114.226 145.251 114.226 134.343H218.63C218.63 131.227 218.63 129.669 218.63 128.11C218.63 126.552 218.63 123.435 218.63 121.877C218.63 109.411 215.514 98.5032 209.281 87.5953C206.164 76.6875 196.814 68.8961 187.465 62.6631ZM115.784 112.528C117.343 103.178 122.018 95.3867 128.251 90.7119C134.484 86.0371 142.275 82.9206 151.625 82.9206C160.974 82.9206 168.766 86.0371 174.999 90.7119C181.232 95.3867 184.348 103.178 184.348 112.528H115.784Z" fill="#1B1B29"/>
<path d="M388.478 84.4791C396.269 84.4791 402.503 86.0374 407.177 90.7122C411.852 93.8288 416.527 100.062 418.085 106.295H455.484C452.367 90.7122 444.576 78.2461 432.11 68.8965C419.643 59.5469 405.619 54.8721 388.478 54.8721C374.454 54.8721 361.988 57.9886 351.08 64.2217C341.73 68.8965 332.381 78.2461 326.147 89.1539C319.914 100.062 316.798 112.528 316.798 126.552C316.798 140.577 319.914 153.043 326.147 163.951C332.381 174.859 340.172 182.65 351.08 188.883C361.988 195.116 374.454 198.233 388.478 198.233C405.619 198.233 421.202 193.558 432.11 184.208C444.576 174.859 452.367 162.392 455.484 146.81H418.085C416.527 153.043 411.852 159.276 407.177 162.392C402.503 165.509 394.711 168.626 388.478 168.626C379.129 168.626 369.779 165.509 363.546 157.718C357.313 149.926 352.638 140.577 352.638 126.552C352.638 114.086 355.755 103.178 363.546 95.387C369.779 87.5957 379.129 84.4791 388.478 84.4791Z" fill="#1B1B29"/>
<path d="M502.233 57.9873H466.393V195.115H502.233V57.9873Z" fill="#1B1B29"/>
<path d="M279.403 20.5889H263.82C252.912 20.5889 243.562 29.9385 243.562 40.8463V57.9873H220.188V87.5944H243.562V146.809C243.562 163.949 248.237 176.416 256.029 184.207C265.378 190.44 276.286 195.115 290.31 195.115H313.684V165.508H296.544C290.31 165.508 284.077 163.949 282.519 162.391C280.961 157.716 279.403 153.042 279.403 146.809V87.5944H316.801V57.9873H279.403V20.5889Z" fill="#1B1B29"/>
<path d="M570.796 20.5889H555.214C544.306 20.5889 534.956 29.9385 534.956 40.8463V57.9873H513.141V87.5944H536.515V146.809C536.515 163.949 541.189 176.416 548.981 184.207C558.33 190.44 569.238 195.115 583.263 195.115H606.637V165.508H591.054C584.821 165.508 578.588 163.949 577.029 162.391C573.913 159.275 572.355 154.6 572.355 148.367V87.5944H609.753V57.9873H572.355V20.5889H570.796Z" fill="#1B1B29"/>
<path d="M707.924 190.44L764.022 57.9873H728.182L689.225 148.367L650.268 57.9873H612.87L670.526 190.44L642.477 255.887H679.876L706.366 191.998H707.924V190.44Z" fill="#1B1B29"/>
<path d="M485.09 3.44922C474.183 3.44922 464.833 12.7988 464.833 23.7067C464.833 34.6146 474.183 43.9642 485.09 43.9642C495.998 43.9642 505.348 34.6146 505.348 23.7067C505.348 12.7988 495.998 3.44922 485.09 3.44922Z" fill="#1B1B29"/>
</svg>
