<?xml version="1.0" encoding="utf-8"?>
<!-- Generator: Adobe Illustrator 25.4.1, SVG Export Plug-In . SVG Version: 6.00 Build 0)  -->
<svg version="1.1" id="Layer_1" xmlns="http://www.w3.org/2000/svg" xmlns:xlink="http://www.w3.org/1999/xlink" x="0px" y="0px"
	 viewBox="0 0 623 312" style="enable-background:new 0 0 623 312;" xml:space="preserve">
<style type="text/css">
	.st0{fill:#1B1B29;}
</style>
<g>
	<path class="st0" d="M105.4,265.1c-1.7,7.2-5.5,12.7-11,16.8c-5.8,4.1-13.3,6.1-22.6,6.1c-12.8,0-23.2-4.3-30.4-13
		c-7.2-8.7-11-20.9-11-36.2s3.8-27.5,11-36.2c7.2-8.7,17.4-13,30.4-13c9.3,0,16.8,2.3,22.3,6.4c5.5,4.3,9.3,10.1,11,17.7v0.3h29.6
		v-0.6c-2.6-15.4-9.6-27.2-20.6-35.9c-11-8.4-24.9-12.7-42-12.7c-14.2,0-27.5,3.2-37.7,9.3c-10.1,6.1-18.3,15.1-23.8,26.1
		c-5.5,11.6-8.4,24.3-8.4,38.8c0,14.5,2.9,27.2,8.4,38.2c5.5,11,13.6,19.7,23.8,25.8c10.1,6.1,23.5,9.3,37.7,9.3
		c17.1,0,31.3-4.1,42-12.5c11-8.4,17.7-20,20.6-34.5v-0.6h-29.3V265.1z"/>
	<path class="st0" d="M172.1,309.7h-25.8V184c0-8.1,6.7-14.8,14.8-14.8h11V309.7z"/>
	<path class="st0" d="M210,209.5h-25.8v100.2H210V209.5z"/>
	<path class="st0" d="M281.6,207.1c-7.8,0-14.8,1.7-20.9,5.2c-5.2,3.2-9.3,7.2-12.2,12.5v-15.1h-2.9h-23.2v58.8V310h26.1v-41.7
		v-10.4c0-9.3,2.3-16.2,7-21.4c4.6-5.2,10.7-7.8,18-7.8c7.5,0,12.8,2.3,16.5,7c3.5,4.6,5.2,11.3,5.2,19.7v54.2H321v-56.2
		c0-15.1-3.5-26.7-10.4-34.5C303.6,210.9,294.1,207.1,281.6,207.1z"/>
	<path class="st0" d="M359.6,209.5h-25.8v100.2h25.8V209.5z"/>
	<path class="st0" d="M436.6,286.2c-4.1,2.6-8.7,4.1-13.9,4.1c-7.2,0-13.3-2.6-18.3-8.1c-4.9-5.5-7.5-12.7-7.5-22.3
		c0-9.6,2.6-17.1,7.5-22.3c4.9-5.5,11-8.1,18.3-8.1c5.5,0,10.1,1.4,13.9,4.1c4.1,2.9,6.7,6.7,8.1,11.3H472
		c-2.3-11.6-8.1-20.9-16.8-27.5c-8.7-6.7-19.4-10.1-32.5-10.1c-10.1,0-19.4,2.3-27,6.7c-7.8,4.3-13.9,10.7-18.5,18.5
		c-4.6,7.8-6.7,17.1-6.7,27.2c0,10.1,2.3,19.4,6.7,27.2c4.6,7.8,10.7,14.2,18.5,18.5c7.8,4.3,16.8,6.7,27,6.7
		c12.8,0,23.5-3.5,32.5-10.4c8.7-7,14.5-15.9,16.8-27.2h-27.2C443.3,279.6,440.7,283.3,436.6,286.2z"/>
	<path class="st0" d="M197,169.8c-8.1,0-14.8,6.7-14.8,14.8c0,8.1,6.7,14.8,14.8,14.8s14.8-6.7,14.8-14.8
		C211.8,176.4,205.4,169.8,197,169.8z"/>
	<path class="st0" d="M346.5,169.8c-8.1,0-14.8,6.7-14.8,14.8c0,8.1,6.7,14.8,14.8,14.8c8.1,0,14.8-6.7,14.8-14.8
		C361.3,176.4,354.6,169.8,346.5,169.8z"/>
	<path class="st0" d="M137.9,0h-28.6L69.1,114.7L29.2,0.3L29.1,0H0l52.5,143.1l0.2,0.2h32.7L137.6,0.7L137.9,0z"/>
	<path class="st0" d="M196.5,46.1c-7.6-4.3-16.4-6.5-26.4-6.5c-10.6,0-19.8,2.3-27.7,6.8c-7.8,4.5-13.9,11-18.4,19.1
		c-4.5,8.1-6.6,17.4-6.6,27.9c0,10.3,2.3,19.4,6.8,27.4c4.5,8,10.6,13.9,18.6,18.4c8,4.3,16.9,6.5,27.1,6.5c8.1,0,15.4-1.5,21.9-4.5
		c6.5-3,12-7.1,16.3-12.3c4.5-5.3,7.6-11.1,9.5-17.4h-26.6c-1.8,3.8-4.5,7-8.1,9.3c-3.7,2.3-8.1,3.7-13.4,3.7
		c-7.1,0-13.1-2.3-18.1-6.8s-7.8-10.6-8.3-18.6h76.9c0.2-1.8,0.2-3.5,0.3-5.1c0-1.7,0.2-3.2,0.2-4.6c0-9.3-2.2-17.6-6.5-25.2
		S204.2,50.6,196.5,46.1z M143.9,82.7c1.3-7.3,4.5-12.8,9.5-16.4c5-3.7,10.6-5.5,16.9-5.5c6.6,0,12.3,2,16.8,6c4.5,4,7,9.3,7.3,15.9
		H143.9z"/>
	<path class="st0" d="M345.1,61.9c5.5,0,10.1,1.3,14.1,4.2c4,2.8,6.6,6.6,8.1,11.5h27.6c-2.5-11.8-8.1-21.1-16.9-27.7
		c-8.8-6.8-19.8-10.1-32.7-10.1c-10.3,0-19.4,2.3-27.4,6.8c-8,4.5-14.1,10.8-18.6,18.8c-4.5,8-6.8,17.3-6.8,27.6
		c0,10.3,2.3,19.6,6.8,27.6s10.8,14.3,18.6,18.8c8,4.5,16.9,6.8,27.4,6.8c12.9,0,23.7-3.5,32.7-10.5c8.8-7,14.4-16.1,16.9-27.6
		h-27.6c-1.3,5-4,9-8.1,11.6c-4,2.7-8.8,4.1-14.1,4.1c-7.1,0-13.3-2.7-18.4-8.1c-5-5.5-7.5-12.9-7.5-22.6c0-9.6,2.5-17.3,7.5-22.6
		C331.8,64.6,338,61.9,345.1,61.9z"/>
	<path class="st0" d="M428.9,42.2h-26.1v101.3h26.1V42.2z"/>
	<path class="st0" d="M264.9,14.9h-11.1c-8.3,0-14.9,6.6-14.9,14.9V42h-17.3v21.9h17.3v44.2c0,13.3,3.2,22.4,9.6,27.6
		s14.9,7.8,25.6,7.8h17.8v-22.2h-12.6c-5.1,0-8.8-1-11-2.8c-2.2-1.8-3.2-5.1-3.2-10.1V63.9h27.4V42.2h-27.4V14.9H264.9z"/>
	<path class="st0" d="M480.2,14.9h-11.1c-8.3,0-14.9,6.6-14.9,14.9V42h-17.3v21.9h17.3v44.2c0,13.3,3.2,22.4,9.6,27.6
		s14.9,7.8,25.6,7.8h17.8v-22.2h-12.6c-5.1,0-8.8-1-11-2.8c-2.2-1.8-3.2-5.1-3.2-10.1V63.9h27.4V42.2h-27.4V14.9H480.2z"/>
	<path class="st0" d="M623,42.2h-27.2l-28.7,66.9l-28.9-66.9h-27.1l42.3,98.4L533,188.2h27.1L623,42.2z"/>
	<path class="st0" d="M416,31.9c8.3,0,14.9-6.7,14.9-14.9C430.9,8.7,424.3,2,416,2c-8.3,0-14.9,6.7-14.9,14.9
		C401.1,25.2,407.8,31.9,416,31.9z"/>
</g>
</svg>
