<svg width="22" height="13" viewBox="0 0 22 13" fill="none" xmlns="http://www.w3.org/2000/svg">
<path d="M17.4535 7.3995C17.114 6.97075 17.2111 6.78 17.4535 6.39675C17.4578 6.39238 20.2605 2.51963 20.5492 1.20625L20.551 1.20538C20.6945 0.72675 20.551 0.375 19.8571 0.375H17.5611C16.9766 0.375 16.7071 0.676875 16.5627 1.01463C16.5627 1.01463 15.3937 3.81288 13.74 5.62675C13.2062 6.15088 12.9595 6.31888 12.6681 6.31888C12.5246 6.31888 12.3015 6.15088 12.3015 5.67225V1.20538C12.3015 0.631375 12.1378 0.375 11.654 0.375H8.04371C7.67708 0.375 7.45921 0.64275 7.45921 0.892125C7.45921 1.43638 8.28608 1.5615 8.37183 3.09275V6.41513C8.37183 7.14313 8.23971 7.277 7.94658 7.277C7.16608 7.277 5.27171 4.46738 4.14908 1.25175C3.92246 0.627875 3.70108 0.375875 3.11221 0.375875H0.815332C0.159957 0.375875 0.027832 0.67775 0.027832 1.0155C0.027832 1.61225 0.808332 4.57938 3.65733 8.49938C5.55608 11.1751 8.23008 12.625 10.6626 12.625C12.1247 12.625 12.3032 12.303 12.3032 11.7491C12.3032 9.19238 12.1711 8.95088 12.9035 8.95088C13.243 8.95088 13.8275 9.11888 15.1925 10.4095C16.7526 11.9399 17.009 12.625 17.8822 12.625H20.1782C20.8327 12.625 21.1643 12.303 20.9736 11.6678C20.537 10.3316 17.5865 7.58325 17.4535 7.3995Z" fill="white"/>
</svg>
