<svg width="32" height="18" viewBox="0 0 32 18" fill="none" xmlns="http://www.w3.org/2000/svg">
<path d="M25.7898 10.2438C25.2936 9.62246 25.4355 9.34605 25.7898 8.79067C25.7962 8.78433 29.893 3.17226 30.315 1.26903L30.3176 1.26776C30.5274 0.57418 30.3176 0.0644531 29.3033 0.0644531H25.9472C25.0928 0.0644531 24.6988 0.501905 24.4878 0.991344C24.4878 0.991344 22.779 5.04634 20.3616 7.67485C19.5814 8.43437 19.2208 8.67782 18.7948 8.67782C18.5851 8.67782 18.2589 8.43437 18.2589 7.74079V1.26776C18.2589 0.43597 18.0197 0.0644531 17.3124 0.0644531H12.0352C11.4993 0.0644531 11.1808 0.452454 11.1808 0.813828C11.1808 1.60251 12.3895 1.78383 12.5148 4.00279V8.8173C12.5148 9.87226 12.3217 10.0663 11.8932 10.0663C10.7523 10.0663 7.98321 5.99478 6.34222 1.33497C6.01095 0.430898 5.68735 0.065721 4.82657 0.065721H1.46912C0.511126 0.065721 0.317993 0.503173 0.317993 0.992612C0.317993 1.85737 1.45889 6.15708 5.6234 11.8376C8.39889 15.7151 12.3076 17.8161 15.8633 17.8161C18.0006 17.8161 18.2615 17.3495 18.2615 16.5469C18.2615 12.8419 18.0683 12.4919 19.1389 12.4919C19.6352 12.4919 20.4895 12.7353 22.4848 14.6056C24.7653 16.8233 25.1401 17.8161 26.4166 17.8161H29.7727C30.7294 17.8161 31.2142 17.3495 30.9354 16.429C30.2971 14.4928 25.9843 10.51 25.7898 10.2438Z" fill="#1B1B29"/>
</svg>
