<svg xmlns="http://www.w3.org/2000/svg" xmlns:xlink="http://www.w3.org/1999/xlink" viewBox="0 0 95.03 101.66"><defs><style>.cls-1{fill:#dde2f0;}.cls-2{fill:url(#linear-gradient);}.cls-3{fill:url(#linear-gradient-2);}.cls-4{fill:#d9c3ba;}.cls-5{fill:url(#linear-gradient-3);}.cls-6{fill:#3d223e;}.cls-7{fill:url(#linear-gradient-4);}.cls-8{fill:#efb1ac;}.cls-9{fill:url(#linear-gradient-5);}.cls-10{fill:#f8f4f0;}.cls-11{fill:#fff;}.cls-12{fill:#0a45b8;}.cls-13{fill:url(#linear-gradient-6);}.cls-14{fill:url(#linear-gradient-7);}.cls-15{fill:url(#linear-gradient-8);}.cls-16{fill:url(#linear-gradient-9);}.cls-17{fill:url(#linear-gradient-10);}.cls-18{fill:none;stroke:#0a45b8;stroke-linecap:round;stroke-linejoin:round;stroke-width:2px;}</style><linearGradient id="linear-gradient" x1="34.99" y1="76.97" x2="9.98" y2="81.38" gradientUnits="userSpaceOnUse"><stop offset="0.24" stop-color="#ab969e"/><stop offset="0.81" stop-color="#d8c2b9"/><stop offset="0.83" stop-color="#d9c3ba"/></linearGradient><linearGradient id="linear-gradient-2" x1="49.83" y1="75.33" x2="28.45" y2="75.33" gradientUnits="userSpaceOnUse"><stop offset="0" stop-color="#ab969e"/><stop offset="0.33" stop-color="#c2acac"/><stop offset="0.68" stop-color="#d3bdb6"/><stop offset="0.93" stop-color="#d9c3ba"/></linearGradient><linearGradient id="linear-gradient-3" x1="52.48" y1="34.59" x2="52.48" y2="6.1" gradientUnits="userSpaceOnUse"><stop offset="0" stop-color="#f8f4f0" stop-opacity="0.5"/><stop offset="0.12" stop-color="#eee4de" stop-opacity="0.67"/><stop offset="0.24" stop-color="#e5d5ce" stop-opacity="0.81"/><stop offset="0.37" stop-color="#decbc3" stop-opacity="0.92"/><stop offset="0.5" stop-color="#dac5bc" stop-opacity="0.98"/><stop offset="0.64" stop-color="#d9c3ba"/></linearGradient><linearGradient id="linear-gradient-4" x1="69.04" y1="-0.25" x2="61.56" y2="12.72" gradientUnits="userSpaceOnUse"><stop offset="0" stop-color="#ab969e"/><stop offset="0.88" stop-color="#d9c3ba"/></linearGradient><linearGradient id="linear-gradient-5" x1="34.6" y1="2.09" x2="41.8" y2="14.55" xlink:href="#linear-gradient-4"/><linearGradient id="linear-gradient-6" x1="25.91" y1="83.28" x2="40.02" y2="97.39" gradientUnits="userSpaceOnUse"><stop offset="0" stop-color="#ab969e"/><stop offset="0.45" stop-color="#c0abab"/><stop offset="0.88" stop-color="#d9c3ba"/></linearGradient><linearGradient id="linear-gradient-7" x1="38.04" y1="98.16" x2="33.82" y2="90.85" gradientUnits="userSpaceOnUse"><stop offset="0" stop-color="#f8f4f0"/><stop offset="0.07" stop-color="#f8f4f0" stop-opacity="0.81"/><stop offset="0.14" stop-color="#f8f4f0" stop-opacity="0.62"/><stop offset="0.22" stop-color="#f8f4f0" stop-opacity="0.46"/><stop offset="0.31" stop-color="#f8f4f0" stop-opacity="0.31"/><stop offset="0.4" stop-color="#f8f4f0" stop-opacity="0.2"/><stop offset="0.49" stop-color="#f8f4f0" stop-opacity="0.11"/><stop offset="0.6" stop-color="#f8f4f0" stop-opacity="0.05"/><stop offset="0.71" stop-color="#f8f4f0" stop-opacity="0.01"/><stop offset="0.88" stop-color="#f8f4f0" stop-opacity="0"/></linearGradient><linearGradient id="linear-gradient-8" x1="48.64" y1="92.86" x2="65.2" y2="64.16" gradientUnits="userSpaceOnUse"><stop offset="0.11" stop-color="#ab969e"/><stop offset="0.17" stop-color="#ab969e" stop-opacity="0.83"/><stop offset="0.26" stop-color="#ab969e" stop-opacity="0.58"/><stop offset="0.36" stop-color="#ab969e" stop-opacity="0.37"/><stop offset="0.46" stop-color="#ab969e" stop-opacity="0.21"/><stop offset="0.56" stop-color="#ab969e" stop-opacity="0.09"/><stop offset="0.66" stop-color="#ab969e" stop-opacity="0.02"/><stop offset="0.77" stop-color="#ab969e" stop-opacity="0"/></linearGradient><linearGradient id="linear-gradient-9" x1="46.56" y1="100.39" x2="46.56" y2="57.04" gradientUnits="userSpaceOnUse"><stop offset="0" stop-color="#f8f4f0"/><stop offset="0.57" stop-color="#e2d1c9"/><stop offset="0.88" stop-color="#d9c3ba"/></linearGradient><linearGradient id="linear-gradient-10" x1="66.95" y1="101.06" x2="66.95" y2="51.2" gradientUnits="userSpaceOnUse"><stop offset="0" stop-color="#f8f4f0"/><stop offset="0.19" stop-color="#f0e7e2"/><stop offset="0.63" stop-color="#dfcdc5"/><stop offset="0.88" stop-color="#d9c3ba"/></linearGradient></defs><title>Ресурс 37600</title><g id="Слой_2" data-name="Слой 2"><g id="Illustration"><path class="cls-1" d="M45.13,13.68A44.16,44.16,0,0,1,66,17.05,45.59,45.59,0,0,1,87.23,35.21c10.21,17,11.28,44-2.12,52.54s-29.36,0-31.49-1.06-16.59-6.39-23-.64-6.17,9.36-11.27,9.36S-.62,84.56,0,56.69c.32-14,7.49-26.15,19.1-33.79A55.32,55.32,0,0,1,45.13,13.68Z"/><path class="cls-2" d="M34.92,90C30.17,91.77,25,93.1,20,92.21a12.65,12.65,0,0,1-2.89-.86A12.7,12.7,0,0,1,12,86.69a12.31,12.31,0,0,1-1.51-3,12.48,12.48,0,0,1-.46-2.1c-.43-3.21-.21-7.24,1.61-10A12.69,12.69,0,0,1,18.77,66a4.63,4.63,0,0,1,2.92,0,2.3,2.3,0,0,1,1.49,2.32,3.61,3.61,0,0,1-1.13,1.79c-2,2.11-4,4.59-4,7.48a3.88,3.88,0,0,0,.53,2.09c.81,1.23,2.46,1.59,3.93,1.59a13.07,13.07,0,0,0,6.07-1.49,26.38,26.38,0,0,0,3.59-2.44,2.13,2.13,0,0,1,1.58,1.19,18.32,18.32,0,0,1,2.47,5.49C36.66,86.07,36.81,89.24,34.92,90Z"/><path class="cls-3" d="M30.42,60.62a36.32,36.32,0,0,0-1.6,7.6A29.39,29.39,0,0,0,28.45,72a25.77,25.77,0,0,0,2,9.32,29.81,29.81,0,0,0,1.92,4.23A26.75,26.75,0,0,0,35,89.37c1.43,1.72,3.39,2.9,5.13,4.29a2.86,2.86,0,0,1,1.07,2.12.14.14,0,0,0,.07.13.09.09,0,0,0,.07,0A19.4,19.4,0,0,0,48,93.72a4.86,4.86,0,0,0,1.41-1.08c.63-.76.41-1.47.41-2.35a21.6,21.6,0,0,0-.26-3.21,54,54,0,0,0-1.44-6.26c-1.58-5.8-3.21-11.71-6.51-16.74-.95-1.44-2-2.8-3-4.21-.73-1-1.43-2.12-2.07-3.23-.52-.89-.94-2.43-2.18-1.7C32.43,56.06,31.14,58.65,30.42,60.62Z"/><path class="cls-4" d="M68.53,22.14c1,2.3.27,5,1,7.43a29.44,29.44,0,0,0,1.44,3c1,2.06.81,4.24,1.47,6.33s1.58,4,2.08,6.11a35.5,35.5,0,0,1,.62,13.07,37.52,37.52,0,0,0-.63,4.45c0,1.17.19,2.38.21,3.57A63.51,63.51,0,0,1,74.48,75c-.2,1.5-.49,3-.79,4.47A26.11,26.11,0,0,1,71,87.69a13.31,13.31,0,0,1-4.71,4.66c-.92.54-2,.83-2.87,1.37a14,14,0,0,1-3.08,1.45,14.59,14.59,0,0,1-9,0A3,3,0,0,1,50,94.39a3.23,3.23,0,0,1-.55-1.24c-1.12-3.91-1.92-7.75-3.6-11.5s-3.66-7.19-5.53-10.77a117.28,117.28,0,0,1-6.71-15.54,23.29,23.29,0,0,1-.79-10.76c.46-3.6,1.42-7.12,2.19-10.66a19,19,0,0,0,.51-3.42c.08-2.23-.53-4.48-.13-6.67a10.41,10.41,0,0,1,2.79-4.78,16,16,0,0,1,4.24-3.41,18,18,0,0,1,7.79-2,45.62,45.62,0,0,1,8.09.49,17.86,17.86,0,0,1,4,.85C65.17,16.05,67.31,19.36,68.53,22.14Z"/><path class="cls-4" d="M69.64,24.81A15,15,0,0,0,70,18.62,16.69,16.69,0,0,0,67.83,13a13.44,13.44,0,0,0-2.11-2.59c-2-2-4.09-4-7-4.27a28.82,28.82,0,0,0-5.31.43c-2.33.2-4.69-.07-7,.27a13.19,13.19,0,0,0-9.93,7.3,19.57,19.57,0,0,0-1.25,4.21,13.76,13.76,0,0,0,1,9.4A7.35,7.35,0,0,0,40,31.36c2,.85,4.29.68,6.38.5a16.78,16.78,0,0,0,6.93,2.67,9,9,0,0,0,7-2c.42-.38,1.19-.31,1.76-.44s1.23-.3,1.83-.51a8.73,8.73,0,0,0,5.08-4.45A12.47,12.47,0,0,0,69.64,24.81Z"/><path class="cls-5" d="M69.64,24.81A15,15,0,0,0,70,18.62,16.69,16.69,0,0,0,67.83,13a13.44,13.44,0,0,0-2.11-2.59c-2-2-4.09-4-7-4.27a28.82,28.82,0,0,0-5.31.43c-2.33.2-4.69-.07-7,.27a13.19,13.19,0,0,0-9.93,7.3,19.57,19.57,0,0,0-1.25,4.21,13.76,13.76,0,0,0,1,9.4A7.35,7.35,0,0,0,40,31.36c2,.85,4.29.68,6.38.5a16.78,16.78,0,0,0,6.93,2.67,9,9,0,0,0,7-2c.42-.38,1.19-.31,1.76-.44s1.23-.3,1.83-.51a8.73,8.73,0,0,0,5.08-4.45A12.47,12.47,0,0,0,69.64,24.81Z"/><path class="cls-6" d="M63,17a4,4,0,0,0-1.44-.45A4.16,4.16,0,0,0,60,16.43a3,3,0,0,0-1.62,1,5.85,5.85,0,0,0-.95,1.69A3.12,3.12,0,0,0,63,17Z"/><path class="cls-6" d="M44.23,17.3a4.26,4.26,0,0,1,1.44-.46,4.4,4.4,0,0,1,1.49-.06,2.91,2.91,0,0,1,1.62,1,5.67,5.67,0,0,1,.94,1.68,3.23,3.23,0,0,1-3.5.9A3.3,3.3,0,0,1,44.23,17.3Z"/><path class="cls-7" d="M67.84,15.07c.84-1.75.32-3.87.83-5.74.21-.76.54-1.49.73-2.27a19.43,19.43,0,0,0,.42-2.4,12.11,12.11,0,0,0,0-4.16c-.06-.22-.18-.49-.41-.5a.57.57,0,0,0-.31.1,72.43,72.43,0,0,0-6,4.11,6.3,6.3,0,0,1-1.59.91,16,16,0,0,1-1.67.36,5.65,5.65,0,0,0-2.44,1.23,8.06,8.06,0,0,0,2.41,4.16,18.27,18.27,0,0,0,3.52,2.87A10.36,10.36,0,0,0,67.84,15.07Z"/><path class="cls-8" d="M67.59,12.29a13.35,13.35,0,0,0,.26-1.68,36.62,36.62,0,0,1,1.27-4.78A9.65,9.65,0,0,0,69.46,1a.22.22,0,0,0-.09-.17.25.25,0,0,0-.17,0,2.59,2.59,0,0,0-.91.52C67,2.34,66,3.66,64.75,4.76a14.07,14.07,0,0,0-2.58,2.47,8.42,8.42,0,0,0-1,2.17c-.23.72.76,1.19,1.36,1.66a11.39,11.39,0,0,0,1.74,1.19,4.33,4.33,0,0,0,3,.5.52.52,0,0,0,.13-.06.39.39,0,0,0,.08-.14C67.54,12.47,67.56,12.38,67.59,12.29Z"/><path class="cls-9" d="M44.89,8.08l-2.08-.73a11,11,0,0,1-1.08-.43c-.84-.4-1.58-1-2.42-1.42-.53-.25-1.1-.41-1.63-.65-.86-.38-1.62-.94-2.48-1.33-.45-.21-2.5-.9-2.62-.09a3.91,3.91,0,0,0,.09,1.32,21.56,21.56,0,0,0,1.12,4.44,20.92,20.92,0,0,1,1.52,3.64c.16.74.16,1.5.33,2.23a9.33,9.33,0,0,0,1,2.31,6.56,6.56,0,0,0,2.08-1.08c.53-.34,1.06-.69,1.56-1.08a14.11,14.11,0,0,0,3-3.5A19.7,19.7,0,0,0,44.89,8.08Z"/><path class="cls-8" d="M42,10.9a2.07,2.07,0,0,0,.2-1.64A2.72,2.72,0,0,0,41.12,8.1L37.38,5.31a7.1,7.1,0,0,0-2.77-1.48c-.45-.09-1.27-.15-1.6.27a.58.58,0,0,0-.07.37,15.19,15.19,0,0,0,.8,2.9,10.22,10.22,0,0,0,1,2.83,19.38,19.38,0,0,1,1.67,4,1,1,0,0,0,.35.63c.42.28,1.21-.12,1.59-.33a8,8,0,0,0,1.55-1.23A10.17,10.17,0,0,0,42,10.9Z"/><path class="cls-6" d="M58.44,29.48c0,.22-.58.41-.69.44a2.53,2.53,0,0,1-1,0c-.53-.09-1-.38-1.53-.52a2,2,0,0,0-1.79.18,9.29,9.29,0,0,1-1.09.66,2.24,2.24,0,0,1-1,.18c-.26,0-.67,0-.45-.3A4.32,4.32,0,0,1,52.37,29a7.4,7.4,0,0,0,.86-.5,1.42,1.42,0,0,0,.55-.81,2.56,2.56,0,0,0,0-.62,1.24,1.24,0,0,1,.08-.61.47.47,0,0,1,.51-.28.53.53,0,0,1,.35.41c0,.18,0,.38.08.57a2.34,2.34,0,0,0,1.34,1.47,11.28,11.28,0,0,0,2.21.75.13.13,0,0,1,.09.05A.1.1,0,0,1,58.44,29.48Z"/><path class="cls-10" d="M64.16,27.36a2.23,2.23,0,0,1-.1.43c-.52,1.58-2.44,2.31-4,2.37-1.81.07-3.38-.83-5-1.51a1.11,1.11,0,0,1-.57-.39,1.08,1.08,0,0,1-.14-.56l-.12-1.46a2.16,2.16,0,0,1,.71-1.8.63.63,0,0,1,.62-.14c.07,0,.14.11.21.15a.89.89,0,0,0,.51.08,8.83,8.83,0,0,0,1.26-.14A21.21,21.21,0,0,1,60,24.18a4.83,4.83,0,0,1,2.44.33A2.85,2.85,0,0,1,64.16,27.36Z"/><path class="cls-10" d="M54.14,26.19c0,.44.07.89.1,1.33a1.86,1.86,0,0,1-.07.85,1.83,1.83,0,0,1-.82.76c-1.76,1.05-4,2.45-6.1,1.73a4.82,4.82,0,0,1-2.86-2.93,2.18,2.18,0,0,1,1.67-3,14,14,0,0,1,4.56,0A2.22,2.22,0,0,0,52,24.77c.14-.09.25-.2.4-.29a1.13,1.13,0,0,1,1.35.28A2.44,2.44,0,0,1,54.14,26.19Z"/><path class="cls-11" d="M49.73,21.07a1.54,1.54,0,0,0,.05.43,5.38,5.38,0,0,1,.07.69A1.24,1.24,0,0,0,50,23a.57.57,0,0,0,.83,0,1.12,1.12,0,0,0,.11-.25,1.94,1.94,0,0,0,0-1.3A1.09,1.09,0,0,0,50.6,21C50.32,20.75,49.77,20.57,49.73,21.07Z"/><path class="cls-12" d="M52.45,25.08a4.55,4.55,0,0,0,0,.53,3.2,3.2,0,0,0,.08,1c0,.09.07.18.09.27a3.13,3.13,0,0,1,0,.43.82.82,0,0,0,.1.4c.39.56.47-.79.58-1a1.52,1.52,0,0,1,.22-.22A1.84,1.84,0,0,0,54,25.19c0-1.15-1.08-1.25-1.49-.43A1.19,1.19,0,0,0,52.45,25.08Z"/><path class="cls-12" d="M54.77,25.6a.61.61,0,0,0,.07.28c.06.09.16.1.22.19s0,.55.18.65.13,0,.19,0,.18.15.23.29a2.74,2.74,0,0,0,.15.4.23.23,0,0,0,.13.11c.06,0,.12-.07.14-.16a.86.86,0,0,0,0-.28c0-.46,0-.91,0-1.37a3.19,3.19,0,0,0-.08-.7.81.81,0,0,0-.48-.57C55,24.31,54.74,24.91,54.77,25.6Z"/><path class="cls-6" d="M56.23,24.36a.54.54,0,0,1-.17.4.35.35,0,0,1-.42,0c0-.05-.08-.12-.13-.17a.38.38,0,0,0-.54.13,1,1,0,0,0-.08.61,1.3,1.3,0,0,1,0,.62,1.25,1.25,0,0,1-.44.53.51.51,0,0,1-.2.12.5.5,0,0,1-.41-.19,1.18,1.18,0,0,1-.42-.68,3.54,3.54,0,0,1,0-.46.68.68,0,0,0-.23-.57.41.41,0,0,0-.57,0c0,.05-.06.11-.1.16a.37.37,0,0,1-.37.14.38.38,0,0,1-.29-.28c-.08-.33.23-.64.52-.83a2.14,2.14,0,0,1,1.5-.19,1.46,1.46,0,0,0,.36,0,3,3,0,0,0,.52-.11,1.48,1.48,0,0,1,.86.05C55.9,23.8,56.23,24.07,56.23,24.36Z"/><path class="cls-11" d="M49.87,19.74a.65.65,0,0,0-.17-.26h0a.68.68,0,0,0-.65-.06,2.24,2.24,0,0,1-.66.18c-.29,0-.56-.2-.86-.2s-.71.25-1.06.17a1.5,1.5,0,0,1-.42-.21,1.43,1.43,0,0,0-1.2-.11,3,3,0,0,0,1.37,1.11,3.07,3.07,0,0,0,1.8.1l.12,0,.16,0a1.53,1.53,0,0,1,.52-.08c.2,0,.4.12.6.15a.48.48,0,0,0,.53-.21A.59.59,0,0,0,49.87,19.74Z"/><path class="cls-11" d="M60.92,19.71c-.11,0-.24,0-.35-.06a3.24,3.24,0,0,1-.37-.19,1.35,1.35,0,0,0-.72-.06.47.47,0,0,1-.17,0,.67.67,0,0,1-.25-.13A1.61,1.61,0,0,0,57.94,19a.92.92,0,0,0-.46.17A3.27,3.27,0,0,0,61,20l.19-.09A.32.32,0,0,0,60.92,19.71Z"/><path class="cls-11" d="M59,20.05a3.09,3.09,0,0,1-1.51-.93.65.65,0,0,0-.25.86.55.55,0,0,0,.38.28,1.27,1.27,0,0,0,.64-.07,1.57,1.57,0,0,1,.64-.14H59Z"/><path class="cls-13" d="M41.69,94.34c-.13-.81-.81-1.16-1.22-1.87a5.93,5.93,0,0,0-1.14-1.53,3.54,3.54,0,0,0-1.18-.67,4.85,4.85,0,0,0-2.48-.13,10.27,10.27,0,0,1-.71-.77,26.75,26.75,0,0,1-2.55-3.85,29.81,29.81,0,0,1-1.92-4.23c-.24-.63-.46-1.27-.68-1.91a12.39,12.39,0,0,0,0,3.27A16.1,16.1,0,0,0,30.85,87c.61,1.54,1.4,3,2,4.53a4.09,4.09,0,0,0-.68.7,5.28,5.28,0,0,0-.42.69c-.26.51-.53,1-.8,1.53a1.72,1.72,0,0,0-.29,1.32,1,1,0,0,0,.58.57c.13.06.27.09.41.15s.48.27.73.38c.75.31,1.6,0,2.41.11a8.19,8.19,0,0,1,1,.2,4.63,4.63,0,0,0,1.7,0,10.81,10.81,0,0,1,1.36-.25c.24,0,.48,0,.73,0a2.14,2.14,0,0,0,2.12-2.59Z"/><path class="cls-14" d="M40.47,92.47a5.93,5.93,0,0,0-1.14-1.53,3.54,3.54,0,0,0-1.18-.67,4.89,4.89,0,0,0-2.76-.08,6.3,6.3,0,0,0-2.47,1.29,3.56,3.56,0,0,0-.72.73,5.28,5.28,0,0,0-.42.69L31,94.43a1.72,1.72,0,0,0-.29,1.32,1,1,0,0,0,.58.57c.13.06.27.09.41.15s.48.27.73.38c.75.31,1.6,0,2.41.11a8.19,8.19,0,0,1,1,.2,4.63,4.63,0,0,0,1.7,0,10.81,10.81,0,0,1,1.36-.25c.24,0,.48,0,.73,0a2.14,2.14,0,0,0,2.12-2.59C41.56,93.53,40.88,93.18,40.47,92.47Z"/><path class="cls-15" d="M66.88,69a20,20,0,0,0,.21-3.71l-4.27,5.41a17.2,17.2,0,0,1-2.5,2.75A6,6,0,0,1,57,74.92a5.82,5.82,0,0,1-3-.64C51.4,73,49.61,70.62,48,68.22c.09,6.39,4.32,11.72,5.29,18,.47,3,.11,6.16.22,9.24a1.5,1.5,0,0,1,0,.2,15,15,0,0,0,6.79-.53,13,13,0,0,0,2.37-1.06c0-.58,0-1.16,0-1.73a60.25,60.25,0,0,1,2.82-18.87A27,27,0,0,0,66.88,69Z"/><path class="cls-16" d="M39.25,71.73c1.41,3.68,3.2,7.21,4.55,10.91.66,1.81,1.22,3.66,1.77,5.51a15.42,15.42,0,0,1,1,6.13,2.5,2.5,0,0,0-1.25,1.25,4.31,4.31,0,0,0-.34,1.78,3.49,3.49,0,0,0,.59,2.19,1.8,1.8,0,0,0,2,.65,3.26,3.26,0,0,0,.8.21,1.37,1.37,0,0,0,.84-.18c.75.45,1.67,0,2.54,0,.4,0,.8.08,1.2,0a2.77,2.77,0,0,0,1.89-1.11,6,6,0,0,0,.95-2,6.9,6.9,0,0,0,.3-1.33,9,9,0,0,0-.2-2.53c-.34-2-.52-4.08-1-6a16.22,16.22,0,0,1-.77-5.54,4.25,4.25,0,0,0,0-1.63A4.48,4.48,0,0,0,53,78.47a10.49,10.49,0,0,1-2-3.22c-.92-2.39-.94-5-1.49-7.53a17.9,17.9,0,0,0-4.43-8.37,7,7,0,0,0-1.43-1.23,9.35,9.35,0,0,0-3.77-1,1.76,1.76,0,0,0-.94.06,1.58,1.58,0,0,0-.54.52C35.54,61.58,37.69,67.64,39.25,71.73Z"/><path class="cls-17" d="M74.51,64c0,.86-.08,1.72-.11,2.58a19.94,19.94,0,0,1-.25,2.78,24.49,24.49,0,0,1-.83,2.86C71.2,78.63,70.19,85.35,69.19,92a9.9,9.9,0,0,0-.13,3.21,4.27,4.27,0,0,1,.9,2.81c.06.87.08,1.54-.71,2.09a2.6,2.6,0,0,1-1.4.46c-.44,0-.88-.06-1.32-.06a3.19,3.19,0,0,0-1.25.34,5.62,5.62,0,0,1-1.36.16,4,4,0,0,1-2.56-.56,1,1,0,0,0-.24-.14,1.29,1.29,0,0,0-.34,0A1.42,1.42,0,0,1,59.36,99a24.72,24.72,0,0,1,.46-6.32c.19-.79.43-1.56.58-2.36a20.63,20.63,0,0,0,.25-2.48q.23-4.54.06-9.09a8.81,8.81,0,0,1,0-1.85,8.24,8.24,0,0,1,.45-1.54,40.57,40.57,0,0,1,2-4.48,9.12,9.12,0,0,0,.7-5.74c-.22-1.33-.82-2.56-1.14-3.86a9.55,9.55,0,0,1,2.7-9,3.77,3.77,0,0,1,1.1-.77,3.62,3.62,0,0,1,1.31-.23,10,10,0,0,1,3.67.54,3.87,3.87,0,0,1,1.62,1A4.45,4.45,0,0,1,74,55.07,48.53,48.53,0,0,1,74.51,64Z"/><path class="cls-12" d="M26.41,93.05a5.22,5.22,0,0,0-3.84,1.4,4.27,4.27,0,0,1-.72.8,2.45,2.45,0,0,1-.84.28,12.11,12.11,0,0,0-5.33,2,2.35,2.35,0,0,0-1,1.51.67.67,0,0,0,.1.46.8.8,0,0,0,.52.22,24.94,24.94,0,0,0,2.59.25,2.44,2.44,0,0,1,1.44.35c.28.23.44.58.7.83a2.75,2.75,0,0,0,2,.51,39.9,39.9,0,0,0,9.93-1.1c.56-.15,1.23-.46,1.23-1a1.2,1.2,0,0,0-.66-.91,7,7,0,0,0-3.17-1,2.92,2.92,0,0,1-1-.23.84.84,0,0,1-.48-.85c.08-.35.45-.56.58-.89.2-.52-.14-1,.21-1.37a8.27,8.27,0,0,1,1.73-1,2.8,2.8,0,0,0,1.35-1.57,2.71,2.71,0,0,0-1.38.55A8.07,8.07,0,0,1,26.41,93.05Z"/><path class="cls-18" d="M31.84,15.9A36.41,36.41,0,0,0,31.18,30"/><path class="cls-18" d="M26.4,13.94a47.74,47.74,0,0,0-.86,18.48"/><path class="cls-18" d="M73.39,15.9A36.6,36.6,0,0,1,74.05,30"/><path class="cls-18" d="M78.83,13.94a47.74,47.74,0,0,1,.86,18.48"/></g></g></svg>