<svg xmlns="http://www.w3.org/2000/svg" xmlns:xlink="http://www.w3.org/1999/xlink" viewBox="0 0 121.78 81.86"><defs><style>.cls-1{fill:#dde2f0;}.cls-2{fill:#ab969e;}.cls-3{fill:#0a45b8;}.cls-4{fill:url(#linear-gradient);}.cls-5{fill:#ff8eff;opacity:0.22;}.cls-6{fill:#d9c3ba;}.cls-7{fill:#3d223e;}.cls-8{fill:#f0bad6;}.cls-9{fill:#f8f4f0;}.cls-10{fill:url(#linear-gradient-2);}.cls-11{fill:url(#linear-gradient-3);}.cls-12{fill:url(#linear-gradient-4);}.cls-13{fill:url(#linear-gradient-5);}.cls-14{fill:url(#linear-gradient-6);}.cls-15{fill:url(#linear-gradient-7);}.cls-16{fill:url(#linear-gradient-8);}.cls-17{fill:url(#linear-gradient-9);}.cls-18{fill:url(#linear-gradient-10);}.cls-19{fill:none;stroke:#0a45b8;stroke-linecap:round;stroke-linejoin:round;stroke-width:2px;}</style><linearGradient id="linear-gradient" x1="33.11" y1="57.53" x2="33.11" y2="69.7" gradientUnits="userSpaceOnUse"><stop offset="0" stop-color="#f8f4f0"/><stop offset="0.01" stop-color="#f7f2ee"/><stop offset="0.22" stop-color="#eaddd7"/><stop offset="0.44" stop-color="#e0cfc7"/><stop offset="0.68" stop-color="#dbc6bd"/><stop offset="1" stop-color="#d9c3ba"/></linearGradient><linearGradient id="linear-gradient-2" x1="36.01" y1="19.3" x2="38.59" y2="33.9" gradientUnits="userSpaceOnUse"><stop offset="0" stop-color="#f8f4f0"/><stop offset="0.16" stop-color="#efe6e0"/><stop offset="0.45" stop-color="#e3d3cb"/><stop offset="0.74" stop-color="#dbc7be"/><stop offset="1" stop-color="#d9c3ba"/></linearGradient><linearGradient id="linear-gradient-3" x1="42.73" y1="45.09" x2="51.31" y2="42.8" gradientUnits="userSpaceOnUse"><stop offset="0" stop-color="#ab969e"/><stop offset="0.12" stop-color="#b29da2"/><stop offset="0.68" stop-color="#ceb9b4"/><stop offset="1" stop-color="#d9c3ba"/></linearGradient><linearGradient id="linear-gradient-4" x1="84.51" y1="46.11" x2="84.51" y2="58.26" gradientUnits="userSpaceOnUse"><stop offset="0" stop-color="#d9c3ba"/><stop offset="0.31" stop-color="#d5bfb8"/><stop offset="0.59" stop-color="#cab5b1"/><stop offset="0.86" stop-color="#b8a3a6"/><stop offset="1" stop-color="#ab969e"/></linearGradient><linearGradient id="linear-gradient-5" x1="60.05" y1="41.44" x2="84.6" y2="50.37" gradientUnits="userSpaceOnUse"><stop offset="0" stop-color="#d9c3ba"/><stop offset="0.59" stop-color="#dcc8c0" stop-opacity="0.98"/><stop offset="0.85" stop-color="#e9dcd5" stop-opacity="0.9"/><stop offset="1" stop-color="#f8f4f0" stop-opacity="0.8"/></linearGradient><linearGradient id="linear-gradient-6" x1="114.43" y1="60.79" x2="88.08" y2="45.58" gradientUnits="userSpaceOnUse"><stop offset="0.16" stop-color="#d9c3ba"/><stop offset="0.69" stop-color="#dcc8bf" stop-opacity="0.98"/><stop offset="0.88" stop-color="#e7dad3" stop-opacity="0.91"/><stop offset="1" stop-color="#f8f4f0" stop-opacity="0.8"/></linearGradient><linearGradient id="linear-gradient-7" x1="114.19" y1="56.45" x2="114.4" y2="56.23" gradientUnits="userSpaceOnUse"><stop offset="0" stop-color="#ab969e"/><stop offset="0.12" stop-color="#b5a0a4"/><stop offset="0.41" stop-color="#c9b3b0"/><stop offset="0.7" stop-color="#d5bfb8"/><stop offset="1" stop-color="#d9c3ba"/></linearGradient><linearGradient id="linear-gradient-8" x1="85.04" y1="63.54" x2="113.42" y2="35.16" xlink:href="#linear-gradient-7"/><linearGradient id="linear-gradient-9" x1="113.97" y1="56.1" x2="117.88" y2="53.85" gradientUnits="userSpaceOnUse"><stop offset="0" stop-color="#ab969e"/><stop offset="0.11" stop-color="#ad989f" stop-opacity="0.96"/><stop offset="0.28" stop-color="#b29da2" stop-opacity="0.84"/><stop offset="0.49" stop-color="#bba6a8" stop-opacity="0.65"/><stop offset="0.72" stop-color="#c8b2af" stop-opacity="0.38"/><stop offset="0.97" stop-color="#d7c1b9" stop-opacity="0.04"/><stop offset="1" stop-color="#d9c3ba" stop-opacity="0"/></linearGradient><linearGradient id="linear-gradient-10" x1="59.97" y1="45.61" x2="61.95" y2="56.83" gradientUnits="userSpaceOnUse"><stop offset="0.26" stop-color="#d9c3ba"/><stop offset="0.49" stop-color="#d5bfb8"/><stop offset="0.7" stop-color="#cab5b1"/><stop offset="0.89" stop-color="#b8a3a6"/><stop offset="1" stop-color="#ab969e"/></linearGradient></defs><title>Ресурс 47600</title><g id="Слой_2" data-name="Слой 2"><g id="Illustration"><path class="cls-1" d="M59,.14A43.94,43.94,0,0,1,79.85,3.51a45.57,45.57,0,0,1,21.26,18.15c10.21,17,11.27,44-2.13,52.54s-29.35,0-31.48-1.06-16.59-6.38-23-.64-6.17,9.36-11.28,9.36S13.26,71,13.9,43.15c.32-14,7.49-26.15,19.1-33.8A55.26,55.26,0,0,1,59,.14Z"/><ellipse class="cls-2" cx="33.11" cy="57.41" rx="15.55" ry="2.17"/><ellipse class="cls-3" cx="33.11" cy="58.89" rx="11.99" ry="2.17"/><path class="cls-4" d="M48.63,57.53c-.16.42-1.17.8-2.78,1.12a72.4,72.4,0,0,1-12.74.93,72.45,72.45,0,0,1-12.75-.93c-1.6-.32-2.61-.7-2.78-1.12,0,.2,0,.41,0,.61a7.84,7.84,0,0,0,.5,2.76A11.7,11.7,0,0,0,23.92,67a.38.38,0,0,1,.09.61h0a.51.51,0,0,0,.19.85,30,30,0,0,0,8.92,1.27A30,30,0,0,0,42,68.43a.51.51,0,0,0,.19-.85h0a.38.38,0,0,1,.09-.61,11.66,11.66,0,0,0,5.86-6.06,7.84,7.84,0,0,0,.5-2.76C48.65,57.94,48.65,57.73,48.63,57.53Z"/><path class="cls-2" d="M109.87,43a18.6,18.6,0,0,0-1.27-5.34,13.4,13.4,0,0,0-10.68-8.4,6.73,6.73,0,0,0-3.86.55,10.81,10.81,0,0,0-2.88,2.48,21.24,21.24,0,0,0-2.69,3.38,26.12,26.12,0,0,0-1.76,3.7,29.86,29.86,0,0,0-1.6,3.88,12.93,12.93,0,0,0-.34,4.29,7.24,7.24,0,0,0,.56,2.43,6.12,6.12,0,0,0,.87,1.37,20.56,20.56,0,0,0,1.88,2,40.42,40.42,0,0,0,5.2,4.41,17.82,17.82,0,0,1-3.72-.06c-1.28-.07-2.57-.19-3.85-.34a16.85,16.85,0,0,0-1.87-.16,14.86,14.86,0,0,0-1.88.14,6.52,6.52,0,0,0-1.23.24,4.05,4.05,0,0,0-2,1.55,4.94,4.94,0,0,0-1.07,3.35.87.87,0,0,0,.07.31.85.85,0,0,0,.33.32,6.38,6.38,0,0,0,5.36.18c1.33.3,2.72-.13,4.08-.17a29,29,0,0,1,4.35.41,16.07,16.07,0,0,0,4.1,0c3-.35,6,.28,8.88-.31a22.17,22.17,0,0,0,2.5-.71,2.61,2.61,0,0,0,1.13-.59,1.77,1.77,0,0,0,.4-1.42,5.07,5.07,0,0,0-.46-1.46c-.58-1.36-1.79-2.83-1.53-4.41a4.85,4.85,0,0,1,1-1.88,10.89,10.89,0,0,0,2.08-4.56,12.13,12.13,0,0,0,.1-2C110,45.05,110,44,109.87,43Z"/><path class="cls-2" d="M65.81,51.31,59.38,62a7.45,7.45,0,0,1-2.8,3.1c-1.34.65-2.92.21-4.41.33a7.51,7.51,0,0,1-2.27,0A2.53,2.53,0,0,1,48.14,64a2.18,2.18,0,0,1,0-1.59,3.65,3.65,0,0,1,1-1.33,1.84,1.84,0,0,1,1.36-1.34,3.91,3.91,0,0,1,2.05.23c2.43-4.3,3.26-9.29,4-14.17a12.49,12.49,0,0,1,1.75-4.89,7.73,7.73,0,0,1,2.29-2.3A4.64,4.64,0,0,1,63.7,38a5.14,5.14,0,0,1,3.78,4,12.88,12.88,0,0,1-.27,5.75A13,13,0,0,1,65.81,51.31Z"/><path class="cls-5" d="M22.75,42.72q-.06-.47-.09-.93Q22.69,42.26,22.75,42.72Z"/><path class="cls-5" d="M23.35,45.49v0c0,.14.09.27.13.41C23.44,45.76,23.39,45.63,23.35,45.49Z"/><path class="cls-5" d="M22.9,43.63c-.06-.29-.1-.58-.14-.86C22.8,43.05,22.84,43.34,22.9,43.63Z"/><path class="cls-5" d="M23.78,46.76c-.09-.21-.16-.42-.23-.64C23.62,46.34,23.69,46.55,23.78,46.76Z"/><path class="cls-5" d="M23.09,44.55c-.05-.22-.1-.44-.14-.67C23,44.11,23,44.33,23.09,44.55Z"/><path class="cls-2" d="M31.46,27.12c-.35-.36-1-.25-1.45-.36-.71-.17-1.41-.37-2.11-.61A24.39,24.39,0,0,1,24,24.45a12.46,12.46,0,0,0-4-1.74.66.66,0,0,0-.44,0,.55.55,0,0,0-.27.48,5.71,5.71,0,0,0,1.26,2.89l1.56,2.27a9.37,9.37,0,0,1,1.7,3.36,9.53,9.53,0,0,1-.06,3.06q2.07-1.77,4-3.69A31.07,31.07,0,0,0,31.46,27.12Z"/><path class="cls-6" d="M116.15,40.55A23.13,23.13,0,0,0,115,37a23.12,23.12,0,0,0-3.39-5,29.24,29.24,0,0,0-3.89-3.56A72.45,72.45,0,0,0,96,20.25a42.43,42.43,0,0,0-8.54-3.59,27.5,27.5,0,0,0-10.11-.57c-4.35.43-8.34,3.48-12.69,3.07A22.39,22.39,0,0,0,48.5,24.1a5,5,0,0,1-2.44,1.38,5.18,5.18,0,0,1-1.56-.2,22.28,22.28,0,0,0-9.75.12A23.74,23.74,0,0,0,30,27a7.26,7.26,0,0,0-1.52.84,9,9,0,0,0-1.33,1.29l-1.56,1.73a11.58,11.58,0,0,0-1,1.16,12.12,12.12,0,0,0-1.53,4.42,19.63,19.63,0,0,0-.44,4.89A6.64,6.64,0,0,0,23,42.87a8.11,8.11,0,0,0,.93,2.28,20.17,20.17,0,0,1,1.5,2.07,4.48,4.48,0,0,1,.38,2.08,19.3,19.3,0,0,0,.07,2.28,2,2,0,0,0,.29,1,.7.7,0,0,0,.13.17.83.83,0,0,0,.18.13,2.69,2.69,0,0,0,.54.26l.09,0c.09.06.13.18.19.26a1.73,1.73,0,0,0,.26.28,2,2,0,0,0,1.34.36,1,1,0,0,0,.67-.2A3.53,3.53,0,0,0,31,54a1.28,1.28,0,0,0,.7-.14c.06.09.11.12.17.21a4.11,4.11,0,0,0,6.54.39,7.57,7.57,0,0,0,.7-1,10.13,10.13,0,0,1,1.72-2.08,4.49,4.49,0,0,1,2.41-1.15c1.91-.22,3.49,1.09,5.24,1.87a52.36,52.36,0,0,0,12.45,3.71A88,88,0,0,0,74,57.06c2.19.06,4.39,0,6.58,0a52.92,52.92,0,0,1,6.86.67c2,.24,4.08.49,6.14.6,1.29.07,2.58.08,3.87.12s2.5.17,3.76.21c1.1,0,2.21,0,3.31.15,2.22.23,4.53.86,6.62.08l-.63.19a5,5,0,0,0,2.94-1.68,9.77,9.77,0,0,0,1.71-3,22.85,22.85,0,0,0,1.47-7A21.55,21.55,0,0,0,116.15,40.55Z"/><path class="cls-7" d="M32,42.8l-1.15.69a4.32,4.32,0,0,0-1.1.85,1.54,1.54,0,0,0-.34,1.36,2.21,2.21,0,0,0,2-.69A2.83,2.83,0,0,0,32,42.8Z"/><path class="cls-7" d="M36.16,49.48a4.5,4.5,0,0,0,.09,1.42,9.18,9.18,0,0,0,.54,1.2A1.91,1.91,0,0,1,37,53.38a1.79,1.79,0,0,1-.37.64,3.19,3.19,0,0,1-2.88,1.19,1.09,1.09,0,0,1-.78-.45,2,2,0,0,1,0-1.44,3.39,3.39,0,0,1,.28-.75,7.59,7.59,0,0,1,2.49-2.87C35.78,49.62,36,49.45,36.16,49.48Z"/><path class="cls-8" d="M34.32,51a4.79,4.79,0,0,1,0,1,5.74,5.74,0,0,1-.28,1.89,9,9,0,0,1-1,1.62,2.65,2.65,0,0,0-.54,1.78,1.06,1.06,0,0,1,0,.56.5.5,0,0,1-.45.25A1.16,1.16,0,0,1,31.6,58a3.34,3.34,0,0,1-1.68-2,3,3,0,0,1,.49-2.56c.51-.64,1.4-.75,2.1-1.15S33.7,51.36,34.32,51Z"/><path class="cls-9" d="M34.53,48.57a10.33,10.33,0,0,0-3.05,1A5.1,5.1,0,0,0,28.92,52a1.42,1.42,0,0,0-.11.35,1.59,1.59,0,0,0,.76,1.48l.13.06A4,4,0,0,0,31,54a3.69,3.69,0,0,0,2.08-1c.7-.57,1.37-1.19,2-1.8.23-.22.42-.45.63-.68a1.89,1.89,0,0,0,.48-.77,1,1,0,0,0-.35-1,1.43,1.43,0,0,0-1.27-.19Z"/><path class="cls-7" d="M28.64,51.24h-.08a.37.37,0,0,0-.22.12,2.18,2.18,0,0,1-1.34.78,3.64,3.64,0,0,0-1,0l0,0a.06.06,0,0,0,0,.06.71.71,0,0,0,.15.3.7.7,0,0,0,.13.17.83.83,0,0,0,.18.13,3.36,3.36,0,0,0,.54.26,4.2,4.2,0,0,0,.94.16,2.86,2.86,0,0,0,1.09,0,4.74,4.74,0,0,1,0-1.19,1.32,1.32,0,0,0-.17-.68A.41.41,0,0,0,28.64,51.24Z"/><path class="cls-10" d="M42.91,32.47c.21-.12.25-1.16.27-1.39.2-2.36-.67-4.67-1.51-6.83a10.1,10.1,0,0,0-3.45-4.91,1.35,1.35,0,0,0-.86-.28c-1.41.16-2.1,2.63-2.33,3.73s-.32,2.32-.52,3.47A34.61,34.61,0,0,1,32.86,32a2.66,2.66,0,0,0,1.79,1.45A10.16,10.16,0,0,0,42.91,32.47Z"/><path class="cls-8" d="M41.76,31.53a8.86,8.86,0,0,0,0-3,18.92,18.92,0,0,0-.63-3.34,11.06,11.06,0,0,0-2.46-4.54,1.56,1.56,0,0,0-1.12-.62,1.36,1.36,0,0,0-1,.78,6.53,6.53,0,0,0-.67,2.47,51.39,51.39,0,0,1-1.39,7.88c.66,1,1.77,1.08,2.81,1.3a7.15,7.15,0,0,0,3.94-.25,1.14,1.14,0,0,0,.34-.19.85.85,0,0,0,.23-.45Z"/><path class="cls-11" d="M50.66,47.21a11.48,11.48,0,0,0-1-9.08,15.53,15.53,0,0,0-2.48-3,3.57,3.57,0,0,0,.62,1.8,10.68,10.68,0,0,1-.94,11.12,6.69,6.69,0,0,1-2.7,2.2c1.52.18,2.87,1.19,4.35,1.85l.2.09c.32-.76.63-1.52,1-2.27A25.5,25.5,0,0,0,50.66,47.21Z"/><path class="cls-12" d="M93.2,48.32a26.61,26.61,0,0,1-8.74-1c-.71-.2-1.42-.43-2.11-.68-.45-.17-1.24-.69-1.72-.55s-.75.87-1,1.22c-.41.6-.86,1.18-1.33,1.74-2.16,2.57-5,4.77-6.15,7.9.61,0,1.22.06,1.83.07,2.19.06,4.39,0,6.58,0a52.92,52.92,0,0,1,6.86.67c1.66.2,3.33.38,5,.51a24.12,24.12,0,0,0,3.88-.43.71.71,0,0,0,.48-.25c.14-.21,0-.49-.08-.72A71.31,71.31,0,0,1,93.2,48.32Z"/><path class="cls-6" d="M61.33,60.87a3.24,3.24,0,0,0-2.14,1A4,4,0,0,0,58,63.11a2.13,2.13,0,0,0,.11,2,2.33,2.33,0,0,0,1.75,1.05c.69.06,1.39-.19,2.08-.12a10.54,10.54,0,0,1,1.23.31,4.24,4.24,0,0,0,3.17-.49,4.31,4.31,0,0,0,2.84-.23,4.11,4.11,0,0,0,1.64-1.83c.38-.74.63-1.53,1-2.28a18.93,18.93,0,0,1,1.23-2.08A44.73,44.73,0,0,1,79,52.21a46.22,46.22,0,0,0,6.7-7.7c2.71-4.22,5.68-9.66,3.77-14.77a7.45,7.45,0,0,0-.68-1.39,6.86,6.86,0,0,0-3.21-2.5c-5.36-2.17-11.59-.54-16.93.92a7.74,7.74,0,0,0-3.32,1.54,5.32,5.32,0,0,0-1.48,3.78,17.47,17.47,0,0,0,.62,4.11,40.78,40.78,0,0,1,1.37,11.89A20.81,20.81,0,0,1,65.43,51c-.17.82-.57,1.54-.73,2.36-.36,1.77,0,3.63-.62,5.37A5.26,5.26,0,0,1,63,60.88C62.47,61.28,61.9,60.91,61.33,60.87Z"/><path class="cls-13" d="M61.33,60.87a3.24,3.24,0,0,0-2.14,1A4,4,0,0,0,58,63.11a2.13,2.13,0,0,0,.11,2,2.33,2.33,0,0,0,1.75,1.05c.69.06,1.39-.19,2.08-.12a10.54,10.54,0,0,1,1.23.31,4.24,4.24,0,0,0,3.17-.49,4.31,4.31,0,0,0,2.84-.23,4.11,4.11,0,0,0,1.64-1.83c.38-.74.63-1.53,1-2.28a18.93,18.93,0,0,1,1.23-2.08A44.73,44.73,0,0,1,79,52.21a46.22,46.22,0,0,0,6.7-7.7c2.71-4.22,5.68-9.66,3.77-14.77a7.45,7.45,0,0,0-.68-1.39,6.86,6.86,0,0,0-3.21-2.5c-5.36-2.17-11.59-.54-16.93.92a7.74,7.74,0,0,0-3.32,1.54,5.32,5.32,0,0,0-1.48,3.78,17.47,17.47,0,0,0,.62,4.11,40.78,40.78,0,0,1,1.37,11.89A20.81,20.81,0,0,1,65.43,51c-.17.82-.57,1.54-.73,2.36-.36,1.77,0,3.63-.62,5.37A5.26,5.26,0,0,1,63,60.88C62.47,61.28,61.9,60.91,61.33,60.87Z"/><path class="cls-6" d="M113.87,45.26a18.61,18.61,0,0,0-1.27-5.33,13.36,13.36,0,0,0-10.67-8.41,6.81,6.81,0,0,0-3.86.56,10.49,10.49,0,0,0-2.89,2.47,20.28,20.28,0,0,0-2.68,3.39,26.6,26.6,0,0,0-1.77,3.69,33.81,33.81,0,0,0-1.6,3.89,13.12,13.12,0,0,0-.34,4.28,7.49,7.49,0,0,0,.56,2.44,7,7,0,0,0,.87,1.37,20.51,20.51,0,0,0,1.88,2A41.32,41.32,0,0,0,97.3,60a17.71,17.71,0,0,1-3.71-.06c-1.29-.08-2.58-.19-3.86-.34a16.66,16.66,0,0,0-1.87-.17,14.58,14.58,0,0,0-1.87.15,6.46,6.46,0,0,0-1.24.23,4.17,4.17,0,0,0-2,1.56,5,5,0,0,0-1.07,3.34.78.78,0,0,0,.07.31.85.85,0,0,0,.33.32,6.33,6.33,0,0,0,5.37.18c1.32.3,2.72-.12,4.08-.16a27.48,27.48,0,0,1,4.34.41,16.07,16.07,0,0,0,4.1-.05c3-.35,6,.28,8.88-.3a21.59,21.59,0,0,0,2.5-.71,2.66,2.66,0,0,0,1.13-.59,1.79,1.79,0,0,0,.41-1.43,5.33,5.33,0,0,0-.46-1.45c-.59-1.36-1.8-2.84-1.53-4.42a4.56,4.56,0,0,1,1-1.87,11.09,11.09,0,0,0,2.07-4.57,10.28,10.28,0,0,0,.1-2C114,47.35,114,46.3,113.87,45.26Z"/><path class="cls-14" d="M113.87,45.26a18.61,18.61,0,0,0-1.27-5.33,13.36,13.36,0,0,0-10.67-8.41,6.81,6.81,0,0,0-3.86.56,10.49,10.49,0,0,0-2.89,2.47,20.28,20.28,0,0,0-2.68,3.39,26.6,26.6,0,0,0-1.77,3.69,33.81,33.81,0,0,0-1.6,3.89,13.12,13.12,0,0,0-.34,4.28,7.49,7.49,0,0,0,.56,2.44,7,7,0,0,0,.87,1.37,20.51,20.51,0,0,0,1.88,2A41.32,41.32,0,0,0,97.3,60a17.71,17.71,0,0,1-3.71-.06c-1.29-.08-2.58-.19-3.86-.34a16.66,16.66,0,0,0-1.87-.17,14.58,14.58,0,0,0-1.87.15,6.46,6.46,0,0,0-1.24.23,4.17,4.17,0,0,0-2,1.56,5,5,0,0,0-1.07,3.34.78.78,0,0,0,.07.31.85.85,0,0,0,.33.32,6.33,6.33,0,0,0,5.37.18c1.32.3,2.72-.12,4.08-.16a27.48,27.48,0,0,1,4.34.41,16.07,16.07,0,0,0,4.1-.05c3-.35,6,.28,8.88-.3a21.59,21.59,0,0,0,2.5-.71,2.66,2.66,0,0,0,1.13-.59,1.79,1.79,0,0,0,.41-1.43,5.33,5.33,0,0,0-.46-1.45c-.59-1.36-1.8-2.84-1.53-4.42a4.56,4.56,0,0,1,1-1.87,11.09,11.09,0,0,0,2.07-4.57,10.28,10.28,0,0,0,.1-2C114,47.35,114,46.3,113.87,45.26Z"/><path class="cls-15" d="M114.36,56.42l0-.26-.16.26A1,1,0,0,1,114.36,56.42Z"/><path class="cls-16" d="M120.94,55a44.23,44.23,0,0,1-2-4.55,13.51,13.51,0,0,1-.47-2.36c-.18-1.65-.33-3.34-.67-5a17.05,17.05,0,0,0-3-6.64,37.09,37.09,0,0,1,1.45,4.11,21.55,21.55,0,0,1,.47,6.85,22.85,22.85,0,0,1-1.47,7,11.91,11.91,0,0,1-.82,1.73l-.16.26c-.61,0-2.49.21-2.7.23-1.93.2-3.86.33-5.8.37a41.38,41.38,0,0,1-13.51-1.68,25.73,25.73,0,0,1-10-5.73c-2.66-2.51-4.26-5.78-5.8-9a2.51,2.51,0,0,0-1-1.29c-1.58-.77-2.2,2.54-2.36,3.46a12.21,12.21,0,0,0,.18,5.14A19.21,19.21,0,0,0,78.6,57.1a30.13,30.13,0,0,0,10.91,6.45,55.8,55.8,0,0,0,13.2,2.88,43.65,43.65,0,0,0,9.56,0c2.63-.32,5.69-.83,7.62-2.82C122.19,61.25,122.21,57.89,120.94,55Z"/><path class="cls-17" d="M118.75,55.8a5.79,5.79,0,0,0-.41-1.1,7.89,7.89,0,0,0-.92-1.45c-.44-.58-.91-1.15-1.41-1.69a2.11,2.11,0,0,1-.13.57c-.07.27-.14.53-.22.79-.16.53-.33,1-.54,1.57a11.62,11.62,0,0,1-1,1.94c.58,0,2-.14,2.18-.14a11.1,11.1,0,0,1,2.57.32A5.84,5.84,0,0,0,118.75,55.8Z"/><path class="cls-18" d="M70.41,43.81a10.47,10.47,0,0,0-1.25.19,13.51,13.51,0,0,0-2.32.71c-.76.3-1.52.59-2.3.85l-1.19.4c-.34.11-.62.3-1,.39-1.39.37-2.8.68-4.16,1.15-1.12.39-2.21.87-3.29,1.35-.56.25-1.12.51-1.66.8A17.26,17.26,0,0,0,51.21,51a14.62,14.62,0,0,0-1.85,1.57.81.81,0,0,1,.29.12l.37.16c.78.31,1.58.6,2.37.87a61.05,61.05,0,0,0,8.54,2.17H61c.55.1,1.11.19,1.67.27h0l1.75.24a10.33,10.33,0,0,1,.25-5.16c.73-1.77,2.32-3,3.52-4.5.38-.47.72-1,1.12-1.4a6.79,6.79,0,0,1,2.15-1.56A3.87,3.87,0,0,1,70.41,43.81Z"/><line class="cls-19" x1="12.72" y1="57.71" x2="1" y2="55.77"/><line class="cls-19" x1="15.04" y1="52.7" x2="4.87" y2="46.55"/><line class="cls-19" x1="19.44" y1="49" x2="12.59" y2="39.29"/></g></g></svg>