<svg xmlns="http://www.w3.org/2000/svg" xmlns:xlink="http://www.w3.org/1999/xlink" viewBox="0 0 95.6 105.41"><defs><style>.cls-1{fill:#dde2f0;}.cls-2{fill:url(#linear-gradient);}.cls-3{fill:url(#linear-gradient-2);}.cls-4{fill:url(#linear-gradient-3);}.cls-5{fill:url(#linear-gradient-4);}.cls-6{fill:#efb1ac;}.cls-7{fill:url(#linear-gradient-5);}.cls-8{fill:#fee6ce;}.cls-9{fill:#562835;}.cls-10{fill:url(#linear-gradient-6);}.cls-11{fill:url(#linear-gradient-7);}.cls-12{fill:url(#linear-gradient-8);}.cls-13{fill:url(#linear-gradient-9);}.cls-14{fill:url(#linear-gradient-10);}.cls-15{fill:url(#linear-gradient-11);}.cls-16{fill:url(#linear-gradient-12);}.cls-17{fill:url(#linear-gradient-13);}.cls-18{fill:#0a45b8;}.cls-19{fill:none;stroke:#0a45b8;stroke-linecap:round;stroke-linejoin:round;stroke-width:2px;}</style><linearGradient id="linear-gradient" x1="6.43" y1="92.65" x2="17.56" y2="92.65" gradientUnits="userSpaceOnUse"><stop offset="0.04" stop-color="#6f3e42"/><stop offset="0.36" stop-color="#764747"/><stop offset="0.87" stop-color="#885e54"/><stop offset="1" stop-color="#8d6558"/></linearGradient><linearGradient id="linear-gradient-2" x1="59.64" y1="82.11" x2="82.21" y2="82.11" gradientUnits="userSpaceOnUse"><stop offset="0.04" stop-color="#6f3e42"/><stop offset="0.12" stop-color="#794a49"/><stop offset="0.33" stop-color="#906559"/><stop offset="0.55" stop-color="#a07964"/><stop offset="0.78" stop-color="#aa856b"/><stop offset="1" stop-color="#ad896d"/></linearGradient><linearGradient id="linear-gradient-3" x1="19.49" y1="91.41" x2="52.37" y2="91.41" gradientUnits="userSpaceOnUse"><stop offset="0.04" stop-color="#6f3e42"/><stop offset="0.24" stop-color="#764747"/><stop offset="0.56" stop-color="#895e54"/><stop offset="0.95" stop-color="#a9846a"/><stop offset="1" stop-color="#ad896d"/></linearGradient><linearGradient id="linear-gradient-4" x1="65.57" y1="13.12" x2="70.48" y2="4.62" gradientUnits="userSpaceOnUse"><stop offset="0" stop-color="#8d6558"/><stop offset="0.29" stop-color="#885e54"/><stop offset="0.71" stop-color="#784a49"/><stop offset="0.91" stop-color="#6f3e42"/></linearGradient><linearGradient id="linear-gradient-5" x1="12.69" y1="57.64" x2="79.02" y2="57.64" gradientUnits="userSpaceOnUse"><stop offset="0.04" stop-color="#8d6558"/><stop offset="0.15" stop-color="#997360"/><stop offset="0.31" stop-color="#a58068"/><stop offset="0.52" stop-color="#ab876c"/><stop offset="1" stop-color="#ad896d"/></linearGradient><linearGradient id="linear-gradient-6" x1="57.25" y1="18.69" x2="46" y2="7.44" gradientUnits="userSpaceOnUse"><stop offset="0" stop-color="#ad896d"/><stop offset="0.18" stop-color="#a78269"/><stop offset="0.45" stop-color="#976e5e"/><stop offset="0.78" stop-color="#7c4e4b"/><stop offset="0.91" stop-color="#6f3e42"/></linearGradient><linearGradient id="linear-gradient-7" x1="12.73" y1="88.99" x2="38.63" y2="88.99" gradientUnits="userSpaceOnUse"><stop offset="0.04" stop-color="#8d6558" stop-opacity="0"/><stop offset="0.14" stop-color="#90685a" stop-opacity="0.06"/><stop offset="0.32" stop-color="#976f5f" stop-opacity="0.2"/><stop offset="0.55" stop-color="#a37b67" stop-opacity="0.44"/><stop offset="0.83" stop-color="#b48c71" stop-opacity="0.77"/><stop offset="1" stop-color="#bf9779"/></linearGradient><linearGradient id="linear-gradient-8" x1="22.98" y1="96.87" x2="22.65" y2="95.01" gradientUnits="userSpaceOnUse"><stop offset="0" stop-color="#6f3e42" stop-opacity="0.7"/><stop offset="0.04" stop-color="#714043" stop-opacity="0.66"/><stop offset="0.38" stop-color="#80544f" stop-opacity="0.3"/><stop offset="0.66" stop-color="#8a6055" stop-opacity="0.08"/><stop offset="0.83" stop-color="#8d6558" stop-opacity="0"/></linearGradient><linearGradient id="linear-gradient-9" x1="71.3" y1="49.85" x2="44.96" y2="95.48" gradientUnits="userSpaceOnUse"><stop offset="0.39" stop-color="#bf9779" stop-opacity="0"/><stop offset="0.43" stop-color="#bf9779" stop-opacity="0.07"/><stop offset="0.71" stop-color="#bf9779" stop-opacity="0.57"/><stop offset="0.91" stop-color="#bf9779" stop-opacity="0.88"/><stop offset="1" stop-color="#bf9779"/></linearGradient><linearGradient id="linear-gradient-10" x1="60.73" y1="76.93" x2="60.79" y2="76.93" gradientUnits="userSpaceOnUse"><stop offset="0" stop-color="#8d6558"/><stop offset="0.02" stop-color="#8d6558" stop-opacity="0.95"/><stop offset="0.14" stop-color="#8d6558" stop-opacity="0.66"/><stop offset="0.27" stop-color="#8d6558" stop-opacity="0.42"/><stop offset="0.4" stop-color="#8d6558" stop-opacity="0.24"/><stop offset="0.54" stop-color="#8d6558" stop-opacity="0.1"/><stop offset="0.68" stop-color="#8d6558" stop-opacity="0.03"/><stop offset="0.83" stop-color="#8d6558" stop-opacity="0"/></linearGradient><linearGradient id="linear-gradient-11" x1="60.79" y1="68.45" x2="71.59" y2="68.45" xlink:href="#linear-gradient-10"/><linearGradient id="linear-gradient-12" x1="36.3" y1="89.08" x2="36.3" y2="89.08" gradientUnits="userSpaceOnUse"><stop offset="0.07" stop-color="#8d6558"/><stop offset="0.14" stop-color="#8d6558" stop-opacity="0.76"/><stop offset="0.22" stop-color="#8d6558" stop-opacity="0.53"/><stop offset="0.31" stop-color="#8d6558" stop-opacity="0.34"/><stop offset="0.41" stop-color="#8d6558" stop-opacity="0.19"/><stop offset="0.51" stop-color="#8d6558" stop-opacity="0.08"/><stop offset="0.64" stop-color="#8d6558" stop-opacity="0.02"/><stop offset="0.83" stop-color="#8d6558" stop-opacity="0"/></linearGradient><linearGradient id="linear-gradient-13" x1="42.18" y1="88.76" x2="48.27" y2="72.02" xlink:href="#linear-gradient-12"/></defs><title>Ресурс 38600</title><g id="Слой_2" data-name="Слой 2"><g id="Illustration"><path class="cls-1" d="M45.13,15.69A44.16,44.16,0,0,1,66,19.06,45.63,45.63,0,0,1,87.23,37.21c10.21,17,11.28,44-2.12,52.54s-29.36,0-31.49-1.06-16.59-6.38-23-.64-6.17,9.36-11.27,9.36S-.62,86.56,0,58.7c.32-14,7.49-26.15,19.1-33.8A55.3,55.3,0,0,1,45.13,15.69Z"/><path class="cls-2" d="M11.89,87.7c-.62.86-1.4,1.6-2.09,2.4a15.47,15.47,0,0,0-3.05,5.53,4.41,4.41,0,0,0-.13,2.82,3.14,3.14,0,0,0,1.24,1.48c1.48,1,3.39.87,5.16.74l4.54-.35a19.93,19.93,0,0,1-2.45-7.7c-.22-2.15-.09-4.34-.51-6.48-.12-.61-.32-2.2-1.19-1.33a6.17,6.17,0,0,0-.67,1.47A10.25,10.25,0,0,1,11.89,87.7Z"/><path class="cls-3" d="M68.69,64.62a86.3,86.3,0,0,0,0,13.16,34.88,34.88,0,0,0,.39,4.2c.2,1.13.51,2.24.76,3.36.52,2.39.75,4.85,1.5,7.19a9.54,9.54,0,0,0,4.32,5.72c1,.51,2.26-.3,3.37-.07a3.75,3.75,0,0,1,1.73,1.09,4,4,0,0,1,1.39,2.26,1.23,1.23,0,0,1-.17.88,1.72,1.72,0,0,1-1.44.46l-3.44,0c-1.29,0-2.57,0-3.86-.09a3.67,3.67,0,0,1-.93-.14,4.1,4.1,0,0,1-2-2.17,44.21,44.21,0,0,0-3.08-4.82,3.64,3.64,0,0,0-.79-.87,8.19,8.19,0,0,1-.83-.58A2.83,2.83,0,0,1,65.08,93c-.7-2.35-1-4.78-1.73-7.1s-1.87-4.6-2.6-7a24.59,24.59,0,0,1-1-8.94,12.21,12.21,0,0,1,1.47-5.51,6.21,6.21,0,0,1,4.55-3.14,2.65,2.65,0,0,1,2,.53,3.61,3.61,0,0,1,.86,2.27"/><path class="cls-4" d="M41.83,92.16a15.65,15.65,0,0,0-2.48,4.17c1.56.11,3.12.17,4.68.17s3.31-.5,5-.55a3.39,3.39,0,0,1,2.33.64c.94.79,1,2.18,1,3.41a2.86,2.86,0,0,1-.12,1,1.94,1.94,0,0,1-1.78,1.11c-.84,0-1.57-.33-2.4-.26-1.06.09-2.13.12-3.19.15a20.92,20.92,0,0,1-5.19-.26c-.61-.14-1.2-.32-1.82-.41-1.75-.23-3.53.4-5.29.27s-3.49-1.06-5.21-1.67c-2.66-1-5.64-1.23-7.88-2.93a10.67,10.67,0,0,1,2.9-4.21c4.13-4.09,9.26-7,14.33-9.88a17.58,17.58,0,0,1,2.65-1.3,21.31,21.31,0,0,1,4-.83c.84-.13,1.79-.24,2.22.65.91,1.89-.64,5.27-1.48,7A28.05,28.05,0,0,1,41.83,92.16Z"/><path class="cls-5" d="M63.43,10.55c.15-.32.34-.63.52-.94a23.05,23.05,0,0,0,1.24-3,8.18,8.18,0,0,1,1.62-2.84,1.83,1.83,0,0,1,.61-.45.87.87,0,0,1,.74,0,1.42,1.42,0,0,1,.54.83,16.47,16.47,0,0,1,1.14,5.1c0,.55-.06,1.09-.11,1.63s-.13,1.22-.19,1.83a7.48,7.48,0,0,1-.26,1.56.23.23,0,0,1-.1.15c-.06,0-.12,0-.18,0a6.13,6.13,0,0,1-.9-.42c-.39-.23-.74-.53-1.11-.8A6.83,6.83,0,0,0,64.4,12c-.3-.07-.94,0-1.16-.25S63.29,10.84,63.43,10.55Z"/><path class="cls-6" d="M67.17,4.89c.2-.32.38-.64.6-.95a.28.28,0,0,1,.14-.12.28.28,0,0,1,.3.14,2,2,0,0,1,.23.72,6.26,6.26,0,0,0,.38,1.13,8.48,8.48,0,0,1,.27,1,11.13,11.13,0,0,1,.35,2.57,13.56,13.56,0,0,1-.06,1.43c-.08,1-.19,2-.33,2.95a9.37,9.37,0,0,1-1.18-.49,9.89,9.89,0,0,1-1.46-.72,3.12,3.12,0,0,1-.92-.58c-.14-.19-.08-.52-.08-.75,0-.58.08-1.14.1-1.71a7.3,7.3,0,0,1,.24-1.74A8.18,8.18,0,0,1,67,5.09Z"/><path class="cls-7" d="M78.85,17a1.85,1.85,0,0,0-1.11-.53c-.39-.07-.78-.17-1.16-.24a8,8,0,0,0-1.3,0,12.8,12.8,0,0,1-1.62-.2l-2.28-.36a.94.94,0,0,1-.43-.16.73.73,0,0,1-.23-.41,4.09,4.09,0,0,0-.42-1.35,5.41,5.41,0,0,0-1-.85A9.32,9.32,0,0,0,62.62,11a10.75,10.75,0,0,0-6.42,2.63A15.51,15.51,0,0,0,54.85,15,12.84,12.84,0,0,0,52,19.69a36.67,36.67,0,0,0-1.3,5.67c-.24,1.38-.48,2.77-.64,4.16A8.69,8.69,0,0,0,50,31c.07,1.37.67,2.72.37,4.06-.83,3.66-5.43,5.19-7.29,8.46a25.59,25.59,0,0,1-3.68,5.11c-4.36,4.67-9.13,8.94-13.49,13.6a71.93,71.93,0,0,0-6.22,7.5A72.55,72.55,0,0,0,14.91,78a22,22,0,0,0-1.69,4.36,8.82,8.82,0,0,0-.39,4.44c.13.57.32,1.12.4,1.7a16,16,0,0,1-.12,3.24,21.82,21.82,0,0,0,.41,4.69,5.72,5.72,0,0,0-.7,3.51,1.89,1.89,0,0,0,.56.94,2.27,2.27,0,0,0,1.69.36c.51,0,1,0,1.53,0,2.17.09,4.33.32,6.48.59.51.06,1,.17,1.51.24a12.44,12.44,0,0,0,2.66.06,2.16,2.16,0,0,1,.44,0,2.6,2.6,0,0,1,.54.17c1,.34,2.09,0,3.13.18a2.75,2.75,0,0,0,1.42,0,1.4,1.4,0,0,0,.74-.87,3.79,3.79,0,0,0,.1-1.17,3.66,3.66,0,0,0-.75-2.42,4,4,0,0,0-2.35-1,21.56,21.56,0,0,0-6.69-.4c4.54-.87,8.46-3.74,11.78-7a10.52,10.52,0,0,0,2.1-2.56s0,0,0-.07l.09-.06a30,30,0,0,1,4.44-2.36c1.42-.65,3-1,4.5-1.47A54,54,0,0,0,53,80.66c.27,1.32.41,2.7.65,4a21,21,0,0,0,.74,3,10.59,10.59,0,0,1,.58,1.81c.13.78,0,1.58.07,2.36.16,1.57,1.11,2.93,1.72,4.38a17.66,17.66,0,0,1,1.08,4.48,6,6,0,0,0,.56,2.17,1.9,1.9,0,0,0,1.83,1,2.68,2.68,0,0,0,2.15.33,11.82,11.82,0,0,1,1.18-.26c.63,0,1.24.27,1.87.24.25,0,.5-.09.75-.09a7.15,7.15,0,0,1,.91.14,2.21,2.21,0,0,0,1.44-.32.94.94,0,0,0,.45-.55,1.13,1.13,0,0,0-.08-.65c-.26-.77-.54-1.52-.85-2.26a3.22,3.22,0,0,0-.62-1.06,2.68,2.68,0,0,0-1.7-.61,3.46,3.46,0,0,1-1.78-.36A2.81,2.81,0,0,1,63,97a19.57,19.57,0,0,1-1.45-5.48c-.13-2,.19-3.92-.15-5.88-.1-.6-.25-1.19-.35-1.79a20.59,20.59,0,0,1-.18-2.08,50.65,50.65,0,0,1-.1-5.91c.2-.14.41-.28.6-.43A24.5,24.5,0,0,0,65.28,72a20.58,20.58,0,0,0,2.22-3.18c.6-1,1-2.07,1.59-3.09a39.44,39.44,0,0,0,3.55-7.27,22.75,22.75,0,0,0,.79-2.94,10.41,10.41,0,0,0,.17-3.93,27.74,27.74,0,0,0-.85-2.92,23.51,23.51,0,0,1-.56-2.75c-.26-1.55-.51-3.1-.77-4.65a13.54,13.54,0,0,1,.21-4.35,26.42,26.42,0,0,0-.41-8.17c.59-.22,1.18-.64,1.77-.86a5.52,5.52,0,0,0,1.2-.57c1-.67,1.43-1.89,2.32-2.66a9.18,9.18,0,0,0,1.71-1.37,3.6,3.6,0,0,0,.54-1.76,21.28,21.28,0,0,0,.15-2.76C78.91,18.14,79.2,17.45,78.85,17Z"/><path class="cls-8" d="M78.85,17a1.85,1.85,0,0,0-1.11-.53c-.39-.07-.78-.17-1.16-.24a8,8,0,0,0-1.3,0,12.8,12.8,0,0,1-1.62-.2l-2.28-.36a1.39,1.39,0,0,1-.33-.1h0a4.43,4.43,0,0,0-2,1.95A4.18,4.18,0,0,0,68.5,19a3.31,3.31,0,0,1-.4,1.76,3.05,3.05,0,0,1-.87.68c-1,.55-2,1-3,1.55a4.28,4.28,0,0,0-2.13,2.68,4.11,4.11,0,0,0,.44,2.93A3.52,3.52,0,0,0,65.43,30a10.7,10.7,0,0,0,3.2-.59c.86-.25,1.72-.49,2.59-.67.59-.22,1.18-.64,1.77-.86a5.52,5.52,0,0,0,1.2-.57c1-.67,1.43-1.89,2.32-2.66a9.18,9.18,0,0,0,1.71-1.37,3.6,3.6,0,0,0,.54-1.76,21.28,21.28,0,0,0,.15-2.76C78.91,18.14,79.2,17.45,78.85,17Z"/><path class="cls-9" d="M77.59,20.65a4.31,4.31,0,0,0,.33-1.81.09.09,0,0,0-.1,0,6,6,0,0,1-1.33,2.89,11.7,11.7,0,0,1-2.4,2.15,11.68,11.68,0,0,1-1.43.88A15.19,15.19,0,0,1,68.73,26a7.78,7.78,0,0,0-2.38.75s-.11.08-.12.14.09.19.19.22a2.74,2.74,0,0,0,1.89-.24l3.53-1.36a15.74,15.74,0,0,0,1.84-.8A12.07,12.07,0,0,0,76,23a3.41,3.41,0,0,1,.58-.5c.06,0,.15-.09.22-.07s.08.06.11.1.22.26.34.38a4,4,0,0,0,.36.35,2.21,2.21,0,0,0,.39.28s0-.05.07-.07a14.71,14.71,0,0,1-.87-1.3.49.49,0,0,1-.1-.26.44.44,0,0,1,.06-.25C77.26,21.31,77.45,21,77.59,20.65Z"/><path class="cls-9" d="M65.46,16.19c-.21-.14-.39-.29-.63-.42a3.35,3.35,0,0,0-.63-.31,1.55,1.55,0,0,0-1.06.1,2.49,2.49,0,0,0-.84.67,2.34,2.34,0,0,1-.51.53,5.67,5.67,0,0,0,.65.33,2.73,2.73,0,0,0,1.72,0A2.33,2.33,0,0,0,65.46,16.19Z"/><path class="cls-8" d="M65.76,16.67a.83.83,0,0,0-.26-.44s-.08-.09-.11-.1a.55.55,0,0,0-.4,0,1,1,0,0,0-.34.24.78.78,0,0,1-.26.22.66.66,0,0,1-.15,0,.93.93,0,0,0-.53.31s0,0-.06.06h-.08a.69.69,0,0,0-.36.13s-.08.06-.09.1.08,0,.09,0h.31l.39-.06a2.77,2.77,0,0,0,.73-.26l.12-.06a.14.14,0,0,1,.15,0c.15,0,.26.17.41.21a.47.47,0,0,0,.33,0s.08-.05.1-.09A.29.29,0,0,0,65.76,16.67Z"/><path class="cls-8" d="M65.38,18.94c-.26.37-.65.63-.87,1a.47.47,0,0,0,0,.52.32.32,0,0,0,.34.06.65.65,0,0,0,.29-.23c.17-.24.25-.54.41-.79a3.3,3.3,0,0,0,.26-.39,1.92,1.92,0,0,0,.1-1l-.06-.51a.32.32,0,0,0,0-.14c-.1-.16-.19,0-.18.11a2.52,2.52,0,0,1,0,.48A1.75,1.75,0,0,1,65.38,18.94Z"/><path class="cls-10" d="M59.45,13.05a2.17,2.17,0,0,0-1.32-.83,6.64,6.64,0,0,1-.91-.15,2.39,2.39,0,0,1-1-.72c-1.9-2.07-3.25-4.71-5.6-6.27a2.65,2.65,0,0,0-1.19-.49,1.13,1.13,0,0,0-1.1.55,1.4,1.4,0,0,0-.11.64,14.82,14.82,0,0,0,.25,2.57c.31,2,.54,4,.71,6a7.35,7.35,0,0,0,.71,3.12c.25.42.59.79.86,1.21.69,1.08.91,2.5,1.89,3.32a5.08,5.08,0,0,0,1.41-.63,6.71,6.71,0,0,0,1.43-.92c1-1,1.29-2.47,1.77-3.8A11.27,11.27,0,0,1,59.45,13.05Z"/><path class="cls-6" d="M54.48,19.43c-.3.3-1.08,1-1.56.77-.24-.12-.3-.5-.41-.72a8.61,8.61,0,0,0-.49-.83,13.77,13.77,0,0,1-2.44-6.07c-.07-.83,0-1.67-.11-2.49-.16-1.37-.74-2.71-.6-4.08.05-.53.7-.44,1.08-.3a3.13,3.13,0,0,1,.83.52,12.73,12.73,0,0,1,4.4,5.6,10.11,10.11,0,0,0,.76,2.1,6.79,6.79,0,0,1,.42.67,2.33,2.33,0,0,1,0,1.76,7,7,0,0,1-.84,1.6A8.23,8.23,0,0,1,54.48,19.43Z"/><path class="cls-11" d="M26.2,75.77A12.19,12.19,0,0,1,36.37,77.4,5.82,5.82,0,0,1,37.89,79a6.88,6.88,0,0,1,.73,3.75,10,10,0,0,1-.91,4.49,10.52,10.52,0,0,1-2.1,2.56c-3.32,3.23-7.24,6.1-11.78,7a21.56,21.56,0,0,1,6.69.4,4,4,0,0,1,2.35,1,3.66,3.66,0,0,1,.75,2.42,3.79,3.79,0,0,1-.1,1.17,1.4,1.4,0,0,1-.74.87,2.75,2.75,0,0,1-1.42,0c-1-.14-2.14.16-3.13-.18a2.6,2.6,0,0,0-.54-.17,2.16,2.16,0,0,0-.44,0,12.44,12.44,0,0,1-2.66-.06c-.5-.07-1-.18-1.51-.24-2.15-.27-4.31-.5-6.48-.59-.51,0-1,0-1.53,0a2.27,2.27,0,0,1-1.69-.36,1.89,1.89,0,0,1-.56-.94c-.35-1.2.42-3,.95-4,.69-1.41,1.61-2.69,2.36-4.07a3.44,3.44,0,0,0,.38-.91,4.61,4.61,0,0,0-.08-1.88,13.19,13.19,0,0,1-.23-2.73,15.92,15.92,0,0,1,.52-3.06,4.24,4.24,0,0,1,1.15-2.51,25.33,25.33,0,0,1,2.5-2.13A17.52,17.52,0,0,1,26.2,75.77Z"/><path class="cls-12" d="M25.44,94.83c-1.54.19-3.11.23-4.65.51A12.07,12.07,0,0,0,16.41,97a7.38,7.38,0,0,0-1.24,1l.18,0a8.18,8.18,0,0,1,3.53-.87l5.24-.5a18.93,18.93,0,0,0,6.35-2.73L28,94.41C27.14,94.56,26.3,94.72,25.44,94.83Z"/><path class="cls-13" d="M66.57,65a15.92,15.92,0,0,0,4.77-6.32,9.67,9.67,0,0,0,.22-7.34c-.93-2.26-3.21-3.34-5.35-4.19a44.68,44.68,0,0,0-9.35-2.86,18.81,18.81,0,0,0-9.65.71,6.86,6.86,0,0,0-1.94,1,7.31,7.31,0,0,0-2.22,5,7.72,7.72,0,0,0,1.2,5.73A15.22,15.22,0,0,0,46.89,59a5.79,5.79,0,0,1,1.24,1.23,4.59,4.59,0,0,1,.49,1.56c.72,3.26,0,6.74.87,10A23.38,23.38,0,0,0,50.34,74c.72,1.67,1.62,3.35,2.19,5.07a41.2,41.2,0,0,1,1.07,5.57,21,21,0,0,0,.74,3,10.59,10.59,0,0,1,.58,1.81c.13.78,0,1.58.07,2.36.16,1.57,1.11,2.93,1.72,4.38a17.66,17.66,0,0,1,1.08,4.48,6,6,0,0,0,.56,2.17,1.9,1.9,0,0,0,1.83,1,2.68,2.68,0,0,0,2.15.33,11.82,11.82,0,0,1,1.18-.26c.63,0,1.24.27,1.87.24.25,0,.5-.09.75-.09a7.15,7.15,0,0,1,.91.14,2.21,2.21,0,0,0,1.44-.32.94.94,0,0,0,.45-.55,1.13,1.13,0,0,0-.08-.65c-.26-.77-.54-1.52-.85-2.26a3.22,3.22,0,0,0-.62-1.06,2.68,2.68,0,0,0-1.7-.61,3.46,3.46,0,0,1-1.78-.36A2.81,2.81,0,0,1,63,97a19.57,19.57,0,0,1-1.45-5.48c-.13-2,.19-3.92-.15-5.88-.1-.6-.25-1.19-.35-1.79a20.59,20.59,0,0,1-.18-2.08A39,39,0,0,1,61,74.17a12,12,0,0,1,4.27-8.1C65.66,65.71,66.12,65.39,66.57,65Z"/><path class="cls-14" d="M60.73,78h0c0-.68,0-1.37,0-2C60.75,76.58,60.73,77.27,60.73,78Z"/><path class="cls-15" d="M66.85,64.78c-.1.08-.18.18-.28.26-.45.35-.91.67-1.35,1A12,12,0,0,0,61,74.17c-.08.58-.13,1.15-.16,1.73.2-.14.41-.28.6-.43A24.5,24.5,0,0,0,65.28,72a20.58,20.58,0,0,0,2.22-3.18c.6-1,1-2.07,1.59-3.09A52.68,52.68,0,0,0,71.59,61c-1,.88-2,1.73-3,2.53C68,64,67.42,64.37,66.85,64.78Z"/><polygon class="cls-16" points="36.3 89.08 36.3 89.08 36.3 89.08 36.3 89.08"/><path class="cls-17" d="M50.34,74c-.2-.47-.39-.95-.56-1.42-.81.52-1.6,1.06-2.4,1.59A31.47,31.47,0,0,1,39.57,78q-1,.3-2,.51a3.19,3.19,0,0,1,.3.42,6.88,6.88,0,0,1,.73,3.75,9.92,9.92,0,0,1-.89,4.42l.09-.06a30,30,0,0,1,4.44-2.36c1.42-.65,3-1,4.5-1.47A54,54,0,0,0,53,80.66c.06.3.1.6.15.89h0a15.08,15.08,0,0,0-.58-2.49C52,77.34,51.06,75.66,50.34,74Z"/><path class="cls-18" d="M78.26,20.85a1,1,0,0,0,.07.45.34.34,0,0,0,.37.2c.2-.06.24-.32.24-.53a2.81,2.81,0,0,0,0-.58,10,10,0,0,1-.14-2.25,1.15,1.15,0,0,0,0-.37c0-.08,0-.21-.14-.22s-.16.11-.19.19a5.49,5.49,0,0,0-.15,1.46C78.26,19.75,78.26,20.3,78.26,20.85Z"/><path class="cls-18" d="M76.5,18.54a2.15,2.15,0,0,1-.33.76,3.39,3.39,0,0,0-.27.39,2.58,2.58,0,0,1-.2.41,3.42,3.42,0,0,0-.48.77.51.51,0,0,0,0,.45.44.44,0,0,0,.5.17.88.88,0,0,0,.43-.36c.1-.16.18-.33.28-.49l.08-.09.11-.08a.82.82,0,0,0,.3-.45,3.86,3.86,0,0,0,0-1.79.65.65,0,0,0,0-.2.2.2,0,0,0-.17-.11.23.23,0,0,0-.16.13.53.53,0,0,0,0,.22A2.56,2.56,0,0,1,76.5,18.54Z"/><path class="cls-9" d="M75.87,16.43a1.74,1.74,0,0,0-.45.27,3.65,3.65,0,0,0-1,1.11.64.64,0,0,0-.08.19.49.49,0,0,0,.05.29,1.11,1.11,0,0,0,.47.51,2.29,2.29,0,0,0,.67.22A.51.51,0,0,0,76,19c.13-.12.1-.33.15-.49a.53.53,0,0,1,.55-.37.61.61,0,0,1,.52.43c.05.15.05.33.18.43a.52.52,0,0,0,.28.06l.52,0c.18,0,.2-.25.21-.4a1.92,1.92,0,0,1,.24-.78l0,0s0,0,0,.06c0,.28,0,.57,0,.86,0,0,.14,0,.16,0a.85.85,0,0,0,.1-.28,1.94,1.94,0,0,0,0-1.26,1.55,1.55,0,0,0-1-.84,2.75,2.75,0,0,0-1.07,0A5.06,5.06,0,0,0,75.87,16.43Z"/><path class="cls-18" d="M37.52,102l.21,0a4.64,4.64,0,0,1,2.77.65,2.2,2.2,0,0,0,.44.28,2.13,2.13,0,0,0,.63.12l2.84.28a3.94,3.94,0,0,1,.92.16c.28.1.52.29.52.5s-.24.42-.53.52a4.19,4.19,0,0,1-1,.16l-1.23.1a.88.88,0,0,0-.29.06c-.12.06-.16.16-.23.25a1.63,1.63,0,0,1-1,.3,22.72,22.72,0,0,1-4,0,4.1,4.1,0,0,1-1-.21c-.3-.13-.53-.36-.49-.6s.65-.61.54-.94-.32-.3-.59-.37-.55-.07-.82-.13c-.45-.11-.21-.4-.46-.59a.91.91,0,0,0-.46-.18c-.11,0-.25,0-.25-.13s.11-.09.19-.11A21.5,21.5,0,0,1,37.52,102Z"/><line class="cls-19" x1="90.61" y1="10.52" x2="82.5" y2="15.16"/><line class="cls-19" x1="94.6" y1="22.35" x2="85.27" y2="23.01"/><line class="cls-19" x1="82.12" y1="1" x2="77.04" y2="8.85"/></g></g></svg>