<svg xmlns="http://www.w3.org/2000/svg" xmlns:xlink="http://www.w3.org/1999/xlink" viewBox="0 0 96.55 81.86"><defs><style>.cls-1{fill:#dde2f0;}.cls-2{fill:url(#linear-gradient);}.cls-3{fill:#d9c3ba;}.cls-4{fill:#562835;}.cls-5{fill:#efb1ac;}.cls-6{fill:url(#linear-gradient-2);}.cls-7{fill:#6c8fd4;}.cls-8{fill:#ad896d;}.cls-9{fill:#fee6ce;}.cls-10{fill:#6f3e42;}.cls-11{fill:url(#linear-gradient-3);}.cls-12{fill:url(#linear-gradient-4);}.cls-13{fill:none;stroke:#0a45b8;stroke-linecap:round;stroke-linejoin:round;stroke-width:2px;}</style><linearGradient id="linear-gradient" x1="61.87" y1="45.97" x2="93.04" y2="45.97" gradientUnits="userSpaceOnUse"><stop offset="0.04" stop-color="#8d6558"/><stop offset="0.47" stop-color="#8f6759"/><stop offset="0.7" stop-color="#966f5e"/><stop offset="0.89" stop-color="#a27d66"/><stop offset="1" stop-color="#ad896d"/></linearGradient><linearGradient id="linear-gradient-2" x1="19.72" y1="61.74" x2="44.31" y2="47.55" gradientUnits="userSpaceOnUse"><stop offset="0" stop-color="#6f3e42" stop-opacity="0"/><stop offset="0.24" stop-color="#6f3e42" stop-opacity="0.03"/><stop offset="0.46" stop-color="#6f3e42" stop-opacity="0.13"/><stop offset="0.68" stop-color="#6f3e42" stop-opacity="0.3"/><stop offset="0.88" stop-color="#6f3e42" stop-opacity="0.53"/><stop offset="1" stop-color="#6f3e42" stop-opacity="0.7"/></linearGradient><linearGradient id="linear-gradient-3" x1="65.4" y1="32.57" x2="76.97" y2="44.14" gradientUnits="userSpaceOnUse"><stop offset="0" stop-color="#8d6558"/><stop offset="0.21" stop-color="#8d6558" stop-opacity="0.69"/><stop offset="0.5" stop-color="#8d6558" stop-opacity="0.32"/><stop offset="0.71" stop-color="#8d6558" stop-opacity="0.09"/><stop offset="0.83" stop-color="#8d6558" stop-opacity="0"/></linearGradient><linearGradient id="linear-gradient-4" x1="53.38" y1="20.34" x2="93.05" y2="20.34" gradientUnits="userSpaceOnUse"><stop offset="0" stop-color="#ad896d"/><stop offset="0.19" stop-color="#a58068"/><stop offset="0.51" stop-color="#906659"/><stop offset="0.91" stop-color="#6f3e42"/></linearGradient></defs><title>Ресурс 42600</title><g id="Слой_2" data-name="Слой 2"><g id="Illustration"><path class="cls-1" d="M46.65.14A44,44,0,0,1,67.5,3.51,45.57,45.57,0,0,1,88.76,21.66c10.21,17,11.27,44-2.13,52.54s-29.35,0-31.48-1.06-16.59-6.38-23-.64S26,81.86,20.9,81.86.91,71,1.54,43.15C1.86,29.16,9,17,20.64,9.35A55.34,55.34,0,0,1,46.65.14Z"/><path class="cls-2" d="M82.45,19.15l5.48-.49a1.83,1.83,0,0,1,1,.08,1.77,1.77,0,0,1,.72.85A29.42,29.42,0,0,1,93,35.53a43.22,43.22,0,0,1-2.29,10.33c-1.8,5.39-4.24,10.67-8,15-3.56,4-8.15,7-12.71,9.88-2.46,1.54-5.27,3.11-8.1,2.48,3.62-5.36,4.22-12.8,5.36-19.16L72.9,22.35a5.12,5.12,0,0,1,.52-1.72c.74-1.26,2.36-1.65,3.81-1.84S81,19.28,82.45,19.15Z"/><path class="cls-3" d="M13.09,49.76c.09.23.15.47.26.69a1.08,1.08,0,0,0,.5.53A.26.26,0,0,0,14,51c.12,0,.12-.21.1-.34l-.3-2.29a.61.61,0,0,0-.12-.37.55.55,0,0,0-.23-.14,1.47,1.47,0,0,0-.88,0,.42.42,0,0,0-.24.12c-.17.19.15.69.24.87S13,49.44,13.09,49.76Z"/><path class="cls-3" d="M11.62,48.36a1.44,1.44,0,0,0,.05.41c0,.15.09.31.14.46a1.4,1.4,0,0,0,.51.78l.06,0s.06-.05.08-.1a3.55,3.55,0,0,0,.06-1.13.75.75,0,0,0-.19-.57.62.62,0,0,0-.27-.13C11.79,48,11.64,48,11.62,48.36Z"/><path class="cls-4" d="M46.87,53.33c-.72,3.73-3.86,6.93-6.71,9.23-1.19,1-2.7,1.63-3.75,2.75A16.88,16.88,0,0,0,35.16,67a19.15,19.15,0,0,1-7.33,5.71,8.42,8.42,0,0,1-3.57,1,6.77,6.77,0,0,1-2.18-.39c-1.45-.47-2.93-1.4-3.27-2.88a5.56,5.56,0,0,1,.54-3.11l1.2-3.12a16.59,16.59,0,0,1,.88-2c.33-.63.74-1.21,1.11-1.81C24,57.93,24.76,55.1,26.65,53a7.86,7.86,0,0,1-3.5-2.47,23.07,23.07,0,0,1-2.38-3.62,3.57,3.57,0,0,1-.54-1.31c3.49-.3,6.87-1.31,10.37-1.38a26.74,26.74,0,0,1,8.73,1.45c1.45.46,2.86,1,4.26,1.58.92.38,3.2.86,3.32,2A14,14,0,0,1,46.87,53.33Z"/><path class="cls-4" d="M21.63,69.57a17.34,17.34,0,0,0,4.84-1.1l3-1A12.64,12.64,0,0,0,33,65.9c1.45-1,2.43-2.62,3.94-3.54a20.14,20.14,0,0,1,2.21-1,11.34,11.34,0,0,0,5.26-5.25,13.25,13.25,0,0,0,1.2-7.37,1.88,1.88,0,0,1,0-.75c-.72-.32-1.54-.55-2-.74-1.4-.58-2.81-1.12-4.26-1.58a26.78,26.78,0,0,0-8.73-1.45c-3.5.07-6.88,1.08-10.37,1.38a3.57,3.57,0,0,0,.54,1.31,23.07,23.07,0,0,0,2.38,3.62A7.86,7.86,0,0,0,26.65,53c-1.89,2.13-2.63,5-4.11,7.4-.37.6-.78,1.18-1.11,1.81a16.59,16.59,0,0,0-.88,2l-1.2,3.12c-.14.36-.27.74-.38,1.13A2.79,2.79,0,0,0,21.63,69.57Z"/><path class="cls-4" d="M47.62,50.44c-.11-.61-.7-3.75-1.85-2.73a.56.56,0,0,0-.16.25c.67.31,1.24.71,1.3,1.28a14,14,0,0,1,0,4.09c-.72,3.73-3.86,6.93-6.71,9.23-1.19,1-2.7,1.63-3.75,2.75A16.88,16.88,0,0,0,35.16,67a14.26,14.26,0,0,1-1.83,2c2-1.41,3.84-3,5.79-4.42a36.32,36.32,0,0,0,4.81-3.84,13.41,13.41,0,0,0,2.59-4A12.28,12.28,0,0,0,47.62,50.44Z"/><path class="cls-4" d="M35.16,67a16.88,16.88,0,0,1,1.25-1.67c1.05-1.12,2.56-1.78,3.75-2.75,2.85-2.3,6-5.5,6.71-9.23a14,14,0,0,0,0-4.09c-.06-.57-.63-1-1.3-1.28a1.88,1.88,0,0,0,0,.75,13.25,13.25,0,0,1-1.2,7.37,11.34,11.34,0,0,1-5.26,5.25,20.14,20.14,0,0,0-2.21,1c-1.51.92-2.49,2.51-3.94,3.54a12.64,12.64,0,0,1-3.47,1.56l-3,1a17.34,17.34,0,0,1-4.84,1.1A2.79,2.79,0,0,1,19,68.46a3.83,3.83,0,0,0-.16,2,3.43,3.43,0,0,0,1.51,2,6.7,6.7,0,0,0,3.68.59,17.91,17.91,0,0,0,8.1-3.16c.42-.28.83-.57,1.23-.86A14.26,14.26,0,0,0,35.16,67Z"/><path class="cls-5" d="M42.87,46.07a29.64,29.64,0,0,0-6.68,4.77,14.67,14.67,0,0,0-3.66,6.81c-.42,1.84-.51,3.83-1.59,5.38a8.2,8.2,0,0,1-1.75,1.73,8.33,8.33,0,0,1-4.48,2.06,2.75,2.75,0,0,1-2.94-1.66,5.25,5.25,0,0,1,.38-2.54c.45-1.8,0-3.71.14-5.56a10.29,10.29,0,0,1,4.73-8c2.35-1.47,5.27-1.95,7.45-3.67a8.57,8.57,0,0,0,1.07-1.32,1.1,1.1,0,0,1,.4-.34,1.21,1.21,0,0,1,.73,0l4.1.88c.58.12,1.16.25,1.73.42a.91.91,0,0,1,.53.32A.67.67,0,0,1,42.87,46.07Z"/><path class="cls-6" d="M42.87,46.07a29.64,29.64,0,0,0-6.68,4.77,14.67,14.67,0,0,0-3.66,6.81c-.42,1.84-.51,3.83-1.59,5.38a8.2,8.2,0,0,1-1.75,1.73,8.33,8.33,0,0,1-4.48,2.06,2.75,2.75,0,0,1-2.94-1.66,5.25,5.25,0,0,1,.38-2.54c.45-1.8,0-3.71.14-5.56a10.29,10.29,0,0,1,4.73-8c2.35-1.47,5.27-1.95,7.45-3.67a8.57,8.57,0,0,0,1.07-1.32,1.1,1.1,0,0,1,.4-.34,1.21,1.21,0,0,1,.73,0l4.1.88c.58.12,1.16.25,1.73.42a.91.91,0,0,1,.53.32A.67.67,0,0,1,42.87,46.07Z"/><path class="cls-7" d="M40.73,45.59c-1.45-.1-2.91,0-4.37,0-.65,0-1.29,0-1.94-.07-2.74-.13-5.46-.43-8.2-.32a12.42,12.42,0,0,0-6.23,2,10.46,10.46,0,0,1-1.44.85,6.61,6.61,0,0,1-1.38.4c-1.68.38-3.5.75-5.09.08a.91.91,0,0,1-.42-.3,1,1,0,0,1-.1-.31,14.77,14.77,0,0,1-.26-1.75,28.47,28.47,0,0,0,8.1-1.36c1.39-.51,2.71-1.19,4.11-1.67A14.55,14.55,0,0,1,32,42.77c1.53.42,3,1.11,4.53,1.46a17.3,17.3,0,0,1,3.87.9C40.6,45.23,40.75,45.36,40.73,45.59Z"/><path class="cls-8" d="M78.47,19.65C77,23.21,76.91,27.2,77.26,31s1.09,7.65,1.14,11.51a50.21,50.21,0,0,1-2.79,15.78A27.6,27.6,0,0,1,73.78,63a21.75,21.75,0,0,1-2.87,4.06C66.48,72.18,60.4,79.15,53.77,77.79a17.92,17.92,0,0,1-8.22-4.1c-.78-.69-1.5-1.45-2.32-2.1a6,6,0,0,0-2.77-1.35c-.64-.11-1.3-.06-2-.12a2.25,2.25,0,0,1-1.64-.6,13.48,13.48,0,0,0-3.37,2c-.55.44-1.06.92-1.61,1.34a10,10,0,0,1-10.67.72,6.38,6.38,0,0,1-1-.66A4.36,4.36,0,0,1,18.81,70,3.49,3.49,0,0,0,21.38,72a8.24,8.24,0,0,0,2.71.19,16,16,0,0,0,7.37-2.41c.53-.33,1-.78,1.55-1.1a5.43,5.43,0,0,0,1.31-.87c.78-.83,1.15-2,2-2.73A7.91,7.91,0,0,1,38.14,64a17.91,17.91,0,0,0,3.06-2,15.54,15.54,0,0,0,5.61-9.16,12.83,12.83,0,0,0,.11-3.39,1.75,1.75,0,0,0-.39-1.1,1.84,1.84,0,0,0-.71-.4c-2-.75-3.76-1.94-5.86-2.31l-5.43-.94a23,23,0,0,1-2.33-.49,25.23,25.23,0,0,0-3.12-.92,11.65,11.65,0,0,0-2.21-.07,12.43,12.43,0,0,0-3.34.41,35.54,35.54,0,0,0-4.1,2.14,9.88,9.88,0,0,1-7.41.49c-.85.54-1.91,1.1-2.83.67A2.51,2.51,0,0,1,8.25,46a7,7,0,0,1-.78-5.31A11.55,11.55,0,0,1,10,35.85,35,35,0,0,1,14,32a23.91,23.91,0,0,1,3.34-2c-.06-1.53-.17-3-.38-4.54a5.72,5.72,0,0,1-.08-1.75,4.39,4.39,0,0,1,2.33-2.86c1.6-3.16,3.54-6.35,6.51-8.29,2.56-1.67,5.65-2.3,8.66-2.9,1.24-.25,2.48-.49,3.74-.62.77-.08,1.54-.12,2.3-.24s1.5-.33,2.25-.5a24.24,24.24,0,0,1,12.65.31c1,.33,2,.79,3.06,1.18,5,1.92,10.72,2.18,15.29,5a30.65,30.65,0,0,1,4.23,3.39,1.94,1.94,0,0,1,.76,1.12"/><path class="cls-9" d="M53,50.56a17,17,0,0,1-1-3.2c-.21-1.07-.09-2.18-.38-3.22a6.66,6.66,0,0,0-2.44-3.38,16.13,16.13,0,0,0-3.73-2A54.54,54.54,0,0,0,31.39,35c-1.84-2-3.91-4.07-6.54-4.88-2.37-.74-4.93-.41-7.38-.07l-.25,0A21.29,21.29,0,0,0,14,32a35,35,0,0,0-4,3.81,11.55,11.55,0,0,0-2.56,4.82A7,7,0,0,0,8.25,46a2.51,2.51,0,0,0,.94.92c.92.43,2-.13,2.83-.67a9.88,9.88,0,0,0,7.41-.49,35.54,35.54,0,0,1,4.1-2.14,12.43,12.43,0,0,1,3.34-.41,11.65,11.65,0,0,1,2.21.07,25.23,25.23,0,0,1,3.12.92,23,23,0,0,0,2.33.49l5.43.94c2.1.37,3.87,1.56,5.86,2.31a1.84,1.84,0,0,1,.71.4,1.75,1.75,0,0,1,.39,1.1,12.83,12.83,0,0,1-.11,3.39A15.54,15.54,0,0,1,41.2,62a17.91,17.91,0,0,1-3.06,2,7.91,7.91,0,0,0-1.83,1.11c-.84.77-1.21,1.9-2,2.73a5.43,5.43,0,0,1-1.31.87c-.54.32-1,.77-1.55,1.1a16,16,0,0,1-7.37,2.41A8.24,8.24,0,0,1,21.38,72,3.49,3.49,0,0,1,18.81,70a4.36,4.36,0,0,0,1.44,2.94,6.38,6.38,0,0,0,1,.66,10,10,0,0,0,10.67-.72c.55-.42,1.06-.9,1.61-1.34a13.48,13.48,0,0,1,3.37-2l.05,0,.26-.16c.38-.19.77-.34,1.16-.5.65-.26,1.28-.55,1.92-.85a32.52,32.52,0,0,0,4.85-2.38,34.58,34.58,0,0,0,7-6.69c1.1-1.36,2.16-2.93,2.12-4.68A11.1,11.1,0,0,0,53,50.56Z"/><path class="cls-4" d="M7.61,39.73a.38.38,0,0,0,.14-.11.33.33,0,0,0,0-.29,2.18,2.18,0,0,0-1.13-1.48.73.73,0,0,0-.59-.09c-.28.12-.35.48-.34.79a2.49,2.49,0,0,0,.52,1.54C6.59,40.41,7.23,39.93,7.61,39.73Z"/><path class="cls-4" d="M43,24.93,41.31,24a8.73,8.73,0,0,0-2.08-.9,2.92,2.92,0,0,0-2.19.27c-1.26.78-1.45,2.63-2.64,3.51A9.75,9.75,0,0,0,43,24.93Z"/><path class="cls-4" d="M20.29,27.26a5.65,5.65,0,0,0-.24-2,2,2,0,0,0-.64-1,1.38,1.38,0,0,0-1-.22,2.39,2.39,0,0,0-1,.33,5.66,5.66,0,0,0,.24,2.21,1.2,1.2,0,0,0,.32.52.92.92,0,0,0,.33.19A3.31,3.31,0,0,0,20.29,27.26Z"/><path class="cls-4" d="M10.53,41.72c-.18-.39.22-1,.52-1.17a1.77,1.77,0,0,1,1.54-.08,3,3,0,0,0,1.4-.06.57.57,0,0,0,.37-.24,1.14,1.14,0,0,0,0-.45,2.16,2.16,0,0,0,0-.44c-.12-.55-1-.92-1.42-1.18a3.83,3.83,0,0,0-1.49-.66C9.15,37.18,10,40.61,10.53,41.72Z"/><path class="cls-10" d="M16.15,38.66a2,2,0,0,1-.82,1.16,1.88,1.88,0,0,1-1.38.47,2.23,2.23,0,0,1-1.52-1.21,1.84,1.84,0,0,0-.55-.71,1.27,1.27,0,0,0-.7-.16c-.89,0-1.08.41-1,1.21a9.63,9.63,0,0,0,1.24,4,1.94,1.94,0,0,1,.26.57c.11.5-.17.6-.58.46A5.5,5.5,0,0,1,9,43.12a3.91,3.91,0,0,1-.86-1.27,7.61,7.61,0,0,1-.33-1.52,3.35,3.35,0,0,0-.5-1.45A1.44,1.44,0,0,0,6,38.21a3.75,3.75,0,0,0,.55,1.95.46.46,0,0,1-.62.05,1.21,1.21,0,0,1-.37-.57c-.13-.31-.24-.62-.34-.94A2.57,2.57,0,0,1,5,37.79a2.65,2.65,0,0,1,1-1.6,10.88,10.88,0,0,1,3.19-2.41,7.06,7.06,0,0,1,2.57-.44,3.08,3.08,0,0,1,1.78.3,5.75,5.75,0,0,1,1.29,1.06,5.26,5.26,0,0,1,1.36,3.44A2.18,2.18,0,0,1,16.15,38.66Z"/><path class="cls-7" d="M42.36,46.37l-.37.22a25.94,25.94,0,0,0-5.8,4.25,14.67,14.67,0,0,0-3.66,6.81c-.42,1.83-.51,3.83-1.59,5.38a8.2,8.2,0,0,1-1.75,1.73,8.33,8.33,0,0,1-4.48,2.06,2.75,2.75,0,0,1-2.94-1.66,5.25,5.25,0,0,1,.38-2.54,8.23,8.23,0,0,0,.21-2c-.32.51-.65,1-.93,1.54a16.59,16.59,0,0,0-.88,2l-1.2,3.12A11.71,11.71,0,0,0,18.83,69l.11.18a3.54,3.54,0,0,0,2.62,1,16.38,16.38,0,0,0,10.26-2.94C33.5,66,35,64.53,36.61,63.32c2.57-1.87,5.72-3.1,7.58-5.68s2-6,2.08-9.27v0a1.62,1.62,0,0,0,0-.22,4.54,4.54,0,0,0-.45-.21C44.63,47.47,43.51,46.86,42.36,46.37Z"/><path class="cls-9" d="M23.69,44.68a1.46,1.46,0,0,1,.55.11,1,1,0,0,1,.5.72,3.41,3.41,0,0,1,.05.9,19.9,19.9,0,0,0,.14,3c.05.4.08.87-.24,1.11a.76.76,0,0,1-.91-.09,2.28,2.28,0,0,1-.53-.82c-.34-.77-.68-1.54-1-2.32-.19-.45-.72-1.48-.35-1.92A2.52,2.52,0,0,1,23.69,44.68Z"/><path class="cls-9" d="M18,47.78a1.31,1.31,0,0,0,.26.59,4.6,4.6,0,0,0,.75.84,1.33,1.33,0,0,0,.52.32.61.61,0,0,0,.57-.09.63.63,0,0,0,.19-.5,1.69,1.69,0,0,0-.12-.54c-.09-.25-.17-.51-.26-.77a1.26,1.26,0,0,0-.22-.45.84.84,0,0,0-.71-.22C18.52,47,17.91,47.27,18,47.78Z"/><path class="cls-9" d="M16.13,48.58a3.09,3.09,0,0,0,.05.86.7.7,0,0,0,.08.2.67.67,0,0,0,.18.11,1.58,1.58,0,0,0,.61.08.51.51,0,0,0,.39-.19.7.7,0,0,0,.06-.19c.05-.2.14-.38.21-.58a.92.92,0,0,0,0-.59.7.7,0,0,0-.43-.41A.81.81,0,0,0,16.13,48.58Z"/><path class="cls-9" d="M14.67,48.73a1.85,1.85,0,0,0,.15,1,.56.56,0,0,0,0,.08.18.18,0,0,0,.08,0,1.31,1.31,0,0,0,1-.08s.06,0,.07-.06a.2.2,0,0,0,0-.15L15.89,49a1,1,0,0,0-.23-.51.8.8,0,0,0-.55-.13A.49.49,0,0,0,14.67,48.73Z"/><path class="cls-9" d="M13.45,48.84a2.15,2.15,0,0,0,.31.9.28.28,0,0,0,.08.11.39.39,0,0,0,.19.06,1.6,1.6,0,0,0,.49,0c.06,0,.13,0,.15-.11a.24.24,0,0,0,0-.14l-.2-.62a.66.66,0,0,0-.32-.46,1.46,1.46,0,0,0-.22,0C13.7,48.53,13.45,48.57,13.45,48.84Z"/><path class="cls-9" d="M12.27,48.44a.62.62,0,0,0,0,.3,4.38,4.38,0,0,0,.42,1s0,0,.06.07l.11,0a1.91,1.91,0,0,0,.63,0,1.28,1.28,0,0,0-.19-.49,2.83,2.83,0,0,1-.14-.52.87.87,0,0,0-.26-.47C12.75,48.17,12.32,48.13,12.27,48.44Z"/><path class="cls-9" d="M18.22,65.73l.58,1.1c.15.29.34.61.66.69a1,1,0,0,0,.6-.08,5.49,5.49,0,0,0,1.65-.93.69.69,0,0,0,.21-.24c.09-.25-.14-.51-.4-.58s-.52,0-.77-.1a2.37,2.37,0,0,1-.67-.3c-.6-.36-1.21-.72-1.8-1.11a.62.62,0,0,0-.22-.1C17.42,64,18.12,65.56,18.22,65.73Z"/><path class="cls-9" d="M20.32,67.89a1.15,1.15,0,0,1,.63-.08.17.17,0,0,1,.12.06.23.23,0,0,1,0,.26.69.69,0,0,1-.19.23,2.88,2.88,0,0,1-.63.45,1.3,1.3,0,0,1-.75.14.4.4,0,0,1-.26-.12.59.59,0,0,1,.1-.76C19.61,67.92,20.05,68,20.32,67.89Z"/><path class="cls-9" d="M20.18,69a2.85,2.85,0,0,1,.76-.32,4,4,0,0,1,.47-.22s0,0,.05,0,0,0,0,0a.53.53,0,0,1-.13.44l-.18.29a.49.49,0,0,1-.11.14.39.39,0,0,1-.23.09.92.92,0,0,1-.57-.09C20.13,69.29,20.05,69.1,20.18,69Z"/><path class="cls-9" d="M21.73,69a.66.66,0,0,1,.4-.26h.07s0,0,0,0a.38.38,0,0,1-.06.34l-.16.34a.26.26,0,0,1-.07.1.2.2,0,0,1-.11,0c-.14,0-.5,0-.47-.2S21.65,69.08,21.73,69Z"/><path class="cls-9" d="M23,69.05a.2.2,0,0,0,0-.11c-.09-.13-.26,0-.34,0a.91.91,0,0,0-.21.37c0,.16-.06.12.09.15a1.71,1.71,0,0,0,.45,0s0,0,0,0v-.37Z"/><path class="cls-9" d="M26.6,67.21a1.67,1.67,0,0,1-.21-.8A4.37,4.37,0,0,1,26.77,64a.74.74,0,0,1,.21-.28.37.37,0,0,1,.33-.06.53.53,0,0,1,.14.11c.46.54.17,1.47.67,2,.13.13.29.21.42.32a.53.53,0,0,1,.24.44.58.58,0,0,1-.16.32C28.2,67.27,27.09,68,26.6,67.21Z"/><path class="cls-9" d="M32.23,61.17a.37.37,0,0,1,.14-.25.41.41,0,0,1,.31,0A1,1,0,0,0,33,61c.1,0,.21,0,.3,0a.21.21,0,0,1,.1.18.43.43,0,0,1-.06.22,1.37,1.37,0,0,1-.87.62C31.93,62.21,32.15,61.42,32.23,61.17Z"/><path class="cls-9" d="M34,58.86c.14-.34.37-.7.73-.76s.52.08.78,0A3,3,0,0,0,36,58a.47.47,0,0,1,.5.07.57.57,0,0,1,.11.41,1.71,1.71,0,0,1-.14.74.68.68,0,0,1-.59.4,1.22,1.22,0,0,0-.27,0,.53.53,0,0,0-.21.11c-.22.16-.4.37-.61.54a1.12,1.12,0,0,1-.74.31c-.41,0-.4-.26-.35-.58A4.57,4.57,0,0,1,34,58.86Z"/><path class="cls-9" d="M36.58,56.33a1.11,1.11,0,0,1,.12-.44,2.07,2.07,0,0,0,.17-.24.63.63,0,0,0,0-.27,3.86,3.86,0,0,1,.06-.49.63.63,0,0,1,.15-.34.71.71,0,0,1,.64-.1,1.16,1.16,0,0,0,.37,0,3.58,3.58,0,0,0,.48-.24.73.73,0,0,1,1,.89c-.11.36-.47.57-.74.84s-.52.74-.86,1a1.77,1.77,0,0,1-1,.46.47.47,0,0,1-.33-.06C36.41,57.25,36.56,56.56,36.58,56.33Z"/><path class="cls-9" d="M38.15,52.4a1.39,1.39,0,0,1,.09-.45.56.56,0,0,1,.33-.31c.19,0,.45,0,.54-.17a.44.44,0,0,0,0-.2,5.58,5.58,0,0,1,0-1,1.41,1.41,0,0,1,.18-.57.54.54,0,0,1,.51-.26.75.75,0,0,1,.25.09,3,3,0,0,0,1.14.47,5.41,5.41,0,0,1,.58-.07,1.07,1.07,0,0,1,.55.3l.07.08a.33.33,0,0,1,0,.13c0,.13,0,.25,0,.38a.77.77,0,0,1,0,.37A4.35,4.35,0,0,1,42,52c-.2.33-.43.64-.66,1a3.57,3.57,0,0,1-.55.61,1.2,1.2,0,0,1-.83.28l-.25,0a2.46,2.46,0,0,0-.66.06,1,1,0,0,1-.66-.06C38,53.63,38.12,52.8,38.15,52.4Z"/><path class="cls-9" d="M42.4,49.74a.57.57,0,0,1-.08-.42c0-.12.11-.21.14-.33s-.05-.39,0-.58l0-.07h.08a.55.55,0,0,1,.4.24,1.32,1.32,0,0,1,.21.43,1.28,1.28,0,0,1,.07.28,1.21,1.21,0,0,1-.12.45A.79.79,0,0,1,43,50C42.75,50.22,42.52,50,42.4,49.74Z"/><path class="cls-9" d="M25.17,68.11a.85.85,0,0,1,.06-.17.32.32,0,0,1,.2-.12.26.26,0,0,1,.21.08.75.75,0,0,1,.07.12,2.15,2.15,0,0,1,.21.65.09.09,0,0,1,0,0s0,0,0,0-.49.28-.66.12S25.13,68.31,25.17,68.11Z"/><path class="cls-9" d="M24.48,68.5a.24.24,0,0,1,.06-.11.14.14,0,0,1,.15,0,.43.43,0,0,1,.09.13,1.57,1.57,0,0,1,.14.38c0,.07,0,.16,0,.19a.29.29,0,0,1-.13,0c-.15,0-.26.18-.33,0A1.11,1.11,0,0,1,24.48,68.5Z"/><path class="cls-9" d="M23.84,68.76s.06-.08.1-.08.1,0,.13.1a1.18,1.18,0,0,1,.1.45.14.14,0,0,1,0,.09.09.09,0,0,1-.07,0c-.14,0-.33.14-.39,0A.79.79,0,0,1,23.84,68.76Z"/><path class="cls-9" d="M23.19,69.11a.27.27,0,0,1,.11-.21.12.12,0,0,1,.08,0,.16.16,0,0,1,.07.11,2.63,2.63,0,0,1,.06.39s0,.07,0,.09a.49.49,0,0,1-.29,0C23.12,69.37,23.19,69.2,23.19,69.11Z"/><path class="cls-11" d="M77.75,35.34c-.18-1.43-.36-2.87-.49-4.3a24.85,24.85,0,0,1,.93-10.62,8,8,0,0,0-2.78,2.16l-6,6.39a16.26,16.26,0,0,1,2,5.49A17.93,17.93,0,0,1,70,43.54c-1.13,2.89-2.62,5.63-3.66,8.55a10.47,10.47,0,0,1-2.13,4.22A35.83,35.83,0,0,0,77.75,35.34Z"/><path class="cls-12" d="M59.83,16.52a4.41,4.41,0,0,1-.12,2.56A13.49,13.49,0,0,0,64.37,32a10.6,10.6,0,0,0,8.82-5.24,2.5,2.5,0,0,1,1-1.21c.43-.18.94-.07,1.35-.3.63-.36.61-1.26.84-1.95A1.9,1.9,0,0,1,78.54,22c.86.21,1.43,1.13,2.3,1.26a2.67,2.67,0,0,0,1.56-.41,46.21,46.21,0,0,0,9-5.93c.83-.69,1.71-1.6,1.6-2.68S91.7,12.33,90.59,12c-3.79-1.23-7.91-.69-11.86-1.16-2-.24-3.85-.72-5.8-.93s-3.87-.18-5.78-.46C66.1,9.25,65.07,9,64,8.86c-3.55-.48-7.14.27-10.64,1C56.62,10.67,58.57,13.42,59.83,16.52Z"/><path class="cls-13" d="M10.89,76.78a16.25,16.25,0,0,1,.58-23"/><path class="cls-13" d="M6.54,79.41A20.06,20.06,0,0,1,7.25,51"/><path class="cls-13" d="M50,76.78a16.25,16.25,0,0,0-.57-23"/><path class="cls-13" d="M54.36,79.41A20.07,20.07,0,0,0,53.65,51"/></g></g></svg>