<svg xmlns="http://www.w3.org/2000/svg" xmlns:xlink="http://www.w3.org/1999/xlink" viewBox="0 0 121.34 81.86"><defs><style>.cls-1{fill:#dde2f0;}.cls-2{fill:#ad896d;}.cls-3{fill:url(#linear-gradient);}.cls-4{fill:url(#linear-gradient-2);}.cls-5{fill:url(#linear-gradient-3);}.cls-6{fill:url(#linear-gradient-4);}.cls-7{fill:#fee6ce;}.cls-8{fill:#562835;}.cls-20,.cls-9{fill:none;}.cls-10{fill:#fdb728;opacity:0.18;}.cls-11{fill:#f15d22;opacity:0.22;}.cls-12{fill:#66cef6;opacity:0.21;}.cls-13{fill:url(#linear-gradient-5);}.cls-14{fill:url(#linear-gradient-6);}.cls-15{fill:#efb1ac;}.cls-16{fill:url(#linear-gradient-7);}.cls-17{fill:url(#linear-gradient-8);}.cls-18{fill:url(#linear-gradient-9);}.cls-19{fill:url(#linear-gradient-10);}.cls-20{stroke:#0a45b8;stroke-linecap:round;stroke-linejoin:round;stroke-width:2px;}</style><linearGradient id="linear-gradient" x1="68.69" y1="33.39" x2="68.69" y2="54.92" gradientUnits="userSpaceOnUse"><stop offset="0.25" stop-color="#ad896d"/><stop offset="0.51" stop-color="#aa866b"/><stop offset="0.74" stop-color="#a07b65"/><stop offset="0.96" stop-color="#91695a"/><stop offset="1" stop-color="#8d6558"/></linearGradient><linearGradient id="linear-gradient-2" x1="54.43" y1="21.79" x2="47.68" y2="60.09" gradientUnits="userSpaceOnUse"><stop offset="0.39" stop-color="#ad896d"/><stop offset="0.65" stop-color="#ab876c"/><stop offset="0.81" stop-color="#a47e67"/><stop offset="0.93" stop-color="#97705f"/><stop offset="1" stop-color="#8d6558"/></linearGradient><linearGradient id="linear-gradient-3" x1="51.21" y1="49.39" x2="110.36" y2="49.39" gradientUnits="userSpaceOnUse"><stop offset="0.22" stop-color="#bf9779"/><stop offset="0.56" stop-color="#b28d70"/><stop offset="0.86" stop-color="#ad896d"/></linearGradient><linearGradient id="linear-gradient-4" x1="18.88" y1="32.2" x2="18.88" y2="74.01" gradientUnits="userSpaceOnUse"><stop offset="0" stop-color="#ae3e42" stop-opacity="0.5"/><stop offset="0.07" stop-color="#ae3e42" stop-opacity="0.39"/><stop offset="0.18" stop-color="#ae3e42" stop-opacity="0.25"/><stop offset="0.31" stop-color="#ae3e42" stop-opacity="0.14"/><stop offset="0.46" stop-color="#ae3e42" stop-opacity="0.06"/><stop offset="0.65" stop-color="#ae3e42" stop-opacity="0.01"/><stop offset="1" stop-color="#ae3e42" stop-opacity="0"/></linearGradient><linearGradient id="linear-gradient-5" x1="104.73" y1="33.06" x2="97.36" y2="74.82" gradientUnits="userSpaceOnUse"><stop offset="0.18" stop-color="#ad896d"/><stop offset="0.48" stop-color="#aa866b"/><stop offset="0.72" stop-color="#a27c65"/><stop offset="0.93" stop-color="#936c5c"/><stop offset="1" stop-color="#8d6558"/></linearGradient><linearGradient id="linear-gradient-6" x1="31.17" y1="35.72" x2="22.5" y2="44.39" xlink:href="#linear-gradient-4"/><linearGradient id="linear-gradient-7" x1="35.58" y1="31.13" x2="45.11" y2="31.13" gradientUnits="userSpaceOnUse"><stop offset="0" stop-color="#ad896d"/><stop offset="0.95" stop-color="#6f3e42"/><stop offset="0.95" stop-color="#6f3e42"/></linearGradient><linearGradient id="linear-gradient-8" x1="48.4" y1="34.43" x2="39.87" y2="49.2" xlink:href="#linear-gradient"/><linearGradient id="linear-gradient-9" x1="75.37" y1="56.74" x2="78.95" y2="56.11" gradientUnits="userSpaceOnUse"><stop offset="0.14" stop-color="#ad896d" stop-opacity="0"/><stop offset="0.26" stop-color="#ac886c" stop-opacity="0.04"/><stop offset="0.41" stop-color="#a8846a" stop-opacity="0.15"/><stop offset="0.58" stop-color="#a27d66" stop-opacity="0.33"/><stop offset="0.76" stop-color="#9a7461" stop-opacity="0.58"/><stop offset="0.95" stop-color="#90685a" stop-opacity="0.9"/><stop offset="1" stop-color="#8d6558"/></linearGradient><linearGradient id="linear-gradient-10" x1="0.51" y1="31.99" x2="11.37" y2="42.86" gradientUnits="userSpaceOnUse"><stop offset="0" stop-color="#ae3e42" stop-opacity="0.5"/><stop offset="0.2" stop-color="#ae3e42" stop-opacity="0.37"/><stop offset="0.54" stop-color="#ae3e42" stop-opacity="0.17"/><stop offset="0.82" stop-color="#ae3e42" stop-opacity="0.04"/><stop offset="1" stop-color="#ae3e42" stop-opacity="0"/></linearGradient></defs><title>Ресурс 50600</title><g id="Слой_2" data-name="Слой 2"><g id="Illustration"><path class="cls-1" d="M57,.14A44,44,0,0,1,77.89,3.51,45.54,45.54,0,0,1,99.14,21.66c10.22,17,11.28,44-2.12,52.54s-29.36,0-31.48-1.06-16.6-6.38-23-.64-6.17,9.36-11.27,9.36S11.29,71,11.93,43.15c.32-14,7.49-26.15,19.1-33.8A55.34,55.34,0,0,1,57,.14Z"/><path class="cls-2" d="M12.83,38.09,11,37c-.46-.28-.91-.55-1.39-.79-1.17-.6-2.45-1-3.66-1.49a21.1,21.1,0,0,1-3.45-2C2,32.37,1.18,31.78.55,32c-.95.4-.45,2.07-.14,2.71a27.59,27.59,0,0,0,1.72,2.54c.42.67.75,1.38,1.19,2,.17.26.36.51.53.78a23.79,23.79,0,0,0,1.74,3.18c.68.79,1.67,1.27,2.35,2.06a4.21,4.21,0,0,0,2.65-1.77A10.71,10.71,0,0,0,12.83,38.09Z"/><path class="cls-2" d="M63.44,52.14c3.69.59,7.45,1.2,10.8,2.88a37.12,37.12,0,0,1,4.15,2.57,66.07,66.07,0,0,0,14.68,8,16.94,16.94,0,0,0,3.82,1,18.81,18.81,0,0,0,3.52,0,29.24,29.24,0,0,0,8.52-1.46,11.63,11.63,0,0,0,6.52-5.41,16.45,16.45,0,0,0,1.28-4.36c.53-2.93.92-5.89,1.17-8.85a28,28,0,0,0-.17-7.7c-.78-4-3.37-7.14-6.3-9.8a64,64,0,0,0-10.64-7.95,47.24,47.24,0,0,0-7.39-3.53,53.15,53.15,0,0,0-9-2.28L74.28,13.43c-1.67-.3-3.34-.6-5-.8a59.87,59.87,0,0,0-15.13.31c-6.15.83-12.91,1.88-18.24,5.29-1.86,1.19-3.5,2.7-5.38,3.84-1.14.7-2.35,1.25-3.53,1.89a31,31,0,0,0-6.5,4.66A15.55,15.55,0,0,0,18,31.3a14.24,14.24,0,0,1-2.2,2.86c-.75.68-1.68,1.16-2.43,1.85-.33.31-.63.66-.93,1L11,38.68c-.5.58-1,1.17-1.45,1.8A16.55,16.55,0,0,0,7.25,46c-.25,1-.45,2-.64,3s-.07,1.84-.31,2.76a5.66,5.66,0,0,0-.49,2.7,6.89,6.89,0,0,0,1.44,2.23c.29.41.55.85.8,1.29a8.06,8.06,0,0,1,1,2.23,7.77,7.77,0,0,1,0,2.72c-.15,1.21-.32,2.43-.59,3.62A20.79,20.79,0,0,0,8,68.56,13.94,13.94,0,0,0,7.89,70,4.81,4.81,0,0,0,8,72a1.54,1.54,0,0,0,.43.45,8.07,8.07,0,0,0,2.68,1.5,9.07,9.07,0,0,0,3.38-.34A9.54,9.54,0,0,0,20,71a10.52,10.52,0,0,0,1.23-1.27,21.33,21.33,0,0,0,1.1-2.19,26,26,0,0,1,2.56-4.07c.93-1.19,2-2.25,3-3.43.46-.57.86-1.17,1.26-1.78a4.81,4.81,0,0,1,1.55-1.39,11.23,11.23,0,0,0,3.93-4.41A25.52,25.52,0,0,1,37.1,48a1.27,1.27,0,0,1,.38-.35,1.22,1.22,0,0,1,.47-.08,26.42,26.42,0,0,1,4.36.13c.63.09,1.24.22,1.86.31a25.47,25.47,0,0,0,3.15.17,17.14,17.14,0,0,1,3.91.4,25.87,25.87,0,0,1,3,1A46,46,0,0,0,63.44,52.14Z"/><path class="cls-3" d="M74.21,34.21a30.1,30.1,0,0,1-7.6,1.65,14.47,14.47,0,0,1-5.73-.77c-.71-.26-1.53-.75-1.76.3-.18.8.48,2.29.66,3.1a74,74,0,0,1,2.09,12.43c0,.31.05.63.1.94.49.1,1,.21,1.47.28,3.61.58,7.29,1.18,10.58,2.78,0-.11,0-.22,0-.33A130.63,130.63,0,0,1,78.3,33.41,11,11,0,0,0,74.21,34.21Z"/><path class="cls-4" d="M66.87,46.13a8.42,8.42,0,0,0-2.13-3.61c-.8-.93-1.57-1.89-2.3-2.87a12.35,12.35,0,0,1-.85-1.28c-.93-1.73-.83-3.74-1.56-5.53s-1.22-3.92-1.9-5.86A10.32,10.32,0,0,0,54.91,22c-1.06-.82-2.62.34-3.27,1.18a9.85,9.85,0,0,0-1.25,2.41,28.14,28.14,0,0,0-1.29,3.89,22.64,22.64,0,0,0-.26,7.66c0,.41.1.81.16,1.22.13.89.29,1.79.46,2.67a27.75,27.75,0,0,1,.71,3.7c-.85.32-1.79.45-2.66.77a17.19,17.19,0,0,0-2.45,1.17,6.9,6.9,0,0,1-1.11.58,7.72,7.72,0,0,1-2.34.35l-.25,0-.75,0c-.88,0-1.77,0-2.66,0a1.22,1.22,0,0,0-.47.08,1.27,1.27,0,0,0-.38.35,25.52,25.52,0,0,0-2.5,4.44,11.23,11.23,0,0,1-3.93,4.41l-.26.18A2.59,2.59,0,0,0,31,57a8.57,8.57,0,0,1,1.36-.2,8.63,8.63,0,0,0,3.41-.29c.6-.26,1.09-.72,1.69-1a6,6,0,0,1,3.5.1c6.6,1.43,13.46,1,20.17,1.74a10.62,10.62,0,0,0,2.58.09,3.2,3.2,0,0,0,2.2-1.2,4.6,4.6,0,0,0,.63-2c.08-.52.14-1,.21-1.55.09-.67.19-1.34.27-2A12.94,12.94,0,0,0,66.87,46.13Z"/><path class="cls-5" d="M109.83,61c-1,2.24-3.11,3.74-5.32,4.82a15,15,0,0,1-8.76,1.42,22.17,22.17,0,0,1-3.77-1,33.06,33.06,0,0,1-12.73-7.51,14.46,14.46,0,0,0-1.37,5c0,.9.09,1.8.11,2.7a5.82,5.82,0,0,1-.25,2,1.84,1.84,0,0,1-1.18,1.17,4.59,4.59,0,0,1-3.47.14,13.29,13.29,0,0,1-2-1.12c-1.52-.89-3.22-1.47-4.71-2.41-.71-.44-1.36-1-2-1.44a45.31,45.31,0,0,0-4.44-2.66,3.06,3.06,0,0,0-2.12-.41,2.42,2.42,0,0,1-1.07-.15c-.09,0-.81-.52-.8-.52a2.75,2.75,0,0,1-2.51-.15,2.52,2.52,0,0,1-1.21-2.07l-.09,0a1.48,1.48,0,0,1-.81-1.05,3.33,3.33,0,0,1,0-1.37,1.87,1.87,0,0,1,.17-.52,1.71,1.71,0,0,1,1-.66,13.73,13.73,0,0,1,3.71-.74s0,.09-.05,0,0-.1.05-.13c.53-.39,1.28-.14,1.88.12a32.08,32.08,0,0,1,3.88,1.85c1.25.73,2.41,1.63,3.68,2.33a6.78,6.78,0,0,0,4,1.15,7.26,7.26,0,0,0,1.73-3.59,8,8,0,0,0-.45-2.68c-1.37-5-1.68-10.47.2-15.3s6.26-8.89,11.43-9.41c5.44-.55,10.5,2.68,15.9,3.56a13.87,13.87,0,0,1,6.15,2.68,11.68,11.68,0,0,1,4,5.41,19.81,19.81,0,0,1,.75,3.58,14.26,14.26,0,0,1,.27,3.12,21.93,21.93,0,0,0-.1,3.34c.17,2.32.7,4.59.87,6.9a8.25,8.25,0,0,1-.07,2.22A6.4,6.4,0,0,1,109.83,61Z"/><path class="cls-6" d="M31.74,43.28a6.74,6.74,0,0,0,0-3.7c-.11-.61-.21-1.21-.32-1.82a7.22,7.22,0,0,0-.29-1.22,5,5,0,0,0-.55-1.08,9,9,0,0,0-3.45-3.11,1.14,1.14,0,0,0-.4-.15,1.54,1.54,0,0,0-1,.42,11.91,11.91,0,0,0-1.31.87,3.07,3.07,0,0,0-.5.59,2.81,2.81,0,0,0-.64-.88,3.05,3.05,0,0,0-2-.71,6.28,6.28,0,0,0-2.13.44,28,28,0,0,0-3.29,1.51c-.47.24-.94.48-1.41.74A10.69,10.69,0,0,0,13.4,36c-.33.31-.63.66-.93,1L11,38.68c-.5.58-1,1.17-1.45,1.8A16.55,16.55,0,0,0,7.25,46c-.25,1-.45,2-.64,3s-.07,1.84-.31,2.76a5.66,5.66,0,0,0-.49,2.7,6.89,6.89,0,0,0,1.44,2.23c.29.41.55.85.8,1.29a8.06,8.06,0,0,1,1,2.23,7.77,7.77,0,0,1,0,2.72c-.15,1.21-.32,2.43-.59,3.62-.16.69-.36,1.38-.45,2.08A13.94,13.94,0,0,0,7.89,70,4.81,4.81,0,0,0,8,72a1.87,1.87,0,0,0,.43.46,8.22,8.22,0,0,0,2.68,1.49,9.07,9.07,0,0,0,3.38-.34A9.54,9.54,0,0,0,20,71a10.52,10.52,0,0,0,1.23-1.27,21.33,21.33,0,0,0,1.1-2.19,26,26,0,0,1,2.56-4.07c.93-1.19,2-2.25,3-3.43.46-.57.86-1.17,1.26-1.78a3.23,3.23,0,0,1,.39-.49,4.91,4.91,0,0,1,.3-1c.29-.67.79-1.24,1.1-1.9a6.42,6.42,0,0,0,.31-3.76,10.34,10.34,0,0,0-1.12-3.53,9.12,9.12,0,0,0-.79-1.16A8.11,8.11,0,0,0,31.74,43.28Z"/><path class="cls-7" d="M27.61,60.32A3.49,3.49,0,0,0,27,58.91a3.8,3.8,0,0,0-3.28-1.35A6.28,6.28,0,0,0,20.36,59c-1.33,1-2.48,2.45-4.13,2.77-1.31.26-2.65-.25-4-.27a5.42,5.42,0,0,0-3.18,1c0,.12,0,.25-.05.37-.15,1.21-.32,2.43-.59,3.62-.16.69-.36,1.38-.45,2.08A13.94,13.94,0,0,0,7.89,70,4.81,4.81,0,0,0,8,72a1.87,1.87,0,0,0,.43.46,8.22,8.22,0,0,0,2.68,1.49,9.07,9.07,0,0,0,3.38-.34A9.54,9.54,0,0,0,20,71a10.52,10.52,0,0,0,1.23-1.27,21.33,21.33,0,0,0,1.1-2.19,26,26,0,0,1,2.56-4.07C25.75,62.38,26.72,61.38,27.61,60.32Z"/><path class="cls-8" d="M18.67,52.83c-.83.08-1.57-.17-2.28.34A3.34,3.34,0,0,0,15,55.42a2.94,2.94,0,0,0,2.42-.61A2.79,2.79,0,0,0,18.67,52.83Z"/><path class="cls-8" d="M12.38,69a1.51,1.51,0,0,0-.82-.2A5.4,5.4,0,0,0,9.91,69a7.4,7.4,0,0,0-1.77.85L7.89,70h0A4.81,4.81,0,0,0,8,72a1.87,1.87,0,0,0,.43.46,10.67,10.67,0,0,0,1.82,1.16.64.64,0,0,0,.13-.1c.2-.2.2-.53.38-.75a1,1,0,0,1,.78-.28,3.44,3.44,0,0,0,.85,0,1.37,1.37,0,0,0,.92-1.32,3.23,3.23,0,0,0-.54-1.63A1.49,1.49,0,0,0,12.38,69Z"/><path class="cls-8" d="M22.79,66.71v0a11,11,0,0,1,.34-1.61,4.61,4.61,0,0,1,.44-1.21.9.9,0,0,0,.13-.32.47.47,0,0,0-.44-.48,1,1,0,0,0-.67.23,2.87,2.87,0,0,0-1,1.75,19.77,19.77,0,0,0-.22,2,8,8,0,0,1-.93,3.05,6.15,6.15,0,0,1-.91,1.25c-.08.08-.33.27-.55.46A7.58,7.58,0,0,0,20,71a10.52,10.52,0,0,0,1.23-1.27,21.33,21.33,0,0,0,1.1-2.19Z"/><path class="cls-9" d="M94.68,66.1l-.59-.18C94.29,66,94.48,66.05,94.68,66.1Z"/><path class="cls-9" d="M93.36,65.68l.5.16-.61-.21Z"/><path class="cls-10" d="M94.09,65.92l-.23-.08Z"/><path class="cls-11" d="M94.09,65.92l-.23-.08Z"/><path class="cls-12" d="M56.13,54.44h-.05s0,0,0,0S56.18,54.45,56.13,54.44Z"/><path class="cls-13" d="M119.84,44.18a22.89,22.89,0,0,0-.46-4,9.54,9.54,0,0,0-2.59-4.33,4.28,4.28,0,0,0-1.75-1,26,26,0,0,0-2.45,10.23c-.19,3.62.47,7.27.39,10.87,0,.58,0,1.16-.11,1.74-.32,3.09-1.68,6.1-4.69,7.37a16.86,16.86,0,0,1-4.27,1,15,15,0,0,1-8.16,1.15,22.17,22.17,0,0,1-3.77-1,33.06,33.06,0,0,1-12.73-7.51,14.46,14.46,0,0,0-1.37,5A17.42,17.42,0,0,0,78,65.65c0,.53-.07.92.3,1.31a10,10,0,0,0,2.54,1.72l4.35,2.42a31.62,31.62,0,0,0,6.32,2.23c2.19.64,4.41,1.19,6.65,1.62,5.49,1,11.17.88,16-2.2a16.93,16.93,0,0,0,3.29-2.68C124,63.18,120.45,52.46,119.84,44.18Z"/><path class="cls-14" d="M31.74,43.28a6.74,6.74,0,0,0,0-3.7l-.32-1.82a7.22,7.22,0,0,0-.29-1.22,5,5,0,0,0-.55-1.08,9,9,0,0,0-3.45-3.11,1.22,1.22,0,0,0-.4-.15,1.54,1.54,0,0,0-1,.42,11.91,11.91,0,0,0-1.31.87c-1.3,1.16-1.25,3.25-2.31,4.64-.47.62-1.13,1.07-1.61,1.68a3.66,3.66,0,0,0-.65,1.31,1.14,1.14,0,0,0,.45,1.12c.34.28.75.45,1.11.7a14.18,14.18,0,0,1,2,2.27,6.08,6.08,0,0,0,4.42,2,2,2,0,0,0,.34,0,1.62,1.62,0,0,0,.53-.29A8.64,8.64,0,0,0,31.74,43.28Z"/><path class="cls-15" d="M28.49,45.43l1.2-1.16a4.29,4.29,0,0,0,1.17-1.52c.4-1-.05-2.21-.23-3.31-.1-.61-.12-1.23-.25-1.84a8.07,8.07,0,0,0-2.81-4.13,1.24,1.24,0,0,0-.84-.4,1.2,1.2,0,0,0-.66.36,12.58,12.58,0,0,0-2.58,4.08,8.33,8.33,0,0,0-.65,1.72,5.77,5.77,0,0,0,.35,3.28,2.42,2.42,0,0,0,1.19,1.15l1.89,1.12,1,.58a1.94,1.94,0,0,0,.57.25A.88.88,0,0,0,28.49,45.43Z"/><path class="cls-16" d="M42.53,31.21V31A.15.15,0,0,0,42.53,31.21Z"/><path class="cls-17" d="M37.48,47.66a1.22,1.22,0,0,1,.47-.08c.89,0,1.78,0,2.66,0l.75,0,.25,0A7.72,7.72,0,0,0,44,47.28a6.9,6.9,0,0,0,1.11-.58,17.19,17.19,0,0,1,2.45-1.17c.87-.32,1.81-.45,2.66-.77A8.17,8.17,0,0,0,50,43.47l-.78-.69a9.82,9.82,0,0,1-1.4-1.41,9.53,9.53,0,0,1-.91-1.58C45.47,36.91,44,34,42.6,31.08c0,1.33-.1,2.67-.22,4a17.73,17.73,0,0,1-.28,3.15c-.44,1.7-1.37,3.23-1.94,4.89-.45,1.32-.72,2.81-1.75,3.75-.33.31-.73.56-1,.88A.54.54,0,0,1,37.48,47.66Z"/><path class="cls-18" d="M79.46,59a39.16,39.16,0,0,1-4.83-7.9,19.45,19.45,0,0,0,3.5,11,21.16,21.16,0,0,1,1.12-3.25Z"/><path class="cls-19" d="M12.83,38.09,11,37c-.46-.28-.91-.55-1.39-.79-1.17-.6-2.45-1-3.66-1.49a21.1,21.1,0,0,1-3.45-2C2,32.37,1.18,31.78.55,32c-.95.4-.45,2.07-.14,2.71a27.59,27.59,0,0,0,1.72,2.54c.42.67.75,1.38,1.19,2,.17.26.36.51.53.78a23.79,23.79,0,0,0,1.74,3.18c.68.79,1.67,1.27,2.35,2.06a4.21,4.21,0,0,0,2.65-1.77A10.71,10.71,0,0,0,12.83,38.09Z"/><path class="cls-20" d="M19.88,3.13c0,2.51-2,2.51-2,5s2,2.52,2,5-2,2.52-2,5,2,2.52,2,5-2,2.52-2,5"/><path class="cls-20" d="M11.61,10c0,1.83-2,1.83-2,3.66s2,1.83,2,3.66-2,1.83-2,3.66,2,1.83,2,3.66-2,1.84-2,3.67"/><path class="cls-20" d="M28.14,10c0,1.83-2,1.83-2,3.66s2,1.83,2,3.66-2,1.83-2,3.66,2,1.83,2,3.66-2,1.84-2,3.67"/></g></g></svg>