<svg xmlns="http://www.w3.org/2000/svg" xmlns:xlink="http://www.w3.org/1999/xlink" viewBox="0 0 116.67 81.86"><defs><style>.cls-1{fill:none;}.cls-2{fill:#dde2f0;}.cls-3{fill:url(#linear-gradient);}.cls-4{fill:#ab969e;}.cls-5{fill:#d9c3ba;}.cls-6{fill:url(#linear-gradient-2);}.cls-7{fill:url(#linear-gradient-3);}.cls-8{fill:url(#linear-gradient-4);}.cls-9{fill:url(#linear-gradient-5);}.cls-10{fill:#f8f4f0;}.cls-11{fill:#3d223e;}.cls-12{fill:url(#linear-gradient-6);}.cls-13{fill:#f0bad6;}.cls-14{fill:url(#linear-gradient-7);}.cls-15{fill:url(#linear-gradient-8);}.cls-16{fill:url(#linear-gradient-9);}.cls-17{opacity:0.87;}.cls-18{clip-path:url(#clip-path);}.cls-19{fill:#0a45b8;}.cls-20{fill:#5c98ff;}</style><linearGradient id="linear-gradient" x1="2.03" y1="25.89" x2="25.12" y2="65.88" gradientUnits="userSpaceOnUse"><stop offset="0" stop-color="#d9c3ba"/><stop offset="0.28" stop-color="#d1bbb5"/><stop offset="0.72" stop-color="#bba5a8"/><stop offset="0.97" stop-color="#ab969e"/></linearGradient><linearGradient id="linear-gradient-2" x1="45.98" y1="40.79" x2="39.47" y2="52.06" gradientUnits="userSpaceOnUse"><stop offset="0" stop-color="#ab969e" stop-opacity="0"/><stop offset="0.26" stop-color="#ab969e" stop-opacity="0.01"/><stop offset="0.4" stop-color="#ab969e" stop-opacity="0.06"/><stop offset="0.5" stop-color="#ab969e" stop-opacity="0.14"/><stop offset="0.6" stop-color="#ab969e" stop-opacity="0.25"/><stop offset="0.68" stop-color="#ab969e" stop-opacity="0.39"/><stop offset="0.75" stop-color="#ab969e" stop-opacity="0.57"/><stop offset="0.82" stop-color="#ab969e" stop-opacity="0.78"/><stop offset="0.88" stop-color="#ab969e"/></linearGradient><linearGradient id="linear-gradient-3" x1="11.32" y1="42.03" x2="40.96" y2="52.82" gradientUnits="userSpaceOnUse"><stop offset="0" stop-color="#d9c3ba"/><stop offset="0.31" stop-color="#dbc6bd"/><stop offset="0.56" stop-color="#e0cfc7"/><stop offset="0.78" stop-color="#eaded7"/><stop offset="0.99" stop-color="#f7f3ef"/><stop offset="1" stop-color="#f8f4f0"/></linearGradient><linearGradient id="linear-gradient-4" x1="65.5" y1="42.72" x2="69.81" y2="50.18" gradientUnits="userSpaceOnUse"><stop offset="0" stop-color="#ab969e" stop-opacity="0"/><stop offset="0.2" stop-color="#ab969e" stop-opacity="0.02"/><stop offset="0.35" stop-color="#ab969e" stop-opacity="0.07"/><stop offset="0.49" stop-color="#ab969e" stop-opacity="0.17"/><stop offset="0.62" stop-color="#ab969e" stop-opacity="0.3"/><stop offset="0.74" stop-color="#ab969e" stop-opacity="0.48"/><stop offset="0.85" stop-color="#ab969e" stop-opacity="0.69"/><stop offset="0.96" stop-color="#ab969e" stop-opacity="0.94"/><stop offset="0.99" stop-color="#ab969e"/></linearGradient><linearGradient id="linear-gradient-5" x1="107.18" y1="25.93" x2="91.83" y2="41.28" gradientUnits="userSpaceOnUse"><stop offset="0" stop-color="#d9c3ba"/><stop offset="0.41" stop-color="#d9c4bb" stop-opacity="0.99"/><stop offset="0.55" stop-color="#dbc6bd" stop-opacity="0.96"/><stop offset="0.66" stop-color="#ddc9c1" stop-opacity="0.9"/><stop offset="0.74" stop-color="#e0cec6" stop-opacity="0.82"/><stop offset="0.81" stop-color="#e4d4cd" stop-opacity="0.72"/><stop offset="0.88" stop-color="#e9dcd6" stop-opacity="0.59"/><stop offset="0.93" stop-color="#efe6e0" stop-opacity="0.43"/><stop offset="0.99" stop-color="#f6f0ec" stop-opacity="0.26"/><stop offset="1" stop-color="#f8f4f0" stop-opacity="0.2"/></linearGradient><linearGradient id="linear-gradient-6" x1="113.79" y1="21.57" x2="106.19" y2="29.17" gradientUnits="userSpaceOnUse"><stop offset="0.2" stop-color="#ab969e"/><stop offset="0.33" stop-color="#b6a1a5"/><stop offset="0.67" stop-color="#d0bab4"/><stop offset="0.88" stop-color="#d9c3ba"/></linearGradient><linearGradient id="linear-gradient-7" x1="94.93" y1="21.36" x2="94.93" y2="31.12" gradientUnits="userSpaceOnUse"><stop offset="0" stop-color="#ab969e"/><stop offset="0.89" stop-color="#d9c3ba" stop-opacity="0"/></linearGradient><linearGradient id="linear-gradient-8" x1="91.5" y1="40.53" x2="82.98" y2="55.28" xlink:href="#linear-gradient-4"/><linearGradient id="linear-gradient-9" x1="92.97" y1="35.18" x2="65.67" y2="62.48" xlink:href="#linear-gradient-3"/><clipPath id="clip-path"><rect class="cls-1" x="40.18" y="23.69" width="30" height="20"/></clipPath></defs><title>Ресурс 45600</title><g id="Слой_2" data-name="Слой 2"><g id="Illustration"><path class="cls-2" d="M54.44.14A44,44,0,0,1,75.29,3.51,45.57,45.57,0,0,1,96.55,21.66c10.21,17,11.27,44-2.13,52.54s-29.36,0-31.48-1.06-16.59-6.38-23-.64-6.16,9.36-11.27,9.36S8.69,71,9.33,43.15c.32-14,7.5-26.15,19.1-33.8A55.34,55.34,0,0,1,54.44.14Z"/><path class="cls-3" d="M25.08,12.58c-2.18,1.63-4.71,2.76-6.93,4.34C12.79,20.74,9.56,27,8.17,33.44S7,46.54,7.46,53.11c.25,4,.56,8.06-.22,12-.42,2.09-1.47,6.25-3.64,7.26-.67.31-1.48.18-2.18.43A2.44,2.44,0,0,0,.17,75.92a3.26,3.26,0,0,0,3,1.89c3.23,0,5.82-3.55,7.08-6.13,2.75-5.6,3.33-12,3.25-18.12-.07-5.43.24-11.66,1.95-16.84a23.26,23.26,0,0,1,3.56-6c1.43-2,2.58-4.19,4-6.21a20.39,20.39,0,0,0,3.07-5.57A7.45,7.45,0,0,0,25.08,12.58Z"/><path class="cls-4" d="M39.34,45.34c.64,4.54-.7,9.14-2.54,13.34a5.88,5.88,0,0,0-.72,2.72,4.5,4.5,0,0,0,.42,1.47,12.58,12.58,0,0,0,5.12,5.79c.54-.1,1.22-.28,1.77-.35a4.4,4.4,0,0,1,.81,0,4.14,4.14,0,0,1,1.6.59,3.43,3.43,0,0,1,1,.73,2.64,2.64,0,0,1,.38,2.08,2.24,2.24,0,0,1-.29.87,1.39,1.39,0,0,1-1.37.6,12.13,12.13,0,0,1-5.84.15,9.17,9.17,0,0,1-2.08-.51,8.41,8.41,0,0,1-2.9-2.38,38.23,38.23,0,0,1-2.51-3.16c-1.49-2.06-3.48-3.95-4.07-6.43a22.23,22.23,0,0,1-.25-5.16,24.57,24.57,0,0,0-.65-5.47,37.69,37.69,0,0,1-1-4.43,8.18,8.18,0,0,1,.69-4.4,5.6,5.6,0,0,1,3.25-2.94c2.49-.8,5.2.54,7.09,2.34A8.28,8.28,0,0,1,39.34,45.34Z"/><path class="cls-4" d="M72.49,43.71a106.7,106.7,0,0,1-8,18.26c-1.22,2.18-2.25,4.51-2,7a2.69,2.69,0,0,1,1,.11,5.48,5.48,0,0,1,1.87,1.14,1.6,1.6,0,0,1,.42.44,1.46,1.46,0,0,1,.11.41A2.62,2.62,0,0,1,65.41,73a2.42,2.42,0,0,1-1.64.9c-.64.08-1.41-.4-2.05-.34a4.41,4.41,0,0,1-3.19-.5,4.16,4.16,0,0,1-1.16-3.22,31.59,31.59,0,0,1,.68-7.76A36.71,36.71,0,0,0,59,57.2a27.89,27.89,0,0,0-.1-3.77,57.69,57.69,0,0,1,1.29-16.1,8.15,8.15,0,0,1,5.71-6.28,6.61,6.61,0,0,1,5.33.85,7.07,7.07,0,0,1,2.67,5.38C74,39.35,73.14,41.75,72.49,43.71Z"/><path class="cls-5" d="M111,30.35a21,21,0,0,0-1.84-2.16,18.34,18.34,0,0,0-3.9-3.87,18.16,18.16,0,0,0-1.83-1l-2.37-1.19a16.28,16.28,0,0,0-2.18-1,8.24,8.24,0,0,0-5.24,0,13.3,13.3,0,0,0-3.37-1.41c-1-.26-2.07-.38-3.07-.69-2.09-.63-3.84-1.85-6.06-2.12a38.09,38.09,0,0,0-5.55.07,30.36,30.36,0,0,1-4.76-.39c-3.42-.46-6.46-2.38-9.67-3.54A54.86,54.86,0,0,0,50.75,10.4q-4.94-.75-9.92-1.21c-3.43-.31-7.3-.76-10.55.52s-6,2.29-8.52,4.58A25.47,25.47,0,0,0,14.2,26.4a16.57,16.57,0,0,0-.52,2.5,18,18,0,0,0,.54,6.15,19.4,19.4,0,0,0,2.7,6.54,10.48,10.48,0,0,0,5.55,4.24,68.86,68.86,0,0,0,17.44,2.89,55,55,0,0,0,8.88-.47,17.09,17.09,0,0,0,4.11-.87,9.48,9.48,0,0,1,3.82-.8,14.75,14.75,0,0,1,4.42.81c2.75.91,5.32,2.32,8.12,3,1.59.4,3.46.2,4.92.93,1.73.88,4.35,2.82,6.2,1.32.51-.42.93-1,1.45-1.36,1.67-1.28,4-1.08,6-1.62a10.76,10.76,0,0,0,6-4.64l1.05-1.58a10,10,0,0,1,1.4,1.11c.45.46.82,1,1.28,1.45a2.65,2.65,0,0,0,1.69.87,3.67,3.67,0,0,0,2.32.92,3.89,3.89,0,0,0,2.46-.76,2.93,2.93,0,0,0,2.86-1.58c.19-.37.31-.79.52-1.16A8.32,8.32,0,0,1,109,42.65a11.75,11.75,0,0,0,2.78-6,13.33,13.33,0,0,0,.29-1.77A7.8,7.8,0,0,0,111,30.35Z"/><path class="cls-6" d="M52.58,47.48c-.54,0-1.08-.08-1.62-.16a13.9,13.9,0,0,1-7-3.16,20.51,20.51,0,0,1-4.83-6c-.28-.53-.49-1.48-.93-1.83-1.49,1.84-2.45,4.57-3.48,6.7-.18.37-1.38,3.14-2.23,5a60.77,60.77,0,0,0,7.38.67,55,55,0,0,0,8.88-.47A19.45,19.45,0,0,0,52.58,47.48Z"/><path class="cls-7" d="M17.76,40.08c1.43,2.68,2.88,5.43,3.31,8.44s-.35,6.38-2.73,8.27c-.73.58-1.78,1.12-2.13,2a5.55,5.55,0,0,0,.23,3.34A26.3,26.3,0,0,0,19,68.76,32.56,32.56,0,0,0,24.26,75a2.84,2.84,0,0,0,.77.61,2.78,2.78,0,0,0,.95.2,18.38,18.38,0,0,0,5.54-.22,1.61,1.61,0,0,0,1.62-1.44,2.53,2.53,0,0,0-.14-.9,3.86,3.86,0,0,0-2-2.36,2.66,2.66,0,0,0-3,.36,42.18,42.18,0,0,1-3-5.54,3.44,3.44,0,0,1,.5-4.11,48.19,48.19,0,0,1,4.85-5.45c3.54-3.84,6.81-8.47,8.4-13.51a24.28,24.28,0,0,0,.83-7.3c.06-6.41-3.2-12.72-9.42-15l-.74-.25a9.78,9.78,0,0,0-9,2.3C18.16,24.56,16.18,27,16,30.23A19.21,19.21,0,0,0,17.76,40.08Z"/><path class="cls-8" d="M58.6,46.77a17.11,17.11,0,0,1,2.54.62c2.75.91,5.32,2.32,8.12,3l.1,0,0-.06a36,36,0,0,0,3.87-10.21,105.21,105.21,0,0,1-12.34,5.7C60.39,46.06,59,46.26,58.6,46.77Z"/><path class="cls-9" d="M111,30.35a7.8,7.8,0,0,1,1,4.5,13.33,13.33,0,0,1-.29,1.77,11.75,11.75,0,0,1-2.78,6,8.32,8.32,0,0,0-1.58,1.67c-.21.37-.33.79-.52,1.16A2.93,2.93,0,0,1,104,47.06a3.89,3.89,0,0,1-2.46.76,3.67,3.67,0,0,1-2.32-.92A2.65,2.65,0,0,1,97.55,46c-.46-.45-.83-1-1.28-1.45a12.55,12.55,0,0,0-1.83-1.41A32.44,32.44,0,0,1,90.58,40a7.38,7.38,0,0,1-1.31-1.54,6.7,6.7,0,0,1-.62-1.61,15.09,15.09,0,0,1-.43-4.92,31.15,31.15,0,0,1,.49-5.56,7.69,7.69,0,0,1,3.94-4.82,8.12,8.12,0,0,1,6.23-.42,16.28,16.28,0,0,1,2.18,1l2.37,1.2a16.31,16.31,0,0,1,1.83,1,18.34,18.34,0,0,1,3.9,3.87A21,21,0,0,1,111,30.35Z"/><path class="cls-10" d="M106.88,45.48c.18-.35.3-.74.49-1.09a1,1,0,0,0-.23,0,7,7,0,0,0-1.11.15,7.19,7.19,0,0,0-1.43.38c-.46.18-1.09.37-1.21.85a1.18,1.18,0,0,0,.23,1,1.64,1.64,0,0,0,.4.34h0A2.93,2.93,0,0,0,106.88,45.48Z"/><path class="cls-10" d="M103.33,45.52c0-.25.12-.5-.08-.67s-.42-.1-.64-.11c-.61-.06-1-.59-1.48-.9a3.75,3.75,0,0,0-1.86-.47c-.85,0-2.1.13-2.55,1a1.12,1.12,0,0,0-.13.6c.32.36.62.74,1,1.08a2.71,2.71,0,0,0,1.71.88l.41,0c.24,0,.49.08.73.12a3.13,3.13,0,0,0,1.79-.2A1.94,1.94,0,0,0,103.33,45.52Z"/><path class="cls-11" d="M102.71,45a.93.93,0,0,1,.29,0,.24.24,0,0,1,.14.25l-.06.1a.42.42,0,0,0,0,.55.52.52,0,0,0,.5.05,1.56,1.56,0,0,0,.71-.47,1.48,1.48,0,0,1,.24-.26,1.32,1.32,0,0,1,.44-.18c.16-.06.49-.25.43-.46a.2.2,0,0,0-.08-.12.79.79,0,0,0-.51-.15,8.36,8.36,0,0,0-2,0c-.19,0-.66.05-.6.33S102.53,45,102.71,45Z"/><path class="cls-11" d="M109.62,37.51a3.71,3.71,0,0,0-2,.14,2.73,2.73,0,0,0-.88.41,1.46,1.46,0,0,0-.57.77,2.72,2.72,0,0,0,2.12.31A1.82,1.82,0,0,0,109.62,37.51Z"/><path class="cls-11" d="M100.67,38.2a6.16,6.16,0,0,0-.66-.8,3,3,0,0,0-.94-.62,3.36,3.36,0,0,0-2.1-.16,5,5,0,0,0,.53,1.3,2,2,0,0,0,1.48.89A3,3,0,0,0,100.67,38.2Z"/><path class="cls-12" d="M110.25,32.09a6.65,6.65,0,0,0,2-1.59c.53-.7.76-1.57,1.25-2.3.73-1.1,2-1.77,2.82-2.78a1,1,0,0,0,.31-.92,1,1,0,0,0-.73-.51,4.77,4.77,0,0,0-1.25-.11,28.53,28.53,0,0,0-3.81.33,12.48,12.48,0,0,1-2.2.18,11.45,11.45,0,0,1-1.3-.13l-3.22-.42a1.87,1.87,0,0,0-.75,1,2,2,0,0,0,0,1.14,3,3,0,0,0,.83,1.17q1.68,1.66,3.35,3.35A5.05,5.05,0,0,0,110.25,32.09Z"/><path class="cls-13" d="M110.84,31.35a3,3,0,0,0,1.53-1.55,14.17,14.17,0,0,1,1-2c.71-.93,1.83-1.46,2.62-2.33.22-.23.41-.56.27-.84a.87.87,0,0,0-.71-.34,8.9,8.9,0,0,0-7.14,2.47A3.94,3.94,0,0,0,107.25,29a.71.71,0,0,0,.12.42A4.79,4.79,0,0,0,110.84,31.35Z"/><path class="cls-14" d="M99.78,27.15a2.42,2.42,0,0,0-.78-.93q-1.73-1.48-3.39-3a9.85,9.85,0,0,0-1.68-1.35,3.05,3.05,0,0,0-2.07-.43,1.86,1.86,0,0,0-1.49,1.39,3.51,3.51,0,0,0,0,.56c0,.79,0,1.58-.09,2.38a9.9,9.9,0,0,0,.21,4.6,1.27,1.27,0,0,0,.87.76,2.63,2.63,0,0,0,1.18-.1c.55-.15,1.1-.35,1.65-.49a19,19,0,0,0,2.37-.57,8,8,0,0,0,1-.52,7.14,7.14,0,0,0,1.32-.93A3.05,3.05,0,0,0,99.78,27.15Z"/><path class="cls-13" d="M90.82,24.3c0,.74.15,1.49.16,2.23,0,1.15-.26,2.37.26,3.39a.44.44,0,0,0,.17.21.48.48,0,0,0,.29.06,12.8,12.8,0,0,0,3.4-.66,4.68,4.68,0,0,0,1.16-.46c.34-.22.62-.53,1-.73.2-.12.43-.2.62-.33a.71.71,0,0,0,.35-.57A1,1,0,0,0,98,27l-.92-1.37a8.84,8.84,0,0,0-1-1.25c-.24-.24-.51-.45-.75-.69a7.74,7.74,0,0,0-1.79-1.6,2.29,2.29,0,0,0-2.13.1C90.87,22.57,90.8,23.65,90.82,24.3Z"/><path class="cls-15" d="M94.44,43.17A32.44,32.44,0,0,1,90.58,40l0,0A36.9,36.9,0,0,1,83,44.87c-1.44.69-1.31,1.77-1.78,3.21-.18.57-1.73,4.85-2.41,4.76.39,0,.78.09,1.17.11a2.21,2.21,0,0,0,.45-.28c.51-.42.93-1,1.45-1.36,1.67-1.28,4-1.08,6-1.62a10.76,10.76,0,0,0,6-4.64l1.05-1.58a11.6,11.6,0,0,1,1,.81A16.16,16.16,0,0,0,94.44,43.17Z"/><path class="cls-16" d="M84.47,46.46a33,33,0,0,1-3,5.94A12.37,12.37,0,0,0,80,55.19a10.44,10.44,0,0,0-.37,2.9c0,1.08-.06,2.16-.1,3.24-.09,3,.06,6.41,1.8,8.8a4.82,4.82,0,0,1,2.29-.25c1.44.2,2.89,1.37,2.75,2.81a2.76,2.76,0,0,1-2.09,2.18,8.15,8.15,0,0,1-3.19,0L79,74.66a3.5,3.5,0,0,1-1.4-.37,3.17,3.17,0,0,1-.91-1,35.62,35.62,0,0,1-3.84-8.13l-2.88-7.74c-.86-2.32-1.81-4.8-1.7-7.31.1-2.24,1.1-4.32,1.87-6.43A33.46,33.46,0,0,0,72,29.32c-.18-2-.34-4.35,1.06-5.8a5.68,5.68,0,0,1,5.73-1.19A10.43,10.43,0,0,1,83.64,26,15.71,15.71,0,0,1,87,38.35,46.68,46.68,0,0,1,84.47,46.46Z"/><g class="cls-17"><g class="cls-18"><path class="cls-10" d="M50,29.38c2.88-1.16,5-3.8,7.9-4.9a9.14,9.14,0,0,1,10.7,3.93A10.2,10.2,0,0,1,67.42,40a11.48,11.48,0,0,1-9.26,3.75c-4-.23-7.93.18-11.87-1.29a8.89,8.89,0,0,1-4.87-4.3c-1-1.75-1.8-5.11,0-6.65,2.05-1.71,6-1.08,8.41-2l.15-.06"/></g></g><path class="cls-19" d="M58.18,34.69,50.39,38a.43.43,0,0,1-.33-.79l7.79-3.32a2.52,2.52,0,1,0-2-4.63L44.94,33.93a1.17,1.17,0,0,0-.62,1.53l.51,1.19a1.17,1.17,0,0,0,1.54.61l9.16-3.9a1.17,1.17,0,1,0-.92-2.15l-7.37,3.14a.43.43,0,1,1-.33-.79l7.37-3.14a2,2,0,0,1,1.59,3.73l-9.17,3.9A2,2,0,0,1,44,37l-.5-1.18a2,2,0,0,1,1.07-2.66l10.93-4.66a3.37,3.37,0,1,1,2.64,6.21"/><path class="cls-20" d="M66.32,33.22l.17.1c.09,0,.08.22,0,.38l-3.77,6.45c-.09.16-.23.24-.31.2s-.08-.21,0-.37L66,33.43c.09-.16.24-.26.32-.21"/><path class="cls-19" d="M66.79,36.41h0L67.9,33l.85-.92-2.5-1.41-.36,1.19L63.5,34.54h0a3.6,3.6,0,0,0,1.34,1.28l.16.09a3.54,3.54,0,0,0,1.79.49Z"/><path class="cls-20" d="M68.75,32c-.09.15-.72,0-1.41-.44s-1.18-.82-1.09-1,.71,0,1.4.43,1.18.83,1.1,1"/><path class="cls-19" d="M67.9,33c-.07.12-.57,0-1.13-.35s-1-.67-.89-.79.58,0,1.14.35,1,.67.88.79"/><path class="cls-20" d="M54.15,39.84l-.09-.18c0-.09.06-.22.23-.3l6.8-3.11c.17-.07.33-.06.37,0s-.06.22-.22.29l-6.72,3.29c-.16.08-.33.08-.37,0"/><path class="cls-19" d="M55.6,37.27h0l-2.9,2.18-1.22.27,1.23,2.6,1-.78,3.54-.85h0a3.48,3.48,0,0,0-.36-1.81l-.08-.17a3.46,3.46,0,0,0-1.18-1.43h0"/><path class="cls-20" d="M51.48,39.41c.15-.07.55.45.89,1.17s.49,1.36.34,1.43-.56-.45-.9-1.17-.49-1.35-.33-1.43"/><path class="cls-19" d="M52.71,39.14c.12-.06.44.36.72.94s.39,1.1.27,1.16-.45-.37-.73-1-.39-1.09-.26-1.15"/></g></g></svg>