<svg xmlns="http://www.w3.org/2000/svg" xmlns:xlink="http://www.w3.org/1999/xlink" viewBox="0 0 120.59 81.86"><defs><style>.cls-1{fill:#dde2f0;}.cls-2{fill:url(#linear-gradient);}.cls-3{fill:url(#linear-gradient-2);}.cls-4{fill:url(#linear-gradient-3);}.cls-5{fill:url(#linear-gradient-4);}.cls-6{fill:url(#linear-gradient-5);}.cls-7{fill:url(#linear-gradient-6);}.cls-8{fill:url(#linear-gradient-7);}.cls-9{fill:url(#linear-gradient-8);}.cls-10{fill:#f8f4f0;}.cls-11{fill:#3d223e;}.cls-12{fill:#efb1ac;}.cls-13{fill:#d9c3ba;}.cls-14{fill:url(#linear-gradient-9);}.cls-15{fill:url(#linear-gradient-10);}.cls-16{fill:url(#linear-gradient-11);}.cls-17,.cls-18{opacity:0.56;}.cls-17{fill:url(#linear-gradient-12);}.cls-18{fill:url(#linear-gradient-13);}.cls-19{fill:#ab969e;}.cls-20{fill:none;stroke:#0a45b8;stroke-linecap:round;stroke-linejoin:round;stroke-width:2px;}</style><linearGradient id="linear-gradient" x1="13.33" y1="44.89" x2="114.96" y2="44.89" gradientUnits="userSpaceOnUse"><stop offset="0" stop-color="#ab969e"/><stop offset="0.03" stop-color="#b09ba1"/><stop offset="0.17" stop-color="#c2adac"/><stop offset="0.34" stop-color="#cfb9b4"/><stop offset="0.55" stop-color="#d7c1b9"/><stop offset="1" stop-color="#d9c3ba"/></linearGradient><linearGradient id="linear-gradient-2" x1="2.59" y1="63.74" x2="15.23" y2="51.09" gradientUnits="userSpaceOnUse"><stop offset="0" stop-color="#d9c3ba"/><stop offset="0.38" stop-color="#d6c0b8"/><stop offset="0.61" stop-color="#ceb8b3"/><stop offset="0.81" stop-color="#bfaaaa"/><stop offset="0.98" stop-color="#ab969e"/></linearGradient><linearGradient id="linear-gradient-3" x1="3.45" y1="54.44" x2="8.64" y2="63.43" gradientUnits="userSpaceOnUse"><stop offset="0" stop-color="#f8f4f0" stop-opacity="0"/><stop offset="0.09" stop-color="#f8f4f0" stop-opacity="0.03"/><stop offset="0.24" stop-color="#f8f4f0" stop-opacity="0.12"/><stop offset="0.41" stop-color="#f8f4f0" stop-opacity="0.26"/><stop offset="0.62" stop-color="#f8f4f0" stop-opacity="0.45"/><stop offset="0.83" stop-color="#f8f4f0" stop-opacity="0.7"/><stop offset="1" stop-color="#f8f4f0" stop-opacity="0.9"/></linearGradient><linearGradient id="linear-gradient-4" x1="41.77" y1="51.02" x2="48.75" y2="51.02" gradientUnits="userSpaceOnUse"><stop offset="0" stop-color="#ab969e" stop-opacity="0"/><stop offset="0.12" stop-color="#ab969e" stop-opacity="0.04"/><stop offset="0.28" stop-color="#ab969e" stop-opacity="0.13"/><stop offset="0.47" stop-color="#ab969e" stop-opacity="0.3"/><stop offset="0.67" stop-color="#ab969e" stop-opacity="0.53"/><stop offset="0.88" stop-color="#ab969e" stop-opacity="0.82"/><stop offset="1" stop-color="#ab969e"/></linearGradient><linearGradient id="linear-gradient-5" x1="58.51" y1="35.11" x2="58.51" y2="50.35" gradientUnits="userSpaceOnUse"><stop offset="0.34" stop-color="#ab969e" stop-opacity="0"/><stop offset="0.48" stop-color="#ab969e" stop-opacity="0.02"/><stop offset="0.58" stop-color="#ab969e" stop-opacity="0.07"/><stop offset="0.67" stop-color="#ab969e" stop-opacity="0.16"/><stop offset="0.76" stop-color="#ab969e" stop-opacity="0.29"/><stop offset="0.83" stop-color="#ab969e" stop-opacity="0.46"/><stop offset="0.91" stop-color="#ab969e" stop-opacity="0.66"/><stop offset="0.97" stop-color="#ab969e" stop-opacity="0.9"/><stop offset="1" stop-color="#ab969e"/></linearGradient><linearGradient id="linear-gradient-6" x1="25" y1="28.36" x2="30.92" y2="61.92" gradientUnits="userSpaceOnUse"><stop offset="0" stop-color="#ae3e42"/><stop offset="0.07" stop-color="#b65758"/><stop offset="0.18" stop-color="#c17876"/><stop offset="0.3" stop-color="#ca938f"/><stop offset="0.43" stop-color="#d0a8a2"/><stop offset="0.57" stop-color="#d5b7b0"/><stop offset="0.74" stop-color="#d8c0b8"/><stop offset="1" stop-color="#d9c3ba"/></linearGradient><linearGradient id="linear-gradient-7" x1="37.25" y1="40.8" x2="39.58" y2="27.56" gradientUnits="userSpaceOnUse"><stop offset="0" stop-color="#f8f4f0" stop-opacity="0"/><stop offset="0.14" stop-color="#f8f4f0" stop-opacity="0.03"/><stop offset="0.36" stop-color="#f8f4f0" stop-opacity="0.12"/><stop offset="0.63" stop-color="#f8f4f0" stop-opacity="0.26"/><stop offset="0.92" stop-color="#f8f4f0" stop-opacity="0.45"/><stop offset="1" stop-color="#f8f4f0" stop-opacity="0.5"/></linearGradient><linearGradient id="linear-gradient-8" x1="18.68" y1="42.26" x2="11.49" y2="29.82" xlink:href="#linear-gradient-7"/><linearGradient id="linear-gradient-9" x1="90.89" y1="50.04" x2="33.72" y2="50.04" gradientUnits="userSpaceOnUse"><stop offset="0.16" stop-color="#d9c3ba"/><stop offset="0.39" stop-color="#dac5bc" stop-opacity="0.98"/><stop offset="0.55" stop-color="#ddc9c1" stop-opacity="0.93"/><stop offset="0.7" stop-color="#e2d2ca" stop-opacity="0.85"/><stop offset="0.83" stop-color="#eaddd7" stop-opacity="0.73"/><stop offset="0.95" stop-color="#f3ece7" stop-opacity="0.58"/><stop offset="1" stop-color="#f8f4f0" stop-opacity="0.5"/></linearGradient><linearGradient id="linear-gradient-10" x1="83.44" y1="64.17" x2="72.32" y2="44.89" gradientUnits="userSpaceOnUse"><stop offset="0.16" stop-color="#d9c3ba"/><stop offset="0.44" stop-color="#dbc6bd"/><stop offset="0.64" stop-color="#e0cec6"/><stop offset="0.82" stop-color="#e9dcd6"/><stop offset="0.97" stop-color="#f5f0ec"/><stop offset="1" stop-color="#f8f4f0"/></linearGradient><linearGradient id="linear-gradient-11" x1="94.35" y1="68.83" x2="109.03" y2="43.4" gradientUnits="userSpaceOnUse"><stop offset="0" stop-color="#ab969e"/><stop offset="0.05" stop-color="#af9aa0"/><stop offset="0.4" stop-color="#c6b1af"/><stop offset="0.72" stop-color="#d4beb7"/><stop offset="1" stop-color="#d9c3ba"/></linearGradient><linearGradient id="linear-gradient-12" x1="77.09" y1="53.35" x2="76.61" y2="56.08" gradientUnits="userSpaceOnUse"><stop offset="0" stop-color="#ab969e" stop-opacity="0"/><stop offset="0.22" stop-color="#ab969e" stop-opacity="0.02"/><stop offset="0.37" stop-color="#ab969e" stop-opacity="0.07"/><stop offset="0.51" stop-color="#ab969e" stop-opacity="0.16"/><stop offset="0.63" stop-color="#ab969e" stop-opacity="0.29"/><stop offset="0.75" stop-color="#ab969e" stop-opacity="0.46"/><stop offset="0.86" stop-color="#ab969e" stop-opacity="0.66"/><stop offset="0.96" stop-color="#ab969e" stop-opacity="0.9"/><stop offset="1" stop-color="#ab969e"/></linearGradient><linearGradient id="linear-gradient-13" x1="64.35" y1="51.02" x2="64.35" y2="52.93" gradientUnits="userSpaceOnUse"><stop offset="0" stop-color="#ab969e" stop-opacity="0"/><stop offset="0.28" stop-color="#ab969e" stop-opacity="0.01"/><stop offset="0.43" stop-color="#ab969e" stop-opacity="0.06"/><stop offset="0.56" stop-color="#ab969e" stop-opacity="0.14"/><stop offset="0.67" stop-color="#ab969e" stop-opacity="0.26"/><stop offset="0.76" stop-color="#ab969e" stop-opacity="0.4"/><stop offset="0.85" stop-color="#ab969e" stop-opacity="0.59"/><stop offset="0.94" stop-color="#ab969e" stop-opacity="0.8"/><stop offset="1" stop-color="#ab969e"/></linearGradient></defs><title>Ресурс 49600</title><g id="Слой_2" data-name="Слой 2"><g id="Illustration"><path class="cls-1" d="M57.11.14A43.92,43.92,0,0,1,78,3.51,45.52,45.52,0,0,1,99.21,21.66c10.21,17,11.28,44-2.12,52.54s-29.36,0-31.49-1.06-16.59-6.38-23-.64-6.17,9.36-11.27,9.36S11.36,71,12,43.15c.32-14,7.49-26.15,19.1-33.8A55.3,55.3,0,0,1,57.11.14Z"/><path class="cls-2" d="M109.12,54.63c3.15-1.64,6.9-4.42,5.55-8.43a8.34,8.34,0,0,0-1.79-2.83c-4.45-5.11-10.65-8.44-17.09-10.53a34.27,34.27,0,0,0-5.65-1.39A36.14,36.14,0,0,0,84,31.19a17.82,17.82,0,0,1-5-.69,26.27,26.27,0,0,0-4.27-.38,56.44,56.44,0,0,0-12.86,0c-2.64.41-5.23,1.19-7.89,1.36a32.43,32.43,0,0,0-3.27.21c-1.56.25-3,.94-4.56,1.32A7,7,0,0,1,42,32.74a26.67,26.67,0,0,0-4-.54A21.27,21.27,0,0,0,30,32.12c-2.86.71-5.3,2.58-8.08,3.56a14.25,14.25,0,0,0-7.67,7.2,9.74,9.74,0,0,0-.88,5.34c.18,1.55,1,3.09,1,4.64a4.53,4.53,0,0,0,1.07,3.29c.64.78,1.39,1.46,2,2.27a5.23,5.23,0,0,0,1,1.19c1.26.92,2.13.18,3.32-.26a21.77,21.77,0,0,1,4.84-1.1,51.2,51.2,0,0,1,10-.14c5.11.32,10.25.92,15.32.26,1.7-.23,3.59-.57,5.29-.79,7.06-.92,14.21.52,21.32.25,4.19-.16,8.38-.07,12.57-.16a80.78,80.78,0,0,0,12.23-1.18,18.11,18.11,0,0,0,5.36-1.65Z"/><path class="cls-3" d="M9.23,49.82c-1.62,1.51-2.64,3.78-4.7,4.6a10.46,10.46,0,0,0-2.76,1A4,4,0,0,0,.7,57a5.54,5.54,0,0,0-.42,4.27,2.88,2.88,0,0,0,3.59,1.12.76.76,0,0,1,.36-.11.86.86,0,0,1,.33.11A3.57,3.57,0,0,0,7.79,62c1-.51,2.07.05,3.1.2,1.37.21,1.86-.78,2.75-1.53,1.07-.89,2.42-1.34,3.45-2.34a2.07,2.07,0,0,0,.74-1.21,2.21,2.21,0,0,0-.13-.84,18.41,18.41,0,0,0-2-4.43,30.19,30.19,0,0,0-3-3.3c-.6-.69-1-.5-1.7-.08A9.57,9.57,0,0,0,9.23,49.82Z"/><path class="cls-4" d="M12.38,58a3.54,3.54,0,0,0-.47-1.27,3.75,3.75,0,0,0-1.07-1q-.6-.41-1.23-.75a8.57,8.57,0,0,0-1.1-.62A5.55,5.55,0,0,0,6,54.18a14.75,14.75,0,0,0-1.61.31,8.25,8.25,0,0,0-2.57.95A4,4,0,0,0,.7,57a5.54,5.54,0,0,0-.42,4.27,2.88,2.88,0,0,0,3.59,1.12.76.76,0,0,1,.36-.11.86.86,0,0,1,.33.11A3.57,3.57,0,0,0,7.79,62a3.42,3.42,0,0,1,2.4,0,1.78,1.78,0,0,0,1.12-.18,2.1,2.1,0,0,0,.79-1A4.88,4.88,0,0,0,12.38,58Z"/><path class="cls-5" d="M44.67,50c.6.76,1.33,1.41,2,2.13a27.86,27.86,0,0,1,2.1,2.73c-2.32.12-4.65.12-7,0a7,7,0,0,0,.31-1.17,16.15,16.15,0,0,0,.14-2.2c0-.7.08-1.41.16-2.11,0-.36.08-.73.13-1.09s0-.78.2-1c.42-.54.73.67.89,1A11.56,11.56,0,0,0,44.67,50Z"/><path class="cls-6" d="M60.12,50.35c-.8-.94-1.5-2-2.31-2.89s-1.61-1.64-2.31-2.54a9.34,9.34,0,0,1-1.66-7.63A4.73,4.73,0,0,1,55,35.11c0,2,1.68,3.85,3.17,5a11.31,11.31,0,0,0,2.52,1.51,18.42,18.42,0,0,0,2.73.77c-.07.94-1,1.52-1.69,2.15C60,46.11,59.8,48.22,60.12,50.35Z"/><path class="cls-7" d="M45.85,45.89c-.29-1.08-.77-2.1-1-3.19-.22-.85-.31-1.74-.58-2.58a5.69,5.69,0,0,0-1.3-2.07c0-.7.1-1.4.11-2.1s0-1.36-.08-2-.11-1.61-.17-2.41a13.43,13.43,0,0,0-.35-2.61c-.12-.43-.37-.91-.81-1a1.3,1.3,0,0,0-.66.15,16.05,16.05,0,0,0-6.63,5.68,17.72,17.72,0,0,0-3.26-.11,34.44,34.44,0,0,0-10,1.84,4.4,4.4,0,0,0-.65-.26,33.88,33.88,0,0,1-4.95-2.34,15,15,0,0,0-5.15-1.8C9.86,31,9,31,8.69,31.59a3.91,3.91,0,0,0,.18,2.31c.7,2.56,2,4.91,3,7.39a15.29,15.29,0,0,0,.58,1.46,3.7,3.7,0,0,0,.25.43,10.12,10.12,0,0,0-.57,2.06L11.64,48c-.31,1.84-.6,3.79.16,5.49a11.26,11.26,0,0,0,3.93,4.27A10.48,10.48,0,0,1,17.17,59c.55.61,1,1.28,1.56,1.84a3.79,3.79,0,0,0,2.21,1c.52.06,1,.07,1.56.08a19,19,0,0,0,2.39,0,3.48,3.48,0,0,1,.72,0,4,4,0,0,1,.68.19,6.67,6.67,0,0,0,3.29.22,18,18,0,0,0,2.07-.71c.87-.26,1.81-.32,2.69-.57a19,19,0,0,0,4.26-1.79,32.51,32.51,0,0,0,3.75-2.75A10.18,10.18,0,0,0,45.85,45.89Z"/><path class="cls-8" d="M42.7,41.42a15.56,15.56,0,0,0,.23-3.35c0-.71.1-1.41.11-2.12s0-1.36-.08-2-.11-1.61-.17-2.41a13.43,13.43,0,0,0-.35-2.61c-.12-.43-.37-.91-.81-1a1.3,1.3,0,0,0-.66.15,17,17,0,0,0-8.47,9,3.81,3.81,0,0,0-.31.79,5.44,5.44,0,0,0,2.46,1.95A20.36,20.36,0,0,0,42.7,41.42Z"/><path class="cls-9" d="M20.52,39.53a8.53,8.53,0,0,0,1.1-2.62,1.54,1.54,0,0,0,0-.95,1.75,1.75,0,0,0-1.14-.74,33.88,33.88,0,0,1-4.95-2.34,15,15,0,0,0-5.15-1.8C9.86,31,9,31,8.69,31.59a3.91,3.91,0,0,0,.18,2.31c.7,2.56,2,4.91,3,7.39a15.29,15.29,0,0,0,.58,1.46,12.62,12.62,0,0,0,1.18,1.88A6.62,6.62,0,0,0,17.13,43,15.33,15.33,0,0,0,20.52,39.53Z"/><path class="cls-10" d="M26.51,56.36a3.09,3.09,0,0,0-1.32,0c-.65.09-1.28.26-1.93.34a10.69,10.69,0,0,1-2,.09c-.61,0-1.22-.09-1.83-.05a3,3,0,0,0-1.7.57,1.51,1.51,0,0,0-.54,1.56,2.49,2.49,0,0,0,.11.29,18.23,18.23,0,0,0,1.39,1.64,3.79,3.79,0,0,0,2.21,1c.52.06,1,.07,1.56.08a19,19,0,0,0,2.39,0,2.22,2.22,0,0,0,.45-.05A2.64,2.64,0,0,0,26.45,61a3.15,3.15,0,0,0,.87-1.3,2.4,2.4,0,0,0,.06-.6,13.68,13.68,0,0,0-.05-1.81A1.1,1.1,0,0,0,26.51,56.36Z"/><path class="cls-10" d="M34.87,60.79a11,11,0,0,1-3.49.36,5.84,5.84,0,0,1-.93-.08,4.1,4.1,0,0,1-1-.35A4.85,4.85,0,0,1,28.26,60a2.33,2.33,0,0,1-.76-1.14,3.49,3.49,0,0,1,0-1.25,1.88,1.88,0,0,1,.89-1.42,3.69,3.69,0,0,1,2-.2c1.63,0,3.15-.8,4.76-1a6.23,6.23,0,0,1,1.22-.05,1.57,1.57,0,0,1,.49.08,1.39,1.39,0,0,1,.72.75,3.26,3.26,0,0,1,.22,2.11,4.33,4.33,0,0,1-1,1.89,2.65,2.65,0,0,1-1.12.78Z"/><path class="cls-11" d="M29.1,56.51H29c-.23,0-.7,0-.88.17s-.12.43-.11.67a1.25,1.25,0,0,1-.4.94.59.59,0,0,1-.2.12.52.52,0,0,1-.38-.1,1.16,1.16,0,0,1-.47-.66c-.07-.25-.06-.56-.25-.75s-.48-.2-.78-.18a.64.64,0,0,1-.43-.07.52.52,0,0,1-.07-.81.65.65,0,0,1,.33-.14,6.73,6.73,0,0,1,1.27-.09c.45,0,.9,0,1.35-.06s1-.1,1.26.25S29.47,56.43,29.1,56.51Z"/><path class="cls-11" d="M23.18,51.35a3.86,3.86,0,0,1-5.3-2.52,3.9,3.9,0,0,1,3.14,0A4.41,4.41,0,0,1,23.18,51.35Z"/><path class="cls-11" d="M31.24,50.8a3.86,3.86,0,0,0,5.3-2.52,3.9,3.9,0,0,0-3.14,0A4.37,4.37,0,0,0,31.24,50.8Z"/><path class="cls-12" d="M41.43,40.11c.41-.23.48-1.42.54-1.8a24.69,24.69,0,0,0,.32-3.85c0-.66,0-1.31,0-2A13.46,13.46,0,0,0,42,30.84a3.47,3.47,0,0,0-.35-1.2.85.85,0,0,0-.23-.27.75.75,0,0,0-.64,0,3.31,3.31,0,0,0-1,.57,16.43,16.43,0,0,0-3.67,3.68,16.64,16.64,0,0,0-1.38,2.24c-.2.39-.38.79-.55,1.2s-.22.59.2.94A8.45,8.45,0,0,0,37.7,39.6c.61.15,1.23.26,1.85.35l.91.12a2.55,2.55,0,0,0,.91.07Z"/><path class="cls-12" d="M18.58,39.46a2.67,2.67,0,0,0,0-3.47,4.91,4.91,0,0,0-1.05-.87,23.42,23.42,0,0,0-6.64-3,1.73,1.73,0,0,0-.75-.1,1,1,0,0,0-.81.7,3,3,0,0,0,.31,2l.83,2a8.67,8.67,0,0,0,.36.83c.43.85,1.1,1.56,1.49,2.42.24.55.37,1.14.56,1.7a3.29,3.29,0,0,0,.93,1.5c.28.23.62-.11.93-.29A16.57,16.57,0,0,0,18.58,39.46Z"/><path class="cls-13" d="M76.23,62.1c-6.88,1.46-14,.72-21,1.64-1.78.23-3.55.58-5.34.64a32.49,32.49,0,0,0-3.56.12c-.81.11-1.61.35-2.42.41-1.13.1-2.27-.13-3.4,0-.85.07-1.67.3-2.51.33a4.39,4.39,0,0,1-3.67-1.71,3.51,3.51,0,0,1,0-4A3.7,3.7,0,0,1,36.68,56a7.85,7.85,0,0,0,1.87-.67,9,9,0,0,0,.94-.91,7,7,0,0,1,3.92-1.5,17.83,17.83,0,0,1,3.72-.27c.75,0,1.49.16,2.24.25a64.81,64.81,0,0,0,8,.37,18.15,18.15,0,0,0,2.33-.08l1.83-.25s-.2-.2-.24-.22a2.17,2.17,0,0,0-.3-.23,3.81,3.81,0,0,1-.43-.37,5.81,5.81,0,0,1-.74-.9A6.28,6.28,0,0,1,59,49,5.46,5.46,0,0,1,59,46.48a9.24,9.24,0,0,1,2.54-3.83,27.59,27.59,0,0,1,13.7-7.44A14.29,14.29,0,0,1,83.9,36a12,12,0,0,1,6.27,6,6.75,6.75,0,0,1,.34,5.19,9.46,9.46,0,0,1-2.87,3.4c-2,1.68-4,3.4-6.59,3.85-.72.14-1.47.16-2.18.36a2.58,2.58,0,0,0-1.71,1.28A4.24,4.24,0,0,0,77,58,13.4,13.4,0,0,1,76.23,62.1Z"/><path class="cls-14" d="M76.23,62.1c-6.88,1.46-14,.72-21,1.64-1.78.23-3.55.58-5.34.64a32.49,32.49,0,0,0-3.56.12c-.81.11-1.61.35-2.42.41-1.13.1-2.27-.13-3.4,0-.85.07-1.67.3-2.51.33a4.39,4.39,0,0,1-3.67-1.71,3.51,3.51,0,0,1,0-4A3.7,3.7,0,0,1,36.68,56a7.85,7.85,0,0,0,1.87-.67,9,9,0,0,0,.94-.91,7,7,0,0,1,3.92-1.5,17.83,17.83,0,0,1,3.72-.27c.75,0,1.49.16,2.24.25a64.81,64.81,0,0,0,8,.37,18.15,18.15,0,0,0,2.33-.08l1.83-.25s-.2-.2-.24-.22a2.17,2.17,0,0,0-.3-.23,3.81,3.81,0,0,1-.43-.37,5.81,5.81,0,0,1-.74-.9A6.28,6.28,0,0,1,59,49,5.46,5.46,0,0,1,59,46.48a9.24,9.24,0,0,1,2.54-3.83,27.59,27.59,0,0,1,13.7-7.44A14.29,14.29,0,0,1,83.9,36a12,12,0,0,1,6.27,6,6.75,6.75,0,0,1,.34,5.19,9.46,9.46,0,0,1-2.87,3.4c-2,1.68-4,3.4-6.59,3.85-.72.14-1.47.16-2.18.36a2.58,2.58,0,0,0-1.71,1.28A4.24,4.24,0,0,0,77,58,13.4,13.4,0,0,1,76.23,62.1Z"/><path class="cls-15" d="M91.57,56.88c.47-.05,1-.12,1.42-.2a26.83,26.83,0,0,0,10.18-4c1.16-.76,2.66-1.67,2.6-3.28a7.92,7.92,0,0,0-2.3-5,13.06,13.06,0,0,0-6-3.23c-5.74-1.52-12-.66-17.7.32-.52.09-1,.18-1.54.32a10.82,10.82,0,0,0-2.82,1.37,11.88,11.88,0,0,0-3.89,3.77,6.21,6.21,0,0,0-.63,5.25,9.15,9.15,0,0,0,1,1.76l.93,1.46a21.91,21.91,0,0,1-7.87,0,6.36,6.36,0,0,0-2,0c-.27,0-.53.14-.8.17a7.59,7.59,0,0,1-1.71-.13,4.85,4.85,0,0,0-2.46.45c-.4.19-.77.44-1.18.62-.7.3-1.47.38-2.18.65a4.86,4.86,0,0,0-2.7,2.73,6,6,0,0,0-.17,3.87,3.68,3.68,0,0,0,1.85,2.5,4.82,4.82,0,0,0,1.31.31c.93.13,1.87.27,2.81.32.75.05,1.46-.08,2.19-.07a53.06,53.06,0,0,0,5.34-.54c.74,0,1.49,0,2.24-.06,1.41-.1,2.78-.5,4.18-.65.9-.1,1.79-.09,2.69-.12a37.06,37.06,0,0,0,8.25-1.17c1.11-.28,2.1-.38,2.64-1.46a4.47,4.47,0,0,0-.24-3.59,1,1,0,0,1-.08-.78.92.92,0,0,1,.48-.38C87.23,57.14,89.44,57.13,91.57,56.88Z"/><path class="cls-16" d="M81.59,61.07a9.78,9.78,0,0,0,2.31,1.72c8.66,4.42,24.49,3.78,32.68-.09a10.38,10.38,0,0,0,2-1.08l.39-.34a6.58,6.58,0,0,0,1.66-4.77c0-3.72-1-8.42-5.35-9a.5.5,0,0,0-.38.07.44.44,0,0,0-.11.3,4.07,4.07,0,0,1-.52,1.93,10.58,10.58,0,0,1-2.59,2.58c-4.48,3.51-10.34,4.82-15.94,4.58-2.33-.1-4.66-.38-7-.7s-4.58-.8-6.85.07a2.55,2.55,0,0,0-1.32,1.05C79.82,58.66,80.54,60,81.59,61.07Z"/><path class="cls-17" d="M77.53,53.46a17.64,17.64,0,0,0-6.23-.34c.16.28.33.55.51.82l.93,1.45a41.1,41.1,0,0,1,4.44,0,15.34,15.34,0,0,1,5.19,1.14A7.53,7.53,0,0,0,77.53,53.46Z"/><path class="cls-18" d="M59.9,51.31a5.25,5.25,0,0,0,.67.81,3.81,3.81,0,0,0,.43.37,2.17,2.17,0,0,1,.3.23s.2.21.24.21c1.52-.14,3-.5,4.53-.75a16.59,16.59,0,0,1,2.73-.24,3.19,3.19,0,0,0-1.11-.46A14.27,14.27,0,0,0,63,51.06c-.68,0-1.36.15-2,.21C60.61,51.3,60.25,51.31,59.9,51.31Z"/><path class="cls-19" d="M44,63.19a4,4,0,0,1-2.23.76,25.73,25.73,0,0,1-3.24-.53,17,17,0,0,1-2-.19A1.86,1.86,0,0,1,35.09,62c-.17-.7.27-1.39.36-2.1,0-.31,0-.63.07-.93a2,2,0,0,1,.81-1.14,5,5,0,0,1,1.27-.61,5.69,5.69,0,0,0,2.1-1,8,8,0,0,1,.78-.64,3.08,3.08,0,0,1,1.37-.37,2.85,2.85,0,0,1,1.61.22,13,13,0,0,1,1.16,1,8.35,8.35,0,0,0,1.3.66,1.87,1.87,0,0,1,1,1c.21.66-.21,1.36-.24,2a7.65,7.65,0,0,1,.06,1.58,1.93,1.93,0,0,1-1.18,1.17C45,63,44.5,62.85,44,63.19Z"/><path class="cls-19" d="M53.21,62.58c.24-.2.52-.35.74-.57.38-.4.52-1,.93-1.35.7-.62,1.82-.32,2.7-.66a5.23,5.23,0,0,0,.7-.37,5.9,5.9,0,0,1,2-.81,3.46,3.46,0,0,1,2.13.24,5.63,5.63,0,0,1,2.06,2.16,3.7,3.7,0,0,1,.79,1.87,2.43,2.43,0,0,1-1.24,2,6,6,0,0,1-2.38.73c-.92.13-1.86.2-2.79.24A4.46,4.46,0,0,1,57.22,66c-.3-.1-.59-.26-.89-.36A12.38,12.38,0,0,0,55,65.3a4,4,0,0,1-1.39-.66C52.93,64.16,52.45,63.21,53.21,62.58Z"/><path class="cls-20" d="M27.44,2.3c0,2.51-2,2.51-2,5s2,2.51,2,5-2,2.52-2,5,2,2.52,2,5-2,2.52-2,5"/><path class="cls-20" d="M19.17,9.16c0,1.83-2,1.83-2,3.66s2,1.83,2,3.66-2,1.83-2,3.66,2,1.83,2,3.66-2,1.84-2,3.67"/><path class="cls-20" d="M35.7,9.16c0,1.83-2,1.83-2,3.66s2,1.83,2,3.66-2,1.83-2,3.66,2,1.83,2,3.66-2,1.84-2,3.67"/></g></g></svg>