<svg xmlns="http://www.w3.org/2000/svg" xmlns:xlink="http://www.w3.org/1999/xlink" viewBox="0 0 112.42 90.71"><defs><style>.cls-1{fill:#dde2f0;}.cls-2{fill:url(#linear-gradient);}.cls-3{fill:#d9c3ba;}.cls-4{fill:#f0bad6;}.cls-5{fill:#ab969e;}.cls-6{fill:url(#linear-gradient-2);}.cls-7{fill:url(#linear-gradient-3);}.cls-8{fill:#3d223e;}.cls-9{fill:#f8f4f0;}.cls-10{fill:url(#linear-gradient-4);}.cls-11{fill:url(#linear-gradient-5);}.cls-12{fill:url(#linear-gradient-6);}.cls-13{fill:url(#linear-gradient-7);}.cls-14{fill:url(#linear-gradient-8);}.cls-15{fill:url(#linear-gradient-9);}.cls-16{fill:url(#linear-gradient-10);}.cls-17{fill:none;stroke:#0a45b8;stroke-linecap:round;stroke-linejoin:round;stroke-width:2px;}</style><linearGradient id="linear-gradient" x1="19.96" y1="24.99" x2="-8.46" y2="74.2" gradientUnits="userSpaceOnUse"><stop offset="0.31" stop-color="#d9c3ba"/><stop offset="0.42" stop-color="#d4beb7"/><stop offset="0.56" stop-color="#c6b1af"/><stop offset="0.7" stop-color="#af9aa0"/><stop offset="0.72" stop-color="#ab969e"/></linearGradient><linearGradient id="linear-gradient-2" x1="80.67" y1="34.09" x2="96.32" y2="38.29" gradientUnits="userSpaceOnUse"><stop offset="0.39" stop-color="#d9c3ba"/><stop offset="0.77" stop-color="#bea8a9"/><stop offset="1" stop-color="#ab969e"/></linearGradient><linearGradient id="linear-gradient-3" x1="91.51" y1="74.9" x2="62.97" y2="25.46" gradientUnits="userSpaceOnUse"><stop offset="0" stop-color="#f8f4f0"/><stop offset="0.03" stop-color="#f5f0eb"/><stop offset="0.22" stop-color="#e9dcd5"/><stop offset="0.43" stop-color="#e0cec6"/><stop offset="0.66" stop-color="#dbc6bd"/><stop offset="1" stop-color="#d9c3ba"/></linearGradient><linearGradient id="linear-gradient-4" x1="89.06" y1="15" x2="92.33" y2="27.21" gradientUnits="userSpaceOnUse"><stop offset="0" stop-color="#f8f4f0"/><stop offset="0.16" stop-color="#efe6e0"/><stop offset="0.45" stop-color="#e3d3cb"/><stop offset="0.74" stop-color="#dbc7be"/><stop offset="1" stop-color="#d9c3ba"/></linearGradient><linearGradient id="linear-gradient-5" x1="35.11" y1="13.97" x2="51.83" y2="76.36" xlink:href="#linear-gradient"/><linearGradient id="linear-gradient-6" x1="26.36" y1="32.51" x2="42.69" y2="48.84" gradientUnits="userSpaceOnUse"><stop offset="0" stop-color="#ab969e" stop-opacity="0"/><stop offset="0.16" stop-color="#ab969e" stop-opacity="0.02"/><stop offset="0.31" stop-color="#ab969e" stop-opacity="0.09"/><stop offset="0.46" stop-color="#ab969e" stop-opacity="0.2"/><stop offset="0.61" stop-color="#ab969e" stop-opacity="0.36"/><stop offset="0.76" stop-color="#ab969e" stop-opacity="0.57"/><stop offset="0.91" stop-color="#ab969e" stop-opacity="0.82"/><stop offset="1" stop-color="#ab969e"/></linearGradient><linearGradient id="linear-gradient-7" x1="48.46" y1="32.76" x2="52.99" y2="35.37" gradientUnits="userSpaceOnUse"><stop offset="0" stop-color="#f8f4f0" stop-opacity="0.8"/><stop offset="0.02" stop-color="#f8f4f0" stop-opacity="0.75"/><stop offset="0.1" stop-color="#f8f4f0" stop-opacity="0.57"/><stop offset="0.19" stop-color="#f8f4f0" stop-opacity="0.42"/><stop offset="0.28" stop-color="#f8f4f0" stop-opacity="0.29"/><stop offset="0.38" stop-color="#f8f4f0" stop-opacity="0.18"/><stop offset="0.48" stop-color="#f8f4f0" stop-opacity="0.1"/><stop offset="0.61" stop-color="#f8f4f0" stop-opacity="0.04"/><stop offset="0.75" stop-color="#f8f4f0" stop-opacity="0.01"/><stop offset="1" stop-color="#f8f4f0" stop-opacity="0"/></linearGradient><linearGradient id="linear-gradient-8" x1="44.75" y1="31.13" x2="47.69" y2="32.82" gradientUnits="userSpaceOnUse"><stop offset="0" stop-color="#f8f4f0" stop-opacity="0.8"/><stop offset="0.02" stop-color="#f8f4f0" stop-opacity="0.76"/><stop offset="0.1" stop-color="#f8f4f0" stop-opacity="0.58"/><stop offset="0.19" stop-color="#f8f4f0" stop-opacity="0.42"/><stop offset="0.28" stop-color="#f8f4f0" stop-opacity="0.29"/><stop offset="0.38" stop-color="#f8f4f0" stop-opacity="0.19"/><stop offset="0.49" stop-color="#f8f4f0" stop-opacity="0.1"/><stop offset="0.61" stop-color="#f8f4f0" stop-opacity="0.04"/><stop offset="0.76" stop-color="#f8f4f0" stop-opacity="0.01"/><stop offset="1" stop-color="#f8f4f0" stop-opacity="0"/></linearGradient><linearGradient id="linear-gradient-9" x1="40.96" y1="29" x2="43.75" y2="30.61" gradientUnits="userSpaceOnUse"><stop offset="0" stop-color="#f8f4f0" stop-opacity="0.8"/><stop offset="0.01" stop-color="#f8f4f0" stop-opacity="0.77"/><stop offset="0.1" stop-color="#f8f4f0" stop-opacity="0.59"/><stop offset="0.19" stop-color="#f8f4f0" stop-opacity="0.43"/><stop offset="0.28" stop-color="#f8f4f0" stop-opacity="0.3"/><stop offset="0.38" stop-color="#f8f4f0" stop-opacity="0.19"/><stop offset="0.5" stop-color="#f8f4f0" stop-opacity="0.1"/><stop offset="0.62" stop-color="#f8f4f0" stop-opacity="0.05"/><stop offset="0.77" stop-color="#f8f4f0" stop-opacity="0.01"/><stop offset="1" stop-color="#f8f4f0" stop-opacity="0"/></linearGradient><linearGradient id="linear-gradient-10" x1="42.79" y1="76.78" x2="17" y2="32.11" xlink:href="#linear-gradient-3"/></defs><title>Ресурс 39600</title><g id="Слой_2" data-name="Слой 2"><g id="Illustration"><path class="cls-1" d="M53.19,9A44.2,44.2,0,0,1,74,12.36,45.63,45.63,0,0,1,95.3,30.51c10.21,17,11.27,44-2.13,52.54s-29.35,0-31.48-1.06-16.59-6.38-23-.64-6.17,9.36-11.28,9.36S7.45,79.86,8.09,52c.32-14,7.49-26.15,19.1-33.8A55.26,55.26,0,0,1,53.19,9Z"/><path class="cls-2" d="M13.75,21.58c-2,1.3-4.42,2.06-6.34,3.54C4.09,27.67,2.67,32,1.73,36A64.55,64.55,0,0,0,0,50.68c0,5,.91,9.91,1.36,14.86a51,51,0,0,1,.23,6.88,15.68,15.68,0,0,1-.33,3.21C1,76.53.37,77.26.18,78.17a1.2,1.2,0,0,0,.56,1.34A1.18,1.18,0,0,0,1.9,79.3a3,3,0,0,0,.72-1C4.9,74,5.13,68.8,5,64c-.25-7.55-1.68-15.5,0-23a15.48,15.48,0,0,1,3.38-6.53,41.88,41.88,0,0,0,4.52-5.87,8.77,8.77,0,0,0,1-7.12"/><path class="cls-3" d="M105.52,18.63c.5-.22,1-.47,1.47-.71A36.82,36.82,0,0,1,112,15.87a.4.4,0,0,1,.19,0c.23,0,.22.38.12.6a8.88,8.88,0,0,1-2,2.48,5.65,5.65,0,0,0-1.7,2.68c-.18.91.07,1.88-.2,2.77a5.14,5.14,0,0,1-1.8,2.24.88.88,0,0,1-.48.26c-.32,0-.57-.25-.76-.51q-1.62-2.18-3.42-4.22c-.52-.59-1.15-1.12-1.65-1.72s.21-.8.75-.82A11.76,11.76,0,0,0,105.52,18.63Z"/><path class="cls-4" d="M110.33,18.93a8.88,8.88,0,0,0,2-2.48.67.67,0,0,0,0-.44,4.67,4.67,0,0,0-1.37.34,14,14,0,0,0-2.75,1.42,17.49,17.49,0,0,0-2.41,2.06,4.89,4.89,0,0,0-1.72,2.66,4.49,4.49,0,0,0,.35,2.78,2.61,2.61,0,0,0,2.26,1.47h.08a.23.23,0,0,0,.08-.11c.42-.83,1.25-1.31,1.52-2.24s0-1.86.2-2.77A5.65,5.65,0,0,1,110.33,18.93Z"/><path class="cls-5" d="M67.12,45.11c-.44,2.63-.87,5.26-1.11,7.91a51.59,51.59,0,0,0-.18,6.81A15.76,15.76,0,0,0,67.5,67.2a2,2,0,0,0,.79.87,2.78,2.78,0,0,0,1,.19,2.6,2.6,0,0,1,2.27,1.22,2.16,2.16,0,0,1,.17.76,2.83,2.83,0,0,1-.33,1.64,1.64,1.64,0,0,1-1.28.91,11.5,11.5,0,0,1-2.75,0A3.88,3.88,0,0,1,65,71.5c-.64-.78-.84-1.87-1.55-2.6a14.81,14.81,0,0,1-1.26-1.1,3.68,3.68,0,0,1-.58-2l-.25-3-.18-2.14c-.18-2.11-.35-4.21-.65-6.31a29.5,29.5,0,0,0-1.38-6,19.14,19.14,0,0,0-1.8-3.17,2.26,2.26,0,0,1-.3-.65,1.57,1.57,0,0,1,.11-.83,4,4,0,0,1,2.18-2.23,7.55,7.55,0,0,1,3.12-.57,6.32,6.32,0,0,1,3.47.87A3.5,3.5,0,0,1,67.12,45.11Z"/><path class="cls-6" d="M95.91,35.33a75,75,0,0,0-3.52-7.14,16.18,16.18,0,0,1-2.08-7.6,5.33,5.33,0,0,0-3.63.19,11,11,0,0,0-3,1.95A15.28,15.28,0,0,1,84,24.87c.26,3.32.06,6.91.8,10.17a10.68,10.68,0,0,1-3.23,10.14c-1.5,1.34-3.41,2.28-4.52,4l0,.06c.37,0,.75,0,1.12,0A9.25,9.25,0,0,0,85,45c.42-.64.77-1.34,1.24-1.94C88,40.82,91.15,40.2,94,40.19a2.29,2.29,0,0,0,2.25-1.68A5,5,0,0,0,95.91,35.33Z"/><path class="cls-7" d="M82.37,77.38a10.07,10.07,0,0,0-1.47-1.45A3.3,3.3,0,0,0,79,75.25c-.55,0-1.08.19-1.63.23a.62.62,0,0,1-.4,0,.81.81,0,0,1-.28-.3,13.21,13.21,0,0,0-1.52-1.82,3.29,3.29,0,0,1-.68-.81,2.72,2.72,0,0,1-.2-.63,26.37,26.37,0,0,1-.37-4.53c-.08-1.71-.3-3.41-.41-5.12a17.83,17.83,0,0,1,.39-5.69,41.89,41.89,0,0,1,2.29-5.66A11.86,11.86,0,0,1,77,49.2l0-.06c1.11-1.68,3-2.62,4.52-4A10.68,10.68,0,0,0,84.79,35c-.74-3.26-.54-6.85-.8-10.17a15.28,15.28,0,0,0-.28-2.14l-.18.16a7.4,7.4,0,0,1-1.69-1,9.19,9.19,0,0,0-5.2-1.4,26.72,26.72,0,0,0-5.4.76c-.44.1-.88.18-1.33.24a6.83,6.83,0,0,0-.91,1,10.68,10.68,0,0,0-1.27,2.89c-1.29,4.08-2.16,8.36-3.51,12.43Q63,41.45,61.52,45a8.79,8.79,0,0,0-.94,3.72,3.43,3.43,0,0,0,.07.56,9.71,9.71,0,0,0,.9,2.48c.9,1.87,1.86,3.71,2.58,5.66.43,1.17.78,2.37,1.13,3.58.56,2,1.08,3.88,1.52,5.86.14.63.28,1.27.48,1.88s.38,1,.52,1.56c.34,1.25.32,2.62.94,3.75.83,1.5,2.61,2.25,3.54,3.7a23.14,23.14,0,0,0,1.18,2.13A4,4,0,0,0,75.3,81.3,2.42,2.42,0,0,0,77.64,81a3.88,3.88,0,0,0,1.43.18,2.19,2.19,0,0,0,1.31-.61,1.67,1.67,0,0,0,1.4,0,1.58,1.58,0,0,0,.73-1.14c0-.46.4-.91.27-1.34A1.71,1.71,0,0,0,82.37,77.38Z"/><path class="cls-5" d="M32.23,62a9,9,0,0,0-.67,1.89,3.13,3.13,0,0,0,.18,2,4.55,4.55,0,0,0,1.19,1.36,40.92,40.92,0,0,0,5.62,4A4.73,4.73,0,0,1,43.34,71a1.85,1.85,0,0,1,1,1,2.71,2.71,0,0,1,.25,1.1,1.27,1.27,0,0,1-.6,1,1.54,1.54,0,0,1-.64.15,1.72,1.72,0,0,1-1.34,1,4.46,4.46,0,0,1-1.74-.15,2.15,2.15,0,0,0-.61-.09c-.36,0-.68.22-1,.27s-1-.15-1.52-.11a4.09,4.09,0,0,1-.6.07c-.58,0-1-.57-1.35-1a13.1,13.1,0,0,0-3.52-3L26.84,68a7.36,7.36,0,0,1-1.34-1,5.91,5.91,0,0,1-.91-1.27,4.52,4.52,0,0,1-.38-4.17c.72-2.06,2.11-3.82,3.09-5.77.76-1.52,1.32-3.22,2.56-4.4a5.11,5.11,0,0,1,4.65-1.22,3.45,3.45,0,0,1,2.35,1.65c.17.47-.28,1-.49,1.43-.3.59-.59,1.18-.88,1.77C34.36,57.31,33.27,59.65,32.23,62Z"/><path class="cls-5" d="M103.92,41.23a2.81,2.81,0,0,1-1.52,1.86,3.69,3.69,0,0,1-2.43.23,5.46,5.46,0,0,1-2.2-1.11A7.1,7.1,0,0,1,96.56,41a7.67,7.67,0,0,0,1.86.14l3.79.12A8.14,8.14,0,0,0,103.92,41.23Z"/><path class="cls-3" d="M108.72,31.55a10.13,10.13,0,0,1-.69,2.86c-.52,1.3-1.42,2.5-1.47,3.89,0,.35,0,.71,0,1.06a3,3,0,0,1-.75,1.53,2.6,2.6,0,0,1-1.08.8,1.3,1.3,0,0,1-1.26-.18,3.1,3.1,0,0,1-1.61.74,9,9,0,0,1-1.8.07c-.35,0-.7,0-1-.06a6.4,6.4,0,0,1-3-1.4,23.43,23.43,0,0,0-3.11-1.6,11.46,11.46,0,0,1-6.09-11.61,14.84,14.84,0,0,1,1.31-4.53,7.5,7.5,0,0,1,3.13-3.54,8.34,8.34,0,0,1,2.36-.75,8.76,8.76,0,0,1,1.91-.17,11.19,11.19,0,0,1,2.35.44,25.49,25.49,0,0,1,3.68.84A9,9,0,0,1,104.38,22a15.45,15.45,0,0,1,1.4,1.72,7.76,7.76,0,0,1,1.3,2.24,4.36,4.36,0,0,0,.21.64,4.87,4.87,0,0,0,.52.76,5.78,5.78,0,0,1,.89,2.76A7.5,7.5,0,0,1,108.72,31.55Z"/><path class="cls-8" d="M107.82,30.75a5,5,0,0,0-1.82.57,2.15,2.15,0,0,0-1.08,1.5,3.75,3.75,0,0,0,1.6,0,1.76,1.76,0,0,0,1.12-1,3.88,3.88,0,0,0,.11-.49C107.78,31.16,107.79,30.92,107.82,30.75Z"/><path class="cls-8" d="M99.42,32.48a3.62,3.62,0,0,0-1.8-1.14,5.9,5.9,0,0,0-2.13-.2c-.13,0,.19.94.24,1a2.23,2.23,0,0,0,1,.92A2.41,2.41,0,0,0,99.42,32.48Z"/><path class="cls-9" d="M106.54,39.36a2.81,2.81,0,0,0,0-.29.45.45,0,0,0-.22-.21.58.58,0,0,0-.6.17c-.16.15-.27.36-.44.51a5.5,5.5,0,0,1-.5.34,4.75,4.75,0,0,0-1.06,1,1.67,1.67,0,0,0-.28.46,1.2,1.2,0,0,0,0,.2l0,0a1.3,1.3,0,0,0,1.26.18,2.6,2.6,0,0,0,1.08-.8A3,3,0,0,0,106.54,39.36Z"/><path class="cls-9" d="M103.44,41.52a1,1,0,0,0-.38-1A3.66,3.66,0,0,0,102,40a14.28,14.28,0,0,1-3.43-2,9.82,9.82,0,0,0-1.1-.71,4.76,4.76,0,0,0-1.16-.43,3.09,3.09,0,0,0-1.45,0,1.72,1.72,0,0,0-1.1.9,1.66,1.66,0,0,0,0,1.16,1.74,1.74,0,0,0,.71,1,10.18,10.18,0,0,1,1.34.72l.22.15a6.4,6.4,0,0,0,3,1.4c.34,0,.69.05,1,.06h.49c.5,0,1-.06,1.48-.12A3,3,0,0,0,103.44,41.52Z"/><path class="cls-8" d="M105.33,39l.09.07c.27.31-.15.81-.35,1a8.3,8.3,0,0,1-1,.85c-.2.17-.39.37-.59.55a1.54,1.54,0,0,0-.75-.94c-.43-.21-.87-.36-1.06-.84-.09-.22-.11-.63.19-.7s.48.22.68.28a4.09,4.09,0,0,0,1.15.16,2,2,0,0,0,.74-.11c.24-.09.41-.3.64-.37A.41.41,0,0,1,105.33,39Z"/><path class="cls-10" d="M96.91,24.22q-1.38-2.62-2.63-5.33A11.75,11.75,0,0,0,92,15.16a1.75,1.75,0,0,0-.53-.37,2.22,2.22,0,0,0-1-.08,3,3,0,0,0-.85.15,2.69,2.69,0,0,0-1.24,1.39A15.72,15.72,0,0,0,87,21.68a33.32,33.32,0,0,0,0,5.65,3.67,3.67,0,0,0,2.36.55,9.32,9.32,0,0,0,2.48-.58A13.88,13.88,0,0,0,96.91,24.22Z"/><path class="cls-4" d="M95.4,24.27a9.88,9.88,0,0,1-1.23-2.45c-.27-.82-.44-1.67-.71-2.5a10.19,10.19,0,0,0-1.92-3.45,1.23,1.23,0,0,0-1-.59,1.11,1.11,0,0,0-.51.25,5.05,5.05,0,0,0-1.46,2.57,20.82,20.82,0,0,0-.76,8.23,7.8,7.8,0,0,0,4,.1A8.37,8.37,0,0,0,95.4,24.27Z"/><path class="cls-11" d="M69,21.53c-1.66,0-2.94-1.3-4.35-2a19.61,19.61,0,0,0-4.77-1.62c-3-.62-6-1.35-9-1.74-2.3-.28-4.61-.48-6.93-.58a38.88,38.88,0,0,0-9.81.92,58.88,58.88,0,0,1-9.43,1.36,31.94,31.94,0,0,0-5.79.47,12.6,12.6,0,0,0-6.26,3.77,13.48,13.48,0,0,0-2,3.63A31.64,31.64,0,0,0,9.2,29.49a19.36,19.36,0,0,0-.95,4.68,8.71,8.71,0,0,0,.92,4.64,13.08,13.08,0,0,0,2.16,2.7A14.17,14.17,0,0,0,15,44.41c3.54,1.82,4.84,6.34,5.5,10a13.59,13.59,0,0,1,.16,4.17,6.62,6.62,0,0,1-.43,1.82c-.28.64-.69,1.22-1,1.87a3.79,3.79,0,0,0-.19,2.82,10.43,10.43,0,0,0,1.35,2c.61.88.92,1.93,1.48,2.84.42.69,1,1.29,1.45,1.95.92,1.27,1.53,2.74,2.39,4.06.4.61.86,1.19,1.31,1.77s.88,1.13,1.33,1.69a4.92,4.92,0,0,0,1.09,1.14,1.88,1.88,0,0,0,1.54.36,3.2,3.2,0,0,0,2.28.43c.44-.08,1-.23,1.07-.67a5.29,5.29,0,0,0,1.59,0,1.4,1.4,0,0,0,.57-.21,1,1,0,0,0,.35-.8,2.92,2.92,0,0,0-.15-.93,1.47,1.47,0,0,0,0-1.55,4.15,4.15,0,0,0-1.12-1.17,1.27,1.27,0,0,0-.44-.28,3.29,3.29,0,0,0-.94,0,3.12,3.12,0,0,1-.61-.11,5.49,5.49,0,0,0-2.06-.09,31.06,31.06,0,0,1-5.1-8.39,14.06,14.06,0,0,1,3.46-7c.48-.52,1-1,1.52-1.48l3.39-3.17C37.43,53,40.06,49.64,40.37,46a13,13,0,0,1,2.24.53,8.33,8.33,0,0,1,2,.74,11.05,11.05,0,0,0,1.7,1.07,13.35,13.35,0,0,0,1.94.64c.79.21,1.59.38,2.39.52a28.39,28.39,0,0,0,5.13.38c.87,0,1.74-.09,2.6-.19a15.52,15.52,0,0,1,2.31-.34,3.31,3.31,0,0,1-.07-.55A8.79,8.79,0,0,1,61.52,45q1.47-3.59,2.7-7.25c1.35-4.07,2.22-8.35,3.51-12.43A10.68,10.68,0,0,1,69,22.47a6.83,6.83,0,0,1,.91-1A6.84,6.84,0,0,1,69,21.53Z"/><path class="cls-12" d="M42,42.14c-.63-2.17-1-4.42-1.71-6.56A11.15,11.15,0,0,0,36.63,30,15.19,15.19,0,0,0,31,27.85c1.06,1.93.64,4.27-.11,6.34s-1.93,4-2.69,6a16,16,0,0,0-1,6.09,61.81,61.81,0,0,0,9.81-.22A15.89,15.89,0,0,1,40,45.91a16.21,16.21,0,0,1,4.43,1.21A14.29,14.29,0,0,1,42,42.14Z"/><path class="cls-13" d="M46.91,45.23c-.19-7.94,5.4-15.4,11.67-19.75l.2-.14a20.78,20.78,0,0,1-2.35,1.06A24.85,24.85,0,0,0,54,27.81a22.58,22.58,0,0,0-4.32,3.6C46.35,35,44.61,40.71,46.91,45.23Z"/><path class="cls-14" d="M51.3,26.53A24.3,24.3,0,0,0,46.23,32a12.83,12.83,0,0,0-2.17,7.08,6.8,6.8,0,0,1,0-6.66A12.34,12.34,0,0,1,51.3,26.53Z"/><path class="cls-15" d="M41.13,34.11a6.76,6.76,0,0,1,4.79-7.26,4.89,4.89,0,0,0-4.77,1.85A5.39,5.39,0,0,0,41.13,34.11Z"/><path class="cls-16" d="M30.37,35.65l3.13,1.43a14.87,14.87,0,0,1,5,3.13A7.49,7.49,0,0,1,40.41,45c.1,4-2.76,7.81-5.56,10.42l-3.39,3.17c-.52.48-1,1-1.52,1.48a14.06,14.06,0,0,0-3.46,7,31.06,31.06,0,0,0,5.1,8.39,5.49,5.49,0,0,1,2.06.09,3.12,3.12,0,0,0,.61.11,3.29,3.29,0,0,1,.94,0,1.27,1.27,0,0,1,.44.28,4.15,4.15,0,0,1,1.12,1.17,1.47,1.47,0,0,1,0,1.55,2.92,2.92,0,0,1,.15.93,1,1,0,0,1-.35.8,1.4,1.4,0,0,1-.57.21,5.29,5.29,0,0,1-1.59,0c0,.44-.63.59-1.07.67A3.2,3.2,0,0,1,31,80.87a1.88,1.88,0,0,1-1.54-.36,4.92,4.92,0,0,1-1.09-1.14c-.45-.56-.89-1.12-1.33-1.69s-.91-1.16-1.31-1.77c-.86-1.32-1.47-2.79-2.39-4.06-.47-.66-1-1.26-1.45-1.95-.56-.91-.87-2-1.48-2.84a10.43,10.43,0,0,1-1.35-2,3.79,3.79,0,0,1,.19-2.82c.27-.65.68-1.23,1-1.87a6.62,6.62,0,0,0,.43-1.82,13.59,13.59,0,0,0-.16-4.17,33.49,33.49,0,0,0-1.66-5.59,15.89,15.89,0,0,0-.86-2,21.46,21.46,0,0,0-1.76-2.59,15.11,15.11,0,0,1-2.38-4.37A6.92,6.92,0,0,1,14,34.92c2.36-5.2,9.79-2.11,13.52-.54C28.48,34.79,29.42,35.22,30.37,35.65Z"/><line class="cls-17" x1="38.44" y1="1.44" x2="41.55" y2="11.54"/><line class="cls-17" x1="68.9" y1="5.18" x2="63.62" y2="14.33"/><line class="cls-17" x1="54.79" y1="1" x2="52.88" y2="11.4"/><line class="cls-17" x1="44.33" y1="53.64" x2="41.4" y2="63.8"/><line class="cls-17" x1="53.99" y1="54.6" x2="54.88" y2="65.13"/></g></g></svg>