<svg xmlns="http://www.w3.org/2000/svg" xmlns:xlink="http://www.w3.org/1999/xlink" viewBox="0 0 120.58 81.86"><defs><style>.cls-1{fill:#dde2f0;}.cls-2{fill:url(#linear-gradient);}.cls-3{fill:url(#linear-gradient-2);}.cls-4{fill:#ab969e;}.cls-5{fill:url(#linear-gradient-3);}.cls-6{fill:#3d223e;}.cls-7{fill:#f8f4f0;}.cls-8{fill:url(#linear-gradient-4);}.cls-9{fill:url(#linear-gradient-5);}.cls-10{fill:#f0bad6;}.cls-11{fill:url(#linear-gradient-6);}.cls-12{fill:url(#linear-gradient-7);}.cls-13{fill:#5dd0ff;opacity:0.56;}.cls-14{fill:url(#linear-gradient-8);}.cls-15{fill:#d9c3ba;}.cls-16{fill:url(#linear-gradient-9);}.cls-17{fill:url(#linear-gradient-10);}.cls-18{fill:url(#linear-gradient-11);}.cls-19{fill:url(#linear-gradient-12);}.cls-20{fill:none;stroke:#0a45b8;stroke-linecap:round;stroke-miterlimit:10;stroke-width:2px;}</style><linearGradient id="linear-gradient" x1="63.69" y1="49.92" x2="85.7" y2="11.79" gradientUnits="userSpaceOnUse"><stop offset="0" stop-color="#ab969e"/><stop offset="0.11" stop-color="#bea9aa"/><stop offset="0.26" stop-color="#d2bcb6"/><stop offset="0.36" stop-color="#d9c3ba"/></linearGradient><linearGradient id="linear-gradient-2" x1="77.78" y1="27.62" x2="120.58" y2="27.62" gradientUnits="userSpaceOnUse"><stop offset="0" stop-color="#ab969e" stop-opacity="0"/><stop offset="0.22" stop-color="#ab969e" stop-opacity="0.02"/><stop offset="0.37" stop-color="#ab969e" stop-opacity="0.07"/><stop offset="0.5" stop-color="#ab969e" stop-opacity="0.16"/><stop offset="0.61" stop-color="#ab969e" stop-opacity="0.28"/><stop offset="0.72" stop-color="#ab969e" stop-opacity="0.44"/><stop offset="0.82" stop-color="#ab969e" stop-opacity="0.64"/><stop offset="0.91" stop-color="#ab969e" stop-opacity="0.87"/><stop offset="0.96" stop-color="#ab969e"/></linearGradient><linearGradient id="linear-gradient-3" x1="1.64" y1="46.32" x2="81.69" y2="46.32" gradientUnits="userSpaceOnUse"><stop offset="0.32" stop-color="#d9c3ba"/><stop offset="0.67" stop-color="#dac5bc"/><stop offset="0.79" stop-color="#decbc3"/><stop offset="0.88" stop-color="#e5d6ce"/><stop offset="0.95" stop-color="#eee5df"/><stop offset="1" stop-color="#f8f4f0"/></linearGradient><linearGradient id="linear-gradient-4" x1="29.77" y1="45.43" x2="18.63" y2="51.86" gradientUnits="userSpaceOnUse"><stop offset="0" stop-color="#ab969e" stop-opacity="0"/><stop offset="0.62" stop-color="#ab969e" stop-opacity="0.64"/><stop offset="1" stop-color="#ab969e"/></linearGradient><linearGradient id="linear-gradient-5" x1="7.08" y1="28.26" x2="12.62" y2="37.85" gradientUnits="userSpaceOnUse"><stop offset="0" stop-color="#f8f4f0"/><stop offset="0.18" stop-color="#eee4de"/><stop offset="0.46" stop-color="#e2d2ca"/><stop offset="0.73" stop-color="#dbc7be"/><stop offset="1" stop-color="#d9c3ba"/></linearGradient><linearGradient id="linear-gradient-6" x1="38.53" y1="54.09" x2="77.44" y2="54.09" gradientUnits="userSpaceOnUse"><stop offset="0" stop-color="#ab969e" stop-opacity="0"/><stop offset="0.1" stop-color="#ad989f" stop-opacity="0.03"/><stop offset="0.24" stop-color="#b19ca2" stop-opacity="0.13"/><stop offset="0.42" stop-color="#b8a3a6" stop-opacity="0.29"/><stop offset="0.62" stop-color="#c2adac" stop-opacity="0.5"/><stop offset="0.84" stop-color="#cfb9b4" stop-opacity="0.78"/><stop offset="1" stop-color="#d9c3ba"/></linearGradient><linearGradient id="linear-gradient-7" x1="41.74" y1="45.15" x2="60.12" y2="45.15" gradientUnits="userSpaceOnUse"><stop offset="0" stop-color="#ab969e" stop-opacity="0"/><stop offset="0.37" stop-color="#ab969e" stop-opacity="0.01"/><stop offset="0.52" stop-color="#ab969e" stop-opacity="0.05"/><stop offset="0.63" stop-color="#ab969e" stop-opacity="0.12"/><stop offset="0.72" stop-color="#ab969e" stop-opacity="0.23"/><stop offset="0.79" stop-color="#ab969e" stop-opacity="0.36"/><stop offset="0.86" stop-color="#ab969e" stop-opacity="0.52"/><stop offset="0.93" stop-color="#ab969e" stop-opacity="0.72"/><stop offset="0.99" stop-color="#ab969e" stop-opacity="0.94"/><stop offset="1" stop-color="#ab969e"/></linearGradient><linearGradient id="linear-gradient-8" x1="49.18" y1="43.87" x2="81.69" y2="43.87" gradientUnits="userSpaceOnUse"><stop offset="0" stop-color="#d9c3ba" stop-opacity="0"/><stop offset="0.16" stop-color="#e1d0c8" stop-opacity="0.18"/><stop offset="0.36" stop-color="#e9ddd6" stop-opacity="0.36"/><stop offset="0.55" stop-color="#f0e7e1" stop-opacity="0.51"/><stop offset="0.72" stop-color="#f4eee9" stop-opacity="0.61"/><stop offset="0.88" stop-color="#f7f2ee" stop-opacity="0.68"/><stop offset="1" stop-color="#f8f4f0" stop-opacity="0.7"/></linearGradient><linearGradient id="linear-gradient-9" x1="98.32" y1="28.55" x2="87.81" y2="46.75" gradientUnits="userSpaceOnUse"><stop offset="0" stop-color="#ab969e" stop-opacity="0"/><stop offset="0.28" stop-color="#ab969e" stop-opacity="0.01"/><stop offset="0.43" stop-color="#ab969e" stop-opacity="0.06"/><stop offset="0.56" stop-color="#ab969e" stop-opacity="0.14"/><stop offset="0.67" stop-color="#ab969e" stop-opacity="0.26"/><stop offset="0.76" stop-color="#ab969e" stop-opacity="0.4"/><stop offset="0.85" stop-color="#ab969e" stop-opacity="0.59"/><stop offset="0.94" stop-color="#ab969e" stop-opacity="0.8"/><stop offset="1" stop-color="#ab969e"/></linearGradient><linearGradient id="linear-gradient-10" x1="72.64" y1="36.34" x2="111.99" y2="36.34" gradientUnits="userSpaceOnUse"><stop offset="0" stop-color="#d9c3ba" stop-opacity="0"/><stop offset="0.12" stop-color="#dbc7be" stop-opacity="0.06"/><stop offset="0.36" stop-color="#e2d1ca" stop-opacity="0.2"/><stop offset="0.68" stop-color="#ece2dc" stop-opacity="0.44"/><stop offset="1" stop-color="#f8f4f0" stop-opacity="0.7"/></linearGradient><linearGradient id="linear-gradient-11" x1="68.02" y1="17.8" x2="60.33" y2="22.23" gradientUnits="userSpaceOnUse"><stop offset="0" stop-color="#ab969e" stop-opacity="0"/><stop offset="0.14" stop-color="#ab969e" stop-opacity="0.03"/><stop offset="0.3" stop-color="#ab969e" stop-opacity="0.1"/><stop offset="0.46" stop-color="#ab969e" stop-opacity="0.23"/><stop offset="0.62" stop-color="#ab969e" stop-opacity="0.4"/><stop offset="0.78" stop-color="#ab969e" stop-opacity="0.63"/><stop offset="0.95" stop-color="#ab969e" stop-opacity="0.91"/><stop offset="1" stop-color="#ab969e"/></linearGradient><linearGradient id="linear-gradient-12" x1="73.38" y1="56.33" x2="73.38" y2="65.17" gradientUnits="userSpaceOnUse"><stop offset="0" stop-color="#d9c3ba" stop-opacity="0"/><stop offset="0.44" stop-color="#e8dad3" stop-opacity="0.42"/><stop offset="0.83" stop-color="#f3ede8" stop-opacity="0.77"/><stop offset="1" stop-color="#f8f4f0" stop-opacity="0.9"/></linearGradient></defs><title>Ресурс 1600</title><g id="Слой_2" data-name="Слой 2"><g id="Illustration"><path class="cls-1" d="M57.9.14A44,44,0,0,1,78.75,3.51,45.57,45.57,0,0,1,100,21.66c10.21,17,11.27,44-2.13,52.54s-29.35,0-31.48-1.06-16.59-6.38-23-.64-6.17,9.36-11.28,9.36S12.16,71,12.79,43.15c.33-14,7.5-26.15,19.11-33.8A55.26,55.26,0,0,1,57.9.14Z"/><path class="cls-2" d="M117.05,30.24a2.15,2.15,0,0,1,1.41.52,3,3,0,0,1,.62.94,2.53,2.53,0,0,0,.38,0,1,1,0,0,1,.37.16,1.7,1.7,0,0,1,.69,1,2.18,2.18,0,0,1-.08,1.24c-.1.29-.14.57-.42.68a2.76,2.76,0,0,1-.24,1.21,1.66,1.66,0,0,1-.86.85,1.74,1.74,0,0,1-1.17,0,2.81,2.81,0,0,1-2.3.28l-5.24-.9c-1.06-.18-2.12-.37-3.18-.59-2-.43-4-1-5.94-1.57a49.73,49.73,0,0,0-6.83-1.58,22.38,22.38,0,0,0-3.47-.21c-.51,0-1,.2-1.5.25a6.64,6.64,0,0,1-1.78,0,10.68,10.68,0,0,1-2.19-.68l-1.6-.62C83,31,82.52,31,82,30.32a8.33,8.33,0,0,0-5,1.24,7.7,7.7,0,0,0-3.6,4c-.2.62-.33,1.27-.54,1.88a8.77,8.77,0,0,1-3.05,4.11,12.56,12.56,0,0,1-4.7,2.11c-.42-.6-.93-1.17-1.35-1.78a17.07,17.07,0,0,0-1.62-2.08,16.52,16.52,0,0,0-2.45-1.95,42.8,42.8,0,0,0-3.88-2.51,33.66,33.66,0,0,0-6-2.47,33.94,33.94,0,0,0-11-1.89,79.38,79.38,0,0,0-8.29-1.29,17.2,17.2,0,0,1-2.68-.43c-.1,0-.22-.1-.19-.19a25.42,25.42,0,0,0,7.9-4.14,24.65,24.65,0,0,1,2.24-1.72,24.08,24.08,0,0,1,2.63-1.34,22.91,22.91,0,0,1,5.67-1.65c2.82-.45,5.68-.36,8.5-.77.56-.08,1.08-.05,1.62-.1a8.41,8.41,0,0,0,2-.55c1.29-.44,2.54-1,3.87-1.32a35.44,35.44,0,0,1,13.54-.19A34.58,34.58,0,0,1,88,21.77c1,.61,2.06,1.15,3.09,1.73s2,1.16,3,1.75c.49.3.9.71,1.4,1,1.1.62,2.34.91,3.46,1.47.49.24,1,.53,1.44.79a22.07,22.07,0,0,0,6.41,2,19.2,19.2,0,0,0,6.88.35l.2,0A12.31,12.31,0,0,1,117.05,30.24Z"/><path class="cls-3" d="M117.75,36.92a1.74,1.74,0,0,0,1.17,0,1.66,1.66,0,0,0,.86-.85,2.76,2.76,0,0,0,.24-1.21c.28-.11.32-.39.42-.68a2.18,2.18,0,0,0,.08-1.24,1.7,1.7,0,0,0-.69-1,.87.87,0,0,0-.37-.16,2.53,2.53,0,0,1-.38,0,3,3,0,0,0-.62-.94,2.15,2.15,0,0,0-1.41-.52,12.31,12.31,0,0,0-3.12.55l-.2,0a19.22,19.22,0,0,1-6.88-.35,22.07,22.07,0,0,1-6.41-2c-.49-.26-1-.55-1.44-.79s-.78-.36-1.17-.51l-.6-.24c-.38-.14-.75-.27-1.13-.44A6.08,6.08,0,0,1,95,25.85l-.32-.24c-.17-.12-.34-.25-.52-.36-1-.59-2-1.18-3-1.75S89,22.38,88,21.77a35,35,0,0,0-9.12-3.83,7.3,7.3,0,0,0-.83,2,9.59,9.59,0,0,0,1,7.24,8.49,8.49,0,0,0,4.18,3.48c.71.27,1.53.23,2.21.51a20.51,20.51,0,0,1,2.05,1.34,6.84,6.84,0,0,0,1.75,0c.52-.05,1-.23,1.5-.25a22.38,22.38,0,0,1,3.47.21,49.73,49.73,0,0,1,6.83,1.58c2,.56,3.94,1.14,5.94,1.57,1.06.22,2.12.41,3.18.59l5.24.9A2.81,2.81,0,0,0,117.75,36.92Z"/><path class="cls-4" d="M3.91,44.53a2.88,2.88,0,0,0-2-.23,3.33,3.33,0,0,0-1.32.4A1.24,1.24,0,0,0,0,45.87c.09.5.56.83,1,1.16A5.22,5.22,0,0,1,2.2,48.59,13.81,13.81,0,0,0,3.91,44.53Z"/><path class="cls-5" d="M75.3,57.14a1.17,1.17,0,0,0,1.07.43,12.06,12.06,0,0,0,1.7-.14l1.79-.24a3.22,3.22,0,0,0,.7-.14,1.5,1.5,0,0,0,.91-.78,1.14,1.14,0,0,0-.13-1.18A1.6,1.6,0,0,0,81.69,54a2.72,2.72,0,0,0-.31-1.11c-.22-.45-.56-1-1.06-1a2.22,2.22,0,0,0-1.23-2,7.78,7.78,0,0,0-2.38-.7,24,24,0,0,1-4-1.16,11.25,11.25,0,0,1-3.28-1.7,12.31,12.31,0,0,1-1.72-1.88A103.37,103.37,0,0,0,61,36.25a27.11,27.11,0,0,0-4.57-3.85A19.62,19.62,0,0,0,53.87,31a16.56,16.56,0,0,0-2.65-.82l-5.83-1.61a30,30,0,0,0-3.86-.88,31.89,31.89,0,0,0-4.26-.18c-3.57,0-7.58-.07-10.86,1.54-.6.3-1.16.65-1.77.91-.81.36-1.69.57-2.52.87A4.71,4.71,0,0,0,20,32.21a10.55,10.55,0,0,0-2.56.85c-.45.22-.89.46-1.35.65a36.5,36.5,0,0,1-4.19.82A10.38,10.38,0,0,0,9,35.86l-.11.07a17.16,17.16,0,0,0-4.61,4.38,18,18,0,0,0-2.4,5.92,4.57,4.57,0,0,0-.19,1.52,17.37,17.37,0,0,0,.75,3.89A7.8,7.8,0,0,0,3,53.26a7.69,7.69,0,0,0,1.56,1.9,8.41,8.41,0,0,0,1.55,1.31,8.6,8.6,0,0,0,2.16.79,12.32,12.32,0,0,1,2,.45,5.16,5.16,0,0,0,1.47.43,2.7,2.7,0,0,0,2.39-.72,7.34,7.34,0,0,0,2.68.16c1.58-.22,2.79-1.49,4.26-2.11a5.64,5.64,0,0,0,1.59-.74c2.17-1.78,5.71.1,8.52.07,1.62,0,3.22-.23,4.83-.31,3.55-.15,7.09.4,10.64.43a8.7,8.7,0,0,0,3.69-.58,5.33,5.33,0,0,0,2.82,1.2,11.35,11.35,0,0,1,1.43.14,5,5,0,0,1,1.61.86A16.71,16.71,0,0,0,60,58.88c1,.37,2,.51,3,.84,1.5.51,2.82,1.45,4.31,2,.6.21,1.25.28,1.84.51s.9.62,1.4.86a5.09,5.09,0,0,1,1.24.74,5.38,5.38,0,0,0,2.6,1.29,2.86,2.86,0,0,0,1.2,0,2.22,2.22,0,0,0,1.35-1,3.19,3.19,0,0,0,.44-1.65c.1-.08.06-.36.08-.48a1.72,1.72,0,0,0-.32-1.22,2.28,2.28,0,0,0-1-.76,1.38,1.38,0,0,0-1.37-1.45,2.75,2.75,0,0,0-2-2.13,1.7,1.7,0,0,1,1.15.27,3.07,3.07,0,0,0,1.14.47C75.12,57.14,75.25,57.21,75.3,57.14Z"/><path class="cls-6" d="M11.38,43.62l-.74.83a4.34,4.34,0,0,0-.46.58,2.7,2.7,0,0,0-.33,1.37A8.48,8.48,0,0,0,10,47.81,3.23,3.23,0,0,0,11.46,46,3.54,3.54,0,0,0,11.38,43.62Z"/><path class="cls-6" d="M7.12,52.82A3.79,3.79,0,0,0,5.66,53a2,2,0,0,0-1.08,1,3.39,3.39,0,0,1,.64.06,2,2,0,0,0,1,0C6.66,53.83,6.92,53.29,7.12,52.82Z"/><path class="cls-7" d="M18,51.93q0,.16-.06.3a5.1,5.1,0,0,1-2.57,3,3.83,3.83,0,0,1-1.61.46,2.62,2.62,0,0,1-1.61-.42,1.53,1.53,0,0,1-.5-1.17,1.28,1.28,0,0,1,.64-1.26A4,4,0,0,0,14,51.26a2.83,2.83,0,0,1,.74-1,3.24,3.24,0,0,1,1.34-.66,1.44,1.44,0,0,1,1.6.5A2.6,2.6,0,0,1,18,51.93Z"/><path class="cls-7" d="M10.05,57.64l.21.07a5.16,5.16,0,0,0,1.47.43,2.72,2.72,0,0,0,2.37-.7,2.33,2.33,0,0,0,0-.28,3.47,3.47,0,0,0-1.83-2.31,1.66,1.66,0,0,0-1-.14.67.67,0,0,0-.52.38c-.09.27.06.58.05.87a1.78,1.78,0,0,1-.22.84A3.66,3.66,0,0,0,10.05,57.64Z"/><path class="cls-6" d="M11.82,54.17a3.21,3.21,0,0,1,.12-1,.28.28,0,0,0,0-.09.23.23,0,0,0-.18-.09,1.87,1.87,0,0,0-1.59.61,1.89,1.89,0,0,0-.41,1.66c.05.19.21.46.44.45a.63.63,0,0,0,.3-.14.61.61,0,0,1,.39-.11c.55,0,1.1.25,1.58,0,0,0,.07,0,.07-.07a.13.13,0,0,0,0-.07A2.52,2.52,0,0,1,11.82,54.17Z"/><path class="cls-6" d="M12.46,55.47a3,3,0,0,1,1.41,1.17,1.42,1.42,0,0,1,.85-1.16,3,3,0,0,1-2.19-.08Z"/><path class="cls-8" d="M23.62,38.74a6.3,6.3,0,0,1,1.15,2.42,11.46,11.46,0,0,1,.49,3.18,7.89,7.89,0,0,1-.4,2.4c-.31.91-1.21,1.63-1.21,2.6A8.41,8.41,0,0,1,20.8,55.6l.26-.13a5.64,5.64,0,0,0,1.59-.74c2.17-1.78,5.71.1,8.52.07h.1A20,20,0,0,0,30,46.07,14.45,14.45,0,0,0,23.62,38.74Z"/><path class="cls-9" d="M16.65,35.08a2.49,2.49,0,0,0-.57-1.23c-.27-.36-.6-.69-.85-1.07a3.62,3.62,0,0,0-.58-.81,5.25,5.25,0,0,0-.75-.47,1.83,1.83,0,0,1-.56-.58A6.74,6.74,0,0,0,12,29.5a7.22,7.22,0,0,0-3.46-1.58,1.57,1.57,0,0,0-1.15.14,1.37,1.37,0,0,0-.44.59,4.26,4.26,0,0,0-.33,1.94,6.26,6.26,0,0,0,.15,1.22c.16.73.44,1.44.58,2.18a6.17,6.17,0,0,1-.53,4,24.07,24.07,0,0,0,4.07,0,7.92,7.92,0,0,0,3.78-1.39A17.42,17.42,0,0,1,16.65,35.08Z"/><path class="cls-10" d="M15.16,34.7s-.84-.88-.91-1a5.42,5.42,0,0,1-.69-1.09A8.28,8.28,0,0,0,10.41,29c-.7-.41-2.09-1-2.76-.26A2,2,0,0,0,7.24,30,5.35,5.35,0,0,0,7.5,31.4a12.89,12.89,0,0,1,1,4.82,1.81,1.81,0,0,1-.29.91,12.43,12.43,0,0,0,3.69-.48A7.24,7.24,0,0,0,15.16,34.7Z"/><path class="cls-11" d="M76.08,60a1.38,1.38,0,0,0-1.37-1.45,2.75,2.75,0,0,0-1.92-2.11c-.21,0-.43,0-.64-.06A6.67,6.67,0,0,1,71,56.11a2.75,2.75,0,0,1-.56-.23,5.48,5.48,0,0,1-.8-.64,5.64,5.64,0,0,0-1.66-1c-.29-.12-.64-.16-.93-.29a3.94,3.94,0,0,1-.73-.44A7.43,7.43,0,0,1,65,51.71c-.89-1.33-2.35-2.13-3.57-3.17-.66-.57-1.26-1.21-1.92-1.76a21,21,0,0,0-6.44-3.24c-3.46-1.25-7.26-.11-10.65,1.32a8.77,8.77,0,0,0-2.57,1.52A3.86,3.86,0,0,0,38.54,49a5.91,5.91,0,0,0,.34,2,11.74,11.74,0,0,0,.55,1.54,5.72,5.72,0,0,0,1.72,2.12c1.83.13,3.66.28,5.49.3a8.7,8.7,0,0,0,3.69-.58,5.33,5.33,0,0,0,2.82,1.2,11.35,11.35,0,0,1,1.43.14,5,5,0,0,1,1.61.86A16.71,16.71,0,0,0,60,58.88c1,.37,2,.51,3,.84,1.5.51,2.82,1.45,4.31,2,.6.21,1.25.28,1.84.51a15.54,15.54,0,0,1,1.4.87,4.75,4.75,0,0,1,1.24.73,5.38,5.38,0,0,0,2.6,1.29,2.86,2.86,0,0,0,1.2,0,2.22,2.22,0,0,0,1.35-1,3.19,3.19,0,0,0,.44-1.65c.1-.08.06-.36.08-.48a1.72,1.72,0,0,0-.32-1.22A2.28,2.28,0,0,0,76.08,60Z"/><path class="cls-12" d="M53.11,43.54c-3.46-1.25-7.26-.11-10.65,1.32l-.72.32a24.93,24.93,0,0,1,11.83.63c.78.24,1.55.52,2.34.71,1.05.24,2.12.33,3.18.52.35.07.69.16,1,.26-.19-.18-.37-.36-.57-.52A21,21,0,0,0,53.11,43.54Z"/><polygon class="cls-13" points="74.61 58.14 74.61 58.14 74.61 58.13 74.61 58.14"/><path class="cls-13" d="M74.31,57.54s0,0,0,.05S74.32,57.55,74.31,57.54Z"/><path class="cls-14" d="M81.69,54a2.72,2.72,0,0,0-.31-1.11c-.22-.45-.56-1-1.06-1a2.22,2.22,0,0,0-1.23-2,7.78,7.78,0,0,0-2.38-.7,24,24,0,0,1-4-1.16,11.25,11.25,0,0,1-3.28-1.7,12.31,12.31,0,0,1-1.72-1.88A103.37,103.37,0,0,0,61,36.25a27.11,27.11,0,0,0-4.57-3.85A19,19,0,0,0,53.87,31a15.42,15.42,0,0,0-2.53-.79,8.83,8.83,0,0,0-2,7.31,11.1,11.1,0,0,0,3.09,5.84l.71.22a21,21,0,0,1,6.44,3.24c.66.55,1.26,1.19,1.92,1.76,1.22,1,2.68,1.84,3.57,3.17a7.43,7.43,0,0,0,1.27,1.79,3.94,3.94,0,0,0,.73.44c.29.13.64.17.93.29a5.64,5.64,0,0,1,1.66,1,5.48,5.48,0,0,0,.8.64,2.75,2.75,0,0,0,.56.23,6.67,6.67,0,0,0,1.16.25l.63.06,0,0a1.7,1.7,0,0,1,1.15.27,3.07,3.07,0,0,0,1.14.47c.08,0,.21.07.26,0a1.17,1.17,0,0,0,1.07.43,12.06,12.06,0,0,0,1.7-.14l1.79-.24a3.22,3.22,0,0,0,.7-.14,1.5,1.5,0,0,0,.91-.78,1.14,1.14,0,0,0-.13-1.18A1.6,1.6,0,0,0,81.69,54Z"/><path class="cls-13" d="M73.29,56.63l.12.06Z"/><path class="cls-13" d="M73.85,57l.08.08Z"/><path class="cls-15" d="M111.58,39.82a1.76,1.76,0,0,0-.08-2.22A2.7,2.7,0,0,1,111,37a1.58,1.58,0,0,0-.73-1.57,2.27,2.27,0,0,0-1.24-.39c-.44,0-.88,0-1.31,0a9.76,9.76,0,0,1-1.69-.16c-1.09-.21-2.15-.54-3.24-.74a12.52,12.52,0,0,1-1.9-.46c-.58-.19-1.13-.47-1.72-.63-2-.54-4,.22-6,.36a7.69,7.69,0,0,1-.83,0,10.15,10.15,0,0,1-4.14-1.34c-.67-.36-1.3-.76-1.95-1.15a2.63,2.63,0,0,0-1.7-.66,13.32,13.32,0,0,0-6.79.89,7.71,7.71,0,0,0-1,.61,7.43,7.43,0,0,0-3.33,3.78c-.2.62-.33,1.27-.54,1.88-.06.19-.15.36-.23.55a8.52,8.52,0,0,0,2.65,1.21c5.46,1.6,11.34,1.08,16.89-.23a13.37,13.37,0,0,1,3.18-.52,12.12,12.12,0,0,1,3,.53,35.22,35.22,0,0,1,6.43,2.16c1.43.71,2.92,1.64,4.5,1.39.53-.09,1.1.14,1.59-.06a1.82,1.82,0,0,0,1.07-1.13A1.48,1.48,0,0,0,111.58,39.82Z"/><path class="cls-16" d="M111.58,39.82a1.76,1.76,0,0,0-.08-2.22A2.7,2.7,0,0,1,111,37a1.58,1.58,0,0,0-.73-1.57,2.27,2.27,0,0,0-1.24-.39c-.44,0-.88,0-1.31,0a9.76,9.76,0,0,1-1.69-.16c-1.09-.21-2.15-.54-3.24-.74a12.52,12.52,0,0,1-1.9-.46c-.58-.19-1.13-.47-1.72-.63-2-.54-4,.22-6,.36a7.69,7.69,0,0,1-.83,0,10.15,10.15,0,0,1-4.14-1.34c-.67-.36-1.3-.76-1.95-1.15a2.63,2.63,0,0,0-1.7-.66,13.32,13.32,0,0,0-6.79.89,7.71,7.71,0,0,0-1,.61,7.43,7.43,0,0,0-3.33,3.78c-.2.62-.33,1.27-.54,1.88-.06.19-.15.36-.23.55a8.52,8.52,0,0,0,2.65,1.21c5.46,1.6,11.34,1.08,16.89-.23a13.37,13.37,0,0,1,3.18-.52,12.12,12.12,0,0,1,3,.53,35.22,35.22,0,0,1,6.43,2.16c1.43.71,2.92,1.64,4.5,1.39.53-.09,1.1.14,1.59-.06a1.82,1.82,0,0,0,1.07-1.13A1.48,1.48,0,0,0,111.58,39.82Z"/><path class="cls-17" d="M111.58,39.82a1.76,1.76,0,0,0-.08-2.22A2.7,2.7,0,0,1,111,37a1.58,1.58,0,0,0-.73-1.57,2.27,2.27,0,0,0-1.24-.39c-.44,0-.88,0-1.31,0a9.76,9.76,0,0,1-1.69-.16c-1.09-.21-2.15-.54-3.24-.74a12.52,12.52,0,0,1-1.9-.46c-.58-.19-1.13-.47-1.72-.63-2-.54-4,.22-6,.36a7.69,7.69,0,0,1-.83,0,10.15,10.15,0,0,1-4.14-1.34c-.67-.36-1.3-.76-1.95-1.15a2.63,2.63,0,0,0-1.7-.66,13.32,13.32,0,0,0-6.79.89,7.71,7.71,0,0,0-1,.61,7.43,7.43,0,0,0-3.33,3.78c-.2.62-.33,1.27-.54,1.88-.06.19-.15.36-.23.55a8.52,8.52,0,0,0,2.65,1.21c5.46,1.6,11.34,1.08,16.89-.23a13.37,13.37,0,0,1,3.18-.52,12.12,12.12,0,0,1,3,.53,35.22,35.22,0,0,1,6.43,2.16c1.43.71,2.92,1.64,4.5,1.39.53-.09,1.1.14,1.59-.06a1.82,1.82,0,0,0,1.07-1.13A1.48,1.48,0,0,0,111.58,39.82Z"/><path class="cls-18" d="M62.06,17.44c-1.29.32-2.51.84-3.75,1.28a19.67,19.67,0,0,1,10,3.59,15.9,15.9,0,0,0-.9-5.59A25.77,25.77,0,0,0,62.06,17.44Z"/><path class="cls-19" d="M76.08,60a1.38,1.38,0,0,0-1.37-1.45,2.75,2.75,0,0,0-1.92-2.11c-.21,0-.43,0-.64-.06l-.16,0-.23.1a5.76,5.76,0,0,0-1.62,1.15,2.94,2.94,0,0,0-.82,1.77,2,2,0,0,0,.8,1.73,5,5,0,0,0,1.39,2.53l.25.2a5.38,5.38,0,0,0,2.6,1.29,2.86,2.86,0,0,0,1.2,0,2.22,2.22,0,0,0,1.35-1,3.19,3.19,0,0,0,.44-1.65c.1-.08.06-.36.08-.48a1.72,1.72,0,0,0-.32-1.22A2.28,2.28,0,0,0,76.08,60Z"/><path class="cls-10" d="M76.08,60a1.38,1.38,0,0,0-1.37-1.45,2.61,2.61,0,0,0-1.08-1.68.79.79,0,0,0-.23.55,1.64,1.64,0,0,0,.31.87,6.48,6.48,0,0,1,.49.79,8.46,8.46,0,0,1,.29,1,3.74,3.74,0,0,0,.4.89,2,2,0,0,0,.57.63.76.76,0,0,0,.49.14,1.05,1.05,0,0,0,.6-.38,3.36,3.36,0,0,0,.5-.64A2.31,2.31,0,0,0,76.08,60Z"/><path class="cls-15" d="M91.52,31.93a7,7,0,0,1-4.7.37c-1.57-.33-3.08-.92-4.66-1.18a11.67,11.67,0,0,0-6.37.72,11.85,11.85,0,0,1,5.75-3.36,9.23,9.23,0,0,1,6.67,1.06C89.39,30.27,90.22,31.46,91.52,31.93Z"/><path class="cls-20" d="M86.1,49.51a112.73,112.73,0,0,0,11.74-5.95"/><path class="cls-20" d="M85.59,56.33a141.83,141.83,0,0,0,22.19-10.44"/><path class="cls-20" d="M32.69,59.07a95.16,95.16,0,0,0,19.39-.48"/><path class="cls-20" d="M26.71,65.18S41.16,66.8,61.55,63"/></g></g></svg>