<svg xmlns="http://www.w3.org/2000/svg" xmlns:xlink="http://www.w3.org/1999/xlink" viewBox="0 0 95.03 84.93"><defs><style>.cls-1{isolation:isolate;}.cls-2{fill:#dde2f0;}.cls-3{fill:#ab969e;}.cls-4{fill:#f0bad6;}.cls-5{fill:#d9c3ba;}.cls-6{fill:url(#linear-gradient);}.cls-7{fill:url(#linear-gradient-2);}.cls-8{opacity:0.38;fill:url(#linear-gradient-3);}.cls-12,.cls-9{fill:#3d223e;}.cls-10{fill:#cdc0c5;opacity:0.22;}.cls-11{fill:#6c8fd4;}.cls-12{opacity:0.3;}.cls-12,.cls-13{mix-blend-mode:multiply;}.cls-13{fill:url(#linear-gradient-4);}.cls-14{fill:#f8f4f0;}.cls-15{fill:none;stroke:#0a45b8;stroke-linecap:round;stroke-linejoin:round;stroke-width:2px;}</style><linearGradient id="linear-gradient" x1="12.09" y1="35.55" x2="76.89" y2="35.55" gradientUnits="userSpaceOnUse"><stop offset="0" stop-color="#d9c3ba"/><stop offset="0.37" stop-color="#dac5bc" stop-opacity="0.99"/><stop offset="0.57" stop-color="#decac2" stop-opacity="0.94"/><stop offset="0.73" stop-color="#e4d4cd" stop-opacity="0.86"/><stop offset="0.87" stop-color="#ede2dc" stop-opacity="0.75"/><stop offset="1" stop-color="#f8f4f0" stop-opacity="0.6"/></linearGradient><linearGradient id="linear-gradient-2" x1="77.85" y1="5.35" x2="61.19" y2="22.01" gradientUnits="userSpaceOnUse"><stop offset="0.17" stop-color="#ab969e"/><stop offset="0.25" stop-color="#ad989f" stop-opacity="0.95"/><stop offset="0.39" stop-color="#b49ea3" stop-opacity="0.82"/><stop offset="0.56" stop-color="#bea8a9" stop-opacity="0.59"/><stop offset="0.76" stop-color="#ccb6b2" stop-opacity="0.29"/><stop offset="0.92" stop-color="#d9c3ba" stop-opacity="0"/></linearGradient><linearGradient id="linear-gradient-3" x1="47.07" y1="64.36" x2="33.51" y2="40.87" gradientUnits="userSpaceOnUse"><stop offset="0.05" stop-color="#f8f4f0"/><stop offset="0.09" stop-color="#f8f4f0" stop-opacity="0.88"/><stop offset="0.16" stop-color="#f8f4f0" stop-opacity="0.68"/><stop offset="0.23" stop-color="#f8f4f0" stop-opacity="0.49"/><stop offset="0.3" stop-color="#f8f4f0" stop-opacity="0.34"/><stop offset="0.38" stop-color="#f8f4f0" stop-opacity="0.22"/><stop offset="0.46" stop-color="#f8f4f0" stop-opacity="0.12"/><stop offset="0.55" stop-color="#f8f4f0" stop-opacity="0.05"/><stop offset="0.64" stop-color="#f8f4f0" stop-opacity="0.01"/><stop offset="0.75" stop-color="#f8f4f0" stop-opacity="0"/></linearGradient><linearGradient id="linear-gradient-4" x1="37.31" y1="43.03" x2="43.92" y2="54.48" gradientUnits="userSpaceOnUse"><stop offset="0" stop-color="#ab969e"/><stop offset="0.1" stop-color="#b19ca2" stop-opacity="0.86"/><stop offset="0.39" stop-color="#c2adac" stop-opacity="0.49"/><stop offset="0.63" stop-color="#cfb9b4" stop-opacity="0.23"/><stop offset="0.82" stop-color="#d6c0b8" stop-opacity="0.06"/><stop offset="0.92" stop-color="#d9c3ba" stop-opacity="0"/></linearGradient></defs><title>Ресурс 41600</title><g class="cls-1"><g id="Слой_2" data-name="Слой 2"><g id="Illustration"><path class="cls-2" d="M45.13,3.21A44.16,44.16,0,0,1,66,6.58,45.63,45.63,0,0,1,87.23,24.73c10.21,17,11.28,44-2.12,52.54s-29.36,0-31.49-1.06-16.59-6.38-23-.64-6.17,9.36-11.27,9.36S-.62,74.08,0,46.22c.32-14,7.49-26.15,19.1-33.8A55.3,55.3,0,0,1,45.13,3.21Z"/><path class="cls-3" d="M20.56,22.55a18.75,18.75,0,0,1-5.24-.28,46.17,46.17,0,0,1-5.68-2,10.17,10.17,0,0,0-5.9-.61c-.7.19-.93,1.46-.88,2.05.14,1.9,1.57,3.43,2.89,4.82a41.09,41.09,0,0,1,7.59,10.12C14.3,34.5,15,32.4,16,30.26A42.82,42.82,0,0,1,20.56,22.55Z"/><path class="cls-4" d="M17.41,25.11a11.64,11.64,0,0,1-4.53-1.42,35.56,35.56,0,0,0-4.32-2.06,8.47,8.47,0,0,0-2.78-.49c-.5,0-1.95,0-2,.65-.12.85.79,1.89,1.27,2.5A21.56,21.56,0,0,0,7,26.4a29.31,29.31,0,0,1,3.87,4.16,23.18,23.18,0,0,1,2.38,5.06C14.56,32.23,16.11,28.52,17.41,25.11Z"/><path class="cls-5" d="M83.35,74.48C77.16,77.8,69.85,78,62.92,79.21c-5.28.91-10.47,2.43-15.82,2.72-6.83.36-13.58-1.29-20.16-3.12-1.81-.5-3.49-1.47-5.26-2.09a69.87,69.87,0,0,0-1-15.28c6,1.64,11.72,3.11,17.9,3.07a53.09,53.09,0,0,0,15.78-3C60.13,59.62,66,57.18,70.11,52.7a41.63,41.63,0,0,0,5.22-7.82c-.75,5,.2,10.23,1.69,15.1A85.6,85.6,0,0,0,83.35,74.48Z"/><path class="cls-5" d="M76.26,37a41.35,41.35,0,0,0-1.41-4.51c-.45-1.22-.94-2.42-1.43-3.62s-1.62-2.83-1.67-4c-.07-1.77-.51-3.57-.24-5.33a14.61,14.61,0,0,1,.83-2.81,35.46,35.46,0,0,0,2-7.4,15.68,15.68,0,0,0-.67-7.57A2.6,2.6,0,0,0,72.48.13a2.44,2.44,0,0,0-1-.12,8.89,8.89,0,0,0-5.26,2.5,50.6,50.6,0,0,0-4,4.41A36.24,36.24,0,0,1,57.91,11a8,8,0,0,0-.75-.32,15.35,15.35,0,0,0-4.42-.65,35.05,35.05,0,0,0-9.47.8c-.76.17-1.52.37-2.28.52-1.75.34-3.55.45-5.28.88A7.41,7.41,0,0,0,33,13.45a6.82,6.82,0,0,1-2.76,1.27,12,12,0,0,1-1.9.08,10.07,10.07,0,0,0-6.9,2.81A27.37,27.37,0,0,0,14.9,27.82c-.38,1-.71,2-1,3.05-2.16,7.54-2.77,16.1.34,23.46.58,1.37,1.23,2.72,1.94,4a20.76,20.76,0,0,0,1.12,1.94,12,12,0,0,0,1.15,1.22A59.52,59.52,0,0,0,24.91,68c2.78,2.31,6.91,3,10.4,3.14a30.73,30.73,0,0,0,7.29-.65c2.31-.48,4.23-1.61,6.49-2.25,3.63-1,7.49-.89,11.16-1.73a19.81,19.81,0,0,0,2.31-.68,20.57,20.57,0,0,0,8.18-5.14C73,58.25,73.7,55,74.79,52a28.17,28.17,0,0,0,2.08-11A22.54,22.54,0,0,0,76.26,37Z"/><path class="cls-6" d="M76.26,37a41.35,41.35,0,0,0-1.41-4.51c-.45-1.22-.94-2.42-1.43-3.62s-1.62-2.83-1.67-4c-.07-1.77-.51-3.57-.24-5.33a14.61,14.61,0,0,1,.83-2.81,35.46,35.46,0,0,0,2-7.4,15.68,15.68,0,0,0-.67-7.57A2.6,2.6,0,0,0,72.48.13a2.44,2.44,0,0,0-1-.12,8.89,8.89,0,0,0-5.26,2.5,50.6,50.6,0,0,0-4,4.41A36.24,36.24,0,0,1,57.91,11a8,8,0,0,0-.75-.32,15.35,15.35,0,0,0-4.42-.65,35.05,35.05,0,0,0-9.47.8c-.76.17-1.52.37-2.28.52-1.75.34-3.55.45-5.28.88A7.41,7.41,0,0,0,33,13.45a6.82,6.82,0,0,1-2.76,1.27,12,12,0,0,1-1.9.08,10.07,10.07,0,0,0-6.9,2.81A27.37,27.37,0,0,0,14.9,27.82c-.38,1-.71,2-1,3.05-2.16,7.54-2.77,16.1.34,23.46.58,1.37,1.23,2.72,1.94,4a20.76,20.76,0,0,0,1.12,1.94,12,12,0,0,0,1.15,1.22A59.52,59.52,0,0,0,24.91,68c2.78,2.31,6.91,3,10.4,3.14a30.73,30.73,0,0,0,7.29-.65c2.31-.48,4.23-1.61,6.49-2.25,3.63-1,7.49-.89,11.16-1.73a19.81,19.81,0,0,0,2.31-.68,20.57,20.57,0,0,0,8.18-5.14C73,58.25,73.7,55,74.79,52a28.17,28.17,0,0,0,2.08-11A22.54,22.54,0,0,0,76.26,37Z"/><path class="cls-7" d="M71.62,26.77c.49-2.38-.47-4.85-.11-7.26a14,14,0,0,1,.84-2.81,36.06,36.06,0,0,0,2-7.4,15.68,15.68,0,0,0-.67-7.57A2.6,2.6,0,0,0,72.48.13a2.44,2.44,0,0,0-1-.12,8.89,8.89,0,0,0-5.26,2.5,50.6,50.6,0,0,0-4,4.41,36.12,36.12,0,0,1-7.57,6.48c-.43.27-.45.62-.35,1.12A3.06,3.06,0,0,0,55,15.83C59.4,20.77,67.11,22,71.62,26.77Z"/><path class="cls-4" d="M73.49,8.47a30.4,30.4,0,0,1-3.84,12,.8.8,0,0,1-.33.39c-.35.16-.69-.2-.9-.5A13.32,13.32,0,0,0,63,16a17,17,0,0,1-2.12-1c-.53-.32-1.35-.93-1.41-1.6a4,4,0,0,1,.7-1.93c1-1.52,2.74-2.3,3.94-3.63a22.49,22.49,0,0,0,1.69-2.4,12.16,12.16,0,0,1,4.52-3.9,1.9,1.9,0,0,1,1.42-.26c.61.19.89.87,1.07,1.48A16.79,16.79,0,0,1,73.49,8.47Z"/><path class="cls-8" d="M56.49,47.17a20.51,20.51,0,0,0-3.87-4.59,29.39,29.39,0,0,0-2.36-1.8,5.22,5.22,0,0,0-2-1.19,27.25,27.25,0,0,0-8.5.12c-2.8.33-5.71.7-8.06,2.25a15.73,15.73,0,0,0-3,2.69,9,9,0,0,0-2.05,3.08,16.82,16.82,0,0,0-.42,2c-.32,1.72-1,3.36-1.37,5.06a7.24,7.24,0,0,0,.77,5.86,8.48,8.48,0,0,0,4.79,3A66.31,66.31,0,0,1,36.76,66c2.15.83,4.62,1.33,6.72.37,1.48-.67,2.56-2,3.78-3.06,2-1.77,4.4-3,6.17-5a18.82,18.82,0,0,0,3.35-6.14,6.14,6.14,0,0,0,.54-3.11A5.38,5.38,0,0,0,56.49,47.17Z"/><path class="cls-9" d="M51.63,44.27a9.32,9.32,0,0,1-1,7.57c-.3.51-.65,1-1,1.47-1.32,1.84-2.68,3.58-4.1,5.34a2.53,2.53,0,0,1-2.51,1.28c-1.11-.2-2.17-.53-3.29-.64a15.19,15.19,0,0,0-3.37,0,9.22,9.22,0,0,0-2.76.61,6.19,6.19,0,0,0-1.76,1.7c.27-.32-1.13-1.69-1.33-1.93-3.71-4.48-4.52-10.6-6-16-.22-.8-.44-1.61-.72-2.39a2.1,2.1,0,0,1-.17-.77,2.17,2.17,0,0,1,.72-1.24A13.06,13.06,0,0,0,27.58,30,8.09,8.09,0,0,1,29,29.68a.33.33,0,0,1,.24,0,.34.34,0,0,1,.15.2A12.52,12.52,0,0,0,30,31.26a8.19,8.19,0,0,0,3.17,2.8,52.37,52.37,0,0,0,5.68,3,53.54,53.54,0,0,0,6.41,2.14,12,12,0,0,1,5.06,3A5.8,5.8,0,0,1,51.63,44.27Z"/><path class="cls-10" d="M45.09,38.47a6.08,6.08,0,0,1,.41,1.45c0,.25.23,3.2.18,3.19a2.6,2.6,0,0,0-2.07.38C42,44.56,40.38,45.8,38.46,46c-2.15.24-4.29-.81-6.2.66a.32.32,0,0,1-.2.1.28.28,0,0,1-.17-.07,12.81,12.81,0,0,1-4.07-4.12A21.5,21.5,0,0,1,26.43,40c-.09-.18-1.13-2.66-.89-2.67a6.42,6.42,0,0,0,1.58-1c1.74.92,3.33,1.17,5-.11,1.1-.86,1.87-2.09,3.28-2.48a6.38,6.38,0,0,1,3.93.59A20,20,0,0,1,43,36,5.69,5.69,0,0,1,45.09,38.47Z"/><path class="cls-11" d="M34.24,35a5.24,5.24,0,0,1-7.34,2c-.74-.44-.59-.67-.3-1.35a12.92,12.92,0,0,0,.6-1.82A13.1,13.1,0,0,0,27.58,30,8.09,8.09,0,0,1,29,29.68a.33.33,0,0,1,.24,0,.34.34,0,0,1,.15.2A12.52,12.52,0,0,0,30,31.26a8.19,8.19,0,0,0,3.17,2.8c.08,0,1.14.75,1.19.66Z"/><path class="cls-12" d="M29.39,52a4.31,4.31,0,0,0-.29,3.41,3.06,3.06,0,0,0,1.66,1.42,7.44,7.44,0,0,0,2.2.4,19.45,19.45,0,0,0,7.94-1.06,13.09,13.09,0,0,0,6.31-4.82A5.18,5.18,0,0,0,48,49.49a6.17,6.17,0,0,0-.67-3.5c-.27-.63-.56-1.26-.86-1.88s-.72-1.27-1.39-1.31a2,2,0,0,0-1.13.42q-2.07,1.26-4.24,2.36a10.43,10.43,0,0,1-2.57,1,12.1,12.1,0,0,1-2.25.14,17.66,17.66,0,0,0-2.3,0c-.62.09-.78.43-1.09.95A30.38,30.38,0,0,0,29.39,52Z"/><path class="cls-4" d="M44,51c-.1-1.25-.63-2.53-.26-3.74.14-.44.39-.84.57-1.27a15.43,15.43,0,0,1,.83-2.15c.16-.25.36-.48.51-.74a.19.19,0,0,0,0-.16.12.12,0,0,0-.07-.07,2.08,2.08,0,0,0-1.36-.48A6.23,6.23,0,0,0,41,43.82a7.06,7.06,0,0,1-3.2,1.54,9.84,9.84,0,0,1-2.41-.22,3.47,3.47,0,0,0-2.36.34,2.56,2.56,0,0,0-1.19,2,2.11,2.11,0,0,0,.08.9c.28.81,1.14,1.23,1.81,1.77a1.12,1.12,0,0,1,.3.35,1.51,1.51,0,0,1,0,.56,4.51,4.51,0,0,0,.94,2.5,15.27,15.27,0,0,1,1.47,2.28c.51,1.12,2.12,1.21,3.3.89a5.12,5.12,0,0,0,2.8-2.24C43.29,53.43,44.12,52.23,44,51Z"/><path class="cls-13" d="M44,51c-.1-1.25-.63-2.53-.26-3.74.14-.44.39-.84.57-1.27a15.43,15.43,0,0,1,.83-2.15c.16-.25.36-.48.51-.74a.19.19,0,0,0,0-.16.12.12,0,0,0-.07-.07,2.08,2.08,0,0,0-1.36-.48A6.23,6.23,0,0,0,41,43.82a7.06,7.06,0,0,1-3.2,1.54,9.84,9.84,0,0,1-2.41-.22,3.47,3.47,0,0,0-2.36.34,2.56,2.56,0,0,0-1.19,2,2.11,2.11,0,0,0,.08.9c.28.81,1.14,1.23,1.81,1.77a1.12,1.12,0,0,1,.3.35,1.51,1.51,0,0,1,0,.56,4.51,4.51,0,0,0,.94,2.5,15.27,15.27,0,0,1,1.47,2.28c.51,1.12,2.12,1.21,3.3.89a5.12,5.12,0,0,0,2.8-2.24C43.29,53.43,44.12,52.23,44,51Z"/><path class="cls-9" d="M49.08,20.13s0,0,0,0L48.92,20a17.69,17.69,0,0,0-3.16-1.11,9.15,9.15,0,0,0-3.38-.07,9.86,9.86,0,0,0-3.56,1.38c-.27.17-.53.33-.79.51s-.44.39-.68.59-.23.24-.35.36-.07.08,0,.13a.07.07,0,0,0,0,.05,3.61,3.61,0,0,0,1.32.38,10.93,10.93,0,0,0,4.52.18,23.37,23.37,0,0,0,2.33-.59,20.52,20.52,0,0,0,2.13-.72A5.09,5.09,0,0,0,49.08,20.13Z"/><path class="cls-9" d="M22.2,27c-.22,0-.44,0-.66,0A6.55,6.55,0,0,0,18,28.36a4.42,4.42,0,0,0-1.13,1.23,3.62,3.62,0,0,0,1.31.15,6,6,0,0,0,1.11-.1A3.72,3.72,0,0,0,21,28.7a5.24,5.24,0,0,0,.67-.88A5.36,5.36,0,0,1,22.2,27Z"/><path class="cls-11" d="M51.63,44.27a5.8,5.8,0,0,0-1.3-2.05,11.32,11.32,0,0,0-3.44-2.35,16.22,16.22,0,0,1,1.59,3.43,5.19,5.19,0,0,1,.41,1.77,11.73,11.73,0,0,1-.91,3.1,4.37,4.37,0,0,1-1.89,2.18c-.87.55-1.89.84-2.72,1.46s-1.25,1.3-1.95,1.88a10,10,0,0,1-3.94,1.68c-2.14.57-4.38,1.13-6.54.64a4.53,4.53,0,0,1-1.36-.53,5.17,5.17,0,0,1-1.24-1.14,12.65,12.65,0,0,1-1.86-3.07,22.91,22.91,0,0,0,4.06,8.43c.2.24,1.6,1.61,1.33,1.93a6.19,6.19,0,0,1,1.76-1.7,9.22,9.22,0,0,1,2.76-.61,15.19,15.19,0,0,1,3.37,0c1.12.11,2.18.44,3.29.64a2.53,2.53,0,0,0,2.51-1.28c1.42-1.76,2.78-3.5,4.1-5.34.34-.48.69-1,1-1.47A9.32,9.32,0,0,0,51.63,44.27Z"/><path class="cls-14" d="M38.66,55.06c0-1.49.12-3,.28-4.46,0-.22.13-.51.35-.5a.42.42,0,0,1,.29.23c.94,1.37.85,3.19,1.38,4.77a2.33,2.33,0,0,1,.17.69.65.65,0,0,1-.31.59.94.94,0,0,1-.34.07c-.38,0-1.07.22-1.42,0S38.66,55.47,38.66,55.06Z"/><path class="cls-14" d="M37.82,56.56a.37.37,0,0,0,.39-.1.42.42,0,0,0,.06-.25,2.55,2.55,0,0,0-.12-.66.32.32,0,0,0-.17-.22c-.16,0-.29.13-.44.19-.32.12-.53.11-.34.49A1,1,0,0,0,37.82,56.56Z"/><path class="cls-14" d="M33.5,58.31a1.93,1.93,0,0,1-.59.34.7.7,0,0,1-.66-.09,1.11,1.11,0,0,1-.28-.42,19.64,19.64,0,0,0-1.6-2.87A7.78,7.78,0,0,1,29.62,54a2.2,2.2,0,0,1-.17-1.4c0-.14.12-.16.27-.17a.57.57,0,0,1,.39.14A6.13,6.13,0,0,1,31.21,54a7.37,7.37,0,0,0,1.31,1.53A12,12,0,0,1,34,56.76a1.16,1.16,0,0,1,.3.63C34.38,57.89,33.84,58.07,33.5,58.31Z"/><path class="cls-14" d="M34.31,56.9a.57.57,0,0,1-.11-.33.23.23,0,0,1,.21-.24,1,1,0,0,0,.17,0l.09-.08a.16.16,0,0,1,.16,0,.42.42,0,0,1,.09.16l.17.45c.08.2.09.48-.19.48S34.42,57,34.31,56.9Z"/><path class="cls-14" d="M35.6,57.12a1.5,1.5,0,0,1-.37-.69.17.17,0,0,1,0-.14c0-.09.2,0,.3-.1s.08-.07.13-.07.12.07.15.14l.12.34a1,1,0,0,1,.07.29.29.29,0,0,1-.13.26.18.18,0,0,1-.25-.08"/><path class="cls-14" d="M36.74,56.86h.12c.1-.05.09-.18.07-.29a3.18,3.18,0,0,0-.13-.51c-.11-.34-.58-.21-.68.08S36.46,56.82,36.74,56.86Z"/><path class="cls-5" d="M46.05,47.53a.8.8,0,0,1,0-.46.78.78,0,0,1,.64-.39,1.93,1.93,0,0,0,.76-.18c.63-.4.35-1.54,1-2a1.49,1.49,0,0,0,.2-.15.89.89,0,0,0,.11-.37c0-.13.13-.27.26-.25a.31.31,0,0,1,.18.12,3,3,0,0,1,1,1.92,3.18,3.18,0,0,1-.16.86,8.37,8.37,0,0,1-.65,1.75,4.32,4.32,0,0,1-2.6,2c-.06,0-.13,0-.18,0a.2.2,0,0,1-.06-.13A24,24,0,0,1,46.05,47.53Z"/><path class="cls-14" d="M45.19,47.93c0-.14,0-.32.11-.39a.29.29,0,0,1,.16,0c.28,0,.46.28.6.53a8,8,0,0,1,.88,2.31.39.39,0,0,1,0,.35.4.4,0,0,1-.2.11c-.47.12-1.59.39-1.59-.35,0-.4.11-.8.12-1.2A12,12,0,0,0,45.19,47.93Z"/><path class="cls-5" d="M26,44.6c.07.11.19.23.32.21s.2-.29.18-.47a26.68,26.68,0,0,1,0-6.44A11.91,11.91,0,0,0,25.14,39a1.63,1.63,0,0,0-.42.52,1.5,1.5,0,0,0,0,.73A13.51,13.51,0,0,0,25,42.41,7,7,0,0,0,26,44.6Z"/><path class="cls-5" d="M38.05,35.7a5.43,5.43,0,0,1,.45,1.78,9.54,9.54,0,0,1,0,3.41c-.06.23-.23.51-.45.44s-.22-.22-.26-.38a25.93,25.93,0,0,0-2.35-6,1.45,1.45,0,0,1,1.12,0,5.48,5.48,0,0,1,1,.33A1,1,0,0,1,38.05,35.7Z"/><path class="cls-14" d="M28.14,28.81a18.64,18.64,0,0,1,.18,4.09,9.43,9.43,0,0,1-.53,2.94,8.33,8.33,0,0,1-.9,1.59,16.1,16.1,0,0,1-1.49,1.81c-.36.38-1.23.92-1.37,1.43a1.34,1.34,0,0,0,0,.66c.84,3.14,1.54,6.39,2.28,9.55-2.69-2-4-5.55-6.9-7.32-1.28-.8-2.73-1.16-3.7-2.35a4.92,4.92,0,0,1-1.06-3.8,9.77,9.77,0,0,1,1.74-3.74,12.15,12.15,0,0,1,1.29-1.73c1-1.08,2.37-1.77,3.43-2.8A14,14,0,0,0,23.42,26a1.62,1.62,0,0,1,2.08-.48,3.52,3.52,0,0,1,.8.54,7,7,0,0,1,1.21,1.22A3.59,3.59,0,0,1,28.14,28.81Z"/><path class="cls-14" d="M40.32,37.7a34.61,34.61,0,0,1-3.89-1.85A12.43,12.43,0,0,0,33.58,35a7.62,7.62,0,0,1-3.06-1.21,5,5,0,0,1-1.41-3.08,30.84,30.84,0,0,0-1.15-4c-.23-.77.54-1.2,1-1.68s.78-1.2,1.56-1.3a3.31,3.31,0,0,1,1.49.39c1.5.56,2.85.22,4.34,0a32.82,32.82,0,0,1,5-.17,14.68,14.68,0,0,1,3.74.46c2.67.78,4.76,3.54,3.39,6.33a7.61,7.61,0,0,0-1.14,3.09,6.44,6.44,0,0,0,.18,1.69l.46,2.41c.07.38.56,2.22.22,2.38-.51.25-1.91-.77-2.43-.92C43.88,38.87,42.09,38.34,40.32,37.7Z"/><path class="cls-9" d="M31.08,26.17A.84.84,0,0,0,30,25.61a1,1,0,0,0-.66,1.07,1.45,1.45,0,0,0,.72,1.1.62.62,0,0,1,.22.17.52.52,0,0,1,.05.28,3.54,3.54,0,0,1-.42,1.48,1.48,1.48,0,0,1-.37.49,1.82,1.82,0,0,1-.66.31,3,3,0,0,1-1,.2,3.67,3.67,0,0,1-1.4-.21,1.27,1.27,0,0,1-.8-1.08c0-.21.07-.42.09-.63a1.52,1.52,0,0,0-.07-.6,1.18,1.18,0,0,0-.6-.77.74.74,0,0,0-.84,1.17c-.17.26-.6.2-.83,0a1.24,1.24,0,0,1-.36-.84,3.34,3.34,0,0,1,.78-2.45,3.3,3.3,0,0,1,2.32-1.12,2.42,2.42,0,0,0,.47,0,2.45,2.45,0,0,0,.63-.36,3.49,3.49,0,0,1,2.53-.45,5.27,5.27,0,0,1,2.32,1.17.92.92,0,0,1,.4.61.84.84,0,0,1-.31.58A2.62,2.62,0,0,1,31.08,26.17Z"/><line class="cls-15" x1="56.12" y1="51.17" x2="67.98" y2="51.79"/><line class="cls-15" x1="45.99" y1="63.89" x2="49.25" y2="75.32"/><line class="cls-15" x1="52.41" y1="58.61" x2="61.7" y2="66.01"/></g></g></g></svg>