<svg xmlns="http://www.w3.org/2000/svg" xmlns:xlink="http://www.w3.org/1999/xlink" viewBox="0 0 119.76 83.9"><defs><style>.cls-1{fill:#dde2f0;}.cls-2{fill:#8d6558;}.cls-3{fill:#0a45b8;}.cls-4{fill:#bf9779;}.cls-5{fill:#efb1ac;}.cls-6{fill:url(#linear-gradient);}.cls-7{fill:url(#linear-gradient-2);}.cls-8{fill:url(#linear-gradient-3);}.cls-9{fill:#ad896d;}.cls-10{fill:url(#linear-gradient-4);}.cls-11{fill:url(#linear-gradient-5);}.cls-12{fill:url(#linear-gradient-6);}.cls-13{fill:#fee6ce;}.cls-14{fill:#562835;}.cls-15{fill:url(#linear-gradient-7);}.cls-16{fill:url(#linear-gradient-8);}.cls-17{fill:none;stroke:#0a45b8;stroke-linecap:round;stroke-linejoin:round;stroke-width:2px;}</style><linearGradient id="linear-gradient" y1="22.11" x2="21.18" y2="22.11" gradientUnits="userSpaceOnUse"><stop offset="0" stop-color="#ad896d"/><stop offset="0.39" stop-color="#906659"/><stop offset="0.78" stop-color="#784948"/><stop offset="1" stop-color="#6f3e42"/></linearGradient><linearGradient id="linear-gradient-2" x1="27.49" y1="66.23" x2="27.49" y2="19.82" gradientUnits="userSpaceOnUse"><stop offset="0" stop-color="#ad896d"/><stop offset="0.34" stop-color="#9b7360"/><stop offset="1" stop-color="#6f3e42"/></linearGradient><linearGradient id="linear-gradient-3" x1="67.5" y1="76.69" x2="67.5" y2="18.36" gradientUnits="userSpaceOnUse"><stop offset="0" stop-color="#ad896d"/><stop offset="0.13" stop-color="#9b7360"/><stop offset="0.31" stop-color="#875b53"/><stop offset="0.51" stop-color="#7a4b49"/><stop offset="0.72" stop-color="#724144"/><stop offset="1" stop-color="#6f3e42"/></linearGradient><linearGradient id="linear-gradient-4" x1="39.15" y1="28.17" x2="39.15" y2="45.8" gradientUnits="userSpaceOnUse"><stop offset="0" stop-color="#ad896d"/><stop offset="0.48" stop-color="#ab876c"/><stop offset="0.65" stop-color="#a68068"/><stop offset="0.77" stop-color="#9c7561"/><stop offset="0.87" stop-color="#8e6458"/><stop offset="0.95" stop-color="#7c4e4b"/><stop offset="1" stop-color="#6f3e42"/></linearGradient><linearGradient id="linear-gradient-5" x1="64.84" y1="47.36" x2="56.91" y2="47.36" gradientUnits="userSpaceOnUse"><stop offset="0" stop-color="#ad896d"/><stop offset="0.28" stop-color="#ab866b"/><stop offset="0.5" stop-color="#a37c66"/><stop offset="0.69" stop-color="#956c5d"/><stop offset="0.86" stop-color="#835650"/><stop offset="1" stop-color="#6f3e42"/></linearGradient><linearGradient id="linear-gradient-6" x1="49.89" y1="21.14" x2="71.47" y2="80.41" gradientUnits="userSpaceOnUse"><stop offset="0" stop-color="#ad896d"/><stop offset="0.32" stop-color="#a9846a"/><stop offset="0.7" stop-color="#9c7662"/><stop offset="1" stop-color="#8d6558"/></linearGradient><linearGradient id="linear-gradient-7" x1="85.25" y1="53.38" x2="87.72" y2="39.38" gradientUnits="userSpaceOnUse"><stop offset="0" stop-color="#ad896d"/><stop offset="0.22" stop-color="#a47e67"/><stop offset="0.6" stop-color="#8d6257"/><stop offset="1" stop-color="#6f3e42"/></linearGradient><linearGradient id="linear-gradient-8" x1="19.02" y1="22.32" x2="27.03" y2="22.32" xlink:href="#linear-gradient-2"/></defs><title>Ресурс 48600</title><g id="Слой_2" data-name="Слой 2"><g id="Illustration"><path class="cls-1" d="M57,1.16A44.22,44.22,0,0,1,77.84,4.53,45.63,45.63,0,0,1,99.1,22.68c10.21,17,11.27,44-2.13,52.54s-29.35,0-31.48-1.06-16.59-6.38-23-.64-6.17,9.36-11.28,9.36S11.25,72,11.88,44.17c.33-14,7.5-26.15,19.11-33.8A55.26,55.26,0,0,1,57,1.16Z"/><ellipse class="cls-2" cx="91.23" cy="73.97" rx="10.98" ry="3.44"/><path class="cls-3" d="M91.23,77.41c4.23,0,7.89-.75,9.73-1.85-.45-1.75-4.63-3.13-9.73-3.13S82,73.81,81.5,75.56C83.34,76.66,87,77.41,91.23,77.41Z"/><path class="cls-4" d="M94.87,77.22a35,35,0,0,1-7.28,0c-4.27-.48-7.34-1.75-7.34-3.25v6.49c0,1.9,4.92,3.44,11,3.44s11-1.54,11-3.44V74C102.21,75.47,99.14,76.74,94.87,77.22Z"/><path class="cls-2" d="M90.43,37.67a31.35,31.35,0,0,0,2.79-2.36A3.58,3.58,0,0,1,95,34a.37.37,0,0,1,.21,0c.14.05.2.21.24.35a3.77,3.77,0,0,1,.07,1.38,7.94,7.94,0,0,1-.37,1.35c-.23.65-.46,1.31-.68,2-.17.47-.33.94-.52,1.4a12.16,12.16,0,0,0-.5,1.23c-.39,1.34,0,2.88-.67,4.14a.91.91,0,0,1-.39.45c-.38.16-.79-.17-1.06-.48a23.55,23.55,0,0,1-2.8-3.78A2.81,2.81,0,0,1,88,40.7a2,2,0,0,1,.47-1A10.55,10.55,0,0,1,90.43,37.67Z"/><path class="cls-5" d="M93,72.37a6,6,0,0,0-.53-1.28l-.09-.19a1.88,1.88,0,0,0-.49-.63.71.71,0,0,0-.7-.1c-.18.09-.45.3-.41.54a1.37,1.37,0,0,1,0,.29s0,0,0,.06l.05.06a2.7,2.7,0,0,0-.14.85h0v.16c0,.3,0,.59,0,.88a4.34,4.34,0,0,1-.2,1.29,1.13,1.13,0,0,1-.24.46c0,.06-.11.12-.09.19s.1.09.17.1a3.74,3.74,0,0,0,1.9-.29,1.32,1.32,0,0,0,.54-.36A2.33,2.33,0,0,0,93,72.37Z"/><path class="cls-6" d="M5.92,37.18a7.74,7.74,0,0,0,4.61.17A7.5,7.5,0,0,0,14.65,34a17.91,17.91,0,0,0,2.21-4.78c1.7-5.8.46-12.41,3.4-17.68.52-.94,1.18-2,.82-3a3,3,0,0,0-1.89-1.52,6.46,6.46,0,0,0-1.83-.45,4.92,4.92,0,0,0-3.93,2,10.5,10.5,0,0,0-1.82,4.14c-1,4.21-.88,8.61-.75,12.94.06,2,.29,4.68-1.2,6.22a5.31,5.31,0,0,1-4,1.36,9.18,9.18,0,0,1-4.4-1.49c-.36-.2-.86-.37-1.15-.07s-.1.76.1,1.11A10.5,10.5,0,0,0,5.92,37.18Z"/><path class="cls-7" d="M34.94,30.08c.32,4.32-1.37,9-3.44,12.51a10.1,10.1,0,0,0-1,4.58c-.14,1.75-.24,3.52-.29,5.28-.08,2.75-.07,5.32,1.46,7.73a2.21,2.21,0,0,0,.44.52c.62.48,1.52.19,2.29.32a4.31,4.31,0,0,1,2.49,2,2.49,2.49,0,0,1,.39.62,2.77,2.77,0,0,1,.15,1.11,1.11,1.11,0,0,1-.23.86,1.18,1.18,0,0,1-.51.23,6.59,6.59,0,0,1-1.65.43,9.48,9.48,0,0,1-4.16-1.31,5.78,5.78,0,0,1-3-2.72,8.44,8.44,0,0,1-.31-1.41,46.38,46.38,0,0,0-1.57-4.89c-.48-1.55-.25-3.16-.66-4.72-.33-1.28-1.19-2.46-1.09-3.77a6.58,6.58,0,0,1,.46-1.67,23.3,23.3,0,0,0,.93-4.9,14.27,14.27,0,0,0,.14-3.57,12.16,12.16,0,0,0-.67-2.57A35.15,35.15,0,0,0,23.49,31c-.62-1.26-1.5-2.62-2.89-2.84a3.3,3.3,0,0,0-3,1.54c.22-.31-.09-1.89,0-2.38a10,10,0,0,1,.76-2.46,8.79,8.79,0,0,1,3.17-3.79,7.51,7.51,0,0,1,7.4-.51,10.43,10.43,0,0,1,2.5,1.94,13.66,13.66,0,0,1,1.87,2.29A11.58,11.58,0,0,1,34.94,30.08Z"/><path class="cls-8" d="M75,29.6c-.4-1-.82-2.07-1.25-3.1a15.11,15.11,0,0,0-3-5,15.68,15.68,0,0,0-2.67-2,6.35,6.35,0,0,0-2.53-1.14c-4.8-.63-3.1,5.87-4,8.4-.68,2-2.36,3.63-2.76,5.71-.35,1.81.31,3.81-.53,5.45-.56,1.08-1.73,1.86-2,3.06-.24,1.37.82,2.68,1.28,3.9.6,1.53,1.19,3.07,1.79,4.61l3.57,9.22,1.53,4a3.87,3.87,0,0,1,.36,1.45,6.44,6.44,0,0,0,.08,1.52c.28,1.17,1.27,2,1.72,3.16.34.86.35,1.81.63,2.69a4.69,4.69,0,0,0,2.94,3A4.77,4.77,0,0,0,71.92,76a2.71,2.71,0,0,0,2.23,0,11.75,11.75,0,0,0,1.22.52,4,4,0,0,0,1.14.21,1.79,1.79,0,0,0,1.1-.31c.08,0,.17-.12.26-.08.39-.15.74-.21.85-.62a1.26,1.26,0,0,0,0-.51,4.66,4.66,0,0,0-1.19-2.1,6.92,6.92,0,0,0-2.37-1.66,5.69,5.69,0,0,1-.87-.4,4.47,4.47,0,0,1-.92-.82,9.25,9.25,0,0,1-1-1.83,14.28,14.28,0,0,1-1.33-3c-.09-.3-.16-.62-.25-.92s-.23-.65-.36-1a27,27,0,0,1-1-2.72c-.28-1-.55-2-.83-3q-.82-3-1.64-6a10,10,0,0,1-.5-3.9,6.31,6.31,0,0,1,1.72-3.44,9.62,9.62,0,0,1,1.36-1.1c1.21-.84,2.49-1.56,3.64-2.47,3.37-2.7,3.6-6.57,2.18-10.4C75.21,30.19,75.1,29.89,75,29.6Z"/><path class="cls-9" d="M87.11,38.23c.25.3.48.63.72.94s.61.73.93,1.09a13.71,13.71,0,0,0,1.67,2,7.88,7.88,0,0,1,1.65,2.06,25.62,25.62,0,0,1,3.52,7.46c.22.89.44,1.78.65,2.66a3.28,3.28,0,0,1,.15,1c0,1-.9,1.81-1.05,2.81a4.22,4.22,0,0,0,0,.62A16.81,16.81,0,0,0,95.69,63c.31,1.22.93,2.31,1.3,3.51.17.54.27,1.1.46,1.63a4.32,4.32,0,0,1,.58,2.2,1.53,1.53,0,0,1-.71,1A1.6,1.6,0,0,1,96,71.5a4.73,4.73,0,0,1-1.71.85,2.8,2.8,0,0,1-1.87-.16,5,5,0,0,1-.85-.59c-.23-.19-.5-.3-.74-.49a2.77,2.77,0,0,0-.14.86A4.75,4.75,0,0,1,88,71.16a9.62,9.62,0,0,1-1.79-1.76,26.36,26.36,0,0,1-2.41-3.16,17.61,17.61,0,0,0-.91-1.66,5.66,5.66,0,0,0-1.42-1.2,24.58,24.58,0,0,1-2.54-1.59,12.34,12.34,0,0,1-1.56-1.67l-4.23-5.19a5.32,5.32,0,0,0-.64-.7,6.41,6.41,0,0,0-.86-.57,39.72,39.72,0,0,1-5.76-4c-.69-.59-1.18-1.2-2.11-.88a13.56,13.56,0,0,1-5.72.74,13.7,13.7,0,0,1-5.31-2c-2.32-1.3-4.71-2.51-7.14-3.6-1.16-.52-2.4-.93-3.51-1.55s-2.26-1.27-3.36-2a35.67,35.67,0,0,1-3.89-2.61c-.9-.75-1.78-1.53-2.62-2.35a42,42,0,0,1-5-6.35,15,15,0,0,0-1.55-2.08,4.29,4.29,0,0,0-2.18-1.31,2.51,2.51,0,0,0-2.38.69,4.15,4.15,0,0,0-.73,1.49l-1,3.13a20.56,20.56,0,0,0-.6,3c-.33,2.13-.67,4.25-1,6.39-.32,2.31-.65,4.61-1,6.92-.25,1.74-.5,3.47-.59,5.22a10.31,10.31,0,0,0,.05,2.42c.16.84.4,1.66.5,2.52.07.61.08,1.23.09,1.85,0,2.33-.19,4.88.65,7.1a20,20,0,0,0,1.23,2.39,6,6,0,0,1,.76,2.47c0,.82-.39,1.7-.43,2.54A.76.76,0,0,1,19,74c-.06.2-.27.31-.46.4-.38.18-1,0-1.43,0a2.94,2.94,0,0,1-1.52-.29c-1.14-.69-1.42-1.72-1.89-2.91a5.88,5.88,0,0,1-.27-.84,4.64,4.64,0,0,1,0-1,15.9,15.9,0,0,0,0-2.58c-.12-.8-.26-1.6-.37-2.4-.07-.51-.15-1-.22-1.54a24.33,24.33,0,0,0-.48-2.66,16.87,16.87,0,0,1-.82-4.77c0-.4.09-.79.13-1.18a14.94,14.94,0,0,0,0-2.59,22.08,22.08,0,0,0-.28-2.82c-.1-.54-.24-1.08-.37-1.61a58.54,58.54,0,0,1-1.54-9.48,26.66,26.66,0,0,0-1.05-4.56L7.23,28.49A38.29,38.29,0,0,1,5.6,19a19.19,19.19,0,0,1,.87-5.73c.35-1.09.79-2.16,1.24-3.22,1.1-2.65,2.37-5.48,4.86-6.9a14.12,14.12,0,0,1,1.59-.94A28.75,28.75,0,0,1,18.35.66,28.1,28.1,0,0,1,23.61,0,10.14,10.14,0,0,1,25,0a9,9,0,0,1,1.15.22A56,56,0,0,1,34.37,3.1c2.83,1.18,5.54,2.6,8.27,4,.65.34,1.31.67,2,1,4.44,2.22,9.09,4.24,14,4.76a29.93,29.93,0,0,1,4.63.6,14,14,0,0,1,4.38,2.26,21.72,21.72,0,0,1,3.63,3.06c.73.81,1.46,1.62,2.17,2.44a11.57,11.57,0,0,1,1.17,1.54c1,1.7,1.06,4.09,2.4,5.56C78.58,30,80.23,31.68,82,33.24c.89.81,1.68,1.69,2.53,2.52A29.22,29.22,0,0,1,87.11,38.23Z"/><path class="cls-10" d="M51.22,37.85a32.26,32.26,0,0,1-13.93-2.67c-.4-.18-.81-.38-1.2-.59-1.38-.71-2.7-1.52-4-2.35l-1.4-.89a21.33,21.33,0,0,1-2.25-1.61c-.17-.15-1.65-1.67-1.77-1.56h0c.2.27.38.55.57.83a42,42,0,0,0,5,6.35c.84.82,1.72,1.6,2.62,2.35a35.67,35.67,0,0,0,3.89,2.61c1.1.69,2.23,1.33,3.36,2s2.35,1,3.51,1.55q2.05.93,4.07,2a7.33,7.33,0,0,0,.34-.69,20.09,20.09,0,0,0,1.63-6.82.47.47,0,0,0-.09-.35A.42.42,0,0,0,51.22,37.85Z"/><path class="cls-11" d="M63.84,47.64a10.59,10.59,0,0,0-1.76-1.78c-.63-.47-1.55-1-2.24-.41a15.77,15.77,0,0,0-2,2.3,8.13,8.13,0,0,0-.91,1.53,8.48,8.48,0,0,0,1.14.2,13.56,13.56,0,0,0,5.72-.74,1.3,1.3,0,0,1,1.07.06Z"/><path class="cls-12" d="M65.66,33.33c-.45-2.46-.89-4.89-1.21-7.37a17.15,17.15,0,0,0-.29-1.72,11.35,11.35,0,0,0-.58-1.7,8.16,8.16,0,0,0-2.26-3.27,4,4,0,0,0-3.67-1,29.31,29.31,0,0,0-3.9,1.6,6.92,6.92,0,0,0-3.12,3.27c-1.21,2.94.45,6.35-.28,9.45-.49,2.06-2,3.82-2.22,5.94-.18,1.83.67,3.76,0,5.47-.46,1.13-1.55,2-1.65,3.23-.12,1.38,1,2.59,1.63,3.76.74,1.47,1.47,2.95,2.2,4.42l4.41,8.86,1.9,3.81a4,4,0,0,1,.49,1.41A6.56,6.56,0,0,0,57.31,71c.39,1.13,1.45,1.91,2,3,.42.82.52,1.77.88,2.62a4.71,4.71,0,0,0,3.21,2.7,4.77,4.77,0,0,0,1.85,1.26,2.69,2.69,0,0,0,2.22-.21,11.57,11.57,0,0,0,1.26.41,4.11,4.11,0,0,0,1.16.1A1.86,1.86,0,0,0,71,80.49c.07-.06.17-.14.26-.1.37-.18.71-.28.78-.7a1,1,0,0,0-.07-.5,4.47,4.47,0,0,0-1.37-2A7,7,0,0,0,68,75.77a7.36,7.36,0,0,1-.9-.31,4.41,4.41,0,0,1-1-.74A8.62,8.62,0,0,1,65,73a14.83,14.83,0,0,1-1.6-2.82c-.11-.3-.21-.6-.33-.9s-.29-.62-.45-.93a26.08,26.08,0,0,1-1.26-2.61c-.37-1-.74-1.93-1.1-2.89Q59.12,59.93,58,57a9.46,9.46,0,0,1-.86-3.83,6.16,6.16,0,0,1,1.38-3.58,10.46,10.46,0,0,1,1.26-1.23c1.12-.94,2.34-1.78,3.39-2.8a7.42,7.42,0,0,0,2.27-3.68A22.31,22.31,0,0,0,65.66,33.33Z"/><path class="cls-13" d="M94.33,72.35A4.73,4.73,0,0,0,96,71.5a1.6,1.6,0,0,0,1.28-.16,1.53,1.53,0,0,0,.71-1,4.32,4.32,0,0,0-.58-2.2c-.19-.53-.29-1.09-.46-1.63-.37-1.2-1-2.29-1.3-3.51a12.72,12.72,0,0,1-.28-1.73,3.71,3.71,0,0,0-1.59-.16,11.72,11.72,0,0,0-3.17,1.06,6.49,6.49,0,0,1-3.25.66A9,9,0,0,1,85,61.94a4.76,4.76,0,0,0-2.49-.56A1.65,1.65,0,0,0,80.84,63l.63.38a5.66,5.66,0,0,1,1.42,1.2,17.61,17.61,0,0,1,.91,1.66,26.36,26.36,0,0,0,2.41,3.16A9.62,9.62,0,0,0,88,71.16a4.75,4.75,0,0,0,2.73.81,2.77,2.77,0,0,1,.14-.86c.24.19.51.3.74.49a5,5,0,0,0,.85.59A2.8,2.8,0,0,0,94.33,72.35Z"/><path class="cls-14" d="M98,69.11a.88.88,0,0,0-.33-.36,1.41,1.41,0,0,0-.7-.15.86.86,0,0,0-.5.11.92.92,0,0,0-.24.34,6.66,6.66,0,0,0-.39.86,1.84,1.84,0,0,0-.08.93,2.26,2.26,0,0,0,.23.59.16.16,0,0,0,.06.08l.06,0a1.77,1.77,0,0,0,1.43-.31,1.72,1.72,0,0,0,.54-.83,2,2,0,0,0,0-1.09Z"/><path class="cls-14" d="M90.81,71.05l-.35-.26a2.94,2.94,0,0,1-.93-1.36c-.13-.34-.2-.71-.35-1A4.78,4.78,0,0,0,88,67c-.09-.08-.23-.17-.33-.1a.29.29,0,0,0-.07.2,7.42,7.42,0,0,0,.59,2.06c.06.25.08.5.15.74A2.5,2.5,0,0,0,89.2,71a7.94,7.94,0,0,0,1.21.76l.28.16h0a2.7,2.7,0,0,1,.14-.85Z"/><path class="cls-14" d="M92.73,57.71c.25.34.78.36,1,.7a1.16,1.16,0,0,1,.17.58,6.59,6.59,0,0,1,0,.77,2.36,2.36,0,0,1-.73-.26,1.16,1.16,0,0,1-.48-.61,1.33,1.33,0,0,1,0-.4C92.66,58.24,92.72,58,92.73,57.71Z"/><path class="cls-15" d="M89.25,50.59A14.15,14.15,0,0,1,89,52.06a1.88,1.88,0,0,1-.92.88,5.13,5.13,0,0,1-1.66.36,6,6,0,0,1-3.45-.58,3.13,3.13,0,0,1-1.39-1.63,3.27,3.27,0,0,1,.36-2.24c.3-.86.36-1.8.72-2.64a4.14,4.14,0,0,1,1.52-1.84c.46-.31,1-.52,1.44-.82a10.85,10.85,0,0,0,1.18-1,35.42,35.42,0,0,1,2.85-2.34,1.3,1.3,0,0,1,.91-.36.86.86,0,0,1,.61.46,2.18,2.18,0,0,1,.24.76,5.47,5.47,0,0,1,.12,1.45c-.09,1.21-.84,2.29-1,3.5a15.41,15.41,0,0,1-.1,2.15C90.21,49.07,89.53,49.74,89.25,50.59Z"/><path class="cls-5" d="M85.1,48.93a6.28,6.28,0,0,0,.38-1.46,5,5,0,0,1,0-.86,1.85,1.85,0,0,1,.28-.54l2.59-3.78a3.76,3.76,0,0,1,2-1.77.47.47,0,0,1,.37,0,.5.5,0,0,1,.17.23,3.54,3.54,0,0,1,0,2.32c-.2.77-.51,1.5-.68,2.27A15.87,15.87,0,0,0,90,47.29a4,4,0,0,1-.17.92A3,3,0,0,1,88.12,50a4.79,4.79,0,0,1-2.37.36C85.11,50.24,85,49.48,85.1,48.93Z"/><path class="cls-16" d="M24.67,23.64A62.31,62.31,0,0,0,19,15.24a17.41,17.41,0,0,1,1.39,7.81,50.06,50.06,0,0,1-.54,6.35c.17-.54.35-1.07.52-1.6a4.15,4.15,0,0,1,.73-1.49,2.5,2.5,0,0,1,2.38-.69,4.29,4.29,0,0,1,2.18,1.31A13.88,13.88,0,0,1,27,28.71C26.24,27,25.53,25.29,24.67,23.64Z"/><line class="cls-17" x1="107.18" y1="71.74" x2="118.76" y2="69.07"/><line class="cls-17" x1="104.56" y1="66.87" x2="114.33" y2="60.12"/><line class="cls-17" x1="99.94" y1="63.45" x2="106.18" y2="53.33"/></g></g></svg>