<svg xmlns="http://www.w3.org/2000/svg" xmlns:xlink="http://www.w3.org/1999/xlink" viewBox="0 0 96.61 90.66"><defs><style>.cls-1{fill:#dde2f0;}.cls-2{fill:url(#linear-gradient);}.cls-3{fill:url(#linear-gradient-2);}.cls-4{fill:url(#linear-gradient-3);}.cls-5{fill:#efb1ac;}.cls-6{fill:#ad896d;}.cls-7{fill:#562835;}.cls-8{fill:url(#linear-gradient-4);}.cls-9{fill:#fee6ce;}.cls-10{fill:url(#linear-gradient-5);}.cls-11{fill:url(#linear-gradient-6);}.cls-12{fill:none;stroke:#0a45b8;stroke-linecap:round;stroke-linejoin:round;stroke-width:2px;}</style><linearGradient id="linear-gradient" x1="65.84" y1="79.02" x2="43.6" y2="40.52" gradientUnits="userSpaceOnUse"><stop offset="0" stop-color="#8d6558"/><stop offset="0.3" stop-color="#9c7662"/><stop offset="0.68" stop-color="#a9846a"/><stop offset="1" stop-color="#ad896d"/></linearGradient><linearGradient id="linear-gradient-2" x1="42.34" y1="52.18" x2="57.1" y2="77.73" gradientUnits="userSpaceOnUse"><stop offset="0" stop-color="#8d6558"/><stop offset="0.01" stop-color="#8b6357" stop-opacity="0.94"/><stop offset="0.08" stop-color="#845951" stop-opacity="0.69"/><stop offset="0.16" stop-color="#7d514c" stop-opacity="0.48"/><stop offset="0.24" stop-color="#784a49" stop-opacity="0.3"/><stop offset="0.33" stop-color="#744446" stop-opacity="0.17"/><stop offset="0.43" stop-color="#714144" stop-opacity="0.07"/><stop offset="0.57" stop-color="#6f3f42" stop-opacity="0.02"/><stop offset="0.83" stop-color="#6f3e42" stop-opacity="0"/></linearGradient><linearGradient id="linear-gradient-3" x1="13.09" y1="14.34" x2="37.07" y2="14.34" gradientUnits="userSpaceOnUse"><stop offset="0" stop-color="#ad896d"/><stop offset="0.21" stop-color="#a9846a"/><stop offset="0.46" stop-color="#9d7662"/><stop offset="0.73" stop-color="#895e54"/><stop offset="1" stop-color="#6f3e42"/></linearGradient><linearGradient id="linear-gradient-4" x1="59.19" y1="24.68" x2="85.85" y2="9.29" xlink:href="#linear-gradient-3"/><linearGradient id="linear-gradient-5" x1="21.76" y1="59.07" x2="38.52" y2="59.07" gradientUnits="userSpaceOnUse"><stop offset="0" stop-color="#ae3e42" stop-opacity="0.8"/><stop offset="0.13" stop-color="#bf6769" stop-opacity="0.62"/><stop offset="0.31" stop-color="#d39999" stop-opacity="0.4"/><stop offset="0.49" stop-color="#e3c1bf" stop-opacity="0.22"/><stop offset="0.67" stop-color="#efddda" stop-opacity="0.1"/><stop offset="0.84" stop-color="#f6eeeb" stop-opacity="0.03"/><stop offset="1" stop-color="#f8f4f0" stop-opacity="0"/></linearGradient><linearGradient id="linear-gradient-6" x1="24.84" y1="35.27" x2="37.19" y2="35.27" gradientUnits="userSpaceOnUse"><stop offset="0" stop-color="#ae3e42" stop-opacity="0.5"/><stop offset="0" stop-color="#ae3e42" stop-opacity="0.49"/><stop offset="0.07" stop-color="#ae3e42" stop-opacity="0.34"/><stop offset="0.16" stop-color="#ae3e42" stop-opacity="0.21"/><stop offset="0.25" stop-color="#ae3e42" stop-opacity="0.12"/><stop offset="0.37" stop-color="#ae3e42" stop-opacity="0.05"/><stop offset="0.54" stop-color="#ae3e42" stop-opacity="0.01"/><stop offset="1" stop-color="#ae3e42" stop-opacity="0"/></linearGradient></defs><title>Ресурс 54600</title><g id="Слой_2" data-name="Слой 2"><g id="Illustration"><path class="cls-1" d="M46.71,4A44.11,44.11,0,0,1,67.56,7.41,45.51,45.51,0,0,1,88.82,25.56c10.21,17,11.27,44-2.13,52.54S57.34,78.1,55.21,77s-16.59-6.38-23-.64S26.07,85.76,21,85.76,1,74.91,1.6,47c.33-14,7.5-26.14,19.11-33.79A55.39,55.39,0,0,1,46.71,4Z"/><path class="cls-2" d="M73.15,26.49A133.15,133.15,0,0,1,75.73,44a12.64,12.64,0,0,0,.51,3.13,12.21,12.21,0,0,0,2.43,3.75q5.3,6.35,10.22,13A34.29,34.29,0,0,1,84,68.21,67.86,67.86,0,0,1,44.14,80.5a45.18,45.18,0,0,1-16.95-3.21,89.1,89.1,0,0,1,1.18-9.08,43.11,43.11,0,0,1,2.95-8.84C35.62,50,43.24,42.71,51.59,36.63c2.43-1.77,4.9-3.47,7.46-5a24.86,24.86,0,0,1,6.21-2.88C67.82,28,70.85,27.82,73.15,26.49Z"/><path class="cls-3" d="M44.14,80.5a66,66,0,0,0,9-.48A43,43,0,0,0,59,72.4c1.77-2.76,4.42-5.63,5.42-8.78s2.24-5.95,3-9a43.17,43.17,0,0,0,.91-4.47c.09-.54.2-2.79.68-3.11-7.21,4.9-16.1,6.7-24.41,8.83-4.18,1.07-8.48,1.58-12.71,2.39-.11.21-.21.42-.31.63s-.17.35-.25.52a43.11,43.11,0,0,0-2.95,8.84,89.1,89.1,0,0,0-1.18,9.08A45.18,45.18,0,0,0,44.14,80.5Z"/><path class="cls-4" d="M37.07,10.47a15,15,0,0,0-8.69-5.3c-.95-.19-1.92-.29-2.86-.51-3.25-.74-6-2.85-9-4.2A3.69,3.69,0,0,0,14.36,0a1.44,1.44,0,0,0-1.25,1.52A11.06,11.06,0,0,0,14.3,5.34c2.26,4,5.82,7.19,7.34,11.5.42,1.21.67,2.47,1,3.71a15.75,15.75,0,0,0,2.13,4.79,9.12,9.12,0,0,0,4,3.34c1.88-3.39,2-7.56,3.39-11.2A19,19,0,0,1,37.07,10.47Z"/><path class="cls-5" d="M18.86,5.26c3.23,2.84,8,3.31,11.36,6a20.31,20.31,0,0,1,1.59,1.49,2.12,2.12,0,0,1,.72,1.15,2.35,2.35,0,0,1-.43,1.3c-1.72,3.14-1.76,6.92-2.9,10.32-.09.28-.23.6-.52.69a.92.92,0,0,1-.69-.16c-2.16-1.25-3.37-3.66-4.18-6s-1.36-4.87-2.74-6.95a23.84,23.84,0,0,0-2-2.4,40.87,40.87,0,0,1-3.35-4.18c-.41-.6-2.8-4.95-1.09-4.78S17.77,4.31,18.86,5.26Z"/><path class="cls-6" d="M69.4,29.45a19,19,0,0,1-3.22,9.71,22.29,22.29,0,0,1-4.86,4.69,16.1,16.1,0,0,0-4.1,4.95,29.79,29.79,0,0,0-2.49,7.06,8.48,8.48,0,0,1-2,4.27c-.4.36-.86.65-1.26,1-1.34,1.14-2,2.88-3.31,4.09-2,1.9-5,2.21-7.74,2.1A6.17,6.17,0,0,1,37,66.47c-.52-.26-1.66.7-2.14.9C28.79,69.87,20.06,64,22.05,57.21a19.82,19.82,0,0,1,3.56-6.1,9.91,9.91,0,0,0,2-5.6c0-2.46-1.05-4.33-1.93-6.54a9.28,9.28,0,0,1,.3-8.16c.6-1,1.33-1.78,1.2-3a18,18,0,0,1-.22-3.67,24.58,24.58,0,0,1,1-5.1c1.07-3.43,2.28-7.44,5.3-9.74C37,6.49,43.48,6.56,47.9,7.12c3.6.45,7.35.1,10.83,1.13a17,17,0,0,1,2.43.85c3.5,1.58,5.86,5.05,7,8.72.57,1.86,1.4,4,1.39,5.92,0,1.69,0,3.43-.09,5.13Z"/><path class="cls-7" d="M56.33,35.28a8.22,8.22,0,0,0-3.12-1.07A4.67,4.67,0,0,0,49.28,36c-.31.41-.56.86-.87,1.27a10,10,0,0,0,2.9.8,4.43,4.43,0,0,0,2.17-.15,4.36,4.36,0,0,0,1.24-.79A12,12,0,0,0,56.33,35.28Z"/><path class="cls-8" d="M65.13,35a6.13,6.13,0,0,0,3.08-1.7c.86-.82,1.57-1.78,2.35-2.68,1.4-1.59,3-3,4.45-4.53a14.48,14.48,0,0,0,3.42-5.3c.28-.87.44-1.79.77-2.65a17.53,17.53,0,0,1,1.5-2.67A17.9,17.9,0,0,0,83.11,10c.46-2,.68-6.05-1.48-7.23a2.6,2.6,0,0,0-2-.11,9.21,9.21,0,0,0-1.81.89,42.26,42.26,0,0,1-9.77,4.14c-3.74,1.06-7.82,1.7-10.75,4.26-.09,2.29,1.15,4.33,2.44,6.22a25,25,0,0,1,1.59,2.62A34.18,34.18,0,0,1,64,29.19C64.36,31.06,64.73,33.11,65.13,35Z"/><path class="cls-5" d="M64.22,14.4c1.86-2.31,4.93-3.14,7.64-4.34a59.46,59.46,0,0,0,7.3-4.2c.69-.43,1.62-.84,2.24-.32a1.68,1.68,0,0,1,.5,1,10.49,10.49,0,0,1-1.44,6.54,59.81,59.81,0,0,0-3.19,6c-.34.89-.58,1.82-1,2.69A12.72,12.72,0,0,1,72,26.89a4.94,4.94,0,0,1-1.32.75,5.74,5.74,0,0,1-1.24.21c-.8.06-1.59.1-2.39.1a2,2,0,0,1-1.26-.3,2.15,2.15,0,0,1-.58-1.4,28.1,28.1,0,0,0-2.13-6.1A6.08,6.08,0,0,1,64.22,14.4Z"/><path class="cls-9" d="M57.22,48.8A22.83,22.83,0,0,1,60,45.07a3.53,3.53,0,0,0-3.07-.35c-1.58.4-3.06,1.11-4.62,1.57a7,7,0,0,1-4.77,0,14.78,14.78,0,0,1-2.47-1.72A15.07,15.07,0,0,0,35.52,42a12.31,12.31,0,0,0-7.36,2.43l-.61.53c0,.17,0,.34,0,.53a9.91,9.91,0,0,1-2,5.6,19.82,19.82,0,0,0-3.56,6.1c-2,6.82,6.74,12.66,12.82,10.16.48-.2,1.62-1.16,2.14-.9a6.17,6.17,0,0,0,3.37.84c2.75.11,5.75-.2,7.74-2.1,1.27-1.21,2-2.95,3.31-4.09.4-.34.86-.63,1.26-1a8.48,8.48,0,0,0,2-4.27A29.79,29.79,0,0,1,57.22,48.8Z"/><path class="cls-10" d="M36.9,66.45a8.2,8.2,0,0,0,1.56-3.85A14.2,14.2,0,0,0,38,57.75a12.18,12.18,0,0,0-.64-2,9.48,9.48,0,0,0-5.12-5.1,8.17,8.17,0,0,0-4-.29,7.7,7.7,0,0,0-2.79,1,19,19,0,0,0-3.38,5.86c-2,6.82,6.74,12.66,12.82,10.16C35.32,67.18,36.34,66.35,36.9,66.45Z"/><path class="cls-7" d="M41.32,63.05a2.75,2.75,0,0,0,1-1.57,1.62,1.62,0,0,0,0-.58,3,3,0,0,0-1-1.68,4.38,4.38,0,0,0-1.63-.81,7,7,0,0,0-1.82-.25c-.53,0-.81-.33-1.24-.6a10.15,10.15,0,0,0-1.36-.68,7.86,7.86,0,0,0-1.4-.52,3.37,3.37,0,0,0-1.7,0,2.83,2.83,0,0,0-1.9,2c-.25,1.11-.22,3.09.87,3.75a2.62,2.62,0,0,0,1,.45,7.75,7.75,0,0,1,1,.23h.11s.07-.09.09-.14a.56.56,0,0,1,.67-.29.72.72,0,0,1,.44.62,1,1,0,0,1-.28.73c-.27.28,0,.58.18.83a2.56,2.56,0,0,0,.68.71,2.62,2.62,0,0,0,1.34.37,3.89,3.89,0,0,0,2.06-.29c.1,0,0-.21-.06-.3a.93.93,0,0,0-.27-.21,1.74,1.74,0,0,1-.67-.59,1.17,1.17,0,0,1,0-1.21,1.45,1.45,0,0,1,1.06-.62,1.94,1.94,0,0,1,1.21.32,1.41,1.41,0,0,1,.63.85s0,0,0,0,0,0,0,0A2.93,2.93,0,0,0,41.32,63.05Z"/><path class="cls-11" d="M37.18,35.79a7.77,7.77,0,0,0-2-4.62A8.32,8.32,0,0,0,30,28.35a7.41,7.41,0,0,0-2.89.25,7.13,7.13,0,0,1-1.16,2.21,9.28,9.28,0,0,0-.3,8.16c.22.55.45,1.08.68,1.61a7.24,7.24,0,0,0,5.57,1.59,6.94,6.94,0,0,0,2-.62,6.42,6.42,0,0,0,1.61-1.11A6.1,6.1,0,0,0,37.18,35.79Z"/><path class="cls-7" d="M34.25,36.78a8.77,8.77,0,0,0-6.48-2.48,3.75,3.75,0,0,1,3.8-.91A4.61,4.61,0,0,1,34.25,36.78Z"/><line class="cls-12" x1="16.46" y1="68.75" x2="4.73" y2="73.82"/><line class="cls-12" x1="13.51" y1="57.2" x2="1" y2="54.58"/><line class="cls-12" x1="16.75" y1="46.2" x2="7.1" y2="37.82"/><line class="cls-12" x1="22.83" y1="78.75" x2="16.16" y2="89.66"/></g></g></svg>