<svg xmlns="http://www.w3.org/2000/svg" xmlns:xlink="http://www.w3.org/1999/xlink" viewBox="0 0 119.04 81.86"><defs><style>.cls-1{fill:#dde2f0;}.cls-2{fill:#ad896d;}.cls-3{fill:#8d6558;}.cls-4{fill:#efb1ac;}.cls-5{fill:url(#linear-gradient);}.cls-6{fill:url(#linear-gradient-2);}.cls-7{fill:url(#linear-gradient-3);}.cls-8{fill:#6f3e42;}.cls-9{fill:url(#linear-gradient-4);}.cls-10{fill:url(#linear-gradient-5);}.cls-11{fill:#bf9779;}.cls-12{fill:#fee6ce;}.cls-13{fill:#562835;}.cls-14{fill:url(#linear-gradient-6);}.cls-15{fill:none;stroke:#0a45b8;stroke-linecap:round;stroke-linejoin:round;stroke-width:2px;}</style><linearGradient id="linear-gradient" x1="66.25" y1="43.5" x2="79.06" y2="50.03" gradientUnits="userSpaceOnUse"><stop offset="0" stop-color="#6f3e42"/><stop offset="0.66" stop-color="#ad896d"/></linearGradient><linearGradient id="linear-gradient-2" x1="81.91" y1="58.03" x2="119.04" y2="58.03" gradientUnits="userSpaceOnUse"><stop offset="0.16" stop-color="#ad896d"/><stop offset="0.36" stop-color="#b08c70"/><stop offset="0.52" stop-color="#b9967b"/><stop offset="0.68" stop-color="#c7a78c"/><stop offset="0.82" stop-color="#dcbfa5"/><stop offset="0.97" stop-color="#f6ddc5"/><stop offset="1" stop-color="#fee6ce"/></linearGradient><linearGradient id="linear-gradient-3" x1="72.62" y1="39.17" x2="85.93" y2="31.49" gradientUnits="userSpaceOnUse"><stop offset="0" stop-color="#6f3e42"/><stop offset="1" stop-color="#ad896d"/></linearGradient><linearGradient id="linear-gradient-4" x1="56.54" y1="47.23" x2="63.39" y2="61.93" gradientUnits="userSpaceOnUse"><stop offset="0" stop-color="#ad896d"/><stop offset="0.13" stop-color="#a8836a"/><stop offset="0.31" stop-color="#9a7260"/><stop offset="0.51" stop-color="#845750"/><stop offset="0.66" stop-color="#6f3e42"/></linearGradient><linearGradient id="linear-gradient-5" x1="56.9" y1="63.51" x2="76.08" y2="63.51" gradientUnits="userSpaceOnUse"><stop offset="0" stop-color="#fee6ce"/><stop offset="0.19" stop-color="#e1c5ac"/><stop offset="0.39" stop-color="#caab90"/><stop offset="0.59" stop-color="#ba987d"/><stop offset="0.79" stop-color="#b08d71"/><stop offset="1" stop-color="#ad896d"/></linearGradient><linearGradient id="linear-gradient-6" x1="41.36" y1="48.02" x2="50.66" y2="48.02" gradientUnits="userSpaceOnUse"><stop offset="0" stop-color="#8d6558"/><stop offset="0.95" stop-color="#ab876c"/><stop offset="1" stop-color="#ad896d"/></linearGradient></defs><title>Ресурс 2600</title><g id="Слой_2" data-name="Слой 2"><g id="Illustration"><path class="cls-1" d="M58,.14A44,44,0,0,1,78.89,3.51a45.57,45.57,0,0,1,21.26,18.15c10.21,17,11.27,44-2.13,52.54s-29.35,0-31.48-1.06-16.59-6.38-23-.64-6.17,9.36-11.28,9.36S12.3,71,12.94,43.15c.32-14,7.49-26.15,19.1-33.8A55.26,55.26,0,0,1,58,.14Z"/><path class="cls-2" d="M79,36.51a14.34,14.34,0,0,1,1-4.45,7.09,7.09,0,0,1,2.91-3.43,4.66,4.66,0,0,1,4.38-.16,5.14,5.14,0,0,1,2.15,2.45,13.06,13.06,0,0,1,.9,3.19,70.19,70.19,0,0,1,1,8.17c.39,5.47.21,11.34-3.27,15.9a10.22,10.22,0,0,1-4,3.22l-.07,0c-2.44,1.07-5.21,1.12-7.83,1.2a26.47,26.47,0,0,1-8.45-1,36.9,36.9,0,0,0-3.81-1.13,5,5,0,0,1,.4-2.23,2.33,2.33,0,0,1,.45-.74,3.19,3.19,0,0,1,1.58-.72c2-.48,4.08-.94,5.65-2.25,1.75-1.46,2.56-3.72,3.3-5.87a65.62,65.62,0,0,0,2.2-7.37C77.87,39.67,78.84,38.19,79,36.51Z"/><path class="cls-3" d="M66.84,2.19c0-.31,0-.69.28-.81s.54.08.75.28a24.24,24.24,0,0,1,5.86,8.13.59.59,0,0,1,.08.34.51.51,0,0,1-.19.29,2.12,2.12,0,0,1-1.45.3l-2.67-.11a1.92,1.92,0,0,1-.72-.13c-.52-.26-.6-.89-.64-1.41A13.53,13.53,0,0,0,67.69,7,31.34,31.34,0,0,1,66.84,2.19Z"/><path class="cls-4" d="M67.47,2.23v0c0-.08,0-.19.09-.22a.19.19,0,0,1,.16.06,4.06,4.06,0,0,1,.77.88q1,1.35,1.86,2.76a17.61,17.61,0,0,1,2,3.47.85.85,0,0,1,.06.31A.66.66,0,0,1,72,10a1.56,1.56,0,0,1-.68.09c-.64,0-1-.06-1.19-.65s-.51-1.26-.78-1.88c-.37-.89-.75-1.79-1.07-2.7-.17-.45-.32-.91-.45-1.37A6.89,6.89,0,0,1,67.47,2.23Z"/><path class="cls-5" d="M81.12,33.17l-1.53-.45a10.83,10.83,0,0,1-2.22-.85A10.42,10.42,0,0,1,75,29.77c-.56,2-2.25,3.54-3.91,4.77a1.87,1.87,0,0,0-.57.55,1.47,1.47,0,0,0-.17.72,23.11,23.11,0,0,0,.4,3.88,17,17,0,0,1-.56,6.72,27.62,27.62,0,0,1-3.16,6.34c-.15.27-.31.54-.47.81a9.4,9.4,0,0,0-.87,1.7,9.27,9.27,0,0,0-.36,1.47,18.75,18.75,0,0,1-.59,2.91c-.19.52-.53,1.23.27,1.41.43.1.84.2,1.27.32a8.85,8.85,0,0,0,3.81.5A5.75,5.75,0,0,0,73,60.73a7,7,0,0,0,1.1-1.37A31.08,31.08,0,0,0,78,50.7c.59-2.13,1-4.31,1.56-6.44A40,40,0,0,0,81,37.74,26.8,26.8,0,0,0,81.12,33.17Z"/><path class="cls-6" d="M85.43,61.8a40.6,40.6,0,0,1,6.14,0c1.94.18,3.85.63,5.8.82,1.64.16,3.29.14,4.94.22,4.84.23,9.62,1.36,14.46,1.41a3,3,0,0,0,1.72-.35,1.1,1.1,0,0,0,.36-1.54,1.64,1.64,0,0,0-.77-.41L108.56,59c-1.16-.36-2.32-.71-3.49-1-2.93-.71-5.95-1-8.9-1.55a10.58,10.58,0,0,1-3.16-1,4.29,4.29,0,0,1-2.1-2.5c-.1-.35-.18-.78-.51-.94-.5-.23-1,.34-1.24.83a33.18,33.18,0,0,1-2.77,4.67,14.72,14.72,0,0,1-3.86,3.52c-.66.42-1,1,0,1S84.46,61.85,85.43,61.8Z"/><path class="cls-7" d="M87.21,36.71a11.39,11.39,0,0,1-.46,3.48,9.1,9.1,0,0,1-1,2.15c-1,1.57-2.48,2.82-3.14,4.58a3.39,3.39,0,0,1-2.07,2,2.54,2.54,0,0,1-2.72-.8,6.73,6.73,0,0,1-.72-1.59A19.74,19.74,0,0,0,75.57,44a23.14,23.14,0,0,1-1.31-2.58,61.6,61.6,0,0,1-3.21-8.92c-.36-1.3-1-2.72-.64-4,.09-.38.25-.74.36-1.12s.18-.81.33-1.2a1.66,1.66,0,0,1,.75-.95,1.75,1.75,0,0,1,1.61.15c.49.28.91.67,1.4.94a10.5,10.5,0,0,1,1.09.61,3.9,3.9,0,0,1,1.11,2.41l1,5a7.81,7.81,0,0,0,.8,1.92c.3-2.56,1.1-5.29,3.05-7a2.08,2.08,0,0,1,1.19-.59c.89,0,1.82,1.34,2.27,2a9.88,9.88,0,0,1,1.38,3A12.32,12.32,0,0,1,87.21,36.71Z"/><path class="cls-8" d="M72.81,28.31a1,1,0,0,1,1-.26c.34.14.53.5.82.72s.55.25.75.44a3.22,3.22,0,0,1,.46.73,2.8,2.8,0,0,1,.42,1.83,3.32,3.32,0,0,1-.24.69c-.23.56-.44,1.71-1,2a1.36,1.36,0,0,1-.8.1,1.66,1.66,0,0,1-1.07-.48,5.1,5.1,0,0,1-.53-1.16c-.42-.85-1.11-1.36-.93-2.41A4.66,4.66,0,0,1,72.81,28.31Z"/><path class="cls-2" d="M71.52,35.3a9.91,9.91,0,0,0,4.26-5.37c.37-1.1.41-2.24.78-3.33A15.82,15.82,0,0,1,78.4,23a48.63,48.63,0,0,1,3.33-4.25c.45-.54.91-1.09,1.31-1.67s.66-1.06,1-1.6L84.85,14a7.42,7.42,0,0,0,1.25-3.73,9.08,9.08,0,0,0-.32-2.7C85.36,6.33,84,5.64,83.63,4.4a1.92,1.92,0,0,0-1-1.22,2.54,2.54,0,0,0-1.74,0,8.21,8.21,0,0,0-1.6.79C78,4.7,76.78,5.52,75.49,6.29a3.79,3.79,0,0,0-2.38-.46A12.82,12.82,0,0,0,67.18,7a11.78,11.78,0,0,0-2.31,1.86c-1.15,1.1-2.26,2.25-3.33,3.42a13.79,13.79,0,0,0-1.83,2.34c-1.07,1.82-.64,4.36-2.27,5.71Q53.35,23.71,49,26.79c-1,.69-2,1.37-2.86,2.15-2.55,2.19-4.37,5.09-6.4,7.78C38.86,37.89,37.93,39,37,40.16s-1.36,2.9-2.78,3.53a31.1,31.1,0,0,0-7,4.29c-.83.67-1.62,1.39-2.47,2-2.45,1.83-5.35,3-7.88,4.71a16.85,16.85,0,0,1-4.37,2.6A15.42,15.42,0,0,1,7,58c-1.29-.07-2.68-.27-3.8.38a5.49,5.49,0,0,0-1,.84L0,61.24a1.87,1.87,0,0,0,.57,1.58,1.86,1.86,0,0,1,.26.23c.1.12.18.27.27.4a3.15,3.15,0,0,0,2.43,1.47A3.84,3.84,0,0,1,4.3,65a7.27,7.27,0,0,0,1.82.37,9.37,9.37,0,0,0,1.3-.11,12.22,12.22,0,0,0,4-1,1.45,1.45,0,0,0,1.2.38,6.16,6.16,0,0,0,2.85-1.27,4.29,4.29,0,0,1,1.17-.59c.5-.14,1-.08,1.51-.23a3.7,3.7,0,0,0,1-.57c1-.7,2-1.44,3-2.09a29.31,29.31,0,0,1,3.34-1.61l4.1-1.85a13.88,13.88,0,0,0,3.62-1.84c.45-.38.83-.83,1.26-1.24a10.28,10.28,0,0,1,3.76-2.36,8.75,8.75,0,0,1,3.36-.54c.75,1.41,2.11,2.36,3.18,3.56.89,1,1.56,2.19,2.4,3.24a12,12,0,0,0,2.65,2.43c2.93,2,6.44,2.42,10,2.59,1.29.06,3.08.13,4.19-.65A5.93,5.93,0,0,0,66,58c.1-.52.14-1.05.22-1.58.6-4,3.69-7.08,5.11-10.84a12.49,12.49,0,0,0,.75-6.14C71.91,38.08,71.72,36.62,71.52,35.3Z"/><path class="cls-9" d="M63.9,46.79A75,75,0,0,0,50.63,50.3c-2.16.78-4.27,1.67-6.34,2.65l-.29.13c.3.29.59.58.86.88.89,1,1.56,2.19,2.4,3.24a12,12,0,0,0,2.65,2.43c2.93,2,6.44,2.42,10,2.59,1.29.06,3.08.13,4.19-.65A5.93,5.93,0,0,0,66,58c.1-.52.14-1.05.22-1.58.58-3.83,3.47-6.86,5-10.45C68.75,46.1,66.31,46.38,63.9,46.79Z"/><path class="cls-2" d="M63.29,62.45C65.05,61.88,66,60,66.4,58.17c.16-.79.26-1.6.47-2.38.81-3.07,3.26-5.46,4.29-8.47a21.38,21.38,0,0,0,.56-2.23,16.51,16.51,0,0,0,.54-4.79c0-.41-.72-5.06-.73-5.06-.56-.34-2.48,2.57-2.8,2.95C67,40.25,65,42.05,63.07,44a33.94,33.94,0,0,0-3,3.38,14.78,14.78,0,0,0-2.25,3.88A7.61,7.61,0,0,0,57.79,56c-3.87,1.14-8-.22-11.52,1.83l-2.36,1.39a11.19,11.19,0,0,1-1.69.86,12.65,12.65,0,0,1-2.13.48,37.06,37.06,0,0,0-3.89.88,4.93,4.93,0,0,0-1.07.41A9.51,9.51,0,0,0,33,64a1.8,1.8,0,0,0-.41.54,3.56,3.56,0,0,0,.21,2.4,2.76,2.76,0,0,0,1.87,1.31,6.81,6.81,0,0,0,2.34,0,1.64,1.64,0,0,1,.7,0,2,2,0,0,1,.45.24c1.2.69,2.7.22,4-.27l4-1.5c1.38-.52,2.83-.14,4.2-.67s2.68-1.23,4.08-1.7C57.32,63.46,60.39,63.37,63.29,62.45Z"/><path class="cls-10" d="M75,64.59a2.3,2.3,0,0,0-.65-4.19c-.57-.14-1.17-.07-1.74-.17s-1.29-.5-2-.64a5.94,5.94,0,0,0-1.52-.06c-1.08.06-2.12.18-3.19.31s-2.24-.5-3.39-.46a4.58,4.58,0,0,0-2.18.79c-.36.22-.71.47-1.08.66a9.18,9.18,0,0,0-1.23.68,3.68,3.68,0,0,0-1.13,3.19c0,.58.52.92,1,1.29a14.24,14.24,0,0,0,1.26,1.07,4.17,4.17,0,0,0,2.24.58,12.94,12.94,0,0,0,2.32-.31c1.45-.29,2.9-.69,4.34-1C70.39,65.86,73,65.85,75,64.59Z"/><path class="cls-11" d="M63.19,67a1.82,1.82,0,0,0,.87-.45,3.54,3.54,0,0,0,.63-1c.17-.35.41-.66.56-1,.28-.61-.21-1.12-.26-1.72a3.39,3.39,0,0,1,0-.45,1.18,1.18,0,0,0-.3-.91,2.39,2.39,0,0,0-.87-.4,7.59,7.59,0,0,0-1.17-.52,2,2,0,0,0-1.57.55,13.73,13.73,0,0,1-1.29,1.13c-.21.13-.43.23-.62.37a2,2,0,0,0-.75,1,2.56,2.56,0,0,0-.09.73,2.75,2.75,0,0,0,.09,1.07,2.54,2.54,0,0,0,1.12,1.15,4.73,4.73,0,0,0,.83.44,3.71,3.71,0,0,0,1.55.13A10.86,10.86,0,0,0,63.19,67Z"/><path class="cls-12" d="M84,15.46,84.85,14a7.42,7.42,0,0,0,1.25-3.73,9.08,9.08,0,0,0-.32-2.7C85.36,6.33,84,5.64,83.63,4.4a1.92,1.92,0,0,0-1-1.22,2.54,2.54,0,0,0-1.74,0,8.21,8.21,0,0,0-1.6.79C78,4.69,76.78,5.52,75.5,6.28A20.57,20.57,0,0,0,75.11,9a7.9,7.9,0,0,1-2.31,4.13c-.83.94-1.73,1.82-2.47,2.84a2.36,2.36,0,0,0,0,2.59,5.08,5.08,0,0,0,1.59,2.13,6.16,6.16,0,0,0,4.29,1.2,10,10,0,0,0,4.44-1.79l1.13-1.36c.45-.54.91-1.09,1.31-1.67S83.7,16,84,15.46Z"/><path class="cls-13" d="M83.67,4.54l-.44,0A2.58,2.58,0,0,1,80.9,6a1.69,1.69,0,0,1-.75-1,2.16,2.16,0,0,1,0-1.21,1.71,1.71,0,0,1,.27-.6,1.66,1.66,0,0,1,.86-.52A2.1,2.1,0,0,1,83,3,1.62,1.62,0,0,1,83.67,4.54Z"/><path class="cls-13" d="M86,8.55a4.1,4.1,0,0,0-.35-.5l-.27-.31c-.19-.22-.37-.46-.54-.7a5.79,5.79,0,0,1-.31-.54s-.07-.11-.12-.12a.08.08,0,0,0-.1.11,3.46,3.46,0,0,1,0,2,5.56,5.56,0,0,1-.93,1.79,9.81,9.81,0,0,1-3.13,2.59c-1.19.68-2.47,1.23-3.68,2a16.28,16.28,0,0,0-3.27,2.69.34.34,0,0,0,0,.48.35.35,0,0,0,.48,0,15.53,15.53,0,0,1,3.06-2.67c1.15-.75,2.41-1.33,3.61-2.06a10.36,10.36,0,0,0,3.15-2.78,9.38,9.38,0,0,0,1.23-2.62c.14.13.29.25.44.37l.22.2s.21.17.21.21a4.47,4.47,0,0,1,.35.41C86,8.86,86,8.71,86,8.55Z"/><path class="cls-14" d="M47.15,48.51c1.2-1.69,2.36-3.42,3.51-5.15-1.63,1.37-3,3-4.66,4.38A18.28,18.28,0,0,1,44.36,49a10.4,10.4,0,0,1-3,1.4h.32a9.38,9.38,0,0,0,1.9,2.28A22.67,22.67,0,0,0,47.15,48.51Z"/><path class="cls-2" d="M56.39,17.12c-.5-1.27-.66-2.65-1.12-3.93a26.9,26.9,0,0,0-1.55-3.14c-.41-.77-1.95-3.25-.27-3.45a5.31,5.31,0,0,1,3.13,1q2.94,1.68,5.75,3.59a2.82,2.82,0,0,1,1.42,1.68c.18,1.06-.62,2.09-1.06,3C62.14,17,61.58,18.05,61,19.15c-.44.84-1.67.78-2.45.45A4.4,4.4,0,0,1,56.39,17.12Z"/><path class="cls-4" d="M61.19,12.27c-.1-.11-.21-.23-.34-.35a22.05,22.05,0,0,0-6.58-4.61,1,1,0,0,0-.54-.11c-.19,0-.36.21-.32.39a6.08,6.08,0,0,0,1.06,2.13A7.89,7.89,0,0,1,55.63,12a10.63,10.63,0,0,0,.92,2.3,11.7,11.7,0,0,0,1.62,2.33c.31.35.66.66.94,1,1.15,1.52,2.42-2.1,2.65-2.94A2.3,2.3,0,0,0,61.19,12.27Z"/><path class="cls-13" d="M70.89,8.7h0a2,2,0,0,0-.77.09,1.2,1.2,0,0,0-.38.29,2.15,2.15,0,0,0-.3.48,1.43,1.43,0,0,0-.08.22,6.25,6.25,0,0,0-.21.74,4.36,4.36,0,0,1-.42,1.16A8.11,8.11,0,0,0,69.8,11l.49-.37q.39-.33.75-.69a6,6,0,0,0,.42-.45q.33-.37.63-.78Z"/><polyline class="cls-15" points="107.64 20.85 94.34 23.64 100.26 26.26 87.34 28.97"/><polyline class="cls-15" points="98.11 36.77 90.53 32.8 92.8 37.31 84.57 33"/><polyline class="cls-15" points="91.32 14.51 85.44 20.62 90.4 19.7 84.76 25.57"/></g></g></svg>