<svg xmlns="http://www.w3.org/2000/svg" xmlns:xlink="http://www.w3.org/1999/xlink" viewBox="0 0 108.01 102.65"><defs><style>.cls-1{fill:#dde2f0;}.cls-2{fill:url(#linear-gradient);}.cls-3{fill:url(#linear-gradient-2);}.cls-4{fill:#efb1ac;}.cls-5{fill:#6f3e42;}.cls-6{fill:url(#linear-gradient-3);}.cls-7{fill:#ad896d;}.cls-8{fill:#8d6558;}.cls-9{fill:#fee6ce;}.cls-10{fill:#562835;}.cls-11{fill:url(#linear-gradient-4);}.cls-12{fill:url(#linear-gradient-5);}.cls-13{fill:url(#linear-gradient-6);}.cls-14{fill:url(#linear-gradient-7);}.cls-15{fill:url(#linear-gradient-8);}.cls-16{fill:url(#linear-gradient-9);}.cls-17{fill:url(#linear-gradient-10);}.cls-18{fill:url(#linear-gradient-11);}.cls-19{fill:url(#linear-gradient-12);}.cls-20{fill:url(#linear-gradient-13);}.cls-21{fill:none;stroke:#0a45b8;stroke-linecap:round;stroke-linejoin:round;stroke-width:2px;}</style><linearGradient id="linear-gradient" x1="32.79" y1="14.38" x2="28.6" y2="38.18" gradientUnits="userSpaceOnUse"><stop offset="0.07" stop-color="#ad896d"/><stop offset="0.48" stop-color="#ab876c"/><stop offset="0.66" stop-color="#a58068"/><stop offset="0.8" stop-color="#9a7360"/><stop offset="0.89" stop-color="#8d6558"/></linearGradient><linearGradient id="linear-gradient-2" x1="52.48" y1="86.1" x2="52.48" y2="38.69" gradientUnits="userSpaceOnUse"><stop offset="0" stop-color="#ad896d"/><stop offset="0.52" stop-color="#8e6458"/><stop offset="1" stop-color="#6f3e42"/></linearGradient><linearGradient id="linear-gradient-3" x1="89" y1="68.21" x2="105.65" y2="68.21" gradientUnits="userSpaceOnUse"><stop offset="0" stop-color="#ad896d"/><stop offset="0.39" stop-color="#906659"/><stop offset="0.78" stop-color="#784948"/><stop offset="1" stop-color="#6f3e42"/></linearGradient><linearGradient id="linear-gradient-4" x1="16.55" y1="19.92" x2="23.6" y2="12.86" gradientUnits="userSpaceOnUse"><stop offset="0" stop-color="#ad896d"/><stop offset="0.21" stop-color="#a9846a"/><stop offset="0.46" stop-color="#9d7562"/><stop offset="0.73" stop-color="#885d54"/><stop offset="1" stop-color="#6f3e42"/></linearGradient><linearGradient id="linear-gradient-5" x1="20.55" y1="27.69" x2="50.85" y2="80.17" gradientUnits="userSpaceOnUse"><stop offset="0.07" stop-color="#ad896d"/><stop offset="0.56" stop-color="#af8b6e"/><stop offset="0.77" stop-color="#b69073"/><stop offset="0.89" stop-color="#bf9779"/></linearGradient><linearGradient id="linear-gradient-6" x1="111.5" y1="49.6" x2="72.01" y2="72.4" gradientUnits="userSpaceOnUse"><stop offset="0.07" stop-color="#ad896d"/><stop offset="0.46" stop-color="#b28d70"/><stop offset="0.88" stop-color="#bf9779"/><stop offset="0.89" stop-color="#bf9779"/></linearGradient><linearGradient id="linear-gradient-7" x1="85.77" y1="33.41" x2="108.77" y2="56.4" gradientUnits="userSpaceOnUse"><stop offset="0" stop-color="#ad896d"/><stop offset="0.28" stop-color="#ab866b"/><stop offset="0.5" stop-color="#a37c66"/><stop offset="0.69" stop-color="#956c5c"/><stop offset="0.86" stop-color="#825650"/><stop offset="1" stop-color="#6f3e42"/></linearGradient><linearGradient id="linear-gradient-8" x1="58.82" y1="35.57" x2="56.42" y2="49.17" gradientUnits="userSpaceOnUse"><stop offset="0.07" stop-color="#ad896d"/><stop offset="0.37" stop-color="#aa866b"/><stop offset="0.61" stop-color="#a17c65"/><stop offset="0.83" stop-color="#926b5b"/><stop offset="0.89" stop-color="#8d6558"/></linearGradient><linearGradient id="linear-gradient-9" x1="70.24" y1="39.32" x2="83.49" y2="26.08" gradientUnits="userSpaceOnUse"><stop offset="0.07" stop-color="#ad896d"/><stop offset="0.37" stop-color="#a9856a"/><stop offset="0.69" stop-color="#9d7863"/><stop offset="0.98" stop-color="#8d6558"/></linearGradient><linearGradient id="linear-gradient-10" x1="56.04" y1="34.8" x2="59.19" y2="32.98" gradientUnits="userSpaceOnUse"><stop offset="0" stop-color="#fee6ce" stop-opacity="0.4"/><stop offset="0.07" stop-color="#fee6ce" stop-opacity="0.33"/><stop offset="0.21" stop-color="#fee6ce" stop-opacity="0.21"/><stop offset="0.35" stop-color="#fee6ce" stop-opacity="0.12"/><stop offset="0.51" stop-color="#fee6ce" stop-opacity="0.05"/><stop offset="0.68" stop-color="#fee6ce" stop-opacity="0.01"/><stop offset="0.89" stop-color="#fee6ce" stop-opacity="0"/></linearGradient><linearGradient id="linear-gradient-11" x1="50.46" y1="36.12" x2="53.24" y2="34.52" gradientTransform="matrix(0.99, 0.12, -0.12, 0.99, 4.84, -5.92)" xlink:href="#linear-gradient-10"/><linearGradient id="linear-gradient-12" x1="61.08" y1="33.1" x2="63.17" y2="31.89" xlink:href="#linear-gradient-10"/><linearGradient id="linear-gradient-13" x1="65.84" y1="30.83" x2="67.14" y2="29.74" xlink:href="#linear-gradient-10"/></defs><title>Ресурс 40600</title><g id="Слой_2" data-name="Слой 2"><g id="Illustration"><path class="cls-1" d="M56.17,13A44,44,0,0,1,77,16.41,45.56,45.56,0,0,1,98.28,34.56c10.21,17,11.27,44-2.13,52.54S66.79,87.1,64.67,86s-16.6-6.38-23-.64-6.17,9.36-11.27,9.36-20-10.85-19.36-38.71c.32-14,7.49-26.15,19.1-33.8A55.34,55.34,0,0,1,56.17,13Z"/><path class="cls-2" d="M43.37,17.85a2.79,2.79,0,0,0-1-1.43,1.74,1.74,0,0,0-.38-.33,2.17,2.17,0,0,0-1.51-.1l-1.11.23a15.74,15.74,0,0,1-5.39.15c-1.3-.17-2.59-.47-3.88-.75-2.74-.6-5.56-1.08-8.33-1.55A99.3,99.3,0,0,1,20.4,25.85c-.35,2.13-.67,4.48-2,6.18a12.1,12.1,0,0,1,9.7,3.49c.66.67,1.24,1.41,1.95,2a7.11,7.11,0,0,0,2.23,1.29,19.67,19.67,0,0,1,2.47-6c.61-1,1.31-2,2-2.91l.06-.07a55.44,55.44,0,0,0,5-7.7c.34-.68.65-1.37.93-2.08a6,6,0,0,0,.65-2A1.1,1.1,0,0,0,43.37,17.85Z"/><path class="cls-3" d="M53.9,39.52a19.36,19.36,0,0,1,6.69,7.37,2.08,2.08,0,0,1,.24,2,2.8,2.8,0,0,1-.79.7A5.29,5.29,0,0,0,58.75,51a16.28,16.28,0,0,0-1,2.11,35.87,35.87,0,0,1-2.44,4.31,88.56,88.56,0,0,0-5.24,9.8,2,2,0,0,0-.2.61A3.39,3.39,0,0,0,50.18,69a2.09,2.09,0,0,1-.24,1.6,2.38,2.38,0,0,0,.15.75A12.43,12.43,0,0,0,53,76a7.79,7.79,0,0,1,1,1.11,1.79,1.79,0,0,1,.3,1.41c-.09.35-.33.7-.18,1a1.68,1.68,0,0,0,.3.4,1.63,1.63,0,0,1,.06,1.63,11.32,11.32,0,0,0-.7,1.55c-.06.22-.08.46-.14.68a3.81,3.81,0,0,1-1.06,1.58,1.85,1.85,0,0,1-1.36.7,1.9,1.9,0,0,1-.75-.31,3.81,3.81,0,0,1-.92-.67,2.93,2.93,0,0,1-.67-1.63,15.28,15.28,0,0,1,0-1.79c0-3.88-1.88-7.15-3.64-10.46A7.77,7.77,0,0,1,44,67.5a7.72,7.72,0,0,1,.9-3l2.88-6.37a18.67,18.67,0,0,0,2-6.37,6.38,6.38,0,0,0-2.55-5.86,5.23,5.23,0,0,1-1.51-1.25,3,3,0,0,1-.5-1,2.25,2.25,0,0,1,.07-1.09A5.31,5.31,0,0,1,48.61,39,6.6,6.6,0,0,1,53.9,39.52Z"/><path class="cls-4" d="M3,11.47c.23.3.45.61.67.93s.47.74.69,1.12a41.44,41.44,0,0,1,2.5,5.15,4.67,4.67,0,0,0,.72-3.53A7.24,7.24,0,0,0,6,11.85a11.58,11.58,0,0,0-1.74-1.69A16,16,0,0,0,2.46,9c-.3-.18-.62-.35-.93-.51A6.35,6.35,0,0,0,.62,8,19.41,19.41,0,0,0,3,11.47Z"/><path class="cls-5" d="M85.18,79.55a.71.71,0,0,1-.16.28.41.41,0,0,1-.54-.08,1,1,0,0,1-.24-.54c-1.36-5.77,3-11.27,7.49-14.3l.64-.41a5.48,5.48,0,0,1,1.18,2.09,5.36,5.36,0,0,1,.38,2.4,3.83,3.83,0,0,1-1.85,2.43,28.17,28.17,0,0,0-2.81,2.3A16.32,16.32,0,0,0,85.18,79.55Z"/><path class="cls-6" d="M100.45,43.16a10,10,0,0,1,1.82,5.06c.33,4.45-1.77,8.51-2.06,13a12.72,12.72,0,0,0,.36,4c.19.77.46,1.52.72,2.27.16.46.32.92.49,1.38a34.1,34.1,0,0,0,3.57,7.49,1.9,1.9,0,0,1,.27.53,2,2,0,0,1-.27,1.25,28.15,28.15,0,0,0-1,3.11c-1.22,4.12-2.92,8.16-6,11.19a4.86,4.86,0,0,1-1.66,1.23,9.9,9.9,0,0,1-1.9.29c-.62.1-1.22.33-1.85.37a1.67,1.67,0,0,1-1.6-.77,3,3,0,0,1-2.16-.21,3.76,3.76,0,0,1,0-2.32,2.8,2.8,0,0,1,1.87-1.18,8.14,8.14,0,0,1,3.11,0,1.69,1.69,0,0,0,1.11,0,1.56,1.56,0,0,0,.58-.66q1.41-2.42,2.65-4.91a23.91,23.91,0,0,0,.91-2.87,7.46,7.46,0,0,0,.49-1.91,7.83,7.83,0,0,0-1.51-4.34,49.15,49.15,0,0,1-3.89-9A20.81,20.81,0,0,1,93,57.07c.36-3.11-.11-6.24.66-9.26A10,10,0,0,1,95.34,44a4.67,4.67,0,0,1,3.53-1.89A2.24,2.24,0,0,1,100.45,43.16Z"/><path class="cls-7" d="M103.66,79A9.76,9.76,0,0,1,102,76.87l-1.47-2.73c-.31-.58-.62-1.16-1-1.73s-.62-1-.9-1.46c-1.56-2.74-2-6-2.34-9.08-.21-1.78,2-3.39,2.92-4.91,2.14-3.44,2.61-7.63,3-11.66a35.11,35.11,0,0,0,.09-9.71,17.5,17.5,0,0,0-.17-2.5,22,22,0,0,0-3-7.38,19.22,19.22,0,0,0-2-2.94c-4.5-5.36-12.58-5.42-18.93-6.42-1.42-.22-2.84-.45-4.26-.57-5.13-.44-10.31,2-15.41,1.36a38.69,38.69,0,0,0-7.21-.43,27.18,27.18,0,0,1-3,.12c-2.11-.12-4.21-1-6.27-.92h-.27a3,3,0,0,0-1.15.14,3.07,3.07,0,0,0-1.29,1.08C38,19,37,21.35,35.53,23.31c-.82,1.09-1.79,2.06-2.54,3.19a14.27,14.27,0,0,0-1.68,3.86,17.45,17.45,0,0,0-.46,8.09l.09.42a40,40,0,0,0,2.61,7.43l.68,1.58a21,21,0,0,1,1.2,3.45c.19.76.37,1.52.56,2.28a8.59,8.59,0,0,1,.29,1.67,15.22,15.22,0,0,1-.1,1.65c-.08.92-.06,1.84,0,2.77,0,2.86,0,5.55-.21,8.4A46.45,46.45,0,0,1,35,75a9.84,9.84,0,0,0-.27,1.61,24.23,24.23,0,0,1,0,2.56,6.91,6.91,0,0,1-1.25,2.59c-.85,1.25-1.62,2.54-2.47,3.8a2.2,2.2,0,0,1-1.39,0c-.2-.11-.37-.27-.57-.38a1.87,1.87,0,0,0-1.32-.07A4.37,4.37,0,0,0,24.62,88a2.09,2.09,0,0,0-.09,1,1,1,0,0,0,.56.75c.43.17.94,0,1.37.12a1.48,1.48,0,0,1,.38.23,2.74,2.74,0,0,0,3,.31,3.42,3.42,0,0,0,2.93.16,4.33,4.33,0,0,0,2.16-2,4.63,4.63,0,0,1,.45-.82,6.82,6.82,0,0,1,.61-.59c.89-.85.75-2.61,1.9-3.06a2.87,2.87,0,0,0,1.55-2.48c.12-1,0-2.06.14-3.07a23.47,23.47,0,0,1,.68-2.31,20.63,20.63,0,0,0,.5-3.32,20.23,20.23,0,0,1,.64-3.17c.56-2.1.74-4.24,1.12-6.38a24.36,24.36,0,0,1,1-3.84c.57-1.64,1.31-3.33,1-5.05-.1-.62-.33-1.22-.49-1.83A9.55,9.55,0,0,1,44.39,47a24,24,0,0,0,3.68.42,36.38,36.38,0,0,0,20.75-5.4c2.08-1.29,3.72-3.09,6.27-3.42a5.35,5.35,0,0,1,3.91,1,9,9,0,0,1,1.2,1.19,26.86,26.86,0,0,1,2.62,3.41c-.23,2-.46,4-.56,6-.19,4,.17,8.06,2,11.57a39.51,39.51,0,0,0,2.42,3.77c.75,1.12,1.35,2.26,2,3.42a71.15,71.15,0,0,0,5.2,6.93A10.22,10.22,0,0,1,95.32,78a10.82,10.82,0,0,1,.59,2.09l.69,3.22a24.37,24.37,0,0,1,.49,2.92,22.45,22.45,0,0,1-1,7.26,15.24,15.24,0,0,1-1.39,3.9c-.18.32-.7.27-1.07.2s-.7-.22-1.06-.31a3.26,3.26,0,0,0-2.54.5,4.06,4.06,0,0,0-1.56,2.1,1.26,1.26,0,0,0,0,1,1.47,1.47,0,0,0,.69.56,4.38,4.38,0,0,0,1.43.55c.34,0,.68,0,1,0a12.15,12.15,0,0,1,2.12.52,2.69,2.69,0,0,0,2.12-.15,3.92,3.92,0,0,1,.5-.33,2.61,2.61,0,0,1,.55-.14,3.27,3.27,0,0,0,2.37-2.09,9.89,9.89,0,0,0,.31-2,9.55,9.55,0,0,1,1.14-3.45,24.22,24.22,0,0,0,1.34-4c.44-1.23.88-2.47,1.21-3.73a31.6,31.6,0,0,1,1.14-4.08,4.1,4.1,0,0,0,.4-1.21A3.11,3.11,0,0,0,103.66,79Z"/><path class="cls-8" d="M2.11,9.6c.81.78,1.72,1.46,2.54,2.25a6.92,6.92,0,0,1,1.87,2.79,7.91,7.91,0,0,1,.4,2.69,7.49,7.49,0,0,0-.19,2.15.19.19,0,0,0,0,.07c0,.06.15,0,.22,0a20.29,20.29,0,0,0,2.78-2.78l2.9-3.16a.4.4,0,0,0,.12-.21.4.4,0,0,0-.09-.2,9,9,0,0,0-3-2.58A25.4,25.4,0,0,0,6,9a24.31,24.31,0,0,0-2.62-.86C2.87,8,2.33,7.89,1.81,7.75a7.22,7.22,0,0,0-1.48-.4c-.15,0-.33.06-.33.2a.27.27,0,0,0,.1.18c.23.2.47.37.7.57C1.25,8.71,1.66,9.17,2.11,9.6Z"/><path class="cls-7" d="M9.47,41.21A4.73,4.73,0,0,0,11,40.55a5.84,5.84,0,0,0,1.48-1.82,4,4,0,0,1,.57-.78,8,8,0,0,1,.8-.61C15.16,36.42,16,35,17.16,34s2.86-1.9,4.14-3a6.74,6.74,0,0,0,1.32-1.45,6.19,6.19,0,0,0,.47-1,9.11,9.11,0,0,0,.23-5.81c-.23-.76-.42-1.53-.61-2.31a13.57,13.57,0,0,1-.34-1.66c-.06-.47-.07-.94-.13-1.41a6.73,6.73,0,0,0-2.62-4.5,3.17,3.17,0,0,0-1-.39,15.66,15.66,0,0,0-3.06-.73,5.2,5.2,0,0,0-3.06.53,6.53,6.53,0,0,0-1.05.76,18.94,18.94,0,0,0-4.17,5.12c-1.28,2.31-2.58,5-2.16,7.7.07.47.19.93.29,1.4a8.63,8.63,0,0,1,0,3.32A11.66,11.66,0,0,1,4.09,33.6a25.17,25.17,0,0,0-1.42,3.34,3.52,3.52,0,0,1-.27.63c-.23.39-.62.69-.76,1.12A1.46,1.46,0,0,0,2,40a3.6,3.6,0,0,0,1.13.83,2.71,2.71,0,0,0,1.5.35,7.64,7.64,0,0,1,1.34.22A9.24,9.24,0,0,0,9.47,41.21Z"/><path class="cls-9" d="M18.45,30.75A3.46,3.46,0,0,0,17,30.18c-1.57-.18-2.91,1.27-4.48,1.3-1.09,0-2.07-.68-3.13-.87a5.6,5.6,0,0,0-2.54.14,6,6,0,0,0-1.76.89c-.27.67-.64,1.31-1,2a25.17,25.17,0,0,0-1.42,3.34,3.52,3.52,0,0,1-.27.63c-.23.39-.62.69-.76,1.12A1.49,1.49,0,0,0,2,40a3.6,3.6,0,0,0,1.13.83,2.71,2.71,0,0,0,1.5.35,7.64,7.64,0,0,1,1.34.22,9.24,9.24,0,0,0,3.55-.2A4.73,4.73,0,0,0,11,40.55a5.84,5.84,0,0,0,1.48-1.82,4,4,0,0,1,.57-.78,8,8,0,0,1,.8-.61C15.16,36.42,16,35,17.16,34a25.36,25.36,0,0,1,2.3-1.66c.28-.19-.62-1.26-.77-1.38Z"/><path class="cls-10" d="M5.13,40.32a2.39,2.39,0,0,1,.55-1.07,3.47,3.47,0,0,0-2-1.07A4,4,0,0,0,2,38.08H2l-.13.18-.08.12a1.14,1.14,0,0,0-.16.31A1.49,1.49,0,0,0,2,40a3.6,3.6,0,0,0,1.13.83,2.71,2.71,0,0,0,1.5.35,2.36,2.36,0,0,1,.7.09A1.67,1.67,0,0,1,5.13,40.32Z"/><path class="cls-10" d="M14.66,25.82c-.64.12-1.32-.07-1.94.11a2.35,2.35,0,0,0-1,.69,10.33,10.33,0,0,0-.74,1,3.7,3.7,0,0,0,2.16-.16,2.55,2.55,0,0,0,.46-.25,2.81,2.81,0,0,0,.35-.34A5.91,5.91,0,0,0,14.66,25.82Z"/><path class="cls-10" d="M5.31,25.37a1.8,1.8,0,0,0-.26-.29,6.32,6.32,0,0,0,.06.74c.06.41.16.82.25,1.23a3.27,3.27,0,0,0,.57.16C5.64,26.63,5.65,25.93,5.31,25.37Z"/><path class="cls-11" d="M14.93,16c.4-1.45.19-3,.6-4.46a5.39,5.39,0,0,1,.78-1.62,1.87,1.87,0,0,1,.62-.6,1.72,1.72,0,0,1,.87-.14,6.55,6.55,0,0,1,2.56.93,7.59,7.59,0,0,1,1.35.87,7.3,7.3,0,0,1,1.75,2.81,5.93,5.93,0,0,1,.36,1A10,10,0,0,1,24,16.58c.08,1.26.47,2.48.66,3.73a3.73,3.73,0,0,1,0,1.29,4.13,4.13,0,0,1-1.73,2.13.68.68,0,0,1-.34.19.57.57,0,0,1-.26,0A7.43,7.43,0,0,1,19,22.18a21.4,21.4,0,0,1-2.92-2.87c-.25-.29-.49-.59-.75-.86a3.82,3.82,0,0,1-.62-.65C14.4,17.28,14.79,16.52,14.93,16Z"/><path class="cls-4" d="M22.53,18.53c0-.13,0-.26,0-.39a10.59,10.59,0,0,0,.09-1.48,11.16,11.16,0,0,0-1-3,5.18,5.18,0,0,0-.73-1.3,5.2,5.2,0,0,0-1-.82l-1.83-1.26c-.43-.3-.94-.46-1.31,0a2.15,2.15,0,0,0-.32,1c-.14,1-.3,2-.49,3a10.5,10.5,0,0,0-.39,2.55A1.89,1.89,0,0,0,16.2,18a8.09,8.09,0,0,0,1.11.81,10.69,10.69,0,0,1,1.32,1.1c.95.95,2.1,2.2,3.52,2.35a.55.55,0,0,0,.5-.14.6.6,0,0,0,.07-.4c0-.71-.09-1.41-.14-2.11C22.56,19.27,22.53,18.9,22.53,18.53Z"/><path class="cls-12" d="M30.94,38.87l-.09-.42a17.45,17.45,0,0,1,.46-8.09A14.27,14.27,0,0,1,33,26.5c.75-1.13,1.72-2.1,2.54-3.19,1.48-2,2.44-4.27,4-6.19A3.07,3.07,0,0,1,40.78,16a3,3,0,0,1,1.15-.14c1.67,0,3.52.49,4.4,1.91A6.2,6.2,0,0,1,47,19.75c.75,3.4,1.51,6.92.8,10.32a45,45,0,0,1-2.39,6.55,14.9,14.9,0,0,0-.9,3.28,6,6,0,0,0,.18,3.33,8.89,8.89,0,0,1,.45.79,3.12,3.12,0,0,1-.44,2.27,9.71,9.71,0,0,0-.64,6.32,17.05,17.05,0,0,1,.49,1.83c.28,1.72-.46,3.41-1,5.05a24.36,24.36,0,0,0-1,3.84c-.38,2.14-.56,4.28-1.12,6.38a20.23,20.23,0,0,0-.64,3.17,20.63,20.63,0,0,1-.5,3.32,23.47,23.47,0,0,0-.68,2.31c-.17,1,0,2-.14,3.07a2.87,2.87,0,0,1-1.55,2.48c-1.15.45-1,2.21-1.9,3.06a6.82,6.82,0,0,0-.61.59,4.63,4.63,0,0,0-.45.82,4.33,4.33,0,0,1-2.16,2,3.42,3.42,0,0,1-2.93-.16,2.74,2.74,0,0,1-3-.31,1.48,1.48,0,0,0-.38-.23c-.43-.17-.94,0-1.37-.12a1,1,0,0,1-.56-.75,2.09,2.09,0,0,1,.09-1,4.37,4.37,0,0,1,3.08-2.92,1.87,1.87,0,0,1,1.32.07c.2.11.37.27.57.38a2.2,2.2,0,0,0,1.39,0c.85-1.26,1.62-2.55,2.47-3.8a6.91,6.91,0,0,0,1.25-2.59,24.23,24.23,0,0,0,0-2.56A9.84,9.84,0,0,1,35,75a46.45,46.45,0,0,0,.92-6.94c.17-2.85.25-5.54.21-8.4,0-.93,0-1.85,0-2.77a15.22,15.22,0,0,0,.1-1.65A8.59,8.59,0,0,0,36,53.61l-.56-2.28a21,21,0,0,0-1.2-3.45l-.68-1.58A40,40,0,0,1,30.94,38.87Z"/><path class="cls-13" d="M96.32,61.87c.38,3.12.78,6.34,2.34,9.08.28.5.6,1,.9,1.46s.65,1.15,1,1.73L102,76.87A9.76,9.76,0,0,0,103.66,79a3.11,3.11,0,0,1,1.1,2.34,4.1,4.1,0,0,1-.4,1.21,31.6,31.6,0,0,0-1.14,4.08c-.33,1.26-.77,2.5-1.21,3.73a24.22,24.22,0,0,1-1.34,4,9.55,9.55,0,0,0-1.14,3.45,9.89,9.89,0,0,1-.31,2,3.27,3.27,0,0,1-2.37,2.09,2.61,2.61,0,0,0-.55.14,3.92,3.92,0,0,0-.5.33,2.69,2.69,0,0,1-2.12.15,12.15,12.15,0,0,0-2.12-.52c-.34,0-.68,0-1,0a4.38,4.38,0,0,1-1.43-.55,1.47,1.47,0,0,1-.69-.56,1.26,1.26,0,0,1,0-1A4.06,4.06,0,0,1,90,97.76a3.26,3.26,0,0,1,2.54-.5c.36.09.7.25,1.06.31s.89.12,1.07-.2a15.24,15.24,0,0,0,1.39-3.9,22.45,22.45,0,0,0,1-7.26,24.37,24.37,0,0,0-.49-2.92l-.69-3.22A10.82,10.82,0,0,0,95.32,78a10.22,10.22,0,0,0-1.38-2.13,71.15,71.15,0,0,1-5.2-6.93c-.7-1.16-1.3-2.3-2-3.42a39.51,39.51,0,0,1-2.42-3.77c-1.84-3.51-2.2-7.62-2-11.57s.91-7.87,1.1-11.83c.18-3.63-.09-7.28.21-10.91.17-2-.92-3.8.2-5.42a4.72,4.72,0,0,1,5-1.51,12.9,12.9,0,0,1,4.79,2.79c3.29,2.66,6.56,5.66,8.06,9.61s1.07,8.25.64,12.41-.9,8.22-3,11.66C98.29,58.48,96.11,60.09,96.32,61.87Z"/><path class="cls-8" d="M51.14,79.2A7.09,7.09,0,0,1,51,80.51a5.33,5.33,0,0,1-.53,1.07,1.72,1.72,0,0,0-.27,1.15,3.83,3.83,0,0,0,.29.73c.24.61.15,1.31.35,1.93a.65.65,0,0,0,.25.39c.44.25.9-.41,1.13-.7a4.94,4.94,0,0,0,.83-1.4c.14-.37.25-.77.42-1.14a4.35,4.35,0,0,0,.55-1.3,4.36,4.36,0,0,0-.27-1.42c-.11-.48,0-1.11-.29-1.52A1.38,1.38,0,0,0,52,78,1.21,1.21,0,0,0,51.14,79.2Z"/><path class="cls-14" d="M106.24,34.39a25,25,0,0,0-8.51-11.23c-.39-.29-1.07-1.06-1.26-.33s.73,1.68,1,2.19a28.07,28.07,0,0,1,1.41,3.29,16.39,16.39,0,0,1,2.77,4.58c1.49,3.91,1.07,8.25.64,12.41s-.9,8.22-3,11.66c-.94,1.52-3.13,3.13-2.92,4.91a39.7,39.7,0,0,0,1,5.65,22.5,22.5,0,0,0,6.12-6.8,32.82,32.82,0,0,0,2-4.28,40.19,40.19,0,0,0,1.8-5.57A28.26,28.26,0,0,0,106.24,34.39Z"/><path class="cls-15" d="M75.29,38.52c-1.19,0-2.3-.23-3.5-.18A11.51,11.51,0,0,0,67.9,39a25.36,25.36,0,0,1-8.57,1.59,21.93,21.93,0,0,1-2.29-.1A19.5,19.5,0,0,1,49,37.86a19,19,0,0,1-3.42-2.57c-.71-.66-2-2.53-3.12-2.13a1.58,1.58,0,0,0-.84.59c-.31.47-.1,1.24,0,1.77a8.73,8.73,0,0,0,.47,2c.09.25.2.5.31.75.47,1.05,1,2.1,1.49,3.12a15.52,15.52,0,0,1,.79,1.51c.14.38.39.72.53,1.1a3.12,3.12,0,0,1-.44,2.27c-.11.24-.2.5-.29.76a24.85,24.85,0,0,0,3.66.41,36.38,36.38,0,0,0,20.75-5.4c2.08-1.29,3.72-3.09,6.27-3.42a5.9,5.9,0,0,1,.84,0A1.77,1.77,0,0,0,75.29,38.52Z"/><path class="cls-16" d="M81,26.53a20.44,20.44,0,0,1-2.92.26,22,22,0,0,1-5.65-.7,27.55,27.55,0,0,1-5.41-1.67c.34.17.57.6.88.83.48.33,1,.63,1.47.95l2.85,1.86a14.42,14.42,0,0,1,3.27,2.47,4.16,4.16,0,0,1,.66,3.53c-.47,2.11-2.07,3.78-3.74,5.15a6.66,6.66,0,0,0-1.18,1.13h0a8.41,8.41,0,0,1,3.83-1.71,5.35,5.35,0,0,1,3.91,1,9,9,0,0,1,1.2,1.19,26.86,26.86,0,0,1,2.62,3.41c0,.24,0,.49-.08.73a45.74,45.74,0,0,0,.59-5.69c.11-2.24.09-4.5.06-6.78,0-2.09,0-4.17.21-6.26C83.6,26.19,81.3,26.48,81,26.53Z"/><path class="cls-17" d="M64.05,41.6a1.29,1.29,0,0,1-.8-.09C58,39.62,55.06,34,53.77,29A13.91,13.91,0,0,1,53.21,25c.36.67.71,1.23,1,1.94a49.7,49.7,0,0,0,4.31,8q1.26,1.89,2.68,3.66a26.61,26.61,0,0,0,2.93,3A.24.24,0,0,1,64.05,41.6Z"/><path class="cls-18" d="M56.81,42.89a1.2,1.2,0,0,1-.69-.16c-4.36-2.22-6.35-7.42-6.94-12a12.5,12.5,0,0,1-.07-3.51c.25.63.49,1.16.68,1.81a43.88,43.88,0,0,0,2.91,7.43c.6,1.19,1.25,2.35,2,3.48a22.75,22.75,0,0,0,2.23,2.92Z"/><path class="cls-19" d="M66.86,38.29a17.06,17.06,0,0,1-7-7.27,17.29,17.29,0,0,1-.76-1.56,8.21,8.21,0,0,1-.76-3.32,18.31,18.31,0,0,1,1.73,2.51l1.75,2.57A67.87,67.87,0,0,0,66.86,38.29Z"/><path class="cls-20" d="M70.52,33.77a11.2,11.2,0,0,1-7.31-7.6C65.55,28.74,68.18,31.2,70.52,33.77Z"/><path class="cls-10" d="M15.43,35.85a.52.52,0,0,0-.06-.13.37.37,0,0,0-.42-.08.89.89,0,0,0-.28.23,12.94,12.94,0,0,0-.89,1.07A10.31,10.31,0,0,0,13,38a.2.2,0,0,1,0,.08,1.83,1.83,0,0,1,.13-.16,8,8,0,0,1,.8-.61A9.44,9.44,0,0,0,15.43,35.85Z"/><line class="cls-21" x1="83.13" y1="2.55" x2="79.34" y2="12.42"/><line class="cls-21" x1="52.48" y1="4.21" x2="57.13" y2="13.7"/><line class="cls-21" x1="66.84" y1="1" x2="68.05" y2="11.5"/><line class="cls-21" x1="76.2" y1="45.58" x2="79.13" y2="55.74"/><line class="cls-21" x1="66.54" y1="46.53" x2="65.65" y2="57.07"/></g></g></svg>